<?xml version="1.0" encoding="UTF-8" standalone="no"?>
<svg width="1020px" height="550px" viewBox="0 0 1020 550" version="1.1" xmlns="http://www.w3.org/2000/svg" xmlns:xlink="http://www.w3.org/1999/xlink" xmlns:sketch="http://www.bohemiancoding.com/sketch/ns">
    <!-- Generator: Sketch 3.5.1 (25234) - http://www.bohemiancoding.com/sketch -->
    <title>Artboard 7</title>
    <desc>Created with Sketch.</desc>
    <defs>
        <linearGradient x1="50%" y1="0%" x2="50%" y2="100%" id="linearGradient-1">
            <stop stop-color="#D9D9D9" offset="0%"></stop>
            <stop stop-color="#EEEEEE" offset="100%"></stop>
        </linearGradient>
    </defs>
    <g id="Welcome" stroke="none" stroke-width="1" fill="none" fill-rule="evenodd" sketch:type="MSPage">
        <g id="Artboard-7" sketch:type="MSArtboardGroup">
            <g id="flow" sketch:type="MSLayerGroup" transform="translate(-10.000000, -26.000000)">
                <g id="iMac" transform="translate(183.000000, 27.000000)" sketch:type="MSShapeGroup">
                    <g id="base" transform="translate(200.515366, 446.049719)" stroke-width="0.5">
                        <path d="M238.487871,86.7844357 C232.589645,84.213504 226.540855,15.1195721 226.540855,0 L46.4246249,0 C46.4246249,15.1195721 40.3758349,84.213504 34.477989,86.7844357 C28.5801431,89.3546071 0,92.076457 0,93.7392184 C34.9315817,94.7975466 107.975597,94.7975466 137.3097,94.7975466 C166.643423,94.7975466 238.654023,95.2514417 272.965099,93.7392184 C272.965099,92.076457 244.384956,89.3546071 238.487871,86.7844357 Z" id="Imported-Layers" stroke="#9B9B9B" fill="url(#linearGradient-1)"></path>
                        <path d="M0.0867559622,99.2077251 C0.0867559622,102.263443 100.98833,101.518159 136.464596,101.489996 C171.940862,101.518159 272.842052,102.263443 272.842052,99.2077251 L272.842052,95.0619826 L272.842052,94.0225482 C238.095048,96.0962017 167.008138,95.4745229 137.30244,95.4745229 C107.595586,95.4745229 35.4613719,95.4745229 0.0867559622,94.0225482 L0.0867559622,95.060418 L0.0867559622,99.2077251 Z" id="Imported-Layers" stroke="#AAAAAA" fill="#EEEEEE"></path>
                    </g>
                    <rect id="screen-border" stroke="#CCCCCC" stroke-width="0.2" x="0.634831603" y="0" width="672.753162" height="447.208703" rx="10"></rect>
                    <g id="screen" transform="translate(0.000000, 1.000000)" stroke="#828282" stroke-width="0.5" fill="#EEEEEE">
                        <path d="M0.634831603,9.99831032 C0.634831603,4.47639601 5.10875972,0 10.6340341,0 L663.388791,0 C668.911198,0 673.387994,4.47052424 673.387994,9.99831032 L673.387994,436.210393 C673.387994,441.732307 668.914066,446.208703 663.388791,446.208703 L10.6340341,446.208703 C5.11162706,446.208703 0.634831603,441.738179 0.634831603,436.210393 L0.634831603,9.99831032 Z M35.6348316,34.8296791 L638.220155,34.8296791 L638.220155,373.170321 L35.6348316,373.170321 L35.6348316,34.8296791 Z" id="Rectangle-93"></path>
                    </g>
                </g>
            </g>
        </g>
    </g>
</svg>