<?xml version="1.0" encoding="UTF-8" standalone="no"?>
<svg width="1020px" height="550px" viewBox="0 0 1020 550" version="1.1" xmlns="http://www.w3.org/2000/svg" xmlns:xlink="http://www.w3.org/1999/xlink" xmlns:sketch="http://www.bohemiancoding.com/sketch/ns">
    <!-- Generator: Sketch 3.4.4 (17249) - http://www.bohemiancoding.com/sketch -->
    <title>Artboard 7</title>
    <desc>Created with Sketch.</desc>
    <defs></defs>
    <g id="Welcome" stroke="none" stroke-width="1" fill="none" fill-rule="evenodd" sketch:type="MSPage">
        <g id="Artboard-7" sketch:type="MSArtboardGroup">
            <g id="flow" sketch:type="MSLayerGroup" transform="translate(0.000000, 2.000000)">
                <g id="Rectangle-81-+-kelseylegault.com/wa-+-media-installation" transform="translate(0.000000, 109.000000)" sketch:type="MSShapeGroup">
                    <rect id="Rectangle-81" stroke="#000000" fill="#FFFFFF" x="0.530604539" y="0" width="300" height="110"></rect>
                    <path d="M32.608,71.736 C32.7253339,71.1706638 32.9706648,70.717335 33.344,70.376 C33.7173352,70.034665 34.1866638,69.864 34.752,69.864 L34.512,71.112 C33.6693291,71.112 33.1946672,71.5013294 33.088,72.28 C33.3866682,72.7600024 33.5093336,73.2613307 33.456,73.784 C33.4026664,74.3066693 33.2880009,74.7413316 33.112,75.088 C32.9359991,75.4346684 32.7093347,75.7359987 32.432,75.992 C31.8559971,76.5040026 31.168004,76.76 30.368,76.76 C29.8239973,76.76 29.3546686,76.6373346 28.96,76.392 C28.7573323,76.4346669 28.5733342,76.5333326 28.408,76.688 C28.2426658,76.8426674 28.1440002,77.0479987 28.112,77.304 C28.0586664,77.8800029 28.4586624,78.168 29.312,78.168 L31.984,78.168 C32.6240032,78.168 33.1199982,78.3199985 33.472,78.624 C33.8240018,78.9280015 33.9733336,79.3519973 33.92,79.896 C33.8559997,80.696004 33.4346706,81.3946637 32.656,81.992 C31.8453293,82.6213365 30.8320061,82.936 29.616,82.936 C28.5813282,82.936 27.760003,82.7013357 27.152,82.232 C26.5546637,81.7626643 26.2879997,81.1813368 26.352,80.488 C26.3840002,80.029331 26.5386653,79.6560014 26.816,79.368 C27.0933347,79.0799986 27.4399979,78.8773339 27.856,78.76 C27.589332,78.6106659 27.3920006,78.4160012 27.264,78.176 C27.1359994,77.9359988 27.0879998,77.653335 27.12,77.328 C27.1520002,77.002665 27.2933321,76.7146679 27.544,76.464 C27.7946679,76.2133321 28.090665,76.0453338 28.432,75.96 C27.9626643,75.426664 27.7706662,74.7546707 27.856,73.944 C27.9413338,73.1119958 28.2719971,72.4400026 28.848,71.928 C29.4240029,71.4159974 30.082663,71.16 30.824,71.16 C31.565337,71.16 32.1599978,71.3519981 32.608,71.736 L32.608,71.736 Z M27.472,80.44 C27.4399998,80.8453354 27.6106648,81.1946652 27.984,81.488 C28.3573352,81.7813348 28.9279962,81.928 29.696,81.928 C30.5386709,81.928 31.2586637,81.7306686 31.856,81.336 C32.4106694,80.9626648 32.7199997,80.509336 32.784,79.976 C32.8053334,79.7306654 32.7440007,79.5200009 32.6,79.344 C32.4559993,79.1679991 32.2240016,79.08 31.904,79.08 L29.104,79.08 C28.6133309,79.1013334 28.2320014,79.2319988 27.96,79.472 C27.6879986,79.7120012 27.5253336,80.0346646 27.472,80.44 L27.472,80.44 Z M32.016,72.592 C31.749332,72.2453316 31.3520026,72.072 30.824,72.072 C30.2959974,72.072 29.869335,72.2453316 29.544,72.592 C29.218665,72.9386684 29.0293336,73.3893306 28.976,73.944 C28.9226664,74.4986694 29.029332,74.9546649 29.296,75.312 C29.562668,75.6693351 29.9546641,75.848 30.472,75.848 C30.9893359,75.848 31.4159983,75.6666685 31.752,75.304 C32.0880017,74.9413315 32.2826664,74.4853361 32.336,73.936 C32.3893336,73.3866639 32.282668,72.9386684 32.016,72.592 L32.016,72.592 Z M39.124,78.152 C40.0626713,78.152 40.6493321,77.6880046 40.884,76.76 L42.052,76.76 C41.8706657,77.5280038 41.5080027,78.1226646 40.964,78.544 C40.4199973,78.9653354 39.7746704,79.176 39.028,79.176 C38.1106621,79.176 37.4013358,78.8186702 36.9,78.104 C36.366664,77.3573296 36.1639993,76.3866726 36.292,75.192 C36.4200006,73.9546605 36.8093301,72.973337 37.46,72.248 C38.1000032,71.522663 38.8733288,71.16 39.78,71.16 C40.7933384,71.16 41.5079979,71.5919957 41.924,72.456 C42.3080019,73.2346706 42.3720013,74.2319939 42.116,75.448 L37.396,75.448 C37.2893328,76.6960062 37.5879965,77.5279979 38.292,77.944 C38.5160011,78.0826674 38.7933317,78.152 39.124,78.152 L39.124,78.152 Z M40.5,72.36 C40.2866656,72.2319994 40.0253349,72.168 39.716,72.168 C39.4066651,72.168 39.1293345,72.2293327 38.884,72.352 C38.6386654,72.4746673 38.4200009,72.6426656 38.228,72.856 C37.8546648,73.2826688 37.6146672,73.8266634 37.508,74.488 L41.188,74.488 C41.3053339,73.421328 41.0760029,72.7120018 40.5,72.36 L40.5,72.36 Z M48.408,78.776 C47.8533305,79.042668 47.3200025,79.176 46.808,79.176 C46.2959974,79.176 45.869335,79.0000018 45.528,78.648 C45.1866649,78.2959982 45.0533329,77.7520037 45.128,77.016 L45.56,72.312 L44.44,72.312 L44.552,71.352 L45.64,71.352 L45.848,69.224 L46.984,69.224 L46.776,71.352 L48.936,71.352 L48.84,72.312 L46.68,72.312 L46.248,77 C46.1946664,77.3946686 46.2453325,77.687999 46.4,77.88 C46.5546674,78.072001 46.7973316,78.168 47.128,78.168 C47.4586683,78.168 47.8586643,78.072001 48.328,77.88 L48.408,78.776 Z M51.0679999,71.352 L52.1879999,71.352 L52.2999999,70.184 C52.374667,69.4159962 52.6173312,68.8560018 53.0279999,68.504 C53.4386686,68.1519982 53.8839975,67.976 54.3639999,67.976 C54.8440023,67.976 55.275998,68.0453326 55.6599999,68.184 L55.3559999,69.176 C55.0573318,69.0373326 54.8146675,68.968 54.6279999,68.968 C54.4413323,68.968 54.2893338,68.9866665 54.1719999,69.024 C54.054666,69.0613335 53.9426671,69.1226662 53.8359999,69.208 C53.6119988,69.4213344 53.4786668,69.7519978 53.4359999,70.2 L53.3239999,71.352 L54.7479999,71.352 L54.6679999,72.216 L53.2439999,72.216 L52.6039999,79 L51.4839999,79 L52.1079999,72.216 L50.9879999,72.216 L51.0679999,71.352 Z M57.9679999,68.104 L59.1039999,68.104 L58.0799999,79 L56.9439999,79 L57.9679999,68.104 Z M65.2839999,71.16 C65.7426688,71.16 66.1613313,71.2453325 66.5399999,71.416 C66.9186684,71.5866675 67.2359986,71.842665 67.4919999,72.184 C68.0360026,72.909337 68.2440005,73.9066603 68.1159999,75.176 C67.9879992,76.4560064 67.5880032,77.4533298 66.9159999,78.168 C66.2759967,78.8400034 65.4760047,79.176 64.5159999,79.176 C63.5559951,79.176 62.8200024,78.8400034 62.3079999,78.168 C61.7639972,77.4533298 61.5559992,76.4560064 61.6839999,75.176 C61.8120005,73.8959936 62.2119965,72.8986702 62.8839999,72.184 C63.5133364,71.5013299 64.3133284,71.16 65.2839999,71.16 L65.2839999,71.16 Z M65.2039999,72.248 C64.5319965,72.248 63.9933352,72.5066641 63.5879999,73.024 C63.1826645,73.5413359 62.9373336,74.2559954 62.8519999,75.168 C62.7666661,76.0800046 62.8653318,76.7946641 63.1479999,77.312 C63.430668,77.8293359 63.9079965,78.088 64.5799999,78.088 C65.2520032,78.088 65.7959978,77.8293359 66.2119999,77.312 C66.628002,76.7946641 66.8786661,76.0800046 66.9639999,75.168 C67.0493336,74.2559954 66.9453347,73.5413359 66.6519999,73.024 C66.3586651,72.5066641 65.8760032,72.248 65.2039999,72.248 L65.2039999,72.248 Z M71.3359999,71.352 L72.4399999,77.432 L74.5999999,71.72 L75.5599999,71.72 L76.6479999,77.512 L78.9039999,71.352 L80.0399999,71.352 L77.0639999,79 L75.9599999,79 L74.8719999,73.64 L72.8239999,79 L71.7199999,79 L70.1519999,71.352 L71.3359999,71.352 Z M81.2199998,78.88 C81.0759991,78.7039991 81.0146664,78.4906679 81.0359998,78.24 C81.0573333,77.9893321 81.1533323,77.7760009 81.3239998,77.6 C81.4946674,77.4239991 81.7053319,77.336 81.9559998,77.336 C82.2066678,77.336 82.4039991,77.4239991 82.5479998,77.6 C82.6920006,77.7760009 82.7533333,77.9893321 82.7319998,78.24 C82.7106664,78.4906679 82.6120007,78.7039991 82.4359998,78.88 C82.259999,79.0560009 82.0493344,79.144 81.8039998,79.144 C81.5586653,79.144 81.3640006,79.0560009 81.2199998,78.88 L81.2199998,78.88 Z M88.7199998,71.16 C89.1253352,71.16 89.4773316,71.226666 89.7759998,71.36 C90.074668,71.493334 90.3306654,71.6719989 90.5439998,71.896 C90.9600019,72.3440022 91.1999995,72.9093299 91.2639998,73.592 L90.1119998,73.704 C90.026666,73.2559978 89.8586677,72.9066679 89.6079998,72.656 C89.3573319,72.4053321 89.0666681,72.28 88.7359998,72.28 C88.4053315,72.28 88.1146677,72.3413327 87.8639998,72.464 C87.6133319,72.5866673 87.3866675,72.7706654 87.1839998,73.016 C86.7253308,73.549336 86.4586668,74.2639955 86.3839998,75.16 C86.298666,76.034671 86.4186648,76.7359974 86.7439998,77.264 C87.0693348,77.7920026 87.5066637,78.056 88.0559998,78.056 C88.6053359,78.056 89.0293316,77.9146681 89.3279998,77.632 C89.626668,77.3493319 89.7973329,76.9466693 89.8399998,76.424 L91.0079998,76.424 C90.9439995,77.224004 90.629336,77.8799974 90.0639998,78.392 C89.5093304,78.9146693 88.8106707,79.176 87.9679998,79.176 C87.1146622,79.176 86.4213358,78.8186702 85.8879998,78.104 C85.3333304,77.3466629 85.1093326,76.3653394 85.2159998,75.16 C85.3440004,73.9333272 85.754663,72.9466704 86.4479998,72.2 C87.0986697,71.5066632 87.8559955,71.16 88.7199998,71.16 L88.7199998,71.16 Z M97.1559998,71.16 C97.6146687,71.16 98.0333312,71.2453325 98.4119998,71.416 C98.7906683,71.5866675 99.1079985,71.842665 99.3639998,72.184 C99.9080025,72.909337 100.116,73.9066603 99.9879998,75.176 C99.8599991,76.4560064 99.4600031,77.4533298 98.7879998,78.168 C98.1479966,78.8400034 97.3480046,79.176 96.3879998,79.176 C95.427995,79.176 94.6920023,78.8400034 94.1799998,78.168 C93.6359971,77.4533298 93.4279991,76.4560064 93.5559998,75.176 C93.6840004,73.8959936 94.0839964,72.8986702 94.7559998,72.184 C95.3853363,71.5013299 96.1853283,71.16 97.1559998,71.16 L97.1559998,71.16 Z M97.0759998,72.248 C96.4039964,72.248 95.8653351,72.5066641 95.4599998,73.024 C95.0546644,73.5413359 94.8093335,74.2559954 94.7239998,75.168 C94.638666,76.0800046 94.7373317,76.7946641 95.0199998,77.312 C95.3026679,77.8293359 95.7799964,78.088 96.4519998,78.088 C97.1240031,78.088 97.6679977,77.8293359 98.0839998,77.312 C98.5000019,76.7946641 98.750666,76.0800046 98.8359998,75.168 C98.9213335,74.2559954 98.8173346,73.5413359 98.5239998,73.024 C98.230665,72.5066641 97.7480031,72.248 97.0759998,72.248 L97.0759998,72.248 Z M104.168,72.84 C104.744003,71.7199944 105.570661,71.16 106.648,71.16 C107.245336,71.16 107.730665,71.322665 108.104,71.648 C108.477335,71.973335 108.727999,72.4239971 108.856,73 C109.400002,71.7733272 110.258661,71.16 111.432,71.16 C112.253337,71.16 112.863998,71.4586637 113.264,72.056 C113.664002,72.6533363 113.810667,73.4693282 113.704,74.504 L113.288,79 L112.168,79 L112.584,74.504 C112.658667,73.7679963 112.557334,73.2133352 112.28,72.84 C112.002665,72.4666648 111.570669,72.28 110.984,72.28 C110.39733,72.28 109.917335,72.546664 109.544,73.08 C109.170665,73.613336 108.941334,74.3493286 108.856,75.288 L108.84,75.288 L108.504,79 L107.384,79 L107.8,74.504 C107.874667,73.7679963 107.773334,73.2133352 107.496,72.84 C107.218665,72.4666648 106.786669,72.28 106.2,72.28 C105.61333,72.28 105.114668,72.5546639 104.704,73.104 C104.293331,73.6533361 104.045334,74.4133285 103.96,75.384 L103.624,79 L102.488,79 L103.208,71.352 L104.184,71.352 L104.168,72.84 Z" id="getflow.com" fill="#000000"></path>
                    <path d="M32.3413086,34.3154297 C32.0577785,34.4254563 31.863119,34.6285792 31.7573242,34.9248047 C31.6515294,35.2210301 31.5986328,35.6949837 31.5986328,36.3466797 L31.5986328,49.2451172 C31.5986328,49.8968132 31.6515294,50.3707667 31.7573242,50.6669922 C31.863119,50.9632176 32.0577785,51.1663406 32.3413086,51.2763672 C32.6248387,51.3863938 33.0797495,51.4541014 33.7060547,51.4794922 L33.7060547,52 C32.9104778,51.9492185 31.8102284,51.9238281 30.4052734,51.9238281 C28.9156827,51.9238281 27.8069698,51.9492185 27.0791016,52 L27.0791016,51.4794922 C27.7054068,51.4541014 28.1603176,51.3863938 28.4438477,51.2763672 C28.7273777,51.1663406 28.9220372,50.9632176 29.027832,50.6669922 C29.1336268,50.3707667 29.1865234,49.8968132 29.1865234,49.2451172 L29.1865234,36.3466797 C29.1865234,35.6949837 29.1336268,35.2210301 29.027832,34.9248047 C28.9220372,34.6285792 28.7273777,34.4254563 28.4438477,34.3154297 C28.1603176,34.2054031 27.7054068,34.1376954 27.0791016,34.1123047 L27.0791016,33.5917969 C27.7985062,33.6425784 28.9072191,33.6679688 30.4052734,33.6679688 C31.8102284,33.6679688 32.9104778,33.6425784 33.7060547,33.5917969 L33.7060547,34.1123047 C33.0797495,34.1376954 32.6248387,34.2054031 32.3413086,34.3154297 L32.3413086,34.3154297 Z M42.7359996,38.9936523 C43.5104175,38.4985327 44.3842695,38.2509766 45.3575816,38.2509766 C46.5678741,38.2509766 47.4861592,38.5768197 48.1124644,39.2285156 C48.4340806,39.5839862 48.6647098,40.0219701 48.804359,40.5424805 C48.9440081,41.0629909 49.0138316,41.763342 49.0138316,42.6435547 L49.0138316,49.5878906 C49.0138316,50.0703149 49.0794234,50.4469388 49.210609,50.7177734 C49.3417945,50.9886081 49.5491492,51.1790359 49.8326793,51.2890625 C50.1162093,51.3990891 50.5034125,51.4541016 50.9943004,51.4541016 L50.9943004,52 C49.4031466,51.9322913 48.3621414,51.8984375 47.8712535,51.8984375 C47.3888292,51.8984375 46.4197634,51.9322913 44.9640269,52 L44.9640269,51.4541016 C45.3956697,51.4541016 45.7320921,51.3990891 45.9733043,51.2890625 C46.2145164,51.1790359 46.392249,50.9886081 46.5065074,50.7177734 C46.6207658,50.4469388 46.6778941,50.0703149 46.6778941,49.5878906 L46.6778941,42.0722656 C46.6778941,41.4459604 46.6292292,40.9212261 46.531898,40.4980469 C46.4345668,40.0748677 46.2314438,39.7320977 45.922523,39.4697266 C45.6136022,39.2073555 45.1629231,39.0761719 44.5704722,39.0761719 C43.8595312,39.0761719 43.2268878,39.2835266 42.672523,39.6982422 C42.1181583,40.1129578 41.6886378,40.6821253 41.3839488,41.4057617 C41.0792598,42.1293981 40.9269176,42.9313107 40.9269176,43.8115234 L40.9269176,49.5878906 C40.9269176,50.0703149 40.9840459,50.4469388 41.0983043,50.7177734 C41.2125627,50.9886081 41.3924111,51.1790359 41.6378551,51.2890625 C41.883299,51.3990891 42.2218373,51.4541016 42.6534801,51.4541016 L42.6534801,52 C41.1977436,51.9322913 40.224446,51.8984375 39.7335582,51.8984375 C39.2426703,51.8984375 38.2016651,51.9322913 36.6105113,52 L36.6105113,51.4541016 C37.1013992,51.4541016 37.4886023,51.3990891 37.7721324,51.2890625 C38.0556625,51.1790359 38.2630172,50.9886081 38.3942027,50.7177734 C38.5253883,50.4469388 38.5909801,50.0703149 38.5909801,49.5878906 L38.5909801,41.4501953 C38.5909801,40.6461548 38.4449854,40.0621763 38.1529918,39.6982422 C37.8609981,39.3343081 37.3468431,39.1523438 36.6105113,39.1523438 L36.6105113,38.6064453 C37.1521807,38.6572268 37.6896102,38.6826172 38.222816,38.6826172 C39.3230819,38.6826172 40.2244401,38.5641288 40.9269176,38.3271484 L40.9269176,41.3867188 C41.3585603,40.2864528 41.9615816,39.488772 42.7359996,38.9936523 L42.7359996,38.9936523 Z M61.2493429,38.6318359 L61.2493429,39.1523438 L57.4026632,39.1523438 L57.4026632,49.2197266 C57.4026632,50.0068399 57.5423103,50.5717756 57.8216085,50.9145508 C58.1009068,51.2573259 58.5156162,51.4287109 59.0657492,51.4287109 C59.6074185,51.4287109 60.068677,51.2128928 60.4495382,50.78125 C60.8303995,50.3496072 61.1520109,49.6386768 61.414382,48.6484375 L61.9221945,48.7753906 C61.4990153,51.1705849 60.3733755,52.3681641 58.5452414,52.3681641 C57.9612541,52.3681641 57.478837,52.2983405 57.0979757,52.1586914 C56.7171145,52.0190423 56.3785762,51.8011083 56.0823507,51.5048828 C55.709953,51.1240215 55.4475859,50.6564155 55.2952414,50.1020508 C55.1428968,49.547686 55.0667257,48.8007859 55.0667257,47.8613281 L55.0667257,39.1523438 L52.5657492,39.1523438 L52.5657492,38.6318359 L55.0667257,38.6318359 L55.0667257,34.6582031 C56.0400379,34.6328124 56.8186759,34.5100922 57.4026632,34.2900391 L57.4026632,38.6318359 L61.2493429,38.6318359 Z M73.7831941,50.5844727 C73.3388559,51.1134467 72.7844995,51.5429671 72.1201081,51.8730469 C71.4557168,52.2031267 70.7130484,52.3681641 69.8920808,52.3681641 C68.6563975,52.3681641 67.5878861,52.0867541 66.6865144,51.5239258 C65.7851427,50.9610974 65.0974868,50.1697642 64.6235261,49.1499023 C64.1495654,48.1300405 63.9125886,46.9557358 63.9125886,45.6269531 C63.9125886,44.1204352 64.1537971,42.8128311 64.6362214,41.7041016 C65.1186457,40.5953721 65.8020699,39.7426788 66.6865144,39.1459961 C67.5709589,38.5493134 68.6056165,38.2509766 69.7905183,38.2509766 C71.3478177,38.2509766 72.5475128,38.7228143 73.3896394,39.6665039 C74.231766,40.6101935 74.652823,42.0426336 74.652823,43.9638672 L66.527823,43.9638672 C66.4685779,44.4124371 66.4389558,44.9667936 66.4389558,45.6269531 C66.4389558,46.769537 66.6272677,47.7682249 67.0038972,48.6230469 C67.3805267,49.4778689 67.873523,50.1337868 68.4829011,50.5908203 C69.0922791,51.0478538 69.7355019,51.2763672 70.4125886,51.2763672 C72.1560869,51.2763672 73.4298372,50.4088628 74.2338777,48.6738281 L74.7543855,48.8769531 C74.5512595,49.4863312 74.2275322,50.0554987 73.7831941,50.5844727 L73.7831941,50.5844727 Z M71.9360261,41.0947266 C71.7582908,40.3753219 71.4789968,39.8040386 71.0981355,39.3808594 C70.7172742,38.9576802 70.2475523,38.7460938 69.6889558,38.7460938 C69.15575,38.7460938 68.6648695,38.9174788 68.2162995,39.2602539 C67.7677296,39.6030291 67.3889899,40.1277634 67.0800691,40.8344727 C66.7711482,41.5411819 66.5743729,42.4192656 66.489737,43.46875 L72.1518464,43.46875 C72.1857007,42.6054644 72.1137614,41.8141312 71.9360261,41.0947266 L71.9360261,41.0947266 Z M82.8448772,40.0029297 C83.2130431,39.4951146 83.651027,39.0761735 84.1588421,38.7460938 C84.6666571,38.416014 85.2040866,38.2509766 85.7711468,38.2509766 C86.2281803,38.2509766 86.6365421,38.3419587 86.9962444,38.5239258 C87.3559467,38.7058928 87.6373567,38.953449 87.8404827,39.2666016 C88.0436087,39.5797542 88.1451702,39.9225242 88.1451702,40.2949219 C88.1451702,40.7519554 88.0097549,41.1391586 87.7389202,41.456543 C87.4680855,41.7739274 87.1083886,41.9326172 86.6598186,41.9326172 C86.2789574,41.9326172 85.9531143,41.8120129 85.6822796,41.5708008 C85.4114449,41.3295886 85.2760296,41.0016297 85.2760296,40.5869141 C85.2760296,40.0198539 85.5722506,39.5501321 86.1647015,39.1777344 C86.0462113,39.0084627 85.864247,38.9238281 85.618803,38.9238281 C84.9332527,38.9238281 84.3154204,39.1861953 83.7652874,39.7109375 C83.2151544,40.2356797 82.7835181,40.8831342 82.4703655,41.6533203 C82.1572129,42.4235065 82.000639,43.1429003 82.000639,43.8115234 L82.000639,49.3212891 C82.000639,50.1253295 82.2291523,50.6818018 82.6861858,50.9907227 C83.1432194,51.2996435 83.8329911,51.4541016 84.7555218,51.4541016 L84.7555218,52 C82.6226986,51.9322913 81.2897041,51.8984375 80.7564983,51.8984375 C80.2994648,51.8984375 79.2753865,51.9322913 77.6842327,52 L77.6842327,51.4541016 C78.1751206,51.4541016 78.5623237,51.3990891 78.8458538,51.2890625 C79.1293839,51.1790359 79.3367386,50.9886081 79.4679241,50.7177734 C79.5991097,50.4469388 79.6647015,50.0703149 79.6647015,49.5878906 L79.6647015,41.4501953 C79.6647015,40.6461548 79.5187068,40.0621763 79.2267132,39.6982422 C78.9347195,39.3343081 78.4205645,39.1523438 77.6842327,39.1523438 L77.6842327,38.6064453 C78.2259021,38.6572268 78.7633316,38.6826172 79.2965374,38.6826172 C80.3968033,38.6826172 81.2981615,38.5641288 82.000639,38.3271484 L82.000639,41.5771484 C82.1953014,41.0354791 82.4767113,40.5107447 82.8448772,40.0029297 L82.8448772,40.0029297 Z M96.438787,38.9936523 C97.2132049,38.4985327 98.0870569,38.2509766 99.060369,38.2509766 C100.270662,38.2509766 101.188947,38.5768197 101.815252,39.2285156 C102.136868,39.5839862 102.367497,40.0219701 102.507146,40.5424805 C102.646795,41.0629909 102.716619,41.763342 102.716619,42.6435547 L102.716619,49.5878906 C102.716619,50.0703149 102.782211,50.4469388 102.913396,50.7177734 C103.044582,50.9886081 103.251937,51.1790359 103.535467,51.2890625 C103.818997,51.3990891 104.2062,51.4541016 104.697088,51.4541016 L104.697088,52 C103.105934,51.9322913 102.064929,51.8984375 101.574041,51.8984375 C101.091617,51.8984375 100.122551,51.9322913 98.6668143,52 L98.6668143,51.4541016 C99.0984571,51.4541016 99.4348795,51.3990891 99.6760917,51.2890625 C99.9173038,51.1790359 100.095036,50.9886081 100.209295,50.7177734 C100.323553,50.4469388 100.380682,50.0703149 100.380682,49.5878906 L100.380682,42.0722656 C100.380682,41.4459604 100.332017,40.9212261 100.234685,40.4980469 C100.137354,40.0748677 99.9342312,39.7320977 99.6253104,39.4697266 C99.3163896,39.2073555 98.8657105,39.0761719 98.2732596,39.0761719 C97.5623186,39.0761719 96.9296752,39.2835266 96.3753104,39.6982422 C95.8209457,40.1129578 95.3914252,40.6821253 95.0867362,41.4057617 C94.7820472,42.1293981 94.629705,42.9313107 94.629705,43.8115234 L94.629705,49.5878906 C94.629705,50.0703149 94.6868333,50.4469388 94.8010917,50.7177734 C94.9153501,50.9886081 95.0951985,51.1790359 95.3406425,51.2890625 C95.5860864,51.3990891 95.9246247,51.4541016 96.3562675,51.4541016 L96.3562675,52 C94.900531,51.9322913 93.9272334,51.8984375 93.4363456,51.8984375 C92.9454577,51.8984375 91.9044525,51.9322913 90.3132987,52 L90.3132987,51.4541016 C90.8041866,51.4541016 91.1913897,51.3990891 91.4749198,51.2890625 C91.7584499,51.1790359 91.9658046,50.9886081 92.0969901,50.7177734 C92.2281757,50.4469388 92.2937675,50.0703149 92.2937675,49.5878906 L92.2937675,41.4501953 C92.2937675,40.6461548 92.1477728,40.0621763 91.8557792,39.6982422 C91.5637855,39.3343081 91.0496305,39.1523438 90.3132987,39.1523438 L90.3132987,38.6064453 C90.8549681,38.6572268 91.3923976,38.6826172 91.9256034,38.6826172 C93.0258693,38.6826172 93.9272275,38.5641288 94.629705,38.3271484 L94.629705,41.3867188 C95.0613477,40.2864528 95.664369,39.488772 96.438787,38.9936523 L96.438787,38.9936523 Z M108.83299,49.6386719 C109.06997,50.3326858 109.433899,50.874347 109.924787,51.2636719 C110.415674,51.6529967 111.075824,51.8476562 111.905255,51.8476562 C112.286117,51.8476562 112.652161,51.7651375 113.0034,51.6000977 C113.354639,51.4350578 113.644512,51.1684589 113.873029,50.800293 C114.101546,50.4321271 114.215802,49.9560576 114.215802,49.3720703 C114.215802,48.8981096 114.095198,48.4728209 113.853986,48.0961914 C113.612774,47.7195619 113.29751,47.3810236 112.908185,47.0805664 C112.51886,46.7801092 111.972967,46.4098329 111.27049,45.9697266 C110.415668,45.4280572 109.761866,44.9837257 109.309064,44.6367188 C108.856262,44.2897118 108.473291,43.866539 108.160138,43.3671875 C107.846986,42.867836 107.690412,42.2796258 107.690412,41.6025391 C107.690412,40.8662073 107.863912,40.246259 108.210919,39.7426758 C108.557926,39.2390925 109.021301,38.8645846 109.601056,38.6191406 C110.180812,38.3736967 110.82615,38.2509766 111.537091,38.2509766 C112.146469,38.2509766 112.694478,38.3483063 113.181134,38.5429688 C113.66779,38.7376312 114.063457,38.9576811 114.368146,39.203125 C114.554345,39.3470059 114.706687,39.4189453 114.825177,39.4189453 C115.129866,39.4189453 115.324526,39.0380897 115.409162,38.2763672 L116.005841,38.2763672 C115.938133,39.1227256 115.904279,40.5953671 115.904279,42.6943359 L115.307599,42.6943359 C115.1214,41.5517521 114.75324,40.6080766 114.203107,39.8632812 C113.652974,39.1184859 112.840482,38.7460938 111.765607,38.7460938 C111.139302,38.7460938 110.627263,38.9217105 110.229474,39.2729492 C109.831686,39.624188 109.632794,40.1129526 109.632794,40.7392578 C109.632794,41.3401723 109.838033,41.8416321 110.248517,42.2436523 C110.659001,42.6456726 111.154113,43.028644 111.733869,43.3925781 C112.313624,43.7565122 112.726218,44.0188794 112.971662,44.1796875 C113.767238,44.6959661 114.408345,45.1551087 114.895001,45.5571289 C115.381657,45.9591491 115.775208,46.4204076 116.075665,46.940918 C116.376123,47.4614284 116.526349,48.0559862 116.526349,48.7246094 C116.526349,49.4947955 116.325342,50.1528293 115.923322,50.6987305 C115.521301,51.2446316 114.981756,51.659341 114.304669,51.9428711 C113.627583,52.2264012 112.88703,52.3681641 112.08299,52.3681641 C111.312804,52.3681641 110.627264,52.2454439 110.026349,52 C109.687806,51.8307283 109.332341,51.5979833 108.959943,51.3017578 C108.892234,51.2340491 108.811831,51.2001953 108.718732,51.2001953 C108.464824,51.2001953 108.287092,51.5260384 108.185529,52.1777344 L107.588849,52.1777344 C107.656558,51.187495 107.690412,49.4567181 107.690412,46.9853516 L108.287091,46.9853516 C108.414045,48.0602267 108.596009,48.944658 108.83299,49.6386719 L108.83299,49.6386719 Z M125.454731,38.980957 C126.229149,38.494301 127.09877,38.2509766 128.063618,38.2509766 C129.273911,38.2509766 130.192196,38.5768197 130.818501,39.2285156 C131.148581,39.5839862 131.383442,40.0219701 131.523091,40.5424805 C131.66274,41.0629909 131.732563,41.763342 131.732563,42.6435547 L131.732563,49.5878906 C131.732563,50.0703149 131.798155,50.4469388 131.929341,50.7177734 C132.060526,50.9886081 132.267881,51.1790359 132.551411,51.2890625 C132.834941,51.3990891 133.222144,51.4541016 133.713032,51.4541016 L133.713032,52 C132.088024,51.9322913 131.047019,51.8984375 130.589985,51.8984375 C130.099097,51.8984375 129.1258,51.9322913 127.670063,52 L127.670063,51.4541016 C128.101706,51.4541016 128.440245,51.3990891 128.685688,51.2890625 C128.931132,51.1790359 129.110981,50.9886081 129.225239,50.7177734 C129.339498,50.4469388 129.396626,50.0703149 129.396626,49.5878906 L129.396626,42.0722656 C129.396626,41.4459604 129.345845,40.9212261 129.244282,40.4980469 C129.142719,40.0748677 128.93748,39.7320977 128.62856,39.4697266 C128.319639,39.2073555 127.873191,39.0761719 127.289204,39.0761719 C126.586727,39.0761719 125.958315,39.277179 125.40395,39.6791992 C124.849585,40.0812195 124.417949,40.6398076 124.109028,41.3549805 C123.800108,42.0701533 123.645649,42.8805293 123.645649,43.7861328 L123.645649,49.5878906 C123.645649,50.0703149 123.702778,50.4469388 123.817036,50.7177734 C123.931295,50.9886081 124.109027,51.1790359 124.350239,51.2890625 C124.591451,51.3990891 124.927874,51.4541016 125.359517,51.4541016 L125.359517,52 C123.90378,51.9322913 122.934714,51.8984375 122.45229,51.8984375 C121.961402,51.8984375 120.920397,51.9322913 119.329243,52 L119.329243,51.4541016 C119.820131,51.4541016 120.207334,51.3990891 120.490864,51.2890625 C120.774394,51.1790359 120.981749,50.9886081 121.112935,50.7177734 C121.24412,50.4469388 121.309712,50.0703149 121.309712,49.5878906 L121.309712,34.7597656 C121.309712,33.9557251 121.163717,33.3738625 120.871724,33.0141602 C120.57973,32.6544578 120.065575,32.4746094 119.329243,32.4746094 L119.329243,31.9287109 C119.879376,31.9794924 120.416806,32.0048828 120.941548,32.0048828 C122.058741,32.0048828 122.960099,31.8821627 123.645649,31.6367188 L123.645649,41.3613281 C124.077292,40.2610622 124.680314,39.4676131 125.454731,38.980957 L125.454731,38.980957 Z M139.70245,32.3349609 C139.956357,32.4873054 140.15948,32.6904284 140.311825,32.9443359 C140.464169,33.1982435 140.54034,33.4733058 140.54034,33.7695312 C140.54034,34.0657567 140.464169,34.3429349 140.311825,34.6010742 C140.15948,34.8592135 139.956357,35.0623365 139.70245,35.2104492 C139.448542,35.3585619 139.17348,35.4326172 138.877254,35.4326172 C138.581029,35.4326172 138.303851,35.3585619 138.045712,35.2104492 C137.787572,35.0623365 137.584449,34.8592135 137.436337,34.6010742 C137.288224,34.3429349 137.214169,34.0657567 137.214169,33.7695312 C137.214169,33.4733058 137.288224,33.1982435 137.436337,32.9443359 C137.584449,32.6904284 137.787572,32.4873054 138.045712,32.3349609 C138.303851,32.1826164 138.581029,32.1064453 138.877254,32.1064453 C139.17348,32.1064453 139.448542,32.1826164 139.70245,32.3349609 L139.70245,32.3349609 Z M140.419735,50.7177734 C140.550921,50.9886081 140.758275,51.1790359 141.041805,51.2890625 C141.325335,51.3990891 141.712538,51.4541016 142.203426,51.4541016 L142.203426,52 C140.612273,51.9322913 139.562804,51.8984375 139.054989,51.8984375 C138.547174,51.8984375 137.497705,51.9322913 135.906551,52 L135.906551,51.4541016 C136.397439,51.4541016 136.784642,51.3990891 137.068172,51.2890625 C137.351703,51.1790359 137.559057,50.9886081 137.690243,50.7177734 C137.821428,50.4469388 137.88702,50.0703149 137.88702,49.5878906 L137.88702,41.4501953 C137.88702,40.6461548 137.741025,40.0621763 137.449032,39.6982422 C137.157038,39.3343081 136.642883,39.1523438 135.906551,39.1523438 L135.906551,38.6064453 C136.448221,38.6572268 136.98565,38.6826172 137.518856,38.6826172 C138.619122,38.6826172 139.52048,38.5641288 140.222958,38.3271484 L140.222958,49.5878906 C140.222958,50.0703149 140.288549,50.4469388 140.419735,50.7177734 L140.419735,50.7177734 Z M150.401828,38.9873047 C151.129697,38.4964168 151.959115,38.2509766 152.89011,38.2509766 C153.81264,38.2509766 154.639943,38.5006485 155.372043,39 C156.104143,39.4993515 156.679658,40.2356722 157.098606,41.2089844 C157.517553,42.1822965 157.727024,43.3460219 157.727024,44.7001953 C157.727024,46.028978 157.515437,47.275222 157.092258,48.4389648 C156.669079,49.6027076 156.011045,50.548499 155.118137,51.2763672 C154.225229,52.0042354 153.110168,52.3681641 151.772922,52.3681641 C151.112762,52.3681641 150.513973,52.2390963 149.976535,51.980957 C149.439098,51.7228177 149.022272,51.3821636 148.726047,50.9589844 L148.726047,54.2851562 C148.726047,54.9876337 148.933402,55.4763984 149.348117,55.7514648 C149.762833,56.0265313 150.389129,56.1640625 151.227024,56.1640625 L151.227024,56.7099609 C151.00697,56.7014974 150.513974,56.6803387 149.74802,56.6464844 C148.982065,56.61263 148.226702,56.5957031 147.481906,56.5957031 C146.931773,56.5957031 146.364722,56.61263 145.780735,56.6464844 C145.196747,56.6803387 144.828587,56.7014974 144.676242,56.7099609 L144.676242,56.1640625 C145.311011,56.1640625 145.755343,56.04769 146.00925,55.8149414 C146.263158,55.5821928 146.39011,55.1611359 146.39011,54.5517578 L146.39011,41.4501953 C146.39011,40.6461548 146.244115,40.0621763 145.952121,39.6982422 C145.660128,39.3343081 145.145973,39.1523438 144.409641,39.1523438 L144.409641,38.6064453 C144.95131,38.6572268 145.48874,38.6826172 146.021945,38.6826172 C147.122211,38.6826172 148.02357,38.5641288 148.726047,38.3271484 L148.726047,41.0693359 C149.115372,40.172196 149.67396,39.4781926 150.401828,38.9873047 L150.401828,38.9873047 Z M149.805149,51.3208008 C150.270646,51.621258 150.829234,51.7714844 151.48093,51.7714844 C153.96076,51.7714844 155.200656,49.5329 155.200656,45.0556641 C155.200656,41.0354617 154.193505,39.0253906 152.179172,39.0253906 C151.392059,39.0253906 150.687476,39.3068006 150.065403,39.8696289 C149.443329,40.4324572 148.996882,41.247065 148.726047,42.3134766 L148.726047,50.0957031 C148.979955,50.6119817 149.339651,51.0203435 149.805149,51.3208008 L149.805149,51.3208008 Z M175.234667,39.3237305 C174.81572,38.9555646 174.221162,38.7714844 173.450976,38.7714844 C172.223756,38.7714844 171.364715,39.0804006 170.873827,39.6982422 C171.220834,39.782878 171.510708,39.9669582 171.743456,40.2504883 C171.976205,40.5340183 172.092577,40.8789042 172.092577,41.2851562 C172.092577,41.7252626 171.955046,42.0701485 171.67998,42.3198242 C171.404913,42.5694999 171.034637,42.6943359 170.56914,42.6943359 C170.129034,42.6943359 169.784148,42.5462254 169.534472,42.25 C169.284796,41.9537746 169.15996,41.5644555 169.15996,41.0820312 C169.15996,40.4049445 169.566206,39.7871122 170.37871,39.2285156 C170.801889,38.9492174 171.324508,38.7164723 171.946581,38.5302734 C172.568655,38.3440746 173.260542,38.2509766 174.022265,38.2509766 C174.733206,38.2509766 175.359502,38.337727 175.901171,38.5112305 C176.442841,38.6847339 176.866013,38.9238266 177.170702,39.2285156 C177.568491,39.6347677 177.841437,40.1066054 177.98955,40.644043 C178.137663,41.1814806 178.211718,41.9241489 178.211718,42.8720703 L178.211718,50.0957031 C178.211718,50.5273459 178.273078,50.8404938 178.3958,51.0351562 C178.518522,51.2298187 178.723761,51.3271484 179.011523,51.3271484 C179.223112,51.3271484 179.417772,51.2805994 179.595507,51.1875 C179.773242,51.0944006 179.967902,50.9589853 180.179492,50.78125 L180.471484,51.2255859 C180.166795,51.4541027 179.912891,51.6318353 179.709765,51.7587891 C179.506639,51.8857428 179.273894,51.9873043 179.011523,52.0634766 C178.749152,52.1396488 178.444467,52.1777344 178.09746,52.1777344 C177.259565,52.1777344 176.677703,51.9682638 176.351855,51.5493164 C176.026007,51.130369 175.863085,50.569665 175.863085,49.8671875 C175.35527,50.7050823 174.745901,51.2996402 174.03496,51.6508789 C173.324019,52.0021176 172.600394,52.1777344 171.864062,52.1777344 C171.263147,52.1777344 170.713023,52.074057 170.213671,51.8666992 C169.71432,51.6593414 169.314421,51.33773 169.013964,50.9018555 C168.713507,50.4659809 168.563281,49.9222038 168.563281,49.2705078 C168.563281,48.6103483 168.724086,48.0475284 169.045702,47.5820312 C169.367319,47.1165341 169.820114,46.7081723 170.404101,46.3569336 C170.988088,46.0056949 171.770958,45.6227234 172.752734,45.2080078 C172.922005,45.1402991 173.336715,44.97103 173.996874,44.7001953 C174.657034,44.4293606 175.133103,44.15853 175.425097,43.8876953 C175.717091,43.6168606 175.863085,43.3206396 175.863085,42.9990234 L175.863085,41.3867188 C175.863085,40.3795523 175.653615,39.6918964 175.234667,39.3237305 L175.234667,39.3237305 Z M175.22832,44.6113281 C174.932094,44.7805998 174.314262,45.0937477 173.374804,45.5507812 C172.875453,45.7877616 172.45228,46.031086 172.105273,46.2807617 C171.758266,46.5304374 171.462045,46.8668599 171.216601,47.2900391 C170.971157,47.7132183 170.848437,48.2337209 170.848437,48.8515625 C170.848437,49.6048215 171.038865,50.173989 171.419726,50.559082 C171.800587,50.9441751 172.304163,51.1367188 172.930468,51.1367188 C174.081516,51.1367188 175.059045,50.4808008 175.863085,49.1689453 L175.863085,44.0654297 C175.736132,44.2600921 175.524545,44.4420564 175.22832,44.6113281 L175.22832,44.6113281 Z M190.358362,38.6318359 L190.358362,39.1523438 L186.511683,39.1523438 L186.511683,49.2197266 C186.511683,50.0068399 186.65133,50.5717756 186.930628,50.9145508 C187.209926,51.2573259 187.624635,51.4287109 188.174768,51.4287109 C188.716438,51.4287109 189.177696,51.2128928 189.558558,50.78125 C189.939419,50.3496072 190.26103,49.6386768 190.523401,48.6484375 L191.031214,48.7753906 C190.608035,51.1705849 189.482395,52.3681641 187.654261,52.3681641 C187.070273,52.3681641 186.587856,52.2983405 186.206995,52.1586914 C185.826134,52.0190423 185.487595,51.8011083 185.19137,51.5048828 C184.818972,51.1240215 184.556605,50.6564155 184.404261,50.1020508 C184.251916,49.547686 184.175745,48.8007859 184.175745,47.8613281 L184.175745,39.1523438 L181.674768,39.1523438 L181.674768,38.6318359 L184.175745,38.6318359 L184.175745,34.6582031 C185.149057,34.6328124 185.927695,34.5100922 186.511683,34.2900391 L186.511683,38.6318359 L190.358362,38.6318359 Z M207.554971,33.6679688 C210.10251,33.6679688 211.913689,33.6425784 212.988564,33.5917969 C212.870074,34.8274801 212.81083,35.936193 212.81083,36.9179688 C212.81083,37.7897179 212.83622,38.5006483 212.887002,39.0507812 L212.290322,39.0507812 C212.154905,37.7050714 211.981404,36.7084993 211.769814,36.0610352 C211.558225,35.413571 211.19218,34.9396174 210.67167,34.6391602 C210.15116,34.3387029 209.353479,34.1884766 208.278604,34.1884766 L206.640908,34.1884766 C206.014603,34.1884766 205.559692,34.2392573 205.276162,34.3408203 C204.992632,34.4423833 204.797973,34.6391587 204.692178,34.9311523 C204.586383,35.223146 204.533486,35.6949837 204.533486,36.3466797 L204.533486,42.7451172 L206.437783,42.7451172 C207.309532,42.7451172 207.889279,42.4848659 208.177041,41.9643555 C208.464803,41.4438451 208.642536,40.9127631 208.710244,40.3710938 C208.777953,39.8294244 208.824502,39.4781909 208.849893,39.3173828 L209.446572,39.3173828 C209.387327,40.1637412 209.357705,40.9804648 209.357705,41.7675781 L209.3704,42.9990234 C209.3704,43.9130905 209.425413,45.1445235 209.535439,46.6933594 L208.926064,46.6933594 C208.909137,46.5748692 208.860472,46.1559281 208.780068,45.4365234 C208.699664,44.7171188 208.464803,44.1754575 208.075479,43.8115234 C207.686154,43.4475893 207.140261,43.265625 206.437783,43.265625 L204.533486,43.265625 L204.533486,49.2451172 C204.533486,49.8968132 204.601194,50.3707667 204.736611,50.6669922 C204.872029,50.9632176 205.117469,51.1663406 205.472939,51.2763672 C205.82841,51.3863938 206.39123,51.4541014 207.161416,51.4794922 L207.161416,52 C206.264276,51.9492185 204.990526,51.9238281 203.340127,51.9238281 C201.850536,51.9238281 200.741823,51.9492185 200.013955,52 L200.013955,51.4794922 C200.64026,51.4541014 201.095171,51.3863938 201.378701,51.2763672 C201.662231,51.1663406 201.856891,50.9632176 201.962686,50.6669922 C202.06848,50.3707667 202.121377,49.8968132 202.121377,49.2451172 L202.121377,36.3466797 C202.121377,35.6949837 202.06848,35.2210301 201.962686,34.9248047 C201.856891,34.6285792 201.662231,34.4254563 201.378701,34.3154297 C201.095171,34.2054031 200.64026,34.1376954 200.013955,34.1123047 L200.013955,33.5917969 C201.715135,33.6425784 204.228782,33.6679688 207.554971,33.6679688 L207.554971,33.6679688 Z M219.682572,50.7177734 C219.813757,50.9886081 220.021112,51.1790359 220.304642,51.2890625 C220.588172,51.3990891 220.975375,51.4541016 221.466263,51.4541016 L221.466263,52 C219.87511,51.9322913 218.825641,51.8984375 218.317826,51.8984375 C217.810011,51.8984375 216.760542,51.9322913 215.169388,52 L215.169388,51.4541016 C215.660276,51.4541016 216.047479,51.3990891 216.331009,51.2890625 C216.614539,51.1790359 216.821894,50.9886081 216.95308,50.7177734 C217.084265,50.4469388 217.149857,50.0703149 217.149857,49.5878906 L217.149857,34.734375 C217.149857,33.9303345 217.003862,33.3484719 216.711869,32.9887695 C216.419875,32.6290672 215.90572,32.4492188 215.169388,32.4492188 L215.169388,31.9033203 C215.711058,31.9541018 216.248487,31.9794922 216.781693,31.9794922 C217.898886,31.9794922 218.800244,31.8567721 219.485795,31.6113281 L219.485795,49.5878906 C219.485795,50.0703149 219.551386,50.4469388 219.682572,50.7177734 L219.682572,50.7177734 Z M233.00988,39 C233.894325,39.4993515 234.59256,40.2758736 235.104607,41.3295898 C235.616653,42.383306 235.872673,43.7141847 235.872673,45.3222656 C235.872673,46.9303466 235.616653,48.2591093 235.104607,49.3085938 C234.59256,50.3580782 233.894325,51.1303686 233.00988,51.6254883 C232.125436,52.1206079 231.111937,52.3681641 229.969353,52.3681641 C228.826769,52.3681641 227.81327,52.1206079 226.928825,51.6254883 C226.044381,51.1303686 225.346146,50.3580782 224.834099,49.3085938 C224.322052,48.2591093 224.066032,46.9303466 224.066032,45.3222656 C224.066032,43.7141847 224.322052,42.383306 224.834099,41.3295898 C225.346146,40.2758736 226.044381,39.4993515 226.928825,39 C227.81327,38.5006485 228.826769,38.2509766 229.969353,38.2509766 C231.111937,38.2509766 232.125436,38.5006485 233.00988,39 L233.00988,39 Z M227.500114,40.3710938 C226.894968,41.4375053 226.5924,43.0878795 226.5924,45.3222656 C226.5924,47.5481882 226.894968,49.1922147 227.500114,50.2543945 C228.105261,51.3165743 228.928332,51.8476562 229.969353,51.8476562 C231.010374,51.8476562 231.833445,51.3165743 232.438591,50.2543945 C233.043737,49.1922147 233.346306,47.5481882 233.346306,45.3222656 C233.346306,43.0878795 233.043737,41.4375053 232.438591,40.3710938 C231.833445,39.3046822 231.010374,38.7714844 229.969353,38.7714844 C228.928332,38.7714844 228.105261,39.3046822 227.500114,40.3710938 L227.500114,40.3710938 Z M255.953887,38.6826172 C256.724074,38.6826172 257.384223,38.6572268 257.934356,38.6064453 L257.934356,39.1269531 C257.570422,39.169271 257.248811,39.325845 256.969512,39.5966797 C256.690214,39.8675144 256.449006,40.3203093 256.24588,40.9550781 L252.475372,52.1269531 L252.031036,52.1269531 L247.905059,41.6660156 L244.198028,52.1269531 L243.766387,52.1269531 L239.500762,40.6123047 C239.263782,40.0029266 239.018342,39.60726 238.764434,39.425293 C238.510527,39.2433259 238.252391,39.1523438 237.99002,39.1523438 L237.99002,38.6064453 C238.717888,38.7164719 239.4796,38.7714844 240.275177,38.7714844 C241.045363,38.7714844 242.171002,38.7164719 243.65213,38.6064453 L243.65213,39.1523438 C243.08507,39.1523438 242.664013,39.1861976 242.388946,39.2539062 C242.11388,39.3216149 241.936147,39.5120427 241.855743,39.8251953 C241.775339,40.1383479 241.857858,40.6419236 242.103302,41.3359375 L244.705841,48.8134766 L248.438262,38.5048828 L249.034942,38.5048828 L253.02127,49.0292969 L255.45877,41.5771484 C255.619578,41.0693334 255.699981,40.6757826 255.699981,40.3964844 C255.699981,39.9817688 255.549755,39.6770843 255.249298,39.4824219 C254.94884,39.2877594 254.455844,39.169271 253.770294,39.1269531 L253.770294,38.6064453 C254.684361,38.6572268 255.412218,38.6826172 255.953887,38.6826172 L255.953887,38.6826172 Z" id="Internship-at-Flow" fill="#000000"></path>
                </g>
            </g>
        </g>
    </g>
</svg>