<?xml version="1.0" encoding="UTF-8" standalone="no"?>
<svg width="1020px" height="550px" viewBox="0 0 1020 550" version="1.1" xmlns="http://www.w3.org/2000/svg" xmlns:xlink="http://www.w3.org/1999/xlink" xmlns:sketch="http://www.bohemiancoding.com/sketch/ns">
    <!-- Generator: Sketch 3.4.4 (17249) - http://www.bohemiancoding.com/sketch -->
    <title>Artboard 7</title>
    <desc>Created with Sketch.</desc>
    <defs>
        <linearGradient x1="50%" y1="0%" x2="50%" y2="100%" id="linearGradient-1">
            <stop stop-color="#D2E1FF" offset="0%"></stop>
            <stop stop-color="#EFFEFF" offset="100%"></stop>
        </linearGradient>
        <rect id="path-2" x="36" y="35" width="602" height="338"></rect>
    </defs>
    <g id="Welcome" stroke="none" stroke-width="1" fill="none" fill-rule="evenodd" sketch:type="MSPage">
        <g id="Artboard-7" sketch:type="MSArtboardGroup">
            <g id="flow" sketch:type="MSLayerGroup" transform="translate(0.000000, 2.000000)">
                <g id="iMac" transform="translate(173.000000, 0.000000)">
                    <g id="base" transform="translate(200.515366, 445.049719)" sketch:type="MSShapeGroup">
                        <path d="M272.965099,93.7392184 C272.965099,92.076457 244.384956,89.3546071 238.487871,86.7844357 C232.589645,84.213504 226.540855,15.1195721 226.540855,0 L46.4246249,0 C46.4246249,15.1195721 40.3758349,84.213504 34.477989,86.7844357 C28.5801431,89.3546071 0,92.076457 0,93.7392184 C34.9315817,94.7975466 107.975597,94.7975466 137.3097,94.7975466 C166.643423,94.7975466 238.654023,95.2514417 272.965099,93.7392184" id="Imported-Layers" stroke="#D8D8D8" fill="url(#linearGradient-1)"></path>
                        <path d="M0.0867559622,99.2077251 C0.0867559622,102.263443 100.98833,101.518159 136.464596,101.489996 C171.940862,101.518159 272.842052,102.263443 272.842052,99.2077251 L272.842052,95.0619826 L272.842052,94.0225482 C238.095048,96.0962017 167.008138,95.4745229 137.30244,95.4745229 C107.595586,95.4745229 35.4613719,95.4745229 0.0867559622,94.0225482 L0.0867559622,95.060418 L0.0867559622,99.2077251 Z" id="Imported-Layers" stroke="#C4C7CB" fill="#EFFEFF"></path>
                    </g>
                    <g id="screen">
                        <path d="M0.634831603,9.99831032 C0.634831603,4.47639601 5.10875972,0 10.6340341,0 L663.388791,0 C668.911198,0 673.387994,4.47052424 673.387994,9.99831032 L673.387994,436.210393 C673.387994,441.732307 668.914066,446.208703 663.388791,446.208703 L10.6340341,446.208703 C5.11162706,446.208703 0.634831603,441.738179 0.634831603,436.210393 L0.634831603,9.99831032 Z M35.6348316,34.8296791 L638.220155,34.8296791 L638.220155,373.170321 L35.6348316,373.170321 L35.6348316,34.8296791 Z" id="Rectangle-93" stroke="#D8D8D8" stroke-width="0.5" fill="#EFFEFF" sketch:type="MSShapeGroup"></path>
                        <mask id="mask-3" sketch:name="Mask" fill="white">
                            <use xlink:href="#path-2"></use>
                        </mask>
                        <use id="Mask" sketch:type="MSShapeGroup" xlink:href="#path-2"></use>
                    </g>
                    <path d="M337.697716,20.1057345 C338.471545,20.1057345 339.098858,19.4775758 339.098858,18.7027027 C339.098858,17.9278297 338.471545,17.2996709 337.697716,17.2996709 C336.923886,17.2996709 336.296574,17.9278297 336.296574,18.7027027 C336.296574,19.4775758 336.923886,20.1057345 337.697716,20.1057345 Z" id="Oval-6" fill="#AAAAAA" sketch:type="MSShapeGroup"></path>
                </g>
            </g>
        </g>
    </g>
</svg>