<?xml version="1.0" encoding="UTF-8" standalone="no"?>
<svg width="863px" height="466px" viewBox="0 0 863 466" version="1.1" xmlns="http://www.w3.org/2000/svg" xmlns:xlink="http://www.w3.org/1999/xlink" xmlns:sketch="http://www.bohemiancoding.com/sketch/ns">
    <!-- Generator: Sketch 3.5.1 (25234) - http://www.bohemiancoding.com/sketch -->
    <title>work-item-images</title>
    <desc>Created with Sketch.</desc>
    <defs>
        <linearGradient x1="50%" y1="0%" x2="50%" y2="100%" id="linearGradient-1">
            <stop stop-color="#E8E8E8" offset="0%"></stop>
            <stop stop-color="#F7F7F7" offset="100%"></stop>
        </linearGradient>
    </defs>
    <g id="Welcome" stroke="none" stroke-width="1" fill="none" fill-rule="evenodd" sketch:type="MSPage">
        <g id="work-item-images" sketch:type="MSArtboardGroup">
            <g id="flow" sketch:type="MSLayerGroup" transform="translate(-8.468100, -22.017060)">
                <g id="iMac" transform="translate(188.838630, 45.638350)">
                    <g id="screen" transform="translate(26.821513, 0.569167)"></g>
                    <g id="computer" transform="translate(25.000000, 21.000000)" stroke-width="0.5" sketch:type="MSShapeGroup">
                        <g id="base" transform="translate(134.470245, 298.127710)">
                            <path d="M159.935486,58.1347295 C155.979999,56.4125265 151.92354,10.1282244 151.92354,0 L31.133428,0 C31.133428,10.1282244 27.0769694,56.4125265 23.1217374,58.1347295 C19.1665055,59.8564232 0,61.6797226 0,62.793565 C23.4259272,63.5025127 72.4109347,63.5025127 92.0830632,63.5025127 C111.754937,63.5025127 160.046912,63.8065657 183.056713,62.793565 C183.056713,61.6797226 163.890208,59.8564232 159.935486,58.1347295 Z" id="Imported-Layers" stroke="#9B9B9B" fill="url(#linearGradient-1)"></path>
                            <path d="M0.0581805562,66.4567813 C0.0581805562,68.5037308 67.7251118,68.0044834 91.5163169,67.9856175 C115.307522,68.0044834 182.974195,68.5037308 182.974195,66.4567813 L182.974195,63.6796518 L182.974195,62.9833606 C159.67205,64.3724494 111.999523,63.9560022 92.0781939,63.9560022 C72.1560904,63.9560022 23.7812167,63.9560022 0.0581805562,62.9833606 L0.0581805562,63.6786037 L0.0581805562,66.4567813 Z" id="Imported-Layers" stroke="#AAAAAA" fill="#EEEEEE"></path>
                        </g>
                        <path d="M0.425732767,6.69761878 C0.425732767,2.99862607 3.42605251,0 7.13142941,0 L444.883878,0 C448.587332,0 451.589574,3.00685121 451.589574,6.69761878 L451.589574,292.206465 C451.589574,295.905458 448.589255,298.904084 444.883878,298.904084 L7.13142941,298.904084 C3.42797542,298.904084 0.425732767,295.897233 0.425732767,292.206465 L0.425732767,6.69761878 Z M23.1872802,24.933179 L428.71547,24.933179 L428.71547,252.375848 L23.1872802,252.375848 L23.1872802,24.933179 Z" id="Rectangle-93" stroke="#828282" fill="#F7F7F7"></path>
                    </g>
                    <path d="M251.04391,33.090539 C251.620445,33.090539 252.08782,32.6225559 252.08782,32.0452695 C252.08782,31.4679831 251.620445,31 251.04391,31 C250.467374,31 250,31.4679831 250,32.0452695 C250,32.6225559 250.467374,33.090539 251.04391,33.090539 Z" id="Oval-6" fill="#AAAAAA" sketch:type="MSShapeGroup"></path>
                </g>
            </g>
        </g>
    </g>
</svg>