<?xml version="1.0" encoding="UTF-8" standalone="no"?>
<svg width="907px" height="489px" viewBox="0 0 907 489" version="1.1" xmlns="http://www.w3.org/2000/svg" xmlns:xlink="http://www.w3.org/1999/xlink" xmlns:sketch="http://www.bohemiancoding.com/sketch/ns">
    <!-- Generator: Sketch 3.5.2 (25235) - http://www.bohemiancoding.com/sketch -->
    <title>work-item-images</title>
    <desc>Created with Sketch.</desc>
    <defs>
        <linearGradient x1="50%" y1="0%" x2="50%" y2="100%" id="linearGradient-1">
            <stop stop-color="#E8E8E8" offset="0%"></stop>
            <stop stop-color="#F9F9F9" offset="100%"></stop>
        </linearGradient>
    </defs>
    <g id="Welcome" stroke="none" stroke-width="1" fill="none" fill-rule="evenodd" sketch:type="MSPage">
        <g id="work-item-images" sketch:type="MSArtboardGroup" stroke-width="0.600654285">
            <g id="flow" sketch:type="MSLayerGroup" transform="translate(28.840000, -29.870000)">
                <g id="iMac" transform="translate(115.149796, 28.736176)" sketch:type="MSShapeGroup">
                    <g id="computer" transform="translate(40.150216, 26.915061)">
                        <g id="base" transform="translate(160.559399, 343.684019)" stroke="#9F9F9F">
                            <path d="M192.190317,69.7992066 C187.437111,67.7314511 182.562571,12.1604079 182.562571,0 L37.4122314,0 C37.4122314,12.1604079 32.5376905,67.7314511 27.784791,69.7992066 C23.0318915,71.8663506 0,74.0554869 0,75.3928169 C28.150328,76.2440118 87.0143385,76.2440118 110.653824,76.2440118 C134.293003,76.2440118 192.324215,76.6090717 219.974495,75.3928169 C219.974495,74.0554869 196.942604,71.8663506 192.190317,69.7992066 Z" id="Imported-Layers" fill="url(#linearGradient-1)"></path>
                            <path d="M0.0699140625,79.7910414 C0.0699140625,82.2487023 81.3835068,81.649283 109.97278,81.6266318 C138.562053,81.649283 219.875335,82.2487023 219.875335,79.7910414 L219.875335,76.4566931 L219.875335,75.6206941 C191.873753,77.2884974 134.586916,76.788492 110.647973,76.788492 C86.7080987,76.788492 28.5772702,76.788492 0.0699140625,75.6206941 L0.0699140625,76.4554347 L0.0699140625,79.7910414 Z" id="Imported-Layers" opacity="0.9" fill="#F9F9F9"></path>
                        </g>
                        <path d="M5.68434189e-14,8.0497146 C5.68434189e-14,3.60397999 3.60540627,0 8.05806139,0 L534.093803,0 C538.544147,0 542.151864,3.59758331 542.151864,8.0497146 L542.151864,335.536455 C542.151864,339.982189 538.546458,343.586169 534.093803,343.586169 L8.05806139,343.586169 C3.60771697,343.586169 5.68434189e-14,339.988586 5.68434189e-14,335.536455 L5.68434189e-14,8.0497146 Z M27.3519601,29.679796 L514.664647,29.679796 L514.664647,291.122043 L27.3519601,291.122043 L27.3519601,29.679796 Z" id="Rectangle-93" stroke="#CCCCCC" fill="#F9F9F9"></path>
                    </g>
                </g>
            </g>
        </g>
    </g>
</svg>