<?xml version="1.0" encoding="UTF-8" standalone="no"?>
<svg width="880px" height="475px" viewBox="0 0 880 475" version="1.1" xmlns="http://www.w3.org/2000/svg" xmlns:xlink="http://www.w3.org/1999/xlink" xmlns:sketch="http://www.bohemiancoding.com/sketch/ns">
    <!-- Generator: Sketch 3.5.2 (25235) - http://www.bohemiancoding.com/sketch -->
    <title>work-item-images</title>
    <desc>Created with Sketch.</desc>
    <defs>
        <linearGradient x1="50%" y1="0%" x2="50%" y2="100%" id="linearGradient-1">
            <stop stop-color="#E8E8E8" offset="0%"></stop>
            <stop stop-color="#F7F7F7" offset="100%"></stop>
        </linearGradient>
    </defs>
    <g id="Welcome" stroke="none" stroke-width="1" fill="none" fill-rule="evenodd" sketch:type="MSPage">
        <g id="work-item-images" sketch:type="MSArtboardGroup" stroke-width="0.58905">
            <g id="flow" sketch:type="MSLayerGroup" transform="translate(-8.637462, -22.457401)">
                <g id="iMac" transform="translate(179.520000, 30.600000)" sketch:type="MSShapeGroup">
                    <g id="computer" transform="translate(2.000000, 10.000000)">
                        <g id="base" transform="translate(158.404201, 351.117633)">
                            <path d="M188.401923,68.4677337 C183.742411,66.4394222 178.963956,11.9284389 178.963956,0 L36.6747734,0 C36.6747734,11.9284389 31.896318,66.4394222 27.2371061,68.4677337 C22.5778942,70.4954453 0,72.6428222 0,73.9546416 C27.5954377,74.7895993 85.2991397,74.7895993 108.472651,74.7895993 C131.645863,74.7895993 188.533181,75.1476954 215.638429,73.9546416 C215.638429,72.6428222 193.060534,70.4954453 188.401923,68.4677337 Z" id="Imported-Layers" stroke="#9B9B9B" fill="url(#linearGradient-1)"></path>
                            <path d="M0.0685359389,78.2689666 C0.0685359389,80.6797458 79.7793012,80.0917609 107.805032,80.0695417 C135.830762,80.0917609 215.541223,80.6797458 215.541223,78.2689666 L215.541223,74.9982236 L215.541223,74.1781719 C188.091599,75.8141606 131.933982,75.3236931 108.466915,75.3236931 C84.9989364,75.3236931 28.0139642,75.3236931 0.0685359389,74.1781719 L0.0685359389,74.9969892 L0.0685359389,78.2689666 Z" id="Imported-Layers" stroke="#AAAAAA" fill="#EEEEEE"></path>
                        </g>
                        <path d="M0.501507664,7.90901096 C0.501507664,3.54098482 4.03584532,0 8.40073113,0 L524.067424,0 C528.430045,0 531.966648,3.54129605 531.966648,7.90901096 L531.966648,344.122991 C531.966648,348.491017 528.43231,352.032002 524.067424,352.032002 L8.40073113,352.032002 C4.03811047,352.032002 0.501507664,348.490706 0.501507664,344.122991 L0.501507664,7.90901096 Z M27.3143147,29.3648611 L505.02125,29.3648611 L505.02125,297.233727 L27.3143147,297.233727 L27.3143147,29.3648611 Z" id="Rectangle-93" stroke="#828282" fill="#F7F7F7"></path>
                    </g>
                </g>
            </g>
        </g>
    </g>
</svg>