<?xml version="1.0" encoding="UTF-8" standalone="no"?>
<svg width="1020px" height="550px" viewBox="0 0 1020 550" version="1.1" xmlns="http://www.w3.org/2000/svg" xmlns:xlink="http://www.w3.org/1999/xlink" xmlns:sketch="http://www.bohemiancoding.com/sketch/ns">
    <!-- Generator: Sketch 3.4.4 (17249) - http://www.bohemiancoding.com/sketch -->
    <title>Artboard 7</title>
    <desc>Created with Sketch.</desc>
    <defs>
        <rect id="path-1" x="0" y="0" width="29.8755375" height="36.9494905" rx="2.09"></rect>
        <path id="path-3" d="M0,0 L27.3859093,0 L27.3859093,34.3653138 L0,34.3653138"></path>
        <rect id="path-5" x="0.414690784" y="6.16289242e-14" width="35.2487166" height="22.2711065" rx="1.254"></rect>
        <rect id="path-7" x="0.414690784" y="8.91020591e-15" width="35.2487166" height="22.2711065" rx="1.254"></rect>
        <filter x="-50%" y="-50%" width="200%" height="200%" filterUnits="objectBoundingBox" id="filter-9">
            <feOffset dx="0" dy="0" in="SourceAlpha" result="shadowOffsetOuter1"></feOffset>
            <feGaussianBlur stdDeviation="0" in="shadowOffsetOuter1" result="shadowBlurOuter1"></feGaussianBlur>
            <feColorMatrix values="0 0 0 0 0   0 0 0 0 0   0 0 0 0 0  0 0 0 0.157286005 0" in="shadowBlurOuter1" type="matrix" result="shadowMatrixOuter1"></feColorMatrix>
            <feMerge>
                <feMergeNode in="shadowMatrixOuter1"></feMergeNode>
                <feMergeNode in="SourceGraphic"></feMergeNode>
            </feMerge>
        </filter>
        <filter x="-50%" y="-50%" width="200%" height="200%" filterUnits="objectBoundingBox" id="filter-10">
            <feOffset dx="0" dy="0" in="SourceAlpha" result="shadowOffsetOuter1"></feOffset>
            <feGaussianBlur stdDeviation="1" in="shadowOffsetOuter1" result="shadowBlurOuter1"></feGaussianBlur>
            <feColorMatrix values="0 0 0 0 0   0 0 0 0 0   0 0 0 0 0  0 0 0 0.035 0" in="shadowBlurOuter1" type="matrix" result="shadowMatrixOuter1"></feColorMatrix>
            <feMerge>
                <feMergeNode in="shadowMatrixOuter1"></feMergeNode>
                <feMergeNode in="SourceGraphic"></feMergeNode>
            </feMerge>
        </filter>
        <filter x="-50%" y="-50%" width="200%" height="200%" filterUnits="objectBoundingBox" id="filter-11">
            <feOffset dx="0" dy="0" in="SourceAlpha" result="shadowOffsetOuter1"></feOffset>
            <feGaussianBlur stdDeviation="0" in="shadowOffsetOuter1" result="shadowBlurOuter1"></feGaussianBlur>
            <feColorMatrix values="0 0 0 0 0   0 0 0 0 0   0 0 0 0 0  0 0 0 0.035 0" in="shadowBlurOuter1" type="matrix" result="shadowMatrixOuter1"></feColorMatrix>
            <feMerge>
                <feMergeNode in="shadowMatrixOuter1"></feMergeNode>
                <feMergeNode in="SourceGraphic"></feMergeNode>
            </feMerge>
        </filter>
        <rect id="path-12" x="3.60651191e-14" y="1.08195357e-13" width="35.2297217" height="30.6135383" rx="2.508"></rect>
    </defs>
    <g id="Welcome" stroke="none" stroke-width="1" fill="none" fill-rule="evenodd" sketch:type="MSPage">
        <g id="Artboard-7" sketch:type="MSArtboardGroup">
            <g id="iMac" sketch:type="MSLayerGroup" transform="translate(173.000000, 2.000000)">
                <g id="Rectangle-93">
                    <rect id="Rectangle-257" stroke="#EEEEEE" fill="#FFFFFF" sketch:type="MSShapeGroup" x="28" y="27" width="619" height="348"></rect>
                    <g id="post-chat-ui" transform="translate(52.000000, 67.000000)">
                        <g id="hero-copy" transform="translate(44.687188, 54.985396)">
                            <text id="H2" sketch:type="MSTextLayer" font-family="Fakt Pro" font-size="8.36" font-style="condensed" font-weight="260" line-spacing="15.048" fill="#666666">
                                <tspan x="0.835274542" y="93.4313789">Designers use Flow to collect feedback, create clear tasks, </tspan>
                                <tspan x="0.835274542" y="110.151382">and iterate on beautiful designs.</tspan>
                            </text>
                            <g id="CTA" transform="translate(0.000000, 153.457341)">
                                <g id="Google-Signup-Copy">
                                    <rect id="Rectangle-21" fill="#2C9FF3" sketch:type="MSShapeGroup" x="0" y="0" width="124.455907" height="20.9200615" rx="1.672"></rect>
                                    <text id="Sign-up-with-Google" sketch:type="MSTextLayer" font-family="Fakt Pro" font-size="6.688" font-weight="normal" sketch:alignment="middle" fill="#FFFFFF">
                                        <tspan x="39.5331098" y="12.5265181">Sign up with Google</tspan>
                                    </text>
                                    <g id="Google-Icon" transform="translate(21.717138, 6.690238)" stroke="#FFFFFF" stroke-width="0.5225" fill="#FFFFFF" stroke-linecap="round" sketch:type="MSShapeGroup" stroke-linejoin="round">
                                        <path d="M9.10301995,1.63018806 L9.10301995,0.0440440687 L8.63232109,0.0440440687 L8.63232109,1.63018806 L7.03217019,1.63018806 L7.03217019,2.09627466 L8.63232109,2.09627466 L8.63232109,3.68074609 L9.10301995,3.68074609 L9.10301995,2.09627466 L10.7042969,2.09627466 L10.7042969,1.63018806 L9.10301995,1.63018806 Z M5.26367124,0.0440440687 L2.96422848,0.0440440687 C2.96422848,0.0440440687 0.634381734,0.100911094 0.634381734,2.05390315 C0.634381734,4.00578017 2.67088625,3.77886959 2.67088625,3.77886959 L2.67088625,4.27450474 C2.67088625,4.47353933 2.94452219,4.40719447 2.97830441,4.81195388 C2.83979733,4.81195388 0.149043914,4.74059134 0.149043914,6.50960184 C0.149043914,8.27749731 2.51999236,8.19219677 2.51999236,8.19219677 C2.51999236,8.19219677 5.26367124,8.3165237 5.26367124,6.12045298 C5.26367124,4.80470612 3.70011773,4.38043351 3.70011773,3.84967461 C3.70011773,3.31947323 4.87855399,3.16559775 4.87855399,1.91842583 C4.87855399,1.17134922 4.80873741,0.720315655 4.2136074,0.454378683 C4.2136074,0.268724571 5.26367124,0.391378939 5.26367124,0.0440440687 Z M4.42530927,6.27209839 C4.47204134,6.95784781 3.74065639,7.56498693 2.79137615,7.62910172 C1.84209591,7.69210146 1.03413794,7.18866103 0.987405879,6.50291161 C0.940673815,5.81716218 1.67205877,5.20946554 2.62077597,5.1464658 C3.57061924,5.08179349 4.37857721,5.58634896 4.42530927,6.27209839 L4.42530927,6.27209839 Z M3.12582008,3.31111043 C2.56053102,3.46275583 1.92711449,2.9509526 1.71203439,2.16707968 C1.49695429,1.38320676 1.78072489,0.623864719 2.34714003,0.472219318 C2.91130301,0.318901358 3.54471954,0.831819626 3.75979964,1.61513502 C3.97487974,2.40012298 3.69167218,3.15890751 3.12582008,3.31111043 L3.12582008,3.31111043 Z" id="Fill-1"></path>
                                    </g>
                                </g>
                                <g id="Email-Signup-Copy" transform="translate(145.128952, 0.000000)">
                                    <rect id="Rectangle-21" stroke="#D8D8D8" stroke-width="0.5225" fill="#FFFFFF" sketch:type="MSShapeGroup" x="0" y="0" width="117.385438" height="20.9200615" rx="1.672"></rect>
                                    <rect id="Rectangle-21-Copy" fill="#27C971" sketch:type="MSShapeGroup" x="119.861897" y="0" width="61.8103161" height="20.9200615" rx="1.672"></rect>
                                    <text id="Enter-your-email-add" sketch:type="MSTextLayer" font-family="Fakt Pro" font-size="6.688" font-weight="normal" fill="#BABABA">
                                        <tspan x="6.26455907" y="12.5265181">Enter your email address</tspan>
                                    </text>
                                    <text id="Let’s-go!" sketch:type="MSTextLayer" font-family="Fakt Pro" font-size="6.688" font-weight="normal" sketch:alignment="middle" fill="#FFFFFF">
                                        <tspan x="138.639858" y="12.5265181">Let’s go!</tspan>
                                    </text>
                                </g>
                                <text id="or-copy" sketch:type="MSTextLayer" font-family="Fakt Pro" font-size="7.524" font-weight="normal" sketch:alignment="middle" fill="#919191">
                                    <tspan x="131.928676" y="13.1083782">or</tspan>
                                </text>
                            </g>
                            <text id="Turn-Scattered-Desig" sketch:type="MSTextLayer" font-family="Fakt Pro" font-size="18.81" font-weight="normal" fill="#4A4A4A">
                                <tspan x="0.835274542" y="47.4511914">Turn Scattered Design Feedback</tspan>
                                <tspan x="0.835274542" y="70.213199">into Painless Next Steps </tspan>
                            </text>
                        </g>
                        <g id="hero-illustration-copy" transform="translate(354.156406, 0.000000)">
                            <g id="picture" transform="translate(54.919301, 124.959658)">
                                <path d="M5.96246029,2.55327904 L33.5444035,5.26646068 C34.5598967,5.36635276 35.2964705,6.2188795 35.1900948,7.1661109 L31.5175895,39.8682393 C31.4109865,40.8174951 30.5045229,41.5063527 29.4858543,41.4061483 L1.90391117,38.6929667 C0.888417871,38.5930746 0.15184409,37.7405478 0.258219807,36.7933164 L3.93072511,4.09118803 C4.03732817,3.14193226 4.94379167,2.4530746 5.96246029,2.55327904 Z" id="Mask-Copy" stroke="#D4DDE1" stroke-width="0.5225" fill="#FFFFFF" sketch:type="MSShapeGroup"></path>
                                <g id="Imported-Layers-Copy-7" transform="translate(17.818022, 22.528791) rotate(1.000000) translate(-17.818022, -22.528791) translate(2.574261, 3.712496)">
                                    <g id="Fill-4-+-Fill-5-+-Group-10-+-Fill-11-+-Fill-12-+-Fill-13-+-Fill-14-Mask" transform="translate(0.417637, 0.418140)">
                                        <mask id="mask-2" sketch:name="Mask" fill="white">
                                            <use xlink:href="#path-1"></use>
                                        </mask>
                                        <use id="Mask" stroke="#D4DDE1" stroke-width="0.5225" fill="#FFFFFF" sketch:type="MSShapeGroup" xlink:href="#path-1"></use>
                                        <path d="M1.24481406,1.24548844 L28.6307234,1.24548844 L28.6307234,35.6108022 L1.24481406,35.6108022 L1.24481406,1.24548844 Z" id="Fill-4" fill="#CCF2FF" sketch:type="MSShapeGroup" mask="url(#mask-2)"></path>
                                        <path d="M1.24481406,16.7917018 L28.6307234,16.7917018 L28.6307234,22.3146987 L1.24481406,22.3146987 L1.24481406,16.7917018 Z" id="Fill-5" fill="#8FE3F9" sketch:type="MSShapeGroup" mask="url(#mask-2)"></path>
                                        <g id="Group-10" mask="url(#mask-2)">
                                            <g transform="translate(1.244814, 1.245488)">
                                                <mask id="mask-4" sketch:name="Clip 7" fill="white">
                                                    <use xlink:href="#path-3"></use>
                                                </mask>
                                                <g id="Clip-7"></g>
                                                <path d="M39.3416981,14.5234362 C39.3416981,14.5234362 12.4667199,8.59132845 1.02186229,38.1495894 C-10.4229953,67.7078504 26.3640471,50.2183603 26.3640471,50.2183603 L39.3416981,14.5234362" id="Fill-6" stroke="none" fill="#D6F8E1" fill-rule="evenodd" sketch:type="MSShapeGroup" mask="url(#mask-4)"></path>
                                                <path d="M-9.50331929,18.483834 C-9.50331929,18.483834 23.9115776,10.7391606 33.8236418,35.8994796 C43.735706,61.0597986 -1.53279343,50.2183603 -1.53279343,50.2183603 L-16.4519829,23.1147646 L-9.50331929,18.483834" id="Fill-8" stroke="none" fill="#B4EFCE" fill-rule="evenodd" sketch:type="MSShapeGroup" mask="url(#mask-4)"></path>
                                                <path d="M28.7143303,3.37516475 C28.7143303,6.03008979 26.5641277,8.18221757 23.9115776,8.18221757 C21.2590274,8.18221757 19.1088248,6.03008979 19.1088248,3.37516475 C19.1088248,0.720239701 21.2590274,-1.43188807 23.9115776,-1.43188807 C26.5641277,-1.43188807 28.7143303,0.720239701 28.7143303,3.37516475" id="Fill-9" stroke="none" fill="#FFEECC" fill-rule="evenodd" sketch:type="MSShapeGroup" mask="url(#mask-4)"></path>
                                            </g>
                                        </g>
                                        <path d="M6.44118817,4.90457614 C6.41175854,4.78307021 6.40358364,4.6568595 6.40358364,4.52635313 C6.40358364,3.63980986 7.11296044,2.92100205 7.99932379,2.92100205 C8.55399064,2.92100205 9.04284956,3.20267489 9.33101473,3.63060486 C9.55500694,3.4945755 9.81680806,3.41500343 10.0978202,3.41500343 C10.9159231,3.41500343 11.5791118,4.07837672 11.5791118,4.89680303 C11.5791118,4.91603124 11.5768637,4.93464579 11.5762505,4.95346489 C12.1462453,5.11465458 12.5666395,5.60497396 12.5666395,6.2268225 C12.5666395,6.97692729 11.9586314,7.58670706 11.2087889,7.58670706 L6.51803222,7.58670706 C5.7679853,7.58670706 5.16018161,6.97692729 5.16018161,6.2268225 C5.16018161,5.5029008 5.72772392,4.94507812 6.44118817,4.90457614" id="Fill-11" fill="#FFFFFF" sketch:type="MSShapeGroup" mask="url(#mask-2)"></path>
                                        <path d="M21.7196644,6.20963984 C21.7566558,6.05704148 21.7670788,5.89830646 21.7670788,5.73404845 C21.7670788,4.6192213 20.874993,3.71549537 19.76055,3.71549537 C19.0630268,3.71549537 18.4482744,4.06958084 18.0859221,4.6077662 C17.8045012,4.43696241 17.4752572,4.33652569 17.1218972,4.33652569 C16.0930862,4.33652569 15.2590422,5.17090732 15.2590422,6.20002574 C15.2590422,6.22416328 15.2619035,6.2474826 15.2627209,6.27121103 C14.5459867,6.47392547 14.0174796,7.11541133 14.0174796,7.89722222 C14.0174796,8.8406319 14.7818325,9.63226145 15.7248071,9.63226145 L21.6232006,9.63226145 C22.5661751,9.63226145 23.3307325,8.8406319 23.3307325,7.89722222 C23.3307325,6.98695051 22.6168595,6.2607787 21.7196644,6.20963984" id="Fill-12" fill="#FFFFFF" sketch:type="MSShapeGroup" mask="url(#mask-2)"></path>
                                        <path d="M14.7468849,8.5395263 C13.0771619,7.27762379 12.0528471,8.5229573 11.6205994,9.28922198 C11.583608,9.2804261 11.5443684,9.27756232 11.5043114,9.28308532 C11.4544446,9.2900402 11.4098914,9.30947297 11.3710606,9.33626973 C10.7501771,8.71769408 9.41623804,7.78083017 8.14831131,9.46145766 C8.14831131,9.46145766 9.27358607,8.68557888 11.2447584,9.51627852 C11.2349485,9.55453038 11.2320873,9.59503236 11.2378098,9.63655712 C11.2617213,9.80777002 11.4197012,9.92723039 11.5909654,9.90329741 C11.7620251,9.87936442 11.8813786,9.72103851 11.8574671,9.54982561 C11.8509271,9.50216419 11.8329424,9.45920755 11.8082133,9.42156935 C13.4650608,8.10607332 14.7468849,8.5395263 14.7468849,8.5395263" id="Fill-13" fill="#7E8B91" sketch:type="MSShapeGroup" mask="url(#mask-2)"></path>
                                        <path d="M11.6817067,11.7809118 C10.5787086,11.2257483 10.1162137,12.0572662 9.94658457,12.5479947 C9.9241036,12.5467673 9.90100951,12.549222 9.87832417,12.556586 C9.85012077,12.5659956 9.82641357,12.5819509 9.80658944,12.6015882 C9.38067723,12.3084603 8.50718935,11.9063043 7.94945691,13.0164266 C7.94945691,13.0164266 8.52026919,12.4465352 9.75243074,12.7196167 C9.75079576,12.7427315 9.7534526,12.7666644 9.76121875,12.7899838 C9.79310085,12.886943 9.89753518,12.9395138 9.99440773,12.9073986 C10.0910759,12.8754879 10.1435996,12.7709601 10.1117175,12.6740008 C10.1027251,12.6469995 10.0878059,12.6240893 10.0694124,12.6048611 C10.8916028,11.665338 11.6817067,11.7809118 11.6817067,11.7809118" id="Fill-14" fill="#7E8B91" sketch:type="MSShapeGroup" mask="url(#mask-2)"></path>
                                    </g>
                                </g>
                                <g id="paperclip" transform="translate(8.611184, 7.565848) rotate(7.000000) translate(-8.611184, -7.565848) translate(5.623631, 0.351900)" fill="#B3C0C9" sketch:type="MSShapeGroup">
                                    <path d="M3.42581484,1.46867849 C4.20783044,1.54697417 4.75524136,2.2124874 4.71614058,2.95629631 C4.6770398,3.26947901 4.95074526,3.58266171 5.2635515,3.58266171 C5.57635774,3.62180954 5.88916398,3.34777468 5.92826476,3.03459198 C6.0455671,1.62526984 4.98984604,0.372539048 3.54311718,0.255095536 C2.09638832,0.137652024 1.04066726,1.23379147 0.9624657,2.64311361 L0.25865166,11.5296727 C0.14134932,12.9389948 1.00156648,14.1917256 2.44829534,14.3091691 C3.8950242,14.4266126 4.95074526,13.3304732 5.02894682,11.921151 L5.0680476,11.1381943 L5.49815618,5.73579276 C5.57635774,4.67880115 5.18534994,3.8958444 4.24693122,3.81754873 C3.3085125,3.73925306 2.64379924,4.44391413 2.56559768,5.50090573 L2.17458988,10.5118289 C2.1354891,10.8250116 2.40919456,11.1381943 2.7220008,11.1381943 C3.03480704,11.1773421 3.34761328,10.9033073 3.38671406,10.5901246 L3.77772186,5.57920141 C3.77772186,5.38346222 3.77772186,4.95283601 4.16872966,4.99198385 C4.44243512,5.03113169 4.36423356,5.22687087 4.32513278,5.61834925 L3.8950242,11.0207508 L3.81682264,11.8037075 C3.73862108,12.5475164 3.26941172,13.134734 2.5264969,13.0955862 C1.7444813,13.0172905 1.39257428,12.3909251 1.43167506,11.6079684 L2.1354891,2.72140929 C2.17458988,2.01674821 2.64379924,1.42953066 3.42581484,1.46867849 L3.42581484,1.46867849 Z" id="Shape-Copy-11"></path>
                                </g>
                            </g>
                            <g id="email-copy-2" transform="translate(33.410982, 38.050730)">
                                <g id="email-behind" transform="translate(19.543242, 14.156701) rotate(-9.000000) translate(-19.543242, -14.156701) translate(1.584840, 2.866924)">
                                    <mask id="mask-6" sketch:name="Mask" fill="white">
                                        <use xlink:href="#path-5"></use>
                                    </mask>
                                    <use id="Mask" stroke="#ECECEC" stroke-width="0.5225" fill="#FDFDFD" sketch:type="MSShapeGroup" xlink:href="#path-5"></use>
                                    <path d="M0.578737974,0.670971758 C0.0431993344,0.240368735 0.00115451487,-0.501270894 0.488698522,-0.989401654 L17.0953394,-17.6160284 C17.5811506,-18.1024243 18.3670735,-18.1041592 18.8546175,-17.6160284 L35.4612583,-0.989401654 C35.9470696,-0.503005762 35.9028798,0.240044073 35.3681339,0.665806913 L18.8575407,13.8114845 C18.3202983,14.2392351 17.4510412,14.2372473 16.9150988,13.8063197 L0.578737974,0.670971758 L0.578737974,0.670971758 Z" id="Rectangle-85" stroke="#EBEBEB" stroke-width="0.5225" fill="#FFFFFF" sketch:type="MSShapeGroup" mask="url(#mask-6)"></path>
                                    <path d="M0.392594026,22.3738854 L12.5411227,10.2107363" id="Line" stroke="#CCCCCC" stroke-width="0.5225" stroke-linecap="square" opacity="0.300000012" sketch:type="MSShapeGroup" mask="url(#mask-6)"></path>
                                    <path d="M23.6407058,22.7379585 L36.4135028,9.94978987" id="Line-Copy" stroke="#CCCCCC" stroke-width="0.5225" stroke-linecap="square" opacity="0.300000012" sketch:type="MSShapeGroup" mask="url(#mask-6)">
                                        <g transform="translate(30.068413, 16.302516) scale(-1, 1) translate(-30.068413, -16.302516) "></g>
                                    </path>
                                </g>
                                <g id="email" transform="translate(22.775790, 16.644243) rotate(-2.000000) translate(-22.775790, -16.644243) translate(4.817388, 5.354466)">
                                    <mask id="mask-8" sketch:name="Mask" fill="white">
                                        <use xlink:href="#path-7"></use>
                                    </mask>
                                    <use id="Mask" stroke="#B0E7FE" stroke-width="0.5225" fill="#E3F3FF" sketch:type="MSShapeGroup" xlink:href="#path-7"></use>
                                    <path d="M0.578737974,0.670971758 C0.0431993344,0.240368735 0.00115451487,-0.501270894 0.488698522,-0.989401654 L17.0953394,-17.6160284 C17.5811506,-18.1024243 18.3670735,-18.1041592 18.8546175,-17.6160284 L35.4612583,-0.989401654 C35.9470696,-0.503005762 35.9028798,0.240044073 35.3681339,0.665806913 L18.8575407,13.8114845 C18.3202983,14.2392351 17.4510412,14.2372473 16.9150988,13.8063197 L0.578737974,0.670971758 L0.578737974,0.670971758 Z" id="Rectangle-85" stroke="#A9E6FE" stroke-width="0.5225" fill="#F2F9FF" sketch:type="MSShapeGroup" mask="url(#mask-8)"></path>
                                    <path d="M0.392594026,22.3738854 L12.5411227,10.2107363" id="Line" stroke="#6DDFFD" stroke-width="0.5225" stroke-linecap="square" opacity="0.5" sketch:type="MSShapeGroup" mask="url(#mask-8)"></path>
                                    <path d="M23.4180076,10.0976806 L35.9394947,22.6634228" id="Line" stroke="#A8E8FE" stroke-width="0.5225" stroke-linecap="square" sketch:type="MSShapeGroup" mask="url(#mask-8)"></path>
                                </g>
                                <rect id="Rectangle-8" fill="#F08090" filter="url(#filter-9)" sketch:type="MSShapeGroup" x="10.4409318" y="0.418139892" width="15.0921692" height="8.92747687" rx="6.27"></rect>
                                <text id="242" sketch:type="MSTextLayer" font-family=".Helvetica Neue DeskInterface" font-size="5.44133333" font-weight="260" fill="#FFFFFF">
                                    <tspan x="13.3643927" y="6.25441968">242</tspan>
                                </text>
                            </g>
                            <g id="iPhone" transform="translate(124.585657, 86.465697) rotate(15.000000) translate(-124.585657, -86.465697) translate(112.682995, 65.349632)" sketch:type="MSShapeGroup">
                                <rect id="Rectangle-92" stroke="#EEEEEE" stroke-width="0.5225" fill="#FFFFFF" x="0.0327151729" y="0.0327545452" width="23.5393422" height="41.9141654" rx="2.09"></rect>
                                <path d="M2.59311269,5.96731227 L21.1392611,5.96731227 L21.1392611,34.1509752 L2.59311269,34.1509752 L2.59311269,5.96731227 Z" id="Fill-8" fill="#F7F7F7"></path>
                                <path d="M13.3097794,37.7796108 C13.3097794,38.7786917 12.5155244,39.5885584 11.5364245,39.5885584 C10.5566026,39.5885584 9.76234758,38.7786917 9.76234758,37.7796108 C9.76234758,36.7812661 10.5566026,35.9713994 11.5364245,35.9713994 C12.5155244,35.9713994 13.3097794,36.7812661 13.3097794,37.7796108" id="Fill-11" fill="#EDF0F2"></path>
                                <g id="Oval-23-+-Lightbulb-Copy" transform="translate(12.158490, 19.815747) rotate(-15.000000) translate(-12.158490, -19.815747) translate(4.776886, 12.425259)">
                                    <g id="Lightbulb" transform="translate(6.999347, 7.152473) rotate(3.000000) translate(-6.999347, -7.152473) translate(3.062491, 1.979131)">
                                        <path d="M7.05919451,5.22780841 C7.05919451,3.59687523 5.68266662,2.27508262 3.98461672,2.27508262 C2.28656681,2.27508262 0.910038926,3.59687523 0.910038926,5.22780841 C0.910038926,6.52070938 1.77626813,7.6164249 2.98112958,8.01639356 L2.98112958,10.2264236 L4.98810386,10.2264236 L4.98810386,8.01639356 C6.19296531,7.6164249 7.05919451,6.52070938 7.05919451,5.22780841 L7.05919451,5.22780841 Z" id="Fill-1" fill="#FFCC4D"></path>
                                        <path d="M2.66355608,8.84883399 L5.33670141,8.84883399 L5.33670141,9.85083225 L2.66355608,9.85083225 L2.66355608,8.84883399 Z" id="Fill-3" fill="#BBC9D2"></path>
                                        <path id="Fill-5" fill="#D1D3D4" d="M3.80108081,0.151013176 L3.80108081,0.839537115"></path>
                                        <path id="Stroke-6" stroke="#FFE090" stroke-width="0.836" stroke-linecap="round" stroke-linejoin="round" d="M3.80108081,0.151013176 L3.80108081,0.839537115"></path>
                                        <path id="Fill-7" fill="#D1D3D4" d="M7.68946139,1.5125318 L7.23462995,2.0448603"></path>
                                        <path id="Stroke-8" stroke="#FFE090" stroke-width="0.836" stroke-linecap="round" stroke-linejoin="round" d="M7.68946139,1.5125318 L7.23462995,2.0448603"></path>
                                        <path id="Fill-9" fill="#D1D3D4" d="M0.193673823,1.5125318 L0.648505261,2.0448603"></path>
                                        <path id="Stroke-10" stroke="#FFE090" stroke-width="0.836" stroke-linecap="round" stroke-linejoin="round" d="M0.193673823,1.5125318 L0.648505261,2.0448603"></path>
                                    </g>
                                </g>
                            </g>
                            <g id="sppech-bubble-blue" transform="translate(81.856905, 14.549368) scale(-1, 1) translate(-81.856905, -14.549368) translate(66.821963, 0.332611)" filter="url(#filter-10)" fill="#EBF6FF" sketch:type="MSShapeGroup">
                                <path d="M19.2076377,25.7475028 C17.9035532,26.0752045 16.5264766,26.2506751 15.1028207,26.2506751 C6.86411517,26.2506751 0.185324692,20.3742614 0.185324692,13.1253376 C0.185324692,5.8764138 6.86411517,0 15.1028207,0 C23.3415263,0 30.0203168,5.8764138 30.0203168,13.1253376 C30.0203168,15.7335637 29.155665,18.1641015 27.6648073,20.2071516 L27.5628507,28.3470428 L19.2076377,25.7475028 Z" id="Oval-17"></path>
                            </g>
                            <g id="speeck-bubble-blue" transform="translate(91.234904, 263.336610) scale(-1, 1) rotate(-150.000000) translate(-91.234904, -263.336610) translate(63.734904, 237.336610)" filter="url(#filter-11)" fill="#EBF6FF" sketch:type="MSShapeGroup">
                                <path d="M39.9360886,42.6302516 C38.0454407,44.0193828 35.944435,45.2005276 33.6610676,46.1178563 C20.4292494,51.4336574 6.08424639,45.8773922 1.62060656,33.7075908 C-2.84303328,21.5377894 4.26497966,7.36290786 17.4967978,2.04710681 C30.728616,-3.26869425 45.073619,2.28757087 49.5372588,14.4573723 C51.1426148,18.834263 51.2511845,23.4705096 50.1164057,27.8607033 L54.959183,41.599541 L39.9360886,42.6302516 L39.9360886,42.6302516 Z" id="Oval-17"></path>
                            </g>
                            <g id="Speech-bubble-green" transform="translate(157.629077, 117.838202) rotate(-188.000000) translate(-157.629077, -117.838202) translate(141.132405, 102.157956)" fill="#E5FFEF" sketch:type="MSShapeGroup">
                                <path d="M20.9660527,28.2846704 C19.5422917,28.6440142 18.0385737,28.8364587 16.4838737,28.8364587 C7.50715729,28.8364587 0.23009081,22.4207096 0.23009081,14.506482 C0.23009081,6.59225447 7.50715729,0.176505385 16.4838737,0.176505385 C25.4605901,0.176505385 32.7376566,6.59225447 32.7376566,14.506482 C32.7376566,17.3561784 31.7941684,20.0115937 30.1675695,22.2431689 L30.0649063,31.1252303 L20.9660527,28.2846704 Z" id="Oval-17"></path>
                            </g>
                            <g id="Speech-green" transform="translate(22.970050, 148.494126) rotate(-43.000000) translate(-22.970050, -148.494126) translate(6.473378, 132.813880)" fill="#E5FFEF" sketch:type="MSShapeGroup">
                                <path d="M20.9660527,28.2846704 C19.5422917,28.6440142 18.0385737,28.8364587 16.4838737,28.8364587 C7.50715729,28.8364587 0.23009081,22.4207096 0.23009081,14.506482 C0.23009081,6.59225447 7.50715729,0.176505385 16.4838737,0.176505385 C25.4605901,0.176505385 32.7376566,6.59225447 32.7376566,14.506482 C32.7376566,17.3561784 31.7941684,20.0115937 30.1675695,22.2431689 L30.0649063,31.1252303 L20.9660527,28.2846704 Z" id="Oval-17"></path>
                            </g>
                            <g id="Calendar" transform="translate(114.432612, 212.599246) rotate(6.000000) translate(-114.432612, -212.599246) translate(96.683028, 196.943889)">
                                <mask id="mask-13" sketch:name="Mask" fill="white">
                                    <use xlink:href="#path-12"></use>
                                </mask>
                                <use id="Mask" stroke="#CDCED2" stroke-width="0.5225" fill="#FFFFFF" sketch:type="MSShapeGroup" xlink:href="#path-12"></use>
                                <rect id="Rectangle-91" stroke="#269AE2" stroke-width="0.5225" fill="#3BB0F9" sketch:type="MSShapeGroup" mask="url(#mask-13)" x="-8.64722482" y="-1.74104021" width="57.0716838" height="4.6427739"></rect>
                                <rect id="Rectangle-132-Copy-8" fill="#EAF1F6" sketch:type="MSShapeGroup" mask="url(#mask-13)" x="3.98827038" y="6.65511702" width="5.31769384" height="5.32409362"></rect>
                                <rect id="Rectangle-132-Copy-7" fill="#EAF1F6" sketch:type="MSShapeGroup" mask="url(#mask-13)" x="11.3000994" y="6.65511702" width="5.31769384" height="5.32409362"></rect>
                                <rect id="Rectangle-132-Copy-6" fill="#FFEB93" sketch:type="MSShapeGroup" mask="url(#mask-13)" x="18.6119284" y="6.65511702" width="5.31769384" height="5.32409362"></rect>
                                <rect id="Rectangle-132-Copy-9" fill="#F08090" sketch:type="MSShapeGroup" mask="url(#mask-13)" x="25.9237575" y="6.65511702" width="5.31769384" height="5.32409362"></rect>
                                <rect id="Rectangle-132-Copy-13" fill="#FFEB93" sketch:type="MSShapeGroup" mask="url(#mask-13)" x="3.98827038" y="13.9757457" width="5.31769384" height="5.32409362"></rect>
                                <rect id="Rectangle-132-Copy-12" fill="#F08091" sketch:type="MSShapeGroup" mask="url(#mask-13)" x="11.3000994" y="13.9757457" width="5.31769384" height="5.32409362"></rect>
                                <rect id="Rectangle-132-Copy-11" fill="#EAF1F6" sketch:type="MSShapeGroup" mask="url(#mask-13)" x="18.6119284" y="13.9757457" width="5.31769384" height="5.32409362"></rect>
                                <rect id="Rectangle-132-Copy-10" fill="#EAF1F6" sketch:type="MSShapeGroup" mask="url(#mask-13)" x="25.9237575" y="13.9757457" width="5.31769384" height="5.32409362"></rect>
                                <rect id="Rectangle-132-Copy-17" fill="#EAF1F6" sketch:type="MSShapeGroup" mask="url(#mask-13)" x="3.98827038" y="21.2963745" width="5.31769384" height="5.32409362"></rect>
                                <rect id="Rectangle-132-Copy-16" fill="#EAF1F6" sketch:type="MSShapeGroup" mask="url(#mask-13)" x="11.3000994" y="21.2963745" width="5.31769384" height="5.32409362"></rect>
                                <rect id="Rectangle-132-Copy-15" fill="#FFEB93" sketch:type="MSShapeGroup" mask="url(#mask-13)" x="18.6119284" y="21.2963745" width="5.31769384" height="5.32409362"></rect>
                                <rect id="Rectangle-132-Copy-14" fill="#EAF1F6" sketch:type="MSShapeGroup" mask="url(#mask-13)" x="25.9237575" y="21.2963745" width="5.31769384" height="5.32409362"></rect>
                            </g>
                        </g>
                        <g id="Flow-Copy-41-+-Logo" transform="translate(45.522463, 52.267487)" sketch:type="MSShapeGroup">
                            <path d="M16.830782,1.64721776 L21.5716366,1.64721776 L21.5716366,3.08634556 L18.428704,3.08634556 L18.428704,4.72024254 L20.8202958,4.72024254 L20.8202958,6.11608831 L18.428704,6.11608831 L18.428704,8.8644978 L16.830782,8.8644978 L16.830782,1.64721776 Z M22.3923651,1.64721776 L23.9162112,1.64721776 L23.9162112,8.8644978 L22.3923651,8.8644978 L22.3923651,1.64721776 Z M27.588257,7.68506223 C27.7787387,7.68506223 27.9480533,7.64719083 28.0962057,7.57144688 C28.2443582,7.49570293 28.3695804,7.39290912 28.4718761,7.26306235 C28.5741719,7.13321558 28.6500107,6.98714016 28.6993948,6.8248317 C28.748779,6.66252324 28.7734707,6.49480702 28.7734707,6.321678 C28.7734707,6.14854897 28.748779,5.98083275 28.6993948,5.81852429 C28.6500107,5.65621583 28.5741719,5.51194381 28.4718761,5.3857039 C28.3695804,5.25946399 28.2443582,5.15847357 28.0962057,5.08272962 C27.9480533,5.00698568 27.7787387,4.96911427 27.588257,4.96911427 C27.3977753,4.96911427 27.2266971,5.00698568 27.0750172,5.08272962 C26.9233373,5.15847357 26.7981151,5.25946399 26.6993468,5.3857039 C26.6005785,5.51194381 26.5247397,5.65621583 26.4718281,5.81852429 C26.4189165,5.98083275 26.3924611,6.14854897 26.3924611,6.321678 C26.3924611,6.49480702 26.4189165,6.66252324 26.4718281,6.8248317 C26.5247397,6.98714016 26.6005785,7.13321558 26.6993468,7.26306235 C26.7981151,7.39290912 26.9233373,7.49570293 27.0750172,7.57144688 C27.2266971,7.64719083 27.3977753,7.68506223 27.588257,7.68506223 L27.588257,7.68506223 Z M24.9215264,6.321678 C24.9215264,5.94656511 24.986783,5.59490206 25.1172982,5.26667829 C25.2478135,4.93845452 25.4294739,4.65171388 25.6622849,4.40644776 C25.8950959,4.16118164 26.1755231,3.96821782 26.5035749,3.82755049 C26.8316268,3.68688315 27.1931838,3.61655054 27.588257,3.61655054 C27.9833302,3.61655054 28.3431236,3.68688315 28.667648,3.82755049 C28.9921724,3.96821782 29.2708359,4.16118164 29.5036469,4.40644776 C29.7364579,4.65171388 29.9181183,4.93845452 30.0486336,5.26667829 C30.1791488,5.59490206 30.2444055,5.94656511 30.2444055,6.321678 C30.2444055,6.69679088 30.1791488,7.04845393 30.0486336,7.3766777 C29.9181183,7.70490148 29.7364579,7.99164212 29.5036469,8.23690823 C29.2708359,8.48217435 28.9921724,8.67694158 28.667648,8.82121576 C28.3431236,8.96548995 27.9833302,9.03762596 27.588257,9.03762596 C27.1931838,9.03762596 26.8316268,8.96548995 26.5035749,8.82121576 C26.1755231,8.67694158 25.8950959,8.48217435 25.6622849,8.23690823 C25.4294739,7.99164212 25.2478135,7.70490148 25.1172982,7.3766777 C24.986783,7.04845393 24.9215264,6.69679088 24.9215264,6.321678 L24.9215264,6.321678 Z M30.6042024,3.7896787 L32.1703776,3.7896787 L33.0381233,7.04665215 L34.0011094,3.7896787 L35.2180698,3.7896787 L36.1916382,7.04665215 L37.0593839,3.7896787 L38.5938122,3.7896787 L36.8900676,8.8644978 L35.5143732,8.8644978 L34.5831339,6.02952423 L33.6624769,8.8644978 L32.307947,8.8644978 L30.6042024,3.7896787 Z" id="Flow-Copy-41" fill="#4A4A4A"></path>
                            <g id="Logo-Copy-2">
                                <path d="M4.62186899,0.0255973565 C4.80511333,0.00534909217 4.98338443,0.00240056751 5.1692772,0.00240056751 C7.99244399,0.00240056751 10.259282,2.32197743 10.2806534,5.23866468 C10.2616442,6.14179787 9.65465404,6.85954356 8.82854195,6.85954356 C7.99440588,6.85954356 7.2719135,6.26005165 7.2719135,5.23866468 C7.2719135,4.06823143 6.27991247,3.14325621 5.08785004,3.14325621 C3.89578761,3.14325621 3.03783425,4.14575538 3.02176231,5.34688836 C3.02173813,7.45109803 4.21162006,9.4298991 5.8719964,10.3120816 C6.01353156,10.4022022 6.06916677,10.4118642 6.1974679,10.4850529 C5.82805672,10.5891906 5.40242586,10.6257471 5.1692772,10.6257471 C2.3235261,10.6257471 0.0150988582,8.28094244 0.0150988582,5.34688823 C0.0150988582,2.62378988 2.01588033,0.310189801 4.62186899,0.0255973565 Z" id="Shape" fill="#46B1FF"></path>
                                <path d="M7.72043661,0.11402696 C9.64839891,0.87291943 10.9176512,3.10118914 10.9340318,5.34497419 C10.9079908,6.59821909 9.8988602,7.50516495 8.83060763,7.50516577 C7.76235507,7.50516658 6.65463025,6.73480846 6.65463025,5.34497419 C6.65463025,4.41642296 5.96042742,3.78679097 5.09141401,3.78679097 C4.27238252,3.78679097 3.64755582,4.46338572 3.64755663,5.34497419 C3.64755733,6.11072303 3.79425722,6.54188584 3.86747292,6.85776923 C3.94068863,7.17365261 4.23065389,7.76253886 4.23779417,7.77686044 C4.26527747,7.83269759 4.54101384,8.34653226 4.89194163,8.77493555 C5.22212588,9.17801568 5.62851762,9.49793769 5.65885584,9.52259983 C5.68762695,9.54589912 5.91191557,9.71733054 5.99801888,9.77611313 C6.0297301,9.79770237 6.58716977,10.1569188 7.13676182,10.3358524 C7.68557325,10.5145319 8.14925494,10.6186106 8.75974842,10.6186106 C11.5977975,10.6186106 13.9282876,8.27897376 13.9282876,5.34497419 C13.9282876,2.41097462 11.6677527,0.00626235019 8.78792211,0.00626235019 C8.4808903,0.00626235019 8.01276785,0.0605882381 7.72043661,0.11402696 Z" id="Imported-Layers" fill="#8ED4FE"></path>
                            </g>
                        </g>
                    </g>
                </g>
                <path d="M337.697716,20.1057345 C338.471545,20.1057345 339.098858,19.4775758 339.098858,18.7027027 C339.098858,17.9278297 338.471545,17.2996709 337.697716,17.2996709 C336.923886,17.2996709 336.296574,17.9278297 336.296574,18.7027027 C336.296574,19.4775758 336.923886,20.1057345 337.697716,20.1057345 Z" id="Oval-6" fill="#AAAAAA" sketch:type="MSShapeGroup"></path>
            </g>
        </g>
    </g>
</svg>