<?xml version="1.0" encoding="UTF-8" standalone="no"?>
<svg width="1020px" height="550px" viewBox="0 0 1020 550" version="1.1" xmlns="http://www.w3.org/2000/svg" xmlns:xlink="http://www.w3.org/1999/xlink" xmlns:sketch="http://www.bohemiancoding.com/sketch/ns">
    <!-- Generator: Sketch 3.4.4 (17249) - http://www.bohemiancoding.com/sketch -->
    <title>Artboard 7</title>
    <desc>Created with Sketch.</desc>
    <defs>
        <rect id="path-1" x="36" y="35" width="602" height="338"></rect>
        <path id="path-3" d="M0.103126396,2.956281 L31.0483514,0.172451948 L33.9637753,32.637558 L3.01855024,35.4213871 L0.103126396,2.956281 L0.103126396,2.956281 Z"></path>
        <path id="path-5" d="M0.103126396,2.956281 L31.0483514,0.172451948 L33.9637753,32.637558 L3.01855024,35.4213871 L0.103126396,2.956281 L0.103126396,2.956281 Z"></path>
        <path id="path-7" d="M0.0865060836,2.95852896 L31.0317311,0.174699913 L33.9806656,33.0129681 L3.03544055,35.7967972 L0.0865060836,2.95852896 L0.0865060836,2.95852896 Z"></path>
        <rect id="path-9" x="0.421961386" y="0.139834165" width="19.2226853" height="26.1023774"></rect>
        <rect id="path-11" x="0" y="0.193442648" width="172.701474" height="19.1527374" rx="10"></rect>
    </defs>
    <g id="Welcome" stroke="none" stroke-width="1" fill="none" fill-rule="evenodd" sketch:type="MSPage">
        <g id="Artboard-7" sketch:type="MSArtboardGroup">
            <g id="iMac" sketch:type="MSLayerGroup" transform="translate(173.000000, 2.000000)">
                <g id="screen">
                    <mask id="mask-2" sketch:name="Mask" fill="white">
                        <use xlink:href="#path-1"></use>
                    </mask>
                    <use id="Mask" fill="#FFFFFF" sketch:type="MSShapeGroup" xlink:href="#path-1"></use>
                    <g id="pre-chat-ui" mask="url(#mask-2)">
                        <g transform="translate(46.000000, 60.000000)">
                            <g id="hero-copy" transform="translate(44.912052, 54.732706)">
                                <text id="H2" sketch:type="MSTextLayer" font-family="Proxima Nova" font-size="8.32" font-weight="normal" line-spacing="14.976" fill="#9F9F9F">
                                    <tspan x="0" y="107.683693">Designers use Flow to collect feedback, create clear tasks, </tspan>
                                    <tspan x="0" y="122.659693">and iterate on beautiful designs.</tspan>
                                </text>
                                <text id="H1" sketch:type="MSTextLayer" font-family="Proxima Nova" font-size="20.8" font-weight="normal" fill="#4A4A4A">
                                    <tspan x="0" y="51.6325903">Turn Scattered Design Feedback</tspan>
                                    <tspan x="0" y="75.6325903">into Painless Next Steps </tspan>
                                </text>
                                <path d="M3.92287369,12.4657379 C2.00995295,12.4657379 0.415852334,10.7883782 0.415852334,8.85296311 C0.415852334,7.24011722 1.49984075,5.88532667 2.96641332,5.43372982 L2.96641332,5.30470215 C2.96641332,3.17574558 4.68804198,1.43387202 6.7922548,1.43387202 C7.49365907,1.43387202 8.19506334,1.62741353 8.76893956,2.01449654 C9.53410785,0.917761337 10.7456243,0.208109147 12.2121969,0.208109147 C14.5077018,0.208109147 16.3568585,2.07901038 16.3568585,4.40150846 C16.3568585,4.72407763 16.3568585,5.04664681 16.2293304,5.36921599 C18.0784872,5.49824366 19.5450597,6.98206188 19.5450597,8.91747694 C19.5450597,10.852892 17.9509591,12.5302517 16.0380384,12.5302517 L3.92287369,12.4657379 Z M15.7192182,12.4657379 L4.24169381,12.4657379 L15.7192182,12.4657379 Z M13.4874774,3.49831476 C11.1919725,4.91761914 9.53410785,6.72400653 8.76893956,7.62720023 L6.91978284,6.20789585 L6.09085052,6.8530342 L9.21528773,10.078726 C9.78916395,8.6594216 11.4470286,5.94984051 13.5512414,3.94991161 L13.4874774,3.49831476 L13.4874774,3.49831476 Z" id="logo" fill="#4A4A4A" sketch:type="MSShapeGroup"></path>
                            </g>
                            <g id="hero-illustration" transform="translate(363.039088, 0.000000)">
                                <g id="flow-bubbl-copy-2" transform="translate(55.100434, 255.528065) rotate(-180.000000) translate(-55.100434, -255.528065) translate(0.000000, 229.722530)" sketch:type="MSShapeGroup">
                                    <g id="Group" transform="translate(0.308980, 0.007203)" stroke="#77B8EA" stroke-width="0.832" fill="#CAE8FE">
                                        <path d="M8.85589104,36.3468967 L8.85589104,49.5234219 C8.85589104,50.0782229 9.09926253,50.4943237 9.58600552,50.7717243 C9.70769126,50.9104245 9.95106276,50.9104245 10.0727485,50.9104245 C10.4378057,50.9104245 10.6811772,50.7717243 10.9245487,50.4943237 L24.6620425,36.3468967 L106.082802,36.3468967 C108.029774,36.3468967 109.490003,34.5437933 109.490003,32.4632893 L109.490003,3.8910348 C109.490003,1.67183057 107.908089,0.00742738931 106.082802,0.00742738931 L3.62340394,0.00742738931 C1.79811774,0.00742738931 0.216203039,1.67183057 0.216203039,3.8910348 L0.216203039,32.4632893 C0.216203039,34.6824936 1.79811774,36.3468967 3.62340394,36.3468967 L8.85589104,36.3468967 Z" id="Shape"></path>
                                    </g>
                                    <path d="M12.0210061,21.4093148 L97.4918294,21.4093148 L97.4918294,25.0830361 L12.0210061,25.0830361 L12.0210061,21.4093148 L12.0210061,21.4093148 Z" id="Shape-Copy-4" fill="#77B8EA"></path>
                                    <path d="M12.0210061,9.25958301 L97.4918294,9.25958301 L97.4918294,13.0693681 L12.0210061,13.0693681 L12.0210061,9.25958301 L12.0210061,9.25958301 Z" id="Shape-Copy-5" fill="#77B8EA"></path>
                                </g>
                                <g id="flowstration" transform="translate(21.624321, 0.000000)">
                                    <g id="flow-bubbl-copy" transform="translate(29.139192, 0.025557)" sketch:type="MSShapeGroup">
                                        <g id="Group" transform="translate(0.231375, 0.005394)" stroke="#8CD7A5" stroke-width="0.832" fill="#D6F7E1">
                                            <path d="M6.63160082,27.5030832 L6.63160082,37.3701259 C6.63160082,37.7855803 6.8138459,38.0971712 7.17833607,38.3048984 C7.26945861,38.408762 7.45170369,38.408762 7.54282623,38.408762 C7.81619386,38.408762 7.99843894,38.3048984 8.18068402,38.0971712 L18.4677997,27.5030832 L79.4385113,27.5030832 C80.8964719,27.5030832 81.9899424,26.1528563 81.9899424,24.5949022 L81.9899424,3.19899911 C81.9899424,1.53718139 80.8053494,0.2908181 79.4385113,0.2908181 L2.71333155,0.2908181 C1.34649343,0.2908181 0.161900394,1.53718139 0.161900394,3.19899911 L0.161900394,24.5949022 C0.161900394,26.2567199 1.34649343,27.5030832 2.71333155,27.5030832 L6.63160082,27.5030832 Z" id="Shape"></path>
                                        </g>
                                        <path d="M9.00174962,16.3172996 L73.0052903,16.3172996 L73.0052903,19.0683106 L9.00174962,19.0683106 L9.00174962,16.3172996 L9.00174962,16.3172996 Z" id="Shape-Copy-4" fill="#8CD7A5"></path>
                                        <path d="M9.00174962,7.2191557 L73.0052903,7.2191557 L73.0052903,10.072056 L9.00174962,10.072056 L9.00174962,7.2191557 L9.00174962,7.2191557 Z" id="Shape-Copy-5" fill="#8CD7A5"></path>
                                        <path d="M9.00174962,16.3172996 L73.0052903,16.3172996 L73.0052903,19.0683106 L9.00174962,19.0683106 L9.00174962,16.3172996 L9.00174962,16.3172996 Z" id="Shape-Copy-7" fill="#8CD7A5"></path>
                                        <path d="M9.00174962,7.2191557 L73.0052903,7.2191557 L73.0052903,10.072056 L9.00174962,10.072056 L9.00174962,7.2191557 L9.00174962,7.2191557 Z" id="Shape-Copy-6" fill="#8CD7A5"></path>
                                    </g>
                                    <g id="flow-bubbl-copy-3" transform="translate(22.546806, 181.462600) scale(-1, -1) translate(-22.546806, -181.462600) translate(0.306019, 170.674887)" sketch:type="MSShapeGroup">
                                        <path d="M3.69311589,15.3013763 L3.69311589,20.7898421 C3.69311589,21.0209354 3.79118591,21.1942554 3.98732596,21.309802 C4.03636097,21.3675753 4.13443099,21.3675753 4.183466,21.3675753 C4.33057104,21.3675753 4.42864106,21.309802 4.52671108,21.1942554 L10.0624306,15.3013763 L42.87209,15.3013763 C43.6566501,15.3013763 44.2450703,14.5503231 44.2450703,13.6837233 L44.2450703,1.78241854 C44.2450703,0.858045353 43.6076151,0.164765465 42.87209,0.164765465 L1.5846104,0.164765465 C0.84908523,0.164765465 0.211630082,0.858045353 0.211630082,1.78241854 L0.211630082,13.6837233 C0.211630082,14.6080964 0.84908523,15.3013763 1.5846104,15.3013763 L3.69311589,15.3013763 Z" id="Shape" stroke="#FDBE37" stroke-width="0.832" fill="#FFE9CD"></path>
                                        <path d="M5.81364551,6.29780988 L37.7552714,6.29780988 L37.7552714,8.90544557 L5.81364551,8.90544557 L5.81364551,6.29780988 L5.81364551,6.29780988 Z" id="Shape-Copy-8" fill="#FFCF4E"></path>
                                    </g>
                                    <g id="flow-bubbl-copy-5" transform="translate(117.989604, 119.514631) rotate(-180.000000) translate(-117.989604, -119.514631) translate(98.092762, 109.870361)" sketch:type="MSShapeGroup">
                                        <path d="M3.30414715,13.689194 L3.30414715,18.5993845 C3.30414715,18.8061294 3.39188817,18.961188 3.56737023,19.0645604 C3.61124074,19.1162467 3.69898177,19.1162467 3.74285229,19.1162467 C3.87446383,19.1162467 3.96220486,19.0645604 4.04994589,18.961188 L9.00262878,13.689194 L38.3566879,13.689194 C39.0586162,13.689194 39.5850623,13.0172732 39.5850623,12.24198 L39.5850623,1.5946195 C39.5850623,0.76764005 39.0147457,0.14740546 38.3566879,0.14740546 L1.41771504,0.14740546 C0.759657326,0.14740546 0.189340642,0.76764005 0.189340642,1.5946195 L0.189340642,12.24198 C0.189340642,13.0689594 0.759657326,13.689194 1.41771504,13.689194 L3.30414715,13.689194 Z" id="Shape" stroke="#F6A09E" stroke-width="0.832" fill="#FFD8CD" transform="translate(19.887201, 9.631826) scale(-1, 1) translate(-19.887201, -9.631826) "></path>
                                        <path d="M5.20133697,5.63426056 L33.7787862,5.63426056 L33.7787862,7.96715076 L5.20133697,7.96715076 L5.20133697,5.63426056 L5.20133697,5.63426056 Z" id="Shape-Copy-8" fill="#F6A09E"></path>
                                    </g>
                                    <g id="Group-Copy-2" transform="translate(32.756311, 115.394097)">
                                        <g id="Group" transform="translate(0.374331, 0.000000)" sketch:type="MSShapeGroup">
                                            <path d="M4.19251125,39.9763054 C2.09625563,39.9763054 0.411764498,38.2153997 0.411764498,36.0798333 L0.411764498,4.60832762 C0.411764498,2.47276116 2.09625563,0.711855485 4.19251125,0.711855485 L33.9892877,0.711855485 C36.0855433,0.711855485 37.7700344,2.47276116 37.7700344,4.60832762 L37.7700344,36.0798333 C37.7700344,38.2153997 36.0855433,39.9763054 33.9892877,39.9763054 L4.19251125,39.9763054 L4.19251125,39.9763054 Z" id="Shape" fill="#FFFFFF"></path>
                                            <path d="M33.9892877,1.08651627 C35.8609445,1.08651627 37.3957031,2.66009155 37.3957031,4.60832762 L37.3957031,36.0798333 C37.3957031,38.0280694 35.8609445,39.6016446 33.9892877,39.6016446 L4.19251125,39.6016446 C2.32085444,39.6016446 0.78609586,38.0280694 0.78609586,36.0798333 L0.78609586,4.60832762 C0.78609586,2.66009155 2.32085444,1.08651627 4.19251125,1.08651627 L33.9892877,1.08651627 L33.9892877,1.08651627 Z M33.9892877,0.337194704 L4.19251125,0.337194704 C1.90908995,0.337194704 0.0374331362,2.24796469 0.0374331362,4.60832762 L0.0374331362,36.0798333 C0.0374331362,38.4401962 1.90908995,40.3509662 4.19251125,40.3509662 L33.9892877,40.3509662 C36.272709,40.3509662 38.1443658,38.4401962 38.1443658,36.0798333 L38.1443658,4.60832762 C38.1069327,2.24796469 36.272709,0.337194704 33.9892877,0.337194704 L33.9892877,0.337194704 L33.9892877,0.337194704 Z" id="Shape" fill="#CCD7DB"></path>
                                        </g>
                                        <g id="Group" transform="translate(-0.000000, 0.000000)">
                                            <g transform="translate(0.000000, 0.000000)" id="Shape" sketch:type="MSShapeGroup">
                                                <path d="M7.26202842,42.4865327 C5.31550534,42.4865327 3.66844735,40.9129574 3.48128167,38.9272552 L0.673796452,7.56814779 C0.486630771,5.43258134 2.02138935,3.55927743 4.08021185,3.37194704 L33.7646889,0.711855485 L34.1015871,0.711855485 C36.0481102,0.711855485 37.6951682,2.28543077 37.8823338,4.27113291 L40.689819,35.6302404 C40.7646853,36.6792905 40.4652202,37.6534086 39.8288569,38.4776623 C39.1924936,39.2644499 38.2940983,39.751509 37.2834037,39.8639072 L7.59892665,42.5239987 C7.48662724,42.4865327 7.37432783,42.4865327 7.26202842,42.4865327 L7.26202842,42.4865327 Z" fill="#FFFFFF"></path>
                                                <path d="M34.1015871,1.04905019 C35.8609445,1.04905019 37.3208368,2.43529508 37.5080025,4.27113291 L40.3154877,35.6302404 C40.5026534,37.5784764 39.1176273,39.2644499 37.2459705,39.4517803 L7.56149351,42.1118719 L7.26202842,42.1118719 C5.50267102,42.1118719 4.04277871,40.725627 3.85561303,38.8897892 L1.04812781,7.53068171 C0.860962133,5.61991173 2.24598817,3.89647213 4.11764498,3.74660782 L33.802122,1.08651627 C33.8769883,1.04905019 33.9892877,1.04905019 34.1015871,1.04905019 L34.1015871,1.04905019 Z M34.1015871,0.299728625 L34.1015871,0.299728625 L33.7272557,0.299728625 L4.04277871,2.99728625 C1.7593574,3.18461665 0.0748662724,5.28271702 0.29946509,7.60561387 L3.1069503,38.9647213 C3.29411599,41.1752199 5.09090652,42.8611934 7.26202842,42.8611934 L7.63635978,42.8611934 L37.3208368,40.2011019 C38.4438309,40.0887037 39.4170924,39.5641786 40.128322,38.7024588 C40.8395516,37.840739 41.1764498,36.7167566 41.0641504,35.5927743 L38.2566652,4.23366683 C38.0320664,1.98570214 36.2352758,0.299728625 34.1015871,0.299728625 L34.1015871,0.299728625 L34.1015871,0.299728625 Z" fill="#BAC6CC"></path>
                                            </g>
                                            <path d="M3.84644002,6.70288881 L34.791665,3.91905977 L37.7070889,36.3841658 L6.76186386,39.1679949 L3.84644002,6.70288881 L3.84644002,6.70288881 Z" id="Rectangle-path" fill="#CCF2FF" sketch:type="MSShapeGroup"></path>
                                            <path d="M5.42931798,24.2212876 L36.374543,21.4374586 L36.9442235,27.7812149 L5.99899851,30.565044 L5.42931798,24.2212876 L5.42931798,24.2212876 Z" id="Rectangle-path" fill="#8FE3F9" sketch:type="MSShapeGroup"></path>
                                            <g id="Clipped" transform="translate(3.743314, 3.746608)">
                                                <mask id="mask-4" sketch:name="SVGID_1_" fill="white">
                                                    <use xlink:href="#path-3"></use>
                                                </mask>
                                                <g id="SVGID_1_"></g>
                                                <path d="M45.7432924,12.6635344 C45.7432924,12.6635344 14.8983882,9.77864641 4.45454321,38.8897892 C-5.98930179,68.0009319 34.1015871,47.7317836 34.1015871,47.7317836 L45.7432924,12.6635344 L45.7432924,12.6635344 Z" id="Shape" fill="#D6F7E1" sketch:type="MSShapeGroup" mask="url(#mask-4)"></path>
                                            </g>
                                            <g id="Clipped" transform="translate(3.743314, 3.746608)">
                                                <mask id="mask-6" sketch:name="SVGID_3_" fill="white">
                                                    <use xlink:href="#path-5"></use>
                                                </mask>
                                                <g id="SVGID_3_"></g>
                                                <path d="M-9.05881896,21.3931306 C-9.05881896,21.3931306 28.037419,10.6778323 41.3636155,33.4572078 C54.689812,56.2365834 2.62031953,50.5792055 2.62031953,50.5792055 L-16.5454462,26.4510512 L-9.05881896,21.3931306 L-9.05881896,21.3931306 Z" id="Shape" fill="#B4EFCE" sketch:type="MSShapeGroup" mask="url(#mask-6)"></path>
                                            </g>
                                            <g id="Clipped" transform="translate(3.743314, 3.746608)">
                                                <mask id="mask-8" sketch:name="SVGID_5_" fill="white">
                                                    <use xlink:href="#path-7"></use>
                                                </mask>
                                                <g id="SVGID_5_"></g>
                                                <path d="M27.9628498,8.37605018 C30.9644995,8.10617497 33.2122922,5.82262616 32.9834353,3.27560115 C32.7545784,0.728576144 30.1357354,-1.1174185 27.1340856,-0.847543287 C24.1324359,-0.577668076 21.8846432,1.70588074 22.1135001,4.25290574 C22.342357,6.79993075 24.9612001,8.64592539 27.9628498,8.37605018 L27.9628498,8.37605018 Z" id="Oval" fill="#FFEECC" sketch:type="MSShapeGroup" mask="url(#mask-8)"></path>
                                            </g>
                                            <path d="M10.104289,10.3347042 C10.0667266,10.1843812 10.0291642,10.071639 10.0291642,9.92131599 C9.95403935,8.90663595 10.6677252,8.04227887 11.6819103,7.92953665 C12.3204713,7.85437516 12.8839075,8.1550211 13.2595317,8.60599001 C13.4849061,8.4180863 13.7854054,8.30534407 14.1234672,8.26776333 C15.0625275,8.19260184 15.8513381,8.86905521 15.9640254,9.80857377 L15.9640254,9.88373525 C16.6401488,9.99647748 17.1660226,10.4850271 17.203585,11.1990612 C17.2787098,12.0634183 16.6401488,12.7774524 15.8137757,12.8526139 L15.6635261,12.8526139 L10.6301628,13.3035828 L10.4799131,13.3035828 C9.61597764,13.3787443 8.86472938,12.7774524 8.78960456,11.9506761 C8.71447973,11.086319 9.31547834,10.4474464 10.104289,10.3347042 L10.104289,10.3347042 Z" id="Shape" fill="#FFFFFF" sketch:type="MSShapeGroup"></path>
                                            <path d="M27.5708109,10.2595427 C27.6083733,10.071639 27.6083733,9.88373525 27.5708109,9.73341228 C27.4581236,8.45566704 26.3688137,7.55372922 25.0916916,7.66647145 C24.302881,7.74163293 23.6267576,8.19260184 23.2886958,8.83147446 C22.9506341,8.68115149 22.57501,8.56840927 22.1618235,8.60599001 C20.9973887,8.71873224 20.1334532,9.73341228 20.2461404,10.8984153 L20.2461404,10.9735768 C19.4573298,11.2742227 18.931456,11.9882568 19.0065808,12.8526139 C19.119268,13.9048747 20.0583284,14.6564895 21.1100759,14.5813281 L21.297888,14.5813281 L27.6459357,14.0176169 L27.8337478,14.0176169 C28.8854953,13.9048747 29.7118684,13.0029369 29.5991812,11.9506761 C29.4489315,10.8984153 28.584996,10.2219619 27.5708109,10.2595427 L27.5708109,10.2595427 Z" id="Shape" fill="#FFFFFF" sketch:type="MSShapeGroup"></path>
                                            <g transform="translate(12.395596, 12.777452)" id="Shape" fill="#7E8B91" sketch:type="MSShapeGroup">
                                                <path d="M7.51248253,0.826776333 C5.48411225,-0.450968909 4.4699271,1.08984153 4.05674057,1.99177935 L3.90649092,1.99177935 C3.8689285,1.99177935 3.79380368,2.02936009 3.75624126,2.06694083 C3.00499301,1.42806821 1.38980927,0.488549651 0.112687238,2.55549048 C0.112687238,2.55549048 1.31468444,1.57839118 3.64355403,2.29242529 L3.64355403,2.44274826 C3.68111644,2.63065197 3.8689285,2.7433942 4.05674057,2.70581345 C4.24455263,2.66823271 4.35723987,2.480329 4.31967745,2.29242529 C4.31967745,2.25484454 4.28211504,2.17968306 4.24455263,2.14210232 C6.00998602,0.450968909 7.51248253,0.826776333 7.51248253,0.826776333 L7.51248253,0.826776333 Z"></path>
                                                <path d="M4.35723987,4.81033503 C3.04255542,4.28420463 2.62936889,5.29888468 2.47911923,5.86259581 L2.40399441,5.86259581 C2.366432,5.86259581 2.32886958,5.90017656 2.32886958,5.9377573 C1.80299581,5.63711136 0.788810666,5.29888468 0.262936889,6.61421066 C0.262936889,6.61421066 0.863935491,5.90017656 2.29130717,6.08808027 L2.29130717,6.16324175 C2.32886958,6.27598398 2.47911923,6.31356472 2.55424406,6.27598398 C2.6669313,6.23840324 2.70449371,6.08808027 2.6669313,6.01291878 C2.6669313,5.97533804 2.62936889,5.97533804 2.62936889,5.9377573 C3.45574196,4.77275428 4.35723987,4.81033503 4.35723987,4.81033503 L4.35723987,4.81033503 Z"></path>
                                            </g>
                                        </g>
                                    </g>
                                    <g id="Group-Copy-+-Shape-Copy-9-+-Shape-Copy-10" transform="translate(68.199783, 178.141430)" sketch:type="MSShapeGroup">
                                        <g id="Group-Copy" transform="translate(0.040865, 0.130297)">
                                            <path d="M34.3792816,40.3563029 L34.0617948,40.3563029 L4.17268325,37.9503591 C2.17705213,37.7687784 0.634973539,35.9983669 0.81639455,34.0009796 L3.22022295,3.85858914 C3.3562887,1.95199215 4.9890778,0.49934683 6.89399842,0.49934683 L7.21148519,0.49934683 L37.1005968,2.90529065 C39.0962279,3.08687131 40.6383065,4.8572828 40.4568855,6.85467012 L38.0530571,36.9970606 C37.8716361,38.9036576 36.2842022,40.3563029 34.3792816,40.3563029 L34.3792816,40.3563029 Z" id="Shape" fill="#FFFFFF"></path>
                                            <path d="M6.89399842,0.953298494 L7.16612994,0.953298494 L37.0552415,3.35924231 C38.8240964,3.49542781 40.1393987,5.03886347 40.0033329,6.80927496 L37.5995045,36.9516654 C37.4634388,38.6312866 36.0574259,39.9023512 34.3792816,39.9023512 L34.1071501,39.9023512 L4.21803851,37.4964074 C2.44918365,37.3602219 1.13388132,35.8167863 1.26994708,34.0463748 L3.67377547,3.90398431 C3.80984123,2.22436315 5.21585407,0.953298494 6.89399842,0.953298494 L6.89399842,0.953298494 Z M6.89399842,0.0453951664 L6.89399842,0.0453951664 C4.76230154,0.0453951664 2.94809143,1.72501632 2.76667042,3.85858914 L0.362842022,34.0009796 C0.181421011,36.2707379 1.85956536,38.2681253 4.127328,38.4497059 L34.0164396,40.8556497 L34.3339263,40.8556497 C36.4656232,40.8556497 38.2798333,39.1760286 38.4612543,37.0424558 L40.8650827,6.90006529 C40.9557932,5.8105813 40.5929512,4.7210973 39.9126224,3.90398431 C39.1869384,3.08687131 38.1891228,2.54212932 37.1005968,2.45133898 L7.21148519,0.0453951664 C7.12077468,0.0453951664 6.98470893,0.0453951664 6.89399842,0.0453951664 L6.89399842,0.0453951664 L6.89399842,0.0453951664 Z" id="Shape" fill="#B3C0C9"></path>
                                        </g>
                                        <path d="M20.6775051,10.661976 L19.7704,21.7837918 L31.6534763,22.7370903 L31.6534763,22.7824855 C31.1545685,29.0016233 25.8026487,33.6773254 19.6796895,33.1779786 C13.5567304,32.6786317 9.02120513,27.2766069 9.52011291,21.0574691 C10.0643759,14.9291217 14.6452565,10.2534195 20.6775051,10.661976 L20.6775051,10.661976 Z" id="Shape-Copy-9" fill="#B2E6F0"></path>
                                        <path d="M23.5802413,18.560735 L35.1004755,19.4686383 C35.5993832,13.4764764 30.5195949,8.30142739 24.4419911,7.7566854 L23.5802413,18.560735 L23.5802413,18.560735 Z" id="Shape-Copy-10" fill="#F6A09E"></path>
                                    </g>
                                    <g id="Group-Copy-3-+-Shape-Copy-11" transform="translate(37.426710, 111.962721)" fill="#B3C0C9" sketch:type="MSShapeGroup">
                                        <path d="M4.05327648,1.7371157 C4.97852364,1.82972183 5.62619665,2.61687402 5.57993429,3.49663234 C5.53367193,3.8670569 5.85750844,4.23748146 6.2276073,4.23748146 C6.59770616,4.28378453 6.96780502,3.95966304 7.01406738,3.58923848 C7.15285445,1.92232797 5.90377079,0.440629744 4.19206355,0.301720535 C2.48035631,0.162811325 1.23127265,1.45929728 1.13874794,3.12620779 L0.306025497,13.6370046 C0.167238424,15.3039151 1.1850103,16.7856134 2.89671753,16.9245226 C4.60842477,17.0634318 5.85750844,15.7669458 5.95003315,14.1000353 L5.99629551,13.1739739 L6.50518144,6.78415029 C6.59770616,5.53396741 6.13508258,4.60790602 5.02478599,4.51529988 C3.91448941,4.42269374 3.12802932,5.25614899 3.03550461,6.50633188 L2.57288103,12.4331248 C2.52661867,12.8035494 2.85045518,13.1739739 3.22055404,13.1739739 C3.5906529,13.220277 3.96075176,12.8961555 4.00701412,12.5257309 L4.4696377,6.59893802 C4.4696377,6.36742267 4.4696377,5.8580889 4.93226128,5.90439197 C5.25609778,5.95069504 5.16357307,6.18221039 5.11731071,6.64524108 L4.60842477,13.0350647 L4.51590006,13.9611261 C4.42337534,14.8408844 3.86822705,15.5354305 2.98924225,15.4891274 C2.06399509,15.3965213 1.64763387,14.6556721 1.69389623,13.7296108 L2.52661867,3.21881393 C2.57288103,2.38535867 3.12802932,1.69081263 4.05327648,1.7371157 L4.05327648,1.7371157 Z" id="Shape-Copy-11"></path>
                                    </g>
                                    <g id="single7" transform="translate(14.554832, 53.275942)" sketch:type="MSShapeGroup">
                                        <path d="M1.43948885,0.288151126 L35.9872212,0.288151126 C36.6205963,0.288151126 37.1388123,0.806823154 37.1388123,1.44075563 L37.1388123,22.1876367 C37.1388123,22.8215692 36.6205963,23.3402412 35.9872212,23.3402412 L1.43948885,23.3402412 C0.806113756,23.3402412 0.28789777,22.8215692 0.28789777,22.1876367 L0.28789777,1.44075563 C0.28789777,0.806823154 0.806113756,0.288151126 1.43948885,0.288151126 L1.43948885,0.288151126 Z" id="Shape" stroke="#92CCF9" stroke-width="0.832" fill="#FFFFFF"></path>
                                        <g id="Group" transform="translate(0.000000, 0.576302)" fill="#92CCF9">
                                            <path d="M36.5630168,22.763939 L36.8509146,22.245267 L23.6076171,10.3734405 L23.3197194,10.8921126 L36.5630168,22.763939 L36.5630168,22.763939 Z" id="Shape"></path>
                                            <path d="M0.690954648,22.7063088 L0.403056878,22.1876367 L13.9342521,10.3734405 L14.2221498,10.8921126 L0.690954648,22.7063088 L0.690954648,22.7063088 Z" id="Shape"></path>
                                            <path d="M0.28789777,0.576302253 L0.28789777,0 C0.28789777,0 16.8708093,13.2549518 18.713355,13.2549518 C20.6710599,13.2549518 37.1388123,0 37.1388123,0 L37.1388123,0.576302253 C37.1388123,0.576302253 20.7286394,13.8312541 18.713355,13.8312541 C16.525332,13.8312541 0.28789777,0.576302253 0.28789777,0.576302253 L0.28789777,0.576302253 Z" id="Shape"></path>
                                        </g>
                                    </g>
                                    <g id="single7-copy" transform="translate(30.136318, 66.841863) rotate(11.000000) translate(-30.136318, -66.841863) translate(11.215037, 54.979641)" sketch:type="MSShapeGroup">
                                        <path d="M1.43948885,0.288151126 L35.9872212,0.288151126 C36.6205963,0.288151126 37.1388123,0.806823154 37.1388123,1.44075563 L37.1388123,22.1876367 C37.1388123,22.8215692 36.6205963,23.3402412 35.9872212,23.3402412 L1.43948885,23.3402412 C0.806113756,23.3402412 0.28789777,22.8215692 0.28789777,22.1876367 L0.28789777,1.44075563 C0.28789777,0.806823154 0.806113756,0.288151126 1.43948885,0.288151126 L1.43948885,0.288151126 Z" id="Shape" stroke="#92CCF9" stroke-width="0.832" fill="#EBF6FF"></path>
                                        <g id="Group" transform="translate(0.000000, 0.160084)" fill="#92CCF9">
                                            <path d="M36.5630168,23.1801573 L36.8509146,22.6614852 L23.6076171,10.7896588 L23.3197194,11.3083309 L36.5630168,23.1801573 L36.5630168,23.1801573 Z" id="Shape"></path>
                                            <path d="M0.690954648,23.1225271 L0.403056878,22.603855 L13.9342521,10.7896588 L14.2221498,11.3083309 L0.690954648,23.1225271 L0.690954648,23.1225271 Z" id="Shape"></path>
                                            <path d="M0.28789777,0.992520546 L0.28789777,0.416218294 C0.28789777,0.416218294 16.8708093,13.6711701 18.713355,13.6711701 C20.6710599,13.6711701 37.1388123,0.416218294 37.1388123,0.416218294 L37.1388123,0.992520546 C37.1388123,0.992520546 20.7286394,14.2474724 18.713355,14.2474724 C16.525332,14.2474724 0.28789777,0.992520546 0.28789777,0.992520546 L0.28789777,0.992520546 Z" id="Shape"></path>
                                        </g>
                                    </g>
                                </g>
                                <g id="single1" transform="translate(109.731427, 79.199457) rotate(-2.000000) translate(-109.731427, -79.199457) translate(95.176595, 56.931778)">
                                    <g id="Group" transform="translate(14.649468, 22.419471) rotate(-5.000000) translate(-14.649468, -22.419471) translate(2.175604, 1.392369)">
                                        <g transform="translate(0.026386, 0.093372)" id="Shape" sketch:type="MSShapeGroup">
                                            <path d="M1.82849934,41.5307469 C1.12523036,41.5307469 0.515730582,40.9714103 0.515730582,40.2256281 L0.515730582,2.00428969 C0.515730582,1.30511887 1.07834576,0.699170824 1.82849934,0.699170824 L22.9265686,0.699170824 C23.6298376,0.699170824 24.2393374,1.25850748 24.2393374,2.00428969 L24.2393374,40.2256281 C24.2393374,40.9247989 23.6767222,41.5307469 22.9265686,41.5307469 L1.82849934,41.5307469 L1.82849934,41.5307469 Z" fill="#FFFFFF"></path>
                                            <path d="M22.9265686,1.07206193 C23.4422992,1.07206193 23.8642606,1.49156442 23.8642606,2.00428969 L23.8642606,40.2256281 C23.8642606,40.7383533 23.4422992,41.1578558 22.9265686,41.1578558 L1.82849934,41.1578558 C1.31276876,41.1578558 0.89080737,40.7383533 0.89080737,40.2256281 L0.89080737,2.00428969 C0.89080737,1.49156442 1.31276876,1.07206193 1.82849934,1.07206193 L22.9265686,1.07206193 L22.9265686,1.07206193 Z M22.9265686,0.372891106 L1.82849934,0.372891106 C0.937691968,0.372891106 0.187538394,1.11867332 0.187538394,2.00428969 L0.187538394,40.2256281 C0.187538394,41.1112444 0.937691968,41.8570266 1.82849934,41.8570266 L22.9265686,41.8570266 C23.817376,41.8570266 24.5675296,41.1112444 24.5675296,40.2256281 L24.5675296,2.00428969 C24.5675296,1.11867332 23.8642606,0.372891106 22.9265686,0.372891106 L22.9265686,0.372891106 L22.9265686,0.372891106 Z" fill="#94A8B6"></path>
                                        </g>
                                        <path d="M12.7096054,35.0769606 C14.0223742,35.0769606 15.0538353,36.1024112 15.0538353,37.40753 C15.0538353,38.7126489 14.0223742,39.7380994 12.7096054,39.7380994 C11.3968367,39.7380994 10.3653755,38.7126489 10.3653755,37.40753 C10.3653755,36.1490225 11.4437213,35.0769606 12.7096054,35.0769606 L12.7096054,35.0769606 Z" id="Shape" fill="#E6EEF4" sketch:type="MSShapeGroup"></path>
                                        <path d="M10.1309525,4.77955825 L14.8194124,4.77955825 C14.9600661,4.77955825 15.0538353,4.87278103 15.0538353,5.01261519 L15.0538353,5.47872907 C15.0538353,5.61856324 14.9600661,5.71178602 14.8194124,5.71178602 L10.1309525,5.71178602 C9.99029872,5.71178602 9.89652952,5.61856324 9.89652952,5.47872907 L9.89652952,5.01261519 C9.89652952,4.91939242 9.99029872,4.77955825 10.1309525,4.77955825 L10.1309525,4.77955825 Z" id="Shape" fill="#A1B2BF" sketch:type="MSShapeGroup"></path>
                                        <g transform="translate(1.973032, 6.504180)" sketch:type="MSShapeGroup">
                                            <rect id="Rectangle-path" fill="#FFFFFF" x="0.562615181" y="0.745782212" width="19.9259543" height="26.8015482"></rect>
                                            <path d="M20.1134927,1.07206193 L20.1134927,27.1744393 L0.89080737,27.1744393 L0.89080737,1.07206193 L20.1134927,1.07206193 L20.1134927,1.07206193 Z M20.8167617,0.372891106 L20.1134927,0.372891106 L0.89080737,0.372891106 L0.187538394,0.372891106 L0.187538394,1.07206193 L0.187538394,27.1744393 L0.187538394,27.8736102 L0.89080737,27.8736102 L20.1134927,27.8736102 L20.8167617,27.8736102 L20.8167617,27.1744393 L20.8167617,1.07206193 L20.8167617,0.372891106 L20.8167617,0.372891106 Z" id="Shape" fill="#B1BFC9"></path>
                                        </g>
                                        <g id="Clipped" transform="translate(2.441878, 7.436407)">
                                            <mask id="mask-10" sketch:name="SVGID_5_" fill="white">
                                                <use xlink:href="#path-9"></use>
                                            </mask>
                                            <g id="SVGID_5_"></g>
                                            <rect id="Rectangle-path" fill="#57A4DF" sketch:type="MSShapeGroup" mask="url(#mask-10)" x="-3.32880649" y="-0.326279718" width="28.130759" height="4.19502494"></rect>
                                        </g>
                                        <g transform="translate(4.786108, 13.495888)" id="Shape" sketch:type="MSShapeGroup">
                                            <path d="M2.71930671,7.36459934 C3.0006143,7.36459934 3.18815269,7.5510449 3.18815269,7.83071323 L3.18815269,9.22905487 C3.18815269,9.5087232 3.0006143,9.69516876 2.71930671,9.69516876 L1.31276876,9.69516876 C1.03146116,9.69516876 0.843922771,9.5087232 0.843922771,9.22905487 L0.843922771,7.83071323 C0.843922771,7.5510449 1.03146116,7.36459934 1.31276876,7.36459934 L2.71930671,7.36459934 L2.71930671,7.36459934 Z M2.71930671,6.66542852 L1.31276876,6.66542852 C0.656384378,6.66542852 0.140653795,7.17815379 0.140653795,7.83071323 L0.140653795,9.22905487 C0.140653795,9.88161431 0.656384378,10.3943396 1.31276876,10.3943396 L2.71930671,10.3943396 C3.37569109,10.3943396 3.89142167,9.88161431 3.89142167,9.22905487 L3.89142167,7.83071323 C3.89142167,7.22476518 3.37569109,6.66542852 2.71930671,6.66542852 L2.71930671,6.66542852 L2.71930671,6.66542852 Z" fill="#F0C545"></path>
                                            <path d="M2.71930671,1.07206193 C3.0006143,1.07206193 3.18815269,1.25850748 3.18815269,1.53817581 L3.18815269,2.93651746 C3.18815269,3.21618579 3.0006143,3.40263134 2.71930671,3.40263134 L1.31276876,3.40263134 C1.03146116,3.40263134 0.843922771,3.21618579 0.843922771,2.93651746 L0.843922771,1.53817581 C0.843922771,1.25850748 1.03146116,1.07206193 1.31276876,1.07206193 L2.71930671,1.07206193 L2.71930671,1.07206193 Z M2.71930671,0.372891106 L1.31276876,0.372891106 C0.656384378,0.372891106 0.140653795,0.885616377 0.140653795,1.53817581 L0.140653795,2.93651746 C0.140653795,3.58907689 0.656384378,4.10180217 1.31276876,4.10180217 L2.71930671,4.10180217 C3.37569109,4.10180217 3.89142167,3.58907689 3.89142167,2.93651746 L3.89142167,1.53817581 C3.89142167,0.932227765 3.37569109,0.372891106 2.71930671,0.372891106 L2.71930671,0.372891106 L2.71930671,0.372891106 Z" fill="#F0C545"></path>
                                            <path d="M2.71930671,13.4706912 C3.0006143,13.4706912 3.18815269,13.6571368 3.18815269,13.9368051 L3.18815269,15.3351467 C3.18815269,15.6148151 3.0006143,15.8012606 2.71930671,15.8012606 L1.31276876,15.8012606 C1.03146116,15.8012606 0.843922771,15.6148151 0.843922771,15.3351467 L0.843922771,13.9368051 C0.843922771,13.6571368 1.03146116,13.4706912 1.31276876,13.4706912 L2.71930671,13.4706912 L2.71930671,13.4706912 Z M2.71930671,12.7715204 L1.31276876,12.7715204 C0.656384378,12.7715204 0.140653795,13.2842457 0.140653795,13.9368051 L0.140653795,15.3351467 C0.140653795,15.9877062 0.656384378,16.5004314 1.31276876,16.5004314 L2.71930671,16.5004314 C3.37569109,16.5004314 3.89142167,15.9877062 3.89142167,15.3351467 L3.89142167,13.9368051 C3.89142167,13.2842457 3.37569109,12.7715204 2.71930671,12.7715204 L2.71930671,12.7715204 L2.71930671,12.7715204 Z" fill="#AAABAC"></path>
                                            <g transform="translate(5.157306, 0.932228)" fill="#CADBE8">
                                                <path d="M0,14.1232506 L9.37691968,14.1232506 L9.37691968,15.0554784 L0,15.0554784 L0,14.1232506 L0,14.1232506 Z"></path>
                                                <path d="M0,12.2587951 L9.37691968,12.2587951 L9.37691968,13.1910229 L0,13.1910229 L0,12.2587951 L0,12.2587951 Z"></path>
                                                <path d="M0,8.06377017 L9.37691968,8.06377017 L9.37691968,8.99599793 L0,8.99599793 L0,8.06377017 L0,8.06377017 Z"></path>
                                                <path d="M0,6.19931464 L9.37691968,6.19931464 L9.37691968,7.1315424 L0,7.1315424 L0,6.19931464 L0,6.19931464 Z"></path>
                                                <path d="M0,2.00428969 L9.37691968,2.00428969 L9.37691968,2.93651746 L0,2.93651746 L0,2.00428969 L0,2.00428969 Z"></path>
                                                <path d="M0,0.139834165 L9.37691968,0.139834165 L9.37691968,1.07206193 L0,1.07206193 L0,0.139834165 L0,0.139834165 Z"></path>
                                            </g>
                                        </g>
                                        <path d="M12.4751824,2.44898884 C12.8502592,2.44898884 13.1784514,2.77526856 13.1784514,3.14815966 C13.1784514,3.52105077 12.8502592,3.84733049 12.4751824,3.84733049 C12.1001056,3.84733049 11.7719135,3.52105077 11.7719135,3.14815966 C11.7719135,2.77526856 12.1001056,2.44898884 12.4751824,2.44898884 L12.4751824,2.44898884 Z" id="Shape" fill="#A5B6C2" sketch:type="MSShapeGroup"></path>
                                    </g>
                                </g>
                            </g>
                            <g id="CTA-top-Copy" transform="translate(44.912052, 209.565911)">
                                <g id="signup-google">
                                    <rect id="Rectangle-15" fill="#259AF4" sketch:type="MSShapeGroup" x="0" y="0.193442648" width="113.858589" height="19.1527374" rx="10"></rect>
                                    <g id="social-googleplus-outline" transform="translate(14.277805, 6.060087)" fill="#FFFFFF" sketch:type="MSShapeGroup">
                                        <g id="Group">
                                            <path d="M4.17733457,0.379155802 C4.43473691,0.580255012 4.97135535,1.00130648 4.97135535,1.80360854 C4.97135535,2.58496276 4.50235956,2.95364465 4.0311824,3.3013787 C3.88503022,3.43963441 3.71706429,3.58626925 3.71706429,3.81879021 C3.71706429,4.05131117 3.88503022,4.17909296 4.00718726,4.27335821 L4.41074178,4.56872268 C4.9037327,4.9583524 5.35091473,5.31865515 5.35091473,6.04763979 C5.35091473,7.04056714 4.33221225,8.04187362 2.40605746,8.04187362 C0.783113896,8.0439684 0,7.31498377 0,6.53362954 C0,6.15447374 0.20068657,5.6161144 0.861643423,5.24533773 C1.55532091,4.84523409 2.49767524,4.79076972 2.99939166,4.75934797 C2.84233261,4.56872268 2.6634598,4.36762347 2.6634598,4.04083725 C2.6634598,3.86068588 2.72017557,3.7559467 2.77470996,3.62816491 C2.65255292,3.63863883 2.5282145,3.64911275 2.41696434,3.64911275 C1.23029593,3.64911275 0.558432193,2.81538894 0.558432193,1.99213905 C0.558432193,1.50614929 0.794020775,0.967789948 1.27610482,0.578160229 C1.91524791,0.0837913375 2.67654805,0 3.28078914,0 L5.58650331,0 L4.87101206,0.379155802 L4.17733457,0.379155802 L4.17733457,0.379155802 Z M3.38113242,5.06728114 C3.29169602,5.05680722 3.23498025,5.05680722 3.12373008,5.05680722 C3.0233868,5.05680722 2.41914571,5.07775505 1.94796855,5.22438989 C1.70147309,5.30818123 0.985981842,5.56165003 0.985981842,6.3115825 C0.985981842,7.06151497 1.75818886,7.59987431 2.95576415,7.59987431 C4.0311824,7.59987431 4.60052147,7.11388456 4.60052147,6.46031212 C4.60052147,5.92195278 4.23186897,5.63706223 3.38113242,5.06728114 L3.38113242,5.06728114 Z M3.70615741,3.0604786 C3.96355975,2.81748372 3.98537351,2.48022359 3.98537351,2.2895983 C3.98537351,1.52919191 3.50328946,0.347734051 2.57402339,0.347734051 C2.28390042,0.347734051 1.96978231,0.483894974 1.7909095,0.695468101 C1.6011298,0.917515146 1.54441403,1.20240569 1.54441403,1.47682232 C1.54441403,2.18485913 1.98068919,3.35584307 2.94485727,3.35584307 C3.22407337,3.35793785 3.52510322,3.23015606 3.70615741,3.0604786 L3.70615741,3.0604786 Z" id="Shape"></path>
                                            <path d="M9.77256339,1.64021543 L8.06454617,1.64021543 L8.06454617,0.00209478344 L7.67844266,0.00209478344 L7.67844266,1.64021543 L5.93988618,1.64021543 L5.93988618,2.01308688 L7.67844266,2.01308688 L7.67844266,3.70776669 L8.06454617,3.70776669 L8.06454617,2.01308688 L9.77256339,2.01308688 L9.77256339,1.64021543 Z" id="Shape"></path>
                                        </g>
                                    </g>
                                    <text id="Sign-up-With-Google" sketch:type="MSTextLayer" font-family="Proxima Nova" font-size="7.65707695" font-weight="normal" letter-spacing="0.133120006" fill="#FFFFFF">
                                        <tspan x="28.777964" y="12.3093659">Sign up With Google</tspan>
                                    </text>
                                </g>
                                <g id="email-copy-3" transform="translate(135.386474, 0.000000)">
                                    <g id="Rectangle-17">
                                        <mask id="mask-12" sketch:name="Mask" fill="white">
                                            <use xlink:href="#path-11"></use>
                                        </mask>
                                        <use id="Mask" stroke="#DDDDDD" stroke-width="0.52" sketch:type="MSShapeGroup" xlink:href="#path-11"></use>
                                        <rect fill="#36CF52" sketch:type="MSShapeGroup" mask="url(#mask-12)" x="108.195398" y="-2.39409217" width="88.9043449" height="28.7291061"></rect>
                                    </g>
                                    <text id="Get-Started" sketch:type="MSTextLayer" font-family="Proxima Nova" font-size="7.65707695" font-weight="bold" letter-spacing="0.139840308" fill="#FFFFFF">
                                        <tspan x="120.841143" y="12.7881843">Get Starte</tspan>
                                        <tspan x="157.354901" y="12.7881843" letter-spacing="0.149162995">d</tspan>
                                    </text>
                                    <text id="Email-Address" opacity="0.699999988" sketch:type="MSTextLayer" font-family="Proxima Nova" font-size="7.65707695" font-weight="normal" fill="#AAAAAA">
                                        <tspan x="10.2687363" y="12.7881843">Email Address</tspan>
                                    </text>
                                </g>
                                <text id="or" sketch:type="MSTextLayer" font-family="Proxima Nova" font-size="7.65707695" font-weight="260" fill="#AAAAAA">
                                    <tspan x="121.034551" y="12.7881843">or</tspan>
                                </text>
                            </g>
                        </g>
                    </g>
                </g>
                <path d="M337.697716,20.1057345 C338.471545,20.1057345 339.098858,19.4775758 339.098858,18.7027027 C339.098858,17.9278297 338.471545,17.2996709 337.697716,17.2996709 C336.923886,17.2996709 336.296574,17.9278297 336.296574,18.7027027 C336.296574,19.4775758 336.923886,20.1057345 337.697716,20.1057345 Z" id="Oval-6" fill="#AAAAAA" sketch:type="MSShapeGroup"></path>
            </g>
        </g>
    </g>
</svg>