<?xml version="1.0" encoding="UTF-8" standalone="no"?>
<svg width="863px" height="466px" viewBox="0 0 863 466" version="1.1" xmlns="http://www.w3.org/2000/svg" xmlns:xlink="http://www.w3.org/1999/xlink" xmlns:sketch="http://www.bohemiancoding.com/sketch/ns">
    <!-- Generator: Sketch 3.5.1 (25234) - http://www.bohemiancoding.com/sketch -->
    <title>work-item-images</title>
    <desc>Created with Sketch.</desc>
    <defs></defs>
    <g id="Welcome" stroke="none" stroke-width="1" fill="none" fill-rule="evenodd" sketch:type="MSPage">
        <g id="work-item-images" sketch:type="MSArtboardGroup">
            <g id="flow" sketch:type="MSLayerGroup" transform="translate(-8.468100, -22.017060)">
                <g id="title" transform="translate(17.500000, 92.783739)">
                    <text id="Internship-at-Flow" fill="#2F0202" sketch:type="MSTextLayer" font-family="Playfair Display" font-size="32" font-weight="normal" letter-spacing="1.30909097">
                        <tspan x="4.9681" y="40.2333208" fill="#000000">Internship at Flow</tspan>
                    </text>
                    <path d="M18.4179688,67.6171875 C18.2434887,67.6848962 18.1236982,67.8098949 18.0585938,67.9921875 C17.9934893,68.1744801 17.9609375,68.4661438 17.9609375,68.8671875 L17.9609375,76.8046875 C17.9609375,77.2057312 17.9934893,77.4973949 18.0585938,77.6796875 C18.1236982,77.8619801 18.2434887,77.9869788 18.4179688,78.0546875 C18.5924488,78.1223962 18.8723939,78.1640624 19.2578125,78.1796875 L19.2578125,78.5 C18.75781,78.4687498 18.0807334,78.453125 17.2265625,78.453125 C16.3098912,78.453125 15.6276064,78.4687498 15.1796875,78.5 L15.1796875,78.1796875 C15.5651061,78.1640624 15.8437491,78.1223962 16.015625,78.0546875 C16.1875009,77.9869788 16.3059893,77.8619801 16.3710938,77.6796875 C16.4361982,77.4973949 16.46875,77.2057312 16.46875,76.8046875 L16.46875,68.2421875 L12.6171875,78.578125 L12.359375,78.578125 L8.328125,68.1953125 L8.328125,76.640625 C8.328125,77.0520854 8.36458297,77.3619781 8.4375,77.5703125 C8.51041703,77.7786469 8.64713441,77.928385 8.84765625,78.0195313 C9.04817809,78.1106775 9.35937289,78.1640624 9.78125,78.1796875 L9.78125,78.5 C9.40103977,78.4687498 8.85677438,78.453125 8.1484375,78.453125 C7.51301766,78.453125 7.01823094,78.4687498 6.6640625,78.5 L6.6640625,78.1796875 C7.03385602,78.1640624 7.30859285,78.1106775 7.48828125,78.0195313 C7.66796965,77.928385 7.79166633,77.7786469 7.859375,77.5703125 C7.92708367,77.3619781 7.9609375,77.0520854 7.9609375,76.640625 L7.9609375,68.8671875 C7.9609375,68.4661438 7.92838574,68.1744801 7.86328125,67.9921875 C7.79817676,67.8098949 7.67838629,67.6848962 7.50390625,67.6171875 C7.32942621,67.5494788 7.04948109,67.5078126 6.6640625,67.4921875 L6.6640625,67.171875 C7.01302258,67.2031252 7.5078093,67.21875 8.1484375,67.21875 C8.71094031,67.21875 9.16666492,67.2031252 9.515625,67.171875 L13.03125,76.453125 L16.46875,67.21875 L17.2265625,67.21875 C18.0807334,67.21875 18.75781,67.2031252 19.2578125,67.171875 L19.2578125,67.4921875 C18.8723939,67.5078126 18.5924488,67.5494788 18.4179688,67.6171875 L18.4179688,67.6171875 Z M25.2365767,70.6992188 C24.9787629,70.4726551 24.6128812,70.359375 24.1389205,70.359375 C23.3837084,70.359375 22.8550678,70.5494773 22.552983,70.9296875 C22.7665257,70.9817711 22.9449094,71.0950512 23.0881392,71.2695313 C23.2313691,71.4440113 23.302983,71.6562488 23.302983,71.90625 C23.302983,72.1770847 23.2183484,72.3893221 23.0490767,72.5429688 C22.8798051,72.6966154 22.6519428,72.7734375 22.365483,72.7734375 C22.0946483,72.7734375 21.8824108,72.6822926 21.7287642,72.5 C21.5751176,72.3177074 21.4982955,72.0781265 21.4982955,71.78125 C21.4982955,71.3645813 21.748293,70.9843767 22.2482955,70.640625 C22.5087135,70.4687491 22.8303248,70.3255214 23.2131392,70.2109375 C23.5959537,70.0963536 24.0217306,70.0390625 24.490483,70.0390625 C24.9279852,70.0390625 25.313398,70.0924474 25.646733,70.1992188 C25.980068,70.3059901 26.240482,70.4531241 26.427983,70.640625 C26.6727759,70.8906263 26.8407429,71.1809879 26.9318892,71.5117188 C27.0230355,71.8424496 27.068608,72.2994763 27.068608,72.8828125 L27.068608,77.328125 C27.068608,77.5937513 27.106368,77.7864577 27.1818892,77.90625 C27.2574104,78.0260423 27.3837113,78.0859375 27.5607955,78.0859375 C27.6910045,78.0859375 27.8107949,78.057292 27.9201705,78 C28.029546,77.942708 28.1493365,77.8593755 28.2795455,77.75 L28.459233,78.0234375 C28.271732,78.1640632 28.1154836,78.2734371 27.990483,78.3515625 C27.8654824,78.4296879 27.7222546,78.4921873 27.5607955,78.5390625 C27.3993363,78.5859377 27.2118382,78.609375 26.9982955,78.609375 C26.4826679,78.609375 26.1245986,78.48047 25.9240767,78.2226563 C25.7235549,77.9648425 25.6232955,77.6197938 25.6232955,77.1875 C25.3107939,77.7031276 24.9357977,78.0690093 24.4982955,78.2851563 C24.0607933,78.5013032 23.6154853,78.609375 23.162358,78.609375 C22.7925645,78.609375 22.4540262,78.5455736 22.146733,78.4179688 C21.8394398,78.2903639 21.5933485,78.0924493 21.4084517,77.8242188 C21.223555,77.5559882 21.131108,77.2213562 21.131108,76.8203125 C21.131108,76.4140605 21.2300653,76.0677098 21.427983,75.78125 C21.6259006,75.4947902 21.9045437,75.2434907 22.2639205,75.0273438 C22.6232973,74.8111968 23.1050633,74.5755221 23.709233,74.3203125 C23.8134002,74.2786456 24.068606,74.17448 24.474858,74.0078125 C24.88111,73.841145 25.1740758,73.67448 25.3537642,73.5078125 C25.5334526,73.341145 25.6232955,73.1588552 25.6232955,72.9609375 L25.6232955,71.96875 C25.6232955,71.3489552 25.4943905,70.9257824 25.2365767,70.6992188 L25.2365767,70.6992188 Z M25.2326705,73.953125 C25.0503779,74.0572922 24.6701734,74.2499986 24.0920455,74.53125 C23.7847523,74.6770841 23.5243382,74.8268221 23.3107955,74.9804688 C23.0972528,75.1341154 22.9149629,75.3411445 22.7639205,75.6015625 C22.6128781,75.8619805 22.537358,76.1822898 22.537358,76.5625 C22.537358,77.026044 22.6545443,77.3763009 22.8889205,77.6132813 C23.1232967,77.8502616 23.4331894,77.96875 23.818608,77.96875 C24.5269449,77.96875 25.1285013,77.5651082 25.6232955,76.7578125 L25.6232955,73.6171875 C25.5451701,73.7369798 25.4149631,73.8489578 25.2326705,73.953125 L25.2326705,73.953125 Z M35.730966,70.3046875 C36.2049267,70.3046875 36.6111726,70.2890627 36.949716,70.2578125 L36.949716,70.578125 C36.7361732,70.6041668 36.546071,70.70052 36.3794035,70.8671875 C36.212736,71.033855 36.0564875,71.312498 35.9106535,71.703125 L33.2856535,78.578125 L32.7387785,79.96875 C32.5356525,80.4947943 32.3064881,80.8697905 32.0512785,81.09375 C31.7491936,81.369793 31.3325311,81.5078125 30.8012785,81.5078125 C30.4835686,81.5078125 30.2231545,81.4231779 30.0200285,81.2539063 C29.8169025,81.0846346 29.715341,80.8489598 29.715341,80.546875 C29.715341,80.2916654 29.7908611,80.0872404 29.9419035,79.9335938 C30.0929459,79.7799471 30.3012771,79.703125 30.5669035,79.703125 C30.8012796,79.703125 30.9952881,79.7682285 31.1489347,79.8984375 C31.3025813,80.0286465 31.3794035,80.2135405 31.3794035,80.453125 C31.3794035,80.7708349 31.2361757,81.0104159 30.949716,81.171875 C30.9705494,81.1822917 31.0017991,81.1875 31.043466,81.1875 C31.6320106,81.1875 32.0851311,80.7708375 32.402841,79.9375 L32.9731535,78.4765625 L30.0669035,71.4921875 C29.8846109,71.122394 29.7036231,70.8802089 29.5239347,70.765625 C29.3442463,70.6510411 29.1632586,70.59375 28.980966,70.59375 L28.980966,70.2578125 C29.4809685,70.3255212 30.0044007,70.359375 30.5512785,70.359375 C31.0096141,70.359375 31.7023155,70.3255212 32.6294035,70.2578125 L32.6294035,70.59375 C32.3689855,70.59375 32.1658625,70.6028645 32.0200285,70.6210938 C31.8741944,70.639323 31.7531019,70.6888017 31.6567472,70.7695313 C31.5603926,70.8502608 31.512216,70.9765616 31.512216,71.1484375 C31.512216,71.3411468 31.5799236,71.604165 31.715341,71.9375 L33.6450285,76.71875 L35.4106535,72.0859375 C35.5252374,71.7734359 35.5825285,71.5286467 35.5825285,71.3515625 C35.5825285,71.1015613 35.4874773,70.9166673 35.2973722,70.796875 C35.1072671,70.6770827 34.8038847,70.6041668 34.387216,70.578125 L34.387216,70.2578125 C34.9497188,70.2890627 35.397631,70.3046875 35.730966,70.3046875 L35.730966,70.3046875 Z M43.0791194,74.65625 L43.0791194,73.734375 L48.8603694,73.734375 L48.8603694,74.65625 L43.0791194,74.65625 Z M57.4897729,77.4023438 C57.9481085,78.0716179 58.6538307,78.40625 59.6069604,78.40625 C59.9715456,78.40625 60.3113859,78.3307299 60.6264917,78.1796875 C60.9415974,78.0286451 61.1968032,77.7929704 61.3921167,77.4726563 C61.5874301,77.1523421 61.6850854,76.7526066 61.6850854,76.2734375 C61.6850854,75.8619771 61.584826,75.4934912 61.3843042,75.1679688 C61.1837823,74.8424463 60.9116496,74.5442722 60.5678979,74.2734375 C60.2241462,74.0026028 59.7658174,73.6953142 59.1928979,73.3515625 C58.5574781,72.9713523 58.0470665,72.6302098 57.6616479,72.328125 C57.2762293,72.0260402 56.9598262,71.6653667 56.7124292,71.2460938 C56.4650321,70.8268208 56.3413354,70.3333362 56.3413354,69.765625 C56.3413354,69.1614553 56.4780528,68.6510438 56.7514917,68.234375 C57.0249305,67.8177063 57.3895102,67.5065114 57.8452417,67.3007813 C58.3009731,67.0950511 58.8022702,66.9921875 59.3491479,66.9921875 C59.6772746,66.9921875 59.9598238,67.019531 60.1968042,67.0742188 C60.4337845,67.1289065 60.6303971,67.1966142 60.7866479,67.2773438 C60.9428987,67.3580733 61.114772,67.4609369 61.3022729,67.5859375 C61.5418574,67.7369799 61.7241473,67.8125 61.8491479,67.8125 C61.9481067,67.8125 62.0236268,67.756511 62.0757104,67.6445313 C62.127794,67.5325515 62.1694603,67.3541679 62.2007104,67.109375 L62.5678979,67.109375 C62.5158143,67.7343781 62.4897729,68.8229089 62.4897729,70.375 L62.1225854,70.375 C62.0809185,69.8281223 61.9624301,69.322919 61.7671167,68.859375 C61.5718032,68.395831 61.2853477,68.0195327 60.9077417,67.7304688 C60.5301356,67.4414048 60.0600882,67.296875 59.4975854,67.296875 C59.1225835,67.296875 58.7866494,67.3749992 58.4897729,67.53125 C58.1928964,67.6875008 57.9611279,67.9062486 57.7944604,68.1875 C57.6277929,68.4687514 57.5444604,68.7916648 57.5444604,69.15625 C57.5444604,69.7343779 57.7189378,70.2005191 58.0678979,70.5546875 C58.416858,70.9088559 58.824406,71.2278632 59.2905542,71.5117188 C59.7567023,71.7955743 60.0705013,71.9869787 60.2319604,72.0859375 C60.9038388,72.5078146 61.4350835,72.8736964 61.8257104,73.1835938 C62.2163374,73.4934911 62.5288342,73.8528625 62.7632104,74.2617188 C62.9975866,74.670575 63.1147729,75.1458306 63.1147729,75.6875 C63.1147729,76.3437533 62.9637328,76.8997373 62.6616479,77.3554688 C62.3595631,77.8112002 61.9520151,78.1536447 61.4389917,78.3828125 C60.9259683,78.6119803 60.3517553,78.7265625 59.7163354,78.7265625 C59.2059162,78.7265625 58.7866496,78.6731776 58.4585229,78.5664063 C58.1303963,78.4596349 57.8205035,78.3151051 57.5288354,78.1328125 C57.2892509,77.9817701 57.106961,77.90625 56.9819604,77.90625 C56.8830016,77.90625 56.8074815,77.962239 56.7553979,78.0742188 C56.7033143,78.1861985 56.6616481,78.3645821 56.6303979,78.609375 L56.2632104,78.609375 C56.3048773,78.0260388 56.3257104,76.7474057 56.3257104,74.7734375 L56.6928979,74.7734375 C56.7658149,75.8567763 57.0314373,76.7330696 57.4897729,77.4023438 L57.4897729,77.4023438 Z M71.3591622,77.6289063 C71.0857233,77.9544287 70.7445809,78.218749 70.3357247,78.421875 C69.9268684,78.625001 69.4698418,78.7265625 68.9646309,78.7265625 C68.2042104,78.7265625 67.5466649,78.5533871 66.9919747,78.2070313 C66.4372844,77.8606754 66.0141115,77.3737011 65.7224434,76.7460938 C65.4307753,76.1184864 65.2849434,75.3958374 65.2849434,74.578125 C65.2849434,73.651037 65.4333794,72.8463576 65.7302559,72.1640625 C66.0271324,71.4817674 66.4477011,70.9570331 66.9919747,70.5898438 C67.5362482,70.2226544 68.1729606,70.0390625 68.9021309,70.0390625 C69.860469,70.0390625 70.5987429,70.3294242 71.1169747,70.9101563 C71.6352064,71.4908883 71.8943184,72.3723899 71.8943184,73.5546875 L66.8943184,73.5546875 C66.8578599,73.8307305 66.8396309,74.171873 66.8396309,74.578125 C66.8396309,75.2812535 66.9555152,75.8958307 67.1872872,76.421875 C67.4190591,76.9479193 67.7224415,77.3515611 68.0974434,77.6328125 C68.4724453,77.9140639 68.8682747,78.0546875 69.2849434,78.0546875 C70.3578654,78.0546875 71.1417118,77.5208387 71.6365059,76.453125 L71.9568184,76.578125 C71.8318178,76.9531269 71.632601,77.3033838 71.3591622,77.6289063 L71.3591622,77.6289063 Z M70.2224434,71.7890625 C70.1130679,71.346352 69.9411946,70.994793 69.7068184,70.734375 C69.4724422,70.473957 69.1833826,70.34375 68.8396309,70.34375 C68.5115043,70.34375 68.2094239,70.4492177 67.9333809,70.6601563 C67.6573379,70.8710948 67.4242673,71.1940082 67.2341622,71.6289063 C67.044057,72.0638043 66.9229645,72.6041634 66.8708809,73.25 L70.3552559,73.25 C70.3760893,72.7187473 70.3318189,72.231773 70.2224434,71.7890625 L70.2224434,71.7890625 Z M77.3379264,70.4921875 C77.7858453,70.1901027 78.2962569,70.0390625 78.8691764,70.0390625 C79.4368876,70.0390625 79.9459971,70.1927068 80.3965201,70.5 C80.8470432,70.8072932 81.2012063,71.2604137 81.4590201,71.859375 C81.7168339,72.4583363 81.8457389,73.174475 81.8457389,74.0078125 C81.8457389,74.8255249 81.7155319,75.5924443 81.4551139,76.3085938 C81.1946959,77.0247432 80.7897521,77.6067686 80.2402701,78.0546875 C79.6907882,78.5026064 79.0045972,78.7265625 78.1816764,78.7265625 C77.7754244,78.7265625 77.4069385,78.6471362 77.0762076,78.4882813 C76.7454768,78.3294263 76.488969,78.119793 76.3066764,77.859375 L76.3066764,79.90625 C76.3066764,80.3385438 76.4342793,80.6393221 76.6894889,80.8085938 C76.9446985,80.9778654 77.3301113,81.0625 77.8457389,81.0625 L77.8457389,81.3984375 C77.7103215,81.3932291 77.4069392,81.3802084 76.9355826,81.359375 C76.4642261,81.3385416 75.999387,81.328125 75.5410514,81.328125 C75.202508,81.328125 74.8535532,81.3385416 74.4941764,81.359375 C74.1347996,81.3802084 73.9082394,81.3932291 73.8144889,81.3984375 L73.8144889,81.0625 C74.2051158,81.0625 74.4785506,80.9908861 74.6348014,80.8476563 C74.7910522,80.7044264 74.8691764,80.4453144 74.8691764,80.0703125 L74.8691764,72.0078125 C74.8691764,71.5130184 74.7793335,71.153647 74.5996451,70.9296875 C74.4199567,70.705728 74.1035537,70.59375 73.6504264,70.59375 L73.6504264,70.2578125 C73.9837614,70.2890627 74.3144872,70.3046875 74.6426139,70.3046875 C75.3197006,70.3046875 75.8743826,70.2317716 76.3066764,70.0859375 L76.3066764,71.7734375 C76.5462609,71.2213514 76.8900075,70.7942723 77.3379264,70.4921875 L77.3379264,70.4921875 Z M76.9707389,78.0820313 C77.2571987,78.266928 77.6009452,78.359375 78.0019889,78.359375 C79.5280382,78.359375 80.2910514,76.9817846 80.2910514,74.2265625 C80.2910514,71.7525918 79.6712659,70.515625 78.4316764,70.515625 C77.947299,70.515625 77.5137096,70.6888004 77.1308951,71.0351563 C76.7480807,71.3815121 76.4733439,71.8828092 76.3066764,72.5390625 L76.3066764,77.328125 C76.4629272,77.6458349 76.6842791,77.8971345 76.9707389,78.0820313 L76.9707389,78.0820313 Z M88.6643469,70.2734375 L88.6643469,70.59375 L86.2971594,70.59375 L86.2971594,76.7890625 C86.2971594,77.2734399 86.383096,77.6210927 86.5549719,77.8320313 C86.7268477,78.0429698 86.9820535,78.1484375 87.3205969,78.1484375 C87.6539319,78.1484375 87.9377832,78.0156263 88.1721594,77.75 C88.4065355,77.4843737 88.6044502,77.046878 88.7659094,76.4375 L89.0784094,76.515625 C88.8179914,77.9895907 88.12529,78.7265625 87.0002844,78.7265625 C86.6409076,78.7265625 86.3440355,78.6835942 86.1096594,78.5976563 C85.8752832,78.5117183 85.666952,78.3776051 85.4846594,78.1953125 C85.2554916,77.9609363 85.0940348,77.6731788 85.0002844,77.3320313 C84.9065339,76.9908837 84.8596594,76.5312529 84.8596594,75.953125 L84.8596594,70.59375 L83.3205969,70.59375 L83.3205969,70.2734375 L84.8596594,70.2734375 L84.8596594,67.828125 C85.4586207,67.8124999 85.9377826,67.7369798 86.2971594,67.6015625 L86.2971594,70.2734375 L88.6643469,70.2734375 Z M96.3774861,77.6289063 C96.1040472,77.9544287 95.7629048,78.218749 95.3540486,78.421875 C94.9451924,78.625001 94.4881657,78.7265625 93.9829549,78.7265625 C93.2225344,78.7265625 92.5649889,78.5533871 92.0102986,78.2070313 C91.4556083,77.8606754 91.0324355,77.3737011 90.7407674,76.7460938 C90.4490992,76.1184864 90.3032674,75.3958374 90.3032674,74.578125 C90.3032674,73.651037 90.4517034,72.8463576 90.7485799,72.1640625 C91.0454563,71.4817674 91.4660251,70.9570331 92.0102986,70.5898438 C92.5545722,70.2226544 93.1912845,70.0390625 93.9204549,70.0390625 C94.878793,70.0390625 95.6170669,70.3294242 96.1352986,70.9101563 C96.6535304,71.4908883 96.9126424,72.3723899 96.9126424,73.5546875 L91.9126424,73.5546875 C91.8761838,73.8307305 91.8579549,74.171873 91.8579549,74.578125 C91.8579549,75.2812535 91.9738391,75.8958307 92.2056111,76.421875 C92.4373831,76.9479193 92.7407655,77.3515611 93.1157674,77.6328125 C93.4907692,77.9140639 93.8865986,78.0546875 94.3032674,78.0546875 C95.3761894,78.0546875 96.1600357,77.5208387 96.6548299,76.453125 L96.9751424,76.578125 C96.8501417,76.9531269 96.650925,77.3033838 96.3774861,77.6289063 L96.3774861,77.6289063 Z M95.2407674,71.7890625 C95.1313918,71.346352 94.9595185,70.994793 94.7251424,70.734375 C94.4907662,70.473957 94.2017066,70.34375 93.8579549,70.34375 C93.5298282,70.34375 93.2277479,70.4492177 92.9517049,70.6601563 C92.6756618,70.8710948 92.4425912,71.1940082 92.2524861,71.6289063 C92.062381,72.0638043 91.9412885,72.6041634 91.8892049,73.25 L95.3735799,73.25 C95.3944133,72.7187473 95.3501429,72.231773 95.2407674,71.7890625 L95.2407674,71.7890625 Z M111.188282,77.7109375 C111.269011,77.877605 111.396614,77.9947913 111.571094,78.0625 C111.745574,78.1302087 111.983853,78.1640625 112.285938,78.1640625 L112.285938,78.5 C111.306766,78.4583331 110.666148,78.4375 110.364063,78.4375 C110.067186,78.4375 109.470838,78.4583331 108.575,78.5 L108.575,78.1640625 C108.840627,78.1640625 109.047656,78.1302087 109.196094,78.0625 C109.344532,77.9947913 109.453906,77.877605 109.524219,77.7109375 C109.594532,77.54427 109.629688,77.3125015 109.629688,77.015625 L109.629688,72.390625 C109.629688,71.984373 109.606251,71.6549492 109.559375,71.4023438 C109.5125,71.1497383 109.400522,70.9440112 109.223438,70.7851563 C109.046354,70.6263013 108.775523,70.546875 108.410938,70.546875 C108.004686,70.546875 107.637502,70.6744779 107.309375,70.9296875 C106.981249,71.1848971 106.723439,71.533852 106.535938,71.9765625 C106.348437,72.419273 106.254688,72.9088515 106.254688,73.4453125 L106.254688,77.015625 C106.254688,77.3125015 106.295052,77.54427 106.375782,77.7109375 C106.456511,77.877605 106.582812,77.9947913 106.754688,78.0625 C106.926564,78.1302087 107.163541,78.1640625 107.465625,78.1640625 L107.465625,78.5 C106.486454,78.4583331 105.848439,78.4375 105.551563,78.4375 C105.249478,78.4375 104.650526,78.4583331 103.754688,78.5 L103.754688,78.1640625 C104.020314,78.1640625 104.228645,78.1302087 104.379688,78.0625 C104.53073,77.9947913 104.640104,77.877605 104.707813,77.7109375 C104.775522,77.54427 104.809375,77.3125015 104.809375,77.015625 L104.809375,72.390625 C104.809375,71.984373 104.785938,71.6549492 104.739063,71.4023438 C104.692188,71.1497383 104.58021,70.9440112 104.403125,70.7851563 C104.226041,70.6263013 103.957815,70.546875 103.598438,70.546875 C103.186977,70.546875 102.817189,70.67578 102.489063,70.9335938 C102.160936,71.1914075 101.903126,71.5429665 101.715625,71.9882813 C101.528124,72.433596 101.434375,72.9244765 101.434375,73.4609375 L101.434375,77.015625 C101.434375,77.3125015 101.469531,77.54427 101.539844,77.7109375 C101.610157,77.877605 101.720833,77.9947913 101.871875,78.0625 C102.022918,78.1302087 102.231249,78.1640625 102.496875,78.1640625 L102.496875,78.5 C101.601038,78.4583331 101.002085,78.4375 100.7,78.4375 C100.397916,78.4375 99.7572969,78.4583331 98.7781253,78.5 L98.7781253,78.1640625 C99.0802102,78.1640625 99.3184891,78.1302087 99.4929691,78.0625 C99.6674491,77.9947913 99.795052,77.877605 99.8757816,77.7109375 C99.9565112,77.54427 99.9968753,77.3125015 99.9968753,77.015625 L99.9968753,72.0078125 C99.9968753,71.5130184 99.9070325,71.153647 99.7273441,70.9296875 C99.5476557,70.705728 99.2312526,70.59375 98.7781253,70.59375 L98.7781253,70.2578125 C99.1114603,70.2890627 99.4421862,70.3046875 99.7703128,70.3046875 C100.4474,70.3046875 101.002082,70.2317716 101.434375,70.0859375 L101.434375,71.96875 C101.694793,71.3124967 102.059373,70.8268245 102.528125,70.5117188 C102.996878,70.196613 103.507289,70.0390625 104.059375,70.0390625 C104.783337,70.0390625 105.338019,70.2395813 105.723438,70.640625 C105.989064,70.9322931 106.153125,71.3619763 106.215625,71.9296875 C106.481252,71.2578091 106.848436,70.7747411 107.317188,70.4804688 C107.78594,70.1861964 108.306768,70.0390625 108.879688,70.0390625 C109.60365,70.0390625 110.158332,70.2395813 110.54375,70.640625 C110.73646,70.8541677 110.871875,71.1263004 110.95,71.4570313 C111.028126,71.7877621 111.067188,72.2161432 111.067188,72.7421875 L111.067188,77.015625 C111.067188,77.3125015 111.107552,77.54427 111.188282,77.7109375 L111.188282,77.7109375 Z M116.924858,70.4882813 C117.362361,70.1888006 117.857147,70.0390625 118.409233,70.0390625 C119.002986,70.0390625 119.527721,70.2018213 119.983452,70.5273438 C120.439184,70.8528662 120.797253,71.3424446 121.057671,71.9960938 C121.318089,72.6497429 121.448296,73.447912 121.448296,74.390625 C121.448296,75.3125046 121.288141,76.1002571 120.967827,76.7539063 C120.647513,77.4075554 120.216528,77.8997379 119.674858,78.2304688 C119.133189,78.5611996 118.534237,78.7265625 117.877983,78.7265625 C117.487356,78.7265625 117.107152,78.6471362 116.737358,78.4882813 C116.367565,78.3294263 116.044651,78.0963557 115.768608,77.7890625 L114.627983,78.7578125 L114.362358,78.640625 C114.435275,78.380207 114.471733,78.0729184 114.471733,77.71875 L114.471733,67.890625 C114.471733,67.3958309 114.38189,67.0377615 114.202202,66.8164063 C114.022514,66.595051 113.706111,66.484375 113.252983,66.484375 L113.252983,66.1484375 C113.591527,66.1796877 113.922253,66.1953125 114.245171,66.1953125 C114.932674,66.1953125 115.487356,66.1197924 115.909233,65.96875 L115.909233,71.75 C116.148818,71.2083306 116.487356,70.7877619 116.924858,70.4882813 L116.924858,70.4882813 Z M116.764702,78.15625 C117.085016,78.2916673 117.41444,78.359375 117.752983,78.359375 C118.471737,78.359375 119.00819,78.0351595 119.362358,77.3867188 C119.716527,76.738278 119.893608,75.7395901 119.893608,74.390625 C119.893608,73.0885352 119.733454,72.1171907 119.41314,71.4765625 C119.092825,70.8359343 118.601945,70.515625 117.940483,70.515625 C117.654024,70.515625 117.375381,70.5924471 117.104546,70.7460938 C116.833711,70.8997404 116.592828,71.1263006 116.38189,71.4257813 C116.170951,71.7252619 116.013401,72.0859354 115.909233,72.5078125 L115.909233,77.5625 C116.159235,77.822918 116.444388,78.0208327 116.764702,78.15625 L116.764702,78.15625 Z M129.653623,77.6289063 C129.380184,77.9544287 129.039041,78.218749 128.630185,78.421875 C128.221329,78.625001 127.764302,78.7265625 127.259091,78.7265625 C126.498671,78.7265625 125.841125,78.5533871 125.286435,78.2070313 C124.731745,77.8606754 124.308572,77.3737011 124.016904,76.7460938 C123.725236,76.1184864 123.579404,75.3958374 123.579404,74.578125 C123.579404,73.651037 123.72784,72.8463576 124.024716,72.1640625 C124.321593,71.4817674 124.742162,70.9570331 125.286435,70.5898438 C125.830709,70.2226544 126.467421,70.0390625 127.196591,70.0390625 C128.154929,70.0390625 128.893203,70.3294242 129.411435,70.9101563 C129.929667,71.4908883 130.188779,72.3723899 130.188779,73.5546875 L125.188779,73.5546875 C125.15232,73.8307305 125.134091,74.171873 125.134091,74.578125 C125.134091,75.2812535 125.249976,75.8958307 125.481748,76.421875 C125.71352,76.9479193 126.016902,77.3515611 126.391904,77.6328125 C126.766906,77.9140639 127.162735,78.0546875 127.579404,78.0546875 C128.652326,78.0546875 129.436172,77.5208387 129.930966,76.453125 L130.251279,76.578125 C130.126278,76.9531269 129.927061,77.3033838 129.653623,77.6289063 L129.653623,77.6289063 Z M128.516904,71.7890625 C128.407528,71.346352 128.235655,70.994793 128.001279,70.734375 C127.766903,70.473957 127.477843,70.34375 127.134091,70.34375 C126.805965,70.34375 126.503884,70.4492177 126.227841,70.6601563 C125.951798,70.8710948 125.718728,71.1940082 125.528623,71.6289063 C125.338517,72.0638043 125.217425,72.6041634 125.165341,73.25 L128.649716,73.25 C128.67055,72.7187473 128.626279,72.231773 128.516904,71.7890625 L128.516904,71.7890625 Z M135.230043,71.1171875 C135.456607,70.8046859 135.726135,70.546876 136.038637,70.34375 C136.351138,70.140624 136.681864,70.0390625 137.030824,70.0390625 C137.312076,70.0390625 137.563375,70.0950515 137.784731,70.2070313 C138.006086,70.319011 138.179261,70.4713532 138.304262,70.6640625 C138.429262,70.8567718 138.491762,71.0677072 138.491762,71.296875 C138.491762,71.5781264 138.408429,71.8164053 138.241762,72.0117188 C138.075094,72.2070322 137.853742,72.3046875 137.577699,72.3046875 C137.343323,72.3046875 137.142804,72.2304695 136.976137,72.0820313 C136.809469,71.933593 136.726137,71.7317721 136.726137,71.4765625 C136.726137,71.1276024 136.908427,70.8385428 137.273012,70.609375 C137.200095,70.5052078 137.088117,70.453125 136.937074,70.453125 C136.515197,70.453125 136.134993,70.6145817 135.796449,70.9375 C135.457906,71.2604183 135.192284,71.6588518 134.999574,72.1328125 C134.806865,72.6067732 134.710512,73.0494771 134.710512,73.4609375 L134.710512,76.8515625 C134.710512,77.3463566 134.851135,77.6888011 135.132387,77.8789063 C135.413638,78.0690114 135.838113,78.1640625 136.405824,78.1640625 L136.405824,78.5 C135.093318,78.4583331 134.273013,78.4375 133.944887,78.4375 C133.663635,78.4375 133.033433,78.4583331 132.054262,78.5 L132.054262,78.1640625 C132.356347,78.1640625 132.594626,78.1302087 132.769106,78.0625 C132.943586,77.9947913 133.071188,77.877605 133.151918,77.7109375 C133.232648,77.54427 133.273012,77.3125015 133.273012,77.015625 L133.273012,72.0078125 C133.273012,71.5130184 133.183169,71.153647 133.003481,70.9296875 C132.823792,70.705728 132.507389,70.59375 132.054262,70.59375 L132.054262,70.2578125 C132.387597,70.2890627 132.718323,70.3046875 133.046449,70.3046875 C133.723536,70.3046875 134.278218,70.2317716 134.710512,70.0859375 L134.710512,72.0859375 C134.830304,71.7526025 135.003479,71.4296891 135.230043,71.1171875 L135.230043,71.1171875 Z M145.613353,70.6015625 C146.12898,70.2265606 146.78262,70.0390625 147.57429,70.0390625 C148.319086,70.0390625 148.905017,70.214842 149.332103,70.5664063 C149.759188,70.9179705 149.972728,71.4140593 149.972728,72.0546875 C149.972728,72.684899 149.764397,73.2656223 149.347728,73.796875 C148.931059,74.3281277 148.326898,74.9518193 147.535228,75.6679688 C146.743557,76.3841182 146.217521,76.9166649 145.957103,77.265625 L149.207103,77.265625 C149.498771,77.265625 149.714915,77.2408857 149.85554,77.1914063 C149.996166,77.1419268 150.095123,77.0625005 150.152415,76.953125 C150.209707,76.8437495 150.251373,76.6770845 150.277415,76.453125 L150.550853,76.453125 C150.550853,77.4322966 150.571686,78.1406228 150.613353,78.578125 C150.373768,78.5260414 149.579505,78.5 148.23054,78.5 L144.48054,78.5 L144.48054,78.2265625 C144.657624,78.0338532 145.134182,77.5742224 145.910228,76.8476563 C146.686273,76.1210901 147.298246,75.3984411 147.746165,74.6796875 C148.194084,73.9609339 148.41804,73.203129 148.41804,72.40625 C148.41804,71.2552026 147.884191,70.6796875 146.816478,70.6796875 C145.946682,70.6796875 145.233147,71.1796825 144.675853,72.1796875 L144.41804,72.0390625 C144.699292,71.4557263 145.097725,70.9765644 145.613353,70.6015625 L145.613353,70.6015625 Z M158.865555,70.5625 C159.451495,70.9114601 159.909824,71.4036427 160.240555,72.0390625 C160.571285,72.6744823 160.736648,73.40885 160.736648,74.2421875 C160.736648,75.0911501 160.566077,75.8567674 160.22493,76.5390625 C159.883782,77.2213576 159.407224,77.7565085 158.795242,78.1445313 C158.18326,78.532554 157.481444,78.7265625 156.689773,78.7265625 C155.950186,78.7265625 155.28613,78.5520851 154.697586,78.203125 C154.109041,77.8541649 153.648108,77.3606803 153.314773,76.7226563 C152.981438,76.0846322 152.814773,75.3437542 152.814773,74.5 C152.814773,73.6562458 152.98274,72.8958367 153.31868,72.21875 C153.654619,71.5416633 154.129874,71.0091165 154.744461,70.6210938 C155.359047,70.233071 156.067373,70.0390625 156.869461,70.0390625 C157.614256,70.0390625 158.279614,70.2135399 158.865555,70.5625 L158.865555,70.5625 Z M155.498367,70.8125 C155.141594,71.1406266 154.864253,71.6158823 154.666336,72.2382813 C154.468418,72.8606802 154.369461,73.5989541 154.369461,74.453125 C154.369461,75.3697963 154.478835,76.1262991 154.697586,76.7226563 C154.916337,77.3190134 155.211907,77.7539049 155.584305,78.0273438 C155.956702,78.3007826 156.374667,78.4375 156.838211,78.4375 C157.296546,78.4375 157.704094,78.2721371 158.060867,77.9414063 C158.41764,77.6106754 158.694981,77.1328156 158.892898,76.5078125 C159.090816,75.8828094 159.189773,75.1432334 159.189773,74.2890625 C159.189773,73.3775996 159.080399,72.625003 158.861648,72.03125 C158.642897,71.437497 158.347327,71.0039076 157.97493,70.7304688 C157.602532,70.4570299 157.184567,70.3203125 156.721023,70.3203125 C156.262688,70.3203125 155.85514,70.4843734 155.498367,70.8125 L155.498367,70.8125 Z M166.441975,77.6484375 C166.543538,77.8359384 166.704995,77.9687496 166.92635,78.046875 C167.147705,78.1250004 167.448484,78.1640625 167.828694,78.1640625 L167.828694,78.5 C166.662021,78.4583331 165.925049,78.4375 165.617756,78.4375 C165.28963,78.4375 164.469325,78.4583331 163.156819,78.5 L163.156819,78.1640625 C163.72453,78.1640625 164.149005,78.0690114 164.430256,77.8789063 C164.711508,77.6888011 164.852131,77.3463566 164.852131,76.8515625 L164.852131,72.9765625 C164.852131,72.4609349 164.798746,72.0833345 164.691975,71.84375 C164.585204,71.6041655 164.405518,71.4453129 164.152912,71.3671875 C163.900307,71.2890621 163.513592,71.25 162.992756,71.25 L162.992756,70.8984375 C163.77401,70.8828124 164.418535,70.8138027 164.92635,70.6914063 C165.434165,70.5690098 165.888588,70.3671889 166.289631,70.0859375 L166.289631,76.8515625 C166.289631,77.1953142 166.340412,77.4609366 166.441975,77.6484375 L166.441975,77.6484375 Z M174.030114,71.796875 C173.800946,71.7447914 173.06137,71.71875 171.811364,71.71875 L170.108239,71.71875 L169.920739,74.8046875 C170.212407,74.6536451 170.498863,74.5351567 170.780114,74.4492188 C171.061366,74.3632808 171.399904,74.3203125 171.795739,74.3203125 C172.420742,74.3203125 172.944175,74.4257802 173.366052,74.6367188 C173.787929,74.8476573 174.10303,75.1393211 174.311364,75.5117188 C174.519699,75.8841164 174.623864,76.3098934 174.623864,76.7890625 C174.623864,77.5807331 174.364752,78.2864552 173.84652,78.90625 C173.328289,79.5260448 172.660327,80.0078108 171.842614,80.3515625 C171.024902,80.6953142 170.191577,80.8671875 169.342614,80.8671875 L169.342614,80.578125 C169.993659,80.5729166 170.605632,80.432293 171.178552,80.15625 C171.751471,79.880207 172.215008,79.4687527 172.569177,78.921875 C172.923345,78.3749973 173.100427,77.7161497 173.100427,76.9453125 C173.100427,76.2682258 172.925949,75.7421894 172.576989,75.3671875 C172.228029,74.9921856 171.730638,74.8046875 171.084802,74.8046875 C170.824384,74.8046875 170.603032,74.8255206 170.420739,74.8671875 C170.238447,74.9088544 170.022303,74.9791662 169.772302,75.078125 L169.616052,74.9765625 L169.920739,70.2109375 C170.134282,70.2526044 170.420737,70.2734375 170.780114,70.2734375 L172.592614,70.2734375 C172.884282,70.2734375 173.100426,70.2486982 173.241052,70.1992188 C173.381677,70.1497393 173.479333,70.070313 173.53402,69.9609375 C173.588708,69.851562 173.631677,69.684897 173.662927,69.4609375 L173.967614,69.4609375 C173.967614,70.5442763 173.988447,71.3229143 174.030114,71.796875 L174.030114,71.796875 Z" id="May---September-2015" fill="#000000" sketch:type="MSShapeGroup"></path>
                </g>
            </g>
        </g>
    </g>
</svg>