<?xml version="1.0" encoding="UTF-8" standalone="no"?>
<svg width="907px" height="489px" viewBox="0 0 907 489" version="1.1" xmlns="http://www.w3.org/2000/svg" xmlns:xlink="http://www.w3.org/1999/xlink" xmlns:sketch="http://www.bohemiancoding.com/sketch/ns">
    <!-- Generator: Sketch 3.5.2 (25235) - http://www.bohemiancoding.com/sketch -->
    <title>work-item-images</title>
    <desc>Created with Sketch.</desc>
    <defs>
        <path id="path-1" d="M29.4797869,230.416999 C134.332405,139.72105 33.0042444,96.2753725 54.1509914,40.8011481 C99.9689423,-49.0142607 347.660203,38.4016926 484.200602,51.3676675 C590.984559,61.5079493 671.184546,-2.34547565 745.428171,65.4563564 C819.671796,144.705247 746.842987,210.584782 738.095468,279.428371 C730.797356,336.865017 754.594051,400.062794 683.10019,421.195832 C611.606329,442.328869 585.941857,352.513458 409.956996,371.004866 C233.972135,389.496273 146.710254,454.742842 85.9133546,420.401645 C15.3360744,379.016113 -34.4314681,302.498652 29.4797869,230.416999 Z"></path>
    </defs>
    <g id="Welcome" stroke="none" stroke-width="1" fill="none" fill-rule="evenodd" sketch:type="MSPage">
        <g id="work-item-images" sketch:type="MSArtboardGroup">
            <g id="flow" sketch:type="MSLayerGroup" transform="translate(28.840000, -1.870000)">
                <g id="waves" transform="translate(35.000000, 31.000000)">
                    <g id="wave-shape-outer">
                        <use stroke="none" sketch:type="MSShapeGroup" transform="translate(389.234655, 215.484082) scale(-1, -1) rotate(-180.000000) translate(-389.234655, -215.484082) " xlink:href="#path-1"></use>
                        <use stroke="none" xlink:href="#path-1"></use>
                        <use stroke="#4A4A4A" stroke-width="0.520047" xlink:href="#path-1"></use>
                    </g>
                </g>
            </g>
        </g>
    </g>
</svg>