<?xml version="1.0" encoding="UTF-8" standalone="no"?>
<svg width="907px" height="489px" viewBox="0 0 907 489" version="1.1" xmlns="http://www.w3.org/2000/svg" xmlns:xlink="http://www.w3.org/1999/xlink" xmlns:sketch="http://www.bohemiancoding.com/sketch/ns">
    <!-- Generator: Sketch 3.5.2 (25235) - http://www.bohemiancoding.com/sketch -->
    <title>work-item-images</title>
    <desc>Created with Sketch.</desc>
    <defs>
        <path id="path-1" d="M52.2726417,229.470899 C150.482151,144.52114 55.5738014,103.828034 75.3807619,51.8684695 C118.295842,-32.256538 350.29422,49.6210354 478.18388,61.7655299 C578.202366,71.2633576 653.321152,11.4554702 722.860952,74.961607 C792.400751,149.189555 724.18613,210.895185 715.992823,275.377077 C709.157095,329.17473 731.446112,388.368509 664.481861,408.162629 C597.51761,427.956749 573.479152,343.831739 408.644098,361.151593 C243.809044,378.471448 162.075782,439.584215 105.130769,407.418759 C39.0250271,368.655275 -7.58941188,296.985703 52.2726417,229.470899 Z"></path>
    </defs>
    <g id="Welcome" stroke="none" stroke-width="1" fill="none" fill-rule="evenodd" sketch:type="MSPage">
        <g id="work-item-images" sketch:type="MSArtboardGroup">
            <g id="flow" sketch:type="MSLayerGroup" transform="translate(28.840000, -1.870000)">
                <g id="waves" transform="translate(35.000000, 31.000000)">
                    <g id="wave-shape-middle">
                        <use stroke="none" sketch:type="MSShapeGroup" transform="translate(389.234655, 215.484082) scale(-1, -1) rotate(-180.000000) translate(-389.234655, -215.484082) " xlink:href="#path-1"></use>
                        <use stroke="none" xlink:href="#path-1"></use>
                        <use stroke="#4A4A4A" stroke-width="0.520047" xlink:href="#path-1"></use>
                    </g>
                </g>
            </g>
        </g>
    </g>
</svg>