<?xml version="1.0" encoding="UTF-8" standalone="no"?>
<svg width="907px" height="489px" viewBox="0 0 907 489" version="1.1" xmlns="http://www.w3.org/2000/svg" xmlns:xlink="http://www.w3.org/1999/xlink" xmlns:sketch="http://www.bohemiancoding.com/sketch/ns">
    <!-- Generator: Sketch 3.5.2 (25235) - http://www.bohemiancoding.com/sketch -->
    <title>work-item-images</title>
    <desc>Created with Sketch.</desc>
    <defs>
        <path id="path-1" d="M66.4733684,228.881447 C160.543995,147.51176 69.635406,108.5336 88.6076337,58.7637886 C129.714126,-21.8159046 351.935302,56.611069 474.435256,68.2437531 C570.238623,77.3413101 642.191648,20.0539308 708.800803,80.8837026 C775.409959,151.983433 710.070134,211.088577 702.222121,272.852982 C695.674474,324.383419 717.024156,381.082571 652.882006,400.042499 C588.739857,419.002427 565.714461,338.422731 407.826118,355.012668 C249.937775,371.602605 171.649031,430.139872 117.103874,399.329978 C53.7840534,362.200119 9.13410567,293.550947 66.4733684,228.881447 Z"></path>
    </defs>
    <g id="Welcome" stroke="none" stroke-width="1" fill="none" fill-rule="evenodd" sketch:type="MSPage">
        <g id="work-item-images" sketch:type="MSArtboardGroup">
            <g id="flow" sketch:type="MSLayerGroup" transform="translate(28.840000, -1.870000)">
                <g id="waves" transform="translate(35.000000, 31.000000)">
                    <g id="wave-shape-inner">
                        <use stroke="none" sketch:type="MSShapeGroup" transform="translate(389.234655, 215.484082) scale(-1, -1) rotate(-180.000000) translate(-389.234655, -215.484082) " xlink:href="#path-1"></use>
                        <use stroke="none" xlink:href="#path-1"></use>
                        <use stroke="#4A4A4A" stroke-width="0.520047" xlink:href="#path-1"></use>
                    </g>
                </g>
            </g>
        </g>
    </g>
</svg>