<?xml version="1.0" encoding="UTF-8" standalone="no"?>
<svg width="907px" height="489px" viewBox="0 0 907 489" version="1.1" xmlns="http://www.w3.org/2000/svg" xmlns:xlink="http://www.w3.org/1999/xlink" xmlns:sketch="http://www.bohemiancoding.com/sketch/ns">
    <!-- Generator: Sketch 3.5.2 (25235) - http://www.bohemiancoding.com/sketch -->
    <title>work-item-images</title>
    <desc>Created with Sketch.</desc>
    <defs>
        <linearGradient x1="50%" y1="0%" x2="50%" y2="100%" id="linearGradient-1">
            <stop stop-color="#F0DDFF" offset="0%"></stop>
            <stop stop-color="#FFE0C4" offset="100%"></stop>
        </linearGradient>
        <path id="path-2" d="M59.5279294,229.169743 C155.622844,146.049076 62.7580103,106.232153 82.1384978,55.3913543 C124.129553,-26.9223181 351.132664,53.1923107 476.268672,65.0753164 C574.133613,74.3686419 647.634982,15.8485063 715.677487,77.9872625 C783.719992,150.616974 716.974132,210.993991 708.957239,274.087493 C702.268695,326.726803 724.077796,384.646053 658.555384,404.013977 C593.032971,423.3819 569.512097,341.068225 408.226184,358.015158 C246.940271,374.96209 166.966847,434.759009 111.247943,403.286123 C46.5655554,365.357274 0.954793888,295.230853 59.5279294,229.169743 Z"></path>
    </defs>
    <g id="Welcome" stroke="none" stroke-width="1" fill="none" fill-rule="evenodd" sketch:type="MSPage">
        <g id="work-item-images" sketch:type="MSArtboardGroup">
            <g id="flow" sketch:type="MSLayerGroup" transform="translate(28.840000, -1.870000)">
                <g id="waves" transform="translate(35.000000, 31.000000)">
                    <g id="Rectangle-79-Copy-4">
                        <use stroke="none" sketch:type="MSShapeGroup" transform="translate(389.234655, 215.484082) rotate(-180.000000) translate(-389.234655, -215.484082) " xlink:href="#path-2"></use>
                        <use stroke="url(#linearGradient-1)" stroke-width="11.449906" xlink:href="#path-2"></use>
                        <use stroke="#4A4A4A" stroke-width="0.520047" xlink:href="#path-2"></use>
                    </g>
                </g>
            </g>
        </g>
    </g>
</svg>