<?xml version="1.0" encoding="UTF-8" standalone="no"?>
<svg width="1020px" height="550px" viewBox="0 0 1020 550" version="1.1" xmlns="http://www.w3.org/2000/svg" xmlns:xlink="http://www.w3.org/1999/xlink" xmlns:sketch="http://www.bohemiancoding.com/sketch/ns">
    <!-- Generator: Sketch 3.4.4 (17249) - http://www.bohemiancoding.com/sketch -->
    <title>Artboard 7</title>
    <desc>Created with Sketch.</desc>
    <defs></defs>
    <g id="Welcome" stroke="none" stroke-width="1" fill="none" fill-rule="evenodd" sketch:type="MSPage">
        <g id="Artboard-7" sketch:type="MSArtboardGroup">
            <g id="logo" sketch:type="MSLayerGroup" transform="translate(0.000000, 2.000000)">
                <g id="textverison-copy" transform="translate(0.000000, 109.000000)" sketch:type="MSShapeGroup">
                    <rect id="Rectangle-81" stroke="#000000" fill="#FFFFFF" x="0.530604539" y="0" width="300" height="110"></rect>
                    <path d="M29.888,76.952 L28.896,77.784 L28.592,81 L27.456,81 L28.48,70.104 L29.616,70.104 L29.024,76.424 L32.64,73.352 L34.224,73.352 L30.784,76.216 L33.664,81 L32.256,81 L29.888,76.952 Z M39.124,80.152 C40.0626713,80.152 40.6493321,79.6880046 40.884,78.76 L42.052,78.76 C41.8706657,79.5280038 41.5080027,80.1226646 40.964,80.544 C40.4199973,80.9653354 39.7746704,81.176 39.028,81.176 C38.1106621,81.176 37.4013358,80.8186702 36.9,80.104 C36.366664,79.3573296 36.1639993,78.3866726 36.292,77.192 C36.4200006,75.9546605 36.8093301,74.973337 37.46,74.248 C38.1000032,73.522663 38.8733288,73.16 39.78,73.16 C40.7933384,73.16 41.5079979,73.5919957 41.924,74.456 C42.3080019,75.2346706 42.3720013,76.2319939 42.116,77.448 L37.396,77.448 C37.2893328,78.6960062 37.5879965,79.5279979 38.292,79.944 C38.5160011,80.0826674 38.7933317,80.152 39.124,80.152 L39.124,80.152 Z M40.5,74.36 C40.2866656,74.2319994 40.0253349,74.168 39.716,74.168 C39.4066651,74.168 39.1293345,74.2293327 38.884,74.352 C38.6386654,74.4746673 38.4200009,74.6426656 38.228,74.856 C37.8546648,75.2826688 37.6146672,75.8266634 37.508,76.488 L41.188,76.488 C41.3053339,75.421328 41.0760029,74.7120018 40.5,74.36 L40.5,74.36 Z M45.816,70.104 L46.952,70.104 L45.928,81 L44.792,81 L45.816,70.104 Z M50.8439999,73.72 C51.3666692,73.3466648 52.0386625,73.16 52.8599999,73.16 C53.6813374,73.16 54.3053311,73.3519981 54.7319999,73.736 C55.1586687,74.1200019 55.3560001,74.6053304 55.3239999,75.192 L54.2199999,75.192 C54.1879998,74.4986632 53.6866714,74.152 52.7159999,74.152 C52.2466642,74.152 51.8760013,74.2693322 51.6039999,74.504 C51.3319986,74.7386678 51.1826667,74.9919986 51.1559999,75.264 C51.1293331,75.5360014 51.203999,75.7653324 51.3799999,75.952 C51.5560008,76.1386676 51.8466646,76.3013326 52.2519999,76.44 L53.5799999,76.952 C54.1560028,77.1546677 54.5853318,77.4133318 54.8679999,77.728 C55.150668,78.0426682 55.2653335,78.4506642 55.2119999,78.952 C55.1479996,79.560003 54.8493359,80.0719979 54.3159999,80.488 C53.739997,80.946669 53.0013378,81.176 52.0999999,81.176 C51.1986621,81.176 50.5133356,80.9493356 50.0439999,80.496 C49.5746642,80.0426644 49.361333,79.4586702 49.4039999,78.744 L50.4919999,78.744 C50.4706665,79.2240024 50.614665,79.5839988 50.9239999,79.824 C51.2333348,80.0640012 51.6413307,80.184 52.1479999,80.184 C52.6546691,80.184 53.0759982,80.0666678 53.4119999,79.832 C53.7480016,79.5973322 53.9319998,79.317335 53.9639999,78.992 C53.9960001,78.666665 53.9240008,78.4186675 53.7479999,78.248 C53.571999,78.0773325 53.276002,77.9280006 52.8599999,77.8 L51.5639999,77.304 C50.4013274,76.9199981 49.8679994,76.2266717 49.9639999,75.224 C50.0280002,74.5946635 50.3213306,74.0933352 50.8439999,73.72 L50.8439999,73.72 Z M60.8319999,80.152 C61.7706713,80.152 62.3573321,79.6880046 62.5919999,78.76 L63.7599999,78.76 C63.5786657,79.5280038 63.2160026,80.1226646 62.6719999,80.544 C62.1279972,80.9653354 61.4826703,81.176 60.7359999,81.176 C59.818662,81.176 59.1093357,80.8186702 58.6079999,80.104 C58.0746639,79.3573296 57.8719993,78.3866726 57.9999999,77.192 C58.1280005,75.9546605 58.51733,74.973337 59.1679999,74.248 C59.8080031,73.522663 60.5813287,73.16 61.4879999,73.16 C62.5013383,73.16 63.2159978,73.5919957 63.6319999,74.456 C64.0160018,75.2346706 64.0800012,76.2319939 63.8239999,77.448 L59.1039999,77.448 C58.9973327,78.6960062 59.2959964,79.5279979 59.9999999,79.944 C60.224001,80.0826674 60.5013316,80.152 60.8319999,80.152 L60.8319999,80.152 Z M62.2079999,74.36 C61.9946655,74.2319994 61.7333348,74.168 61.4239999,74.168 C61.114665,74.168 60.8373345,74.2293327 60.5919999,74.352 C60.3466653,74.4746673 60.1280009,74.6426656 59.9359999,74.856 C59.5626647,75.2826688 59.3226671,75.8266634 59.2159999,76.488 L62.8959999,76.488 C63.0133338,75.421328 62.7840028,74.7120018 62.2079999,74.36 L62.2079999,74.36 Z M64.9159999,83.224 C65.3426687,83.6293354 65.8119973,83.832 66.3239999,83.832 C67.0173367,83.832 67.5933309,83.1493402 68.0519999,81.784 L68.3399999,81 L66.2439999,73.352 L67.5079999,73.352 L69.0119999,79.432 L71.2199999,73.352 L72.3719999,73.352 L68.9319999,82.52 C68.6333317,83.2986706 68.2840019,83.8959979 67.8839999,84.312 C67.4839979,84.7280021 67.0066693,84.936 66.4519999,84.936 C65.8973304,84.936 65.3480026,84.7493352 64.8039999,84.376 L64.9159999,83.224 Z M73.6319999,80.88 C73.4879991,80.7039991 73.4266664,80.4906679 73.4479999,80.24 C73.4693333,79.9893321 73.5653323,79.7760009 73.7359999,79.6 C73.9066674,79.4239991 74.1173319,79.336 74.3679999,79.336 C74.6186678,79.336 74.8159991,79.4239991 74.9599999,79.6 C75.1040006,79.7760009 75.1653333,79.9893321 75.1439999,80.24 C75.1226664,80.4906679 75.0240007,80.7039991 74.8479999,80.88 C74.671999,81.0560009 74.4613344,81.144 74.2159999,81.144 C73.9706653,81.144 73.7760006,81.0560009 73.6319999,80.88 L73.6319999,80.88 Z M78.8759998,70.104 L80.0119998,70.104 L78.9879998,81 L77.8519998,81 L78.8759998,70.104 Z M85.4239998,80.152 C86.3626712,80.152 86.949332,79.6880046 87.1839998,78.76 L88.3519998,78.76 C88.1706656,79.5280038 87.8080025,80.1226646 87.2639998,80.544 C86.7199971,80.9653354 86.0746702,81.176 85.3279998,81.176 C84.4106619,81.176 83.7013356,80.8186702 83.1999998,80.104 C82.6666638,79.3573296 82.4639992,78.3866726 82.5919998,77.192 C82.7200004,75.9546605 83.1093299,74.973337 83.7599998,74.248 C84.400003,73.522663 85.1733286,73.16 86.0799998,73.16 C87.0933382,73.16 87.8079977,73.5919957 88.2239998,74.456 C88.6080017,75.2346706 88.6720011,76.2319939 88.4159998,77.448 L83.6959998,77.448 C83.5893326,78.6960062 83.8879963,79.5279979 84.5919998,79.944 C84.8160009,80.0826674 85.0933315,80.152 85.4239998,80.152 L85.4239998,80.152 Z M86.7999998,74.36 C86.5866654,74.2319994 86.3253347,74.168 86.0159998,74.168 C85.7066649,74.168 85.4293344,74.2293327 85.1839998,74.352 C84.9386652,74.4746673 84.7200008,74.6426656 84.5279998,74.856 C84.1546646,75.2826688 83.914667,75.8266634 83.8079998,76.488 L87.4879998,76.488 C87.6053337,75.421328 87.3760027,74.7120018 86.7999998,74.36 L86.7999998,74.36 Z M96.2439998,73.736 C96.3613337,73.1706638 96.6066646,72.717335 96.9799998,72.376 C97.353335,72.034665 97.8226636,71.864 98.3879998,71.864 L98.1479998,73.112 C97.3053289,73.112 96.830667,73.5013294 96.7239998,74.28 C97.0226679,74.7600024 97.1453334,75.2613307 97.0919998,75.784 C97.0386662,76.3066693 96.9240007,76.7413316 96.7479998,77.088 C96.5719989,77.4346684 96.3453345,77.7359987 96.0679998,77.992 C95.4919969,78.5040026 94.8040038,78.76 94.0039998,78.76 C93.4599971,78.76 92.9906684,78.6373346 92.5959998,78.392 C92.3933321,78.4346669 92.2093339,78.5333326 92.0439998,78.688 C91.8786656,78.8426674 91.7799999,79.0479987 91.7479998,79.304 C91.6946662,79.8800029 92.0946622,80.168 92.9479998,80.168 L95.6199998,80.168 C96.260003,80.168 96.755998,80.3199985 97.1079998,80.624 C97.4600015,80.9280015 97.6093334,81.3519973 97.5559998,81.896 C97.4919995,82.696004 97.0706703,83.3946637 96.2919998,83.992 C95.4813291,84.6213365 94.4680059,84.936 93.2519998,84.936 C92.2173279,84.936 91.3960028,84.7013357 90.7879998,84.232 C90.1906635,83.7626643 89.9239995,83.1813368 89.9879998,82.488 C90.0199999,82.029331 90.1746651,81.6560014 90.4519998,81.368 C90.7293345,81.0799986 91.0759977,80.8773339 91.4919998,80.76 C91.2253318,80.6106659 91.0280004,80.4160012 90.8999998,80.176 C90.7719991,79.9359988 90.7239996,79.653335 90.7559998,79.328 C90.7879999,79.002665 90.9293319,78.7146679 91.1799998,78.464 C91.4306677,78.2133321 91.7266647,78.0453338 92.0679998,77.96 C91.5986641,77.426664 91.406666,76.7546707 91.4919998,75.944 C91.5773335,75.1119958 91.9079969,74.4400026 92.4839998,73.928 C93.0600027,73.4159974 93.7186627,73.16 94.4599998,73.16 C95.2013368,73.16 95.7959975,73.3519981 96.2439998,73.736 L96.2439998,73.736 Z M91.1079998,82.44 C91.0759996,82.8453354 91.2466646,83.1946652 91.6199998,83.488 C91.993335,83.7813348 92.5639959,83.928 93.3319998,83.928 C94.1746707,83.928 94.8946635,83.7306686 95.4919998,83.336 C96.0466692,82.9626648 96.3559995,82.509336 96.4199998,81.976 C96.4413332,81.7306654 96.3800005,81.5200009 96.2359998,81.344 C96.0919991,81.1679991 95.8600014,81.08 95.5399998,81.08 L92.7399998,81.08 C92.2493307,81.1013334 91.8680011,81.2319988 91.5959998,81.472 C91.3239984,81.7120012 91.1613334,82.0346646 91.1079998,82.44 L91.1079998,82.44 Z M95.6519998,74.592 C95.3853318,74.2453316 94.9880024,74.072 94.4599998,74.072 C93.9319971,74.072 93.5053347,74.2453316 93.1799998,74.592 C92.8546648,74.9386684 92.6653334,75.3893306 92.6119998,75.944 C92.5586662,76.4986694 92.6653318,76.9546649 92.9319998,77.312 C93.1986678,77.6693351 93.5906639,77.848 94.1079998,77.848 C94.6253357,77.848 95.0519981,77.6666685 95.3879998,77.304 C95.7240015,76.9413315 95.9186662,76.4853361 95.9719998,75.936 C96.0253334,75.3866639 95.9186678,74.9386684 95.6519998,74.592 L95.6519998,74.592 Z M104.84,76.04 C104.904,75.3466632 104.821334,74.8506682 104.592,74.552 C104.362665,74.2533318 104.002669,74.104 103.512,74.104 C103.021331,74.104 102.613335,74.2106656 102.288,74.424 C101.962665,74.6373344 101.778667,74.9839976 101.736,75.464 L100.472,75.464 C100.557334,74.6319958 100.882664,74.0400018 101.448,73.688 C102.013336,73.3359982 102.706662,73.16 103.528,73.16 C104.818673,73.16 105.602665,73.693328 105.88,74.76 C105.976,75.1226685 106.002667,75.5599974 105.96,76.072 L105.496,81 L104.536,81 L104.536,79.72 C104.01333,80.6906715 103.197339,81.176 102.088,81.176 C101.40533,81.176 100.856002,80.9680021 100.44,80.552 C100.055998,80.1679981 99.8639998,79.7253358 99.8639998,79.224 C99.8639998,78.7226642 99.9413323,78.3173349 100.096,78.008 C100.250667,77.6986651 100.455998,77.4373344 100.712,77.224 C101.245336,76.8079979 101.890663,76.6 102.648,76.6 C103.405337,76.6 104.103997,76.7386653 104.744,77.016 L104.84,76.04 Z M104.664,77.816 C104.002663,77.6026656 103.408002,77.496 102.88,77.496 C102.351997,77.496 101.920001,77.6159988 101.584,77.856 C101.247998,78.0960012 101.08,78.4879973 101.08,79.032 C101.08,79.373335 101.178665,79.6533322 101.376,79.872 C101.573334,80.0906678 101.922664,80.2 102.424,80.2 C102.968002,80.2 103.453331,80.0026686 103.88,79.608 C104.349335,79.1813312 104.605333,78.6320034 104.648,77.96 L104.664,77.816 Z M114.028,79.48 C113.462664,80.5893389 112.646672,81.144 111.58,81.144 C110.801329,81.144 110.198669,80.9040024 109.772,80.424 C109.345331,79.9439976 109.174666,79.2026717 109.26,78.2 L109.724,73.336 L110.86,73.336 L110.412,78.104 C110.283999,79.3946731 110.763994,80.04 111.852,80.04 C112.492003,80.04 113.035997,79.7626694 113.484,79.208 C113.910669,78.6639973 114.166666,77.9493378 114.252,77.064 L114.604,73.336 L115.74,73.336 L115.02,81 L113.884,81 L114.028,79.48 Z M119.728,70.104 L120.864,70.104 L119.84,81 L118.704,81 L119.728,70.104 Z M127.252,80.776 C126.69733,81.042668 126.164002,81.176 125.652,81.176 C125.139997,81.176 124.713335,81.0000018 124.372,80.648 C124.030665,80.2959982 123.897333,79.7520037 123.972,79.016 L124.404,74.312 L123.284,74.312 L123.396,73.352 L124.484,73.352 L124.692,71.224 L125.828,71.224 L125.62,73.352 L127.78,73.352 L127.684,74.312 L125.524,74.312 L125.092,79 C125.038666,79.3946686 125.089332,79.687999 125.244,79.88 C125.398667,80.072001 125.641331,80.168 125.972,80.168 C126.302668,80.168 126.702664,80.072001 127.172,79.88 L127.252,80.776 Z M134.024,69.304 L135.176,69.304 L130.328,82.168 L129.192,82.168 L134.024,69.304 Z M137.852,73.336 L138.988,73.336 L138.268,81 L137.132,81 L137.852,73.336 Z M138.068,71.328 C137.955999,71.1839993 137.910666,70.9920012 137.932,70.752 C137.953333,70.5119988 138.033332,70.3200007 138.172,70.176 C138.310667,70.0319993 138.497332,69.96 138.732,69.96 C138.966667,69.96 139.145332,70.0319993 139.268,70.176 C139.390667,70.3200007 139.441333,70.5119988 139.42,70.752 C139.398666,70.9920012 139.313334,71.1839993 139.164,71.328 C139.014666,71.4720007 138.822667,71.544 138.588,71.544 C138.353332,71.544 138.18,71.4720007 138.068,71.328 L138.068,71.328 Z M143.936,74.84 C144.512002,73.7199944 145.338661,73.16 146.416,73.16 C147.013336,73.16 147.498664,73.322665 147.872,73.648 C148.245335,73.973335 148.495999,74.4239971 148.624,75 C149.168002,73.7733272 150.02666,73.16 151.2,73.16 C152.021337,73.16 152.631998,73.4586637 153.032,74.056 C153.432002,74.6533363 153.578667,75.4693282 153.472,76.504 L153.056,81 L151.936,81 L152.352,76.504 C152.426667,75.7679963 152.325334,75.2133352 152.048,74.84 C151.770665,74.4666648 151.338669,74.28 150.752,74.28 C150.16533,74.28 149.685335,74.546664 149.312,75.08 C148.938664,75.613336 148.709333,76.3493286 148.624,77.288 L148.608,77.288 L148.272,81 L147.152,81 L147.568,76.504 C147.642667,75.7679963 147.541334,75.2133352 147.264,74.84 C146.986665,74.4666648 146.554669,74.28 145.968,74.28 C145.38133,74.28 144.882668,74.5546639 144.472,75.104 C144.061331,75.6533361 143.813333,76.4133285 143.728,77.384 L143.392,81 L142.256,81 L142.976,73.352 L143.952,73.352 L143.936,74.84 Z M161.348,76.04 C161.412,75.3466632 161.329334,74.8506682 161.1,74.552 C160.870665,74.2533318 160.510669,74.104 160.02,74.104 C159.52933,74.104 159.121335,74.2106656 158.796,74.424 C158.470665,74.6373344 158.286666,74.9839976 158.244,75.464 L156.98,75.464 C157.065333,74.6319958 157.390663,74.0400018 157.956,73.688 C158.521336,73.3359982 159.214662,73.16 160.036,73.16 C161.326673,73.16 162.110665,73.693328 162.388,74.76 C162.484,75.1226685 162.510666,75.5599974 162.468,76.072 L162.004,81 L161.044,81 L161.044,79.72 C160.52133,80.6906715 159.705338,81.176 158.596,81.176 C157.91333,81.176 157.364002,80.9680021 156.948,80.552 C156.563998,80.1679981 156.372,79.7253358 156.372,79.224 C156.372,78.7226642 156.449332,78.3173349 156.604,78.008 C156.758667,77.6986651 156.963998,77.4373344 157.22,77.224 C157.753336,76.8079979 158.398662,76.6 159.156,76.6 C159.913337,76.6 160.611996,76.7386653 161.252,77.016 L161.348,76.04 Z M161.172,77.816 C160.510663,77.6026656 159.916002,77.496 159.388,77.496 C158.859997,77.496 158.428001,77.6159988 158.092,77.856 C157.755998,78.0960012 157.588,78.4879973 157.588,79.032 C157.588,79.373335 157.686665,79.6533322 157.884,79.872 C158.081334,80.0906678 158.430664,80.2 158.932,80.2 C159.476002,80.2 159.961331,80.0026686 160.388,79.608 C160.857335,79.1813312 161.113333,78.6320034 161.156,77.96 L161.172,77.816 Z M170.744,73.736 C170.861333,73.1706638 171.106664,72.717335 171.48,72.376 C171.853335,72.034665 172.322663,71.864 172.888,71.864 L172.648,73.112 C171.805329,73.112 171.330667,73.5013294 171.224,74.28 C171.522668,74.7600024 171.645333,75.2613307 171.592,75.784 C171.538666,76.3066693 171.424,76.7413316 171.248,77.088 C171.071999,77.4346684 170.845334,77.7359987 170.568,77.992 C169.991997,78.5040026 169.304004,78.76 168.504,78.76 C167.959997,78.76 167.490668,78.6373346 167.096,78.392 C166.893332,78.4346669 166.709334,78.5333326 166.544,78.688 C166.378665,78.8426674 166.28,79.0479987 166.248,79.304 C166.194666,79.8800029 166.594662,80.168 167.448,80.168 L170.12,80.168 C170.760003,80.168 171.255998,80.3199985 171.608,80.624 C171.960001,80.9280015 172.109333,81.3519973 172.056,81.896 C171.991999,82.696004 171.57067,83.3946637 170.792,83.992 C169.981329,84.6213365 168.968006,84.936 167.752,84.936 C166.717328,84.936 165.896003,84.7013357 165.288,84.232 C164.690663,83.7626643 164.423999,83.1813368 164.488,82.488 C164.52,82.029331 164.674665,81.6560014 164.952,81.368 C165.229334,81.0799986 165.575997,80.8773339 165.992,80.76 C165.725332,80.6106659 165.528,80.4160012 165.4,80.176 C165.271999,79.9359988 165.223999,79.653335 165.256,79.328 C165.288,79.002665 165.429332,78.7146679 165.68,78.464 C165.930667,78.2133321 166.226665,78.0453338 166.568,77.96 C166.098664,77.426664 165.906666,76.7546707 165.992,75.944 C166.077333,75.1119958 166.407997,74.4400026 166.984,73.928 C167.560002,73.4159974 168.218663,73.16 168.96,73.16 C169.701337,73.16 170.295997,73.3519981 170.744,73.736 L170.744,73.736 Z M165.608,82.44 C165.575999,82.8453354 165.746664,83.1946652 166.12,83.488 C166.493335,83.7813348 167.063996,83.928 167.832,83.928 C168.67467,83.928 169.394663,83.7306686 169.992,83.336 C170.546669,82.9626648 170.855999,82.509336 170.92,81.976 C170.941333,81.7306654 170.88,81.5200009 170.736,81.344 C170.591999,81.1679991 170.360001,81.08 170.04,81.08 L167.24,81.08 C166.74933,81.1013334 166.368001,81.2319988 166.096,81.472 C165.823998,81.7120012 165.661333,82.0346646 165.608,82.44 L165.608,82.44 Z M170.152,74.592 C169.885332,74.2453316 169.488002,74.072 168.96,74.072 C168.431997,74.072 168.005335,74.2453316 167.68,74.592 C167.354665,74.9386684 167.165333,75.3893306 167.112,75.944 C167.058666,76.4986694 167.165332,76.9546649 167.432,77.312 C167.698668,77.6693351 168.090664,77.848 168.608,77.848 C169.125335,77.848 169.551998,77.6666685 169.888,77.304 C170.224001,76.9413315 170.418666,76.4853361 170.472,75.936 C170.525333,75.3866639 170.418668,74.9386684 170.152,74.592 L170.152,74.592 Z M177.26,80.152 C178.198671,80.152 178.785332,79.6880046 179.02,78.76 L180.188,78.76 C180.006665,79.5280038 179.644002,80.1226646 179.1,80.544 C178.555997,80.9653354 177.91067,81.176 177.164,81.176 C176.246662,81.176 175.537335,80.8186702 175.036,80.104 C174.502664,79.3573296 174.299999,78.3866726 174.428,77.192 C174.556,75.9546605 174.94533,74.973337 175.596,74.248 C176.236003,73.522663 177.009328,73.16 177.916,73.16 C178.929338,73.16 179.643997,73.5919957 180.06,74.456 C180.444001,75.2346706 180.508001,76.2319939 180.252,77.448 L175.532,77.448 C175.425332,78.6960062 175.723996,79.5279979 176.428,79.944 C176.652001,80.0826674 176.929331,80.152 177.26,80.152 L177.26,80.152 Z M178.636,74.36 C178.422665,74.2319994 178.161334,74.168 177.852,74.168 C177.542665,74.168 177.265334,74.2293327 177.02,74.352 C176.774665,74.4746673 176.556001,74.6426656 176.364,74.856 C175.990664,75.2826688 175.750667,75.8266634 175.644,76.488 L179.324,76.488 C179.441333,75.421328 179.212002,74.7120018 178.636,74.36 L178.636,74.36 Z M184.048,73.72 C184.570669,73.3466648 185.242662,73.16 186.064,73.16 C186.885337,73.16 187.509331,73.3519981 187.936,73.736 C188.362668,74.1200019 188.56,74.6053304 188.528,75.192 L187.424,75.192 C187.391999,74.4986632 186.890671,74.152 185.92,74.152 C185.450664,74.152 185.080001,74.2693322 184.808,74.504 C184.535998,74.7386678 184.386666,74.9919986 184.36,75.264 C184.333333,75.5360014 184.407999,75.7653324 184.584,75.952 C184.76,76.1386676 185.050664,76.3013326 185.456,76.44 L186.784,76.952 C187.360002,77.1546677 187.789331,77.4133318 188.072,77.728 C188.354668,78.0426682 188.469333,78.4506642 188.416,78.952 C188.351999,79.560003 188.053336,80.0719979 187.52,80.488 C186.943997,80.946669 186.205337,81.176 185.304,81.176 C184.402662,81.176 183.717335,80.9493356 183.248,80.496 C182.778664,80.0426644 182.565333,79.4586702 182.608,78.744 L183.696,78.744 C183.674666,79.2240024 183.818665,79.5839988 184.128,79.824 C184.437334,80.0640012 184.84533,80.184 185.352,80.184 C185.858669,80.184 186.279998,80.0666678 186.616,79.832 C186.952001,79.5973322 187.135999,79.317335 187.168,78.992 C187.2,78.666665 187.128,78.4186675 186.952,78.248 C186.775999,78.0773325 186.480002,77.9280006 186.064,77.8 L184.768,77.304 C183.605327,76.9199981 183.071999,76.2266717 183.168,75.224 C183.232,74.5946635 183.52533,74.0933352 184.048,73.72 L184.048,73.72 Z M195.475999,69.304 L196.627999,69.304 L191.779999,82.168 L190.643999,82.168 L195.475999,69.304 Z M199.543999,70.104 L200.679999,70.104 L199.655999,81 L198.519999,81 L199.543999,70.104 Z M206.859999,73.16 C207.318668,73.16 207.737331,73.2453325 208.115999,73.416 C208.494668,73.5866675 208.811998,73.842665 209.067999,74.184 C209.612002,74.909337 209.82,75.9066603 209.691999,77.176 C209.563999,78.4560064 209.164003,79.4533298 208.491999,80.168 C207.851996,80.8400034 207.052004,81.176 206.091999,81.176 C205.131995,81.176 204.396002,80.8400034 203.883999,80.168 C203.339997,79.4533298 203.131999,78.4560064 203.259999,77.176 C203.388,75.8959936 203.787996,74.8986702 204.459999,74.184 C205.089336,73.5013299 205.889328,73.16 206.859999,73.16 L206.859999,73.16 Z M206.779999,74.248 C206.107996,74.248 205.569335,74.5066641 205.163999,75.024 C204.758664,75.5413359 204.513333,76.2559954 204.427999,77.168 C204.342666,78.0800046 204.441331,78.7946641 204.723999,79.312 C205.006668,79.8293359 205.483996,80.088 206.155999,80.088 C206.828003,80.088 207.371997,79.8293359 207.787999,79.312 C208.204002,78.7946641 208.454666,78.0800046 208.539999,77.168 C208.625333,76.2559954 208.521334,75.5413359 208.227999,75.024 C207.934665,74.5066641 207.452003,74.248 206.779999,74.248 L206.779999,74.248 Z M217.359999,73.736 C217.477333,73.1706638 217.722664,72.717335 218.095999,72.376 C218.469335,72.034665 218.938663,71.864 219.503999,71.864 L219.263999,73.112 C218.421329,73.112 217.946667,73.5013294 217.839999,74.28 C218.138668,74.7600024 218.261333,75.2613307 218.207999,75.784 C218.154666,76.3066693 218.04,76.7413316 217.863999,77.088 C217.687999,77.4346684 217.461334,77.7359987 217.183999,77.992 C216.607997,78.5040026 215.920003,78.76 215.119999,78.76 C214.575997,78.76 214.106668,78.6373346 213.711999,78.392 C213.509332,78.4346669 213.325334,78.5333326 213.159999,78.688 C212.994665,78.8426674 212.896,79.0479987 212.863999,79.304 C212.810666,79.8800029 213.210662,80.168 214.063999,80.168 L216.735999,80.168 C217.376003,80.168 217.871998,80.3199985 218.223999,80.624 C218.576001,80.9280015 218.725333,81.3519973 218.671999,81.896 C218.607999,82.696004 218.18667,83.3946637 217.407999,83.992 C216.597329,84.6213365 215.584006,84.936 214.367999,84.936 C213.333328,84.936 212.512002,84.7013357 211.903999,84.232 C211.306663,83.7626643 211.039999,83.1813368 211.103999,82.488 C211.136,82.029331 211.290665,81.6560014 211.567999,81.368 C211.845334,81.0799986 212.191997,80.8773339 212.607999,80.76 C212.341331,80.6106659 212.144,80.4160012 212.015999,80.176 C211.887999,79.9359988 211.839999,79.653335 211.871999,79.328 C211.904,79.002665 212.045332,78.7146679 212.295999,78.464 C212.546667,78.2133321 212.842664,78.0453338 213.183999,77.96 C212.714664,77.426664 212.522666,76.7546707 212.607999,75.944 C212.693333,75.1119958 213.023997,74.4400026 213.599999,73.928 C214.176002,73.4159974 214.834662,73.16 215.575999,73.16 C216.317336,73.16 216.911997,73.3519981 217.359999,73.736 L217.359999,73.736 Z M212.223999,82.44 C212.191999,82.8453354 212.362664,83.1946652 212.735999,83.488 C213.109335,83.7813348 213.679996,83.928 214.447999,83.928 C215.29067,83.928 216.010663,83.7306686 216.607999,83.336 C217.162669,82.9626648 217.471999,82.509336 217.535999,81.976 C217.557333,81.7306654 217.496,81.5200009 217.351999,81.344 C217.207999,81.1679991 216.976001,81.08 216.655999,81.08 L213.855999,81.08 C213.36533,81.1013334 212.984001,81.2319988 212.711999,81.472 C212.439998,81.7120012 212.277333,82.0346646 212.223999,82.44 L212.223999,82.44 Z M216.767999,74.592 C216.501331,74.2453316 216.104002,74.072 215.575999,74.072 C215.047997,74.072 214.621334,74.2453316 214.295999,74.592 C213.970664,74.9386684 213.781333,75.3893306 213.727999,75.944 C213.674666,76.4986694 213.781331,76.9546649 214.047999,77.312 C214.314667,77.6693351 214.706664,77.848 215.223999,77.848 C215.741335,77.848 216.167998,77.6666685 216.503999,77.304 C216.840001,76.9413315 217.034666,76.4853361 217.087999,75.936 C217.141333,75.3866639 217.034667,74.9386684 216.767999,74.592 L216.767999,74.592 Z M224.643999,73.16 C225.102668,73.16 225.521331,73.2453325 225.899999,73.416 C226.278668,73.5866675 226.595998,73.842665 226.851999,74.184 C227.396002,74.909337 227.604,75.9066603 227.475999,77.176 C227.347999,78.4560064 226.948003,79.4533298 226.275999,80.168 C225.635996,80.8400034 224.836004,81.176 223.875999,81.176 C222.915995,81.176 222.180002,80.8400034 221.667999,80.168 C221.123997,79.4533298 220.915999,78.4560064 221.043999,77.176 C221.172,75.8959936 221.571996,74.8986702 222.243999,74.184 C222.873336,73.5013299 223.673328,73.16 224.643999,73.16 L224.643999,73.16 Z M224.563999,74.248 C223.891996,74.248 223.353335,74.5066641 222.947999,75.024 C222.542664,75.5413359 222.297333,76.2559954 222.211999,77.168 C222.126666,78.0800046 222.225331,78.7946641 222.507999,79.312 C222.790667,79.8293359 223.267996,80.088 223.939999,80.088 C224.612003,80.088 225.155997,79.8293359 225.571999,79.312 C225.988001,78.7946641 226.238666,78.0800046 226.323999,77.168 C226.409333,76.2559954 226.305334,75.5413359 226.011999,75.024 C225.718665,74.5066641 225.236003,74.248 224.563999,74.248 L224.563999,74.248 Z M229.247999,80.88 C229.103999,80.7039991 229.042666,80.4906679 229.063999,80.24 C229.085333,79.9893321 229.181332,79.7760009 229.351999,79.6 C229.522667,79.4239991 229.733331,79.336 229.983999,79.336 C230.234667,79.336 230.431999,79.4239991 230.575999,79.6 C230.72,79.7760009 230.781333,79.9893321 230.759999,80.24 C230.738666,80.4906679 230.64,80.7039991 230.463999,80.88 C230.287999,81.0560009 230.077334,81.144 229.831999,81.144 C229.586665,81.144 229.392,81.0560009 229.247999,80.88 L229.247999,80.88 Z M234.587999,73.72 C235.110669,73.3466648 235.782662,73.16 236.603999,73.16 C237.425337,73.16 238.049331,73.3519981 238.475999,73.736 C238.902668,74.1200019 239.1,74.6053304 239.067999,75.192 L237.963999,75.192 C237.931999,74.4986632 237.430671,74.152 236.459999,74.152 C235.990664,74.152 235.620001,74.2693322 235.347999,74.504 C235.075998,74.7386678 234.926666,74.9919986 234.899999,75.264 C234.873333,75.5360014 234.947998,75.7653324 235.123999,75.952 C235.3,76.1386676 235.590664,76.3013326 235.995999,76.44 L237.323999,76.952 C237.900002,77.1546677 238.329331,77.4133318 238.611999,77.728 C238.894667,78.0426682 239.009333,78.4506642 238.955999,78.952 C238.891999,79.560003 238.593335,80.0719979 238.059999,80.488 C237.483996,80.946669 236.745337,81.176 235.843999,81.176 C234.942662,81.176 234.257335,80.9493356 233.787999,80.496 C233.318664,80.0426644 233.105332,79.4586702 233.147999,78.744 L234.235999,78.744 C234.214666,79.2240024 234.358664,79.5839988 234.667999,79.824 C234.977334,80.0640012 235.38533,80.184 235.891999,80.184 C236.398669,80.184 236.819998,80.0666678 237.155999,79.832 C237.492001,79.5973322 237.675999,79.317335 237.707999,78.992 C237.74,78.666665 237.668,78.4186675 237.491999,78.248 C237.315998,78.0773325 237.020001,77.9280006 236.603999,77.8 L235.307999,77.304 C234.145327,76.9199981 233.611999,76.2266717 233.707999,75.224 C233.772,74.5946635 234.06533,74.0933352 234.587999,73.72 L234.587999,73.72 Z M242.735999,73.352 L244.223999,79.672 L246.895999,73.352 L248.175999,73.352 L244.719999,81 L243.471999,81 L241.455999,73.352 L242.735999,73.352 Z M255.123999,73.736 C255.241333,73.1706638 255.486664,72.717335 255.859999,72.376 C256.233335,72.034665 256.702663,71.864 257.267999,71.864 L257.027999,73.112 C256.185328,73.112 255.710667,73.5013294 255.603999,74.28 C255.902667,74.7600024 256.025333,75.2613307 255.971999,75.784 C255.918666,76.3066693 255.804,76.7413316 255.627999,77.088 C255.451998,77.4346684 255.225334,77.7359987 254.947999,77.992 C254.371996,78.5040026 253.684003,78.76 252.883999,78.76 C252.339997,78.76 251.870668,78.6373346 251.475999,78.392 C251.273332,78.4346669 251.089333,78.5333326 250.923999,78.688 C250.758665,78.8426674 250.659999,79.0479987 250.627999,79.304 C250.574666,79.8800029 250.974662,80.168 251.827999,80.168 L254.499999,80.168 C255.140003,80.168 255.635998,80.3199985 255.987999,80.624 C256.340001,80.9280015 256.489333,81.3519973 256.435999,81.896 C256.371999,82.696004 255.95067,83.3946637 255.171999,83.992 C254.361329,84.6213365 253.348005,84.936 252.131999,84.936 C251.097327,84.936 250.276002,84.7013357 249.667999,84.232 C249.070663,83.7626643 248.803999,83.1813368 248.867999,82.488 C248.899999,82.029331 249.054665,81.6560014 249.331999,81.368 C249.609334,81.0799986 249.955997,80.8773339 250.371999,80.76 C250.105331,80.6106659 249.908,80.4160012 249.779999,80.176 C249.651999,79.9359988 249.603999,79.653335 249.635999,79.328 C249.667999,79.002665 249.809331,78.7146679 250.059999,78.464 C250.310667,78.2133321 250.606664,78.0453338 250.947999,77.96 C250.478664,77.426664 250.286666,76.7546707 250.371999,75.944 C250.457333,75.1119958 250.787996,74.4400026 251.363999,73.928 C251.940002,73.4159974 252.598662,73.16 253.339999,73.16 C254.081336,73.16 254.675997,73.3519981 255.123999,73.736 L255.123999,73.736 Z M249.987999,82.44 C249.955999,82.8453354 250.126664,83.1946652 250.499999,83.488 C250.873335,83.7813348 251.443995,83.928 252.211999,83.928 C253.05467,83.928 253.774663,83.7306686 254.371999,83.336 C254.926669,82.9626648 255.235999,82.509336 255.299999,81.976 C255.321333,81.7306654 255.26,81.5200009 255.115999,81.344 C254.971999,81.1679991 254.740001,81.08 254.419999,81.08 L251.619999,81.08 C251.12933,81.1013334 250.748001,81.2319988 250.475999,81.472 C250.203998,81.7120012 250.041333,82.0346646 249.987999,82.44 L249.987999,82.44 Z M254.531999,74.592 C254.265331,74.2453316 253.868002,74.072 253.339999,74.072 C252.811997,74.072 252.385334,74.2453316 252.059999,74.592 C251.734664,74.9386684 251.545333,75.3893306 251.491999,75.944 C251.438666,76.4986694 251.545331,76.9546649 251.811999,77.312 C252.078667,77.6693351 252.470663,77.848 252.987999,77.848 C253.505335,77.848 253.931998,77.6666685 254.267999,77.304 C254.604001,76.9413315 254.798666,76.4853361 254.851999,75.936 C254.905333,75.3866639 254.798667,74.9386684 254.531999,74.592 L254.531999,74.592 Z" id="kelsey.legault/image" fill="#000000"></path>
                    <path d="M32.3413086,34.3154297 C32.0577785,34.4254563 31.863119,34.6285792 31.7573242,34.9248047 C31.6515294,35.2210301 31.5986328,35.6949837 31.5986328,36.3466797 L31.5986328,49.2451172 C31.5986328,49.8968132 31.6515294,50.3686509 31.7573242,50.6606445 C31.863119,50.9526382 32.0577785,51.1494136 32.3413086,51.2509766 C32.6248387,51.3525396 33.0797495,51.4033203 33.7060547,51.4033203 L35.6103516,51.4033203 C36.6936903,51.4033203 37.5167615,51.2509781 38.0795898,50.9462891 C38.6424182,50.6416 39.0486641,50.1549513 39.2983398,49.4863281 C39.5480156,48.817705 39.7405592,47.835944 39.8759766,46.5410156 L40.4726562,46.5410156 C40.4218747,47.082685 40.3964844,47.7936154 40.3964844,48.6738281 C40.3964844,49.6556039 40.4557286,50.7643167 40.5742188,52 C39.3977806,51.9492185 37.4130999,51.9238281 34.6201172,51.9238281 C31.2939287,51.9238281 28.7802819,51.9492185 27.0791016,52 L27.0791016,51.4794922 C27.7054068,51.4541014 28.1603176,51.3863938 28.4438477,51.2763672 C28.7273777,51.1663406 28.9220372,50.9632176 29.027832,50.6669922 C29.1336268,50.3707667 29.1865234,49.8968132 29.1865234,49.2451172 L29.1865234,36.3466797 C29.1865234,35.6949837 29.1336268,35.2210301 29.027832,34.9248047 C28.9220372,34.6285792 28.7273777,34.4254563 28.4438477,34.3154297 C28.1603176,34.2054031 27.7054068,34.1376954 27.0791016,34.1123047 L27.0791016,33.5917969 C27.7985062,33.6425784 28.9072191,33.6679688 30.4052734,33.6679688 C31.8102284,33.6679688 32.9104778,33.6425784 33.7060547,33.5917969 L33.7060547,34.1123047 C33.0797495,34.1376954 32.6248387,34.2054031 32.3413086,34.3154297 L32.3413086,34.3154297 Z M52.4986949,39 C53.3831394,39.4993515 54.0813746,40.2758736 54.5934215,41.3295898 C55.1054683,42.383306 55.3614879,43.7141847 55.3614879,45.3222656 C55.3614879,46.9303466 55.1054683,48.2591093 54.5934215,49.3085938 C54.0813746,50.3580782 53.3831394,51.1303686 52.4986949,51.6254883 C51.6142504,52.1206079 50.6007514,52.3681641 49.4581676,52.3681641 C48.3155837,52.3681641 47.3020847,52.1206079 46.4176402,51.6254883 C45.5331957,51.1303686 44.8349605,50.3580782 44.3229136,49.3085938 C43.8108668,48.2591093 43.5548472,46.9303466 43.5548472,45.3222656 C43.5548472,43.7141847 43.8108668,42.383306 44.3229136,41.3295898 C44.8349605,40.2758736 45.5331957,39.4993515 46.4176402,39 C47.3020847,38.5006485 48.3155837,38.2509766 49.4581676,38.2509766 C50.6007514,38.2509766 51.6142504,38.5006485 52.4986949,39 L52.4986949,39 Z M46.9889293,40.3710938 C46.383783,41.4375053 46.0812144,43.0878795 46.0812144,45.3222656 C46.0812144,47.5481882 46.383783,49.1922147 46.9889293,50.2543945 C47.5940755,51.3165743 48.4171467,51.8476562 49.4581676,51.8476562 C50.4991884,51.8476562 51.3222596,51.3165743 51.9274058,50.2543945 C52.5325521,49.1922147 52.8351207,47.5481882 52.8351207,45.3222656 C52.8351207,43.0878795 52.5325521,41.4375053 51.9274058,40.3710938 C51.3222596,39.3046822 50.4991884,38.7714844 49.4581676,38.7714844 C48.4171467,38.7714844 47.5940755,39.3046822 46.9889293,40.3710938 L46.9889293,40.3710938 Z M69.7996359,49.7148438 C70.3624642,50.095705 70.6438742,50.7093057 70.6438742,51.5556641 C70.6438742,52.3850953 70.3751594,53.2102824 69.8377218,54.03125 C69.3002842,54.8522176 68.4835606,55.5335259 67.3875265,56.0751953 C66.2914924,56.6168647 64.9521503,56.8876953 63.3694601,56.8876953 C62.4638566,56.8876953 61.6111633,56.7967131 60.8113546,56.6147461 C60.011546,56.432779 59.3662074,56.1619484 58.8753195,55.8022461 C58.3844316,55.4425438 58.1389914,55.0087916 58.1389914,54.5009766 C58.1389914,53.9085257 58.4500234,53.3351265 59.0720968,52.7807617 C59.6941702,52.226397 60.4706924,51.7418641 61.4016867,51.3271484 L61.3128195,51.3271484 C60.6526599,51.3271484 60.0538703,51.1875014 59.5164328,50.9082031 C58.9789952,50.6289049 58.7102804,50.1084022 58.7102804,49.3466797 C58.7102804,48.7542288 58.9557207,48.1914089 59.4466085,47.6582031 C59.9374964,47.1249973 60.7753787,46.5917995 61.9602804,46.0585938 C61.1985579,45.7623683 60.6061159,45.3053416 60.1829367,44.6875 C59.7597575,44.0696584 59.548171,43.2910203 59.548171,42.3515625 C59.548171,40.9804619 59.9861549,39.9542677 60.8621359,39.2729492 C61.7381168,38.5916307 62.8997263,38.2509766 64.3469992,38.2509766 C65.0240859,38.2509766 65.6376865,38.3271477 66.1878195,38.4794922 C66.3570912,37.5146436 66.6617756,36.744469 67.101882,36.1689453 C67.5673791,35.5934216 68.1598211,35.3056641 68.8792257,35.3056641 C69.3108685,35.3056641 69.6472909,35.4326159 69.8885031,35.6865234 C70.1297152,35.940431 70.2503195,36.2662741 70.2503195,36.6640625 C70.2503195,37.019533 70.1318311,37.315754 69.8948507,37.5527344 C69.6578704,37.7897147 69.3616494,37.9082031 69.0061789,37.9082031 C68.5660725,37.9082031 68.2486929,37.7749037 68.0540304,37.5083008 C67.859368,37.2416979 67.7154892,36.8291044 67.6223898,36.2705078 C67.3684823,36.4990246 67.1357372,36.9221974 66.9241476,37.5400391 C66.7971938,37.9209003 66.7083275,38.2805973 66.657546,38.6191406 C67.4446594,38.9069025 68.05826,39.3618133 68.4983664,39.9838867 C68.9384727,40.6059601 69.1585226,41.3951775 69.1585226,42.3515625 C69.1585226,43.2740932 68.9511679,44.0421519 68.5364523,44.6557617 C68.1217367,45.2693716 67.5546851,45.7242824 66.8352804,46.0205078 C66.1158758,46.3167333 65.286457,46.4648438 64.3469992,46.4648438 C63.6445217,46.4648438 63.0055307,46.3844409 62.430007,46.2236328 C61.7275295,46.5960305 61.1879841,46.9409164 60.8113546,47.2583008 C60.4347251,47.5756852 60.2464132,47.9163393 60.2464132,48.2802734 C60.2464132,48.5680353 60.343743,48.7838534 60.5384054,48.9277344 C60.7330679,49.0716153 61.0504475,49.1435547 61.4905539,49.1435547 L67.5969992,49.1435547 C68.5026027,49.1435547 69.2368076,49.3339825 69.7996359,49.7148438 L69.7996359,49.7148438 Z M62.5886984,39.5395508 C62.1866781,40.0939155 61.985671,41.0312434 61.985671,42.3515625 C61.985671,43.6718816 62.1866781,44.6092095 62.5886984,45.1635742 C62.9907186,45.717939 63.576813,45.9951172 64.3469992,45.9951172 C65.1256489,45.9951172 65.715975,45.7200548 66.1179953,45.1699219 C66.5200155,44.6197889 66.7210226,43.6803452 66.7210226,42.3515625 C66.7210226,41.0227798 66.5200155,40.0833361 66.1179953,39.5332031 C65.715975,38.9830702 65.1256489,38.7080078 64.3469992,38.7080078 C63.576813,38.7080078 62.9907186,38.985186 62.5886984,39.5395508 L62.5886984,39.5395508 Z M60.7351828,52.4824219 C60.4262619,52.9648462 60.2718039,53.4557267 60.2718039,53.9550781 C60.2718039,54.5136747 60.4579999,54.9791648 60.8303976,55.3515625 C61.2027953,55.7239602 61.6809806,55.9990225 62.2649679,56.1767578 C62.8489552,56.3544931 63.4498607,56.4433594 64.0677023,56.4433594 C64.8378884,56.4433594 65.5911361,56.3058282 66.3274679,56.0307617 C67.0637997,55.7556952 67.6689369,55.3409858 68.1428976,54.7866211 C68.6168583,54.2322563 68.8538351,53.5615274 68.8538351,52.7744141 C68.8538351,52.4358707 68.7967068,52.1629242 68.6824484,51.9555664 C68.56819,51.7482086 68.3671829,51.5916346 68.079421,51.4858398 C67.7916592,51.380045 67.389645,51.3271484 66.8733664,51.3271484 L62.0364523,51.3271484 C61.4778558,51.6149103 61.0441036,51.9999976 60.7351828,52.4824219 L60.7351828,52.4824219 Z M82.3398347,39 C83.2242792,39.4993515 83.9225144,40.2758736 84.4345613,41.3295898 C84.9466081,42.383306 85.2026277,43.7141847 85.2026277,45.3222656 C85.2026277,46.9303466 84.9466081,48.2591093 84.4345613,49.3085938 C83.9225144,50.3580782 83.2242792,51.1303686 82.3398347,51.6254883 C81.4553902,52.1206079 80.4418912,52.3681641 79.2993073,52.3681641 C78.1567235,52.3681641 77.1432245,52.1206079 76.25878,51.6254883 C75.3743355,51.1303686 74.6761003,50.3580782 74.1640534,49.3085938 C73.6520066,48.2591093 73.395987,46.9303466 73.395987,45.3222656 C73.395987,43.7141847 73.6520066,42.383306 74.1640534,41.3295898 C74.6761003,40.2758736 75.3743355,39.4993515 76.25878,39 C77.1432245,38.5006485 78.1567235,38.2509766 79.2993073,38.2509766 C80.4418912,38.2509766 81.4553902,38.5006485 82.3398347,39 L82.3398347,39 Z M76.8300691,40.3710938 C76.2249228,41.4375053 75.9223542,43.0878795 75.9223542,45.3222656 C75.9223542,47.5481882 76.2249228,49.1922147 76.8300691,50.2543945 C77.4352153,51.3165743 78.2582865,51.8476562 79.2993073,51.8476562 C80.3403282,51.8476562 81.1633994,51.3165743 81.7685456,50.2543945 C82.3736919,49.1922147 82.6762605,47.5481882 82.6762605,45.3222656 C82.6762605,43.0878795 82.3736919,41.4375053 81.7685456,40.3710938 C81.1633994,39.3046822 80.3403282,38.7714844 79.2993073,38.7714844 C78.2582865,38.7714844 77.4352153,39.3046822 76.8300691,40.3710938 L76.8300691,40.3710938 Z M98.654119,33.6806641 L99.2888846,33.6679688 C101.675615,33.6171872 102.983219,33.5917969 103.211736,33.5917969 C106.275554,33.5917969 108.571266,34.3577397 110.098943,35.8896484 C111.62662,37.4215571 112.390447,39.6559098 112.390447,42.5927734 C112.390447,44.4801527 112.020171,46.1326427 111.279607,47.550293 C110.539044,48.9679433 109.462069,50.063961 108.04865,50.8383789 C106.635232,51.6127968 104.946772,52 102.983221,52 C102.74624,52 102.181304,51.9873048 101.288396,51.9619141 C100.395488,51.9365233 99.7459179,51.9238281 99.3396659,51.9238281 C97.9177838,51.9238281 96.8429247,51.9492185 96.1150565,52 L96.1150565,51.4794922 C96.7413617,51.4541014 97.1962725,51.3863938 97.4798026,51.2763672 C97.7633327,51.1663406 97.9579922,50.9632176 98.063787,50.6669922 C98.1695818,50.3707667 98.2224784,49.8968132 98.2224784,49.2451172 L98.2224784,36.3466797 C98.2224784,35.6949837 98.1695818,35.2210301 98.063787,34.9248047 C97.9579922,34.6285792 97.7633327,34.4254563 97.4798026,34.3154297 C97.1962725,34.2054031 96.7413617,34.1376954 96.1150565,34.1123047 L96.1150565,33.5917969 C97.0460508,33.651042 97.8923965,33.6806641 98.654119,33.6806641 L98.654119,33.6806641 Z M100.786932,50.6987305 C100.888495,51.0076513 101.076806,51.2234694 101.351873,51.3461914 C101.626939,51.4689134 102.039533,51.5302734 102.589666,51.5302734 C104.434727,51.5302734 105.881978,51.1959669 106.931463,50.5273438 C107.980947,49.8587206 108.719384,48.8833072 109.146795,47.6010742 C109.574206,46.3188412 109.787908,44.6832782 109.787908,42.6943359 C109.787908,40.6969301 109.555163,39.0698305 109.089666,37.8129883 C108.624169,36.5561461 107.864574,35.6167023 106.810857,34.9946289 C105.757141,34.3725555 104.341628,34.0615234 102.564275,34.0615234 C102.022606,34.0615234 101.61636,34.1228835 101.345525,34.2456055 C101.074691,34.3683274 100.888495,34.5862615 100.786932,34.8994141 C100.685369,35.2125667 100.634588,35.6780568 100.634588,36.2958984 L100.634588,49.2958984 C100.634588,49.9222037 100.685369,50.3898097 100.786932,50.6987305 L100.786932,50.6987305 Z M125.952619,50.5844727 C125.50828,51.1134467 124.953924,51.5429671 124.289533,51.8730469 C123.625141,52.2031267 122.882473,52.3681641 122.061505,52.3681641 C120.825822,52.3681641 119.757311,52.0867541 118.855939,51.5239258 C117.954567,50.9610974 117.266911,50.1697642 116.792951,49.1499023 C116.31899,48.1300405 116.082013,46.9557358 116.082013,45.6269531 C116.082013,44.1204352 116.323222,42.8128311 116.805646,41.7041016 C117.28807,40.5953721 117.971494,39.7426788 118.855939,39.1459961 C119.740383,38.5493134 120.775041,38.2509766 121.959943,38.2509766 C123.517242,38.2509766 124.716937,38.7228143 125.559064,39.6665039 C126.401191,40.6101935 126.822248,42.0426336 126.822248,43.9638672 L118.697248,43.9638672 C118.638002,44.4124371 118.60838,44.9667936 118.60838,45.6269531 C118.60838,46.769537 118.796692,47.7682249 119.173322,48.6230469 C119.549951,49.4778689 120.042948,50.1337868 120.652326,50.5908203 C121.261704,51.0478538 121.904926,51.2763672 122.582013,51.2763672 C124.325511,51.2763672 125.599262,50.4088628 126.403302,48.6738281 L126.92381,48.8769531 C126.720684,49.4863312 126.396957,50.0554987 125.952619,50.5844727 L125.952619,50.5844727 Z M124.105451,41.0947266 C123.927715,40.3753219 123.648421,39.8040386 123.26756,39.3808594 C122.886699,38.9576802 122.416977,38.7460938 121.85838,38.7460938 C121.325175,38.7460938 120.834294,38.9174788 120.385724,39.2602539 C119.937154,39.6030291 119.558414,40.1277634 119.249494,40.8344727 C118.940573,41.5411819 118.743797,42.4192656 118.659162,43.46875 L124.321271,43.46875 C124.355125,42.6054644 124.283186,41.8141312 124.105451,41.0947266 L124.105451,41.0947266 Z M131.783345,49.6386719 C132.020325,50.3326858 132.384254,50.874347 132.875142,51.2636719 C133.366029,51.6529967 134.026179,51.8476562 134.85561,51.8476562 C135.236472,51.8476562 135.602516,51.7651375 135.953755,51.6000977 C136.304994,51.4350578 136.594867,51.1684589 136.823384,50.800293 C137.051901,50.4321271 137.166157,49.9560576 137.166157,49.3720703 C137.166157,48.8981096 137.045553,48.4728209 136.804341,48.0961914 C136.563129,47.7195619 136.247865,47.3810236 135.85854,47.0805664 C135.469215,46.7801092 134.923322,46.4098329 134.220845,45.9697266 C133.366023,45.4280572 132.712221,44.9837257 132.259419,44.6367188 C131.806617,44.2897118 131.423646,43.866539 131.110493,43.3671875 C130.797341,42.867836 130.640767,42.2796258 130.640767,41.6025391 C130.640767,40.8662073 130.814267,40.246259 131.161274,39.7426758 C131.508281,39.2390925 131.971656,38.8645846 132.551411,38.6191406 C133.131167,38.3736967 133.776505,38.2509766 134.487446,38.2509766 C135.096824,38.2509766 135.644833,38.3483063 136.131489,38.5429688 C136.618145,38.7376312 137.013812,38.9576811 137.318501,39.203125 C137.5047,39.3470059 137.657042,39.4189453 137.775532,39.4189453 C138.080221,39.4189453 138.274881,39.0380897 138.359517,38.2763672 L138.956196,38.2763672 C138.888488,39.1227256 138.854634,40.5953671 138.854634,42.6943359 L138.257954,42.6943359 C138.071755,41.5517521 137.703595,40.6080766 137.153462,39.8632812 C136.603329,39.1184859 135.790837,38.7460938 134.715962,38.7460938 C134.089657,38.7460938 133.577618,38.9217105 133.179829,39.2729492 C132.782041,39.624188 132.583149,40.1129526 132.583149,40.7392578 C132.583149,41.3401723 132.788388,41.8416321 133.198872,42.2436523 C133.609356,42.6456726 134.104468,43.028644 134.684224,43.3925781 C135.263979,43.7565122 135.676573,44.0188794 135.922017,44.1796875 C136.717594,44.6959661 137.3587,45.1551087 137.845356,45.5571289 C138.332013,45.9591491 138.725563,46.4204076 139.026021,46.940918 C139.326478,47.4614284 139.476704,48.0559862 139.476704,48.7246094 C139.476704,49.4947955 139.275697,50.1528293 138.873677,50.6987305 C138.471657,51.2446316 137.932111,51.659341 137.255024,51.9428711 C136.577938,52.2264012 135.837385,52.3681641 135.033345,52.3681641 C134.263159,52.3681641 133.577619,52.2454439 132.976704,52 C132.638161,51.8307283 132.282696,51.5979833 131.910298,51.3017578 C131.842589,51.2340491 131.762186,51.2001953 131.669087,51.2001953 C131.415179,51.2001953 131.237447,51.5260384 131.135884,52.1777344 L130.539204,52.1777344 C130.606913,51.187495 130.640767,49.4567181 130.640767,46.9853516 L131.237446,46.9853516 C131.3644,48.0602267 131.546364,48.944658 131.783345,49.6386719 L131.783345,49.6386719 Z M146.304012,32.3349609 C146.55792,32.4873054 146.761043,32.6904284 146.913387,32.9443359 C147.065732,33.1982435 147.141903,33.4733058 147.141903,33.7695312 C147.141903,34.0657567 147.065732,34.3429349 146.913387,34.6010742 C146.761043,34.8592135 146.55792,35.0623365 146.304012,35.2104492 C146.050105,35.3585619 145.775042,35.4326172 145.478817,35.4326172 C145.182592,35.4326172 144.905413,35.3585619 144.647274,35.2104492 C144.389135,35.0623365 144.186012,34.8592135 144.037899,34.6010742 C143.889786,34.3429349 143.815731,34.0657567 143.815731,33.7695312 C143.815731,33.4733058 143.889786,33.1982435 144.037899,32.9443359 C144.186012,32.6904284 144.389135,32.4873054 144.647274,32.3349609 C144.905413,32.1826164 145.182592,32.1064453 145.478817,32.1064453 C145.775042,32.1064453 146.050105,32.1826164 146.304012,32.3349609 L146.304012,32.3349609 Z M147.021297,50.7177734 C147.152483,50.9886081 147.359838,51.1790359 147.643368,51.2890625 C147.926898,51.3990891 148.314101,51.4541016 148.804989,51.4541016 L148.804989,52 C147.213835,51.9322913 146.164366,51.8984375 145.656551,51.8984375 C145.148736,51.8984375 144.099268,51.9322913 142.508114,52 L142.508114,51.4541016 C142.999002,51.4541016 143.386205,51.3990891 143.669735,51.2890625 C143.953265,51.1790359 144.16062,50.9886081 144.291805,50.7177734 C144.422991,50.4469388 144.488583,50.0703149 144.488583,49.5878906 L144.488583,41.4501953 C144.488583,40.6461548 144.342588,40.0621763 144.050594,39.6982422 C143.758601,39.3343081 143.244446,39.1523438 142.508114,39.1523438 L142.508114,38.6064453 C143.049783,38.6572268 143.587213,38.6826172 144.120419,38.6826172 C145.220684,38.6826172 146.122043,38.5641288 146.82452,38.3271484 L146.82452,49.5878906 C146.82452,50.0703149 146.890112,50.4469388 147.021297,50.7177734 L147.021297,50.7177734 Z M162.595676,49.7148438 C163.158504,50.095705 163.439914,50.7093057 163.439914,51.5556641 C163.439914,52.3850953 163.171199,53.2102824 162.633762,54.03125 C162.096324,54.8522176 161.279601,55.5335259 160.183567,56.0751953 C159.087532,56.6168647 157.74819,56.8876953 156.1655,56.8876953 C155.259897,56.8876953 154.407203,56.7967131 153.607395,56.6147461 C152.807586,56.432779 152.162247,56.1619484 151.67136,55.8022461 C151.180472,55.4425438 150.935031,55.0087916 150.935031,54.5009766 C150.935031,53.9085257 151.246063,53.3351265 151.868137,52.7807617 C152.49021,52.226397 153.266732,51.7418641 154.197727,51.3271484 L154.10886,51.3271484 C153.4487,51.3271484 152.84991,51.1875014 152.312473,50.9082031 C151.775035,50.6289049 151.50632,50.1084022 151.50632,49.3466797 C151.50632,48.7542288 151.751761,48.1914089 152.242649,47.6582031 C152.733536,47.1249973 153.571419,46.5917995 154.75632,46.0585938 C153.994598,45.7623683 153.402156,45.3053416 152.978977,44.6875 C152.555798,44.0696584 152.344211,43.2910203 152.344211,42.3515625 C152.344211,40.9804619 152.782195,39.9542677 153.658176,39.2729492 C154.534157,38.5916307 155.695766,38.2509766 157.143039,38.2509766 C157.820126,38.2509766 158.433727,38.3271477 158.98386,38.4794922 C159.153131,37.5146436 159.457816,36.744469 159.897922,36.1689453 C160.363419,35.5934216 160.955861,35.3056641 161.675266,35.3056641 C162.106909,35.3056641 162.443331,35.4326159 162.684543,35.6865234 C162.925755,35.940431 163.04636,36.2662741 163.04636,36.6640625 C163.04636,37.019533 162.927871,37.315754 162.690891,37.5527344 C162.45391,37.7897147 162.157689,37.9082031 161.802219,37.9082031 C161.362113,37.9082031 161.044733,37.7749037 160.85007,37.5083008 C160.655408,37.2416979 160.511529,36.8291044 160.41843,36.2705078 C160.164522,36.4990246 159.931777,36.9221974 159.720188,37.5400391 C159.593234,37.9209003 159.504368,38.2805973 159.453586,38.6191406 C160.240699,38.9069025 160.8543,39.3618133 161.294406,39.9838867 C161.734513,40.6059601 161.954563,41.3951775 161.954563,42.3515625 C161.954563,43.2740932 161.747208,44.0421519 161.332492,44.6557617 C160.917777,45.2693716 160.350725,45.7242824 159.63132,46.0205078 C158.911916,46.3167333 158.082497,46.4648438 157.143039,46.4648438 C156.440562,46.4648438 155.801571,46.3844409 155.226047,46.2236328 C154.52357,46.5960305 153.984024,46.9409164 153.607395,47.2583008 C153.230765,47.5756852 153.042453,47.9163393 153.042453,48.2802734 C153.042453,48.5680353 153.139783,48.7838534 153.334445,48.9277344 C153.529108,49.0716153 153.846488,49.1435547 154.286594,49.1435547 L160.393039,49.1435547 C161.298643,49.1435547 162.032848,49.3339825 162.595676,49.7148438 L162.595676,49.7148438 Z M155.384738,39.5395508 C154.982718,40.0939155 154.781711,41.0312434 154.781711,42.3515625 C154.781711,43.6718816 154.982718,44.6092095 155.384738,45.1635742 C155.786759,45.717939 156.372853,45.9951172 157.143039,45.9951172 C157.921689,45.9951172 158.512015,45.7200548 158.914035,45.1699219 C159.316056,44.6197889 159.517063,43.6803452 159.517063,42.3515625 C159.517063,41.0227798 159.316056,40.0833361 158.914035,39.5332031 C158.512015,38.9830702 157.921689,38.7080078 157.143039,38.7080078 C156.372853,38.7080078 155.786759,38.985186 155.384738,39.5395508 L155.384738,39.5395508 Z M153.531223,52.4824219 C153.222302,52.9648462 153.067844,53.4557267 153.067844,53.9550781 C153.067844,54.5136747 153.25404,54.9791648 153.626438,55.3515625 C153.998835,55.7239602 154.477021,55.9990225 155.061008,56.1767578 C155.644995,56.3544931 156.245901,56.4433594 156.863742,56.4433594 C157.633928,56.4433594 158.387176,56.3058282 159.123508,56.0307617 C159.85984,55.7556952 160.464977,55.3409858 160.938938,54.7866211 C161.412898,54.2322563 161.649875,53.5615274 161.649875,52.7744141 C161.649875,52.4358707 161.592747,52.1629242 161.478488,51.9555664 C161.36423,51.7482086 161.163223,51.5916346 160.875461,51.4858398 C160.587699,51.380045 160.185685,51.3271484 159.669406,51.3271484 L154.832492,51.3271484 C154.273896,51.6149103 153.840144,51.9999976 153.531223,52.4824219 L153.531223,52.4824219 Z M171.847789,38.9936523 C172.622207,38.4985327 173.496059,38.2509766 174.469371,38.2509766 C175.679663,38.2509766 176.597948,38.5768197 177.224254,39.2285156 C177.54587,39.5839862 177.776499,40.0219701 177.916148,40.5424805 C178.055797,41.0629909 178.125621,41.763342 178.125621,42.6435547 L178.125621,49.5878906 C178.125621,50.0703149 178.191213,50.4469388 178.322398,50.7177734 C178.453584,50.9886081 178.660938,51.1790359 178.944468,51.2890625 C179.227999,51.3990891 179.615202,51.4541016 180.10609,51.4541016 L180.10609,52 C178.514936,51.9322913 177.473931,51.8984375 176.983043,51.8984375 C176.500618,51.8984375 175.531553,51.9322913 174.075816,52 L174.075816,51.4541016 C174.507459,51.4541016 174.843881,51.3990891 175.085093,51.2890625 C175.326306,51.1790359 175.504038,50.9886081 175.618297,50.7177734 C175.732555,50.4469388 175.789683,50.0703149 175.789683,49.5878906 L175.789683,42.0722656 C175.789683,41.4459604 175.741018,40.9212261 175.643687,40.4980469 C175.546356,40.0748677 175.343233,39.7320977 175.034312,39.4697266 C174.725391,39.2073555 174.274712,39.0761719 173.682261,39.0761719 C172.97132,39.0761719 172.338677,39.2835266 171.784312,39.6982422 C171.229947,40.1129578 170.800427,40.6821253 170.495738,41.4057617 C170.191049,42.1293981 170.038707,42.9313107 170.038707,43.8115234 L170.038707,49.5878906 C170.038707,50.0703149 170.095835,50.4469388 170.210093,50.7177734 C170.324352,50.9886081 170.5042,51.1790359 170.749644,51.2890625 C170.995088,51.3990891 171.333626,51.4541016 171.765269,51.4541016 L171.765269,52 C170.309533,51.9322913 169.336235,51.8984375 168.845347,51.8984375 C168.35446,51.8984375 167.313454,51.9322913 165.722301,52 L165.722301,51.4541016 C166.213188,51.4541016 166.600392,51.3990891 166.883922,51.2890625 C167.167452,51.1790359 167.374806,50.9886081 167.505992,50.7177734 C167.637177,50.4469388 167.702769,50.0703149 167.702769,49.5878906 L167.702769,41.4501953 C167.702769,40.6461548 167.556775,40.0621763 167.264781,39.6982422 C166.972787,39.3343081 166.458632,39.1523438 165.722301,39.1523438 L165.722301,38.6064453 C166.26397,38.6572268 166.801399,38.6826172 167.334605,38.6826172 C168.434871,38.6826172 169.336229,38.5641288 170.038707,38.3271484 L170.038707,41.3867188 C170.47035,40.2864528 171.073371,39.488772 171.847789,38.9936523 L171.847789,38.9936523 Z" id="Logo-Design" fill="#000000"></path>
                </g>
            </g>
        </g>
    </g>
</svg>