<?xml version="1.0" encoding="UTF-8" standalone="no"?>
<svg width="1020px" height="550px" viewBox="0 0 1020 550" version="1.1" xmlns="http://www.w3.org/2000/svg" xmlns:xlink="http://www.w3.org/1999/xlink" xmlns:sketch="http://www.bohemiancoding.com/sketch/ns">
    <!-- Generator: Sketch 3.5 (25232) - http://www.bohemiancoding.com/sketch -->
    <title>Artboard 7</title>
    <desc>Created with Sketch.</desc>
    <defs>
        <path id="path-1" d="M353.565333,323.136823 C353.565333,323.136823 350.662767,321.273647 346.331383,323.136823 C342,325 338.822469,323.136823 338.822469,323.136823"></path>
        <path id="path-2" d="M353.565333,316.136823 C353.565333,316.136823 350.662767,314.273647 346.331383,316.136823 C342,318 338.822469,316.136823 338.822469,316.136823"></path>
        <path id="path-3" d="M353.565333,330.136823 C353.565333,330.136823 350.662767,328.273647 346.331383,330.136823 C342,332 338.822469,330.136823 338.822469,330.136823"></path>
        <path id="path-4" d="M38.5653325,11.1368235 C38.5653325,11.1368235 35.6627667,9.27364693 31.3313834,11.1368235 C27.0000001,13 23.8224691,11.1368235 23.8224691,11.1368235"></path>
        <path id="path-5" d="M38.5653325,4.13682348 C38.5653325,4.13682348 35.6627667,2.27364693 31.3313834,4.13682347 C27.0000001,6.00000001 23.8224691,4.13682348 23.8224691,4.13682348"></path>
        <path id="path-6" d="M38.5653325,18.1368235 C38.5653325,18.1368235 35.6627667,16.2736469 31.3313834,18.1368235 C27.0000001,20 23.8224691,18.1368235 23.8224691,18.1368235"></path>
    </defs>
    <g id="Welcome" stroke="none" stroke-width="1" fill="none" fill-rule="evenodd" sketch:type="MSPage">
        <g id="Artboard-7" sketch:type="MSArtboardGroup">
            <g id="logo" sketch:type="MSLayerGroup" transform="translate(0.000000, 2.000000)">
                <g id="Rectangle-93-Copy-+-Colored-Logotype-+-colored-logotype-label-prong-+-Colored-Logotype-Copy-+-Group-Copy" transform="translate(47.000000, 0.000000)">
                    <g id="logotype" transform="translate(282.000000, 0.000000)">
                        <rect id="Rectangle-93-Copy" stroke="#9B9B9B" stroke-width="0.5" fill="#FFFFFF" sketch:type="MSShapeGroup" x="0" y="0" width="651" height="430"></rect>
                        <g id="Logotype-Copy" transform="translate(46.300000, 33.000000)">
                            <g id="logo/color">
                                <path d="M378.567784,319.924 C378.567784,323.060016 377.326463,325.085329 374.843784,326 L379.799784,333 L374.423784,333 L370.083784,326.756 L367.059784,326.756 L367.059784,333 L362.691784,333 L362.691784,313.428 L370.111784,313.428 C373.154466,313.428 375.324444,313.941328 376.621784,314.968 C377.919124,315.994672 378.567784,317.646655 378.567784,319.924 L378.567784,319.924 Z M373.303784,322.248 C373.84512,321.762664 374.115784,320.992672 374.115784,319.938 C374.115784,318.883328 373.835787,318.160002 373.275784,317.768 C372.715781,317.375998 371.735791,317.18 370.335784,317.18 L367.059784,317.18 L367.059784,322.976 L370.251784,322.976 C371.745125,322.976 372.762448,322.733336 373.303784,322.248 L373.303784,322.248 Z M390.273056,317.334 C389.853054,317.679335 389.643056,318.136664 389.643056,318.706 C389.643056,319.275336 389.89972,319.727998 390.413056,320.064 C390.926392,320.400002 392.111714,320.796664 393.969056,321.254 C395.826399,321.711336 397.268385,322.397329 398.295056,323.312 C399.321728,324.226671 399.835056,325.561325 399.835056,327.316 C399.835056,329.070675 399.177063,330.493995 397.861056,331.586 C396.54505,332.678005 394.813734,333.224 392.667056,333.224 C389.568374,333.224 386.777735,332.076011 384.295056,329.78 L386.899056,326.588 C389.0084,328.436009 390.959047,329.36 392.751056,329.36 C393.553727,329.36 394.183721,329.187335 394.641056,328.842 C395.098392,328.496665 395.327056,328.030003 395.327056,327.442 C395.327056,326.853997 395.084392,326.387335 394.599056,326.042 C394.113721,325.696665 393.152397,325.346668 391.715056,324.992 C389.437712,324.450664 387.771728,323.746004 386.717056,322.878 C385.662384,322.009996 385.135056,320.647343 385.135056,318.79 C385.135056,316.932657 385.802383,315.500005 387.137056,314.492 C388.47173,313.483995 390.137713,312.98 392.135056,312.98 C393.44173,312.98 394.748383,313.203998 396.055056,313.652 C397.36173,314.100002 398.500385,314.734663 399.471056,315.556 L397.259056,318.748 C395.560381,317.459994 393.805732,316.816 391.995056,316.816 C391.267053,316.816 390.693058,316.988665 390.273056,317.334 L390.273056,317.334 Z M419.688329,315.178 C421.060336,316.344673 421.746329,318.136655 421.746329,320.554 C421.746329,322.971345 421.041669,324.739994 419.632329,325.86 C418.222989,326.980006 416.071677,327.54 413.178329,327.54 L410.574329,327.54 L410.574329,333 L406.206329,333 L406.206329,313.428 L413.122329,313.428 C416.127677,313.428 418.316322,314.011327 419.688329,315.178 L419.688329,315.178 Z M416.482329,322.878 C417.004998,322.289997 417.266329,321.431339 417.266329,320.302 C417.266329,319.172661 416.925666,318.370002 416.244329,317.894 C415.562992,317.417998 414.503669,317.18 413.066329,317.18 L410.574329,317.18 L410.574329,323.76 L413.514329,323.76 C414.970336,323.76 415.95966,323.466003 416.482329,322.878 L416.482329,322.878 Z M441.921602,313.428 L441.921602,317.32 L432.177602,317.32 L432.177602,321.352 L440.941602,321.352 L440.941602,325.076 L432.177602,325.076 L432.177602,329.136 L442.229602,329.136 L442.229602,333 L427.809602,333 L427.809602,313.428 L441.921602,313.428 Z M448.768874,313.428 L453.136874,313.428 L453.136874,321.464 L460.528874,313.428 L465.932874,313.428 L458.148874,322.08 C458.820877,323.013338 460.062198,324.753987 461.872874,327.302 C463.68355,329.850013 465.03687,331.749327 465.932874,333 L460.836874,333 L455.096874,325.272 L453.136874,327.456 L453.136874,333 L448.768874,333 L448.768874,313.428 Z M479.584147,317.208 L479.584147,333 L475.216147,333 L475.216147,317.208 L469.672147,317.208 L469.672147,313.428 L485.128147,313.428 L485.128147,317.208 L479.584147,317.208 Z M490.967419,313.428 L495.335419,313.428 L495.335419,333 L490.967419,333 L490.967419,313.428 Z M510.022692,325.888 L515.006692,313.428 L519.738692,313.428 L511.870692,333 L508.174692,333 L500.306692,313.428 L505.038692,313.428 L510.022692,325.888 Z" id="RSPEKTIV" fill="#467890" sketch:type="MSShapeGroup"></path>
                                <path d="M328.89,315.178 C330.262007,316.344672 330.948,318.136655 330.948,320.554 C330.948,322.971345 330.24334,324.739994 328.834,325.86 C327.42466,326.980006 325.273348,327.54 322.38,327.54 L319.776,327.54 L319.776,333 L315.408,333 L315.408,313.428 L322.324,313.428 C325.329348,313.428 327.517993,314.011327 328.89,315.178 L328.89,315.178 Z M325.684,322.878 C326.206669,322.289997 326.468,321.431339 326.468,320.302 C326.468,319.172661 326.127337,318.370002 325.446,317.894 C324.764663,317.417998 323.705341,317.18 322.268,317.18 L319.776,317.18 L319.776,323.76 L322.716,323.76 C324.172007,323.76 325.161331,323.466003 325.684,322.878 L325.684,322.878 Z" id="P" fill="#467890" sketch:type="MSShapeGroup"></path>
                                <g id="Line-Copy-16">
                                    <use stroke="#263B64" stroke-width="3.3" stroke-linecap="square" sketch:type="MSShapeGroup" xlink:href="#path-1"></use>
                                    <use stroke="none" xlink:href="#path-1"></use>
                                </g>
                                <g id="Line-Copy-18">
                                    <use stroke="#263B64" stroke-width="3.3" stroke-linecap="square" sketch:type="MSShapeGroup" xlink:href="#path-2"></use>
                                    <use stroke="none" xlink:href="#path-2"></use>
                                </g>
                                <g id="Line-Copy-17">
                                    <use stroke="#263B64" stroke-width="3.3" stroke-linecap="square" sketch:type="MSShapeGroup" xlink:href="#path-3"></use>
                                    <use stroke="none" xlink:href="#path-3"></use>
                                </g>
                                <g id="colored-logotype-label-prong" transform="translate(237.000000, 303.000000)" stroke="#333333" stroke-linecap="square" sketch:type="MSShapeGroup">
                                    <path d="M0.473702431,19.5 L19.5,19.5" id="Line"></path>
                                    <path d="M20.5,36.5 L37.5,36.5" id="Line-Copy"></path>
                                    <path d="M19.5,1.5 L37.5,1.5" id="Line-Copy-2"></path>
                                    <path d="M19.5,1.5 L19.5,36.5" id="Line"></path>
                                </g>
                                <path d="M107.427,325.482 C106.77833,325.920669 106.006004,326.14 105.11,326.14 C104.260662,326.14 103.51867,325.946335 102.884,325.559 C102.24933,325.171665 101.759335,324.61867 101.414,323.9 C101.068665,323.18133 100.896,322.341338 100.896,321.38 C100.896,320.418662 101.068665,319.57867 101.414,318.86 C101.759335,318.14133 102.24933,317.588335 102.884,317.201 C103.51867,316.813665 104.255996,316.62 105.096,316.62 C106.934676,316.62 108.129331,317.371326 108.68,318.874 L107.896,319.238 C107.681332,318.612664 107.347669,318.143668 106.895,317.831 C106.442331,317.518332 105.861337,317.362 105.152,317.362 C104.470663,317.362 103.871003,317.522998 103.353,317.845 C102.834997,318.167002 102.433668,318.63133 102.149,319.238 C101.864332,319.84467 101.722,320.558663 101.722,321.38 C101.722,322.201337 101.861999,322.91533 102.142,323.522 C102.422001,324.12867 102.816331,324.592998 103.325,324.915 C103.833669,325.237002 104.428663,325.398 105.11,325.398 C105.82867,325.398 106.442331,325.223002 106.951,324.873 C107.459669,324.522998 107.816666,324.01667 108.022,323.354 L108.806,323.648 C108.535332,324.432004 108.07567,325.043331 107.427,325.482 L107.427,325.482 Z M115.981,319.826 C116.57367,320.470003 116.87,321.361328 116.87,322.5 C116.87,323.638672 116.57367,324.529997 115.981,325.174 C115.38833,325.818003 114.569339,326.14 113.524,326.14 C112.478661,326.14 111.65967,325.818003 111.067,325.174 C110.47433,324.529997 110.178,323.638672 110.178,322.5 C110.178,321.361328 110.47433,320.470003 111.067,319.826 C111.65967,319.181997 112.478661,318.86 113.524,318.86 C114.569339,318.86 115.38833,319.181997 115.981,319.826 L115.981,319.826 Z M111.655,320.337 C111.202331,320.864336 110.976,321.585329 110.976,322.5 C110.976,323.414671 111.202331,324.135664 111.655,324.663 C112.107669,325.190336 112.730663,325.454 113.524,325.454 C114.317337,325.454 114.940331,325.190336 115.393,324.663 C115.845669,324.135664 116.072,323.414671 116.072,322.5 C116.072,321.585329 115.845669,320.864336 115.393,320.337 C114.940331,319.809664 114.317337,319.546 113.524,319.546 C112.730663,319.546 112.107669,319.809664 111.655,320.337 L111.655,320.337 Z M119.684,324.264 C119.684,324.674669 119.749333,324.963999 119.88,325.132 C120.010667,325.300001 120.229998,325.384 120.538,325.384 C120.724668,325.384 120.883333,325.37 121.014,325.342 C121.144667,325.314 121.303332,325.262667 121.49,325.188 L121.364,325.958 C121.093332,326.079334 120.776002,326.14 120.412,326.14 C119.898664,326.14 119.516001,325.995335 119.264,325.706 C119.011999,325.416665 118.886,324.964003 118.886,324.348 L118.886,315.78 L119.684,315.78 L119.684,324.264 Z M128.189,319.826 C128.78167,320.470003 129.078,321.361328 129.078,322.5 C129.078,323.638672 128.78167,324.529997 128.189,325.174 C127.59633,325.818003 126.777339,326.14 125.732,326.14 C124.686661,326.14 123.86767,325.818003 123.275,325.174 C122.68233,324.529997 122.386,323.638672 122.386,322.5 C122.386,321.361328 122.68233,320.470003 123.275,319.826 C123.86767,319.181997 124.686661,318.86 125.732,318.86 C126.777339,318.86 127.59633,319.181997 128.189,319.826 L128.189,319.826 Z M123.863,320.337 C123.410331,320.864336 123.184,321.585329 123.184,322.5 C123.184,323.414671 123.410331,324.135664 123.863,324.663 C124.315669,325.190336 124.938663,325.454 125.732,325.454 C126.525337,325.454 127.148331,325.190336 127.601,324.663 C128.053669,324.135664 128.28,323.414671 128.28,322.5 C128.28,321.585329 128.053669,320.864336 127.601,320.337 C127.148331,319.809664 126.525337,319.546 125.732,319.546 C124.938663,319.546 124.315669,319.809664 123.863,320.337 L123.863,320.337 Z M135.028,319.07 L134.832,319.826 C134.598665,319.676666 134.304668,319.602 133.95,319.602 C133.613998,319.602 133.292002,319.706999 132.984,319.917 C132.675998,320.127001 132.426334,320.423331 132.235,320.806 C132.043666,321.188669 131.948,321.622664 131.948,322.108 L131.948,326 L131.15,326 L131.15,319 L131.822,319 L131.92,320.358 C132.106668,319.881998 132.391331,319.513335 132.774,319.252 C133.156669,318.990665 133.623331,318.86 134.174,318.86 C134.528668,318.86 134.813332,318.929999 135.028,319.07 L135.028,319.07 Z M142.07,322.822 L136.582,322.822 C136.628667,323.643337 136.873664,324.284998 137.317,324.747 C137.760336,325.209002 138.35533,325.44 139.102,325.44 C139.643336,325.44 140.107665,325.332668 140.495,325.118 C140.882335,324.903332 141.159999,324.600002 141.328,324.208 L141.986,324.558 C141.435331,325.612672 140.474007,326.14 139.102,326.14 C138.065995,326.14 137.254003,325.818003 136.666,325.174 C136.077997,324.529997 135.784,323.638672 135.784,322.5 C135.784,321.361328 136.068664,320.470003 136.638,319.826 C137.207336,319.181997 138.005328,318.86 139.032,318.86 C139.66667,318.86 140.214998,319.006999 140.677,319.301 C141.139002,319.595001 141.491332,320.000997 141.734,320.519 C141.976668,321.037003 142.098,321.62733 142.098,322.29 C142.098,322.458001 142.088667,322.635332 142.07,322.822 L142.07,322.822 Z M137.303,320.225 C136.878331,320.668336 136.638,321.295996 136.582,322.108 L141.342,322.108 C141.286,321.305329 141.057335,320.680002 140.656,320.232 C140.254665,319.783998 139.713337,319.56 139.032,319.56 C138.303996,319.56 137.727669,319.781664 137.303,320.225 L137.303,320.225 Z M150.204,315.78 L150.204,326 L149.49,326 L149.448,324.53 C149.242666,325.024669 148.913669,325.416665 148.461,325.706 C148.008331,325.995335 147.483336,326.14 146.886,326.14 C145.896662,326.14 145.117336,325.818003 144.548,325.174 C143.978664,324.529997 143.694,323.638672 143.694,322.5 C143.694,321.361328 143.978664,320.470003 144.548,319.826 C145.117336,319.181997 145.896662,318.86 146.886,318.86 C147.474003,318.86 147.987331,318.995332 148.426,319.266 C148.864669,319.536668 149.191332,319.909998 149.406,320.386 L149.406,315.78 L150.204,315.78 Z M148.699,324.726 C149.133002,324.249998 149.368666,323.596671 149.406,322.766 L149.406,322.234 C149.368666,321.403329 149.133002,320.750002 148.699,320.274 C148.264998,319.797998 147.693337,319.56 146.984,319.56 C146.199996,319.56 145.588669,319.821331 145.15,320.344 C144.711331,320.866669 144.492,321.585329 144.492,322.5 C144.492,323.414671 144.711331,324.133331 145.15,324.656 C145.588669,325.178669 146.199996,325.44 146.984,325.44 C147.693337,325.44 148.264998,325.202002 148.699,324.726 L148.699,324.726 Z M163.672,325.258 L163.672,326 L157.4,326 L157.4,316.76 L158.198,316.76 L158.198,325.258 L163.672,325.258 Z M170.231,319.826 C170.82367,320.470003 171.12,321.361328 171.12,322.5 C171.12,323.638672 170.82367,324.529997 170.231,325.174 C169.63833,325.818003 168.819339,326.14 167.774,326.14 C166.728661,326.14 165.90967,325.818003 165.317,325.174 C164.72433,324.529997 164.428,323.638672 164.428,322.5 C164.428,321.361328 164.72433,320.470003 165.317,319.826 C165.90967,319.181997 166.728661,318.86 167.774,318.86 C168.819339,318.86 169.63833,319.181997 170.231,319.826 L170.231,319.826 Z M165.905,320.337 C165.452331,320.864336 165.226,321.585329 165.226,322.5 C165.226,323.414671 165.452331,324.135664 165.905,324.663 C166.357669,325.190336 166.980663,325.454 167.774,325.454 C168.567337,325.454 169.190331,325.190336 169.643,324.663 C170.095669,324.135664 170.322,323.414671 170.322,322.5 C170.322,321.585329 170.095669,320.864336 169.643,320.337 C169.190331,319.809664 168.567337,319.546 167.774,319.546 C166.980663,319.546 166.357669,319.809664 165.905,320.337 L165.905,320.337 Z M178.456,325.685 C178.857335,325.979001 179.058,326.368664 179.058,326.854 C179.058,327.283335 178.913335,327.661332 178.624,327.988 C178.334665,328.314668 177.935669,328.566666 177.427,328.744 C176.918331,328.921334 176.337337,329.01 175.684,329.01 C174.619995,329.01 173.810336,328.839668 173.255,328.499 C172.699664,328.158332 172.422,327.708003 172.422,327.148 C172.422,326.793332 172.529332,326.487668 172.744,326.231 C172.958668,325.974332 173.257331,325.785334 173.64,325.664 C173.369332,325.533333 173.154667,325.363001 172.996,325.153 C172.837333,324.942999 172.758,324.707335 172.758,324.446 C172.758,324.109998 172.865332,323.823001 173.08,323.585 C173.294668,323.346999 173.583998,323.176667 173.948,323.074 C173.583998,322.877999 173.301668,322.616668 173.101,322.29 C172.900332,321.963332 172.8,321.590002 172.8,321.17 C172.8,320.469996 173.061331,319.910002 173.584,319.49 C174.106669,319.069998 174.797329,318.86 175.656,318.86 C176.23467,318.86 176.752664,318.962666 177.21,319.168 C177.275334,318.719998 177.473665,318.365335 177.805,318.104 C178.136335,317.842665 178.539998,317.712 179.016,317.712 L179.198,318.412 C178.759331,318.412 178.411668,318.502999 178.155,318.685 C177.898332,318.867001 177.751334,319.130665 177.714,319.476 C177.966001,319.681334 178.161999,319.928665 178.302,320.218 C178.442001,320.507335 178.512,320.824665 178.512,321.17 C178.512,321.86067 178.250669,322.415998 177.728,322.836 C177.205331,323.256002 176.514671,323.466 175.656,323.466 C175.366665,323.466 175.049335,323.433334 174.704,323.368 C174.321331,323.405334 174.027334,323.512666 173.822,323.69 C173.616666,323.867334 173.514,324.081999 173.514,324.334 C173.514,324.614001 173.637665,324.835666 173.885,324.999 C174.132335,325.162334 174.503331,325.244 174.998,325.244 L176.804,325.244 C177.504003,325.244 178.054665,325.390999 178.456,325.685 L178.456,325.685 Z M174.165,319.973 C173.796331,320.267001 173.612,320.665997 173.612,321.17 C173.612,321.674003 173.793998,322.070665 174.158,322.36 C174.522002,322.649335 175.02133,322.794 175.656,322.794 C176.29067,322.794 176.789998,322.649335 177.154,322.36 C177.518002,322.070665 177.7,321.674003 177.7,321.17 C177.7,320.665997 177.518002,320.267001 177.154,319.973 C176.789998,319.678999 176.29067,319.532 175.656,319.532 C175.030664,319.532 174.533669,319.678999 174.165,319.973 L174.165,319.973 Z M177.637,327.946 C178.099002,327.684665 178.33,327.353335 178.33,326.952 C178.33,326.634665 178.190001,326.385001 177.91,326.203 C177.629999,326.020999 177.205336,325.93 176.636,325.93 L174.83,325.93 C174.316664,325.93 173.908335,326.030332 173.605,326.231 C173.301665,326.431668 173.15,326.695332 173.15,327.022 C173.15,327.432669 173.376331,327.754665 173.829,327.988 C174.281669,328.221334 174.932662,328.338 175.782,328.338 C176.556671,328.338 177.174998,328.207335 177.637,327.946 L177.637,327.946 Z M185.813,319.826 C186.40567,320.470003 186.702,321.361328 186.702,322.5 C186.702,323.638672 186.40567,324.529997 185.813,325.174 C185.22033,325.818003 184.401339,326.14 183.356,326.14 C182.310661,326.14 181.49167,325.818003 180.899,325.174 C180.30633,324.529997 180.01,323.638672 180.01,322.5 C180.01,321.361328 180.30633,320.470003 180.899,319.826 C181.49167,319.181997 182.310661,318.86 183.356,318.86 C184.401339,318.86 185.22033,319.181997 185.813,319.826 L185.813,319.826 Z M181.487,320.337 C181.034331,320.864336 180.808,321.585329 180.808,322.5 C180.808,323.414671 181.034331,324.135664 181.487,324.663 C181.939669,325.190336 182.562663,325.454 183.356,325.454 C184.149337,325.454 184.772331,325.190336 185.225,324.663 C185.677669,324.135664 185.904,323.414671 185.904,322.5 C185.904,321.585329 185.677669,320.864336 185.225,320.337 C184.772331,319.809664 184.149337,319.546 183.356,319.546 C182.562663,319.546 181.939669,319.809664 181.487,320.337 L181.487,320.337 Z M192.596,325.552 C192.175998,325.944002 191.630003,326.14 190.958,326.14 C190.388664,326.14 189.938335,325.983668 189.607,325.671 C189.275665,325.358332 189.11,324.88467 189.11,324.25 L189.11,319.686 L187.71,319.686 L187.71,319 L189.11,319 L189.11,317.264 L189.908,317.054 L189.908,319 L192.54,319 L192.54,319.686 L189.908,319.686 L189.908,324.124 C189.908,324.544002 190.010666,324.861332 190.216,325.076 C190.421334,325.290668 190.715331,325.398 191.098,325.398 C191.574002,325.398 191.975332,325.225335 192.302,324.88 L192.596,325.552 Z M196.39,327.26 C196.128665,327.904003 195.837002,328.356665 195.515,328.618 C195.192998,328.879335 194.784669,329.01 194.29,329.01 C193.68333,329.01 193.221335,328.832668 192.904,328.478 L193.198,327.792 C193.440668,328.137335 193.799998,328.31 194.276,328.31 C194.593335,328.31 194.863999,328.219001 195.088,328.037 C195.312001,327.854999 195.517332,327.530669 195.704,327.064 L196.138,326 L193.184,319 L194.094,319 L196.152,324.138 L196.516,325.146 L196.922,324.04 L198.882,319 L199.75,319 L196.39,327.26 Z M206.932,319.826 C207.501336,320.470003 207.786,321.361328 207.786,322.5 C207.786,323.638672 207.501336,324.529997 206.932,325.174 C206.362664,325.818003 205.583338,326.14 204.594,326.14 C204.005997,326.14 203.492669,326.004668 203.054,325.734 C202.615331,325.463332 202.288668,325.090002 202.074,324.614 L202.074,328.94 L201.276,328.94 L201.276,319 L201.99,319 L202.032,320.484 C202.237334,319.979997 202.563998,319.583335 203.012,319.294 C203.460002,319.004665 203.98733,318.86 204.594,318.86 C205.583338,318.86 206.362664,319.181997 206.932,319.826 L206.932,319.826 Z M206.33,324.656 C206.768669,324.133331 206.988,323.414671 206.988,322.5 C206.988,321.585329 206.768669,320.866669 206.33,320.344 C205.891331,319.821331 205.280004,319.56 204.496,319.56 C203.786663,319.56 203.210336,319.804998 202.767,320.295 C202.323664,320.785002 202.092667,321.454662 202.074,322.304 L202.074,322.696 C202.092667,323.545338 202.321331,324.214998 202.76,324.705 C203.198669,325.195002 203.77733,325.44 204.496,325.44 C205.280004,325.44 205.891331,325.178669 206.33,324.656 L206.33,324.656 Z M215.71,322.822 L210.222,322.822 C210.268667,323.643337 210.513664,324.284998 210.957,324.747 C211.400336,325.209002 211.99533,325.44 212.742,325.44 C213.283336,325.44 213.747665,325.332668 214.135,325.118 C214.522335,324.903332 214.799999,324.600002 214.968,324.208 L215.626,324.558 C215.075331,325.612672 214.114007,326.14 212.742,326.14 C211.705995,326.14 210.894003,325.818003 210.306,325.174 C209.717997,324.529997 209.424,323.638672 209.424,322.5 C209.424,321.361328 209.708664,320.470003 210.278,319.826 C210.847336,319.181997 211.645328,318.86 212.672,318.86 C213.30667,318.86 213.854998,319.006999 214.317,319.301 C214.779002,319.595001 215.131332,320.000997 215.374,320.519 C215.616668,321.037003 215.738,321.62733 215.738,322.29 C215.738,322.458001 215.728667,322.635332 215.71,322.822 L215.71,322.822 Z M210.943,320.225 C210.518331,320.668336 210.278,321.295996 210.222,322.108 L214.982,322.108 C214.926,321.305329 214.697335,320.680002 214.296,320.232 C213.894665,319.783998 213.353337,319.56 212.672,319.56 C211.943996,319.56 211.367669,319.781664 210.943,320.225 L210.943,320.225 Z" id="Colored-Logotype" fill="#757575" sketch:type="MSShapeGroup"></path>
                                <path d="M237.473702,241.5 L256.5,241.5" id="Line" stroke="#333333" stroke-linecap="square" sketch:type="MSShapeGroup"></path>
                                <path d="M257.5,258.5 L274.5,258.5" id="Line-Copy" stroke="#333333" stroke-linecap="square" sketch:type="MSShapeGroup"></path>
                                <path d="M256.5,223.5 L274.5,223.5" id="Line-Copy-2" stroke="#333333" stroke-linecap="square" sketch:type="MSShapeGroup"></path>
                                <path d="M256.5,223.5 L256.5,258.5" id="Line" stroke="#333333" stroke-linecap="square" sketch:type="MSShapeGroup"></path>
                                <path d="M162.742,244.258 L162.742,245 L156.47,245 L156.47,235.76 L157.268,235.76 L157.268,244.258 L162.742,244.258 Z M169.301,238.826 C169.89367,239.470003 170.19,240.361328 170.19,241.5 C170.19,242.638672 169.89367,243.529997 169.301,244.174 C168.70833,244.818003 167.889339,245.14 166.844,245.14 C165.798661,245.14 164.97967,244.818003 164.387,244.174 C163.79433,243.529997 163.498,242.638672 163.498,241.5 C163.498,240.361328 163.79433,239.470003 164.387,238.826 C164.97967,238.181997 165.798661,237.86 166.844,237.86 C167.889339,237.86 168.70833,238.181997 169.301,238.826 L169.301,238.826 Z M164.975,239.337 C164.522331,239.864336 164.296,240.585329 164.296,241.5 C164.296,242.414671 164.522331,243.135664 164.975,243.663 C165.427669,244.190336 166.050663,244.454 166.844,244.454 C167.637337,244.454 168.260331,244.190336 168.713,243.663 C169.165669,243.135664 169.392,242.414671 169.392,241.5 C169.392,240.585329 169.165669,239.864336 168.713,239.337 C168.260331,238.809664 167.637337,238.546 166.844,238.546 C166.050663,238.546 165.427669,238.809664 164.975,239.337 L164.975,239.337 Z M177.526,244.685 C177.927335,244.979001 178.128,245.368664 178.128,245.854 C178.128,246.283335 177.983335,246.661332 177.694,246.988 C177.404665,247.314668 177.005669,247.566666 176.497,247.744 C175.988331,247.921334 175.407337,248.01 174.754,248.01 C173.689995,248.01 172.880336,247.839668 172.325,247.499 C171.769664,247.158332 171.492,246.708003 171.492,246.148 C171.492,245.793332 171.599332,245.487668 171.814,245.231 C172.028668,244.974332 172.327331,244.785334 172.71,244.664 C172.439332,244.533333 172.224667,244.363001 172.066,244.153 C171.907333,243.942999 171.828,243.707335 171.828,243.446 C171.828,243.109998 171.935332,242.823001 172.15,242.585 C172.364668,242.346999 172.653998,242.176667 173.018,242.074 C172.653998,241.877999 172.371668,241.616668 172.171,241.29 C171.970332,240.963332 171.87,240.590002 171.87,240.17 C171.87,239.469997 172.131331,238.910002 172.654,238.49 C173.176669,238.069998 173.867329,237.86 174.726,237.86 C175.30467,237.86 175.822664,237.962666 176.28,238.168 C176.345334,237.719998 176.543665,237.365335 176.875,237.104 C177.206335,236.842665 177.609998,236.712 178.086,236.712 L178.268,237.412 C177.829331,237.412 177.481668,237.502999 177.225,237.685 C176.968332,237.867001 176.821334,238.130665 176.784,238.476 C177.036001,238.681334 177.231999,238.928665 177.372,239.218 C177.512001,239.507335 177.582,239.824665 177.582,240.17 C177.582,240.86067 177.320669,241.415998 176.798,241.836 C176.275331,242.256002 175.584671,242.466 174.726,242.466 C174.436665,242.466 174.119335,242.433334 173.774,242.368 C173.391331,242.405334 173.097334,242.512666 172.892,242.69 C172.686666,242.867334 172.584,243.081999 172.584,243.334 C172.584,243.614001 172.707665,243.835666 172.955,243.999 C173.202335,244.162334 173.573331,244.244 174.068,244.244 L175.874,244.244 C176.574004,244.244 177.124665,244.390999 177.526,244.685 L177.526,244.685 Z M173.235,238.973 C172.866331,239.267001 172.682,239.665997 172.682,240.17 C172.682,240.674003 172.863998,241.070665 173.228,241.36 C173.592002,241.649335 174.09133,241.794 174.726,241.794 C175.36067,241.794 175.859998,241.649335 176.224,241.36 C176.588002,241.070665 176.77,240.674003 176.77,240.17 C176.77,239.665997 176.588002,239.267001 176.224,238.973 C175.859998,238.678999 175.36067,238.532 174.726,238.532 C174.100664,238.532 173.603669,238.678999 173.235,238.973 L173.235,238.973 Z M176.707,246.946 C177.169002,246.684665 177.4,246.353335 177.4,245.952 C177.4,245.634665 177.260001,245.385001 176.98,245.203 C176.699999,245.020999 176.275336,244.93 175.706,244.93 L173.9,244.93 C173.386664,244.93 172.978335,245.030332 172.675,245.231 C172.371665,245.431668 172.22,245.695332 172.22,246.022 C172.22,246.432669 172.446331,246.754666 172.899,246.988 C173.351669,247.221335 174.002662,247.338 174.852,247.338 C175.626671,247.338 176.244998,247.207335 176.707,246.946 L176.707,246.946 Z M184.883,238.826 C185.47567,239.470003 185.772,240.361328 185.772,241.5 C185.772,242.638672 185.47567,243.529997 184.883,244.174 C184.29033,244.818003 183.471339,245.14 182.426,245.14 C181.380661,245.14 180.56167,244.818003 179.969,244.174 C179.37633,243.529997 179.08,242.638672 179.08,241.5 C179.08,240.361328 179.37633,239.470003 179.969,238.826 C180.56167,238.181997 181.380661,237.86 182.426,237.86 C183.471339,237.86 184.29033,238.181997 184.883,238.826 L184.883,238.826 Z M180.557,239.337 C180.104331,239.864336 179.878,240.585329 179.878,241.5 C179.878,242.414671 180.104331,243.135664 180.557,243.663 C181.009669,244.190336 181.632663,244.454 182.426,244.454 C183.219337,244.454 183.842331,244.190336 184.295,243.663 C184.747669,243.135664 184.974,242.414671 184.974,241.5 C184.974,240.585329 184.747669,239.864336 184.295,239.337 C183.842331,238.809664 183.219337,238.546 182.426,238.546 C181.632663,238.546 181.009669,238.809664 180.557,239.337 L180.557,239.337 Z M191.666,244.552 C191.245998,244.944002 190.700003,245.14 190.028,245.14 C189.458664,245.14 189.008335,244.983668 188.677,244.671 C188.345665,244.358332 188.18,243.88467 188.18,243.25 L188.18,238.686 L186.78,238.686 L186.78,238 L188.18,238 L188.18,236.264 L188.978,236.054 L188.978,238 L191.61,238 L191.61,238.686 L188.978,238.686 L188.978,243.124 C188.978,243.544002 189.080666,243.861332 189.286,244.076 C189.491334,244.290668 189.785331,244.398 190.168,244.398 C190.644002,244.398 191.045332,244.225335 191.372,243.88 L191.666,244.552 Z M195.46,246.26 C195.198665,246.904003 194.907002,247.356665 194.585,247.618 C194.262998,247.879335 193.854669,248.01 193.36,248.01 C192.75333,248.01 192.291335,247.832668 191.974,247.478 L192.268,246.792 C192.510668,247.137335 192.869998,247.31 193.346,247.31 C193.663335,247.31 193.933999,247.219001 194.158,247.037 C194.382001,246.854999 194.587332,246.530669 194.774,246.064 L195.208,245 L192.254,238 L193.164,238 L195.222,243.138 L195.586,244.146 L195.992,243.04 L197.952,238 L198.82,238 L195.46,246.26 Z M206.002,238.826 C206.571336,239.470003 206.856,240.361328 206.856,241.5 C206.856,242.638672 206.571336,243.529997 206.002,244.174 C205.432664,244.818003 204.653338,245.14 203.664,245.14 C203.075997,245.14 202.562669,245.004668 202.124,244.734 C201.685331,244.463332 201.358668,244.090002 201.144,243.614 L201.144,247.94 L200.346,247.94 L200.346,238 L201.06,238 L201.102,239.484 C201.307334,238.979997 201.633998,238.583335 202.082,238.294 C202.530002,238.004665 203.05733,237.86 203.664,237.86 C204.653338,237.86 205.432664,238.181997 206.002,238.826 L206.002,238.826 Z M205.4,243.656 C205.838669,243.133331 206.058,242.414671 206.058,241.5 C206.058,240.585329 205.838669,239.866669 205.4,239.344 C204.961331,238.821331 204.350004,238.56 203.566,238.56 C202.856663,238.56 202.280336,238.804998 201.837,239.295 C201.393664,239.785002 201.162667,240.454662 201.144,241.304 L201.144,241.696 C201.162667,242.545338 201.391331,243.214998 201.83,243.705 C202.268669,244.195002 202.84733,244.44 203.566,244.44 C204.350004,244.44 204.961331,244.178669 205.4,243.656 L205.4,243.656 Z M214.78,241.822 L209.292,241.822 C209.338667,242.643337 209.583664,243.284998 210.027,243.747 C210.470336,244.209002 211.06533,244.44 211.812,244.44 C212.353336,244.44 212.817665,244.332668 213.205,244.118 C213.592335,243.903332 213.869999,243.600002 214.038,243.208 L214.696,243.558 C214.145331,244.612672 213.184007,245.14 211.812,245.14 C210.775995,245.14 209.964003,244.818003 209.376,244.174 C208.787997,243.529997 208.494,242.638672 208.494,241.5 C208.494,240.361328 208.778664,239.470003 209.348,238.826 C209.917336,238.181997 210.715328,237.86 211.742,237.86 C212.37667,237.86 212.924998,238.006999 213.387,238.301 C213.849002,238.595001 214.201332,239.000997 214.444,239.519 C214.686668,240.037003 214.808,240.62733 214.808,241.29 C214.808,241.458001 214.798667,241.635332 214.78,241.822 L214.78,241.822 Z M210.013,239.225 C209.588331,239.668336 209.348,240.295996 209.292,241.108 L214.052,241.108 C213.996,240.305329 213.767335,239.680002 213.366,239.232 C212.964665,238.783998 212.423337,238.56 211.742,238.56 C211.013996,238.56 210.437669,238.781664 210.013,239.225 L210.013,239.225 Z" id="Logotype" fill="#757575" sketch:type="MSShapeGroup"></path>
                                <g id="Logotype-Copy-2" transform="translate(316.000000, 230.000000)">
                                    <path d="M63.5677838,7.924 C63.5677838,11.0600157 62.3264629,13.0853288 59.8437838,14 L64.7997838,21 L59.4237838,21 L55.0837838,14.756 L52.0597838,14.756 L52.0597838,21 L47.6917838,21 L47.6917838,1.428 L55.1117838,1.428 C58.1544657,1.428 60.324444,1.9413282 61.6217838,2.968 C62.9191236,3.9946718 63.5677838,5.64665528 63.5677838,7.924 L63.5677838,7.924 Z M58.3037838,10.248 C58.8451198,9.76266424 59.1157838,8.99267194 59.1157838,7.938 C59.1157838,6.88332806 58.8357866,6.16000196 58.2757838,5.768 C57.715781,5.37599804 56.7357908,5.18 55.3357838,5.18 L52.0597838,5.18 L52.0597838,10.976 L55.2517838,10.976 C56.7451246,10.976 57.7624477,10.7333358 58.3037838,10.248 L58.3037838,10.248 Z M75.2730564,5.334 C74.8530543,5.67933506 74.6430564,6.13666382 74.6430564,6.706 C74.6430564,7.27533618 74.8997205,7.72799832 75.4130564,8.064 C75.9263923,8.40000168 77.1117138,8.79666438 78.9690564,9.254 C80.826399,9.71133562 82.2683846,10.3973288 83.2950564,11.312 C84.3217282,12.2266712 84.8350564,13.5613246 84.8350564,15.316 C84.8350564,17.0706754 84.177063,18.4939945 82.8610564,19.586 C81.5450498,20.6780055 79.8137338,21.224 77.6670564,21.224 C74.5683742,21.224 71.7777355,20.0760115 69.2950564,17.78 L71.8990564,14.588 C74.0084003,16.4360092 75.9590474,17.36 77.7510564,17.36 C78.5537271,17.36 79.1837208,17.1873351 79.6410564,16.842 C80.098392,16.4966649 80.3270564,16.0300029 80.3270564,15.442 C80.3270564,14.8539971 80.0843921,14.3873351 79.5990564,14.042 C79.1137206,13.6966649 78.1523969,13.3466684 76.7150564,12.992 C74.4377117,12.450664 72.7717283,11.7460043 71.7170564,10.878 C70.6623844,10.0099957 70.1350564,8.64734262 70.1350564,6.79 C70.1350564,4.93265738 70.802383,3.50000504 72.1370564,2.492 C73.4717297,1.48399496 75.1377131,0.98 77.1350564,0.98 C78.4417296,0.98 79.7483832,1.20399776 81.0550564,1.652 C82.3617296,2.10000224 83.5003849,2.73466256 84.4710564,3.556 L82.2590564,6.748 C80.5603812,5.45999356 78.8057321,4.816 76.9950564,4.816 C76.2670527,4.816 75.6930585,4.98866494 75.2730564,5.334 L75.2730564,5.334 Z M104.688329,3.178 C106.060336,4.3446725 106.746329,6.13665458 106.746329,8.554 C106.746329,10.9713454 106.041669,12.7399944 104.632329,13.86 C103.222989,14.9800056 101.071677,15.54 98.178329,15.54 L95.574329,15.54 L95.574329,21 L91.206329,21 L91.206329,1.428 L98.122329,1.428 C101.127677,1.428 103.316322,2.0113275 104.688329,3.178 L104.688329,3.178 Z M101.482329,10.878 C102.004998,10.2899971 102.266329,9.43133898 102.266329,8.302 C102.266329,7.17266102 101.925666,6.37000238 101.244329,5.894 C100.562992,5.41799762 99.5036695,5.18 98.066329,5.18 L95.574329,5.18 L95.574329,11.76 L98.514329,11.76 C99.9703362,11.76 100.95966,11.4660029 101.482329,10.878 L101.482329,10.878 Z M126.921602,1.428 L126.921602,5.32 L117.177602,5.32 L117.177602,9.352 L125.941602,9.352 L125.941602,13.076 L117.177602,13.076 L117.177602,17.136 L127.229602,17.136 L127.229602,21 L112.809602,21 L112.809602,1.428 L126.921602,1.428 Z M133.768874,1.428 L138.136874,1.428 L138.136874,9.464 L145.528874,1.428 L150.932874,1.428 L143.148874,10.08 C143.820877,11.013338 145.062198,12.7539873 146.872874,15.302 C148.68355,17.8500127 150.03687,19.7493271 150.932874,21 L145.836874,21 L140.096874,13.272 L138.136874,15.456 L138.136874,21 L133.768874,21 L133.768874,1.428 Z M164.584147,5.208 L164.584147,21 L160.216147,21 L160.216147,5.208 L154.672147,5.208 L154.672147,1.428 L170.128147,1.428 L170.128147,5.208 L164.584147,5.208 Z M175.967419,1.428 L180.335419,1.428 L180.335419,21 L175.967419,21 L175.967419,1.428 Z M195.022692,13.888 L200.006692,1.428 L204.738692,1.428 L196.870692,21 L193.174692,21 L185.306692,1.428 L190.038692,1.428 L195.022692,13.888 Z" id="RSPEKTIV" fill="#333333" sketch:type="MSShapeGroup"></path>
                                    <path d="M13.89,3.178 C15.2620069,4.3446725 15.948,6.13665458 15.948,8.554 C15.948,10.9713454 15.2433404,12.7399944 13.834,13.86 C12.4246596,14.9800056 10.2733478,15.54 7.38,15.54 L4.776,15.54 L4.776,21 L0.408,21 L0.408,1.428 L7.324,1.428 C10.3293484,1.428 12.5179931,2.0113275 13.89,3.178 L13.89,3.178 Z M10.684,10.878 C11.2066693,10.2899971 11.468,9.43133898 11.468,8.302 C11.468,7.17266102 11.1273367,6.37000238 10.446,5.894 C9.76466326,5.41799762 8.70534052,5.18 7.268,5.18 L4.776,5.18 L4.776,11.76 L7.716,11.76 C9.17200728,11.76 10.1613307,11.4660029 10.684,10.878 L10.684,10.878 Z" id="P" fill="#333333" sketch:type="MSShapeGroup"></path>
                                    <g id="Line-Copy-16">
                                        <use stroke="#333333" stroke-width="3.3" stroke-linecap="square" sketch:type="MSShapeGroup" xlink:href="#path-4"></use>
                                        <use stroke="none" xlink:href="#path-4"></use>
                                    </g>
                                    <g id="Line-Copy-18">
                                        <use stroke="#333333" stroke-width="3.3" stroke-linecap="square" sketch:type="MSShapeGroup" xlink:href="#path-5"></use>
                                        <use stroke="none" xlink:href="#path-5"></use>
                                    </g>
                                    <g id="Line-Copy-17">
                                        <use stroke="#333333" stroke-width="3.3" stroke-linecap="square" sketch:type="MSShapeGroup" xlink:href="#path-6"></use>
                                        <use stroke="none" xlink:href="#path-6"></use>
                                    </g>
                                </g>
                                <g id="Colored-Mark-+-Colored-Mark-+-label-prong-copy" transform="translate(221.200000, 158.500000) scale(-1, 1) translate(-221.200000, -158.500000) translate(118.700000, 140.000000)" sketch:type="MSShapeGroup">
                                    <g id="Colored-Mark" transform="translate(0.300000, 6.000000)" stroke="#263B64" stroke-width="4.16666667" stroke-linecap="square">
                                        <path d="M24.6357504,2.65689364 C24.6357504,2.65689364 18.6844423,-1.48380297 12.7331342,2.65689367 C6.78182611,6.79759031 0.830518018,2.65689365 0.830518018,2.65689365" id="Line-Copy-11"></path>
                                        <path d="M24.6357504,12.5632549 C24.6357504,12.5632549 18.6844423,8.42255834 12.7331342,12.563255 C6.78182611,16.7039516 0.830518018,12.563255 0.830518018,12.563255" id="Line-Copy-12"></path>
                                        <path d="M24.6357504,22.4696163 C24.6357504,22.4696163 18.6844423,18.3289196 12.7331342,22.4696163 C6.78182611,26.6103129 0.830518018,22.4696163 0.830518018,22.4696163" id="Line-Copy-13"></path>
                                    </g>
                                    <path d="M123.727,21.552 C123.07833,21.9906689 122.306004,22.21 121.41,22.21 C120.560662,22.21 119.81867,22.0163353 119.184,21.629 C118.54933,21.2416647 118.059335,20.6886703 117.714,19.97 C117.368665,19.2513297 117.196,18.4113381 117.196,17.45 C117.196,16.4886619 117.368665,15.6486703 117.714,14.93 C118.059335,14.2113297 118.54933,13.6583353 119.184,13.271 C119.81867,12.8836647 120.555996,12.69 121.396,12.69 C123.234676,12.69 124.429331,13.4413258 124.98,14.944 L124.196,15.308 C123.981332,14.6826635 123.647669,14.2136682 123.195,13.901 C122.742331,13.5883318 122.161337,13.432 121.452,13.432 C120.770663,13.432 120.171003,13.5929984 119.653,13.915 C119.134997,14.2370016 118.733668,14.7013303 118.449,15.308 C118.164332,15.9146697 118.022,16.6286626 118.022,17.45 C118.022,18.2713374 118.161999,18.9853303 118.442,19.592 C118.722001,20.1986697 119.116331,20.6629984 119.625,20.985 C120.133669,21.3070016 120.728663,21.468 121.41,21.468 C122.12867,21.468 122.742331,21.2930018 123.251,20.943 C123.759669,20.5929983 124.116666,20.08667 124.322,19.424 L125.106,19.718 C124.835332,20.5020039 124.37567,21.1133311 123.727,21.552 L123.727,21.552 Z M132.281,15.896 C132.87367,16.5400032 133.17,17.4313276 133.17,18.57 C133.17,19.7086724 132.87367,20.5999968 132.281,21.244 C131.68833,21.8880032 130.869339,22.21 129.824,22.21 C128.778661,22.21 127.95967,21.8880032 127.367,21.244 C126.77433,20.5999968 126.478,19.7086724 126.478,18.57 C126.478,17.4313276 126.77433,16.5400032 127.367,15.896 C127.95967,15.2519968 128.778661,14.93 129.824,14.93 C130.869339,14.93 131.68833,15.2519968 132.281,15.896 L132.281,15.896 Z M127.955,16.407 C127.502331,16.934336 127.276,17.6553288 127.276,18.57 C127.276,19.4846712 127.502331,20.205664 127.955,20.733 C128.407669,21.260336 129.030663,21.524 129.824,21.524 C130.617337,21.524 131.240331,21.260336 131.693,20.733 C132.145669,20.205664 132.372,19.4846712 132.372,18.57 C132.372,17.6553288 132.145669,16.934336 131.693,16.407 C131.240331,15.879664 130.617337,15.616 129.824,15.616 C129.030663,15.616 128.407669,15.879664 127.955,16.407 L127.955,16.407 Z M135.984,20.334 C135.984,20.7446687 136.049333,21.0339992 136.18,21.202 C136.310667,21.3700008 136.529998,21.454 136.838,21.454 C137.024668,21.454 137.183333,21.4400001 137.314,21.412 C137.444667,21.3839999 137.603332,21.332667 137.79,21.258 L137.664,22.028 C137.393332,22.1493339 137.076002,22.21 136.712,22.21 C136.198664,22.21 135.816001,22.0653348 135.564,21.776 C135.311999,21.4866652 135.186,21.0340031 135.186,20.418 L135.186,11.85 L135.984,11.85 L135.984,20.334 Z M144.489,15.896 C145.08167,16.5400032 145.378,17.4313276 145.378,18.57 C145.378,19.7086724 145.08167,20.5999968 144.489,21.244 C143.89633,21.8880032 143.077339,22.21 142.032,22.21 C140.986661,22.21 140.16767,21.8880032 139.575,21.244 C138.98233,20.5999968 138.686,19.7086724 138.686,18.57 C138.686,17.4313276 138.98233,16.5400032 139.575,15.896 C140.16767,15.2519968 140.986661,14.93 142.032,14.93 C143.077339,14.93 143.89633,15.2519968 144.489,15.896 L144.489,15.896 Z M140.163,16.407 C139.710331,16.934336 139.484,17.6553288 139.484,18.57 C139.484,19.4846712 139.710331,20.205664 140.163,20.733 C140.615669,21.260336 141.238663,21.524 142.032,21.524 C142.825337,21.524 143.448331,21.260336 143.901,20.733 C144.353669,20.205664 144.58,19.4846712 144.58,18.57 C144.58,17.6553288 144.353669,16.934336 143.901,16.407 C143.448331,15.879664 142.825337,15.616 142.032,15.616 C141.238663,15.616 140.615669,15.879664 140.163,16.407 L140.163,16.407 Z M151.328,15.14 L151.132,15.896 C150.898665,15.7466659 150.604668,15.672 150.25,15.672 C149.913998,15.672 149.592002,15.776999 149.284,15.987 C148.975998,16.1970011 148.726334,16.4933314 148.535,16.876 C148.343666,17.2586686 148.248,17.6926642 148.248,18.178 L148.248,22.07 L147.45,22.07 L147.45,15.07 L148.122,15.07 L148.22,16.428 C148.406668,15.9519976 148.691331,15.5833346 149.074,15.322 C149.456669,15.0606654 149.923331,14.93 150.474,14.93 C150.828668,14.93 151.113332,14.9999993 151.328,15.14 L151.328,15.14 Z M158.37,18.892 L152.882,18.892 C152.928667,19.7133374 153.173664,20.3549977 153.617,20.817 C154.060336,21.2790023 154.65533,21.51 155.402,21.51 C155.943336,21.51 156.407665,21.4026677 156.795,21.188 C157.182335,20.9733323 157.459999,20.670002 157.628,20.278 L158.286,20.628 C157.735331,21.6826719 156.774007,22.21 155.402,22.21 C154.365995,22.21 153.554003,21.8880032 152.966,21.244 C152.377997,20.5999968 152.084,19.7086724 152.084,18.57 C152.084,17.4313276 152.368664,16.5400032 152.938,15.896 C153.507336,15.2519968 154.305328,14.93 155.332,14.93 C155.96667,14.93 156.514998,15.0769985 156.977,15.371 C157.439002,15.6650015 157.791332,16.0709974 158.034,16.589 C158.276668,17.1070026 158.398,17.69733 158.398,18.36 C158.398,18.5280008 158.388667,18.7053324 158.37,18.892 L158.37,18.892 Z M153.603,16.295 C153.178331,16.7383356 152.938,17.3659959 152.882,18.178 L157.642,18.178 C157.586,17.3753293 157.357335,16.7500022 156.956,16.302 C156.554665,15.8539978 156.013337,15.63 155.332,15.63 C154.603996,15.63 154.027669,15.8516645 153.603,16.295 L153.603,16.295 Z M166.504,11.85 L166.504,22.07 L165.79,22.07 L165.748,20.6 C165.542666,21.0946691 165.213669,21.4866652 164.761,21.776 C164.308331,22.0653348 163.783336,22.21 163.186,22.21 C162.196662,22.21 161.417336,21.8880032 160.848,21.244 C160.278664,20.5999968 159.994,19.7086724 159.994,18.57 C159.994,17.4313276 160.278664,16.5400032 160.848,15.896 C161.417336,15.2519968 162.196662,14.93 163.186,14.93 C163.774003,14.93 164.287331,15.065332 164.726,15.336 C165.164669,15.606668 165.491332,15.9799976 165.706,16.456 L165.706,11.85 L166.504,11.85 Z M164.999,20.796 C165.433002,20.3199976 165.668666,19.6666708 165.706,18.836 L165.706,18.304 C165.668666,17.4733292 165.433002,16.8200024 164.999,16.344 C164.564998,15.8679976 163.993337,15.63 163.284,15.63 C162.499996,15.63 161.888669,15.8913307 161.45,16.414 C161.011331,16.9366693 160.792,17.6553288 160.792,18.57 C160.792,19.4846712 161.011331,20.2033307 161.45,20.726 C161.888669,21.2486693 162.499996,21.51 163.284,21.51 C163.993337,21.51 164.564998,21.2720024 164.999,20.796 L164.999,20.796 Z M182.38,22.07 L181.61,22.07 L181.61,15.434 L181.694,13.586 L178.39,22.07 L177.676,22.07 L174.386,13.586 L174.372,13.586 L174.456,15.434 L174.456,22.07 L173.7,22.07 L173.7,12.83 L174.904,12.83 L177.522,19.508 L178.026,21.132 L178.04,21.132 L178.558,19.522 L181.162,12.83 L182.38,12.83 L182.38,22.07 Z M191.228,21.44 L191.186,22.07 C190.999332,22.1633338 190.756668,22.21 190.458,22.21 C190.121998,22.21 189.851334,22.1236675 189.646,21.951 C189.440666,21.7783325 189.319334,21.4820021 189.282,21.062 C189.067332,21.4166684 188.731336,21.6966656 188.274,21.902 C187.816664,22.1073344 187.331336,22.21 186.818,22.21 C186.12733,22.21 185.569669,22.0536682 185.145,21.741 C184.720331,21.4283318 184.508,20.9873362 184.508,20.418 C184.508,19.876664 184.729664,19.4240018 185.173,19.06 C185.616336,18.6959982 186.285996,18.4393341 187.182,18.29 L189.268,17.926 L189.268,17.366 C189.268,16.824664 189.107002,16.4000015 188.785,16.092 C188.462998,15.7839985 188.008003,15.63 187.42,15.63 C186.346661,15.63 185.618669,16.1106619 185.236,17.072 L184.634,16.638 C184.830001,16.096664 185.172998,15.6766682 185.663,15.378 C186.153002,15.0793318 186.738663,14.93 187.42,14.93 C188.232004,14.93 188.875998,15.1283314 189.352,15.525 C189.828002,15.9216687 190.066,16.5026628 190.066,17.268 L190.066,20.838 C190.066,21.2953356 190.271331,21.524 190.682,21.524 C190.896668,21.524 191.078666,21.4960003 191.228,21.44 L191.228,21.44 Z M188.015,21.307 C188.383669,21.171666 188.684665,20.975668 188.918,20.719 C189.151334,20.4623321 189.268,20.1566684 189.268,19.802 L189.268,18.584 L187.434,18.92 C186.705996,19.0506673 186.174002,19.2373321 185.838,19.48 C185.501998,19.7226679 185.334,20.0353314 185.334,20.418 C185.334,20.7633351 185.469332,21.0316657 185.74,21.223 C186.010668,21.4143343 186.388664,21.51 186.874,21.51 C187.266002,21.51 187.646331,21.442334 188.015,21.307 L188.015,21.307 Z M196.576,15.14 L196.38,15.896 C196.146665,15.7466659 195.852668,15.672 195.498,15.672 C195.161998,15.672 194.840002,15.776999 194.532,15.987 C194.223998,16.1970011 193.974334,16.4933314 193.783,16.876 C193.591666,17.2586686 193.496,17.6926642 193.496,18.178 L193.496,22.07 L192.698,22.07 L192.698,15.07 L193.37,15.07 L193.468,16.428 C193.654668,15.9519976 193.939331,15.5833346 194.322,15.322 C194.704669,15.0606654 195.171331,14.93 195.722,14.93 C196.076668,14.93 196.361332,14.9999993 196.576,15.14 L196.576,15.14 Z M200.496,18.416 L198.886,19.998 L198.886,22.07 L198.088,22.07 L198.088,11.85 L198.886,11.85 L198.886,18.99 L202.918,15.07 L203.94,15.07 L201.084,17.856 L204.066,22.07 L203.1,22.07 L200.496,18.416 Z" id="Colored-Mark" fill="#757575" transform="translate(160.764000, 17.030000) scale(-1, 1) translate(-160.764000, -17.030000) "></path>
                                    <g id="label-prong-copy" transform="translate(75.300000, 18.500000) scale(-1, 1) translate(-75.300000, -18.500000) translate(56.300000, 0.000000)" stroke="#333333" stroke-linecap="square">
                                        <path d="M0.473702431,19.5 L19.5,19.5" id="Line"></path>
                                        <path d="M20.5,36.5 L37.5,36.5" id="Line-Copy"></path>
                                        <path d="M19.5,1.5 L37.5,1.5" id="Line-Copy-2"></path>
                                        <path d="M19.5,1.5 L19.5,36.5" id="Line"></path>
                                    </g>
                                </g>
                                <g id="Mark" transform="translate(249.700000, 77.500000) scale(-1, 1) translate(-249.700000, -77.500000) translate(175.700000, 59.000000)" sketch:type="MSShapeGroup">
                                    <g id="Colored-Mark-Copy" transform="translate(0.300000, 8.000000)" stroke="#444444" stroke-width="4.16666667" stroke-linecap="square">
                                        <path d="M24.6357504,2.65689364 C24.6357504,2.65689364 18.6844423,-1.48380297 12.7331342,2.65689367 C6.78182611,6.79759031 0.830518018,2.65689365 0.830518018,2.65689365" id="Line-Copy-11"></path>
                                        <path d="M24.6357504,12.5632549 C24.6357504,12.5632549 18.6844423,8.42255834 12.7331342,12.563255 C6.78182611,16.7039516 0.830518018,12.563255 0.830518018,12.563255" id="Line-Copy-12"></path>
                                        <path d="M24.6357504,22.4696163 C24.6357504,22.4696163 18.6844423,18.3289196 12.7331342,22.4696163 C6.78182611,26.6103129 0.830518018,22.4696163 0.830518018,22.4696163" id="Line-Copy-13"></path>
                                    </g>
                                    <path d="M125.45,22 L124.68,22 L124.68,15.364 L124.764,13.516 L121.46,22 L120.746,22 L117.456,13.516 L117.442,13.516 L117.526,15.364 L117.526,22 L116.77,22 L116.77,12.76 L117.974,12.76 L120.592,19.438 L121.096,21.062 L121.11,21.062 L121.628,19.452 L124.232,12.76 L125.45,12.76 L125.45,22 Z M134.298,21.37 L134.256,22 C134.069332,22.0933338 133.826668,22.14 133.528,22.14 C133.191998,22.14 132.921334,22.0536675 132.716,21.881 C132.510666,21.7083325 132.389334,21.4120021 132.352,20.992 C132.137332,21.3466684 131.801336,21.6266656 131.344,21.832 C130.886664,22.0373344 130.401336,22.14 129.888,22.14 C129.19733,22.14 128.639669,21.9836682 128.215,21.671 C127.790331,21.3583318 127.578,20.9173362 127.578,20.348 C127.578,19.806664 127.799664,19.3540018 128.243,18.99 C128.686336,18.6259982 129.355996,18.3693341 130.252,18.22 L132.338,17.856 L132.338,17.296 C132.338,16.754664 132.177002,16.3300015 131.855,16.022 C131.532998,15.7139985 131.078003,15.56 130.49,15.56 C129.416661,15.56 128.688669,16.0406619 128.306,17.002 L127.704,16.568 C127.900001,16.026664 128.242998,15.6066682 128.733,15.308 C129.223002,15.0093318 129.808663,14.86 130.49,14.86 C131.302004,14.86 131.945998,15.0583314 132.422,15.455 C132.898002,15.8516687 133.136,16.4326628 133.136,17.198 L133.136,20.768 C133.136,21.2253356 133.341331,21.454 133.752,21.454 C133.966668,21.454 134.148666,21.4260003 134.298,21.37 L134.298,21.37 Z M131.085,21.237 C131.453669,21.101666 131.754665,20.905668 131.988,20.649 C132.221334,20.3923321 132.338,20.0866684 132.338,19.732 L132.338,18.514 L130.504,18.85 C129.775996,18.9806673 129.244002,19.1673321 128.908,19.41 C128.571998,19.6526679 128.404,19.9653314 128.404,20.348 C128.404,20.6933351 128.539332,20.9616657 128.81,21.153 C129.080668,21.3443343 129.458664,21.44 129.944,21.44 C130.336002,21.44 130.716331,21.372334 131.085,21.237 L131.085,21.237 Z M139.646,15.07 L139.45,15.826 C139.216665,15.6766659 138.922668,15.602 138.568,15.602 C138.231998,15.602 137.910002,15.706999 137.602,15.917 C137.293998,16.1270011 137.044334,16.4233314 136.853,16.806 C136.661666,17.1886686 136.566,17.6226642 136.566,18.108 L136.566,22 L135.768,22 L135.768,15 L136.44,15 L136.538,16.358 C136.724668,15.8819976 137.009331,15.5133346 137.392,15.252 C137.774669,14.9906654 138.241331,14.86 138.792,14.86 C139.146668,14.86 139.431332,14.9299993 139.646,15.07 L139.646,15.07 Z M143.566,18.346 L141.956,19.928 L141.956,22 L141.158,22 L141.158,11.78 L141.956,11.78 L141.956,18.92 L145.988,15 L147.01,15 L144.154,17.786 L147.136,22 L146.17,22 L143.566,18.346 Z" fill="#757575" transform="translate(132.086000, 16.960000) scale(-1, 1) translate(-132.086000, -16.960000) "></path>
                                    <g id="label-prong" transform="translate(73.300000, 18.500000) scale(-1, 1) translate(-73.300000, -18.500000) translate(54.300000, 0.000000)" stroke="#333333" stroke-linecap="square">
                                        <path d="M0.473702431,19.5 L19.5,19.5" id="Line"></path>
                                        <path d="M20.5,36.5 L37.5,36.5" id="Line-Copy"></path>
                                        <path d="M19.5,1.5 L37.5,1.5" id="Line-Copy-2"></path>
                                        <path d="M19.5,1.5 L19.5,36.5" id="Line"></path>
                                    </g>
                                </g>
                                <path d="M2.2,27.5 L525.545032,27.5" id="Line" stroke="#000000" stroke-linecap="square" sketch:type="MSShapeGroup"></path>
                                <path d="M0.076,13 L0.076,1.816 L2.572,1.816 L2.572,10.776 L7.34,10.776 L7.34,13 L0.076,13 Z M17.46,4.792 C16.8199968,4.08799648 16.033338,3.736 15.1,3.736 C14.166662,3.736 13.3800032,4.08799648 12.74,4.792 C12.0999968,5.49600352 11.78,6.34666168 11.78,7.344 C11.78,8.34133832 12.0999968,9.18932984 12.74,9.888 C13.3800032,10.5866702 14.166662,10.936 15.1,10.936 C16.033338,10.936 16.8199968,10.5866702 17.46,9.888 C18.1000032,9.18932984 18.42,8.34133832 18.42,7.344 C18.42,6.34666168 18.1000032,5.49600352 17.46,4.792 L17.46,4.792 Z M15.092,13.112 C13.4386584,13.112 12.0466723,12.5600055 10.916,11.456 C9.78532768,10.3519945 9.22,8.97867488 9.22,7.336 C9.22,5.69332512 9.78532768,4.32000552 10.916,3.216 C12.0466723,2.11199448 13.4386584,1.56 15.092,1.56 C16.7453416,1.56 18.1373277,2.11199448 19.268,3.216 C20.3986723,4.32000552 20.964,5.69332512 20.964,7.336 C20.964,8.97867488 20.3986723,10.3519945 19.268,11.456 C18.1373277,12.5600055 16.7453416,13.112 15.092,13.112 L15.092,13.112 Z M31.34,7.304 L33.852,7.304 L33.852,11.272 C32.7426611,12.5093395 31.2066765,13.128 29.244,13.128 C27.6013251,13.128 26.2226722,12.5840054 25.108,11.496 C23.9933278,10.4079946 23.436,9.03467496 23.436,7.376 C23.436,5.71732504 24.0039943,4.33333888 25.14,3.224 C26.2760057,2.11466112 27.6466586,1.56 29.252,1.56 C30.8573414,1.56 32.2519941,2.08799472 33.436,3.144 L32.14,5.016 C31.6386642,4.57866448 31.1773354,4.27733416 30.756,4.112 C30.3346646,3.94666584 29.8786691,3.864 29.388,3.864 C28.4386619,3.864 27.6386699,4.18666344 26.988,4.832 C26.3373301,5.47733656 26.012,6.32799472 26.012,7.384 C26.012,8.44000528 26.3239969,9.28533016 26.948,9.92 C27.5720031,10.5546698 28.3159957,10.872 29.18,10.872 C30.0440043,10.872 30.7639971,10.7066683 31.34,10.376 L31.34,7.304 Z M44.676,4.792 C44.0359968,4.08799648 43.249338,3.736 42.316,3.736 C41.382662,3.736 40.5960032,4.08799648 39.956,4.792 C39.3159968,5.49600352 38.996,6.34666168 38.996,7.344 C38.996,8.34133832 39.3159968,9.18932984 39.956,9.888 C40.5960032,10.5866702 41.382662,10.936 42.316,10.936 C43.249338,10.936 44.0359968,10.5866702 44.676,9.888 C45.3160032,9.18932984 45.636,8.34133832 45.636,7.344 C45.636,6.34666168 45.3160032,5.49600352 44.676,4.792 L44.676,4.792 Z M42.308,13.112 C40.6546584,13.112 39.2626723,12.5600055 38.132,11.456 C37.0013277,10.3519945 36.436,8.97867488 36.436,7.336 C36.436,5.69332512 37.0013277,4.32000552 38.132,3.216 C39.2626723,2.11199448 40.6546584,1.56 42.308,1.56 C43.9613416,1.56 45.3533277,2.11199448 46.484,3.216 C47.6146723,4.32000552 48.18,5.69332512 48.18,7.336 C48.18,8.97867488 47.6146723,10.3519945 46.484,11.456 C45.3533277,12.5600055 43.9613416,13.112 42.308,13.112 L42.308,13.112 Z M62.276,0.12 L64.548,0.12 L57.828,14.792 L55.572,14.792 L62.276,0.12 Z M77.7,10.792 C78.9266728,10.792 79.9293294,10.3066715 80.708,9.336 L82.308,10.984 C81.0386603,12.4133405 79.5426753,13.128 77.82,13.128 C76.0973247,13.128 74.6786722,12.5840054 73.564,11.496 C72.4493278,10.4079946 71.892,9.03467496 71.892,7.376 C71.892,5.71732504 72.4599943,4.33333888 73.596,3.224 C74.7320057,2.11466112 76.1213251,1.56 77.764,1.56 C79.5986758,1.56 81.1346605,2.25865968 82.372,3.656 L80.82,5.416 C80.0306627,4.43466176 79.0493392,3.944 77.876,3.944 C76.9373286,3.944 76.13467,4.2506636 75.468,4.864 C74.80133,5.4773364 74.468,6.3039948 74.468,7.344 C74.468,8.3840052 74.7826635,9.21866352 75.412,9.848 C76.0413365,10.4773365 76.8039955,10.792 77.7,10.792 L77.7,10.792 Z M92.636,4.792 C91.9959968,4.08799648 91.209338,3.736 90.276,3.736 C89.342662,3.736 88.5560032,4.08799648 87.916,4.792 C87.2759968,5.49600352 86.956,6.34666168 86.956,7.344 C86.956,8.34133832 87.2759968,9.18932984 87.916,9.888 C88.5560032,10.5866702 89.342662,10.936 90.276,10.936 C91.209338,10.936 91.9959968,10.5866702 92.636,9.888 C93.2760032,9.18932984 93.596,8.34133832 93.596,7.344 C93.596,6.34666168 93.2760032,5.49600352 92.636,4.792 L92.636,4.792 Z M90.268,13.112 C88.6146584,13.112 87.2226723,12.5600055 86.092,11.456 C84.9613277,10.3519945 84.396,8.97867488 84.396,7.336 C84.396,5.69332512 84.9613277,4.32000552 86.092,3.216 C87.2226723,2.11199448 88.6146584,1.56 90.268,1.56 C91.9213416,1.56 93.3133277,2.11199448 94.444,3.216 C95.5746723,4.32000552 96.14,5.69332512 96.14,7.336 C96.14,8.97867488 95.5746723,10.3519945 94.444,11.456 C93.3133277,12.5600055 91.9213416,13.112 90.268,13.112 L90.268,13.112 Z M99.252,13 L99.252,1.816 L101.748,1.816 L101.748,10.776 L106.516,10.776 L106.516,13 L99.252,13 Z M116.636,4.792 C115.995997,4.08799648 115.209338,3.736 114.276,3.736 C113.342662,3.736 112.556003,4.08799648 111.916,4.792 C111.275997,5.49600352 110.956,6.34666168 110.956,7.344 C110.956,8.34133832 111.275997,9.18932984 111.916,9.888 C112.556003,10.5866702 113.342662,10.936 114.276,10.936 C115.209338,10.936 115.995997,10.5866702 116.636,9.888 C117.276003,9.18932984 117.596,8.34133832 117.596,7.344 C117.596,6.34666168 117.276003,5.49600352 116.636,4.792 L116.636,4.792 Z M114.268,13.112 C112.614658,13.112 111.222672,12.5600055 110.092,11.456 C108.961328,10.3519945 108.396,8.97867488 108.396,7.336 C108.396,5.69332512 108.961328,4.32000552 110.092,3.216 C111.222672,2.11199448 112.614658,1.56 114.268,1.56 C115.921342,1.56 117.313328,2.11199448 118.444,3.216 C119.574672,4.32000552 120.14,5.69332512 120.14,7.336 C120.14,8.97867488 119.574672,10.3519945 118.444,11.456 C117.313328,12.5600055 115.921342,13.112 114.268,13.112 L114.268,13.112 Z M132.324,5.528 C132.324,7.32000896 131.614674,8.47733072 130.196,9 L133.028,13 L129.956,13 L127.476,9.432 L125.748,9.432 L125.748,13 L123.252,13 L123.252,1.816 L127.492,1.816 C129.230675,1.816 130.470663,2.1093304 131.212,2.696 C131.953337,3.2826696 132.324,4.22666016 132.324,5.528 L132.324,5.528 Z M129.316,6.856 C129.625335,6.57866528 129.78,6.13866968 129.78,5.536 C129.78,4.93333032 129.620002,4.52000112 129.3,4.296 C128.979998,4.07199888 128.420004,3.96 127.62,3.96 L125.748,3.96 L125.748,7.272 L127.572,7.272 C128.425338,7.272 129.006665,7.13333472 129.316,6.856 L129.316,6.856 Z" id="LOGO-/-COLOR" fill="#444444" sketch:type="MSShapeGroup"></path>
                                <rect id="Rectangle-3" fill="#263B64" sketch:type="MSShapeGroup" x="371.7" y="130" width="104" height="58.6890011" rx="2"></rect>
                                <rect id="Rectangle-3-Copy" fill="#467890" sketch:type="MSShapeGroup" x="460.7" y="130" width="63.25" height="58.6890011" rx="2"></rect>
                                <rect id="Rectangle-3-Copy-2" fill="#467890" sketch:type="MSShapeGroup" x="457.7" y="130" width="37.25" height="58.6890011"></rect>
                                <rect id="Rectangle-3" fill="#444444" sketch:type="MSShapeGroup" x="371.7" y="50" width="104" height="58.6890011" rx="2"></rect>
                                <path d="M460.7,50 L521.952588,50 C523.055728,50 523.95,50.898379 523.95,52.0032301 L523.95,106.685771 C523.95,107.792124 523.055878,108.689001 521.952588,108.689001 L460.7,108.689001 L460.7,50 Z" id="Rectangle-3-Copy" fill="#9B9B9B" sketch:type="MSShapeGroup"></path>
                            </g>
                        </g>
                    </g>
                </g>
            </g>
        </g>
    </g>
</svg>