<?xml version="1.0" encoding="UTF-8" standalone="no"?>
<svg width="863px" height="466px" viewBox="0 0 863 466" version="1.1" xmlns="http://www.w3.org/2000/svg" xmlns:xlink="http://www.w3.org/1999/xlink" xmlns:sketch="http://www.bohemiancoding.com/sketch/ns">
    <!-- Generator: Sketch 3.5.2 (25235) - http://www.bohemiancoding.com/sketch -->
    <title>work-item-images</title>
    <desc>Created with Sketch.</desc>
    <defs>
        <path id="path-1" d="M30.7249976,8.2007435 C30.7249976,8.2007435 28.4426118,6.73969772 25.0366984,8.20074349 C21.630785,9.66178926 19.1321847,8.20074349 19.1321847,8.20074349"></path>
        <path id="path-2" d="M30.7249976,2.71155868 C30.7249976,2.71155868 28.4426118,1.2505129 25.0366984,2.71155867 C21.630785,4.17260444 19.1321847,2.71155867 19.1321847,2.71155867"></path>
        <path id="path-3" d="M30.7249976,13.6899283 C30.7249976,13.6899283 28.4426118,12.2288825 25.0366984,13.6899283 C21.630785,15.1509741 19.1321847,13.6899283 19.1321847,13.6899283"></path>
        <path id="path-4" d="M30.3252271,8.73315463 C30.3252271,8.73315463 28.0428413,7.27210886 24.6369279,8.73315462 C21.2310145,10.1942004 18.7324143,8.73315463 18.7324143,8.73315463"></path>
        <path id="path-5" d="M30.3252271,3.24396981 C30.3252271,3.24396981 28.0428413,1.78292403 24.6369279,3.2439698 C21.2310145,4.70501557 18.7324143,3.2439698 18.7324143,3.2439698"></path>
        <path id="path-6" d="M30.3252271,14.2223395 C30.3252271,14.2223395 28.0428413,12.7612937 24.6369279,14.2223394 C21.2310145,15.6833852 18.7324143,14.2223394 18.7324143,14.2223394"></path>
    </defs>
    <g id="Welcome" stroke="none" stroke-width="1" fill="none" fill-rule="evenodd" sketch:type="MSPage">
        <g id="work-item-images" sketch:type="MSArtboardGroup">
            <g id="logo" sketch:type="MSLayerGroup" transform="translate(-19.476630, 50.702150)">
                <g id="logo-element-table" transform="translate(248.000000, 0.000000)">
                    <rect id="Rectangle-93-Copy" stroke="#9B9B9B" stroke-width="0.573313125" fill="#FFFFFF" sketch:type="MSShapeGroup" x="-1.12862608e-13" y="8.46469561e-14" width="511.903349" height="337.192782"></rect>
                    <g id="Logotype-Copy" transform="translate(57.111059, 28.169111)">
                        <g id="logo/color">
                            <g id="Group-2" transform="translate(231.192442, 247.484746)">
                                <path d="M50.3852718,5.68134608 C50.3852718,8.14051318 49.4091792,9.72870144 47.4569645,10.4459585 L51.3540352,15.9351433 L47.1267043,15.9351433 L43.7140153,11.0387905 L41.3361417,11.0387905 L41.3361417,15.9351433 L37.9014353,15.9351433 L37.9014353,0.58738257 L43.7360327,0.58738257 C46.1285965,0.58738257 47.8349239,0.989918765 48.8550661,1.79500323 C49.8752084,2.6000877 50.3852718,3.89552236 50.3852718,5.68134608 L50.3852718,5.68134608 Z M46.2460104,7.50375545 C46.6716812,7.12317006 46.8845135,6.51936577 46.8845135,5.69232445 C46.8845135,4.86528314 46.6643422,4.29807305 46.223993,3.99067716 C45.7836438,3.68328127 45.0130444,3.52958563 43.9121714,3.52958563 L41.3361417,3.52958563 L41.3361417,8.07463067 L43.8461194,8.07463067 C45.0203838,8.07463067 45.8203395,7.88434083 46.2460104,7.50375545 L46.2460104,7.50375545 Z M59.5895241,3.6503477 C59.2592622,3.92114884 59.0941338,4.27977199 59.0941338,4.72622793 C59.0941338,5.17268386 59.2959575,5.52764759 59.6996109,5.79112978 C60.1032643,6.05461197 61.0353227,6.36566267 62.4958141,6.7242912 C63.9563055,7.08291974 65.0901876,7.62085447 65.8974944,8.33811154 C66.7048012,9.05536861 67.1084486,10.1019627 67.1084486,11.4779253 C67.1084486,12.8538878 66.5910461,13.9700109 65.5562255,14.826328 C64.521405,15.6826451 63.1600125,16.1107972 61.4720074,16.1107972 C59.0354087,16.1107972 56.8410349,15.2105799 54.8888203,13.4101183 L56.9364336,10.90705 C58.5950822,12.3562021 60.1289421,13.0807672 61.5380594,13.0807672 C62.1692266,13.0807672 62.664612,12.9453687 63.0242305,12.6745675 C63.3838489,12.4037664 63.5636555,12.0378244 63.5636555,11.5767306 C63.5636555,11.1156368 63.3728404,10.7496948 62.9912044,10.4788936 C62.6095685,10.2080925 61.8536471,9.93363598 60.7234176,9.6555159 C58.9326643,9.23101681 57.6226452,8.6784444 56.7933209,7.99778208 C55.9639966,7.31711976 55.5493407,6.24856913 55.5493407,4.79209814 C55.5493407,3.33562716 56.0740823,2.21218523 57.1235811,1.42173866 C58.17308,0.631292097 59.4830991,0.236074742 61.0536778,0.236074742 C62.0811592,0.236074742 63.1086252,0.411726899 64.1361066,0.763036484 C65.1635879,1.11434607 66.0589512,1.61202718 66.822223,2.25609476 L65.0828525,4.75916303 C63.7471267,3.74914798 62.3673867,3.24414802 60.943591,3.24414802 C60.3711371,3.24414802 59.919786,3.37954656 59.5895241,3.6503477 L59.5895241,3.6503477 Z M82.7197492,1.95967878 C83.7986047,2.87454749 84.3380243,4.27976475 84.3380243,6.17537272 C84.3380243,8.07098069 83.7839266,9.45790085 82.6757145,10.3361748 C81.5675024,11.2144488 79.8758531,11.6535792 77.6007157,11.6535792 L75.5531023,11.6535792 L75.5531023,15.9351433 L72.118396,15.9351433 L72.118396,0.58738257 L77.556681,0.58738257 C79.9198882,0.58738257 81.6408938,1.04481006 82.7197492,1.95967878 L82.7197492,1.95967878 Z M80.1987628,7.99778208 C80.6097554,7.53668825 80.8152486,6.86335498 80.8152486,5.97776207 C80.8152486,5.09216915 80.5473735,4.46274892 80.0116154,4.08948249 C79.4758572,3.71621605 78.6428759,3.52958563 77.5126463,3.52958563 L75.5531023,3.52958563 L75.5531023,8.68941937 L77.8649239,8.68941937 C79.0098317,8.68941937 79.7877703,8.45887591 80.1987628,7.99778208 L80.1987628,7.99778208 Z M100.202524,0.58738257 L100.202524,3.63936933 L92.5404872,3.63936933 L92.5404872,6.80113979 L99.4319173,6.80113979 L99.4319173,9.72138611 L92.5404872,9.72138611 L92.5404872,12.9051133 L100.444715,12.9051133 L100.444715,15.9351433 L89.1057809,15.9351433 L89.1057809,0.58738257 L100.202524,0.58738257 Z M105.586767,0.58738257 L109.021473,0.58738257 L109.021473,6.88896675 L114.834053,0.58738257 L119.083401,0.58738257 L112.962578,7.37201501 C113.490997,8.10390998 114.46709,9.46887362 115.890886,11.4669469 C117.314681,13.4650202 118.378843,14.9544041 119.083401,15.9351433 L115.076244,15.9351433 L110.562688,9.87508329 L109.021473,11.587709 L109.021473,15.9351433 L105.586767,15.9351433 L105.586767,0.58738257 Z M129.817859,3.55154237 L129.817859,15.9351433 L126.383153,15.9351433 L126.383153,3.55154237 L122.023718,3.55154237 L122.023718,0.58738257 L134.177294,0.58738257 L134.177294,3.55154237 L129.817859,3.55154237 Z M138.768912,0.58738257 L142.203618,0.58738257 L142.203618,15.9351433 L138.768912,15.9351433 L138.768912,0.58738257 Z M153.752718,10.3581316 L157.671806,0.58738257 L161.392738,0.58738257 L155.205863,15.9351433 L152.299573,15.9351433 L146.112698,0.58738257 L149.83363,0.58738257 L153.752718,10.3581316 Z" id="RSPEKTIV" fill="#467890" sketch:type="MSShapeGroup"></path>
                                <path d="M11.3219479,1.95967878 C12.4008034,2.87454749 12.940223,4.27976475 12.940223,6.17537272 C12.940223,8.07098069 12.3861253,9.45790085 11.2779132,10.3361748 C10.1697012,11.2144488 8.47805182,11.6535792 6.20291445,11.6535792 L4.15530105,11.6535792 L4.15530105,15.9351433 L0.720594715,15.9351433 L0.720594715,0.58738257 L6.15887975,0.58738257 C8.52208695,0.58738257 10.2430925,1.04481006 11.3219479,1.95967878 L11.3219479,1.95967878 Z M8.80096155,7.99778208 C9.21195411,7.53668825 9.4174473,6.86335498 9.4174473,5.97776207 C9.4174473,5.09216915 9.14957224,4.46274892 8.61381409,4.08948249 C8.07805593,3.71621605 7.24507459,3.52958563 6.11484505,3.52958563 L4.15530105,3.52958563 L4.15530105,8.68941937 L6.46712263,8.68941937 C7.61203047,8.68941937 8.38996899,8.45887591 8.80096155,7.99778208 L8.80096155,7.99778208 Z" id="P" fill="#467890" sketch:type="MSShapeGroup"></path>
                                <g id="Line-Copy-16">
                                    <use stroke="#263B64" stroke-width="2.88379449" stroke-linecap="square" sketch:type="MSShapeGroup" xlink:href="#path-1"></use>
                                    <use stroke="none" xlink:href="#path-1"></use>
                                </g>
                                <g id="Line-Copy-18">
                                    <use stroke="#263B64" stroke-width="2.88379449" stroke-linecap="square" sketch:type="MSShapeGroup" xlink:href="#path-2"></use>
                                    <use stroke="none" xlink:href="#path-2"></use>
                                </g>
                                <g id="Line-Copy-17">
                                    <use stroke="#263B64" stroke-width="2.88379449" stroke-linecap="square" sketch:type="MSShapeGroup" xlink:href="#path-3"></use>
                                    <use stroke="none" xlink:href="#path-3"></use>
                                </g>
                            </g>
                            <g id="colored-logotype-label-prong" transform="translate(185.210916, 239.894811)" stroke="#333333" stroke-width="0.873877117" stroke-linecap="square" sketch:type="MSShapeGroup">
                                <path d="M0.372488265,15.2913006 L15.3335104,15.2913006" id="Line"></path>
                                <path d="M16.1198443,28.622178 L29.4875201,28.622178" id="Line-Copy"></path>
                                <path d="M15.3335104,1.17625389 L29.4875201,1.17625389" id="Line-Copy-2"></path>
                                <path d="M15.3335104,1.17625389 L15.3335104,28.622178" id="Line"></path>
                            </g>
                            <path d="M83.3232774,257.524505 C82.8132062,257.868495 82.2059005,258.040488 81.5013418,258.040488 C80.8334789,258.040488 80.250025,257.888622 79.7509626,257.584886 C79.2519002,257.281149 78.8666005,256.847508 78.5950518,256.283949 C78.3235032,255.72039 78.1877309,255.061694 78.1877309,254.307842 C78.1877309,253.55399 78.3235032,252.895295 78.5950518,252.331736 C78.8666005,251.768177 79.2519002,251.334535 79.7509626,251.030799 C80.250025,250.727063 80.8298094,250.575197 81.4903331,250.575197 C82.9361462,250.575197 83.8755437,251.164363 84.3085537,252.342714 L83.6920679,252.628152 C83.5232674,252.137782 83.2608967,251.77001 82.9049477,251.524826 C82.5489988,251.279641 82.0921434,251.15705 81.5343678,251.15705 C80.9986097,251.15705 80.5270762,251.2833 80.1197532,251.535804 C79.7124302,251.788308 79.3968514,252.15242 79.1730072,252.628152 C78.949163,253.103883 78.8372426,253.663775 78.8372426,254.307842 C78.8372426,254.95191 78.9473283,255.511801 79.1675029,255.987533 C79.3876774,256.463265 79.697752,256.827377 80.0977358,257.079881 C80.4977197,257.332384 80.9655836,257.458634 81.5013418,257.458634 C82.0664566,257.458634 82.5489986,257.321406 82.9489824,257.046946 C83.3489663,256.772485 83.6296846,256.375438 83.791146,255.855792 L84.4076318,256.086338 C84.1947963,256.70113 83.8333485,257.180514 83.3232774,257.524505 L83.3232774,257.524505 Z M90.0495773,253.089243 C90.5156135,253.594251 90.7486281,254.2932 90.7486281,255.186112 C90.7486281,256.079024 90.5156135,256.777973 90.0495773,257.28298 C89.5835411,257.787988 88.9395401,258.040488 88.117555,258.040488 C87.2955698,258.040488 86.6515688,257.787988 86.1855326,257.28298 C85.7194964,256.777973 85.4864818,256.079024 85.4864818,255.186112 C85.4864818,254.2932 85.7194964,253.594251 86.1855326,253.089243 C86.6515688,252.584236 87.2955698,252.331736 88.117555,252.331736 C88.9395401,252.331736 89.5835411,252.584236 90.0495773,253.089243 L90.0495773,253.089243 Z M86.647897,253.489954 C86.291948,253.903474 86.1139763,254.468855 86.1139763,255.186112 C86.1139763,255.903369 86.291948,256.468749 86.647897,256.88227 C87.0038459,257.295791 87.493727,257.502548 88.117555,257.502548 C88.7413829,257.502548 89.231264,257.295791 89.587213,256.88227 C89.9431619,256.468749 90.1211337,255.903369 90.1211337,255.186112 C90.1211337,254.468855 89.9431619,253.903474 89.587213,253.489954 C89.231264,253.076433 88.7413829,252.869676 88.117555,252.869676 C87.493727,252.869676 87.0038459,253.076433 86.647897,253.489954 L86.647897,253.489954 Z M92.9613716,256.569386 C92.9613716,256.89142 93.0127449,257.118304 93.115493,257.250045 C93.2182412,257.381786 93.3907087,257.447656 93.6329007,257.447656 C93.7796838,257.447656 93.9044475,257.436678 94.0071956,257.414721 C94.1099438,257.392764 94.2347075,257.35251 94.3814906,257.293959 L94.2824125,257.897769 C94.0695771,257.992916 93.8200496,258.040488 93.5338226,258.040488 C93.1301692,258.040488 92.8292685,257.927046 92.6311114,257.700159 C92.4329542,257.473271 92.3338772,257.118307 92.3338772,256.635257 L92.3338772,249.916494 L92.9613716,249.916494 L92.9613716,256.569386 Z M99.6491411,253.089243 C100.115177,253.594251 100.348192,254.2932 100.348192,255.186112 C100.348192,256.079024 100.115177,256.777973 99.6491411,257.28298 C99.1831049,257.787988 98.5391039,258.040488 97.7171188,258.040488 C96.8951337,258.040488 96.2511327,257.787988 95.7850965,257.28298 C95.3190603,256.777973 95.0860457,256.079024 95.0860457,255.186112 C95.0860457,254.2932 95.3190603,253.594251 95.7850965,253.089243 C96.2511327,252.584236 96.8951337,252.331736 97.7171188,252.331736 C98.5391039,252.331736 99.1831049,252.584236 99.6491411,253.089243 L99.6491411,253.089243 Z M96.2474608,253.489954 C95.8915119,253.903474 95.7135401,254.468855 95.7135401,255.186112 C95.7135401,255.903369 95.8915119,256.468749 96.2474608,256.88227 C96.6034097,257.295791 97.0932908,257.502548 97.7171188,257.502548 C98.3409468,257.502548 98.8308279,257.295791 99.1867768,256.88227 C99.5427257,256.468749 99.7206975,255.903369 99.7206975,255.186112 C99.7206975,254.468855 99.5427257,253.903474 99.1867768,253.489954 C98.8308279,253.076433 98.3409468,252.869676 97.7171188,252.869676 C97.0932908,252.869676 96.6034097,253.076433 96.2474608,253.489954 L96.2474608,253.489954 Z M105.026878,252.496411 L104.872757,253.089243 C104.689278,252.97214 104.458098,252.913589 104.179211,252.913589 C103.915001,252.913589 103.661804,252.995926 103.419612,253.160603 C103.17742,253.325279 102.981101,253.557652 102.830648,253.857729 C102.680195,254.157806 102.60497,254.498132 102.60497,254.878718 L102.60497,257.930704 L101.977476,257.930704 L101.977476,252.441519 L102.505892,252.441519 L102.582953,253.506421 C102.729736,253.133155 102.953577,252.844061 103.254482,252.63913 C103.555387,252.4342 103.922339,252.331736 104.355349,252.331736 C104.634237,252.331736 104.858078,252.386627 105.026878,252.496411 L105.026878,252.496411 Z M110.564242,255.438614 L106.248841,255.438614 C106.285537,256.082682 106.478187,256.585852 106.826797,256.94814 C107.175406,257.310428 107.64327,257.491569 108.230403,257.491569 C108.656074,257.491569 109.021191,257.407403 109.325766,257.239067 C109.630341,257.070731 109.848677,256.832869 109.980782,256.525473 L110.49819,256.799932 C110.06518,257.626974 109.309258,258.040488 108.230403,258.040488 C107.415757,258.040488 106.77726,257.787988 106.314893,257.28298 C105.852527,256.777973 105.621347,256.079024 105.621347,255.186112 C105.621347,254.2932 105.845188,253.594251 106.292876,253.089243 C106.740564,252.584236 107.368052,252.331736 108.175359,252.331736 C108.674422,252.331736 109.10559,252.447007 109.468878,252.677554 C109.832167,252.908101 110.109215,253.226471 110.300033,253.632673 C110.490851,254.038874 110.586259,254.501791 110.586259,255.021436 C110.586259,255.153177 110.57892,255.292235 110.564242,255.438614 L110.564242,255.438614 Z M106.815788,253.402127 C106.481857,253.749777 106.292876,254.241969 106.248841,254.878718 L109.991791,254.878718 C109.947756,254.249288 109.767949,253.758926 109.452365,253.407616 C109.136782,253.056306 108.711117,252.880654 108.175359,252.880654 C107.602905,252.880654 107.149719,253.054477 106.815788,253.402127 L106.815788,253.402127 Z M116.960281,249.916494 L116.960281,257.930704 L116.398839,257.930704 L116.365813,256.777975 C116.204351,257.16588 115.94565,257.473271 115.589701,257.700159 C115.233752,257.927046 114.820931,258.040488 114.351225,258.040488 C113.573275,258.040488 112.960465,257.787988 112.512777,257.28298 C112.065089,256.777973 111.841248,256.079024 111.841248,255.186112 C111.841248,254.2932 112.065089,253.594251 112.512777,253.089243 C112.960465,252.584236 113.573275,252.331736 114.351225,252.331736 C114.813592,252.331736 115.217239,252.437859 115.56218,252.650108 C115.90712,252.862358 116.163986,253.155112 116.332787,253.528378 L116.332787,249.916494 L116.960281,249.916494 Z M115.776849,256.931673 C116.118119,256.558406 116.30343,256.046087 116.332787,255.394701 L116.332787,254.977523 C116.30343,254.326136 116.118119,253.813818 115.776849,253.440551 C115.435578,253.067285 114.986062,252.880654 114.428286,252.880654 C113.811797,252.880654 113.33109,253.085582 112.98615,253.495443 C112.64121,253.905304 112.468742,254.468855 112.468742,255.186112 C112.468742,255.903369 112.64121,256.46692 112.98615,256.876781 C113.33109,257.286642 113.811797,257.491569 114.428286,257.491569 C114.986062,257.491569 115.435578,257.304939 115.776849,256.931673 L115.776849,256.931673 Z M127.550626,257.348851 L127.550626,257.930704 L122.61874,257.930704 L122.61874,250.68498 L123.246234,250.68498 L123.246234,257.348851 L127.550626,257.348851 Z M132.70819,253.089243 C133.174226,253.594251 133.40724,254.2932 133.40724,255.186112 C133.40724,256.079024 133.174226,256.777973 132.70819,257.28298 C132.242153,257.787988 131.598152,258.040488 130.776167,258.040488 C129.954182,258.040488 129.310181,257.787988 128.844145,257.28298 C128.378109,256.777973 128.145094,256.079024 128.145094,255.186112 C128.145094,254.2932 128.378109,253.594251 128.844145,253.089243 C129.310181,252.584236 129.954182,252.331736 130.776167,252.331736 C131.598152,252.331736 132.242153,252.584236 132.70819,253.089243 L132.70819,253.089243 Z M129.306509,253.489954 C128.95056,253.903474 128.772589,254.468855 128.772589,255.186112 C128.772589,255.903369 128.95056,256.468749 129.306509,256.88227 C129.662458,257.295791 130.152339,257.502548 130.776167,257.502548 C131.399995,257.502548 131.889876,257.295791 132.245825,256.88227 C132.601774,256.468749 132.779746,255.903369 132.779746,255.186112 C132.779746,254.468855 132.601774,253.903474 132.245825,253.489954 C131.889876,253.076433 131.399995,252.869676 130.776167,252.869676 C130.152339,252.869676 129.662458,253.076433 129.306509,253.489954 L129.306509,253.489954 Z M139.175786,257.683691 C139.491369,257.914238 139.649159,258.219799 139.649159,258.600385 C139.649159,258.937057 139.535404,259.23347 139.30789,259.489633 C139.080376,259.745796 138.766632,259.943405 138.366648,260.082465 C137.966664,260.221525 137.509809,260.291054 136.996068,260.291054 C136.159405,260.291054 135.522743,260.157485 135.086063,259.890343 C134.649384,259.623202 134.431047,259.270068 134.431047,258.830931 C134.431047,258.55281 134.515446,258.313118 134.684247,258.111847 C134.853047,257.910576 135.087897,257.76237 135.388802,257.667223 C135.175966,257.564758 135.007168,257.431189 134.882403,257.266513 C134.757637,257.101837 134.695255,256.917036 134.695255,256.712105 C134.695255,256.448623 134.779654,256.223569 134.948455,256.036936 C135.117255,255.850302 135.344766,255.716733 135.630993,255.636225 C135.344766,255.482527 135.12276,255.2776 134.964968,255.021436 C134.807176,254.765273 134.728281,254.472519 134.728281,254.143167 C134.728281,253.594246 134.933775,253.155115 135.344767,252.825762 C135.75576,252.49641 136.298849,252.331736 136.974051,252.331736 C137.429078,252.331736 137.836395,252.412243 138.196014,252.57326 C138.247388,252.22195 138.403342,251.943834 138.663882,251.738904 C138.924422,251.533973 139.241836,251.431509 139.616133,251.431509 L139.759245,251.980428 C139.414305,251.980428 139.140926,252.051787 138.939099,252.194506 C138.737273,252.337226 138.621683,252.543983 138.592326,252.814784 C138.790483,252.975801 138.944603,253.16975 139.05469,253.396638 C139.164778,253.623525 139.21982,253.872366 139.21982,254.143167 C139.21982,254.684769 139.014327,255.12024 138.603335,255.449593 C138.192342,255.778945 137.649253,255.943619 136.974051,255.943619 C136.746537,255.943619 136.49701,255.918003 136.225461,255.866771 C135.924556,255.896047 135.693376,255.980213 135.531915,256.119273 C135.370453,256.258333 135.289724,256.426667 135.289724,256.624278 C135.289724,256.843847 135.386966,257.017669 135.581454,257.145751 C135.775941,257.273832 136.067668,257.337872 136.456643,257.337872 L137.876762,257.337872 C138.427199,257.337872 138.860202,257.453144 139.175786,257.683691 L139.175786,257.683691 Z M135.801627,253.204516 C135.511731,253.435063 135.366784,253.747943 135.366784,254.143167 C135.366784,254.53839 135.509896,254.849441 135.796123,255.076328 C136.08235,255.303216 136.474988,255.416658 136.974051,255.416658 C137.473113,255.416658 137.865752,255.303216 138.151979,255.076328 C138.438206,254.849441 138.581317,254.53839 138.581317,254.143167 C138.581317,253.747943 138.438206,253.435063 138.151979,253.204516 C137.865752,252.973969 137.473113,252.858697 136.974051,252.858697 C136.482328,252.858697 136.091524,252.973969 135.801627,253.204516 L135.801627,253.204516 Z M138.531778,259.456698 C138.895066,259.251767 139.076708,258.991948 139.076708,258.677233 C139.076708,258.428389 138.966622,258.23261 138.746447,258.089891 C138.526273,257.947171 138.192346,257.875812 137.744658,257.875812 L136.324539,257.875812 C135.920886,257.875812 135.599803,257.95449 135.36128,258.111847 C135.122758,258.269205 135.003498,258.475962 135.003498,258.732125 C135.003498,259.054159 135.18147,259.306659 135.537419,259.489633 C135.893368,259.672607 136.405266,259.764092 137.073129,259.764092 C137.682279,259.764092 138.16849,259.661628 138.531778,259.456698 L138.531778,259.456698 Z M144.960844,253.089243 C145.42688,253.594251 145.659895,254.2932 145.659895,255.186112 C145.659895,256.079024 145.42688,256.777973 144.960844,257.28298 C144.494808,257.787988 143.850807,258.040488 143.028822,258.040488 C142.206837,258.040488 141.562836,257.787988 141.096799,257.28298 C140.630763,256.777973 140.397749,256.079024 140.397749,255.186112 C140.397749,254.2932 140.630763,253.594251 141.096799,253.089243 C141.562836,252.584236 142.206837,252.331736 143.028822,252.331736 C143.850807,252.331736 144.494808,252.584236 144.960844,253.089243 L144.960844,253.089243 Z M141.559164,253.489954 C141.203215,253.903474 141.025243,254.468855 141.025243,255.186112 C141.025243,255.903369 141.203215,256.468749 141.559164,256.88227 C141.915113,257.295791 142.404994,257.502548 143.028822,257.502548 C143.65265,257.502548 144.142531,257.295791 144.49848,256.88227 C144.854429,256.468749 145.0324,255.903369 145.0324,255.186112 C145.0324,254.468855 144.854429,253.903474 144.49848,253.489954 C144.142531,253.076433 143.65265,252.869676 143.028822,252.869676 C142.404994,252.869676 141.915113,253.076433 141.559164,253.489954 L141.559164,253.489954 Z M150.294547,257.579396 C149.964285,257.886792 149.534951,258.040488 149.006532,258.040488 C148.558843,258.040488 148.204735,257.917897 147.944195,257.672713 C147.683655,257.427528 147.553387,257.056097 147.553387,256.558408 L147.553387,252.97946 L146.452519,252.97946 L146.452519,252.441519 L147.553387,252.441519 L147.553387,251.080202 L148.180881,250.915526 L148.180881,252.441519 L150.250512,252.441519 L150.250512,252.97946 L148.180881,252.97946 L148.180881,256.459603 C148.180881,256.788955 148.261611,257.037796 148.423072,257.206132 C148.584533,257.374468 148.815713,257.458634 149.116618,257.458634 C149.490915,257.458634 149.806494,257.323236 150.063364,257.052435 L150.294547,257.579396 Z M153.277897,258.918758 C153.072401,259.423765 152.843056,259.778729 152.589855,259.983659 C152.336654,260.18859 152.015571,260.291054 151.626596,260.291054 C151.149551,260.291054 150.786269,260.151996 150.536737,259.873876 L150.76792,259.335936 C150.958738,259.606737 151.241291,259.742135 151.615588,259.742135 C151.865119,259.742135 152.077951,259.670777 152.254091,259.528057 C152.43023,259.385338 152.591689,259.131008 152.738472,258.76506 L153.079741,257.930704 L150.756911,252.441519 L151.472475,252.441519 L153.09075,256.470581 L153.376975,257.261024 L153.696227,256.393733 L155.237441,252.441519 L155.919979,252.441519 L153.277897,258.918758 Z M161.567429,253.089243 C162.015117,253.594251 162.238958,254.2932 162.238958,255.186112 C162.238958,256.079024 162.015117,256.777973 161.567429,257.28298 C161.119741,257.787988 160.506931,258.040488 159.72898,258.040488 C159.266614,258.040488 158.862966,257.934365 158.518026,257.722115 C158.173086,257.509866 157.91622,257.217112 157.747419,256.843846 L157.747419,260.236162 L157.119925,260.236162 L157.119925,252.441519 L157.681367,252.441519 L157.714393,253.605227 C157.875854,253.210003 158.132721,252.898953 158.485,252.672065 C158.83728,252.445178 159.251935,252.331736 159.72898,252.331736 C160.506931,252.331736 161.119741,252.584236 161.567429,253.089243 L161.567429,253.089243 Z M161.094056,256.876781 C161.438996,256.46692 161.611464,255.903369 161.611464,255.186112 C161.611464,254.468855 161.438996,253.905304 161.094056,253.495443 C160.749116,253.085582 160.268408,252.880654 159.65192,252.880654 C159.094144,252.880654 158.640958,253.072774 158.292348,253.457019 C157.943739,253.841264 157.762097,254.36639 157.747419,255.032415 L157.747419,255.339809 C157.762097,256.005833 157.941904,256.53096 158.286844,256.915205 C158.631784,257.29945 159.086805,257.491569 159.65192,257.491569 C160.268408,257.491569 160.749116,257.286642 161.094056,256.876781 L161.094056,256.876781 Z M168.469868,255.438614 L164.154467,255.438614 C164.191163,256.082682 164.383813,256.585852 164.732423,256.94814 C165.081033,257.310428 165.548897,257.491569 166.136029,257.491569 C166.5617,257.491569 166.926817,257.407403 167.231392,257.239067 C167.535967,257.070731 167.754303,256.832869 167.886408,256.525473 L168.403816,256.799932 C167.970806,257.626974 167.214884,258.040488 166.136029,258.040488 C165.321383,258.040488 164.682886,257.787988 164.220519,257.28298 C163.758153,256.777973 163.526973,256.079024 163.526973,255.186112 C163.526973,254.2932 163.750814,253.594251 164.198502,253.089243 C164.64619,252.584236 165.273679,252.331736 166.080985,252.331736 C166.580048,252.331736 167.011217,252.447007 167.374505,252.677554 C167.737793,252.908101 168.014842,253.226471 168.205659,253.632673 C168.396477,254.038874 168.491885,254.501791 168.491885,255.021436 C168.491885,255.153177 168.484546,255.292235 168.469868,255.438614 L168.469868,255.438614 Z M164.721414,253.402127 C164.387483,253.749777 164.198502,254.241969 164.154467,254.878718 L167.897417,254.878718 C167.853382,254.249288 167.673575,253.758926 167.357992,253.407616 C167.042408,253.056306 166.616744,252.880654 166.080985,252.880654 C165.508531,252.880654 165.055346,253.054477 164.721414,253.402127 L164.721414,253.402127 Z" id="Colored-Logotype" fill="#757575" sketch:type="MSShapeGroup"></path>
                            <path d="M185.583404,191.668402 L200.544426,191.668402" id="Line" stroke="#333333" stroke-width="0.873877117" stroke-linecap="square" sketch:type="MSShapeGroup"></path>
                            <path d="M201.33076,204.999279 L214.698436,204.999279" id="Line-Copy" stroke="#333333" stroke-width="0.873877117" stroke-linecap="square" sketch:type="MSShapeGroup"></path>
                            <path d="M200.544426,177.553355 L214.698436,177.553355" id="Line-Copy-2" stroke="#333333" stroke-width="0.873877117" stroke-linecap="square" sketch:type="MSShapeGroup"></path>
                            <path d="M200.544426,177.553355 L200.544426,204.999279" id="Line" stroke="#333333" stroke-width="0.873877117" stroke-linecap="square" sketch:type="MSShapeGroup"></path>
                            <path d="M126.819335,193.831141 L126.819335,194.412994 L121.887449,194.412994 L121.887449,187.16727 L122.514944,187.16727 L122.514944,193.831141 L126.819335,193.831141 Z M131.976899,189.571533 C132.442935,190.076541 132.67595,190.77549 132.67595,191.668402 C132.67595,192.561314 132.442935,193.260263 131.976899,193.76527 C131.510863,194.270278 130.866862,194.522778 130.044877,194.522778 C129.222892,194.522778 128.578891,194.270278 128.112855,193.76527 C127.646818,193.260263 127.413804,192.561314 127.413804,191.668402 C127.413804,190.77549 127.646818,190.076541 128.112855,189.571533 C128.578891,189.066526 129.222892,188.814026 130.044877,188.814026 C130.866862,188.814026 131.510863,189.066526 131.976899,189.571533 L131.976899,189.571533 Z M128.575219,189.972244 C128.21927,190.385764 128.041298,190.951145 128.041298,191.668402 C128.041298,192.385659 128.21927,192.951039 128.575219,193.36456 C128.931168,193.778081 129.421049,193.984838 130.044877,193.984838 C130.668705,193.984838 131.158586,193.778081 131.514535,193.36456 C131.870484,192.951039 132.048456,192.385659 132.048456,191.668402 C132.048456,190.951145 131.870484,190.385764 131.514535,189.972244 C131.158586,189.558723 130.668705,189.351966 130.044877,189.351966 C129.421049,189.351966 128.931168,189.558723 128.575219,189.972244 L128.575219,189.972244 Z M138.444495,194.165981 C138.760079,194.396528 138.917868,194.702089 138.917868,195.082675 C138.917868,195.419346 138.804113,195.715759 138.576599,195.971923 C138.349086,196.228086 138.035341,196.425695 137.635358,196.564755 C137.235374,196.703815 136.778518,196.773344 136.264778,196.773344 C135.428114,196.773344 134.791452,196.639775 134.354773,196.372633 C133.918093,196.105492 133.699757,195.752357 133.699757,195.313221 C133.699757,195.0351 133.784156,194.795408 133.952956,194.594137 C134.121757,194.392866 134.356606,194.24466 134.657511,194.149513 C134.444676,194.047048 134.275878,193.913479 134.151112,193.748803 C134.026347,193.584126 133.963965,193.399326 133.963965,193.194395 C133.963965,192.930913 134.048364,192.705859 134.217164,192.519225 C134.385965,192.332592 134.613475,192.199023 134.899702,192.118515 C134.613475,191.964817 134.391469,191.759889 134.233677,191.503726 C134.075886,191.247563 133.996991,190.954809 133.996991,190.625457 C133.996991,190.076535 134.202484,189.637405 134.613477,189.308052 C135.024469,188.9787 135.567558,188.814026 136.24276,188.814026 C136.697788,188.814026 137.105105,188.894533 137.464723,189.05555 C137.516097,188.70424 137.672052,188.426124 137.932592,188.221194 C138.193132,188.016263 138.510545,187.913799 138.884842,187.913799 L139.027955,188.462718 C138.683015,188.462718 138.409635,188.534077 138.207809,188.676796 C138.005982,188.819516 137.890392,189.026273 137.861035,189.297074 C138.059193,189.458091 138.213313,189.65204 138.3234,189.878928 C138.433487,190.105815 138.48853,190.354656 138.48853,190.625457 C138.48853,191.167059 138.283037,191.60253 137.872044,191.931883 C137.461052,192.261235 136.917962,192.425909 136.24276,192.425909 C136.015247,192.425909 135.765719,192.400293 135.494171,192.349061 C135.193265,192.378336 134.962085,192.462503 134.800624,192.601563 C134.639163,192.740623 134.558433,192.908957 134.558433,193.106568 C134.558433,193.326137 134.655676,193.499959 134.850163,193.628041 C135.044651,193.756122 135.336378,193.820162 135.725353,193.820162 L137.145472,193.820162 C137.695908,193.820162 138.128912,193.935434 138.444495,194.165981 L138.444495,194.165981 Z M135.070337,189.686806 C134.78044,189.917353 134.635494,190.230233 134.635494,190.625457 C134.635494,191.02068 134.778605,191.331731 135.064832,191.558618 C135.351059,191.785506 135.743698,191.898948 136.24276,191.898948 C136.741823,191.898948 137.134462,191.785506 137.420689,191.558618 C137.706915,191.331731 137.850027,191.02068 137.850027,190.625457 C137.850027,190.230233 137.706915,189.917353 137.420689,189.686806 C137.134462,189.456259 136.741823,189.340987 136.24276,189.340987 C135.751037,189.340987 135.360233,189.456259 135.070337,189.686806 L135.070337,189.686806 Z M137.800488,195.938988 C138.163776,195.734057 138.345417,195.474238 138.345417,195.159523 C138.345417,194.910679 138.235332,194.7149 138.015157,194.572181 C137.794982,194.429461 137.461056,194.358102 137.013368,194.358102 L135.593249,194.358102 C135.189595,194.358102 134.868512,194.43678 134.62999,194.594137 C134.391467,194.751495 134.272208,194.958252 134.272208,195.214415 C134.272208,195.536449 134.45018,195.788949 134.806128,195.971923 C135.162077,196.154896 135.673976,196.246382 136.341838,196.246382 C136.950988,196.246382 137.4372,196.143918 137.800488,195.938988 L137.800488,195.938988 Z M144.229553,189.571533 C144.69559,190.076541 144.928604,190.77549 144.928604,191.668402 C144.928604,192.561314 144.69559,193.260263 144.229553,193.76527 C143.763517,194.270278 143.119516,194.522778 142.297531,194.522778 C141.475546,194.522778 140.831545,194.270278 140.365509,193.76527 C139.899473,193.260263 139.666458,192.561314 139.666458,191.668402 C139.666458,190.77549 139.899473,190.076541 140.365509,189.571533 C140.831545,189.066526 141.475546,188.814026 142.297531,188.814026 C143.119516,188.814026 143.763517,189.066526 144.229553,189.571533 L144.229553,189.571533 Z M140.827873,189.972244 C140.471924,190.385764 140.293952,190.951145 140.293952,191.668402 C140.293952,192.385659 140.471924,192.951039 140.827873,193.36456 C141.183822,193.778081 141.673703,193.984838 142.297531,193.984838 C142.921359,193.984838 143.41124,193.778081 143.767189,193.36456 C144.123138,192.951039 144.30111,192.385659 144.30111,191.668402 C144.30111,190.951145 144.123138,190.385764 143.767189,189.972244 C143.41124,189.558723 142.921359,189.351966 142.297531,189.351966 C141.673703,189.351966 141.183822,189.558723 140.827873,189.972244 L140.827873,189.972244 Z M149.563256,194.061686 C149.232994,194.369082 148.80366,194.522778 148.275241,194.522778 C147.827553,194.522778 147.473444,194.400187 147.212904,194.155003 C146.952364,193.909818 146.822096,193.538387 146.822096,193.040698 L146.822096,189.461749 L145.721229,189.461749 L145.721229,188.923809 L146.822096,188.923809 L146.822096,187.562492 L147.449591,187.397816 L147.449591,188.923809 L149.519221,188.923809 L149.519221,189.461749 L147.449591,189.461749 L147.449591,192.941893 C147.449591,193.271245 147.53032,193.520086 147.691782,193.688422 C147.853243,193.856758 148.084423,193.940924 148.385328,193.940924 C148.759625,193.940924 149.075204,193.805526 149.332074,193.534725 L149.563256,194.061686 Z M152.546607,195.401047 C152.341111,195.906055 152.111765,196.261019 151.858565,196.465949 C151.605364,196.67088 151.284281,196.773344 150.895306,196.773344 C150.418261,196.773344 150.054978,196.634286 149.805447,196.356166 L150.036629,195.818226 C150.227447,196.089027 150.51,196.224425 150.884297,196.224425 C151.133828,196.224425 151.34666,196.153066 151.5228,196.010347 C151.69894,195.867627 151.860399,195.613298 152.007182,195.24735 L152.348451,194.412994 L150.02562,188.923809 L150.741184,188.923809 L152.359459,192.952871 L152.645685,193.743314 L152.964936,192.876022 L154.506151,188.923809 L155.188689,188.923809 L152.546607,195.401047 Z M160.836138,189.571533 C161.283827,190.076541 161.507668,190.77549 161.507668,191.668402 C161.507668,192.561314 161.283827,193.260263 160.836138,193.76527 C160.38845,194.270278 159.77564,194.522778 158.99769,194.522778 C158.535323,194.522778 158.131676,194.416655 157.786736,194.204405 C157.441796,193.992156 157.184929,193.699402 157.016129,193.326136 L157.016129,196.718452 L156.388634,196.718452 L156.388634,188.923809 L156.950076,188.923809 L156.983103,190.087517 C157.144564,189.692293 157.40143,189.381243 157.75371,189.154355 C158.105989,188.927468 158.520645,188.814026 158.99769,188.814026 C159.77564,188.814026 160.38845,189.066526 160.836138,189.571533 L160.836138,189.571533 Z M160.362765,193.359071 C160.707706,192.94921 160.880173,192.385659 160.880173,191.668402 C160.880173,190.951145 160.707706,190.387594 160.362765,189.977733 C160.017825,189.567872 159.537118,189.362944 158.920629,189.362944 C158.362854,189.362944 157.909668,189.555064 157.561058,189.939309 C157.212448,190.323553 157.030807,190.84868 157.016129,191.514705 L157.016129,191.822099 C157.030807,192.488123 157.210613,193.01325 157.555554,193.397495 C157.900494,193.78174 158.355514,193.973859 158.920629,193.973859 C159.537118,193.973859 160.017825,193.768932 160.362765,193.359071 L160.362765,193.359071 Z M167.738577,191.920904 L163.423177,191.920904 C163.459873,192.564972 163.652523,193.068142 164.001132,193.43043 C164.349742,193.792718 164.817606,193.973859 165.404738,193.973859 C165.830409,193.973859 166.195526,193.889693 166.500101,193.721357 C166.804676,193.553021 167.023013,193.315159 167.155117,193.007763 L167.672525,193.282222 C167.239515,194.109263 166.483594,194.522778 165.404738,194.522778 C164.590092,194.522778 163.951596,194.270278 163.489229,193.76527 C163.026862,193.260263 162.795682,192.561314 162.795682,191.668402 C162.795682,190.77549 163.019523,190.076541 163.467212,189.571533 C163.9149,189.066526 164.542388,188.814026 165.349695,188.814026 C165.848757,188.814026 166.279926,188.929297 166.643214,189.159844 C167.006502,189.390391 167.283551,189.708761 167.474369,190.114962 C167.665187,190.521164 167.760595,190.984081 167.760595,191.503726 C167.760595,191.635467 167.753255,191.774525 167.738577,191.920904 L167.738577,191.920904 Z M163.990124,189.884417 C163.656192,190.232067 163.467212,190.724259 163.423177,191.361007 L167.166126,191.361007 C167.122091,190.731578 166.942285,190.241215 166.626701,189.889906 C166.311118,189.538596 165.885453,189.362944 165.349695,189.362944 C164.777241,189.362944 164.324055,189.536767 163.990124,189.884417 L163.990124,189.884417 Z" id="Logotype" fill="#757575" sketch:type="MSShapeGroup"></path>
                            <g id="Logotype-Copy-2" transform="translate(231.228335, 182.650455)">
                                <path d="M49.9855013,6.21375722 C49.9855013,8.67292431 49.0094087,10.2611126 47.057194,10.9783696 L50.9542647,16.4675545 L46.7269338,16.4675545 L43.3142448,11.5712016 L40.9363712,11.5712016 L40.9363712,16.4675545 L37.5016648,16.4675545 L37.5016648,1.1197937 L43.3362622,1.1197937 C45.728826,1.1197937 47.4351534,1.5223299 48.4552956,2.32741436 C49.4754379,3.13249883 49.9855013,4.42793349 49.9855013,6.21375722 L49.9855013,6.21375722 Z M45.8462399,8.03616658 C46.2719107,7.6555812 46.484743,7.0517769 46.484743,6.22473559 C46.484743,5.39769427 46.2645717,4.83048418 45.8242225,4.52308829 C45.3838733,4.21569241 44.6132739,4.06199677 43.5124009,4.06199677 L40.9363712,4.06199677 L40.9363712,8.6070418 L43.4463489,8.6070418 C44.6206133,8.6070418 45.420569,8.41675196 45.8462399,8.03616658 L45.8462399,8.03616658 Z M59.1897536,4.18275883 C58.8594917,4.45355997 58.6943633,4.81218313 58.6943633,5.25863906 C58.6943633,5.70509499 58.896187,6.06005873 59.2998404,6.32354091 C59.7034938,6.5870231 60.6355522,6.8980738 62.0960436,7.25670233 C63.556535,7.61533087 64.6904171,8.1532656 65.4977239,8.87052267 C66.3050307,9.58777974 66.7086781,10.6343738 66.7086781,12.0103364 C66.7086781,13.3862989 66.1912756,14.502422 65.156455,15.3587391 C64.1216345,16.2150562 62.7602421,16.6432084 61.0722369,16.6432084 C58.6356382,16.6432084 56.4412644,15.7429911 54.4890498,13.9425294 L56.5366632,11.4394612 C58.1953117,12.8886132 59.7291716,13.6131784 61.138289,13.6131784 C61.7694561,13.6131784 62.2648415,13.4777798 62.62446,13.2069787 C62.9840785,12.9361775 63.163885,12.5702355 63.163885,12.1091417 C63.163885,11.6480479 62.9730699,11.2821059 62.5914339,11.0113048 C62.209798,10.7405036 61.4538766,10.4660471 60.3236471,10.187927 C58.5328938,9.76342795 57.2228747,9.21085553 56.3935504,8.53019321 C55.5642261,7.84953089 55.1495702,6.78098027 55.1495702,5.32450928 C55.1495702,3.86803829 55.6743118,2.74459636 56.7238106,1.9541498 C57.7733095,1.16370323 59.0833286,0.768485875 60.6539073,0.768485875 C61.6813887,0.768485875 62.7088547,0.944138033 63.7363361,1.29544762 C64.7638174,1.6467572 65.6591807,2.14443832 66.4224525,2.78850589 L64.683082,5.29157417 C63.3473562,4.28155911 61.9676162,3.77655916 60.5438205,3.77655916 C59.9713666,3.77655916 59.5200155,3.9119577 59.1897536,4.18275883 L59.1897536,4.18275883 Z M82.3199787,2.49208991 C83.3988342,3.40695862 83.9382538,4.81217588 83.9382538,6.70778385 C83.9382538,8.60339182 83.3841561,9.99031198 82.275944,10.8685859 C81.1677319,11.7468599 79.4760826,12.1859903 77.2009452,12.1859903 L75.1533318,12.1859903 L75.1533318,16.4675545 L71.7186255,16.4675545 L71.7186255,1.1197937 L77.1569105,1.1197937 C79.5201177,1.1197937 81.2411233,1.5772212 82.3199787,2.49208991 L82.3199787,2.49208991 Z M79.7989923,8.53019321 C80.2099849,8.06909938 80.4154781,7.39576611 80.4154781,6.5101732 C80.4154781,5.62458029 80.147603,4.99516005 79.6118449,4.62189362 C79.0760867,4.24862719 78.2431054,4.06199677 77.1128758,4.06199677 L75.1533318,4.06199677 L75.1533318,9.2218305 L77.4651534,9.2218305 C78.6100612,9.2218305 79.3879998,8.99128704 79.7989923,8.53019321 L79.7989923,8.53019321 Z M99.802754,1.1197937 L99.802754,4.17178046 L92.1407167,4.17178046 L92.1407167,7.33355092 L99.0321468,7.33355092 L99.0321468,10.2537972 L92.1407167,10.2537972 L92.1407167,13.4375244 L100.044945,13.4375244 L100.044945,16.4675545 L88.7060104,16.4675545 L88.7060104,1.1197937 L99.802754,1.1197937 Z M105.186996,1.1197937 L108.621703,1.1197937 L108.621703,7.42137788 L114.434283,1.1197937 L118.683631,1.1197937 L112.562808,7.90442614 C113.091227,8.63632111 114.06732,10.0012848 115.491115,11.999358 C116.914911,13.9974313 117.979072,15.4868152 118.683631,16.4675545 L114.676473,16.4675545 L110.162917,10.4074944 L108.621703,12.1201201 L108.621703,16.4675545 L105.186996,16.4675545 L105.186996,1.1197937 Z M129.418089,4.08395351 L129.418089,16.4675545 L125.983382,16.4675545 L125.983382,4.08395351 L121.623948,4.08395351 L121.623948,1.1197937 L133.777524,1.1197937 L133.777524,4.08395351 L129.418089,4.08395351 Z M138.369142,1.1197937 L141.803848,1.1197937 L141.803848,16.4675545 L138.369142,16.4675545 L138.369142,1.1197937 Z M153.352948,10.8905427 L157.272036,1.1197937 L160.992968,1.1197937 L154.806093,16.4675545 L151.899803,16.4675545 L145.712928,1.1197937 L149.43386,1.1197937 L153.352948,10.8905427 Z" id="RSPEKTIV" fill="#333333" sketch:type="MSShapeGroup"></path>
                                <path d="M10.9221774,2.49208991 C12.0010329,3.40695862 12.5404525,4.81217588 12.5404525,6.70778385 C12.5404525,8.60339182 11.9863548,9.99031198 10.8781427,10.8685859 C9.76993067,11.7468599 8.07828132,12.1859903 5.80314395,12.1859903 L3.75553056,12.1859903 L3.75553056,16.4675545 L0.320824218,16.4675545 L0.320824218,1.1197937 L5.75910925,1.1197937 C8.12231646,1.1197937 9.84332197,1.5772212 10.9221774,2.49208991 L10.9221774,2.49208991 Z M8.40119105,8.53019321 C8.81218361,8.06909938 9.01767681,7.39576611 9.01767681,6.5101732 C9.01767681,5.62458029 8.74980175,4.99516005 8.21404359,4.62189362 C7.67828544,4.24862719 6.84530409,4.06199677 5.71507456,4.06199677 L3.75553056,4.06199677 L3.75553056,9.2218305 L6.06735213,9.2218305 C7.21225997,9.2218305 7.9901985,8.99128704 8.40119105,8.53019321 L8.40119105,8.53019321 Z" id="P" fill="#333333" sketch:type="MSShapeGroup"></path>
                                <g id="Line-Copy-16">
                                    <use stroke="#333333" stroke-width="2.88379449" stroke-linecap="square" sketch:type="MSShapeGroup" xlink:href="#path-4"></use>
                                    <use stroke="none" xlink:href="#path-4"></use>
                                </g>
                                <g id="Line-Copy-18">
                                    <use stroke="#333333" stroke-width="2.88379449" stroke-linecap="square" sketch:type="MSShapeGroup" xlink:href="#path-5"></use>
                                    <use stroke="none" xlink:href="#path-5"></use>
                                </g>
                                <g id="Line-Copy-17">
                                    <use stroke="#333333" stroke-width="2.88379449" stroke-linecap="square" sketch:type="MSShapeGroup" xlink:href="#path-6"></use>
                                    <use stroke="none" xlink:href="#path-6"></use>
                                </g>
                            </g>
                            <g id="Colored-Mark-+-Colored-Mark-+-label-prong-copy" transform="translate(172.786841, 126.582353) scale(-1, 1) translate(-172.786841, -126.582353) translate(92.187619, 112.075222)" sketch:type="MSShapeGroup">
                                <g id="Colored-Mark" transform="translate(0.235900, 4.705016)" stroke="#263B64" stroke-width="3.64115466" stroke-linecap="square">
                                    <path d="M19.3719249,2.08345432 C19.3719249,2.08345432 14.6922098,-1.16355268 10.0124947,2.08345434 C5.33277956,5.33046136 0.653064446,2.08345433 0.653064446,2.08345433" id="Line-Copy-11"></path>
                                    <path d="M19.3719249,9.85171834 C19.3719249,9.85171834 14.6922098,6.60471134 10.0124947,9.85171836 C5.33277956,13.0987254 0.653064446,9.85171835 0.653064446,9.85171835" id="Line-Copy-12"></path>
                                    <path d="M19.3719249,17.6199824 C19.3719249,17.6199824 14.6922098,14.3729754 10.0124947,17.6199824 C5.33277956,20.8669894 0.653064446,17.6199824 0.653064446,17.6199824" id="Line-Copy-13"></path>
                                </g>
                                <path d="M97.2907306,16.9004159 C96.7806595,17.2444065 96.1733537,17.4163993 95.468795,17.4163993 C94.8009321,17.4163993 94.2174782,17.2645333 93.7184158,16.9607969 C93.2193534,16.6570605 92.8340537,16.2234193 92.562505,15.6598601 C92.2909564,15.096301 92.1551841,14.4376054 92.1551841,13.6837536 C92.1551841,12.9299018 92.2909564,12.2712062 92.562505,11.7076471 C92.8340537,11.1440879 93.2193534,10.7104467 93.7184158,10.4067103 C94.2174782,10.1029738 94.7972626,9.95110791 95.4577863,9.95110791 C96.9035994,9.95110791 97.8429969,10.5402745 98.2760069,11.7186254 L97.6595212,12.004063 C97.4907206,11.5136934 97.2283499,11.1459217 96.872401,10.9007369 C96.516452,10.6555521 96.0595966,10.5329615 95.501821,10.5329615 C94.9660629,10.5329615 94.4945294,10.6592115 94.0872064,10.9117153 C93.6798834,11.164219 93.3643046,11.5283313 93.1404604,12.004063 C92.9166163,12.4797948 92.8046959,13.039686 92.8046959,13.6837536 C92.8046959,14.3278212 92.9147815,14.8877124 93.1349561,15.3634441 C93.3551307,15.8391759 93.6652052,16.2032882 94.065189,16.4557919 C94.4651729,16.7082957 94.9330368,16.8345457 95.468795,16.8345457 C96.0339098,16.8345457 96.5164518,16.6973174 96.9164357,16.4228568 C97.3164195,16.1483962 97.5971379,15.7513491 97.7585992,15.2317037 L98.375085,15.4622495 C98.1622495,16.0770412 97.8008017,16.5564253 97.2907306,16.9004159 L97.2907306,16.9004159 Z M104.01703,12.4651546 C104.483067,12.9701621 104.716081,13.6691113 104.716081,14.5620232 C104.716081,15.454935 104.483067,16.1538842 104.01703,16.6588918 C103.550994,17.1638993 102.906993,17.4163993 102.085008,17.4163993 C101.263023,17.4163993 100.619022,17.1638993 100.152986,16.6588918 C99.6869497,16.1538842 99.453935,15.454935 99.453935,14.5620232 C99.453935,13.6691113 99.6869497,12.9701621 100.152986,12.4651546 C100.619022,11.960147 101.263023,11.7076471 102.085008,11.7076471 C102.906993,11.7076471 103.550994,11.960147 104.01703,12.4651546 L104.01703,12.4651546 Z M100.61535,12.8658651 C100.259401,13.2793857 100.081429,13.8447661 100.081429,14.5620232 C100.081429,15.2792802 100.259401,15.8446606 100.61535,16.2581813 C100.971299,16.6717019 101.46118,16.8784592 102.085008,16.8784592 C102.708836,16.8784592 103.198717,16.6717019 103.554666,16.2581813 C103.910615,15.8446606 104.088587,15.2792802 104.088587,14.5620232 C104.088587,13.8447661 103.910615,13.2793857 103.554666,12.8658651 C103.198717,12.4523444 102.708836,12.2455872 102.085008,12.2455872 C101.46118,12.2455872 100.971299,12.4523444 100.61535,12.8658651 L100.61535,12.8658651 Z M106.928825,15.9452977 C106.928825,16.2673315 106.980198,16.4942156 107.082946,16.6259567 C107.185694,16.7576978 107.358162,16.8235673 107.600354,16.8235673 C107.747137,16.8235673 107.871901,16.8125891 107.974649,16.7906322 C108.077397,16.7686754 108.202161,16.7284217 108.348944,16.6698701 L108.249866,17.2736805 C108.03703,17.3688268 107.787503,17.4163993 107.501276,17.4163993 C107.097622,17.4163993 106.796722,17.3029573 106.598565,17.0760698 C106.400407,16.8491824 106.30133,16.4942186 106.30133,16.011168 L106.30133,9.29240573 L106.928825,9.29240573 L106.928825,15.9452977 Z M113.616594,12.4651546 C114.082631,12.9701621 114.315645,13.6691113 114.315645,14.5620232 C114.315645,15.454935 114.082631,16.1538842 113.616594,16.6588918 C113.150558,17.1638993 112.506557,17.4163993 111.684572,17.4163993 C110.862587,17.4163993 110.218586,17.1638993 109.75255,16.6588918 C109.286514,16.1538842 109.053499,15.454935 109.053499,14.5620232 C109.053499,13.6691113 109.286514,12.9701621 109.75255,12.4651546 C110.218586,11.960147 110.862587,11.7076471 111.684572,11.7076471 C112.506557,11.7076471 113.150558,11.960147 113.616594,12.4651546 L113.616594,12.4651546 Z M110.214914,12.8658651 C109.858965,13.2793857 109.680993,13.8447661 109.680993,14.5620232 C109.680993,15.2792802 109.858965,15.8446606 110.214914,16.2581813 C110.570863,16.6717019 111.060744,16.8784592 111.684572,16.8784592 C112.3084,16.8784592 112.798281,16.6717019 113.15423,16.2581813 C113.510179,15.8446606 113.688151,15.2792802 113.688151,14.5620232 C113.688151,13.8447661 113.510179,13.2793857 113.15423,12.8658651 C112.798281,12.4523444 112.3084,12.2455872 111.684572,12.2455872 C111.060744,12.2455872 110.570863,12.4523444 110.214914,12.8658651 L110.214914,12.8658651 Z M118.994332,11.8723226 L118.84021,12.4651546 C118.656731,12.3480514 118.425552,12.2895006 118.146664,12.2895006 C117.882454,12.2895006 117.629257,12.3718376 117.387065,12.536514 C117.144873,12.7011903 116.948554,12.9335635 116.798101,13.2336404 C116.647649,13.5337174 116.572423,13.8740434 116.572423,14.2546288 L116.572423,17.3066156 L115.944929,17.3066156 L115.944929,11.8174308 L116.473345,11.8174308 L116.550406,12.8823326 C116.697189,12.5090662 116.92103,12.219972 117.221935,12.0150414 C117.52284,11.8101108 117.889793,11.7076471 118.322803,11.7076471 C118.60169,11.7076471 118.825531,11.7625384 118.994332,11.8723226 L118.994332,11.8723226 Z M124.531695,14.8145257 L120.216295,14.8145257 C120.25299,15.4585932 120.44564,15.9617635 120.79425,16.3240515 C121.14286,16.6863395 121.610724,16.8674808 122.197856,16.8674808 C122.623527,16.8674808 122.988644,16.7833141 123.293219,16.6149783 C123.597794,16.4466424 123.81613,16.2087801 123.948235,15.9013843 L124.465643,16.1758435 C124.032633,17.0028848 123.276711,17.4163993 122.197856,17.4163993 C121.38321,17.4163993 120.744713,17.1638993 120.282347,16.6588918 C119.81998,16.1538842 119.5888,15.454935 119.5888,14.5620232 C119.5888,13.6691113 119.812641,12.9701621 120.260329,12.4651546 C120.708018,11.960147 121.335506,11.7076471 122.142812,11.7076471 C122.641875,11.7076471 123.073044,11.8229188 123.436332,12.0534657 C123.79962,12.2840126 124.076669,12.6023822 124.267487,13.0085839 C124.458305,13.4147856 124.553712,13.8777022 124.553712,14.3973476 C124.553712,14.5290887 124.546373,14.6681467 124.531695,14.8145257 L124.531695,14.8145257 Z M120.783241,12.7780381 C120.44931,13.1256882 120.260329,13.6178802 120.216295,14.2546288 L123.959244,14.2546288 C123.915209,13.6251991 123.735402,13.1348369 123.419819,12.7835273 C123.104235,12.4322177 122.678571,12.2565655 122.142812,12.2565655 C121.570359,12.2565655 121.117173,12.430388 120.783241,12.7780381 L120.783241,12.7780381 Z M130.927734,9.29240573 L130.927734,17.3066156 L130.366292,17.3066156 L130.333266,16.1538868 C130.171805,16.5417911 129.913103,16.8491824 129.557155,17.0760698 C129.201206,17.3029573 128.788384,17.4163993 128.318679,17.4163993 C127.540729,17.4163993 126.927918,17.1638993 126.48023,16.6588918 C126.032542,16.1538842 125.808701,15.454935 125.808701,14.5620232 C125.808701,13.6691113 126.032542,12.9701621 126.48023,12.4651546 C126.927918,11.960147 127.540729,11.7076471 128.318679,11.7076471 C128.781045,11.7076471 129.184693,11.8137702 129.529633,12.0260198 C129.874573,12.2382693 130.13144,12.5310229 130.30024,12.9042893 L130.30024,9.29240573 L130.927734,9.29240573 Z M129.744302,16.3075839 C130.085573,15.9343175 130.270883,15.4219987 130.30024,14.7706122 L130.30024,14.3534341 C130.270883,13.7020476 130.085573,13.1897288 129.744302,12.8164624 C129.403031,12.443196 128.953515,12.2565655 128.395739,12.2565655 C127.779251,12.2565655 127.298543,12.4614931 126.953603,12.8713542 C126.608663,13.2812154 126.436195,13.8447661 126.436195,14.5620232 C126.436195,15.2792802 126.608663,15.8428309 126.953603,16.2526921 C127.298543,16.6625533 127.779251,16.8674808 128.395739,16.8674808 C128.953515,16.8674808 129.403031,16.6808504 129.744302,16.3075839 L129.744302,16.3075839 Z M143.411571,17.3066156 L142.806094,17.3066156 L142.806094,12.1028684 L142.872146,10.6537236 L140.274099,17.3066156 L139.712656,17.3066156 L137.125618,10.6537236 L137.114609,10.6537236 L137.180661,12.1028684 L137.180661,17.3066156 L136.586193,17.3066156 L136.586193,10.0608916 L137.532939,10.0608916 L139.591561,15.2975739 L139.987873,16.5710648 L139.998882,16.5710648 L140.406203,15.3085523 L142.453816,10.0608916 L143.411571,10.0608916 L143.411571,17.3066156 Z M150.369053,16.8125889 L150.336027,17.3066156 C150.189244,17.3798051 149.998429,17.4163993 149.763576,17.4163993 C149.499366,17.4163993 149.286534,17.3487 149.125073,17.2132994 C148.963612,17.0778989 148.868204,16.8455257 148.838847,16.516173 C148.670047,16.794293 148.405841,17.0138582 148.046223,17.1748751 C147.686604,17.335892 147.304974,17.4163993 146.901321,17.4163993 C146.358223,17.4163993 145.919716,17.2938087 145.585784,17.0486239 C145.251853,16.8034391 145.084889,16.4576239 145.084889,16.011168 C145.084889,15.5866689 145.259192,15.2317051 145.607801,14.9462661 C145.956411,14.6608271 146.482988,14.459559 147.187546,14.3424558 L148.827839,14.0570182 L148.827839,13.6178834 C148.827839,13.1933843 148.70124,12.8603771 148.448039,12.6188517 C148.194839,12.3773264 147.83706,12.2565655 147.374694,12.2565655 C146.530691,12.2565655 145.958246,12.6334858 145.657341,13.3873376 L145.183968,13.0470082 C145.33809,12.6225091 145.6078,12.2931613 145.993105,12.0589549 C146.378411,11.8247485 146.838936,11.7076471 147.374694,11.7076471 C148.0132,11.7076471 148.519594,11.8631724 148.893891,12.1742278 C149.268188,12.4852831 149.455333,12.9408809 149.455333,13.5410348 L149.455333,16.340519 C149.455333,16.6991476 149.616792,16.8784592 149.939715,16.8784592 C150.108515,16.8784592 150.251627,16.8565026 150.369053,16.8125889 L150.369053,16.8125889 Z M147.842562,16.7082944 C148.132459,16.6021697 148.369143,16.448474 148.552622,16.2472029 C148.736101,16.0459318 148.827839,15.8062398 148.827839,15.5281197 L148.827839,14.5730015 L147.385702,14.8364824 C146.813248,14.9389477 146.394923,15.0853245 146.130713,15.2756172 C145.866504,15.4659099 145.734401,15.711091 145.734401,16.011168 C145.734401,16.2819691 145.840817,16.4923857 146.053653,16.6424242 C146.266488,16.7924627 146.563719,16.8674808 146.945355,16.8674808 C147.2536,16.8674808 147.552666,16.8144192 147.842562,16.7082944 L147.842562,16.7082944 Z M154.574367,11.8723226 L154.420245,12.4651546 C154.236766,12.3480514 154.005586,12.2895006 153.726699,12.2895006 C153.462489,12.2895006 153.209292,12.3718376 152.9671,12.536514 C152.724908,12.7011903 152.528589,12.9335635 152.378136,13.2336404 C152.227683,13.5337174 152.152458,13.8740434 152.152458,14.2546288 L152.152458,17.3066156 L151.524964,17.3066156 L151.524964,11.8174308 L152.05338,11.8174308 L152.130441,12.8823326 C152.277224,12.5090662 152.501065,12.219972 152.80197,12.0150414 C153.102875,11.8101108 153.469827,11.7076471 153.902837,11.7076471 C154.181725,11.7076471 154.405566,11.7625384 154.574367,11.8723226 L154.574367,11.8723226 Z M157.656795,14.4412611 L156.390798,15.6818169 L156.390798,17.3066156 L155.763303,17.3066156 L155.763303,9.29240573 L156.390798,9.29240573 L156.390798,14.8913743 L159.561296,11.8174308 L160.364929,11.8174308 L158.11916,14.0021263 L160.464007,17.3066156 L159.704409,17.3066156 L157.656795,14.4412611 Z" id="Colored-Mark" fill="#757575" transform="translate(126.414178, 13.354403) scale(-1, 1) translate(-126.414178, -13.354403) "></path>
                                <g id="label-prong-copy" transform="translate(59.210940, 14.507131) scale(-1, 1) translate(-59.210940, -14.507131) translate(44.270597, 0.000000)" stroke="#333333" stroke-width="0.873877117" stroke-linecap="square">
                                    <path d="M0.372488265,15.2913006 L15.3335104,15.2913006" id="Line"></path>
                                    <path d="M16.1198443,28.622178 L29.4875201,28.622178" id="Line-Copy"></path>
                                    <path d="M15.3335104,1.17625389 L29.4875201,1.17625389" id="Line-Copy-2"></path>
                                    <path d="M15.3335104,1.17625389 L15.3335104,28.622178" id="Line"></path>
                                </g>
                            </g>
                            <g id="Mark" transform="translate(195.197356, 63.064643) scale(-1, 1) translate(-195.197356, -63.064643) translate(137.008650, 48.557512)" sketch:type="MSShapeGroup">
                                <g id="Colored-Mark-Copy" transform="translate(0.235900, 6.273354)" stroke="#444444" stroke-width="3.64115466" stroke-linecap="square">
                                    <path d="M19.3719249,2.08345432 C19.3719249,2.08345432 14.6922098,-1.16355268 10.0124947,2.08345434 C5.33277956,5.33046136 0.653064446,2.08345433 0.653064446,2.08345433" id="Line-Copy-11"></path>
                                    <path d="M19.3719249,9.85171834 C19.3719249,9.85171834 14.6922098,6.60471134 10.0124947,9.85171836 C5.33277956,13.0987254 0.653064446,9.85171835 0.653064446,9.85171835" id="Line-Copy-12"></path>
                                    <path d="M19.3719249,17.6199824 C19.3719249,17.6199824 14.6922098,14.3729754 10.0124947,17.6199824 C5.33277956,20.8669894 0.653064446,17.6199824 0.653064446,17.6199824" id="Line-Copy-13"></path>
                                </g>
                                <path d="M98.6455838,17.2517237 L98.0401068,17.2517237 L98.0401068,12.0479765 L98.1061588,10.5988317 L95.5081117,17.2517237 L94.9466693,17.2517237 L92.3596309,10.5988317 L92.3486222,10.5988317 L92.4146743,12.0479765 L92.4146743,17.2517237 L91.8202058,17.2517237 L91.8202058,10.0059998 L92.7669518,10.0059998 L94.8255739,15.2426821 L95.2218862,16.516173 L95.2328948,16.516173 L95.6402158,15.2536605 L97.6878292,10.0059998 L98.6455838,10.0059998 L98.6455838,17.2517237 Z M105.603066,16.7576971 L105.57004,17.2517237 C105.423257,17.3249132 105.232442,17.3615074 104.997589,17.3615074 C104.733379,17.3615074 104.520547,17.2938082 104.359086,17.1584076 C104.197624,17.023007 104.102217,16.7906338 104.07286,16.4612811 C103.90406,16.7394012 103.639854,16.9589664 103.280236,17.1199833 C102.920617,17.2810002 102.538987,17.3615074 102.135334,17.3615074 C101.592236,17.3615074 101.153728,17.2389169 100.819797,16.993732 C100.485866,16.7485472 100.318902,16.402732 100.318902,15.9562761 C100.318902,15.531777 100.493205,15.1768133 100.841814,14.8913743 C101.190424,14.6059352 101.717,14.4046671 102.421559,14.2875639 L104.061852,14.0021263 L104.061852,13.5629915 C104.061852,13.1384924 103.935253,12.8054852 103.682052,12.5639599 C103.428851,12.3224345 103.071073,12.2016737 102.608707,12.2016737 C101.764704,12.2016737 101.192259,12.5785939 100.891353,13.3324458 L100.41798,12.9921163 C100.572103,12.5676172 100.841812,12.2382694 101.227118,12.004063 C101.612423,11.7698566 102.072948,11.6527552 102.608707,11.6527552 C103.247213,11.6527552 103.753607,11.8082806 104.127904,12.1193359 C104.5022,12.4303913 104.689346,12.8859891 104.689346,13.4861429 L104.689346,16.2856272 C104.689346,16.6442557 104.850805,16.8235673 105.173728,16.8235673 C105.342528,16.8235673 105.485639,16.8016108 105.603066,16.7576971 L105.603066,16.7576971 Z M103.076575,16.6534026 C103.366472,16.5472778 103.603156,16.3935822 103.786635,16.1923111 C103.970113,15.9910399 104.061852,15.7513479 104.061852,15.4732278 L104.061852,14.5181097 L102.619715,14.7815906 C102.047261,14.8840559 101.628936,15.0304326 101.364726,15.2207253 C101.100517,15.411018 100.968414,15.6561992 100.968414,15.9562761 C100.968414,16.2270772 101.07483,16.4374939 101.287666,16.5875324 C101.500501,16.7375708 101.797732,16.8125889 102.179368,16.8125889 C102.487613,16.8125889 102.786679,16.7595274 103.076575,16.6534026 L103.076575,16.6534026 Z M109.808379,11.8174308 L109.654258,12.4102627 C109.470779,12.2931595 109.239599,12.2346088 108.960712,12.2346088 C108.696502,12.2346088 108.443305,12.3169457 108.201113,12.4816221 C107.958921,12.6462985 107.762602,12.8786717 107.612149,13.1787486 C107.461696,13.4788255 107.386471,13.8191516 107.386471,14.199737 L107.386471,17.2517237 L106.758977,17.2517237 L106.758977,11.7625389 L107.287393,11.7625389 L107.364454,12.8274408 C107.511237,12.4541743 107.735078,12.1650801 108.035983,11.9601496 C108.336888,11.755219 108.70384,11.6527552 109.13685,11.6527552 C109.415738,11.6527552 109.639579,11.7076465 109.808379,11.8174308 L109.808379,11.8174308 Z M112.890808,14.3863692 L111.624811,15.626925 L111.624811,17.2517237 L110.997316,17.2517237 L110.997316,9.23751389 L111.624811,9.23751389 L111.624811,14.8364824 L114.795309,11.7625389 L115.598942,11.7625389 L113.353173,13.9472345 L115.69802,17.2517237 L114.938422,17.2517237 L112.890808,14.3863692 Z" fill="#757575" transform="translate(103.863695, 13.299511) scale(-1, 1) translate(-103.863695, -13.299511) "></path>
                                <g id="label-prong" transform="translate(57.638273, 14.507131) scale(-1, 1) translate(-57.638273, -14.507131) translate(42.697929, 0.000000)" stroke="#333333" stroke-width="0.873877117" stroke-linecap="square">
                                    <path d="M0.372488265,15.2913006 L15.3335104,15.2913006" id="Line"></path>
                                    <path d="M16.1198443,28.622178 L29.4875201,28.622178" id="Line-Copy"></path>
                                    <path d="M15.3335104,1.17625389 L29.4875201,1.17625389" id="Line-Copy-2"></path>
                                    <path d="M15.3335104,1.17625389 L15.3335104,28.622178" id="Line"></path>
                                </g>
                            </g>
                            <path d="M0.579723357,21.5646547 L394.687044,24.8772391" id="Line" stroke="#000000" stroke-width="0.573313125" stroke-linecap="square" sketch:type="MSShapeGroup"></path>
                            <path d="M1.20997253,10.1942004 L1.20997253,1.42405138 L3.17266186,1.42405138 L3.17266186,8.45020795 L6.92190175,8.45020795 L6.92190175,10.1942004 L1.20997253,10.1942004 Z M14.8796005,3.7577391 C14.3763443,3.20568118 13.7577679,2.92965636 13.0238526,2.92965636 C12.2899373,2.92965636 11.6713608,3.20568118 11.1681046,3.7577391 C10.6648484,4.30979701 10.4132241,4.97685699 10.4132241,5.75893905 C10.4132241,6.5410211 10.6648484,7.20598998 11.1681046,7.75386565 C11.6713608,8.30174131 12.2899373,8.57567503 13.0238526,8.57567503 C13.7577679,8.57567503 14.3763443,8.30174131 14.8796005,7.75386565 C15.3828567,7.20598998 15.634481,6.5410211 15.634481,5.75893905 C15.634481,4.97685699 15.3828567,4.30979701 14.8796005,3.7577391 L14.8796005,3.7577391 Z M13.0175619,10.2820273 C11.7174834,10.2820273 10.6229176,9.84917024 9.73383166,8.98344305 C8.84474573,8.11771585 8.40020942,7.04080084 8.40020942,5.75266569 C8.40020942,4.46453055 8.84474573,3.38761553 9.73383166,2.52188834 C10.6229176,1.65616115 11.7174834,1.22330405 13.0175619,1.22330405 C14.3176404,1.22330405 15.4122062,1.65616115 16.3012921,2.52188834 C17.1903781,3.38761553 17.6349144,4.46453055 17.6349144,5.75266569 C17.6349144,7.04080084 17.1903781,8.11771585 16.3012921,8.98344305 C15.4122062,9.84917024 14.3176404,10.2820273 13.0175619,10.2820273 L13.0175619,10.2820273 Z M25.7939146,5.72757228 L27.7691853,5.72757228 L27.7691853,8.8391559 C26.8968745,9.80943952 25.6890778,10.294574 24.1457588,10.294574 C22.8540679,10.294574 21.7699865,9.86799024 20.8934819,9.01480982 C20.0169774,8.1616294 19.5787317,7.08471438 19.5787317,5.78403246 C19.5787317,4.48335055 20.0253649,3.39807114 20.9186446,2.5281617 C21.8119244,1.65825225 22.8897152,1.22330405 24.1520495,1.22330405 C25.4143838,1.22330405 26.5110464,1.63734128 27.4420704,2.46542815 L26.4229817,3.93339301 C26.0287643,3.59044794 25.6660059,3.35415396 25.3346956,3.224504 C25.0033853,3.09485403 24.6448206,3.03003002 24.2589909,3.03003002 C23.5124942,3.03003002 22.8834334,3.28305277 22.3717896,3.78910587 C21.8601458,4.29515896 21.6043277,4.96221894 21.6043277,5.79030582 C21.6043277,6.6183927 21.8496615,7.28127048 22.3403362,7.77895906 C22.831011,8.27664764 23.4160376,8.5254882 24.0954334,8.5254882 C24.7748293,8.5254882 25.340984,8.39584018 25.7939146,8.13654024 L25.7939146,5.72757228 Z M36.2804631,3.7577391 C35.7772069,3.20568118 35.1586304,2.92965636 34.4247151,2.92965636 C33.6907999,2.92965636 33.0722234,3.20568118 32.5689672,3.7577391 C32.065711,4.30979701 31.8140867,4.97685699 31.8140867,5.75893905 C31.8140867,6.5410211 32.065711,7.20598998 32.5689672,7.75386565 C33.0722234,8.30174131 33.6907999,8.57567503 34.4247151,8.57567503 C35.1586304,8.57567503 35.7772069,8.30174131 36.2804631,7.75386565 C36.7837193,7.20598998 37.0353436,6.5410211 37.0353436,5.75893905 C37.0353436,4.97685699 36.7837193,4.30979701 36.2804631,3.7577391 L36.2804631,3.7577391 Z M34.4184245,10.2820273 C33.118346,10.2820273 32.0237802,9.84917024 31.1346942,8.98344305 C30.2456083,8.11771585 29.801072,7.04080084 29.801072,5.75266569 C29.801072,4.46453055 30.2456083,3.38761553 31.1346942,2.52188834 C32.0237802,1.65616115 33.118346,1.22330405 34.4184245,1.22330405 C35.718503,1.22330405 36.8130688,1.65616115 37.7021547,2.52188834 C38.5912406,3.38761553 39.0357769,4.46453055 39.0357769,5.75266569 C39.0357769,7.04080084 38.5912406,8.11771585 37.7021547,8.98344305 C36.8130688,9.84917024 35.718503,10.2820273 34.4184245,10.2820273 L34.4184245,10.2820273 Z M50.1199392,0.0941003112 L51.9064897,0.0941003112 L46.6223261,11.5994317 L44.8483569,11.5994317 L50.1199392,0.0941003112 Z M62.2483528,8.46275466 C63.2129271,8.46275466 64.00135,8.08217498 64.613645,7.32100421 L65.8717792,8.61331515 C64.8736544,9.73416002 63.6973107,10.294574 62.3427128,10.294574 C60.9881149,10.294574 59.8725804,9.86799024 58.9960759,9.01480982 C58.1195713,8.1616294 57.6813256,7.08471438 57.6813256,5.78403246 C57.6813256,4.48335055 58.1279588,3.39807114 59.0212386,2.5281617 C59.9145183,1.65825225 61.0069872,1.22330405 62.2986781,1.22330405 C63.7413459,1.22330405 64.9491426,1.77117149 65.9221046,2.86692282 L64.7017144,4.24706071 C64.0810318,3.47752543 63.3093839,3.09276356 62.3867475,3.09276356 C61.6486384,3.09276356 61.0174808,3.33323973 60.4932556,3.81419928 C59.9690304,4.29515883 59.7069217,4.94339894 59.7069217,5.75893905 C59.7069217,6.57447916 59.9543523,7.22899255 60.4492209,7.72249888 C60.9440895,8.2160052 61.5437941,8.46275466 62.2483528,8.46275466 L62.2483528,8.46275466 Z M73.9930354,3.7577391 C73.4897792,3.20568118 72.8712028,2.92965636 72.1372875,2.92965636 C71.4033722,2.92965636 70.7847957,3.20568118 70.2815396,3.7577391 C69.7782834,4.30979701 69.526659,4.97685699 69.526659,5.75893905 C69.526659,6.5410211 69.7782834,7.20598998 70.2815396,7.75386565 C70.7847957,8.30174131 71.4033722,8.57567503 72.1372875,8.57567503 C72.8712028,8.57567503 73.4897792,8.30174131 73.9930354,7.75386565 C74.4962916,7.20598998 74.7479159,6.5410211 74.7479159,5.75893905 C74.7479159,4.97685699 74.4962916,4.30979701 73.9930354,3.7577391 L73.9930354,3.7577391 Z M72.1309968,10.2820273 C70.8309183,10.2820273 69.7363525,9.84917024 68.8472666,8.98344305 C67.9581806,8.11771585 67.5136443,7.04080084 67.5136443,5.75266569 C67.5136443,4.46453055 67.9581806,3.38761553 68.8472666,2.52188834 C69.7363525,1.65616115 70.8309183,1.22330405 72.1309968,1.22330405 C73.4310753,1.22330405 74.5256411,1.65616115 75.4147271,2.52188834 C76.303813,3.38761553 76.7483493,4.46453055 76.7483493,5.75266569 C76.7483493,7.04080084 76.303813,8.11771585 75.4147271,8.98344305 C74.5256411,9.84917024 73.4310753,10.2820273 72.1309968,10.2820273 L72.1309968,10.2820273 Z M79.1954203,10.1942004 L79.1954203,1.42405138 L81.1581096,1.42405138 L81.1581096,8.45020795 L84.9073495,8.45020795 L84.9073495,10.1942004 L79.1954203,10.1942004 Z M92.8650483,3.7577391 C92.3617921,3.20568118 91.7432156,2.92965636 91.0093003,2.92965636 C90.2753851,2.92965636 89.6568086,3.20568118 89.1535524,3.7577391 C88.6502962,4.30979701 88.3986719,4.97685699 88.3986719,5.75893905 C88.3986719,6.5410211 88.6502962,7.20598998 89.1535524,7.75386565 C89.6568086,8.30174131 90.2753851,8.57567503 91.0093003,8.57567503 C91.7432156,8.57567503 92.3617921,8.30174131 92.8650483,7.75386565 C93.3683045,7.20598998 93.6199288,6.5410211 93.6199288,5.75893905 C93.6199288,4.97685699 93.3683045,4.30979701 92.8650483,3.7577391 L92.8650483,3.7577391 Z M91.0030097,10.2820273 C89.7029312,10.2820273 88.6083654,9.84917024 87.7192794,8.98344305 C86.8301935,8.11771585 86.3856572,7.04080084 86.3856572,5.75266569 C86.3856572,4.46453055 86.8301935,3.38761553 87.7192794,2.52188834 C88.6083654,1.65616115 89.7029312,1.22330405 91.0030097,1.22330405 C92.3030882,1.22330405 93.397654,1.65616115 94.2867399,2.52188834 C95.1758258,3.38761553 95.6203621,4.46453055 95.6203621,5.75266569 C95.6203621,7.04080084 95.1758258,8.11771585 94.2867399,8.98344305 C93.397654,9.84917024 92.3030882,10.2820273 91.0030097,10.2820273 L91.0030097,10.2820273 Z M105.201054,4.33488767 C105.201054,5.74012601 104.643287,6.64766216 103.527736,7.05752334 L105.754633,10.1942004 L103.339015,10.1942004 L101.388907,7.39628446 L100.030122,7.39628446 L100.030122,10.1942004 L98.0674331,10.1942004 L98.0674331,1.42405138 L101.401489,1.42405138 C102.768668,1.42405138 103.743712,1.65407206 104.326651,2.11412033 C104.909589,2.57416859 105.201054,3.31441697 105.201054,4.33488767 L105.201054,4.33488767 Z M102.835762,5.37626445 C103.079002,5.15878709 103.200621,4.81375606 103.200621,4.34116102 C103.200621,3.86856599 103.074808,3.54444593 102.82318,3.36879114 C102.571552,3.19313635 102.13121,3.10531027 101.502139,3.10531027 L100.030122,3.10531027 L100.030122,5.70247886 L101.464395,5.70247886 C102.135404,5.70247886 102.592521,5.59374181 102.835762,5.37626445 L102.835762,5.37626445 Z" id="LOGO-/-COLOR" fill="#444444" sketch:type="MSShapeGroup"></path>
                            <rect id="Rectangle-3" fill="#263B64" sketch:type="MSShapeGroup" x="291.130088" y="104.233529" width="67.6247127" height="46.0221106" rx="1.74775423"></rect>
                            <rect id="Rectangle-3" fill="#333333" sketch:type="MSShapeGroup" x="291.353619" y="40.2586487" width="104.922101" height="46.0221106" rx="1.74775423"></rect>
                            <rect id="Rectangle-3-Copy" fill="#467890" sketch:type="MSShapeGroup" x="361.113802" y="104.233529" width="35.1619179" height="46.0221106" rx="1.74775423"></rect>
                            <rect id="Rectangle-3-Copy-2" fill="#467890" sketch:type="MSShapeGroup" x="358.754801" y="104.233529" width="29.2909366" height="46.0221106"></rect>
                            <rect id="Rectangle-3-Copy-2" fill="#263B64" sketch:type="MSShapeGroup" x="329.968709" y="104.233529" width="29.2909366" height="46.0221106"></rect>
                        </g>
                    </g>
                </g>
            </g>
        </g>
    </g>
</svg>