<?xml version="1.0" encoding="UTF-8" standalone="no"?>
<svg width="863px" height="466px" viewBox="0 0 863 466" version="1.1" xmlns="http://www.w3.org/2000/svg" xmlns:xlink="http://www.w3.org/1999/xlink" xmlns:sketch="http://www.bohemiancoding.com/sketch/ns">
    <!-- Generator: Sketch 3.5.1 (25234) - http://www.bohemiancoding.com/sketch -->
    <title>work-item-images</title>
    <desc>Created with Sketch.</desc>
    <defs>
        <path id="path-1" d="M30.9050269,8.27353116 C30.9050269,8.27353116 28.6092677,6.79951752 25.1833978,8.27353115 C21.7575279,9.74754478 19.2442874,8.27353116 19.2442874,8.27353116"></path>
        <path id="path-2" d="M30.9050269,2.73562577 C30.9050269,2.73562577 28.6092677,1.26161213 25.1833978,2.73562576 C21.7575279,4.20963939 19.2442874,2.73562576 19.2442874,2.73562576"></path>
        <path id="path-3" d="M30.9050269,13.8114366 C30.9050269,13.8114366 28.6092677,12.3374229 25.1833978,13.8114366 C21.7575279,15.2854502 19.2442874,13.8114366 19.2442874,13.8114366"></path>
        <path id="path-4" d="M30.502914,8.81066784 C30.502914,8.81066784 28.2071548,7.3366542 24.7812849,8.81066783 C21.355415,10.2846815 18.8421745,8.81066783 18.8421745,8.81066783"></path>
        <path id="path-5" d="M30.502914,3.27276244 C30.502914,3.27276244 28.2071548,1.7987488 24.7812849,3.27276243 C21.355415,4.74677606 18.8421745,3.27276244 18.8421745,3.27276244"></path>
        <path id="path-6" d="M30.502914,14.3485732 C30.502914,14.3485732 28.2071548,12.8745596 24.7812849,14.3485732 C21.355415,15.8225869 18.8421745,14.3485732 18.8421745,14.3485732"></path>
    </defs>
    <g id="Welcome" stroke="none" stroke-width="1" fill="none" fill-rule="evenodd" sketch:type="MSPage">
        <g id="work-item-images" sketch:type="MSArtboardGroup">
            <g id="logo" sketch:type="MSLayerGroup" transform="translate(-19.476630, 49.702150)">
                <g id="logo-element-table" transform="translate(243.000000, 0.000000)">
                    <rect id="Rectangle-93-Copy" stroke="#9B9B9B" stroke-width="0.5775" fill="#FFFFFF" sketch:type="MSShapeGroup" x="-1.13686838e-13" y="8.52651283e-14" width="514.902782" height="340.185617"></rect>
                    <g id="Logotype-Copy" transform="translate(57.445694, 28.419133)">
                        <g id="logo/color">
                            <g id="Group-2" transform="translate(232.547085, 249.681356)">
                                <path d="M50.680498,5.73177223 C50.680498,8.21276626 49.6986861,9.81505086 47.7350327,10.5386741 L51.6549377,16.0765795 L47.4028373,16.0765795 L43.9701521,11.1367679 L41.5783456,11.1367679 L41.5783456,16.0765795 L38.1235141,16.0765795 L38.1235141,0.592596025 L43.9922985,0.592596025 C46.3988812,0.592596025 48.1152067,0.998705026 49.1413263,1.81093521 C50.1674459,2.6231654 50.680498,3.930098 50.680498,5.73177223 L50.680498,5.73177223 Z M46.5169831,7.57035683 C46.9451481,7.18639346 47.1592274,6.57722996 47.1592274,5.74284804 C47.1592274,4.90846613 46.9377661,4.33622162 46.4948367,4.02609737 C46.0519074,3.71597312 45.2767927,3.56091332 44.1694693,3.56091332 L41.5783456,3.56091332 L41.5783456,8.14629899 L44.1030302,8.14629899 C45.2841752,8.14629899 46.088818,7.95432019 46.5169831,7.57035683 L46.5169831,7.57035683 Z M59.9386815,3.68274724 C59.6064845,3.95595194 59.4403885,4.31775814 59.4403885,4.76817669 C59.4403885,5.21859525 59.6433947,5.57670955 60.0494133,5.84253034 C60.4554318,6.10835113 61.3929515,6.42216263 62.8620005,6.78397426 C64.3310495,7.14578589 65.4715754,7.68849519 66.2836125,8.41211845 C67.0956497,9.1357417 67.5016621,10.1916251 67.5016621,11.5798003 C67.5016621,12.9679756 66.981228,14.0940051 65.940344,14.9579226 C64.8994601,15.8218402 63.5300907,16.2537925 61.8321949,16.2537925 C59.3813193,16.2537925 57.1740878,15.3455851 55.2104344,13.529143 L57.2700456,11.0038582 C58.9384127,12.4658725 60.4812601,13.1968687 61.898634,13.1968687 C62.5334994,13.1968687 63.0317874,13.0602684 63.3935131,12.7870637 C63.7552387,12.513859 63.9360988,12.144669 63.9360988,11.6794826 C63.9360988,11.2142963 63.7441656,10.8451062 63.3602935,10.5719016 C62.9764214,10.2986969 62.2160708,10.0218044 61.0792188,9.74121574 C59.2779729,9.31294892 57.9602778,8.75547201 57.1260942,8.06876831 C56.2919107,7.38206461 55.8748251,6.3040298 55.8748251,4.83463156 C55.8748251,3.36523331 56.4026413,2.23182001 57.4582896,1.43435765 C58.5139379,0.636895281 59.8316329,0.23817008 61.4114142,0.23817008 C62.444916,0.23817008 63.4784023,0.41538128 64.5119041,0.769808998 C65.5454058,1.12423672 66.4460153,1.62633512 67.2137595,2.27611927 L65.4641974,4.80140413 C64.120645,3.78242444 62.7328206,3.27294224 61.3006824,3.27294224 C60.7248743,3.27294224 60.2708785,3.40954254 59.9386815,3.68274724 L59.9386815,3.68274724 Z M83.2044352,1.97707237 C84.2896121,2.90006122 84.8321924,4.31775083 84.8321924,6.23018372 C84.8321924,8.14261661 84.274848,9.54184672 83.1601425,10.427916 C82.045437,11.3139853 80.3438757,11.7570133 78.0554074,11.7570133 L75.9957963,11.7570133 L75.9957963,16.0765795 L72.5409647,16.0765795 L72.5409647,0.592596025 L78.0111147,0.592596025 C80.3881688,0.592596025 82.1192584,1.05408353 83.2044352,1.97707237 L83.2044352,1.97707237 Z M80.6686775,8.06876831 C81.0820782,7.60358193 81.2887754,6.92427233 81.2887754,6.03081913 C81.2887754,5.13736592 81.0193308,4.50235912 80.4804334,4.12577967 C79.9415361,3.74920022 79.103674,3.56091332 77.966822,3.56091332 L75.9957963,3.56091332 L75.9957963,8.76654439 L78.3211637,8.76654439 C79.47278,8.76654439 80.2552767,8.53395469 80.6686775,8.06876831 L80.6686775,8.06876831 Z M100.789649,0.592596025 L100.789649,3.67167143 L93.0827167,3.67167143 L93.0827167,6.86150493 L100.014526,6.86150493 L100.014526,9.80767061 L93.0827167,9.80767061 L93.0827167,13.0196557 L101.033259,13.0196557 L101.033259,16.0765795 L89.6278851,16.0765795 L89.6278851,0.592596025 L100.789649,0.592596025 Z M106.205439,0.592596025 L109.660271,0.592596025 L109.660271,6.95011142 L115.506909,0.592596025 L119.781156,0.592596025 L113.624469,7.4374471 C114.155984,8.17583817 115.137796,9.55291688 116.569934,11.5687245 C118.002072,13.5845322 119.072469,15.0871355 119.781156,16.0765795 L115.750519,16.0765795 L111.210516,9.96273196 L109.660271,11.6905584 L109.660271,16.0765795 L106.205439,16.0765795 L106.205439,0.592596025 Z M130.578511,3.58306494 L130.578511,16.0765795 L127.123679,16.0765795 L127.123679,3.58306494 L122.738701,3.58306494 L122.738701,0.592596025 L134.963489,0.592596025 L134.963489,3.58306494 L130.578511,3.58306494 Z M139.582011,0.592596025 L143.036843,0.592596025 L143.036843,16.0765795 L139.582011,16.0765795 L139.582011,0.592596025 Z M154.653613,10.4500676 L158.595665,0.592596025 L162.338399,0.592596025 L156.115273,16.0765795 L153.191954,16.0765795 L146.968828,0.592596025 L150.711562,0.592596025 L154.653613,10.4500676 Z" id="RSPEKTIV" fill="#467890" sketch:type="MSShapeGroup"></path>
                                <path d="M11.3882875,1.97707237 C12.4734644,2.90006122 13.0160447,4.31775083 13.0160447,6.23018372 C13.0160447,8.14261661 12.4587003,9.54184672 11.3439948,10.427916 C10.2292893,11.3139853 8.5277279,11.7570133 6.23925965,11.7570133 L4.17964852,11.7570133 L4.17964852,16.0765795 L0.72481695,16.0765795 L0.72481695,0.592596025 L6.19496694,0.592596025 C8.57202106,0.592596025 10.3031106,1.05408353 11.3882875,1.97707237 L11.3882875,1.97707237 Z M8.85252968,8.06876831 C9.2659304,7.60358193 9.47262766,6.92427233 9.47262766,6.03081913 C9.47262766,5.13736592 9.20318302,4.50235912 8.66428566,4.12577967 C8.12538829,3.74920022 7.2875262,3.56091332 6.15067423,3.56091332 L4.17964852,3.56091332 L4.17964852,8.76654439 L6.50501592,8.76654439 C7.65663221,8.76654439 8.43912897,8.53395469 8.85252968,8.06876831 L8.85252968,8.06876831 Z" id="P" fill="#467890" sketch:type="MSShapeGroup"></path>
                                <g id="Line-Copy-16">
                                    <use stroke="#263B64" stroke-width="2.90485468" stroke-linecap="square" sketch:type="MSShapeGroup" xlink:href="#path-1"></use>
                                    <use stroke="none" xlink:href="#path-1"></use>
                                </g>
                                <g id="Line-Copy-18">
                                    <use stroke="#263B64" stroke-width="2.90485468" stroke-linecap="square" sketch:type="MSShapeGroup" xlink:href="#path-2"></use>
                                    <use stroke="none" xlink:href="#path-2"></use>
                                </g>
                                <g id="Line-Copy-17">
                                    <use stroke="#263B64" stroke-width="2.90485468" stroke-linecap="square" sketch:type="MSShapeGroup" xlink:href="#path-3"></use>
                                    <use stroke="none" xlink:href="#path-3"></use>
                                </g>
                            </g>
                            <g id="colored-logotype-label-prong" transform="translate(186.296136, 242.024055)" stroke="#333333" stroke-width="0.880258995" stroke-linecap="square" sketch:type="MSShapeGroup">
                                <path d="M0.374670813,15.4270222 L15.4233552,15.4270222" id="Line"></path>
                                <path d="M16.2142965,28.876221 L29.6602985,28.876221" id="Line-Copy"></path>
                                <path d="M15.4233552,1.18669401 L29.6602985,1.18669401" id="Line-Copy-2"></path>
                                <path d="M15.4233552,1.18669401 L15.4233552,28.876221" id="Line"></path>
                            </g>
                            <path d="M83.8114997,259.810225 C83.2984399,260.157269 82.6875757,260.330788 81.9788887,260.330788 C81.3071125,260.330788 80.72024,260.177574 80.2182534,259.871142 C79.7162668,259.56471 79.3287094,259.12722 79.0555697,258.558658 C78.7824299,257.990097 78.6458621,257.325555 78.6458621,256.565012 C78.6458621,255.80447 78.7824299,255.139928 79.0555697,254.571367 C79.3287094,254.002805 79.7162668,253.565315 80.2182534,253.258883 C80.72024,252.952451 81.3034215,252.799237 81.9678155,252.799237 C83.4221002,252.799237 84.3670019,253.393633 84.8025491,254.582442 L84.1824512,254.870413 C84.0126616,254.375691 83.7487535,254.004655 83.3907189,253.757294 C83.0326844,253.509933 82.5731521,253.386255 82.0121082,253.386255 C81.4732109,253.386255 80.9989145,253.513625 80.5892049,253.76837 C80.1794952,254.023115 79.8620673,254.390459 79.6369115,254.870413 C79.4117558,255.350368 79.2991796,255.915228 79.2991796,256.565012 C79.2991796,257.214797 79.4099103,257.779657 79.631375,258.259612 C79.8528396,258.739566 80.164731,259.10691 80.5670585,259.361655 C80.969386,259.6164 81.4399913,259.74377 81.9788887,259.74377 C82.5473147,259.74377 83.0326841,259.605324 83.4350116,259.328427 C83.8373391,259.051531 84.1197023,258.650959 84.2821098,258.126702 L84.9022077,258.359294 C84.6881252,258.979542 84.3245595,259.463181 83.8114997,259.810225 L83.8114997,259.810225 Z M90.5772115,255.335597 C91.0459784,255.845087 91.2803583,256.55024 91.2803583,257.451077 C91.2803583,258.351914 91.0459784,259.057067 90.5772115,259.566557 C90.1084446,260.076047 89.4606702,260.330788 88.6338688,260.330788 C87.8070673,260.330788 87.1592929,260.076047 86.690526,259.566557 C86.2217591,259.057067 85.9873792,258.351914 85.9873792,257.451077 C85.9873792,256.55024 86.2217591,255.845087 86.690526,255.335597 C87.1592929,254.826108 87.8070673,254.571367 88.6338688,254.571367 C89.4606702,254.571367 90.1084446,254.826108 90.5772115,255.335597 L90.5772115,255.335597 Z M87.1555995,255.739865 C86.7975649,256.157056 86.6185503,256.727454 86.6185503,257.451077 C86.6185503,258.174701 86.7975649,258.745099 87.1555995,259.16229 C87.513634,259.579481 88.0063855,259.788073 88.6338688,259.788073 C89.261352,259.788073 89.7541035,259.579481 90.112138,259.16229 C90.4701726,258.745099 90.6491872,258.174701 90.6491872,257.451077 C90.6491872,256.727454 90.4701726,256.157056 90.112138,255.739865 C89.7541035,255.322674 89.261352,255.114081 88.6338688,255.114081 C88.0063855,255.114081 87.513634,255.322674 87.1555995,255.739865 L87.1555995,255.739865 Z M93.5060671,258.84663 C93.5060671,259.171522 93.5577414,259.400419 93.6610916,259.53333 C93.7644418,259.66624 93.9379199,259.732694 94.181531,259.732694 C94.3291741,259.732694 94.4546689,259.721619 94.558019,259.699467 C94.6613692,259.677315 94.786864,259.636704 94.9345071,259.577633 L94.8348485,260.186803 C94.620766,260.282793 94.3697765,260.330788 94.0818724,260.330788 C93.6758538,260.330788 93.37319,260.216339 93.1738718,259.987438 C92.9745536,259.758537 92.874896,259.400422 92.874896,258.913084 L92.874896,252.134688 L93.5060671,252.134688 L93.5060671,258.84663 Z M100.233023,255.335597 C100.70179,255.845087 100.93617,256.55024 100.93617,257.451077 C100.93617,258.351914 100.70179,259.057067 100.233023,259.566557 C99.7642559,260.076047 99.1164815,260.330788 98.2896801,260.330788 C97.4628786,260.330788 96.8151042,260.076047 96.3463373,259.566557 C95.8775704,259.057067 95.6431905,258.351914 95.6431905,257.451077 C95.6431905,256.55024 95.8775704,255.845087 96.3463373,255.335597 C96.8151042,254.826108 97.4628786,254.571367 98.2896801,254.571367 C99.1164815,254.571367 99.7642559,254.826108 100.233023,255.335597 L100.233023,255.335597 Z M96.8114108,255.739865 C96.4533762,256.157056 96.2743617,256.727454 96.2743617,257.451077 C96.2743617,258.174701 96.4533762,258.745099 96.8114108,259.16229 C97.1694453,259.579481 97.6621968,259.788073 98.2896801,259.788073 C98.9171633,259.788073 99.4099148,259.579481 99.7679493,259.16229 C100.125984,258.745099 100.304998,258.174701 100.304998,257.451077 C100.304998,256.727454 100.125984,256.157056 99.7679493,255.739865 C99.4099148,255.322674 98.9171633,255.114081 98.2896801,255.114081 C97.6621968,255.114081 97.1694453,255.322674 96.8114108,255.739865 L96.8114108,255.739865 Z M105.64227,254.737504 L105.487246,255.335597 C105.302692,255.217455 105.070158,255.158385 104.789636,255.158385 C104.523878,255.158385 104.269197,255.241452 104.025586,255.40759 C103.781975,255.573728 103.584505,255.808164 103.433171,256.110904 C103.281837,256.413645 103.206171,256.756991 103.206171,257.140955 L103.206171,260.22003 L102.575,260.22003 L102.575,254.682125 L103.106513,254.682125 L103.184025,255.756478 C103.331668,255.379899 103.55682,255.088239 103.859489,254.881489 C104.162157,254.67474 104.531259,254.571367 104.966806,254.571367 C105.247328,254.571367 105.472481,254.626745 105.64227,254.737504 L105.64227,254.737504 Z M111.212079,257.705821 L106.871393,257.705821 C106.908304,258.355605 107.102083,258.863241 107.452735,259.228745 C107.803387,259.594249 108.273993,259.776998 108.864565,259.776998 C109.29273,259.776998 109.659987,259.692084 109.966346,259.522254 C110.272706,259.352424 110.492322,259.112451 110.6252,258.802326 L111.14564,259.079222 C110.710093,259.913603 109.949742,260.330788 108.864565,260.330788 C108.045146,260.330788 107.402908,260.076047 106.937832,259.566557 C106.472756,259.057067 106.240222,258.351914 106.240222,257.451077 C106.240222,256.55024 106.465374,255.845087 106.915686,255.335597 C107.365997,254.826108 107.997162,254.571367 108.809199,254.571367 C109.311186,254.571367 109.744881,254.687661 110.110298,254.920255 C110.475714,255.152848 110.754387,255.474043 110.946323,255.88385 C111.138259,256.293657 111.234225,256.760683 111.234225,257.28494 C111.234225,257.417851 111.226843,257.558143 111.212079,257.705821 L111.212079,257.705821 Z M107.441662,255.651258 C107.105774,256.001994 106.915686,256.498554 106.871393,257.140955 L110.636274,257.140955 C110.591981,256.505938 110.411121,256.011224 110.093688,255.656796 C109.776255,255.302368 109.348097,255.125157 108.809199,255.125157 C108.233391,255.125157 107.77755,255.300522 107.441662,255.651258 L107.441662,255.651258 Z M117.645595,252.134688 L117.645595,260.22003 L117.080863,260.22003 L117.047644,259.05707 C116.885236,259.448417 116.625019,259.758537 116.266985,259.987438 C115.90895,260.216339 115.49371,260.330788 115.021252,260.330788 C114.238744,260.330788 113.622343,260.076047 113.172031,259.566557 C112.72172,259.057067 112.496568,258.351914 112.496568,257.451077 C112.496568,256.55024 112.72172,255.845087 113.172031,255.335597 C113.622343,254.826108 114.238744,254.571367 115.021252,254.571367 C115.486328,254.571367 115.89234,254.678432 116.239302,254.892565 C116.586263,255.106698 116.844635,255.40205 117.014424,255.77863 L117.014424,252.134688 L117.645595,252.134688 Z M116.455229,259.212131 C116.798499,258.835552 116.984896,258.318686 117.014424,257.661518 L117.014424,257.240637 C116.984896,256.583469 116.798499,256.066603 116.455229,255.690023 C116.111959,255.313444 115.659808,255.125157 115.098764,255.125157 C114.478663,255.125157 113.995139,255.331903 113.648178,255.745402 C113.301217,256.158901 113.127739,256.727454 113.127739,257.451077 C113.127739,258.174701 113.301217,258.743253 113.648178,259.156752 C113.995139,259.570251 114.478663,259.776998 115.098764,259.776998 C115.659808,259.776998 116.111959,259.588711 116.455229,259.212131 L116.455229,259.212131 Z M128.297993,259.633012 L128.297993,260.22003 L123.337209,260.22003 L123.337209,252.909995 L123.96838,252.909995 L123.96838,259.633012 L128.297993,259.633012 Z M133.485777,255.335597 C133.954544,255.845087 134.188924,256.55024 134.188924,257.451077 C134.188924,258.351914 133.954544,259.057067 133.485777,259.566557 C133.01701,260.076047 132.369235,260.330788 131.542434,260.330788 C130.715633,260.330788 130.067858,260.076047 129.599091,259.566557 C129.130324,259.057067 128.895944,258.351914 128.895944,257.451077 C128.895944,256.55024 129.130324,255.845087 129.599091,255.335597 C130.067858,254.826108 130.715633,254.571367 131.542434,254.571367 C132.369235,254.571367 133.01701,254.826108 133.485777,255.335597 L133.485777,255.335597 Z M130.064165,255.739865 C129.70613,256.157056 129.527116,256.727454 129.527116,257.451077 C129.527116,258.174701 129.70613,258.745099 130.064165,259.16229 C130.422199,259.579481 130.914951,259.788073 131.542434,259.788073 C132.169917,259.788073 132.662669,259.579481 133.020703,259.16229 C133.378738,258.745099 133.557752,258.174701 133.557752,257.451077 C133.557752,256.727454 133.378738,256.157056 133.020703,255.739865 C132.662669,255.322674 132.169917,255.114081 131.542434,255.114081 C130.914951,255.114081 130.422199,255.322674 130.064165,255.739865 L130.064165,255.739865 Z M139.991269,259.970824 C140.308702,260.203417 140.467415,260.511691 140.467415,260.895655 C140.467415,261.235314 140.352994,261.534358 140.124147,261.792795 C139.8953,262.051232 139.579718,262.250595 139.17739,262.390889 C138.775063,262.531183 138.31553,262.601329 137.79878,262.601329 C136.957214,262.601329 136.316821,262.466575 135.877583,262.197062 C135.438345,261.92755 135.218729,261.571281 135.218729,261.128247 C135.218729,260.847658 135.303623,260.605838 135.473412,260.402781 C135.643202,260.199723 135.879427,260.050201 136.182096,259.954211 C135.968013,259.850836 135.798226,259.716081 135.672729,259.549943 C135.547233,259.383806 135.484485,259.197365 135.484485,258.990615 C135.484485,258.724794 135.569379,258.497742 135.739168,258.309453 C135.908958,258.121163 136.137801,257.986409 136.425705,257.905186 C136.137801,257.750123 135.914495,257.543377 135.755778,257.28494 C135.597062,257.026503 135.517705,256.731151 135.517705,256.398875 C135.517705,255.845082 135.724402,255.402054 136.137803,255.069778 C136.551204,254.737502 137.097475,254.571367 137.776633,254.571367 C138.234327,254.571367 138.64403,254.652588 139.005756,254.815034 C139.057431,254.460607 139.2143,254.180022 139.476366,253.973273 C139.738433,253.766523 140.057706,253.66315 140.434196,253.66315 L140.578147,254.216941 C140.231186,254.216941 139.956205,254.288933 139.753196,254.432919 C139.550186,254.576905 139.433919,254.785498 139.40439,255.058702 C139.603709,255.221148 139.758732,255.416819 139.869464,255.64572 C139.980196,255.874621 140.035562,256.125671 140.035562,256.398875 C140.035562,256.945285 139.828864,257.384621 139.415464,257.716897 C139.002063,258.049173 138.455792,258.215308 137.776633,258.215308 C137.547786,258.215308 137.296797,258.189465 137.023657,258.137778 C136.720989,258.167313 136.488454,258.252227 136.326047,258.392521 C136.163639,258.532816 136.082437,258.702643 136.082437,258.902009 C136.082437,259.123526 136.180249,259.298891 136.375876,259.42811 C136.571503,259.557328 136.86494,259.621936 137.256194,259.621936 L138.684634,259.621936 C139.238295,259.621936 139.673836,259.738231 139.991269,259.970824 L139.991269,259.970824 Z M136.59734,255.451894 C136.305745,255.684487 136.159949,256.000144 136.159949,256.398875 C136.159949,256.797607 136.303899,257.111418 136.591803,257.340319 C136.879707,257.56922 137.274647,257.683669 137.776633,257.683669 C138.27862,257.683669 138.673559,257.56922 138.961463,257.340319 C139.249367,257.111418 139.393317,256.797607 139.393317,256.398875 C139.393317,256.000144 139.249367,255.684487 138.961463,255.451894 C138.673559,255.2193 138.27862,255.103005 137.776633,255.103005 C137.282029,255.103005 136.888935,255.2193 136.59734,255.451894 L136.59734,255.451894 Z M139.343488,261.759568 C139.708905,261.552818 139.89161,261.290693 139.89161,260.973185 C139.89161,260.722132 139.78088,260.524616 139.559415,260.380629 C139.33795,260.236643 139.002067,260.164651 138.551756,260.164651 L137.123316,260.164651 C136.717297,260.164651 136.394333,260.244027 136.154413,260.402781 C135.914493,260.561535 135.794534,260.770127 135.794534,261.028564 C135.794534,261.353456 135.973549,261.608197 136.331583,261.792795 C136.689618,261.977393 137.204516,262.06969 137.876292,262.06969 C138.489011,262.06969 138.978071,261.966317 139.343488,261.759568 L139.343488,261.759568 Z M145.810224,255.335597 C146.278991,255.845087 146.513371,256.55024 146.513371,257.451077 C146.513371,258.351914 146.278991,259.057067 145.810224,259.566557 C145.341457,260.076047 144.693683,260.330788 143.866881,260.330788 C143.04008,260.330788 142.392305,260.076047 141.923538,259.566557 C141.454772,259.057067 141.220392,258.351914 141.220392,257.451077 C141.220392,256.55024 141.454772,255.845087 141.923538,255.335597 C142.392305,254.826108 143.04008,254.571367 143.866881,254.571367 C144.693683,254.571367 145.341457,254.826108 145.810224,255.335597 L145.810224,255.335597 Z M142.388612,255.739865 C142.030577,256.157056 141.851563,256.727454 141.851563,257.451077 C141.851563,258.174701 142.030577,258.745099 142.388612,259.16229 C142.746646,259.579481 143.239398,259.788073 143.866881,259.788073 C144.494364,259.788073 144.987116,259.579481 145.34515,259.16229 C145.703185,258.745099 145.8822,258.174701 145.8822,257.451077 C145.8822,256.727454 145.703185,256.157056 145.34515,255.739865 C144.987116,255.322674 144.494364,255.114081 143.866881,255.114081 C143.239398,255.114081 142.746646,255.322674 142.388612,255.739865 L142.388612,255.739865 Z M151.175179,259.865604 C150.842982,260.175728 150.411132,260.330788 149.879617,260.330788 C149.429305,260.330788 149.073122,260.20711 148.811055,259.959748 C148.548989,259.712387 148.417957,259.33766 148.417957,258.835554 L148.417957,255.224839 L147.31064,255.224839 L147.31064,254.682125 L148.417957,254.682125 L148.417957,253.308724 L149.049129,253.142587 L149.049129,254.682125 L151.130886,254.682125 L151.130886,255.224839 L149.049129,255.224839 L149.049129,258.735871 C149.049129,259.068147 149.130331,259.319197 149.292738,259.489027 C149.455146,259.658856 149.68768,259.74377 149.990349,259.74377 C150.366839,259.74377 150.684267,259.60717 150.942642,259.333965 L151.175179,259.865604 Z M154.17601,261.216853 C153.96931,261.726343 153.738621,262.084457 153.483936,262.291207 C153.229252,262.497956 152.906288,262.601329 152.515033,262.601329 C152.035193,262.601329 151.669782,262.461037 151.418789,262.180449 L151.651325,261.637734 C151.843261,261.910939 152.12747,262.047539 152.50396,262.047539 C152.754953,262.047539 152.969033,261.975547 153.146204,261.831561 C153.323376,261.687574 153.485781,261.430987 153.633424,261.061792 L153.976693,260.22003 L151.640252,254.682125 L152.360009,254.682125 L153.987766,258.746947 L154.275669,259.544406 L154.596791,258.669417 L156.147036,254.682125 L156.833573,254.682125 L154.17601,261.216853 Z M162.514113,255.335597 C162.964425,255.845087 163.189577,256.55024 163.189577,257.451077 C163.189577,258.351914 162.964425,259.057067 162.514113,259.566557 C162.063802,260.076047 161.447401,260.330788 160.664892,260.330788 C160.199817,260.330788 159.793804,260.223723 159.446843,260.00959 C159.099881,259.795456 158.84151,259.500104 158.67172,259.123525 L158.67172,262.54595 L158.040549,262.54595 L158.040549,254.682125 L158.605281,254.682125 L158.638501,255.856161 C158.800908,255.457429 159.05928,255.143618 159.413623,254.914717 C159.767967,254.685815 160.185052,254.571367 160.664892,254.571367 C161.447401,254.571367 162.063802,254.826108 162.514113,255.335597 L162.514113,255.335597 Z M162.037966,259.156752 C162.384928,258.743253 162.558406,258.174701 162.558406,257.451077 C162.558406,256.727454 162.384928,256.158901 162.037966,255.745402 C161.691005,255.331903 161.207481,255.125157 160.58738,255.125157 C160.026336,255.125157 159.570495,255.318982 159.219843,255.706637 C158.86919,256.094292 158.686485,256.62408 158.67172,257.296016 L158.67172,257.606139 C158.686485,258.278075 158.867345,258.807862 159.214306,259.195518 C159.561267,259.583173 160.018954,259.776998 160.58738,259.776998 C161.207481,259.776998 161.691005,259.570251 162.037966,259.156752 L162.037966,259.156752 Z M169.456996,257.705821 L165.11631,257.705821 C165.153221,258.355605 165.346999,258.863241 165.697652,259.228745 C166.048304,259.594249 166.51891,259.776998 167.109482,259.776998 C167.537647,259.776998 167.904904,259.692084 168.211263,259.522254 C168.517623,259.352424 168.737239,259.112451 168.870117,258.802326 L169.390557,259.079222 C168.95501,259.913603 168.194659,260.330788 167.109482,260.330788 C166.290063,260.330788 165.647825,260.076047 165.182749,259.566557 C164.717673,259.057067 164.485139,258.351914 164.485139,257.451077 C164.485139,256.55024 164.710291,255.845087 165.160603,255.335597 C165.610914,254.826108 166.242079,254.571367 167.054116,254.571367 C167.556103,254.571367 167.989798,254.687661 168.355215,254.920255 C168.720631,255.152848 168.999303,255.474043 169.19124,255.88385 C169.383176,256.293657 169.479142,256.760683 169.479142,257.28494 C169.479142,257.417851 169.47176,257.558143 169.456996,257.705821 L169.456996,257.705821 Z M165.686579,255.651258 C165.350691,256.001994 165.160603,256.498554 165.11631,257.140955 L168.881191,257.140955 C168.836898,256.505938 168.656037,256.011224 168.338605,255.656796 C168.021172,255.302368 167.593014,255.125157 167.054116,255.125157 C166.478308,255.125157 166.022467,255.300522 165.686579,255.651258 L165.686579,255.651258 Z" id="Colored-Logotype" fill="#757575" sketch:type="MSShapeGroup"></path>
                            <path d="M186.670807,193.369601 L201.719491,193.369601" id="Line" stroke="#333333" stroke-width="0.880258995" stroke-linecap="square" sketch:type="MSShapeGroup"></path>
                            <path d="M202.510432,206.818799 L215.956434,206.818799" id="Line-Copy" stroke="#333333" stroke-width="0.880258995" stroke-linecap="square" sketch:type="MSShapeGroup"></path>
                            <path d="M201.719491,179.129272 L215.956434,179.129272" id="Line-Copy-2" stroke="#333333" stroke-width="0.880258995" stroke-linecap="square" sketch:type="MSShapeGroup"></path>
                            <path d="M201.719491,179.129272 L201.719491,206.818799" id="Line" stroke="#333333" stroke-width="0.880258995" stroke-linecap="square" sketch:type="MSShapeGroup"></path>
                            <path d="M127.562417,195.551535 L127.562417,196.138553 L122.601634,196.138553 L122.601634,188.828518 L123.232805,188.828518 L123.232805,195.551535 L127.562417,195.551535 Z M132.750201,191.254121 C133.218968,191.763611 133.453348,192.468763 133.453348,193.369601 C133.453348,194.270438 133.218968,194.975591 132.750201,195.48508 C132.281434,195.99457 131.63366,196.249311 130.806859,196.249311 C129.980057,196.249311 129.332283,195.99457 128.863516,195.48508 C128.394749,194.975591 128.160369,194.270438 128.160369,193.369601 C128.160369,192.468763 128.394749,191.763611 128.863516,191.254121 C129.332283,190.744631 129.980057,190.48989 130.806859,190.48989 C131.63366,190.48989 132.281434,190.744631 132.750201,191.254121 L132.750201,191.254121 Z M129.328589,191.658388 C128.970555,192.075579 128.79154,192.645977 128.79154,193.369601 C128.79154,194.093224 128.970555,194.663622 129.328589,195.080813 C129.686624,195.498004 130.179375,195.706597 130.806859,195.706597 C131.434342,195.706597 131.927093,195.498004 132.285128,195.080813 C132.643162,194.663622 132.822177,194.093224 132.822177,193.369601 C132.822177,192.645977 132.643162,192.075579 132.285128,191.658388 C131.927093,191.241197 131.434342,191.032605 130.806859,191.032605 C130.179375,191.032605 129.686624,191.241197 129.328589,191.658388 L129.328589,191.658388 Z M139.255693,195.889348 C139.573126,196.121941 139.73184,196.430214 139.73184,196.814178 C139.73184,197.153838 139.617418,197.452882 139.388572,197.711318 C139.159725,197.969755 138.844142,198.169118 138.441815,198.309412 C138.039487,198.449707 137.579955,198.519853 137.063204,198.519853 C136.221638,198.519853 135.581246,198.385098 135.142008,198.115586 C134.70277,197.846073 134.483154,197.489804 134.483154,197.04677 C134.483154,196.766181 134.568047,196.524362 134.737837,196.321304 C134.907626,196.118247 135.143852,195.968725 135.44652,195.872734 C135.232438,195.769359 135.062651,195.634605 134.937154,195.468467 C134.811657,195.302329 134.74891,195.115888 134.74891,194.909138 C134.74891,194.643318 134.833803,194.416266 135.003593,194.227976 C135.173383,194.039686 135.402226,193.904932 135.69013,193.823709 C135.402226,193.668647 135.178919,193.4619 135.020203,193.203463 C134.861486,192.945027 134.782129,192.649675 134.782129,192.317399 C134.782129,191.763605 134.988827,191.320577 135.402227,190.988301 C135.815628,190.656025 136.361899,190.48989 137.041058,190.48989 C137.498751,190.48989 137.908455,190.571112 138.270181,190.733558 C138.321856,190.37913 138.478724,190.098546 138.740791,189.891796 C139.002857,189.685047 139.322131,189.581673 139.698621,189.581673 L139.842572,190.135464 C139.495611,190.135464 139.220629,190.207456 139.01762,190.351442 C138.814611,190.495428 138.698344,190.704021 138.668815,190.977225 C138.868133,191.139672 139.023156,191.335342 139.133888,191.564243 C139.244621,191.793145 139.299986,192.044194 139.299986,192.317399 C139.299986,192.863808 139.093289,193.303144 138.679888,193.63542 C138.266487,193.967696 137.720216,194.133832 137.041058,194.133832 C136.812211,194.133832 136.561221,194.107988 136.288082,194.056301 C135.985413,194.085837 135.752879,194.17075 135.590471,194.311045 C135.428064,194.451339 135.346862,194.621166 135.346862,194.820532 C135.346862,195.042049 135.444674,195.217414 135.640301,195.346633 C135.835928,195.475851 136.129364,195.54046 136.520618,195.54046 L137.949058,195.54046 C138.50272,195.54046 138.938261,195.656754 139.255693,195.889348 L139.255693,195.889348 Z M135.861764,191.370417 C135.570169,191.60301 135.424374,191.918667 135.424374,192.317399 C135.424374,192.71613 135.568324,193.029941 135.856228,193.258843 C136.144132,193.487744 136.539071,193.602193 137.041058,193.602193 C137.543044,193.602193 137.937984,193.487744 138.225888,193.258843 C138.513792,193.029941 138.657742,192.71613 138.657742,192.317399 C138.657742,191.918667 138.513792,191.60301 138.225888,191.370417 C137.937984,191.137824 137.543044,191.021529 137.041058,191.021529 C136.546453,191.021529 136.153359,191.137824 135.861764,191.370417 L135.861764,191.370417 Z M138.607913,197.678091 C138.973329,197.471342 139.156035,197.209217 139.156035,196.891708 C139.156035,196.640655 139.045304,196.443139 138.823839,196.299153 C138.602375,196.155166 138.266492,196.083174 137.81618,196.083174 L136.38774,196.083174 C135.981722,196.083174 135.658757,196.16255 135.418837,196.321304 C135.178917,196.480058 135.058959,196.688651 135.058959,196.947087 C135.058959,197.27198 135.237974,197.526721 135.596008,197.711318 C135.954043,197.895916 136.46894,197.988214 137.140716,197.988214 C137.753435,197.988214 138.242496,197.884841 138.607913,197.678091 L138.607913,197.678091 Z M145.074649,191.254121 C145.543415,191.763611 145.777795,192.468763 145.777795,193.369601 C145.777795,194.270438 145.543415,194.975591 145.074649,195.48508 C144.605882,195.99457 143.958107,196.249311 143.131306,196.249311 C142.304504,196.249311 141.65673,195.99457 141.187963,195.48508 C140.719196,194.975591 140.484816,194.270438 140.484816,193.369601 C140.484816,192.468763 140.719196,191.763611 141.187963,191.254121 C141.65673,190.744631 142.304504,190.48989 143.131306,190.48989 C143.958107,190.48989 144.605882,190.744631 145.074649,191.254121 L145.074649,191.254121 Z M141.653036,191.658388 C141.295002,192.075579 141.115987,192.645977 141.115987,193.369601 C141.115987,194.093224 141.295002,194.663622 141.653036,195.080813 C142.011071,195.498004 142.503823,195.706597 143.131306,195.706597 C143.758789,195.706597 144.251541,195.498004 144.609575,195.080813 C144.96761,194.663622 145.146624,194.093224 145.146624,193.369601 C145.146624,192.645977 144.96761,192.075579 144.609575,191.658388 C144.251541,191.241197 143.758789,191.032605 143.131306,191.032605 C142.503823,191.032605 142.011071,191.241197 141.653036,191.658388 L141.653036,191.658388 Z M150.439603,195.784127 C150.107406,196.094252 149.675557,196.249311 149.144041,196.249311 C148.69373,196.249311 148.337546,196.125633 148.07548,195.878272 C147.813413,195.630911 147.682382,195.256183 147.682382,194.754077 L147.682382,191.143363 L146.575064,191.143363 L146.575064,190.600648 L147.682382,190.600648 L147.682382,189.227247 L148.313553,189.06111 L148.313553,190.600648 L150.395311,190.600648 L150.395311,191.143363 L148.313553,191.143363 L148.313553,194.654395 C148.313553,194.986671 148.394756,195.23772 148.557163,195.40755 C148.71957,195.57738 148.952105,195.662293 149.254773,195.662293 C149.631263,195.662293 149.948691,195.525693 150.207067,195.252488 L150.439603,195.784127 Z M153.440435,197.135376 C153.233734,197.644866 153.003045,198.00298 152.748361,198.20973 C152.493677,198.416479 152.170712,198.519853 151.779458,198.519853 C151.299618,198.519853 150.934207,198.37956 150.683213,198.098972 L150.91575,197.556257 C151.107686,197.829462 151.391895,197.966062 151.768385,197.966062 C152.019378,197.966062 152.233457,197.89407 152.410629,197.750084 C152.587801,197.606098 152.750206,197.34951 152.897849,196.980315 L153.241117,196.138553 L150.904677,190.600648 L151.624433,190.600648 L153.252191,194.66547 L153.540093,195.462929 L153.861215,194.58794 L155.41146,190.600648 L156.097997,190.600648 L153.440435,197.135376 Z M161.778538,191.254121 C162.228849,191.763611 162.454002,192.468763 162.454002,193.369601 C162.454002,194.270438 162.228849,194.975591 161.778538,195.48508 C161.328226,195.99457 160.711825,196.249311 159.929317,196.249311 C159.464241,196.249311 159.058229,196.142246 158.711267,195.928113 C158.364306,195.713979 158.105934,195.418627 157.936145,195.042048 L157.936145,198.464474 L157.304974,198.464474 L157.304974,190.600648 L157.869706,190.600648 L157.902925,191.774684 C158.065333,191.375953 158.323704,191.062141 158.678048,190.83324 C159.032391,190.604339 159.449477,190.48989 159.929317,190.48989 C160.711825,190.48989 161.328226,190.744631 161.778538,191.254121 L161.778538,191.254121 Z M161.302391,195.075275 C161.649352,194.661776 161.82283,194.093224 161.82283,193.369601 C161.82283,192.645977 161.649352,192.077425 161.302391,191.663926 C160.95543,191.250427 160.471906,191.04368 159.851805,191.04368 C159.290761,191.04368 158.83492,191.237505 158.484267,191.62516 C158.133615,192.012816 157.950909,192.542603 157.936145,193.214539 L157.936145,193.524662 C157.950909,194.196598 158.131769,194.726385 158.478731,195.114041 C158.825692,195.501696 159.283379,195.695521 159.851805,195.695521 C160.471906,195.695521 160.95543,195.488774 161.302391,195.075275 L161.302391,195.075275 Z M168.72142,193.624344 L164.380735,193.624344 C164.417645,194.274128 164.611424,194.781765 164.962076,195.147268 C165.312729,195.512772 165.783334,195.695521 166.373907,195.695521 C166.802072,195.695521 167.169328,195.610607 167.475688,195.440777 C167.782047,195.270947 168.001663,195.030974 168.134542,194.72085 L168.654981,194.997745 C168.219434,195.832127 167.459084,196.249311 166.373907,196.249311 C165.554487,196.249311 164.912249,195.99457 164.447174,195.48508 C163.982098,194.975591 163.749563,194.270438 163.749563,193.369601 C163.749563,192.468763 163.974716,191.763611 164.425027,191.254121 C164.875339,190.744631 165.506504,190.48989 166.318541,190.48989 C166.820527,190.48989 167.254222,190.606185 167.619639,190.838778 C167.985056,191.071371 168.263728,191.392566 168.455664,191.802373 C168.6476,192.21218 168.743567,192.679206 168.743567,193.203463 C168.743567,193.336374 168.736185,193.476666 168.72142,193.624344 L168.72142,193.624344 Z M164.951003,191.569781 C164.615115,191.920517 164.425028,192.417078 164.380735,193.059478 L168.145615,193.059478 C168.101322,192.424462 167.920462,191.929747 167.603029,191.575319 C167.285597,191.220892 166.857438,191.04368 166.318541,191.04368 C165.742733,191.04368 165.286891,191.219046 164.951003,191.569781 L164.951003,191.569781 Z" id="Logotype" fill="#757575" sketch:type="MSShapeGroup"></path>
                            <g id="Logotype-Copy-2" transform="translate(232.583189, 184.271613)">
                                <path d="M50.2783851,6.26890891 C50.2783851,8.74990293 49.2965732,10.3521875 47.3329198,11.0758108 L51.2528248,16.6137162 L47.0007244,16.6137162 L43.5680392,11.6739046 L41.1762327,11.6739046 L41.1762327,16.6137162 L37.7214012,16.6137162 L37.7214012,1.1297327 L43.5901856,1.1297327 C45.9967683,1.1297327 47.7130938,1.5358417 48.7392134,2.34807189 C49.765333,3.16030207 50.2783851,4.46723468 50.2783851,6.26890891 L50.2783851,6.26890891 Z M46.1148702,8.1074935 C46.5430352,7.72353014 46.7571145,7.11436664 46.7571145,6.27998472 C46.7571145,5.4456028 46.5356532,4.8733583 46.0927238,4.56323405 C45.6497945,4.25310979 44.8746798,4.09804999 43.7673564,4.09804999 L41.1762327,4.09804999 L41.1762327,8.68343566 L43.7009173,8.68343566 C44.8820623,8.68343566 45.6867051,8.49145686 46.1148702,8.1074935 L46.1148702,8.1074935 Z M59.5365686,4.21988391 C59.2043716,4.49308861 59.0382756,4.85489481 59.0382756,5.30531337 C59.0382756,5.75573193 59.2412818,6.11384623 59.6473004,6.37966702 C60.0533189,6.64548781 60.9908386,6.95929931 62.4598876,7.32111094 C63.9289366,7.68292256 65.0694625,8.22563187 65.8814996,8.94925512 C66.6935368,9.67287838 67.0995492,10.7287618 67.0995492,12.116937 C67.0995492,13.5051122 66.5791151,14.6311417 65.5382311,15.4950593 C64.4973472,16.3589769 63.1279778,16.7909292 61.430082,16.7909292 C58.9792064,16.7909292 56.7719749,15.8827218 54.8083215,14.0662797 L56.8679327,11.5409948 C58.5362998,13.0030092 60.0791472,13.7340054 61.4965211,13.7340054 C62.1313865,13.7340054 62.6296745,13.5974051 62.9914002,13.3242004 C63.3531258,13.0509957 63.5339859,12.6818057 63.5339859,12.2166193 C63.5339859,11.7514329 63.3420527,11.3822429 62.9581806,11.1090382 C62.5743085,10.8358335 61.8139579,10.558941 60.6771059,10.2783524 C58.87586,9.85008559 57.5581649,9.29260869 56.7239813,8.60590499 C55.8897978,7.91920128 55.4727122,6.84116648 55.4727122,5.37176824 C55.4727122,3.90236999 56.0005284,2.76895669 57.0561767,1.97149432 C58.1118249,1.17403196 59.42952,0.775306756 61.0093013,0.775306756 C62.0428031,0.775306756 63.0762894,0.952517956 64.1097911,1.30694567 C65.1432929,1.66137339 66.0439024,2.16347179 66.8116466,2.81325594 L65.0620845,5.3385408 C63.7185321,4.31956111 62.3307077,3.81007891 60.8985695,3.81007891 C60.3227614,3.81007891 59.8687656,3.94667921 59.5365686,4.21988391 L59.5365686,4.21988391 Z M82.8023223,2.51420905 C83.8874992,3.4371979 84.4300795,4.8548875 84.4300795,6.7673204 C84.4300795,8.67975329 83.8727351,10.0789834 82.7580296,10.9650527 C81.6433241,11.851122 79.9417628,12.29415 77.6532945,12.29415 L75.5936834,12.29415 L75.5936834,16.6137162 L72.1388518,16.6137162 L72.1388518,1.1297327 L77.6090018,1.1297327 C79.9860559,1.1297327 81.7171455,1.5912202 82.8023223,2.51420905 L82.8023223,2.51420905 Z M80.2665646,8.60590499 C80.6799653,8.14071861 80.8866625,7.46140901 80.8866625,6.5679558 C80.8866625,5.6745026 80.6172179,5.03949579 80.0783205,4.66291634 C79.5394232,4.28633689 78.7015611,4.09804999 77.5647091,4.09804999 L75.5936834,4.09804999 L75.5936834,9.30368107 L77.9190508,9.30368107 C79.0706671,9.30368107 79.8531638,9.07109137 80.2665646,8.60590499 L80.2665646,8.60590499 Z M100.387536,1.1297327 L100.387536,4.2088081 L92.6806038,4.2088081 L92.6806038,7.39864161 L99.6124133,7.39864161 L99.6124133,10.3448073 L92.6806038,10.3448073 L92.6806038,13.5567924 L100.631146,13.5567924 L100.631146,16.6137162 L89.2257722,16.6137162 L89.2257722,1.1297327 L100.387536,1.1297327 Z M105.803326,1.1297327 L109.258158,1.1297327 L109.258158,7.4872481 L115.104796,1.1297327 L119.379043,1.1297327 L113.222356,7.97458377 C113.753871,8.71297485 114.735683,10.0900536 116.167821,12.1058612 C117.599959,14.1216688 118.670356,15.6242721 119.379043,16.6137162 L115.348406,16.6137162 L110.808403,10.4998686 L109.258158,12.2276951 L109.258158,16.6137162 L105.803326,16.6137162 L105.803326,1.1297327 Z M130.176398,4.12020162 L130.176398,16.6137162 L126.721566,16.6137162 L126.721566,4.12020162 L122.336588,4.12020162 L122.336588,1.1297327 L134.561376,1.1297327 L134.561376,4.12020162 L130.176398,4.12020162 Z M139.179898,1.1297327 L142.63473,1.1297327 L142.63473,16.6137162 L139.179898,16.6137162 L139.179898,1.1297327 Z M154.2515,10.9872043 L158.193552,1.1297327 L161.936286,1.1297327 L155.71316,16.6137162 L152.789841,16.6137162 L146.566715,1.1297327 L150.309449,1.1297327 L154.2515,10.9872043 Z" id="RSPEKTIV" fill="#333333" sketch:type="MSShapeGroup"></path>
                                <path d="M10.9861746,2.51420905 C12.0713515,3.4371979 12.6139318,4.8548875 12.6139318,6.7673204 C12.6139318,8.67975329 12.0565874,10.0789834 10.9418819,10.9650527 C9.82717635,11.851122 8.125615,12.29415 5.83714675,12.29415 L3.77753562,12.29415 L3.77753562,16.6137162 L0.322704048,16.6137162 L0.322704048,1.1297327 L5.79285404,1.1297327 C8.16990816,1.1297327 9.90099769,1.5912202 10.9861746,2.51420905 L10.9861746,2.51420905 Z M8.45041678,8.60590499 C8.8638175,8.14071861 9.07051476,7.46140901 9.07051476,6.5679558 C9.07051476,5.6745026 8.80107012,5.03949579 8.26217275,4.66291634 C7.72327539,4.28633689 6.88541329,4.09804999 5.74856132,4.09804999 L3.77753562,4.09804999 L3.77753562,9.30368107 L6.10290302,9.30368107 C7.2545193,9.30368107 8.03701607,9.07109137 8.45041678,8.60590499 L8.45041678,8.60590499 Z" id="P" fill="#333333" sketch:type="MSShapeGroup"></path>
                                <g id="Line-Copy-16">
                                    <use stroke="#333333" stroke-width="2.90485468" stroke-linecap="square" sketch:type="MSShapeGroup" xlink:href="#path-4"></use>
                                    <use stroke="none" xlink:href="#path-4"></use>
                                </g>
                                <g id="Line-Copy-18">
                                    <use stroke="#333333" stroke-width="2.90485468" stroke-linecap="square" sketch:type="MSShapeGroup" xlink:href="#path-5"></use>
                                    <use stroke="none" xlink:href="#path-5"></use>
                                </g>
                                <g id="Line-Copy-17">
                                    <use stroke="#333333" stroke-width="2.90485468" stroke-linecap="square" sketch:type="MSShapeGroup" xlink:href="#path-6"></use>
                                    <use stroke="none" xlink:href="#path-6"></use>
                                </g>
                            </g>
                            <g id="Colored-Mark-+-Colored-Mark-+-label-prong-copy" transform="translate(173.799263, 127.705865) scale(-1, 1) translate(-173.799263, -127.705865) translate(92.727781, 113.069972)" sketch:type="MSShapeGroup">
                                <g id="Colored-Mark" transform="translate(0.237282, 4.746776)" stroke="#263B64" stroke-width="3.66774581" stroke-linecap="square">
                                    <path d="M19.4854323,2.10194652 C19.4854323,2.10194652 14.778297,-1.17388007 10.0711616,2.10194654 C5.36402632,5.37777315 0.656890996,2.10194653 0.656890996,2.10194653" id="Line-Copy-11"></path>
                                    <path d="M19.4854323,9.93915962 C19.4854323,9.93915962 14.778297,6.66333304 10.0711616,9.93915965 C5.36402632,13.2149863 0.656890996,9.93915964 0.656890996,9.93915964" id="Line-Copy-12"></path>
                                    <path d="M19.4854323,17.7763727 C19.4854323,17.7763727 14.778297,14.5005461 10.0711616,17.7763728 C5.36402632,21.0521994 0.656890996,17.7763727 0.656890996,17.7763727" id="Line-Copy-13"></path>
                                </g>
                                <path d="M97.8607934,17.0504196 C97.3477336,17.3974634 96.7368694,17.5709827 96.0281825,17.5709827 C95.3564063,17.5709827 94.7695337,17.4177688 94.2675472,17.1113365 C93.7655606,16.8049043 93.3780032,16.3674141 93.1048634,15.798853 C92.8317237,15.2302918 92.6951559,14.5657498 92.6951559,13.805207 C92.6951559,13.0446642 92.8317237,12.3801222 93.1048634,11.8115611 C93.3780032,11.243 93.7655606,10.8055098 94.2675472,10.4990775 C94.7695337,10.1926452 95.3527153,10.0394314 96.0171093,10.0394314 C97.471394,10.0394314 98.4162957,10.6338273 98.8518429,11.8226369 L98.2317449,12.110608 C98.0619553,11.615886 97.7980472,11.24485 97.4400127,10.997489 C97.0819781,10.750128 96.6224458,10.6264493 96.061402,10.6264493 C95.5225046,10.6264493 95.0482083,10.7538199 94.6384986,11.0085648 C94.228789,11.2633097 93.911361,11.6306538 93.6862053,12.110608 C93.4610496,12.5905622 93.3484734,13.1554229 93.3484734,13.805207 C93.3484734,14.4549912 93.459204,15.0198519 93.6806687,15.4998061 C93.9021334,15.9797603 94.2140248,16.3471043 94.6163523,16.6018493 C95.0186797,16.8565942 95.4892851,16.9839647 96.0281825,16.9839647 C96.5966085,16.9839647 97.0819779,16.8455185 97.4843054,16.5686218 C97.8866329,16.2917252 98.1689961,15.891154 98.3314035,15.3668963 L98.9515015,15.5994884 C98.737419,16.2197369 98.3738533,16.7033758 97.8607934,17.0504196 L97.8607934,17.0504196 Z M104.626505,12.575792 C105.095272,13.0852819 105.329652,13.7904348 105.329652,14.6912719 C105.329652,15.592109 105.095272,16.2972619 104.626505,16.8067518 C104.157738,17.3162416 103.509964,17.5709827 102.683163,17.5709827 C101.856361,17.5709827 101.208587,17.3162416 100.73982,16.8067518 C100.271053,16.2972619 100.036673,15.592109 100.036673,14.6912719 C100.036673,13.7904348 100.271053,13.0852819 100.73982,12.575792 C101.208587,12.0663022 101.856361,11.8115611 102.683163,11.8115611 C103.509964,11.8115611 104.157738,12.0663022 104.626505,12.575792 L104.626505,12.575792 Z M101.204893,12.9800591 C100.846859,13.3972501 100.667844,13.9676486 100.667844,14.6912719 C100.667844,15.4148951 100.846859,15.9852937 101.204893,16.4024847 C101.562928,16.8196756 102.055679,17.028268 102.683163,17.028268 C103.310646,17.028268 103.803397,16.8196756 104.161432,16.4024847 C104.519466,15.9852937 104.698481,15.4148951 104.698481,14.6912719 C104.698481,13.9676486 104.519466,13.3972501 104.161432,12.9800591 C103.803397,12.5628682 103.310646,12.3542758 102.683163,12.3542758 C102.055679,12.3542758 101.562928,12.5628682 101.204893,12.9800591 L101.204893,12.9800591 Z M107.555361,16.086824 C107.555361,16.4117161 107.607035,16.6406139 107.710385,16.7735243 C107.813736,16.9064347 107.987214,16.9728889 108.230825,16.9728889 C108.378468,16.9728889 108.503963,16.9618132 108.607313,16.9396615 C108.710663,16.9175097 108.836158,16.8768988 108.983801,16.8178276 L108.884142,17.4269972 C108.67006,17.522988 108.41907,17.5709827 108.131166,17.5709827 C107.725148,17.5709827 107.422484,17.4565338 107.223166,17.2276326 C107.023847,16.9987313 106.92419,16.640617 106.92419,16.1532789 L106.92419,9.37488271 L107.555361,9.37488271 L107.555361,16.086824 Z M114.282317,12.575792 C114.751083,13.0852819 114.985463,13.7904348 114.985463,14.6912719 C114.985463,15.592109 114.751083,16.2972619 114.282317,16.8067518 C113.81355,17.3162416 113.165775,17.5709827 112.338974,17.5709827 C111.512172,17.5709827 110.864398,17.3162416 110.395631,16.8067518 C109.926864,16.2972619 109.692484,15.592109 109.692484,14.6912719 C109.692484,13.7904348 109.926864,13.0852819 110.395631,12.575792 C110.864398,12.0663022 111.512172,11.8115611 112.338974,11.8115611 C113.165775,11.8115611 113.81355,12.0663022 114.282317,12.575792 L114.282317,12.575792 Z M110.860705,12.9800591 C110.50267,13.3972501 110.323655,13.9676486 110.323655,14.6912719 C110.323655,15.4148951 110.50267,15.9852937 110.860705,16.4024847 C111.218739,16.8196756 111.711491,17.028268 112.338974,17.028268 C112.966457,17.028268 113.459209,16.8196756 113.817243,16.4024847 C114.175278,15.9852937 114.354292,15.4148951 114.354292,14.6912719 C114.354292,13.9676486 114.175278,13.3972501 113.817243,12.9800591 C113.459209,12.5628682 112.966457,12.3542758 112.338974,12.3542758 C111.711491,12.3542758 111.218739,12.5628682 110.860705,12.9800591 L110.860705,12.9800591 Z M119.691564,11.9776982 L119.53654,12.575792 C119.351986,12.4576495 119.119451,12.3985791 118.838929,12.3985791 C118.573172,12.3985791 118.318491,12.4816468 118.07488,12.6477848 C117.831269,12.8139228 117.633799,13.0483584 117.482465,13.3510988 C117.331131,13.6538391 117.255465,13.9971858 117.255465,14.3811492 L117.255465,17.4602246 L116.624294,17.4602246 L116.624294,11.9223192 L117.155806,11.9223192 L117.233319,12.9966728 C117.380962,12.6200934 117.606114,12.3284333 117.908782,12.1216838 C118.211451,11.9149343 118.580553,11.8115611 119.0161,11.8115611 C119.296622,11.8115611 119.521775,11.8669396 119.691564,11.9776982 L119.691564,11.9776982 Z M125.261373,14.9460155 L120.920687,14.9460155 C120.957598,15.5957997 121.151376,16.1034359 121.502029,16.4689395 C121.852681,16.8344431 122.323286,17.0171922 122.913859,17.0171922 C123.342024,17.0171922 123.709281,16.9322785 124.01564,16.7624485 C124.322,16.5926186 124.541615,16.3526451 124.674494,16.0425208 L125.194934,16.3194161 C124.759386,17.153798 123.999036,17.5709827 122.913859,17.5709827 C122.09444,17.5709827 121.452202,17.3162416 120.987126,16.8067518 C120.52205,16.2972619 120.289516,15.592109 120.289516,14.6912719 C120.289516,13.7904348 120.514668,13.0852819 120.96498,12.575792 C121.415291,12.0663022 122.046456,11.8115611 122.858493,11.8115611 C123.36048,11.8115611 123.794175,11.9278559 124.159591,12.1604491 C124.525008,12.3930423 124.80368,12.7142376 124.995616,13.1240447 C125.187552,13.5338517 125.283519,14.0008771 125.283519,14.5251347 C125.283519,14.6580451 125.276137,14.7983373 125.261373,14.9460155 L125.261373,14.9460155 Z M121.490956,12.8914526 C121.155067,13.2421884 120.96498,13.7387489 120.920687,14.3811492 L124.685567,14.3811492 C124.641274,13.7461329 124.460414,13.2514183 124.142982,12.8969905 C123.825549,12.5425628 123.39739,12.3653516 122.858493,12.3653516 C122.282685,12.3653516 121.826844,12.5407169 121.490956,12.8914526 L121.490956,12.8914526 Z M131.694889,9.37488271 L131.694889,17.4602246 L131.130157,17.4602246 L131.096938,16.2972645 C130.93453,16.6886117 130.674313,16.9987313 130.316278,17.2276326 C129.958244,17.4565338 129.543004,17.5709827 129.070546,17.5709827 C128.288037,17.5709827 127.671637,17.3162416 127.221325,16.8067518 C126.771014,16.2972619 126.545861,15.592109 126.545861,14.6912719 C126.545861,13.7904348 126.771014,13.0852819 127.221325,12.575792 C127.671637,12.0663022 128.288037,11.8115611 129.070546,11.8115611 C129.535622,11.8115611 129.941634,11.9186262 130.288596,12.1327596 C130.635557,12.346893 130.893928,12.642245 131.063718,13.0188245 L131.063718,9.37488271 L131.694889,9.37488271 Z M130.504523,16.4523258 C130.847793,16.0757464 131.034189,15.5588804 131.063718,14.9017123 L131.063718,14.4808315 C131.034189,13.8236634 130.847793,13.3067974 130.504523,12.930218 C130.161252,12.5536385 129.709102,12.3653516 129.148058,12.3653516 C128.527957,12.3653516 128.044433,12.572098 127.697472,12.985597 C127.350511,13.399096 127.177032,13.9676486 127.177032,14.6912719 C127.177032,15.4148951 127.350511,15.9834477 127.697472,16.3969468 C128.044433,16.8104458 128.527957,17.0171922 129.148058,17.0171922 C129.709102,17.0171922 130.161252,16.8289053 130.504523,16.4523258 L130.504523,16.4523258 Z M144.251873,17.4602246 L143.642848,17.4602246 L143.642848,12.2102903 L143.709287,10.7482832 L141.096017,17.4602246 L140.531285,17.4602246 L137.929088,10.7482832 L137.918015,10.7482832 L137.984454,12.2102903 L137.984454,17.4602246 L137.386503,17.4602246 L137.386503,10.1501895 L138.338796,10.1501895 L140.40948,15.4333512 L140.808115,16.7181453 L140.819188,16.7181453 L141.228896,15.444427 L143.288507,10.1501895 L144.251873,10.1501895 L144.251873,17.4602246 Z M151.250122,16.9618131 L151.216902,17.4602246 C151.069259,17.5340637 150.877326,17.5709827 150.641097,17.5709827 C150.375339,17.5709827 150.16126,17.5026825 149.998853,17.3660802 C149.836445,17.2294778 149.740479,16.9950422 149.71095,16.6627662 C149.54116,16.9433548 149.275407,17.1648688 148.913681,17.3273149 C148.551956,17.4897609 148.168089,17.5709827 147.762071,17.5709827 C147.215791,17.5709827 146.774714,17.447304 146.438826,17.199943 C146.102938,16.952582 145.934996,16.6036975 145.934996,16.1532789 C145.934996,15.7250121 146.11032,15.3668978 146.460972,15.0789253 C146.811625,14.7909527 147.341286,14.5878982 148.049973,14.4697557 L149.699877,14.1817846 L149.699877,13.7387522 C149.699877,13.3104853 149.572537,12.9745224 149.317852,12.7308534 C149.063168,12.4871843 148.703293,12.3653516 148.238217,12.3653516 C147.389269,12.3653516 146.81347,12.7456173 146.510801,13.5061601 L146.034655,13.16281 C146.18968,12.7345432 146.46097,12.4022722 146.848533,12.165987 C147.236097,11.9297019 147.69932,11.8115611 148.238217,11.8115611 C148.880465,11.8115611 149.389826,11.9684668 149.766316,12.282283 C150.142806,12.5960993 150.331048,13.0557408 150.331048,13.6612215 L150.331048,16.4855532 C150.331048,16.8473649 150.493453,17.028268 150.818268,17.028268 C150.988057,17.028268 151.132007,17.0061166 151.250122,16.9618131 L151.250122,16.9618131 Z M148.708827,16.8565929 C149.000422,16.7495262 149.238493,16.5944664 149.423047,16.3914088 C149.607601,16.1883513 149.699877,15.9465318 149.699877,15.6659432 L149.699877,14.7023477 L148.24929,14.9681672 C147.673482,15.0715419 147.252706,15.2192179 146.986948,15.4111996 C146.721191,15.6031813 146.588314,15.8505386 146.588314,16.1532789 C146.588314,16.4264836 146.695353,16.6387679 146.909436,16.790138 C147.123518,16.9415082 147.422491,17.0171922 147.806363,17.0171922 C148.116414,17.0171922 148.417232,16.9636596 148.708827,16.8565929 L148.708827,16.8565929 Z M155.480076,11.9776982 L155.325051,12.575792 C155.140497,12.4576495 154.907963,12.3985791 154.627441,12.3985791 C154.361683,12.3985791 154.107003,12.4816468 153.863392,12.6477848 C153.619781,12.8139228 153.422311,13.0483584 153.270977,13.3510988 C153.119643,13.6538391 153.043977,13.9971858 153.043977,14.3811492 L153.043977,17.4602246 L152.412805,17.4602246 L152.412805,11.9223192 L152.944318,11.9223192 L153.02183,12.9966728 C153.169473,12.6200934 153.394626,12.3284333 153.697294,12.1216838 C153.999962,11.9149343 154.369065,11.8115611 154.804612,11.8115611 C155.085134,11.8115611 155.310286,11.8669396 155.480076,11.9776982 L155.480076,11.9776982 Z M158.580566,14.569438 L157.30715,15.8210046 L157.30715,17.4602246 L156.675979,17.4602246 L156.675979,9.37488271 L157.30715,9.37488271 L157.30715,15.0235462 L160.496225,11.9223192 L161.304567,11.9223192 L159.045639,14.1264055 L161.404226,17.4602246 L160.640177,17.4602246 L158.580566,14.569438 Z" id="Colored-Mark" fill="#757575" transform="translate(127.154886, 13.472933) scale(-1, 1) translate(-127.154886, -13.472933) "></path>
                                <g id="label-prong-copy" transform="translate(59.557879, 14.635893) scale(-1, 1) translate(-59.557879, -14.635893) translate(44.529995, 0.000000)" stroke="#333333" stroke-width="0.880258995" stroke-linecap="square">
                                    <path d="M0.374670813,15.4270222 L15.4233552,15.4270222" id="Line"></path>
                                    <path d="M16.2142965,28.876221 L29.6602985,28.876221" id="Line-Copy"></path>
                                    <path d="M15.4233552,1.18669401 L29.6602985,1.18669401" id="Line-Copy-2"></path>
                                    <path d="M15.4233552,1.18669401 L15.4233552,28.876221" id="Line"></path>
                                </g>
                            </g>
                            <g id="Mark" transform="translate(196.341090, 63.624388) scale(-1, 1) translate(-196.341090, -63.624388) translate(137.811435, 48.988496)" sketch:type="MSShapeGroup">
                                <g id="Colored-Mark-Copy" transform="translate(0.237282, 6.329035)" stroke="#444444" stroke-width="3.66774581" stroke-linecap="square">
                                    <path d="M19.4854323,2.10194652 C19.4854323,2.10194652 14.778297,-1.17388007 10.0711616,2.10194654 C5.36402632,5.37777315 0.656890996,2.10194653 0.656890996,2.10194653" id="Line-Copy-11"></path>
                                    <path d="M19.4854323,9.93915962 C19.4854323,9.93915962 14.778297,6.66333304 10.0711616,9.93915965 C5.36402632,13.2149863 0.656890996,9.93915964 0.656890996,9.93915964" id="Line-Copy-12"></path>
                                    <path d="M19.4854323,17.7763727 C19.4854323,17.7763727 14.778297,14.5005461 10.0711616,17.7763728 C5.36402632,21.0521994 0.656890996,17.7763727 0.656890996,17.7763727" id="Line-Copy-13"></path>
                                </g>
                                <path d="M99.2235853,17.4048455 L98.6145605,17.4048455 L98.6145605,12.1549112 L98.6809996,10.6929042 L96.0677295,17.4048455 L95.5029975,17.4048455 L92.9008006,10.6929042 L92.8897274,10.6929042 L92.9561665,12.1549112 L92.9561665,17.4048455 L92.3582149,17.4048455 L92.3582149,10.0948104 L93.3105082,10.0948104 L95.3811925,15.3779722 L95.7798269,16.6627662 L95.7909001,16.6627662 L96.2006077,15.389048 L98.2602188,10.0948104 L99.2235853,10.0948104 L99.2235853,17.4048455 Z M106.221834,16.906434 L106.188614,17.4048455 C106.040971,17.4786846 105.849038,17.5156036 105.612809,17.5156036 C105.347051,17.5156036 105.132972,17.4473035 104.970565,17.3107011 C104.808157,17.1740988 104.712191,16.9396631 104.682662,16.6073872 C104.512873,16.8879758 104.247119,17.1094898 103.885393,17.2719358 C103.523668,17.4343818 103.139801,17.5156036 102.733783,17.5156036 C102.187503,17.5156036 101.746426,17.391925 101.410538,17.144564 C101.07465,16.897203 100.906708,16.5483184 100.906708,16.0978999 C100.906708,15.669633 101.082032,15.3115187 101.432684,15.0235462 C101.783337,14.7355737 102.312998,14.5325192 103.021685,14.4143766 L104.671589,14.1264055 L104.671589,13.6833731 C104.671589,13.2551063 104.544249,12.9191434 104.289564,12.6754743 C104.03488,12.4318053 103.675005,12.3099726 103.209929,12.3099726 C102.360982,12.3099726 101.785182,12.6902383 101.482514,13.4507811 L101.006367,13.1074309 C101.161392,12.6791641 101.432682,12.3468931 101.820246,12.110608 C102.207809,11.8743228 102.671032,11.756182 103.209929,11.756182 C103.852177,11.756182 104.361538,11.9130878 104.738028,12.226904 C105.114518,12.5407202 105.30276,13.0003617 105.30276,13.6058424 L105.30276,16.4301742 C105.30276,16.7919858 105.465165,16.9728889 105.78998,16.9728889 C105.959769,16.9728889 106.103719,16.9507375 106.221834,16.906434 L106.221834,16.906434 Z M103.680539,16.8012138 C103.972135,16.6941471 104.210206,16.5390873 104.394759,16.3360298 C104.579313,16.1329722 104.671589,15.8911528 104.671589,15.6105642 L104.671589,14.6469686 L103.221003,14.9127881 C102.645194,15.0161629 102.224418,15.1638389 101.95866,15.3558205 C101.692903,15.5478022 101.560026,15.7951595 101.560026,16.0978999 C101.560026,16.3711046 101.667066,16.5833888 101.881148,16.734759 C102.095231,16.8861292 102.394203,16.9618131 102.778075,16.9618131 C103.088126,16.9618131 103.388944,16.9082806 103.680539,16.8012138 L103.680539,16.8012138 Z M110.451788,11.9223192 L110.296763,12.520413 C110.11221,12.4022704 109.879675,12.3432 109.599153,12.3432 C109.333396,12.3432 109.078715,12.4262678 108.835104,12.5924057 C108.591493,12.7585437 108.394023,12.9929794 108.242689,13.2957197 C108.091355,13.5984601 108.015689,13.9418068 108.015689,14.3257701 L108.015689,17.4048455 L107.384518,17.4048455 L107.384518,11.8669401 L107.91603,11.8669401 L107.993542,12.9412938 C108.141185,12.5647143 108.366338,12.2730542 108.669006,12.0663047 C108.971675,11.8595552 109.340777,11.756182 109.776324,11.756182 C110.056846,11.756182 110.281998,11.8115605 110.451788,11.9223192 L110.451788,11.9223192 Z M113.552278,14.5140589 L112.278862,15.7656255 L112.278862,17.4048455 L111.647691,17.4048455 L111.647691,9.31950365 L112.278862,9.31950365 L112.278862,14.9681672 L115.467938,11.8669401 L116.27628,11.8669401 L114.017351,14.0710265 L116.375938,17.4048455 L115.611889,17.4048455 L113.552278,14.5140589 Z" fill="#757575" transform="translate(104.472272, 13.417554) scale(-1, 1) translate(-104.472272, -13.417554) "></path>
                                <g id="label-prong" transform="translate(57.975997, 14.635893) scale(-1, 1) translate(-57.975997, -14.635893) translate(42.948112, 0.000000)" stroke="#333333" stroke-width="0.880258995" stroke-linecap="square">
                                    <path d="M0.374670813,15.4270222 L15.4233552,15.4270222" id="Line"></path>
                                    <path d="M16.2142965,28.876221 L29.6602985,28.876221" id="Line-Copy"></path>
                                    <path d="M15.4233552,1.18669401 L29.6602985,1.18669401" id="Line-Copy-2"></path>
                                    <path d="M15.4233552,1.18669401 L15.4233552,28.876221" id="Line"></path>
                                </g>
                            </g>
                            <path d="M0.583120174,21.7560569 L396.999663,25.098043" id="Line" stroke="#000000" stroke-width="0.5775" stroke-linecap="square" sketch:type="MSShapeGroup"></path>
                            <path d="M1.21706221,10.2846815 L1.21706221,1.43669089 L3.19125168,1.43669089 L3.19125168,8.52520979 L6.96245977,8.52520979 L6.96245977,10.2846815 L1.21706221,10.2846815 Z M14.9667857,3.79109181 C14.4605807,3.23413397 13.8383798,2.95565922 13.1001642,2.95565922 C12.3619486,2.95565922 11.7397477,3.23413397 11.2335428,3.79109181 C10.7273378,4.34804965 10.4742391,5.02103028 10.4742391,5.81005389 C10.4742391,6.5990775 10.7273378,7.26994847 11.2335428,7.82268694 C11.7397477,8.3754254 12.3619486,8.65179049 13.1001642,8.65179049 C13.8383798,8.65179049 14.4605807,8.3754254 14.9667857,7.82268694 C15.4729906,7.26994847 15.7260893,6.5990775 15.7260893,5.81005389 C15.7260893,5.02103028 15.4729906,4.34804965 14.9667857,3.79109181 L14.9667857,3.79109181 Z M13.0938367,10.3732879 C11.7861405,10.3732879 10.6851613,9.93658891 9.79086583,9.06317775 C8.89657041,8.18976659 8.4494294,7.10329315 8.4494294,5.80372486 C8.4494294,4.50415656 8.89657041,3.41768313 9.79086583,2.54427197 C10.6851613,1.6708608 11.7861405,1.23416177 13.0938367,1.23416177 C14.4015328,1.23416177 15.5025121,1.6708608 16.3968075,2.54427197 C17.2911029,3.41768313 17.738244,4.50415656 17.738244,5.80372486 C17.738244,7.10329315 17.2911029,8.18976659 16.3968075,9.06317775 C15.5025121,9.93658891 14.4015328,10.3732879 13.0938367,10.3732879 L13.0938367,10.3732879 Z M25.9450508,5.77840872 L27.9318953,5.77840872 L27.9318953,8.91760995 C27.0544734,9.89650555 25.8395997,10.385946 24.2872379,10.385946 C22.9879785,10.385946 21.897545,9.95557595 21.0159047,9.09482292 C20.1342644,8.23406989 19.6934508,7.14759646 19.6934508,5.83537003 C19.6934508,4.5231436 20.142701,3.42823154 21.0412148,2.550601 C21.9397286,1.67297046 23.0238346,1.23416177 24.2935654,1.23416177 C25.5632962,1.23416177 26.6663846,1.65187389 27.6028638,2.48731065 L26.5778039,3.96830478 C26.1812766,3.62231582 25.8163927,3.38392456 25.4831411,3.25312386 C25.1498895,3.12232315 24.7892239,3.05692378 24.4011334,3.05692378 C23.6502627,3.05692378 23.017516,3.31219229 22.5028743,3.82273698 C21.9882326,4.33328167 21.7309156,5.0062623 21.7309156,5.84169906 C21.7309156,6.67713583 21.9776868,7.34589714 22.4712367,7.84800308 C22.9647865,8.35010901 23.5532409,8.60115821 24.2366176,8.60115821 C24.9199943,8.60115821 25.4894664,8.47035947 25.9450508,8.20875806 L25.9450508,5.77840872 Z M36.4930439,3.79109181 C35.986839,3.23413397 35.364638,2.95565922 34.6264225,2.95565922 C33.8882069,2.95565922 33.266006,3.23413397 32.759801,3.79109181 C32.253596,4.34804965 32.0004974,5.02103028 32.0004974,5.81005389 C32.0004974,6.5990775 32.253596,7.26994847 32.759801,7.82268694 C33.266006,8.3754254 33.8882069,8.65179049 34.6264225,8.65179049 C35.364638,8.65179049 35.986839,8.3754254 36.4930439,7.82268694 C36.9992489,7.26994847 37.2523476,6.5990775 37.2523476,5.81005389 C37.2523476,5.02103028 36.9992489,4.34804965 36.4930439,3.79109181 L36.4930439,3.79109181 Z M34.6200949,10.3732879 C33.3123988,10.3732879 32.2114195,9.93658891 31.3171241,9.06317775 C30.4228287,8.18976659 29.9756877,7.10329315 29.9756877,5.80372486 C29.9756877,4.50415656 30.4228287,3.41768313 31.3171241,2.54427197 C32.2114195,1.6708608 33.3123988,1.23416177 34.6200949,1.23416177 C35.9277911,1.23416177 37.0287703,1.6708608 37.9230658,2.54427197 C38.8173612,3.41768313 39.2645022,4.50415656 39.2645022,5.80372486 C39.2645022,7.10329315 38.8173612,8.18976659 37.9230658,9.06317775 C37.0287703,9.93658891 35.9277911,10.3732879 34.6200949,10.3732879 L34.6200949,10.3732879 Z M50.4136107,0.0949355211 L52.2106293,0.0949355211 L46.8955038,11.7023852 L45.1111402,11.7023852 L50.4136107,0.0949355211 Z M62.6130892,8.53786786 C63.5833154,8.53786786 64.3763579,8.15391026 64.9922406,7.38598354 L66.2577467,8.6897647 C65.2537735,9.82055789 64.0705372,10.385946 62.7080021,10.385946 C61.3454671,10.385946 60.2233963,9.95557595 59.341756,9.09482292 C58.4601157,8.23406989 58.0193022,7.14759646 58.0193022,5.83537003 C58.0193022,4.5231436 58.4685523,3.42823154 59.3670661,2.550601 C60.2655799,1.67297046 61.36445,1.23416177 62.6637094,1.23416177 C64.1148303,1.23416177 65.329704,1.78689195 66.3083669,2.89236888 L65.080826,4.28475652 C64.4565066,3.50839104 63.6803373,3.12021413 62.7522949,3.12021413 C62.0098609,3.12021413 61.3750051,3.3628247 60.8477082,3.84805312 C60.3204114,4.33328154 60.0567669,4.98727526 60.0567669,5.81005389 C60.0567669,6.63283252 60.3056473,7.29315521 60.8034155,7.79104176 C61.3011837,8.28892832 61.9044023,8.53786786 62.6130892,8.53786786 L62.6130892,8.53786786 Z M74.4265884,3.79109181 C73.9203834,3.23413397 73.2981825,2.95565922 72.5599669,2.95565922 C71.8217513,2.95565922 71.1995504,3.23413397 70.6933455,3.79109181 C70.1871405,4.34804965 69.9340418,5.02103028 69.9340418,5.81005389 C69.9340418,6.5990775 70.1871405,7.26994847 70.6933455,7.82268694 C71.1995504,8.3754254 71.8217513,8.65179049 72.5599669,8.65179049 C73.2981825,8.65179049 73.9203834,8.3754254 74.4265884,7.82268694 C74.9327933,7.26994847 75.185892,6.5990775 75.185892,5.81005389 C75.185892,5.02103028 74.9327933,4.34804965 74.4265884,3.79109181 L74.4265884,3.79109181 Z M72.5536394,10.3732879 C71.2459432,10.3732879 70.144964,9.93658891 69.2506685,9.06317775 C68.3563731,8.18976659 67.9092321,7.10329315 67.9092321,5.80372486 C67.9092321,4.50415656 68.3563731,3.41768313 69.2506685,2.54427197 C70.144964,1.6708608 71.2459432,1.23416177 72.5536394,1.23416177 C73.8613355,1.23416177 74.9623148,1.6708608 75.8566102,2.54427197 C76.7509056,3.41768313 77.1980467,4.50415656 77.1980467,5.80372486 C77.1980467,7.10329315 76.7509056,8.18976659 75.8566102,9.06317775 C74.9623148,9.93658891 73.8613355,10.3732879 72.5536394,10.3732879 L72.5536394,10.3732879 Z M79.659456,10.2846815 L79.659456,1.43669089 L81.6336454,1.43669089 L81.6336454,8.52520979 L85.4048535,8.52520979 L85.4048535,10.2846815 L79.659456,10.2846815 Z M93.4091794,3.79109181 C92.9029744,3.23413397 92.2807735,2.95565922 91.542558,2.95565922 C90.8043424,2.95565922 90.1821415,3.23413397 89.6759365,3.79109181 C89.1697315,4.34804965 88.9166329,5.02103028 88.9166329,5.81005389 C88.9166329,6.5990775 89.1697315,7.26994847 89.6759365,7.82268694 C90.1821415,8.3754254 90.8043424,8.65179049 91.542558,8.65179049 C92.2807735,8.65179049 92.9029744,8.3754254 93.4091794,7.82268694 C93.9153844,7.26994847 94.168483,6.5990775 94.168483,5.81005389 C94.168483,5.02103028 93.9153844,4.34804965 93.4091794,3.79109181 L93.4091794,3.79109181 Z M91.5362304,10.3732879 C90.2285343,10.3732879 89.127555,9.93658891 88.2332596,9.06317775 C87.3389642,8.18976659 86.8918231,7.10329315 86.8918231,5.80372486 C86.8918231,4.50415656 87.3389642,3.41768313 88.2332596,2.54427197 C89.127555,1.6708608 90.2285343,1.23416177 91.5362304,1.23416177 C92.8439266,1.23416177 93.9449058,1.6708608 94.8392013,2.54427197 C95.7334967,3.41768313 96.1806377,4.50415656 96.1806377,5.80372486 C96.1806377,7.10329315 95.7334967,8.18976659 94.8392013,9.06317775 C93.9449058,9.93658891 92.8439266,10.3732879 91.5362304,10.3732879 L91.5362304,10.3732879 Z M105.817466,4.37336301 C105.817466,5.79107388 105.256431,6.70666508 104.134343,7.12016408 L106.374289,10.2846815 L103.944517,10.2846815 L101.982983,7.46193196 L100.616236,7.46193196 L100.616236,10.2846815 L98.642047,10.2846815 L98.642047,1.43669089 L101.995638,1.43669089 C103.370828,1.43669089 104.351586,1.66875317 104.93794,2.13288471 C105.524294,2.59701624 105.817466,3.34383487 105.817466,4.37336301 L105.817466,4.37336301 Z M103.438315,5.42398277 C103.682981,5.20457514 103.805312,4.85648171 103.805312,4.37969204 C103.805312,3.90290237 103.678762,3.57590551 103.42566,3.39869166 C103.172557,3.2214778 102.729635,3.1328722 102.096879,3.1328722 L100.616236,3.1328722 L100.616236,5.75309258 L102.058913,5.75309258 C102.733853,5.75309258 103.193649,5.64339041 103.438315,5.42398277 L103.438315,5.42398277 Z" id="LOGO-/-COLOR" fill="#444444" sketch:type="MSShapeGroup"></path>
                            <rect id="Rectangle-3" fill="#263B64" sketch:type="MSShapeGroup" x="292.835928" y="105.158679" width="68.0209513" height="46.4305909" rx="1.76051799"></rect>
                            <rect id="Rectangle-3" fill="#333333" sketch:type="MSShapeGroup" x="293.060769" y="40.615974" width="105.536879" height="46.4305909" rx="1.76051799"></rect>
                            <rect id="Rectangle-3-Copy" fill="#467890" sketch:type="MSShapeGroup" x="363.229703" y="105.158679" width="35.3679447" height="46.4305909" rx="1.76051799"></rect>
                            <rect id="Rectangle-3-Copy-2" fill="#467890" sketch:type="MSShapeGroup" x="360.856879" y="105.158679" width="29.4625632" height="46.4305909"></rect>
                            <rect id="Rectangle-3-Copy-2" fill="#263B64" sketch:type="MSShapeGroup" x="331.90212" y="105.158679" width="29.4625632" height="46.4305909"></rect>
                        </g>
                    </g>
                </g>
            </g>
        </g>
    </g>
</svg>