<?xml version="1.0" encoding="UTF-8" standalone="no"?>
<svg width="863px" height="466px" viewBox="0 0 863 466" version="1.1" xmlns="http://www.w3.org/2000/svg" xmlns:xlink="http://www.w3.org/1999/xlink" xmlns:sketch="http://www.bohemiancoding.com/sketch/ns">
    <!-- Generator: Sketch 3.5.1 (25234) - http://www.bohemiancoding.com/sketch -->
    <title>work-item-images</title>
    <desc>Created with Sketch.</desc>
    <defs>
        <path id="path-1" d="M26.7124845,7.15745365 C26.7124845,7.15745365 24.7281655,5.88228056 21.7670454,7.15745364 C18.8059253,8.43262672 16.6336283,7.15745364 16.6336283,7.15745364"></path>
        <path id="path-2" d="M26.7124845,2.36659707 C26.7124845,2.36659707 24.7281655,1.09142398 21.7670454,2.36659706 C18.8059253,3.64177014 16.6336283,2.36659706 16.6336283,2.36659706"></path>
        <path id="path-3" d="M26.7124845,11.9483102 C26.7124845,11.9483102 24.7281655,10.6731371 21.7670454,11.9483102 C18.8059253,13.2234833 16.6336283,11.9483102 16.6336283,11.9483102"></path>
        <path id="path-4" d="M26.3649218,7.622132 C26.3649218,7.622132 24.3806028,6.34695891 21.4194827,7.62213199 C18.4583626,8.89730508 16.2860655,7.622132 16.2860655,7.622132"></path>
        <path id="path-5" d="M26.3649218,2.83127543 C26.3649218,2.83127543 24.3806028,1.55610234 21.4194827,2.83127542 C18.4583626,4.1064485 16.2860655,2.83127542 16.2860655,2.83127542"></path>
        <path id="path-6" d="M26.3649218,12.4129886 C26.3649218,12.4129886 24.3806028,11.1378155 21.4194827,12.4129886 C18.4583626,13.6881617 16.2860655,12.4129886 16.2860655,12.4129886"></path>
    </defs>
    <g id="Welcome" stroke="none" stroke-width="1" fill="none" fill-rule="evenodd" sketch:type="MSPage">
        <g id="work-item-images" sketch:type="MSArtboardGroup">
            <g id="logo" sketch:type="MSLayerGroup" transform="translate(-19.476630, 62.702150)">
                <g id="logo-element-table" transform="translate(317.680851, 0.000000)">
                    <rect id="Rectangle-93-Copy" stroke="#9B9B9B" stroke-width="0.5" fill="#FFFFFF" sketch:type="MSShapeGroup" x="0" y="0" width="445.05163" height="294.295475"></rect>
                    <g id="Logotype-Copy" transform="translate(49.652674, 24.585467)">
                        <g id="logo/color">
                            <g id="Group-2" transform="translate(201.000000, 216.000000)">
                                <path d="M43.8052367,4.95857129 C43.8052367,7.10488576 42.9566163,8.49102641 41.2593499,9.11703479 L44.6474849,13.9078914 L40.9722199,13.9078914 L38.005209,9.6344473 L35.9378724,9.6344473 L35.9378724,13.9078914 L32.9517195,13.9078914 L32.9517195,0.512656385 L38.024351,0.512656385 C40.1044593,0.512656385 41.5879499,0.863982354 42.4748673,1.56664483 C43.3617847,2.26930731 43.8052367,3.39993815 43.8052367,4.95857129 L43.8052367,4.95857129 Z M40.2065396,6.54913567 C40.5766203,6.21696795 40.7616578,5.689979 40.7616578,4.968153 C40.7616578,4.246327 40.5702397,3.75127677 40.1873976,3.48298746 C39.8045556,3.21469815 39.1345921,3.08055551 38.177487,3.08055551 L35.9378724,3.08055551 L35.9378724,7.04738475 L38.120061,7.04738475 C39.1409731,7.04738475 39.836459,6.88130339 40.2065396,6.54913567 L40.2065396,6.54913567 Z M51.807465,3.18595435 C51.5203335,3.42230446 51.3767699,3.73530396 51.3767699,4.12496224 C51.3767699,4.51462053 51.5522365,4.82442615 51.903175,5.05438842 C52.2541136,5.28435068 53.0644504,5.55582984 54.3342097,5.86883404 C55.6039691,6.18183823 56.5897726,6.65133748 57.2916496,7.27734587 C57.9935267,7.90335426 58.3444599,8.81680178 58.3444599,10.0177158 C58.3444599,11.2186299 57.8946273,12.192761 56.9949485,12.9401383 C56.0952698,13.6875157 54.9116676,14.0611988 53.4441065,14.0611988 C51.3257139,14.0611988 49.4179131,13.2755062 47.7206468,11.7040973 L49.5008533,9.51946675 C50.9428916,10.7842592 52.276438,11.416646 53.5015325,11.416646 C54.0502727,11.416646 54.4809636,11.2984727 54.7936179,11.0621226 C55.1062722,10.8257725 55.262597,10.5063852 55.262597,10.1039512 C55.262597,9.70151728 55.0967013,9.38213004 54.7649049,9.14577993 C54.4331084,8.90942983 53.7759062,8.66988939 52.7932783,8.42715145 C51.2363874,8.05665669 50.0974494,7.57438195 49.3764303,6.98031276 C48.6554112,6.38624358 48.294907,5.45363282 48.294907,4.18245252 C48.294907,2.91127222 48.7511202,1.93075338 49.6635604,1.24086658 C50.5760005,0.550979788 51.7149385,0.206041564 53.0804084,0.206041564 C53.9737064,0.206041564 54.8669911,0.359347442 55.7602892,0.665963796 C56.6535872,0.97258015 57.432021,1.4069468 58.0956138,1.96907678 L56.5833954,4.15370738 C55.4221079,3.27218537 54.2225542,2.83143097 52.9846984,2.83143097 C52.4870037,2.83143097 52.0945965,2.94960425 51.807465,3.18595435 L51.807465,3.18595435 Z M71.9170119,1.71037053 C72.8549748,2.50885062 73.3239493,3.73529764 73.3239493,5.38974838 C73.3239493,7.04419912 72.8422136,8.25467678 71.8787278,9.02121766 C70.9152421,9.78775855 69.4445127,10.1710232 67.4664956,10.1710232 L65.686289,10.1710232 L65.686289,13.9078914 L62.7001362,13.9078914 L62.7001362,0.512656385 L67.4282116,0.512656385 C69.4827971,0.512656385 70.9790489,0.911890441 71.9170119,1.71037053 L71.9170119,1.71037053 Z M69.7252522,6.98031276 C70.0825714,6.5778788 70.2612284,5.99020627 70.2612284,5.21727754 C70.2612284,4.44434882 70.0283363,3.89500276 69.5625452,3.56922288 C69.096754,3.243443 68.3725554,3.08055551 67.3899275,3.08055551 L65.686289,3.08055551 L65.686289,7.58396069 L67.6961996,7.58396069 C68.6915889,7.58396069 69.367933,7.38274673 69.7252522,6.98031276 L69.7252522,6.98031276 Z M87.1166343,0.512656385 L87.1166343,3.17637264 L80.4552163,3.17637264 L80.4552163,5.93590603 L86.4466641,5.93590603 L86.4466641,8.48464173 L80.4552163,8.48464173 L80.4552163,11.2633385 L87.3271963,11.2633385 L87.3271963,13.9078914 L77.4690635,13.9078914 L77.4690635,0.512656385 L87.1166343,0.512656385 Z M91.7977246,0.512656385 L94.7838775,0.512656385 L94.7838775,6.01255973 L99.837367,0.512656385 L103.531774,0.512656385 L98.2102965,6.43415511 C98.6697069,7.07293918 99.5183274,8.2642536 100.756183,10.0081341 C101.994039,11.7520146 102.919227,13.0519207 103.531774,13.9078914 L100.047929,13.9078914 L96.1238179,8.61878571 L94.7838775,10.113533 L94.7838775,13.9078914 L91.7977246,13.9078914 L91.7977246,0.512656385 Z M112.864372,3.09971894 L112.864372,13.9078914 L109.878219,13.9078914 L109.878219,3.09971894 L106.088102,3.09971894 L106.088102,0.512656385 L116.654489,0.512656385 L116.654489,3.09971894 L112.864372,3.09971894 Z M120.646467,0.512656385 L123.63262,0.512656385 L123.63262,13.9078914 L120.646467,13.9078914 L120.646467,0.512656385 Z M133.673472,9.04038109 L137.080749,0.512656385 L140.315748,0.512656385 L134.936844,13.9078914 L132.410099,13.9078914 L127.031196,0.512656385 L130.266195,0.512656385 L133.673472,9.04038109 Z" id="RSPEKTIV" fill="#467890" sketch:type="MSShapeGroup"></path>
                                <path d="M9.84336475,1.71037053 C10.7813277,2.50885062 11.2503022,3.73529764 11.2503022,5.38974838 C11.2503022,7.04419912 10.7685665,8.25467678 9.80508074,9.02121766 C8.84159498,9.78775855 7.37086559,10.1710232 5.39284846,10.1710232 L3.61264194,10.1710232 L3.61264194,13.9078914 L0.626489069,13.9078914 L0.626489069,0.512656385 L5.35456445,0.512656385 C7.40914998,0.512656385 8.90540179,0.911890441 9.84336475,1.71037053 L9.84336475,1.71037053 Z M7.65160511,6.98031276 C8.00892434,6.5778788 8.18758127,5.99020627 8.18758127,5.21727754 C8.18758127,4.44434882 7.9546892,3.89500276 7.48889807,3.56922288 C7.02310694,3.243443 6.2989083,3.08055551 5.31628043,3.08055551 L3.61264194,3.08055551 L3.61264194,7.58396069 L5.62255252,7.58396069 C6.61794179,7.58396069 7.29428589,7.38274673 7.65160511,6.98031276 L7.65160511,6.98031276 Z" id="P" fill="#467890" sketch:type="MSShapeGroup"></path>
                                <g id="Line-Copy-16">
                                    <use stroke="#263B64" stroke-width="2.5150257" stroke-linecap="square" sketch:type="MSShapeGroup" xlink:href="#path-1"></use>
                                    <use stroke="none" xlink:href="#path-1"></use>
                                </g>
                                <g id="Line-Copy-18">
                                    <use stroke="#263B64" stroke-width="2.5150257" stroke-linecap="square" sketch:type="MSShapeGroup" xlink:href="#path-2"></use>
                                    <use stroke="none" xlink:href="#path-2"></use>
                                </g>
                                <g id="Line-Copy-17">
                                    <use stroke="#263B64" stroke-width="2.5150257" stroke-linecap="square" sketch:type="MSShapeGroup" xlink:href="#path-3"></use>
                                    <use stroke="none" xlink:href="#path-3"></use>
                                </g>
                            </g>
                            <g id="colored-logotype-label-prong" transform="translate(161.023404, 209.375649)" stroke="#333333" stroke-width="0.762129" stroke-linecap="square" sketch:type="MSShapeGroup">
                                <path d="M0.323843377,13.3459576 L13.3310396,13.3459576" id="Line"></path>
                                <path d="M14.0146827,24.980895 L25.6366146,24.980895" id="Line-Copy"></path>
                                <path d="M13.3310396,1.02661212 L25.6366146,1.02661212" id="Line-Copy-2"></path>
                                <path d="M13.3310396,1.02661212 L13.3310396,24.980895" id="Line"></path>
                            </g>
                            <path d="M72.4417226,224.762511 C71.9982639,225.06274 71.4702689,225.212852 70.8577216,225.212852 C70.2770779,225.212852 69.7698198,225.080306 69.3359322,224.815211 C68.9020446,224.550115 68.5670628,224.171642 68.3309769,223.679778 C68.094891,223.187914 67.9768498,222.613017 67.9768498,221.955069 C67.9768498,221.297122 68.094891,220.722225 68.3309769,220.230361 C68.5670628,219.738497 68.9020446,219.360023 69.3359322,219.094928 C69.7698198,218.829833 70.2738876,218.697287 70.8481506,218.697287 C72.1051486,218.697287 72.921866,219.2115 73.2983273,220.239943 L72.7623512,220.489067 C72.6155951,220.061082 72.3874885,219.740098 72.0780245,219.526105 C71.7685605,219.312113 71.3713679,219.205118 70.8864346,219.205118 C70.4206435,219.205118 70.0106897,219.315306 69.6565608,219.535687 C69.3024319,219.756067 69.0280659,220.073858 68.8334545,220.489067 C68.6388432,220.904277 68.541539,221.392939 68.541539,221.955069 C68.541539,222.517199 68.637248,223.005862 68.828669,223.421072 C69.0200901,223.836281 69.2896706,224.154072 69.6374188,224.374452 C69.985167,224.594833 70.3919305,224.705021 70.8577216,224.705021 C71.3490356,224.705021 71.7685603,224.585251 72.1163085,224.345707 C72.4640567,224.106163 72.7081148,223.759628 72.8484902,223.306091 L73.3844664,223.507307 C73.1994261,224.043886 72.8851813,224.462283 72.4417226,224.762511 L72.4417226,224.762511 Z M78.2896053,220.891499 C78.6947798,221.33226 78.897364,221.94229 78.897364,222.721607 C78.897364,223.500923 78.6947798,224.110953 78.2896053,224.551714 C77.8844308,224.992475 77.3245328,225.212852 76.6098943,225.212852 C75.8952559,225.212852 75.3353578,224.992475 74.9301833,224.551714 C74.5250088,224.110953 74.3224246,223.500923 74.3224246,222.721607 C74.3224246,221.94229 74.5250088,221.33226 74.9301833,220.891499 C75.3353578,220.450738 75.8952559,220.230361 76.6098943,220.230361 C77.3245328,220.230361 77.8844308,220.450738 78.2896053,220.891499 L78.2896053,220.891499 Z M75.3321654,221.241232 C75.0227015,221.602145 74.8679718,222.095598 74.8679718,222.721607 C74.8679718,223.347615 75.0227015,223.841068 75.3321654,224.201981 C75.6416294,224.562894 76.0675348,224.743348 76.6098943,224.743348 C77.1522538,224.743348 77.5781592,224.562894 77.8876232,224.201981 C78.1970872,223.841068 78.3518168,223.347615 78.3518168,222.721607 C78.3518168,222.095598 78.1970872,221.602145 77.8876232,221.241232 C77.5781592,220.880319 77.1522538,220.699865 76.6098943,220.699865 C76.0675348,220.699865 75.6416294,220.880319 75.3321654,221.241232 L75.3321654,221.241232 Z M80.8211355,223.928902 C80.8211355,224.209967 80.8657998,224.407987 80.9551296,224.522969 C81.0444594,224.63795 81.1944036,224.695439 81.4049667,224.695439 C81.5325807,224.695439 81.641051,224.685858 81.7303808,224.666694 C81.8197106,224.647531 81.9281809,224.612398 82.0557949,224.561295 L81.9696559,225.08829 C81.7846156,225.171332 81.567675,225.212852 81.3188277,225.212852 C80.9678892,225.212852 80.7062844,225.113842 80.5340055,224.915819 C80.3617265,224.717796 80.2755884,224.40799 80.2755884,223.986393 L80.2755884,218.122384 L80.8211355,218.122384 L80.8211355,223.928902 Z M86.6355197,220.891499 C87.0406942,221.33226 87.2432784,221.94229 87.2432784,222.721607 C87.2432784,223.500923 87.0406942,224.110953 86.6355197,224.551714 C86.2303453,224.992475 85.6704472,225.212852 84.9558087,225.212852 C84.2411703,225.212852 83.6812722,224.992475 83.2760978,224.551714 C82.8709233,224.110953 82.6683391,223.500923 82.6683391,222.721607 C82.6683391,221.94229 82.8709233,221.33226 83.2760978,220.891499 C83.6812722,220.450738 84.2411703,220.230361 84.9558087,220.230361 C85.6704472,220.230361 86.2303453,220.450738 86.6355197,220.891499 L86.6355197,220.891499 Z M83.6780799,221.241232 C83.3686159,221.602145 83.2138862,222.095598 83.2138862,222.721607 C83.2138862,223.347615 83.3686159,223.841068 83.6780799,224.201981 C83.9875438,224.562894 84.4134492,224.743348 84.9558087,224.743348 C85.4981683,224.743348 85.9240736,224.562894 86.2335376,224.201981 C86.5430016,223.841068 86.6977312,223.347615 86.6977312,222.721607 C86.6977312,222.095598 86.5430016,221.602145 86.2335376,221.241232 C85.9240736,220.880319 85.4981683,220.699865 84.9558087,220.699865 C84.4134492,220.699865 83.9875438,220.880319 83.6780799,221.241232 L83.6780799,221.241232 Z M91.3109546,220.374087 L91.1769606,220.891499 C91.017443,220.789294 90.816454,220.738192 90.5739874,220.738192 C90.3442822,220.738192 90.1241513,220.810054 89.9135882,220.95378 C89.7030251,221.097507 89.5323439,221.300318 89.4015395,221.562219 C89.2707352,221.824121 89.205334,222.121151 89.205334,222.453319 L89.205334,225.117035 L88.6597868,225.117035 L88.6597868,220.326178 L89.119195,220.326178 L89.186192,221.255604 C89.313806,220.929825 89.5084144,220.677509 89.7700231,220.498649 C90.0316319,220.31979 90.3506621,220.230361 90.7271234,220.230361 C90.96959,220.230361 91.1641985,220.278269 91.3109546,220.374087 L91.3109546,220.374087 Z M96.125169,222.941986 L92.3733359,222.941986 C92.4052394,223.504116 92.5727303,223.943273 92.8758135,224.259471 C93.1788968,224.57567 93.5856604,224.733766 94.0961164,224.733766 C94.466197,224.733766 94.7836321,224.660307 95.0484312,224.513387 C95.3132302,224.366467 95.5030532,224.158865 95.6179058,223.890576 L96.067743,224.130118 C95.6912817,224.851944 95.0340794,225.212852 94.0961164,225.212852 C93.3878587,225.212852 92.832746,224.992475 92.4307619,224.551714 C92.0287778,224.110953 91.8277887,223.500923 91.8277887,222.721607 C91.8277887,221.94229 92.0223972,221.33226 92.4116199,220.891499 C92.8008426,220.450738 93.3463843,220.230361 94.0482614,220.230361 C94.482149,220.230361 94.8570095,220.330968 95.1728542,220.532185 C95.4886989,220.733402 95.7295667,221.011269 95.8954649,221.365794 C96.0613631,221.720319 96.144311,222.124344 96.144311,222.577881 C96.144311,222.692862 96.1379304,222.814229 96.125169,222.941986 L96.125169,222.941986 Z M92.8662425,221.164578 C92.5759207,221.468001 92.4116201,221.897576 92.3733359,222.453319 L95.6274768,222.453319 C95.5891926,221.903964 95.4328678,221.475985 95.1584977,221.169369 C94.8841276,220.862753 94.5140525,220.709447 94.0482614,220.709447 C93.5505668,220.709447 93.1565644,220.861156 92.8662425,221.164578 L92.8662425,221.164578 Z M101.685922,218.122384 L101.685922,225.117035 L101.1978,225.117035 L101.169087,224.110955 C101.028712,224.44951 100.803796,224.717796 100.494332,224.915819 C100.184868,225.113842 99.8259588,225.212852 99.417594,225.212852 C98.7412397,225.212852 98.2084592,224.992475 97.8192365,224.551714 C97.4300138,224.110953 97.2354053,223.500923 97.2354053,222.721607 C97.2354053,221.94229 97.4300138,221.33226 97.8192365,220.891499 C98.2084592,220.450738 98.7412397,220.230361 99.417594,220.230361 C99.8195781,220.230361 100.170511,220.322983 100.470404,220.508231 C100.770297,220.693478 100.993618,220.948988 101.140374,221.274768 L101.140374,218.122384 L101.685922,218.122384 Z M100.657039,224.245099 C100.953741,223.919319 101.114852,223.472177 101.140374,222.903659 L101.140374,222.539554 C101.114852,221.971036 100.953741,221.523894 100.657039,221.198114 C100.360336,220.872334 99.9695242,220.709447 99.484591,220.709447 C98.9486121,220.709447 98.5306825,220.888304 98.2307896,221.246023 C97.9308967,221.603742 97.7809525,222.095598 97.7809525,222.721607 C97.7809525,223.347615 97.9308967,223.839471 98.2307896,224.19719 C98.5306825,224.554909 98.9486121,224.733766 99.484591,224.733766 C99.9695242,224.733766 100.360336,224.570879 100.657039,224.245099 L100.657039,224.245099 Z M110.893226,224.609204 L110.893226,225.117035 L106.605417,225.117035 L106.605417,218.793104 L107.150964,218.793104 L107.150964,224.609204 L110.893226,224.609204 Z M115.377241,220.891499 C115.782416,221.33226 115.985,221.94229 115.985,222.721607 C115.985,223.500923 115.782416,224.110953 115.377241,224.551714 C114.972067,224.992475 114.412169,225.212852 113.69753,225.212852 C112.982892,225.212852 112.422994,224.992475 112.017819,224.551714 C111.612645,224.110953 111.41006,223.500923 111.41006,222.721607 C111.41006,221.94229 111.612645,221.33226 112.017819,220.891499 C112.422994,220.450738 112.982892,220.230361 113.69753,220.230361 C114.412169,220.230361 114.972067,220.450738 115.377241,220.891499 L115.377241,220.891499 Z M112.419801,221.241232 C112.110337,221.602145 111.955608,222.095598 111.955608,222.721607 C111.955608,223.347615 112.110337,223.841068 112.419801,224.201981 C112.729265,224.562894 113.155171,224.743348 113.69753,224.743348 C114.23989,224.743348 114.665795,224.562894 114.975259,224.201981 C115.284723,223.841068 115.439453,223.347615 115.439453,222.721607 C115.439453,222.095598 115.284723,221.602145 114.975259,221.241232 C114.665795,220.880319 114.23989,220.699865 113.69753,220.699865 C113.155171,220.699865 112.729265,220.880319 112.419801,221.241232 L112.419801,221.241232 Z M121.000205,224.901446 C121.274575,225.102663 121.411758,225.369352 121.411758,225.701519 C121.411758,225.99536 121.312859,226.254064 121.115057,226.477638 C120.917256,226.701212 120.644485,226.873682 120.296737,226.995051 C119.948988,227.11642 119.551796,227.177103 119.105147,227.177103 C118.377747,227.177103 117.824229,227.060527 117.444578,226.827371 C117.064926,226.594214 116.875103,226.286006 116.875103,225.902735 C116.875103,225.659997 116.94848,225.450799 117.095236,225.275133 C117.241992,225.099467 117.446172,224.970116 117.70778,224.887074 C117.52274,224.797644 117.375986,224.681068 117.267514,224.537341 C117.159042,224.393615 117.104807,224.232324 117.104807,224.053465 C117.104807,223.823502 117.178184,223.627079 117.32494,223.464189 C117.471696,223.301299 117.669495,223.184723 117.918342,223.114457 C117.669495,222.980312 117.476482,222.801455 117.339297,222.577881 C117.202112,222.354306 117.13352,222.098797 117.13352,221.811344 C117.13352,221.332256 117.312177,220.948991 117.669496,220.661538 C118.026815,220.374085 118.49898,220.230361 119.086005,220.230361 C119.481608,220.230361 119.835732,220.300626 120.148386,220.441159 C120.193051,220.134542 120.328639,219.891808 120.555154,219.712949 C120.781668,219.534089 121.05763,219.444661 121.383045,219.444661 L121.507468,219.923746 C121.207575,219.923746 120.969898,219.986027 120.794429,220.11059 C120.618959,220.235153 120.518465,220.415606 120.492942,220.651956 C120.665221,220.792489 120.799214,220.961764 120.894924,221.159787 C120.990635,221.35781 121.038489,221.574994 121.038489,221.811344 C121.038489,222.284044 120.859832,222.664115 120.502513,222.951568 C120.145194,223.23902 119.673029,223.382745 119.086005,223.382745 C118.888203,223.382745 118.671262,223.360388 118.435176,223.315673 C118.173568,223.341224 117.972579,223.414683 117.832203,223.536052 C117.691828,223.657421 117.621641,223.804339 117.621641,223.976811 C117.621641,224.168446 117.706184,224.320155 117.875273,224.431942 C118.044361,224.54373 118.29799,224.599622 118.636168,224.599622 L119.870827,224.599622 C120.349379,224.599622 120.725835,224.700229 121.000205,224.901446 L121.000205,224.901446 Z M118.066693,220.992107 C117.814655,221.193324 117.688638,221.4664 117.688638,221.811344 C117.688638,222.156287 117.81306,222.427766 118.061907,222.625789 C118.310755,222.823812 118.652117,222.922822 119.086005,222.922822 C119.519892,222.922822 119.861255,222.823812 120.110102,222.625789 C120.358949,222.427766 120.483371,222.156287 120.483371,221.811344 C120.483371,221.4664 120.358949,221.193324 120.110102,220.992107 C119.861255,220.79089 119.519892,220.690283 119.086005,220.690283 C118.658498,220.690283 118.318731,220.79089 118.066693,220.992107 L118.066693,220.992107 Z M120.440302,226.448893 C120.756146,226.270033 120.914066,226.043268 120.914066,225.768591 C120.914066,225.551405 120.818357,225.380533 120.626936,225.25597 C120.435515,225.131407 120.145198,225.069126 119.755975,225.069126 L118.521316,225.069126 C118.170377,225.069126 117.891226,225.137794 117.683853,225.275133 C117.47648,225.412472 117.372795,225.592925 117.372795,225.8165 C117.372795,226.097565 117.527525,226.317942 117.836989,226.477638 C118.146453,226.637334 118.5915,226.717181 119.172144,226.717181 C119.701742,226.717181 120.124457,226.627752 120.440302,226.448893 L120.440302,226.448893 Z M126.029767,220.891499 C126.434942,221.33226 126.637526,221.94229 126.637526,222.721607 C126.637526,223.500923 126.434942,224.110953 126.029767,224.551714 C125.624593,224.992475 125.064695,225.212852 124.350056,225.212852 C123.635418,225.212852 123.07552,224.992475 122.670345,224.551714 C122.265171,224.110953 122.062587,223.500923 122.062587,222.721607 C122.062587,221.94229 122.265171,221.33226 122.670345,220.891499 C123.07552,220.450738 123.635418,220.230361 124.350056,220.230361 C125.064695,220.230361 125.624593,220.450738 126.029767,220.891499 L126.029767,220.891499 Z M123.072327,221.241232 C122.762863,221.602145 122.608134,222.095598 122.608134,222.721607 C122.608134,223.347615 122.762863,223.841068 123.072327,224.201981 C123.381791,224.562894 123.807697,224.743348 124.350056,224.743348 C124.892416,224.743348 125.318321,224.562894 125.627785,224.201981 C125.937249,223.841068 126.091979,223.347615 126.091979,222.721607 C126.091979,222.095598 125.937249,221.602145 125.627785,221.241232 C125.318321,220.880319 124.892416,220.699865 124.350056,220.699865 C123.807697,220.699865 123.381791,220.880319 123.072327,221.241232 L123.072327,221.241232 Z M130.666918,224.81042 C130.379787,225.078709 130.006521,225.212852 129.547111,225.212852 C129.157888,225.212852 128.850024,225.105857 128.623509,224.891865 C128.396994,224.677872 128.283738,224.353694 128.283738,223.919321 L128.283738,220.795682 L127.326638,220.795682 L127.326638,220.326178 L128.283738,220.326178 L128.283738,219.138046 L128.829286,218.99432 L128.829286,220.326178 L130.628634,220.326178 L130.628634,220.795682 L128.829286,220.795682 L128.829286,223.833085 C128.829286,224.120538 128.899472,224.337721 129.039848,224.484642 C129.180223,224.631562 129.381212,224.705021 129.642821,224.705021 C129.968236,224.705021 130.242602,224.586848 130.465927,224.350498 L130.666918,224.81042 Z M133.26066,225.979389 C133.082,226.42015 132.882606,226.729956 132.662472,226.908815 C132.442338,227.087675 132.163187,227.177103 131.825009,227.177103 C131.410264,227.177103 131.094424,227.055736 130.87748,226.812998 L131.078471,226.343494 C131.244369,226.579844 131.490023,226.698017 131.815438,226.698017 C132.032382,226.698017 132.21742,226.635737 132.370557,226.511174 C132.523693,226.386611 132.664067,226.164637 132.791681,225.845245 L133.088382,225.117035 L131.0689,220.326178 L131.691015,220.326178 L133.097953,223.842667 L133.346799,224.53255 L133.624358,223.775595 L134.964298,220.326178 L135.5577,220.326178 L133.26066,225.979389 Z M140.467625,220.891499 C140.856848,221.33226 141.051456,221.94229 141.051456,222.721607 C141.051456,223.500923 140.856848,224.110953 140.467625,224.551714 C140.078402,224.992475 139.545622,225.212852 138.869267,225.212852 C138.467283,225.212852 138.11635,225.12023 137.816457,224.934982 C137.516564,224.749735 137.293243,224.494225 137.146487,224.168445 L137.146487,227.129195 L136.60094,227.129195 L136.60094,220.326178 L137.089061,220.326178 L137.117774,221.34184 C137.258149,220.996896 137.481471,220.725417 137.787744,220.527394 C138.094018,220.329371 138.454522,220.230361 138.869267,220.230361 C139.545622,220.230361 140.078402,220.450738 140.467625,220.891499 L140.467625,220.891499 Z M140.056072,224.19719 C140.355965,223.839471 140.505909,223.347615 140.505909,222.721607 C140.505909,222.095598 140.355965,221.603742 140.056072,221.246023 C139.756179,220.888304 139.338249,220.709447 138.80227,220.709447 C138.317337,220.709447 137.923335,220.877125 137.620252,221.212487 C137.317168,221.547848 137.159248,222.006169 137.146487,222.587463 L137.146487,222.85575 C137.159248,223.437044 137.315573,223.895365 137.615466,224.230726 C137.915359,224.566088 138.310956,224.733766 138.80227,224.733766 C139.338249,224.733766 139.756179,224.554909 140.056072,224.19719 L140.056072,224.19719 Z M146.468644,222.941986 L142.716811,222.941986 C142.748714,223.504116 142.916205,223.943273 143.219288,224.259471 C143.522371,224.57567 143.929135,224.733766 144.439591,224.733766 C144.809672,224.733766 145.127107,224.660307 145.391906,224.513387 C145.656705,224.366467 145.846528,224.158865 145.961381,223.890576 L146.411218,224.130118 C146.034756,224.851944 145.377554,225.212852 144.439591,225.212852 C143.731333,225.212852 143.176221,224.992475 142.774237,224.551714 C142.372252,224.110953 142.171263,223.500923 142.171263,222.721607 C142.171263,221.94229 142.365872,221.33226 142.755095,220.891499 C143.144317,220.450738 143.689859,220.230361 144.391736,220.230361 C144.825624,220.230361 145.200484,220.330968 145.516329,220.532185 C145.832174,220.733402 146.073041,221.011269 146.23894,221.365794 C146.404838,221.720319 146.487786,222.124344 146.487786,222.577881 C146.487786,222.692862 146.481405,222.814229 146.468644,222.941986 L146.468644,222.941986 Z M143.209717,221.164578 C142.919395,221.468001 142.755095,221.897576 142.716811,222.453319 L145.970952,222.453319 C145.932667,221.903964 145.776342,221.475985 145.501972,221.169369 C145.227602,220.862753 144.857527,220.709447 144.391736,220.709447 C143.894041,220.709447 143.500039,220.861156 143.209717,221.164578 L143.209717,221.164578 Z" id="Colored-Logotype" fill="#757575" sketch:type="MSShapeGroup"></path>
                            <path d="M161.347248,167.284552 L174.354444,167.284552" id="Line" stroke="#333333" stroke-width="0.762129" stroke-linecap="square" sketch:type="MSShapeGroup"></path>
                            <path d="M175.038087,178.919489 L186.660019,178.919489" id="Line-Copy" stroke="#333333" stroke-width="0.762129" stroke-linecap="square" sketch:type="MSShapeGroup"></path>
                            <path d="M174.354444,154.965206 L186.660019,154.965206" id="Line-Copy-2" stroke="#333333" stroke-width="0.762129" stroke-linecap="square" sketch:type="MSShapeGroup"></path>
                            <path d="M174.354444,154.965206 L174.354444,178.919489" id="Line" stroke="#333333" stroke-width="0.762129" stroke-linecap="square" sketch:type="MSShapeGroup"></path>
                            <path d="M110.257438,169.172149 L110.257438,169.67998 L105.969629,169.67998 L105.969629,163.356049 L106.515176,163.356049 L106.515176,169.172149 L110.257438,169.172149 Z M114.741453,165.454445 C115.146628,165.895206 115.349212,166.505235 115.349212,167.284552 C115.349212,168.063868 115.146628,168.673898 114.741453,169.114659 C114.336279,169.55542 113.776381,169.775797 113.061742,169.775797 C112.347104,169.775797 111.787206,169.55542 111.382031,169.114659 C110.976857,168.673898 110.774272,168.063868 110.774272,167.284552 C110.774272,166.505235 110.976857,165.895206 111.382031,165.454445 C111.787206,165.013684 112.347104,164.793306 113.061742,164.793306 C113.776381,164.793306 114.336279,165.013684 114.741453,165.454445 L114.741453,165.454445 Z M111.784013,165.804177 C111.474549,166.16509 111.31982,166.658543 111.31982,167.284552 C111.31982,167.91056 111.474549,168.404014 111.784013,168.764927 C112.093477,169.12584 112.519383,169.306293 113.061742,169.306293 C113.604102,169.306293 114.030007,169.12584 114.339471,168.764927 C114.648935,168.404014 114.803665,167.91056 114.803665,167.284552 C114.803665,166.658543 114.648935,166.16509 114.339471,165.804177 C114.030007,165.443264 113.604102,165.26281 113.061742,165.26281 C112.519383,165.26281 112.093477,165.443264 111.784013,165.804177 L111.784013,165.804177 Z M120.364417,169.464392 C120.638787,169.665609 120.77597,169.932297 120.77597,170.264465 C120.77597,170.558305 120.677071,170.817009 120.479269,171.040583 C120.281468,171.264158 120.008697,171.436627 119.660948,171.557996 C119.3132,171.679365 118.916008,171.740048 118.469359,171.740048 C117.741959,171.740048 117.188441,171.623472 116.80879,171.390316 C116.429138,171.15716 116.239315,170.848951 116.239315,170.465681 C116.239315,170.222943 116.312692,170.013744 116.459448,169.838078 C116.606204,169.662413 116.810384,169.533061 117.071992,169.450019 C116.886952,169.360589 116.740198,169.244013 116.631726,169.100286 C116.523254,168.95656 116.469019,168.79527 116.469019,168.61641 C116.469019,168.386448 116.542396,168.190025 116.689152,168.027135 C116.835908,167.864245 117.033707,167.747668 117.282554,167.677402 C117.033707,167.543257 116.840694,167.364401 116.703509,167.140826 C116.566324,166.917252 116.497732,166.661742 116.497732,166.374289 C116.497732,165.895201 116.676389,165.511936 117.033708,165.224484 C117.391027,164.937031 117.863192,164.793306 118.450217,164.793306 C118.84582,164.793306 119.199944,164.863572 119.512598,165.004104 C119.557263,164.697488 119.692851,164.454753 119.919366,164.275894 C120.14588,164.097034 120.421842,164.007606 120.747257,164.007606 L120.87168,164.486692 C120.571787,164.486692 120.33411,164.548972 120.158641,164.673535 C119.983171,164.798098 119.882677,164.978552 119.857154,165.214902 C120.029433,165.355434 120.163426,165.52471 120.259136,165.722733 C120.354847,165.920756 120.402701,166.137939 120.402701,166.374289 C120.402701,166.846989 120.224044,167.22706 119.866725,167.514513 C119.509406,167.801966 119.037241,167.94569 118.450217,167.94569 C118.252415,167.94569 118.035474,167.923333 117.799388,167.878618 C117.53778,167.904169 117.336791,167.977628 117.196415,168.098997 C117.05604,168.220366 116.985853,168.367285 116.985853,168.539756 C116.985853,168.731391 117.070396,168.8831 117.239485,168.994888 C117.408573,169.106675 117.662202,169.162568 118.00038,169.162568 L119.235039,169.162568 C119.713591,169.162568 120.090047,169.263175 120.364417,169.464392 L120.364417,169.464392 Z M117.430905,165.555053 C117.178867,165.75627 117.05285,166.029346 117.05285,166.374289 C117.05285,166.719232 117.177272,166.990712 117.426119,167.188735 C117.674967,167.386758 118.016329,167.485768 118.450217,167.485768 C118.884104,167.485768 119.225467,167.386758 119.474314,167.188735 C119.723161,166.990712 119.847583,166.719232 119.847583,166.374289 C119.847583,166.029346 119.723161,165.75627 119.474314,165.555053 C119.225467,165.353836 118.884104,165.253229 118.450217,165.253229 C118.02271,165.253229 117.682943,165.353836 117.430905,165.555053 L117.430905,165.555053 Z M119.804514,171.011838 C120.120358,170.832979 120.278278,170.606214 120.278278,170.331537 C120.278278,170.11435 120.182569,169.943478 119.991148,169.818915 C119.799727,169.694352 119.50941,169.632072 119.120187,169.632072 L117.885527,169.632072 C117.534589,169.632072 117.255437,169.70074 117.048065,169.838078 C116.840692,169.975417 116.737007,170.155871 116.737007,170.379445 C116.737007,170.66051 116.891737,170.880887 117.201201,171.040583 C117.510665,171.200279 117.955712,171.280126 118.536356,171.280126 C119.065954,171.280126 119.488669,171.190698 119.804514,171.011838 L119.804514,171.011838 Z M125.393979,165.454445 C125.799154,165.895206 126.001738,166.505235 126.001738,167.284552 C126.001738,168.063868 125.799154,168.673898 125.393979,169.114659 C124.988805,169.55542 124.428907,169.775797 123.714268,169.775797 C122.99963,169.775797 122.439732,169.55542 122.034557,169.114659 C121.629383,168.673898 121.426799,168.063868 121.426799,167.284552 C121.426799,166.505235 121.629383,165.895206 122.034557,165.454445 C122.439732,165.013684 122.99963,164.793306 123.714268,164.793306 C124.428907,164.793306 124.988805,165.013684 125.393979,165.454445 L125.393979,165.454445 Z M122.436539,165.804177 C122.127075,166.16509 121.972346,166.658543 121.972346,167.284552 C121.972346,167.91056 122.127075,168.404014 122.436539,168.764927 C122.746003,169.12584 123.171909,169.306293 123.714268,169.306293 C124.256628,169.306293 124.682533,169.12584 124.991997,168.764927 C125.301461,168.404014 125.456191,167.91056 125.456191,167.284552 C125.456191,166.658543 125.301461,166.16509 124.991997,165.804177 C124.682533,165.443264 124.256628,165.26281 123.714268,165.26281 C123.171909,165.26281 122.746003,165.443264 122.436539,165.804177 L122.436539,165.804177 Z M130.03113,169.373365 C129.743998,169.641655 129.370733,169.775797 128.911323,169.775797 C128.5221,169.775797 128.214236,169.668803 127.987721,169.45481 C127.761206,169.240817 127.64795,168.916639 127.64795,168.482266 L127.64795,165.358628 L126.69085,165.358628 L126.69085,164.889124 L127.64795,164.889124 L127.64795,163.700991 L128.193497,163.557265 L128.193497,164.889124 L129.992846,164.889124 L129.992846,165.358628 L128.193497,165.358628 L128.193497,168.396031 C128.193497,168.683483 128.263684,168.900667 128.40406,169.047587 C128.544435,169.194507 128.745424,169.267966 129.007033,169.267966 C129.332448,169.267966 129.606814,169.149793 129.830139,168.913443 L130.03113,169.373365 Z M132.624872,170.542334 C132.446212,170.983095 132.246818,171.292901 132.026684,171.47176 C131.80655,171.65062 131.527398,171.740048 131.189221,171.740048 C130.774476,171.740048 130.458636,171.618681 130.241692,171.375943 L130.442683,170.906439 C130.608581,171.14279 130.854235,171.260963 131.17965,171.260963 C131.396594,171.260963 131.581632,171.198682 131.734769,171.074119 C131.887905,170.949557 132.028279,170.727582 132.155893,170.40819 L132.452594,169.67998 L130.433112,164.889124 L131.055227,164.889124 L132.462165,168.405612 L132.711011,169.095496 L132.98857,168.33854 L134.32851,164.889124 L134.921912,164.889124 L132.624872,170.542334 Z M139.831837,165.454445 C140.22106,165.895206 140.415668,166.505235 140.415668,167.284552 C140.415668,168.063868 140.22106,168.673898 139.831837,169.114659 C139.442614,169.55542 138.909834,169.775797 138.233479,169.775797 C137.831495,169.775797 137.480562,169.683175 137.180669,169.497928 C136.880776,169.31268 136.657455,169.05717 136.510699,168.731391 L136.510699,171.69214 L135.965152,171.69214 L135.965152,164.889124 L136.453273,164.889124 L136.481986,165.904785 C136.622361,165.559842 136.845682,165.288363 137.151956,165.09034 C137.45823,164.892316 137.818734,164.793306 138.233479,164.793306 C138.909834,164.793306 139.442614,165.013684 139.831837,165.454445 L139.831837,165.454445 Z M139.420284,168.760136 C139.720177,168.402417 139.870121,167.91056 139.870121,167.284552 C139.870121,166.658543 139.720177,166.166687 139.420284,165.808968 C139.120391,165.451249 138.702461,165.272392 138.166482,165.272392 C137.681549,165.272392 137.287547,165.44007 136.984464,165.775432 C136.68138,166.110794 136.52346,166.569114 136.510699,167.150408 L136.510699,167.418696 C136.52346,167.999989 136.679785,168.45831 136.979678,168.793672 C137.279571,169.129033 137.675168,169.296712 138.166482,169.296712 C138.702461,169.296712 139.120391,169.117855 139.420284,168.760136 L139.420284,168.760136 Z M145.832856,167.504931 L142.081023,167.504931 C142.112926,168.067061 142.280417,168.506219 142.5835,168.822417 C142.886583,169.138615 143.293347,169.296712 143.803803,169.296712 C144.173884,169.296712 144.491319,169.223253 144.756118,169.076332 C145.020917,168.929412 145.21074,168.72181 145.325592,168.453521 L145.77543,168.693064 C145.398968,169.41489 144.741766,169.775797 143.803803,169.775797 C143.095545,169.775797 142.540433,169.55542 142.138449,169.114659 C141.736464,168.673898 141.535475,168.063868 141.535475,167.284552 C141.535475,166.505235 141.730084,165.895206 142.119307,165.454445 C142.508529,165.013684 143.054071,164.793306 143.755948,164.793306 C144.189836,164.793306 144.564696,164.893913 144.880541,165.09513 C145.196386,165.296347 145.437253,165.574214 145.603152,165.928739 C145.76905,166.283265 145.851998,166.687289 145.851998,167.140826 C145.851998,167.255807 145.845617,167.377174 145.832856,167.504931 L145.832856,167.504931 Z M142.573929,165.727523 C142.283607,166.030946 142.119307,166.460522 142.081023,167.016264 L145.335163,167.016264 C145.296879,166.46691 145.140554,166.038931 144.866184,165.732314 C144.591814,165.425698 144.221739,165.272392 143.755948,165.272392 C143.258253,165.272392 142.864251,165.424101 142.573929,165.727523 L142.573929,165.727523 Z" id="Logotype" fill="#757575" sketch:type="MSShapeGroup"></path>
                            <g id="Logotype-Copy-2" transform="translate(201.031206, 159.413859)">
                                <path d="M43.457674,5.42324964 C43.457674,7.56956412 42.6090536,8.95570476 40.9117872,9.58171315 L44.2999222,14.3725697 L40.6246572,14.3725697 L37.6576463,10.0991257 L35.5903097,10.0991257 L35.5903097,14.3725697 L32.6041568,14.3725697 L32.6041568,0.977334741 L37.6767883,0.977334741 C39.7568966,0.977334741 41.2403872,1.32866071 42.1273046,2.03132319 C43.014222,2.73398567 43.457674,3.86461651 43.457674,5.42324964 L43.457674,5.42324964 Z M39.8589769,7.01381403 C40.2290576,6.68164631 40.4140951,6.15465736 40.4140951,5.43283136 C40.4140951,4.71100536 40.222677,4.21595513 39.8398349,3.94766582 C39.4569929,3.67937651 38.7870294,3.54523387 37.8299243,3.54523387 L35.5903097,3.54523387 L35.5903097,7.51206311 L37.7724983,7.51206311 C38.7934104,7.51206311 39.4888963,7.34598174 39.8589769,7.01381403 L39.8589769,7.01381403 Z M51.4599023,3.65063271 C51.1727708,3.88698282 51.0292072,4.19998232 51.0292072,4.5896406 C51.0292072,4.97929888 51.2046738,5.28910451 51.5556123,5.51906677 C51.9065509,5.74902904 52.7168877,6.0205082 53.986647,6.33351239 C55.2564064,6.64651659 56.2422099,7.11601584 56.9440869,7.74202423 C57.645964,8.36803261 57.9968972,9.28148013 57.9968972,10.4823942 C57.9968972,11.6833082 57.5470646,12.6574393 56.6473858,13.4048167 C55.7477071,14.1521941 54.5641049,14.5258771 53.0965438,14.5258771 C50.9781512,14.5258771 49.0703504,13.7401845 47.3730841,12.1687757 L49.1532906,9.9841451 C50.5953289,11.2489376 51.9288753,11.8813243 53.1539698,11.8813243 C53.70271,11.8813243 54.1334009,11.763151 54.4460552,11.5268009 C54.7587095,11.2904508 54.9150343,10.9710636 54.9150343,10.5686296 C54.9150343,10.1661956 54.7491386,9.8468084 54.4173422,9.61045829 C54.0855457,9.37410818 53.4283435,9.13456775 52.4457156,8.8918298 C50.8888247,8.52133504 49.7498867,8.0390603 49.0288676,7.44499112 C48.3078485,6.85092193 47.9473443,5.91831118 47.9473443,4.64713088 C47.9473443,3.37595058 48.4035575,2.39543174 49.3159977,1.70554494 C50.2284378,1.01565814 51.3673758,0.670719921 52.7328457,0.670719921 C53.6261437,0.670719921 54.5194284,0.824025798 55.4127265,1.13064215 C56.3060245,1.43725851 57.0844583,1.87162516 57.7480511,2.43375514 L56.2358327,4.61838574 C55.0745452,3.73686372 53.8749915,3.29610932 52.6371356,3.29610932 C52.139441,3.29610932 51.7470338,3.4142826 51.4599023,3.65063271 L51.4599023,3.65063271 Z M71.5694492,2.17504889 C72.5074121,2.97352897 72.9763866,4.19997599 72.9763866,5.85442674 C72.9763866,7.50887748 72.4946509,8.71935513 71.5311651,9.48589602 C70.5676794,10.2524369 69.09695,10.6357016 67.1189329,10.6357016 L65.3387263,10.6357016 L65.3387263,14.3725697 L62.3525735,14.3725697 L62.3525735,0.977334741 L67.0806488,0.977334741 C69.1352344,0.977334741 70.6314862,1.3765688 71.5694492,2.17504889 L71.5694492,2.17504889 Z M69.3776895,7.44499112 C69.7350087,7.04255715 69.9136657,6.45488462 69.9136657,5.6819559 C69.9136657,4.90902717 69.6807736,4.35968111 69.2149825,4.03390124 C68.7491913,3.70812136 68.0249927,3.54523387 67.0423648,3.54523387 L65.3387263,3.54523387 L65.3387263,8.04863905 L67.3486369,8.04863905 C68.3440262,8.04863905 69.0203703,7.84742508 69.3776895,7.44499112 L69.3776895,7.44499112 Z M86.7690716,0.977334741 L86.7690716,3.641051 L80.1076536,3.641051 L80.1076536,6.40058438 L86.0991014,6.40058438 L86.0991014,8.94932008 L80.1076536,8.94932008 L80.1076536,11.7280169 L86.9796336,11.7280169 L86.9796336,14.3725697 L77.1215008,14.3725697 L77.1215008,0.977334741 L86.7690716,0.977334741 Z M91.4501619,0.977334741 L94.4363148,0.977334741 L94.4363148,6.47723809 L99.4898043,0.977334741 L103.184211,0.977334741 L97.8627338,6.89883347 C98.3221442,7.53761754 99.1707647,8.72893196 100.408621,10.4728125 C101.646476,12.216693 102.571664,13.5165991 103.184211,14.3725697 L99.7003663,14.3725697 L95.7762552,9.08346407 L94.4363148,10.5782113 L94.4363148,14.3725697 L91.4501619,14.3725697 L91.4501619,0.977334741 Z M112.516809,3.56439729 L112.516809,14.3725697 L109.530656,14.3725697 L109.530656,3.56439729 L105.740539,3.56439729 L105.740539,0.977334741 L116.306926,0.977334741 L116.306926,3.56439729 L112.516809,3.56439729 Z M120.298904,0.977334741 L123.285057,0.977334741 L123.285057,14.3725697 L120.298904,14.3725697 L120.298904,0.977334741 Z M133.325909,9.50505945 L136.733186,0.977334741 L139.968185,0.977334741 L134.589281,14.3725697 L132.062537,14.3725697 L126.683633,0.977334741 L129.918632,0.977334741 L133.325909,9.50505945 Z" id="RSPEKTIV" fill="#333333" sketch:type="MSShapeGroup"></path>
                                <path d="M9.49580205,2.17504889 C10.433765,2.97352897 10.9027395,4.19997599 10.9027395,5.85442674 C10.9027395,7.50887748 10.4210038,8.71935513 9.45751804,9.48589602 C8.49403227,10.2524369 7.02330289,10.6357016 5.04528575,10.6357016 L3.26507924,10.6357016 L3.26507924,14.3725697 L0.278926367,14.3725697 L0.278926367,0.977334741 L5.00700174,0.977334741 C7.06158728,0.977334741 8.55783909,1.3765688 9.49580205,2.17504889 L9.49580205,2.17504889 Z M7.30404241,7.44499112 C7.66136164,7.04255715 7.84001857,6.45488462 7.84001857,5.6819559 C7.84001857,4.90902717 7.6071265,4.35968111 7.14133537,4.03390124 C6.67554423,3.70812136 5.9513456,3.54523387 4.96871773,3.54523387 L3.26507924,3.54523387 L3.26507924,8.04863905 L5.27498982,8.04863905 C6.27037909,8.04863905 6.94672319,7.84742508 7.30404241,7.44499112 L7.30404241,7.44499112 Z" id="P" fill="#333333" sketch:type="MSShapeGroup"></path>
                                <g id="Line-Copy-16">
                                    <use stroke="#333333" stroke-width="2.5150257" stroke-linecap="square" sketch:type="MSShapeGroup" xlink:href="#path-4"></use>
                                    <use stroke="none" xlink:href="#path-4"></use>
                                </g>
                                <g id="Line-Copy-18">
                                    <use stroke="#333333" stroke-width="2.5150257" stroke-linecap="square" sketch:type="MSShapeGroup" xlink:href="#path-5"></use>
                                    <use stroke="none" xlink:href="#path-5"></use>
                                </g>
                                <g id="Line-Copy-17">
                                    <use stroke="#333333" stroke-width="2.5150257" stroke-linecap="square" sketch:type="MSShapeGroup" xlink:href="#path-6"></use>
                                    <use stroke="none" xlink:href="#path-6"></use>
                                </g>
                            </g>
                            <g id="Colored-Mark-+-Colored-Mark-+-label-prong-copy" transform="translate(150.221844, 110.478681) scale(-1, 1) translate(-150.221844, -110.478681) translate(80.148431, 97.817132)" sketch:type="MSShapeGroup">
                                <g id="Colored-Mark" transform="translate(0.205093, 4.106448)" stroke="#263B64" stroke-width="3.1755375" stroke-linecap="square">
                                    <path d="M16.8420597,1.81839948 C16.8420597,1.81839948 12.7734892,-1.01552675 8.70491878,1.8183995 C4.63634833,4.65232574 0.567777876,1.81839949 0.567777876,1.81839949" id="Line-Copy-11"></path>
                                    <path d="M16.8420597,8.59839322 C16.8420597,8.59839322 12.7734892,5.764467 8.70491878,8.59839324 C4.63634833,11.4323195 0.567777876,8.59839324 0.567777876,8.59839324" id="Line-Copy-12"></path>
                                    <path d="M16.8420597,15.378387 C16.8420597,15.378387 12.7734892,12.5444607 8.70491878,15.378387 C4.63634833,18.2123132 0.567777876,15.378387 0.567777876,15.378387" id="Line-Copy-13"></path>
                                </g>
                                <path d="M84.5851044,14.750363 C84.1416457,15.0505915 83.6136507,15.2007035 83.0011035,15.2007035 C82.4204597,15.2007035 81.9132016,15.0681578 81.479314,14.8030624 C81.0454264,14.537967 80.7104446,14.1594931 80.4743587,13.6676294 C80.2382728,13.1757657 80.1202316,12.6008686 80.1202316,11.942921 C80.1202316,11.2849734 80.2382728,10.7100764 80.4743587,10.2182127 C80.7104446,9.72634893 81.0454264,9.34787505 81.479314,9.08277966 C81.9132016,8.81768427 82.4172694,8.68513856 82.9915325,8.68513856 C84.2485304,8.68513856 85.0652478,9.19935203 85.4417092,10.2277944 L84.905733,10.4769189 C84.7589769,10.0489336 84.5308703,9.72794941 84.2214063,9.51395675 C83.9119423,9.29996409 83.5147497,9.19296936 83.0298165,9.19296936 C82.5640253,9.19296936 82.1540715,9.30315796 81.7999426,9.52353846 C81.4458137,9.74391897 81.1714477,10.0617093 80.9768364,10.4769189 C80.782225,10.8921286 80.6849208,11.3807911 80.6849208,11.942921 C80.6849208,12.505051 80.7806298,12.9937135 80.9720509,13.4089231 C81.1634719,13.8241328 81.4330524,14.1419231 81.7808006,14.3623036 C82.1285488,14.5826841 82.5353123,14.6928727 83.0011035,14.6928727 C83.4924174,14.6928727 83.9119421,14.5731025 84.2596903,14.3335585 C84.6074385,14.0940144 84.8514966,13.7474793 84.991872,13.2939426 L85.5278482,13.4951586 C85.3428079,14.0317372 85.0285631,14.4501345 84.5851044,14.750363 L84.5851044,14.750363 Z M90.4329871,10.8793509 C90.8381616,11.3201119 91.0407458,11.9301415 91.0407458,12.7094581 C91.0407458,13.4887747 90.8381616,14.0988043 90.4329871,14.5395653 C90.0278126,14.9803263 89.4679146,15.2007035 88.7532761,15.2007035 C88.0386377,15.2007035 87.4787396,14.9803263 87.0735651,14.5395653 C86.6683907,14.0988043 86.4658065,13.4887747 86.4658065,12.7094581 C86.4658065,11.9301415 86.6683907,11.3201119 87.0735651,10.8793509 C87.4787396,10.4385899 88.0386377,10.2182127 88.7532761,10.2182127 C89.4679146,10.2182127 90.0278126,10.4385899 90.4329871,10.8793509 L90.4329871,10.8793509 Z M87.4755473,11.2290834 C87.1660833,11.5899964 87.0113536,12.0834497 87.0113536,12.7094581 C87.0113536,13.3354665 87.1660833,13.8289198 87.4755473,14.1898328 C87.7850112,14.5507458 88.2109166,14.7311996 88.7532761,14.7311996 C89.2956357,14.7311996 89.721541,14.5507458 90.031005,14.1898328 C90.340469,13.8289198 90.4951986,13.3354665 90.4951986,12.7094581 C90.4951986,12.0834497 90.340469,11.5899964 90.031005,11.2290834 C89.721541,10.8681704 89.2956357,10.6877166 88.7532761,10.6877166 C88.2109166,10.6877166 87.7850112,10.8681704 87.4755473,11.2290834 L87.4755473,11.2290834 Z M92.9645174,13.9167539 C92.9645174,14.1978189 93.0091816,14.395839 93.0985114,14.5108202 C93.1878412,14.6258013 93.3377854,14.683291 93.5483485,14.683291 C93.6759625,14.683291 93.7844328,14.6737094 93.8737626,14.6545459 C93.9630924,14.6353823 94.0715627,14.6002497 94.1991767,14.549147 L94.1130377,15.0761412 C93.9279974,15.1591832 93.7110568,15.2007035 93.4622095,15.2007035 C93.111271,15.2007035 92.8496662,15.1016935 92.6773873,14.9036704 C92.5051084,14.7056473 92.4189702,14.3958417 92.4189702,13.9742442 L92.4189702,8.11023577 L92.9645174,8.11023577 L92.9645174,13.9167539 Z M98.7789015,10.8793509 C99.184076,11.3201119 99.3866602,11.9301415 99.3866602,12.7094581 C99.3866602,13.4887747 99.184076,14.0988043 98.7789015,14.5395653 C98.3737271,14.9803263 97.813829,15.2007035 97.0991906,15.2007035 C96.3845521,15.2007035 95.824654,14.9803263 95.4194796,14.5395653 C95.0143051,14.0988043 94.8117209,13.4887747 94.8117209,12.7094581 C94.8117209,11.9301415 95.0143051,11.3201119 95.4194796,10.8793509 C95.824654,10.4385899 96.3845521,10.2182127 97.0991906,10.2182127 C97.813829,10.2182127 98.3737271,10.4385899 98.7789015,10.8793509 L98.7789015,10.8793509 Z M95.8214617,11.2290834 C95.5119977,11.5899964 95.3572681,12.0834497 95.3572681,12.7094581 C95.3572681,13.3354665 95.5119977,13.8289198 95.8214617,14.1898328 C96.1309257,14.5507458 96.556831,14.7311996 97.0991906,14.7311996 C97.6415501,14.7311996 98.0674555,14.5507458 98.3769194,14.1898328 C98.6863834,13.8289198 98.8411131,13.3354665 98.8411131,12.7094581 C98.8411131,12.0834497 98.6863834,11.5899964 98.3769194,11.2290834 C98.0674555,10.8681704 97.6415501,10.6877166 97.0991906,10.6877166 C96.556831,10.6877166 96.1309257,10.8681704 95.8214617,11.2290834 L95.8214617,11.2290834 Z M103.454336,10.3619384 L103.320342,10.8793509 C103.160825,10.7771454 102.959836,10.7260435 102.717369,10.7260435 C102.487664,10.7260435 102.267533,10.7979056 102.05697,10.941632 C101.846407,11.0853584 101.675726,11.2881693 101.544921,11.5500708 C101.414117,11.8119723 101.348716,12.1090024 101.348716,12.4411701 L101.348716,15.1048864 L100.803169,15.1048864 L100.803169,10.3140298 L101.262577,10.3140298 L101.329574,11.243456 C101.457188,10.9176761 101.651796,10.6653602 101.913405,10.4865006 C102.175014,10.3076411 102.494044,10.2182127 102.870505,10.2182127 C103.112972,10.2182127 103.30758,10.2661208 103.454336,10.3619384 L103.454336,10.3619384 Z M108.268551,12.9298375 L104.516718,12.9298375 C104.548621,13.4919675 104.716112,13.9311249 105.019195,14.247323 C105.322279,14.5635212 105.729042,14.7216178 106.239498,14.7216178 C106.609579,14.7216178 106.927014,14.6481588 107.191813,14.5012384 C107.456612,14.3543181 107.646435,14.1467164 107.761288,13.8784271 L108.211125,14.1179699 C107.834663,14.8397959 107.177461,15.2007035 106.239498,15.2007035 C105.53124,15.2007035 104.976128,14.9803263 104.574144,14.5395653 C104.17216,14.0988043 103.971171,13.4887747 103.971171,12.7094581 C103.971171,11.9301415 104.165779,11.3201119 104.555002,10.8793509 C104.944224,10.4385899 105.489766,10.2182127 106.191643,10.2182127 C106.625531,10.2182127 107.000391,10.3188196 107.316236,10.5200366 C107.632081,10.7212536 107.872949,10.9991205 108.038847,11.3536457 C108.204745,11.7081708 108.287693,12.1121957 108.287693,12.5657324 C108.287693,12.6807135 108.281312,12.8020807 108.268551,12.9298375 L108.268551,12.9298375 Z M105.009624,11.1524297 C104.719302,11.4558521 104.555002,11.885428 104.516718,12.4411701 L107.770859,12.4411701 C107.732574,11.8918158 107.57625,11.4638369 107.30188,11.1572206 C107.027509,10.8506042 106.657434,10.6972983 106.191643,10.6972983 C105.693949,10.6972983 105.299946,10.8490073 105.009624,11.1524297 L105.009624,11.1524297 Z M113.829303,8.11023577 L113.829303,15.1048864 L113.341182,15.1048864 L113.312469,14.0988065 C113.172094,14.4373621 112.947178,14.7056473 112.637714,14.9036704 C112.32825,15.1016935 111.969341,15.2007035 111.560976,15.2007035 C110.884622,15.2007035 110.351841,14.9803263 109.962618,14.5395653 C109.573396,14.0988043 109.378787,13.4887747 109.378787,12.7094581 C109.378787,11.9301415 109.573396,11.3201119 109.962618,10.8793509 C110.351841,10.4385899 110.884622,10.2182127 111.560976,10.2182127 C111.96296,10.2182127 112.313893,10.310835 112.613786,10.4960823 C112.913679,10.6813297 113.137,10.9368395 113.283756,11.2626194 L113.283756,8.11023577 L113.829303,8.11023577 Z M112.800421,14.2329505 C113.097123,13.9071706 113.258233,13.4600285 113.283756,12.8915106 L113.283756,12.5274055 C113.258233,11.9588877 113.097123,11.5117456 112.800421,11.1859657 C112.503718,10.8601858 112.112906,10.6972983 111.627973,10.6972983 C111.091994,10.6972983 110.674064,10.8761552 110.374171,11.2338743 C110.074279,11.5915933 109.924334,12.0834497 109.924334,12.7094581 C109.924334,13.3354665 110.074279,13.8273228 110.374171,14.1850419 C110.674064,14.542761 111.091994,14.7216178 111.627973,14.7216178 C112.112906,14.7216178 112.503718,14.5587304 112.800421,14.2329505 L112.800421,14.2329505 Z M124.682821,15.1048864 L124.156415,15.1048864 L124.156415,10.5631543 L124.213841,9.2983682 L121.955085,15.1048864 L121.466964,15.1048864 L119.217778,9.2983682 L119.208207,9.2983682 L119.265633,10.5631543 L119.265633,15.1048864 L118.748799,15.1048864 L118.748799,8.78095569 L119.571905,8.78095569 L121.361683,13.3514329 L121.706239,14.4629116 L121.71581,14.4629116 L122.069937,13.3610146 L123.850143,8.78095569 L124.682821,8.78095569 L124.682821,15.1048864 Z M130.731694,14.6737093 L130.702981,15.1048864 C130.575367,15.1687648 130.409472,15.2007035 130.205289,15.2007035 C129.975584,15.2007035 129.790546,15.1416169 129.650171,15.0234418 C129.509796,14.9052668 129.426848,14.7024559 129.401325,14.415003 C129.254569,14.657741 129.024867,14.8493733 128.712213,14.9899058 C128.399558,15.1304383 128.067767,15.2007035 127.716828,15.2007035 C127.244657,15.2007035 126.863416,15.0937088 126.573094,14.8797161 C126.282772,14.6657235 126.137613,14.3639025 126.137613,13.9742442 C126.137613,13.6037495 126.289152,13.2939438 126.592236,13.044818 C126.895319,12.7956923 127.353127,12.6200293 127.965675,12.5178238 L129.391754,12.2686993 L129.391754,11.8854308 C129.391754,11.514936 129.281689,11.2242936 129.061554,11.0134949 C128.84142,10.8026961 128.530366,10.6972983 128.128382,10.6972983 C127.394601,10.6972983 126.896914,11.0262672 126.635305,11.6842148 L126.223752,11.3871817 C126.357747,11.0166869 126.592234,10.7292384 126.927221,10.5248275 C127.262208,10.3204166 127.66259,10.2182127 128.128382,10.2182127 C128.683503,10.2182127 129.123764,10.3539522 129.44918,10.6254355 C129.774596,10.8969187 129.937301,11.2945558 129.937301,11.8183588 L129.937301,14.2616956 C129.937301,14.5746998 130.077674,14.7311996 130.358425,14.7311996 C130.505181,14.7311996 130.629603,14.7120363 130.731694,14.6737093 L130.731694,14.6737093 Z M128.535149,14.582683 C128.787187,14.4900593 128.992961,14.3559167 129.152479,14.1802511 C129.311996,14.0045854 129.391754,13.7953868 129.391754,13.5526488 L129.391754,12.7190398 L128.137953,12.9490009 C127.640258,13.0384307 127.276563,13.1661856 127.046858,13.3322694 C126.817153,13.4983533 126.702302,13.7123428 126.702302,13.9742442 C126.702302,14.2105943 126.794821,14.394242 126.979861,14.5251927 C127.164902,14.6561435 127.423316,14.7216178 127.755112,14.7216178 C128.023102,14.7216178 128.283112,14.6753067 128.535149,14.582683 L128.535149,14.582683 Z M134.387817,10.3619384 L134.253823,10.8793509 C134.094306,10.7771454 133.893317,10.7260435 133.65085,10.7260435 C133.421145,10.7260435 133.201014,10.7979056 132.990451,10.941632 C132.779888,11.0853584 132.609207,11.2881693 132.478402,11.5500708 C132.347598,11.8119723 132.282197,12.1090024 132.282197,12.4411701 L132.282197,15.1048864 L131.73665,15.1048864 L131.73665,10.3140298 L132.196058,10.3140298 L132.263055,11.243456 C132.390669,10.9176761 132.585277,10.6653602 132.846886,10.4865006 C133.108495,10.3076411 133.427525,10.2182127 133.803986,10.2182127 C134.046453,10.2182127 134.241061,10.2661208 134.387817,10.3619384 L134.387817,10.3619384 Z M137.067698,12.6040592 L135.967033,13.6867928 L135.967033,15.1048864 L135.421486,15.1048864 L135.421486,8.11023577 L135.967033,8.11023577 L135.967033,12.9969095 L138.723482,10.3140298 L139.422165,10.3140298 L137.46968,12.2207907 L139.508304,15.1048864 L138.847905,15.1048864 L137.067698,12.6040592 Z" id="Colored-Mark" fill="#757575" transform="translate(109.905192, 11.655470) scale(-1, 1) translate(-109.905192, -11.655470) "></path>
                                <g id="label-prong-copy" transform="translate(51.478322, 12.661550) scale(-1, 1) translate(-51.478322, -12.661550) translate(38.489104, 0.000000)" stroke="#333333" stroke-width="0.762129" stroke-linecap="square">
                                    <path d="M0.323843377,13.3459576 L13.3310396,13.3459576" id="Line"></path>
                                    <path d="M14.0146827,24.980895 L25.6366146,24.980895" id="Line-Copy"></path>
                                    <path d="M13.3310396,1.02661212 L25.6366146,1.02661212" id="Line-Copy-2"></path>
                                    <path d="M13.3310396,1.02661212 L13.3310396,24.980895" id="Line"></path>
                                </g>
                            </g>
                            <g id="Mark" transform="translate(169.705671, 55.041626) scale(-1, 1) translate(-169.705671, -55.041626) translate(119.116085, 42.380077)" sketch:type="MSShapeGroup">
                                <g id="Colored-Mark-Copy" transform="translate(0.205093, 5.475265)" stroke="#444444" stroke-width="3.1755375" stroke-linecap="square">
                                    <path d="M16.8420597,1.81839948 C16.8420597,1.81839948 12.7734892,-1.01552675 8.70491878,1.8183995 C4.63634833,4.65232574 0.567777876,1.81839949 0.567777876,1.81839949" id="Line-Copy-11"></path>
                                    <path d="M16.8420597,8.59839322 C16.8420597,8.59839322 12.7734892,5.764467 8.70491878,8.59839324 C4.63634833,11.4323195 0.567777876,8.59839324 0.567777876,8.59839324" id="Line-Copy-12"></path>
                                    <path d="M16.8420597,15.378387 C16.8420597,15.378387 12.7734892,12.5444607 8.70491878,15.378387 C4.63634833,18.2123132 0.567777876,15.378387 0.567777876,15.378387" id="Line-Copy-13"></path>
                                </g>
                                <path d="M85.7630214,15.0569778 L85.2366162,15.0569778 L85.2366162,10.5152458 L85.2940423,9.25045964 L83.0352856,15.0569778 L82.5471645,15.0569778 L80.2979788,9.25045964 L80.2884078,9.25045964 L80.3458338,10.5152458 L80.3458338,15.0569778 L79.8289997,15.0569778 L79.8289997,8.73304713 L80.6521059,8.73304713 L82.4418834,13.3035243 L82.7864395,14.415003 L82.7960105,14.415003 L83.1501376,13.313106 L84.9303442,8.73304713 L85.7630214,8.73304713 L85.7630214,15.0569778 Z M91.8118952,14.6258007 L91.7831822,15.0569778 C91.6555681,15.1208562 91.4896724,15.1527949 91.28549,15.1527949 C91.0557848,15.1527949 90.8707473,15.0937083 90.7303718,14.9755332 C90.5899964,14.8573582 90.5070486,14.6545473 90.4815258,14.3670945 C90.3347697,14.6098324 90.1050679,14.8014648 89.7924136,14.9419973 C89.4797593,15.0825297 89.1479678,15.1527949 88.7970293,15.1527949 C88.3248575,15.1527949 87.9436163,15.0458002 87.6532945,14.8318075 C87.3629726,14.6178149 87.2178138,14.3159939 87.2178138,13.9263357 C87.2178138,13.5558409 87.3693532,13.2460353 87.6724365,12.9969095 C87.9755197,12.7477837 88.4333281,12.5721207 89.0458754,12.4699153 L90.4719548,12.2207907 L90.4719548,11.8375222 C90.4719548,11.4670274 90.3618893,11.176385 90.1417552,10.9655863 C89.921621,10.7547875 89.6105665,10.6493898 89.2085824,10.6493898 C88.4748019,10.6493898 87.9771147,10.9783586 87.715506,11.6363062 L87.3039528,11.3392731 C87.4379476,10.9687783 87.6724348,10.6813298 88.0074216,10.4769189 C88.3424083,10.272508 88.7427913,10.1703041 89.2085824,10.1703041 C89.7637033,10.1703041 90.2039651,10.3060437 90.5293808,10.5775269 C90.8547965,10.8490101 91.0175019,11.2466473 91.0175019,11.7704502 L91.0175019,14.2137871 C91.0175019,14.5267912 91.1578752,14.683291 91.4386261,14.683291 C91.5853822,14.683291 91.709804,14.6641278 91.8118952,14.6258007 L91.8118952,14.6258007 Z M89.61535,14.5347744 C89.8673877,14.4421508 90.0731622,14.3080081 90.2326797,14.1323425 C90.3921972,13.9566769 90.4719548,13.7474782 90.4719548,13.5047403 L90.4719548,12.6711312 L89.2181534,12.9010923 C88.7204588,12.9905221 88.3567643,13.118277 88.1270591,13.2843609 C87.8973539,13.4504447 87.782503,13.6644342 87.782503,13.9263357 C87.782503,14.1626858 87.8750218,14.3463334 88.0600621,14.4772842 C88.2451024,14.6082349 88.5035169,14.6737093 88.8353133,14.6737093 C89.1033027,14.6737093 89.3633124,14.6273981 89.61535,14.5347744 L89.61535,14.5347744 Z M95.4680182,10.3140298 L95.3340242,10.8314423 C95.1745067,10.7292369 94.9735176,10.6781349 94.731051,10.6781349 C94.5013458,10.6781349 94.2812149,10.749997 94.0706518,10.8937234 C93.8600887,11.0374499 93.6894075,11.2402608 93.5586032,11.5021622 C93.4277988,11.7640637 93.3623976,12.0610938 93.3623976,12.3932616 L93.3623976,15.0569778 L92.8168505,15.0569778 L92.8168505,10.2661212 L93.2762586,10.2661212 L93.3432556,11.1955474 C93.4708696,10.8697675 93.6654781,10.6174516 93.9270868,10.4385921 C94.1886955,10.2597325 94.5077257,10.1703041 94.8841871,10.1703041 C95.1266537,10.1703041 95.3212621,10.2182122 95.4680182,10.3140298 L95.4680182,10.3140298 Z M98.147899,12.5561507 L97.0472337,13.6388843 L97.0472337,15.0569778 L96.5016865,15.0569778 L96.5016865,8.06232721 L97.0472337,8.06232721 L97.0472337,12.9490009 L99.8036825,10.2661212 L100.502366,10.2661212 L98.5498811,12.1728821 L100.588505,15.0569778 L99.9281055,15.0569778 L98.147899,12.5561507 Z" fill="#757575" transform="translate(90.299677, 11.607561) scale(-1, 1) translate(-90.299677, -11.607561) "></path>
                                <g id="label-prong" transform="translate(50.111036, 12.661550) scale(-1, 1) translate(-50.111036, -12.661550) translate(37.121818, 0.000000)" stroke="#333333" stroke-width="0.762129" stroke-linecap="square">
                                    <path d="M0.323843377,13.3459576 L13.3310396,13.3459576" id="Line"></path>
                                    <path d="M14.0146827,24.980895 L25.6366146,24.980895" id="Line-Copy"></path>
                                    <path d="M13.3310396,1.02661212 L25.6366146,1.02661212" id="Line-Copy-2"></path>
                                    <path d="M13.3310396,1.02661212 L13.3310396,24.980895" id="Line"></path>
                                </g>
                            </g>
                            <path d="M0.504014724,18.8212223 L343.14312,21.7123833" id="Line" stroke="#000000" stroke-width="0.5" stroke-linecap="square" sketch:type="MSShapeGroup"></path>
                            <path d="M1.05195687,8.89730507 L1.05195687,1.24288508 L2.75832994,1.24288508 L2.75832994,7.37518149 L6.01794003,7.37518149 L6.01794003,8.89730507 L1.05195687,8.89730507 Z M12.9364078,3.27968353 C12.498874,2.79785783 11.9610802,2.5569486 11.3230101,2.5569486 C10.6849401,2.5569486 10.1471463,2.79785783 9.70961254,3.27968353 C9.27207879,3.76150923 9.0533152,4.34370655 9.0533152,5.02629296 C9.0533152,5.70887936 9.27207879,6.28925161 9.70961254,6.76742712 C10.1471463,7.24560262 10.6849401,7.48468679 11.3230101,7.48468679 C11.9610802,7.48468679 12.498874,7.24560262 12.9364078,6.76742712 C13.3739415,6.28925161 13.5927051,5.70887936 13.5927051,5.02629296 C13.5927051,4.34370655 13.3739415,3.76150923 12.9364078,3.27968353 L12.9364078,3.27968353 Z M11.317541,8.97395877 C10.1872455,8.97395877 9.23562388,8.59616929 8.4626476,7.84057899 C7.68967132,7.08498869 7.30318898,6.14507766 7.30318898,5.02081769 C7.30318898,3.89655773 7.68967132,2.95664669 8.4626476,2.20105639 C9.23562388,1.44546609 10.1872455,1.06767661 11.317541,1.06767661 C12.4478365,1.06767661 13.3994581,1.44546609 14.1724344,2.20105639 C14.9454107,2.95664669 15.331893,3.89655773 15.331893,5.02081769 C15.331893,6.14507766 14.9454107,7.08498869 14.1724344,7.84057899 C13.3994581,8.59616929 12.4478365,8.97395877 11.317541,8.97395877 L11.317541,8.97395877 Z M22.4253734,4.99891663 L24.1426847,4.99891663 L24.1426847,7.7146479 C23.3842929,8.56149307 22.3342277,8.9849093 20.9924575,8.9849093 C19.8694543,8.9849093 18.9269478,8.61259503 18.1649099,7.86795531 C17.4028719,7.1233156 17.0218587,6.18340456 17.0218587,5.04819401 C17.0218587,3.91298347 17.410164,2.96577215 18.1867864,2.20653166 C18.9634088,1.44729116 19.9004462,1.06767661 20.9979267,1.06767661 C22.0954072,1.06767661 23.0488518,1.42904046 23.8582892,2.15177901 L22.9722878,3.43299094 C22.6295531,3.13367498 22.3141689,2.92744207 22.0261258,2.81428603 C21.7380828,2.70113 21.4263447,2.64455283 21.0909021,2.64455283 C20.4418937,2.64455283 19.8949848,2.8653863 19.4501588,3.30705985 C19.0053328,3.74873341 18.7829232,4.33093073 18.7829232,5.05366928 C18.7829232,5.77640783 18.9962177,6.35495501 19.4228131,6.78932818 C19.8494085,7.22370134 20.3580338,7.44088467 20.9487044,7.44088467 C21.5393749,7.44088467 22.031593,7.32773033 22.4253734,7.10141826 L22.4253734,4.99891663 Z M31.5424372,3.27968353 C31.1049034,2.79785783 30.5671096,2.5569486 29.9290396,2.5569486 C29.2909695,2.5569486 28.7531757,2.79785783 28.315642,3.27968353 C27.8781082,3.76150923 27.6593446,4.34370655 27.6593446,5.02629296 C27.6593446,5.70887936 27.8781082,6.28925161 28.315642,6.76742712 C28.7531757,7.24560262 29.2909695,7.48468679 29.9290396,7.48468679 C30.5671096,7.48468679 31.1049034,7.24560262 31.5424372,6.76742712 C31.9799709,6.28925161 32.1987345,5.70887936 32.1987345,5.02629296 C32.1987345,4.34370655 31.9799709,3.76150923 31.5424372,3.27968353 L31.5424372,3.27968353 Z M29.9235704,8.97395877 C28.7932749,8.97395877 27.8416533,8.59616929 27.068677,7.84057899 C26.2957007,7.08498869 25.9092184,6.14507766 25.9092184,5.02081769 C25.9092184,3.89655773 26.2957007,2.95664669 27.068677,2.20105639 C27.8416533,1.44546609 28.7932749,1.06767661 29.9235704,1.06767661 C31.0538659,1.06767661 32.0054875,1.44546609 32.7784638,2.20105639 C33.5514401,2.95664669 33.9379224,3.89655773 33.9379224,5.02081769 C33.9379224,6.14507766 33.5514401,7.08498869 32.7784638,7.84057899 C32.0054875,8.59616929 31.0538659,8.97395877 29.9235704,8.97395877 L29.9235704,8.97395877 Z M43.574555,0.0821289699 L45.127792,0.0821289699 L40.5337107,10.1237644 L38.9914119,10.1237644 L43.574555,0.0821289699 Z M54.1190655,7.38613202 C54.9576718,7.38613202 55.6431311,7.05396929 56.1754638,6.38963386 L57.2692927,7.51753837 C56.4015174,8.49579055 55.3787976,8.9849093 54.2011026,8.9849093 C53.0234076,8.9849093 52.0535557,8.61259503 51.2915178,7.86795531 C50.5294798,7.1233156 50.1484666,6.18340456 50.1484666,5.04819401 C50.1484666,3.91298347 50.536772,2.96577215 51.3133944,2.20653166 C52.0900168,1.44729116 53.0398153,1.06767661 54.1628186,1.06767661 C55.417082,1.06767661 56.4671473,1.54584494 57.3130458,2.50219595 L56.2520318,3.70675417 C55.7124069,3.03511835 55.0415318,2.69930548 54.2393866,2.69930548 C53.5976705,2.69930548 53.0489385,2.90918852 52.5931742,3.32896091 C52.1374098,3.7487333 51.9095311,4.31450499 51.9095311,5.02629296 C51.9095311,5.73808092 52.1246486,6.30932782 52.5548902,6.74005079 C52.9851317,7.17077377 53.5065182,7.38613202 54.1190655,7.38613202 L54.1190655,7.38613202 Z M64.3299582,3.27968353 C63.8924244,2.79785783 63.3546306,2.5569486 62.7165605,2.5569486 C62.0784905,2.5569486 61.5406967,2.79785783 61.1031629,3.27968353 C60.6656292,3.76150923 60.4468656,4.34370655 60.4468656,5.02629296 C60.4468656,5.70887936 60.6656292,6.28925161 61.1031629,6.76742712 C61.5406967,7.24560262 62.0784905,7.48468679 62.7165605,7.48468679 C63.3546306,7.48468679 63.8924244,7.24560262 64.3299582,6.76742712 C64.7674919,6.28925161 64.9862555,5.70887936 64.9862555,5.02629296 C64.9862555,4.34370655 64.7674919,3.76150923 64.3299582,3.27968353 L64.3299582,3.27968353 Z M62.7110914,8.97395877 C61.5807959,8.97395877 60.6291743,8.59616929 59.856198,7.84057899 C59.0832217,7.08498869 58.6967394,6.14507766 58.6967394,5.02081769 C58.6967394,3.89655773 59.0832217,2.95664669 59.856198,2.20105639 C60.6291743,1.44546609 61.5807959,1.06767661 62.7110914,1.06767661 C63.8413869,1.06767661 64.7930085,1.44546609 65.5659848,2.20105639 C66.3389611,2.95664669 66.7254434,3.89655773 66.7254434,5.02081769 C66.7254434,6.14507766 66.3389611,7.08498869 65.5659848,7.84057899 C64.7930085,8.59616929 63.8413869,8.97395877 62.7110914,8.97395877 L62.7110914,8.97395877 Z M68.8529406,8.89730507 L68.8529406,1.24288508 L70.5593137,1.24288508 L70.5593137,7.37518149 L73.8189238,7.37518149 L73.8189238,8.89730507 L68.8529406,8.89730507 Z M80.7373915,3.27968353 C80.2998578,2.79785783 79.7620639,2.5569486 79.1239939,2.5569486 C78.4859238,2.5569486 77.94813,2.79785783 77.5105963,3.27968353 C77.0730625,3.76150923 76.8542989,4.34370655 76.8542989,5.02629296 C76.8542989,5.70887936 77.0730625,6.28925161 77.5105963,6.76742712 C77.94813,7.24560262 78.4859238,7.48468679 79.1239939,7.48468679 C79.7620639,7.48468679 80.2998578,7.24560262 80.7373915,6.76742712 C81.1749252,6.28925161 81.3936888,5.70887936 81.3936888,5.02629296 C81.3936888,4.34370655 81.1749252,3.76150923 80.7373915,3.27968353 L80.7373915,3.27968353 Z M79.1185247,8.97395877 C77.9882292,8.97395877 77.0366076,8.59616929 76.2636313,7.84057899 C75.4906551,7.08498869 75.1041727,6.14507766 75.1041727,5.02081769 C75.1041727,3.89655773 75.4906551,2.95664669 76.2636313,2.20105639 C77.0366076,1.44546609 77.9882292,1.06767661 79.1185247,1.06767661 C80.2488202,1.06767661 81.2004419,1.44546609 81.9734181,2.20105639 C82.7463944,2.95664669 83.1328768,3.89655773 83.1328768,5.02081769 C83.1328768,6.14507766 82.7463944,7.08498869 81.9734181,7.84057899 C81.2004419,8.59616929 80.2488202,8.97395877 79.1185247,8.97395877 L79.1185247,8.97395877 Z M91.4623838,3.78340788 C91.4623838,5.00987329 90.9774578,5.80195366 90.0075913,6.15967274 L91.9436685,8.89730507 L89.843517,8.89730507 L88.1480822,6.45533703 L86.966747,6.45533703 L86.966747,8.89730507 L85.260374,8.89730507 L85.260374,1.24288508 L88.1590205,1.24288508 C89.3476539,1.24288508 90.1953628,1.44364277 90.7021727,1.84516419 C91.2089826,2.24668561 91.4623838,2.89276037 91.4623838,3.78340788 L91.4623838,3.78340788 Z M89.4059855,4.69230181 C89.6174601,4.50249169 89.7231958,4.20135514 89.7231958,3.78888314 C89.7231958,3.37641114 89.613814,3.0935253 89.3950472,2.94021712 C89.1762803,2.78690894 88.793444,2.71025601 88.2465268,2.71025601 L86.966747,2.71025601 L86.966747,4.97701557 L88.213712,4.97701557 C88.7970903,4.97701557 89.1945108,4.88211194 89.4059855,4.69230181 L89.4059855,4.69230181 Z" id="LOGO-/-COLOR" fill="#444444" sketch:type="MSShapeGroup"></path>
                            <rect id="Rectangle-3" fill="#263B64" sketch:type="MSShapeGroup" x="253.110124" y="90.9730507" width="58.7933028" height="40.1672267" rx="1.524258"></rect>
                            <rect id="Rectangle-3" fill="#333333" sketch:type="MSShapeGroup" x="253.304463" y="35.1369863" width="91.2198603" height="40.1672267" rx="1.524258"></rect>
                            <rect id="Rectangle-3-Copy" fill="#467890" sketch:type="MSShapeGroup" x="313.954356" y="90.9730507" width="30.5699677" height="40.1672267" rx="1.524258"></rect>
                            <rect id="Rectangle-3-Copy-2" fill="#467890" sketch:type="MSShapeGroup" x="311.903427" y="90.9730507" width="25.4657038" height="40.1672267"></rect>
                            <rect id="Rectangle-3-Copy-2" fill="#263B64" sketch:type="MSShapeGroup" x="286.876638" y="90.9730507" width="25.4657038" height="40.1672267"></rect>
                        </g>
                    </g>
                </g>
            </g>
        </g>
    </g>
</svg>