<?xml version="1.0" encoding="UTF-8" standalone="no"?>
<svg width="1020px" height="550px" viewBox="0 0 1020 550" version="1.1" xmlns="http://www.w3.org/2000/svg" xmlns:xlink="http://www.w3.org/1999/xlink" xmlns:sketch="http://www.bohemiancoding.com/sketch/ns">
    <!-- Generator: Sketch 3.4.4 (17249) - http://www.bohemiancoding.com/sketch -->
    <title>Artboard 7</title>
    <desc>Created with Sketch.</desc>
    <defs></defs>
    <g id="Welcome" stroke="none" stroke-width="1" fill="none" fill-rule="evenodd" sketch:type="MSPage">
        <g id="Artboard-7" sketch:type="MSArtboardGroup">
            <g id="logo" sketch:type="MSLayerGroup" transform="translate(0.000000, 2.000000)">
                <g id="textverison-copy" transform="translate(0.000000, 109.000000)" sketch:type="MSShapeGroup">
                    <rect id="Rectangle-81" stroke="#000000" fill="#FFFFFF" x="0.530604539" y="0" width="300" height="110"></rect>
                    <path d="M32.3413086,34.3154297 C32.0577785,34.4254563 31.863119,34.6285792 31.7573242,34.9248047 C31.6515294,35.2210301 31.5986328,35.6949837 31.5986328,36.3466797 L31.5986328,49.2451172 C31.5986328,49.8968132 31.6515294,50.3686509 31.7573242,50.6606445 C31.863119,50.9526382 32.0577785,51.1494136 32.3413086,51.2509766 C32.6248387,51.3525396 33.0797495,51.4033203 33.7060547,51.4033203 L35.6103516,51.4033203 C36.6936903,51.4033203 37.5167615,51.2509781 38.0795898,50.9462891 C38.6424182,50.6416 39.0486641,50.1549513 39.2983398,49.4863281 C39.5480156,48.817705 39.7405592,47.835944 39.8759766,46.5410156 L40.4726562,46.5410156 C40.4218747,47.082685 40.3964844,47.7936154 40.3964844,48.6738281 C40.3964844,49.6556039 40.4557286,50.7643167 40.5742188,52 C39.3977806,51.9492185 37.4130999,51.9238281 34.6201172,51.9238281 C31.2939287,51.9238281 28.7802819,51.9492185 27.0791016,52 L27.0791016,51.4794922 C27.7054068,51.4541014 28.1603176,51.3863938 28.4438477,51.2763672 C28.7273777,51.1663406 28.9220372,50.9632176 29.027832,50.6669922 C29.1336268,50.3707667 29.1865234,49.8968132 29.1865234,49.2451172 L29.1865234,36.3466797 C29.1865234,35.6949837 29.1336268,35.2210301 29.027832,34.9248047 C28.9220372,34.6285792 28.7273777,34.4254563 28.4438477,34.3154297 C28.1603176,34.2054031 27.7054068,34.1376954 27.0791016,34.1123047 L27.0791016,33.5917969 C27.7985062,33.6425784 28.9072191,33.6679688 30.4052734,33.6679688 C31.8102284,33.6679688 32.9104778,33.6425784 33.7060547,33.5917969 L33.7060547,34.1123047 C33.0797495,34.1376954 32.6248387,34.2054031 32.3413086,34.3154297 L32.3413086,34.3154297 Z M52.4986949,39 C53.3831394,39.4993515 54.0813746,40.2758736 54.5934215,41.3295898 C55.1054683,42.383306 55.3614879,43.7141847 55.3614879,45.3222656 C55.3614879,46.9303466 55.1054683,48.2591093 54.5934215,49.3085938 C54.0813746,50.3580782 53.3831394,51.1303686 52.4986949,51.6254883 C51.6142504,52.1206079 50.6007514,52.3681641 49.4581676,52.3681641 C48.3155837,52.3681641 47.3020847,52.1206079 46.4176402,51.6254883 C45.5331957,51.1303686 44.8349605,50.3580782 44.3229136,49.3085938 C43.8108668,48.2591093 43.5548472,46.9303466 43.5548472,45.3222656 C43.5548472,43.7141847 43.8108668,42.383306 44.3229136,41.3295898 C44.8349605,40.2758736 45.5331957,39.4993515 46.4176402,39 C47.3020847,38.5006485 48.3155837,38.2509766 49.4581676,38.2509766 C50.6007514,38.2509766 51.6142504,38.5006485 52.4986949,39 L52.4986949,39 Z M46.9889293,40.3710938 C46.383783,41.4375053 46.0812144,43.0878795 46.0812144,45.3222656 C46.0812144,47.5481882 46.383783,49.1922147 46.9889293,50.2543945 C47.5940755,51.3165743 48.4171467,51.8476562 49.4581676,51.8476562 C50.4991884,51.8476562 51.3222596,51.3165743 51.9274058,50.2543945 C52.5325521,49.1922147 52.8351207,47.5481882 52.8351207,45.3222656 C52.8351207,43.0878795 52.5325521,41.4375053 51.9274058,40.3710938 C51.3222596,39.3046822 50.4991884,38.7714844 49.4581676,38.7714844 C48.4171467,38.7714844 47.5940755,39.3046822 46.9889293,40.3710938 L46.9889293,40.3710938 Z M69.7996359,49.7148438 C70.3624642,50.095705 70.6438742,50.7093057 70.6438742,51.5556641 C70.6438742,52.3850953 70.3751594,53.2102824 69.8377218,54.03125 C69.3002842,54.8522176 68.4835606,55.5335259 67.3875265,56.0751953 C66.2914924,56.6168647 64.9521503,56.8876953 63.3694601,56.8876953 C62.4638566,56.8876953 61.6111633,56.7967131 60.8113546,56.6147461 C60.011546,56.432779 59.3662074,56.1619484 58.8753195,55.8022461 C58.3844316,55.4425438 58.1389914,55.0087916 58.1389914,54.5009766 C58.1389914,53.9085257 58.4500234,53.3351265 59.0720968,52.7807617 C59.6941702,52.226397 60.4706924,51.7418641 61.4016867,51.3271484 L61.3128195,51.3271484 C60.6526599,51.3271484 60.0538703,51.1875014 59.5164328,50.9082031 C58.9789952,50.6289049 58.7102804,50.1084022 58.7102804,49.3466797 C58.7102804,48.7542288 58.9557207,48.1914089 59.4466085,47.6582031 C59.9374964,47.1249973 60.7753787,46.5917995 61.9602804,46.0585938 C61.1985579,45.7623683 60.6061159,45.3053416 60.1829367,44.6875 C59.7597575,44.0696584 59.548171,43.2910203 59.548171,42.3515625 C59.548171,40.9804619 59.9861549,39.9542677 60.8621359,39.2729492 C61.7381168,38.5916307 62.8997263,38.2509766 64.3469992,38.2509766 C65.0240859,38.2509766 65.6376865,38.3271477 66.1878195,38.4794922 C66.3570912,37.5146436 66.6617756,36.744469 67.101882,36.1689453 C67.5673791,35.5934216 68.1598211,35.3056641 68.8792257,35.3056641 C69.3108685,35.3056641 69.6472909,35.4326159 69.8885031,35.6865234 C70.1297152,35.940431 70.2503195,36.2662741 70.2503195,36.6640625 C70.2503195,37.019533 70.1318311,37.315754 69.8948507,37.5527344 C69.6578704,37.7897147 69.3616494,37.9082031 69.0061789,37.9082031 C68.5660725,37.9082031 68.2486929,37.7749037 68.0540304,37.5083008 C67.859368,37.2416979 67.7154892,36.8291044 67.6223898,36.2705078 C67.3684823,36.4990246 67.1357372,36.9221974 66.9241476,37.5400391 C66.7971938,37.9209003 66.7083275,38.2805973 66.657546,38.6191406 C67.4446594,38.9069025 68.05826,39.3618133 68.4983664,39.9838867 C68.9384727,40.6059601 69.1585226,41.3951775 69.1585226,42.3515625 C69.1585226,43.2740932 68.9511679,44.0421519 68.5364523,44.6557617 C68.1217367,45.2693716 67.5546851,45.7242824 66.8352804,46.0205078 C66.1158758,46.3167333 65.286457,46.4648438 64.3469992,46.4648438 C63.6445217,46.4648438 63.0055307,46.3844409 62.430007,46.2236328 C61.7275295,46.5960305 61.1879841,46.9409164 60.8113546,47.2583008 C60.4347251,47.5756852 60.2464132,47.9163393 60.2464132,48.2802734 C60.2464132,48.5680353 60.343743,48.7838534 60.5384054,48.9277344 C60.7330679,49.0716153 61.0504475,49.1435547 61.4905539,49.1435547 L67.5969992,49.1435547 C68.5026027,49.1435547 69.2368076,49.3339825 69.7996359,49.7148438 L69.7996359,49.7148438 Z M62.5886984,39.5395508 C62.1866781,40.0939155 61.985671,41.0312434 61.985671,42.3515625 C61.985671,43.6718816 62.1866781,44.6092095 62.5886984,45.1635742 C62.9907186,45.717939 63.576813,45.9951172 64.3469992,45.9951172 C65.1256489,45.9951172 65.715975,45.7200548 66.1179953,45.1699219 C66.5200155,44.6197889 66.7210226,43.6803452 66.7210226,42.3515625 C66.7210226,41.0227798 66.5200155,40.0833361 66.1179953,39.5332031 C65.715975,38.9830702 65.1256489,38.7080078 64.3469992,38.7080078 C63.576813,38.7080078 62.9907186,38.985186 62.5886984,39.5395508 L62.5886984,39.5395508 Z M60.7351828,52.4824219 C60.4262619,52.9648462 60.2718039,53.4557267 60.2718039,53.9550781 C60.2718039,54.5136747 60.4579999,54.9791648 60.8303976,55.3515625 C61.2027953,55.7239602 61.6809806,55.9990225 62.2649679,56.1767578 C62.8489552,56.3544931 63.4498607,56.4433594 64.0677023,56.4433594 C64.8378884,56.4433594 65.5911361,56.3058282 66.3274679,56.0307617 C67.0637997,55.7556952 67.6689369,55.3409858 68.1428976,54.7866211 C68.6168583,54.2322563 68.8538351,53.5615274 68.8538351,52.7744141 C68.8538351,52.4358707 68.7967068,52.1629242 68.6824484,51.9555664 C68.56819,51.7482086 68.3671829,51.5916346 68.079421,51.4858398 C67.7916592,51.380045 67.389645,51.3271484 66.8733664,51.3271484 L62.0364523,51.3271484 C61.4778558,51.6149103 61.0441036,51.9999976 60.7351828,52.4824219 L60.7351828,52.4824219 Z M82.3398347,39 C83.2242792,39.4993515 83.9225144,40.2758736 84.4345613,41.3295898 C84.9466081,42.383306 85.2026277,43.7141847 85.2026277,45.3222656 C85.2026277,46.9303466 84.9466081,48.2591093 84.4345613,49.3085938 C83.9225144,50.3580782 83.2242792,51.1303686 82.3398347,51.6254883 C81.4553902,52.1206079 80.4418912,52.3681641 79.2993073,52.3681641 C78.1567235,52.3681641 77.1432245,52.1206079 76.25878,51.6254883 C75.3743355,51.1303686 74.6761003,50.3580782 74.1640534,49.3085938 C73.6520066,48.2591093 73.395987,46.9303466 73.395987,45.3222656 C73.395987,43.7141847 73.6520066,42.383306 74.1640534,41.3295898 C74.6761003,40.2758736 75.3743355,39.4993515 76.25878,39 C77.1432245,38.5006485 78.1567235,38.2509766 79.2993073,38.2509766 C80.4418912,38.2509766 81.4553902,38.5006485 82.3398347,39 L82.3398347,39 Z M76.8300691,40.3710938 C76.2249228,41.4375053 75.9223542,43.0878795 75.9223542,45.3222656 C75.9223542,47.5481882 76.2249228,49.1922147 76.8300691,50.2543945 C77.4352153,51.3165743 78.2582865,51.8476562 79.2993073,51.8476562 C80.3403282,51.8476562 81.1633994,51.3165743 81.7685456,50.2543945 C82.3736919,49.1922147 82.6762605,47.5481882 82.6762605,45.3222656 C82.6762605,43.0878795 82.3736919,41.4375053 81.7685456,40.3710938 C81.1633994,39.3046822 80.3403282,38.7714844 79.2993073,38.7714844 C78.2582865,38.7714844 77.4352153,39.3046822 76.8300691,40.3710938 L76.8300691,40.3710938 Z M98.654119,33.6806641 L99.2888846,33.6679688 C101.675615,33.6171872 102.983219,33.5917969 103.211736,33.5917969 C106.275554,33.5917969 108.571266,34.3577397 110.098943,35.8896484 C111.62662,37.4215571 112.390447,39.6559098 112.390447,42.5927734 C112.390447,44.4801527 112.020171,46.1326427 111.279607,47.550293 C110.539044,48.9679433 109.462069,50.063961 108.04865,50.8383789 C106.635232,51.6127968 104.946772,52 102.983221,52 C102.74624,52 102.181304,51.9873048 101.288396,51.9619141 C100.395488,51.9365233 99.7459179,51.9238281 99.3396659,51.9238281 C97.9177838,51.9238281 96.8429247,51.9492185 96.1150565,52 L96.1150565,51.4794922 C96.7413617,51.4541014 97.1962725,51.3863938 97.4798026,51.2763672 C97.7633327,51.1663406 97.9579922,50.9632176 98.063787,50.6669922 C98.1695818,50.3707667 98.2224784,49.8968132 98.2224784,49.2451172 L98.2224784,36.3466797 C98.2224784,35.6949837 98.1695818,35.2210301 98.063787,34.9248047 C97.9579922,34.6285792 97.7633327,34.4254563 97.4798026,34.3154297 C97.1962725,34.2054031 96.7413617,34.1376954 96.1150565,34.1123047 L96.1150565,33.5917969 C97.0460508,33.651042 97.8923965,33.6806641 98.654119,33.6806641 L98.654119,33.6806641 Z M100.786932,50.6987305 C100.888495,51.0076513 101.076806,51.2234694 101.351873,51.3461914 C101.626939,51.4689134 102.039533,51.5302734 102.589666,51.5302734 C104.434727,51.5302734 105.881978,51.1959669 106.931463,50.5273438 C107.980947,49.8587206 108.719384,48.8833072 109.146795,47.6010742 C109.574206,46.3188412 109.787908,44.6832782 109.787908,42.6943359 C109.787908,40.6969301 109.555163,39.0698305 109.089666,37.8129883 C108.624169,36.5561461 107.864574,35.6167023 106.810857,34.9946289 C105.757141,34.3725555 104.341628,34.0615234 102.564275,34.0615234 C102.022606,34.0615234 101.61636,34.1228835 101.345525,34.2456055 C101.074691,34.3683274 100.888495,34.5862615 100.786932,34.8994141 C100.685369,35.2125667 100.634588,35.6780568 100.634588,36.2958984 L100.634588,49.2958984 C100.634588,49.9222037 100.685369,50.3898097 100.786932,50.6987305 L100.786932,50.6987305 Z M125.952619,50.5844727 C125.50828,51.1134467 124.953924,51.5429671 124.289533,51.8730469 C123.625141,52.2031267 122.882473,52.3681641 122.061505,52.3681641 C120.825822,52.3681641 119.757311,52.0867541 118.855939,51.5239258 C117.954567,50.9610974 117.266911,50.1697642 116.792951,49.1499023 C116.31899,48.1300405 116.082013,46.9557358 116.082013,45.6269531 C116.082013,44.1204352 116.323222,42.8128311 116.805646,41.7041016 C117.28807,40.5953721 117.971494,39.7426788 118.855939,39.1459961 C119.740383,38.5493134 120.775041,38.2509766 121.959943,38.2509766 C123.517242,38.2509766 124.716937,38.7228143 125.559064,39.6665039 C126.401191,40.6101935 126.822248,42.0426336 126.822248,43.9638672 L118.697248,43.9638672 C118.638002,44.4124371 118.60838,44.9667936 118.60838,45.6269531 C118.60838,46.769537 118.796692,47.7682249 119.173322,48.6230469 C119.549951,49.4778689 120.042948,50.1337868 120.652326,50.5908203 C121.261704,51.0478538 121.904926,51.2763672 122.582013,51.2763672 C124.325511,51.2763672 125.599262,50.4088628 126.403302,48.6738281 L126.92381,48.8769531 C126.720684,49.4863312 126.396957,50.0554987 125.952619,50.5844727 L125.952619,50.5844727 Z M124.105451,41.0947266 C123.927715,40.3753219 123.648421,39.8040386 123.26756,39.3808594 C122.886699,38.9576802 122.416977,38.7460938 121.85838,38.7460938 C121.325175,38.7460938 120.834294,38.9174788 120.385724,39.2602539 C119.937154,39.6030291 119.558414,40.1277634 119.249494,40.8344727 C118.940573,41.5411819 118.743797,42.4192656 118.659162,43.46875 L124.321271,43.46875 C124.355125,42.6054644 124.283186,41.8141312 124.105451,41.0947266 L124.105451,41.0947266 Z M131.783345,49.6386719 C132.020325,50.3326858 132.384254,50.874347 132.875142,51.2636719 C133.366029,51.6529967 134.026179,51.8476562 134.85561,51.8476562 C135.236472,51.8476562 135.602516,51.7651375 135.953755,51.6000977 C136.304994,51.4350578 136.594867,51.1684589 136.823384,50.800293 C137.051901,50.4321271 137.166157,49.9560576 137.166157,49.3720703 C137.166157,48.8981096 137.045553,48.4728209 136.804341,48.0961914 C136.563129,47.7195619 136.247865,47.3810236 135.85854,47.0805664 C135.469215,46.7801092 134.923322,46.4098329 134.220845,45.9697266 C133.366023,45.4280572 132.712221,44.9837257 132.259419,44.6367188 C131.806617,44.2897118 131.423646,43.866539 131.110493,43.3671875 C130.797341,42.867836 130.640767,42.2796258 130.640767,41.6025391 C130.640767,40.8662073 130.814267,40.246259 131.161274,39.7426758 C131.508281,39.2390925 131.971656,38.8645846 132.551411,38.6191406 C133.131167,38.3736967 133.776505,38.2509766 134.487446,38.2509766 C135.096824,38.2509766 135.644833,38.3483063 136.131489,38.5429688 C136.618145,38.7376312 137.013812,38.9576811 137.318501,39.203125 C137.5047,39.3470059 137.657042,39.4189453 137.775532,39.4189453 C138.080221,39.4189453 138.274881,39.0380897 138.359517,38.2763672 L138.956196,38.2763672 C138.888488,39.1227256 138.854634,40.5953671 138.854634,42.6943359 L138.257954,42.6943359 C138.071755,41.5517521 137.703595,40.6080766 137.153462,39.8632812 C136.603329,39.1184859 135.790837,38.7460938 134.715962,38.7460938 C134.089657,38.7460938 133.577618,38.9217105 133.179829,39.2729492 C132.782041,39.624188 132.583149,40.1129526 132.583149,40.7392578 C132.583149,41.3401723 132.788388,41.8416321 133.198872,42.2436523 C133.609356,42.6456726 134.104468,43.028644 134.684224,43.3925781 C135.263979,43.7565122 135.676573,44.0188794 135.922017,44.1796875 C136.717594,44.6959661 137.3587,45.1551087 137.845356,45.5571289 C138.332013,45.9591491 138.725563,46.4204076 139.026021,46.940918 C139.326478,47.4614284 139.476704,48.0559862 139.476704,48.7246094 C139.476704,49.4947955 139.275697,50.1528293 138.873677,50.6987305 C138.471657,51.2446316 137.932111,51.659341 137.255024,51.9428711 C136.577938,52.2264012 135.837385,52.3681641 135.033345,52.3681641 C134.263159,52.3681641 133.577619,52.2454439 132.976704,52 C132.638161,51.8307283 132.282696,51.5979833 131.910298,51.3017578 C131.842589,51.2340491 131.762186,51.2001953 131.669087,51.2001953 C131.415179,51.2001953 131.237447,51.5260384 131.135884,52.1777344 L130.539204,52.1777344 C130.606913,51.187495 130.640767,49.4567181 130.640767,46.9853516 L131.237446,46.9853516 C131.3644,48.0602267 131.546364,48.944658 131.783345,49.6386719 L131.783345,49.6386719 Z M146.304012,32.3349609 C146.55792,32.4873054 146.761043,32.6904284 146.913387,32.9443359 C147.065732,33.1982435 147.141903,33.4733058 147.141903,33.7695312 C147.141903,34.0657567 147.065732,34.3429349 146.913387,34.6010742 C146.761043,34.8592135 146.55792,35.0623365 146.304012,35.2104492 C146.050105,35.3585619 145.775042,35.4326172 145.478817,35.4326172 C145.182592,35.4326172 144.905413,35.3585619 144.647274,35.2104492 C144.389135,35.0623365 144.186012,34.8592135 144.037899,34.6010742 C143.889786,34.3429349 143.815731,34.0657567 143.815731,33.7695312 C143.815731,33.4733058 143.889786,33.1982435 144.037899,32.9443359 C144.186012,32.6904284 144.389135,32.4873054 144.647274,32.3349609 C144.905413,32.1826164 145.182592,32.1064453 145.478817,32.1064453 C145.775042,32.1064453 146.050105,32.1826164 146.304012,32.3349609 L146.304012,32.3349609 Z M147.021297,50.7177734 C147.152483,50.9886081 147.359838,51.1790359 147.643368,51.2890625 C147.926898,51.3990891 148.314101,51.4541016 148.804989,51.4541016 L148.804989,52 C147.213835,51.9322913 146.164366,51.8984375 145.656551,51.8984375 C145.148736,51.8984375 144.099268,51.9322913 142.508114,52 L142.508114,51.4541016 C142.999002,51.4541016 143.386205,51.3990891 143.669735,51.2890625 C143.953265,51.1790359 144.16062,50.9886081 144.291805,50.7177734 C144.422991,50.4469388 144.488583,50.0703149 144.488583,49.5878906 L144.488583,41.4501953 C144.488583,40.6461548 144.342588,40.0621763 144.050594,39.6982422 C143.758601,39.3343081 143.244446,39.1523438 142.508114,39.1523438 L142.508114,38.6064453 C143.049783,38.6572268 143.587213,38.6826172 144.120419,38.6826172 C145.220684,38.6826172 146.122043,38.5641288 146.82452,38.3271484 L146.82452,49.5878906 C146.82452,50.0703149 146.890112,50.4469388 147.021297,50.7177734 L147.021297,50.7177734 Z M162.595676,49.7148438 C163.158504,50.095705 163.439914,50.7093057 163.439914,51.5556641 C163.439914,52.3850953 163.171199,53.2102824 162.633762,54.03125 C162.096324,54.8522176 161.279601,55.5335259 160.183567,56.0751953 C159.087532,56.6168647 157.74819,56.8876953 156.1655,56.8876953 C155.259897,56.8876953 154.407203,56.7967131 153.607395,56.6147461 C152.807586,56.432779 152.162247,56.1619484 151.67136,55.8022461 C151.180472,55.4425438 150.935031,55.0087916 150.935031,54.5009766 C150.935031,53.9085257 151.246063,53.3351265 151.868137,52.7807617 C152.49021,52.226397 153.266732,51.7418641 154.197727,51.3271484 L154.10886,51.3271484 C153.4487,51.3271484 152.84991,51.1875014 152.312473,50.9082031 C151.775035,50.6289049 151.50632,50.1084022 151.50632,49.3466797 C151.50632,48.7542288 151.751761,48.1914089 152.242649,47.6582031 C152.733536,47.1249973 153.571419,46.5917995 154.75632,46.0585938 C153.994598,45.7623683 153.402156,45.3053416 152.978977,44.6875 C152.555798,44.0696584 152.344211,43.2910203 152.344211,42.3515625 C152.344211,40.9804619 152.782195,39.9542677 153.658176,39.2729492 C154.534157,38.5916307 155.695766,38.2509766 157.143039,38.2509766 C157.820126,38.2509766 158.433727,38.3271477 158.98386,38.4794922 C159.153131,37.5146436 159.457816,36.744469 159.897922,36.1689453 C160.363419,35.5934216 160.955861,35.3056641 161.675266,35.3056641 C162.106909,35.3056641 162.443331,35.4326159 162.684543,35.6865234 C162.925755,35.940431 163.04636,36.2662741 163.04636,36.6640625 C163.04636,37.019533 162.927871,37.315754 162.690891,37.5527344 C162.45391,37.7897147 162.157689,37.9082031 161.802219,37.9082031 C161.362113,37.9082031 161.044733,37.7749037 160.85007,37.5083008 C160.655408,37.2416979 160.511529,36.8291044 160.41843,36.2705078 C160.164522,36.4990246 159.931777,36.9221974 159.720188,37.5400391 C159.593234,37.9209003 159.504368,38.2805973 159.453586,38.6191406 C160.240699,38.9069025 160.8543,39.3618133 161.294406,39.9838867 C161.734513,40.6059601 161.954563,41.3951775 161.954563,42.3515625 C161.954563,43.2740932 161.747208,44.0421519 161.332492,44.6557617 C160.917777,45.2693716 160.350725,45.7242824 159.63132,46.0205078 C158.911916,46.3167333 158.082497,46.4648438 157.143039,46.4648438 C156.440562,46.4648438 155.801571,46.3844409 155.226047,46.2236328 C154.52357,46.5960305 153.984024,46.9409164 153.607395,47.2583008 C153.230765,47.5756852 153.042453,47.9163393 153.042453,48.2802734 C153.042453,48.5680353 153.139783,48.7838534 153.334445,48.9277344 C153.529108,49.0716153 153.846488,49.1435547 154.286594,49.1435547 L160.393039,49.1435547 C161.298643,49.1435547 162.032848,49.3339825 162.595676,49.7148438 L162.595676,49.7148438 Z M155.384738,39.5395508 C154.982718,40.0939155 154.781711,41.0312434 154.781711,42.3515625 C154.781711,43.6718816 154.982718,44.6092095 155.384738,45.1635742 C155.786759,45.717939 156.372853,45.9951172 157.143039,45.9951172 C157.921689,45.9951172 158.512015,45.7200548 158.914035,45.1699219 C159.316056,44.6197889 159.517063,43.6803452 159.517063,42.3515625 C159.517063,41.0227798 159.316056,40.0833361 158.914035,39.5332031 C158.512015,38.9830702 157.921689,38.7080078 157.143039,38.7080078 C156.372853,38.7080078 155.786759,38.985186 155.384738,39.5395508 L155.384738,39.5395508 Z M153.531223,52.4824219 C153.222302,52.9648462 153.067844,53.4557267 153.067844,53.9550781 C153.067844,54.5136747 153.25404,54.9791648 153.626438,55.3515625 C153.998835,55.7239602 154.477021,55.9990225 155.061008,56.1767578 C155.644995,56.3544931 156.245901,56.4433594 156.863742,56.4433594 C157.633928,56.4433594 158.387176,56.3058282 159.123508,56.0307617 C159.85984,55.7556952 160.464977,55.3409858 160.938938,54.7866211 C161.412898,54.2322563 161.649875,53.5615274 161.649875,52.7744141 C161.649875,52.4358707 161.592747,52.1629242 161.478488,51.9555664 C161.36423,51.7482086 161.163223,51.5916346 160.875461,51.4858398 C160.587699,51.380045 160.185685,51.3271484 159.669406,51.3271484 L154.832492,51.3271484 C154.273896,51.6149103 153.840144,51.9999976 153.531223,52.4824219 L153.531223,52.4824219 Z M171.847789,38.9936523 C172.622207,38.4985327 173.496059,38.2509766 174.469371,38.2509766 C175.679663,38.2509766 176.597948,38.5768197 177.224254,39.2285156 C177.54587,39.5839862 177.776499,40.0219701 177.916148,40.5424805 C178.055797,41.0629909 178.125621,41.763342 178.125621,42.6435547 L178.125621,49.5878906 C178.125621,50.0703149 178.191213,50.4469388 178.322398,50.7177734 C178.453584,50.9886081 178.660938,51.1790359 178.944468,51.2890625 C179.227999,51.3990891 179.615202,51.4541016 180.10609,51.4541016 L180.10609,52 C178.514936,51.9322913 177.473931,51.8984375 176.983043,51.8984375 C176.500618,51.8984375 175.531553,51.9322913 174.075816,52 L174.075816,51.4541016 C174.507459,51.4541016 174.843881,51.3990891 175.085093,51.2890625 C175.326306,51.1790359 175.504038,50.9886081 175.618297,50.7177734 C175.732555,50.4469388 175.789683,50.0703149 175.789683,49.5878906 L175.789683,42.0722656 C175.789683,41.4459604 175.741018,40.9212261 175.643687,40.4980469 C175.546356,40.0748677 175.343233,39.7320977 175.034312,39.4697266 C174.725391,39.2073555 174.274712,39.0761719 173.682261,39.0761719 C172.97132,39.0761719 172.338677,39.2835266 171.784312,39.6982422 C171.229947,40.1129578 170.800427,40.6821253 170.495738,41.4057617 C170.191049,42.1293981 170.038707,42.9313107 170.038707,43.8115234 L170.038707,49.5878906 C170.038707,50.0703149 170.095835,50.4469388 170.210093,50.7177734 C170.324352,50.9886081 170.5042,51.1790359 170.749644,51.2890625 C170.995088,51.3990891 171.333626,51.4541016 171.765269,51.4541016 L171.765269,52 C170.309533,51.9322913 169.336235,51.8984375 168.845347,51.8984375 C168.35446,51.8984375 167.313454,51.9322913 165.722301,52 L165.722301,51.4541016 C166.213188,51.4541016 166.600392,51.3990891 166.883922,51.2890625 C167.167452,51.1790359 167.374806,50.9886081 167.505992,50.7177734 C167.637177,50.4469388 167.702769,50.0703149 167.702769,49.5878906 L167.702769,41.4501953 C167.702769,40.6461548 167.556775,40.0621763 167.264781,39.6982422 C166.972787,39.3343081 166.458632,39.1523438 165.722301,39.1523438 L165.722301,38.6064453 C166.26397,38.6572268 166.801399,38.6826172 167.334605,38.6826172 C168.434871,38.6826172 169.336229,38.5641288 170.038707,38.3271484 L170.038707,41.3867188 C170.47035,40.2864528 171.073371,39.488772 171.847789,38.9936523 L171.847789,38.9936523 Z" id="Logo-Design" fill="#000000"></path>
                </g>
            </g>
        </g>
    </g>
</svg>