<?xml version="1.0" encoding="UTF-8" standalone="no"?>
<svg width="863px" height="466px" viewBox="0 0 863 466" version="1.1" xmlns="http://www.w3.org/2000/svg" xmlns:xlink="http://www.w3.org/1999/xlink" xmlns:sketch="http://www.bohemiancoding.com/sketch/ns">
    <!-- Generator: Sketch 3.5.2 (25235) - http://www.bohemiancoding.com/sketch -->
    <title>work-item-images</title>
    <desc>Created with Sketch.</desc>
    <defs>
        <path id="path-1" d="M39.8821975,10.6430427 C39.8821975,10.6430427 36.8805197,8.69517634 32.4012355,10.6430427 C27.9219513,12.5909091 24.6359192,10.6430427 24.6359192,10.6430427"></path>
        <path id="path-2" d="M39.8821975,3.32486091 C39.8821975,3.32486091 36.8805197,1.37699452 32.4012355,3.3248609 C27.9219513,5.27272728 24.6359192,3.32486091 24.6359192,3.32486091"></path>
        <path id="path-3" d="M39.8821975,17.9612246 C39.8821975,17.9612246 36.8805197,16.0133582 32.4012355,17.9612245 C27.9219513,19.9090909 24.6359192,17.9612245 24.6359192,17.9612245"></path>
    </defs>
    <g id="Welcome" stroke="none" stroke-width="1" fill="none" fill-rule="evenodd" sketch:type="MSPage">
        <g id="work-item-images" sketch:type="MSArtboardGroup">
            <g id="logo" sketch:type="MSLayerGroup" transform="translate(-19.476630, -94.297850)">
                <rect id="clip-background" stroke="#9B9B9B" stroke-width="0.5" fill="#FFFFFF" sketch:type="MSShapeGroup" x="105" y="314" width="286.757426" height="87.5"></rect>
                <rect id="clip-background" stroke="#9B9B9B" stroke-width="0.5" fill="#FFFFFF" sketch:type="MSShapeGroup" x="59" y="212" width="286.757426" height="87.5"></rect>
                <g id="Logotype-Copy-2" transform="translate(96.000000, 246.000000)">
                    <path d="M65.738391,7.28418182 C65.738391,10.5627437 64.4546835,12.6801164 61.8872301,13.6363636 L67.0124593,20.9545455 L61.4528886,20.9545455 L56.9646935,14.4267273 L53.8374349,14.4267273 L53.8374349,20.9545455 L49.3202837,20.9545455 L49.3202837,0.492909091 L56.9936496,0.492909091 C60.1402279,0.492909091 62.384303,1.02957039 63.7259423,2.10290909 C65.0675815,3.17624779 65.738391,4.90332143 65.738391,7.28418182 L65.738391,7.28418182 Z M60.2946447,9.71381818 C60.8544654,9.20642171 61.1343715,8.40142976 61.1343715,7.29881818 C61.1343715,6.19620661 60.8448134,5.44000205 60.2656886,5.03018182 C59.6865637,4.62036159 58.6731105,4.41545455 57.2252984,4.41545455 L53.8374349,4.41545455 L53.8374349,10.4749091 L57.1384301,10.4749091 C58.682763,10.4749091 59.734824,10.2212147 60.2946447,9.71381818 L60.2946447,9.71381818 Z M77.8433559,4.57645455 C77.4090122,4.93748665 77.1918437,5.41560308 77.1918437,6.01081818 C77.1918437,6.60603328 77.4572719,7.07927097 77.9881363,7.43054545 C78.5190008,7.78181994 79.7447967,8.19651276 81.6655607,8.67463636 C83.5863248,9.15275997 85.0775489,9.86993461 86.1392778,10.8261818 C87.2010067,11.782429 87.7318632,13.1777484 87.7318632,15.0121818 C87.7318632,16.8466152 87.0514017,18.3346307 85.6904583,19.4762727 C84.3295149,20.6179148 82.5390808,21.1887273 80.3191022,21.1887273 C77.1146114,21.1887273 74.2286825,19.9885575 71.661229,17.5881818 L74.3541461,14.2510909 C76.5355164,16.1831006 78.552771,17.1490909 80.4059705,17.1490909 C81.2360494,17.1490909 81.8875551,16.9685776 82.3605071,16.6075455 C82.833459,16.2465133 83.0699315,15.7586394 83.0699315,15.1439091 C83.0699315,14.5291787 82.8189811,14.0413048 82.3170729,13.6802727 C81.8151647,13.3192406 80.8210153,12.9533352 79.3345949,12.5825455 C76.9794872,12.0166032 75.2566166,11.2799136 74.1659315,10.3724545 C73.0752463,9.46499546 72.529912,8.04040365 72.529912,6.09863636 C72.529912,4.15686908 73.2200254,2.65909618 74.6002729,1.60527273 C75.9805205,0.551449276 77.7033911,0.0245454545 79.7689363,0.0245454545 C81.1202277,0.0245454545 82.4714987,0.258724931 83.82279,0.727090909 C85.1740813,1.19545689 86.3516175,1.8589654 87.3554339,2.71763636 L85.0679022,6.05472727 C83.3112235,4.70817509 81.4966595,4.03490909 79.6241559,4.03490909 C78.8712936,4.03490909 78.2776995,4.21542244 77.8433559,4.57645455 L77.8433559,4.57645455 Z M108.263052,2.32245455 C109.681908,3.54215761 110.391326,5.41559342 110.391326,7.94281818 C110.391326,10.4700429 109.662604,12.3190851 108.20514,13.49 C106.747676,14.6609149 104.522905,15.2463636 101.53076,15.2463636 L98.8378426,15.2463636 L98.8378426,20.9545455 L94.3206914,20.9545455 L94.3206914,0.492909091 L101.472848,0.492909091 C104.580818,0.492909091 106.844197,1.10275148 108.263052,2.32245455 L108.263052,2.32245455 Z M104.947579,10.3724545 C105.488096,9.7577242 105.75835,8.86003621 105.75835,7.67936364 C105.75835,6.49869107 105.406054,5.65954794 104.701452,5.16190909 C103.99685,4.66427024 102.901356,4.41545455 101.414935,4.41545455 L98.8378426,4.41545455 L98.8378426,11.2945455 L101.878233,11.2945455 C103.383957,11.2945455 104.407063,10.9871849 104.947579,10.3724545 L104.947579,10.3724545 Z M131.25551,0.492909091 L131.25551,4.56181818 L121.178788,4.56181818 L121.178788,8.77709091 L130.242046,8.77709091 L130.242046,12.6703636 L121.178788,12.6703636 L121.178788,16.9149091 L131.574027,16.9149091 L131.574027,20.9545455 L116.661637,20.9545455 L116.661637,0.492909091 L131.25551,0.492909091 Z M138.336592,0.492909091 L142.853743,0.492909091 L142.853743,8.89418182 L150.498153,0.492909091 L156.08668,0.492909091 L148.036884,9.53818182 C148.731834,10.5139443 150.015542,12.333714 151.888045,14.9975455 C153.760549,17.661377 155.16008,19.6470238 156.08668,20.9545455 L150.81667,20.9545455 L144.88067,12.8752727 L142.853743,15.1585455 L142.853743,20.9545455 L138.336592,20.9545455 L138.336592,0.492909091 Z M170.204093,4.44472727 L170.204093,20.9545455 L165.686942,20.9545455 L165.686942,4.44472727 L159.953635,4.44472727 L159.953635,0.492909091 L175.937401,0.492909091 L175.937401,4.44472727 L170.204093,4.44472727 Z M181.976063,0.492909091 L186.493214,0.492909091 L186.493214,20.9545455 L181.976063,20.9545455 L181.976063,0.492909091 Z M201.682003,13.5192727 L206.836189,0.492909091 L211.729769,0.492909091 L203.593106,20.9545455 L199.770901,20.9545455 L191.634237,0.492909091 L196.527818,0.492909091 L201.682003,13.5192727 Z" id="RSPEKTIV" fill="#467890" sketch:type="MSShapeGroup"></path>
                    <path d="M14.3642927,2.32245455 C15.7831486,3.54215761 16.4925659,5.41559342 16.4925659,7.94281818 C16.4925659,10.4700429 15.7638447,12.3190851 14.3063805,13.49 C12.8489163,14.6609149 10.624145,15.2463636 7.632,15.2463636 L4.93908293,15.2463636 L4.93908293,20.9545455 L0.421931707,20.9545455 L0.421931707,0.492909091 L7.5740878,0.492909091 C10.6820578,0.492909091 12.9454368,1.10275148 14.3642927,2.32245455 L14.3642927,2.32245455 Z M11.0488195,10.3724545 C11.589336,9.7577242 11.8595902,8.86003621 11.8595902,7.67936364 C11.8595902,6.49869107 11.5072946,5.65954794 10.8026927,5.16190909 C10.0980908,4.66427024 9.00259605,4.41545455 7.51617561,4.41545455 L4.93908293,4.41545455 L4.93908293,11.2945455 L7.97947317,11.2945455 C9.48519777,11.2945455 10.508303,10.9871849 11.0488195,10.3724545 L11.0488195,10.3724545 Z" id="P" fill="#467890" sketch:type="MSShapeGroup"></path>
                    <g id="Line-Copy-16">
                        <use stroke="#263B64" stroke-width="4.14140899" stroke-linecap="square" sketch:type="MSShapeGroup" xlink:href="#path-1"></use>
                        <use stroke="none" xlink:href="#path-1"></use>
                    </g>
                    <g id="Line-Copy-18">
                        <use stroke="#263B64" stroke-width="4.14140899" stroke-linecap="square" sketch:type="MSShapeGroup" xlink:href="#path-2"></use>
                        <use stroke="none" xlink:href="#path-2"></use>
                    </g>
                    <g id="Line-Copy-17">
                        <use stroke="#263B64" stroke-width="4.14140899" stroke-linecap="square" sketch:type="MSShapeGroup" xlink:href="#path-3"></use>
                        <use stroke="none" xlink:href="#path-3"></use>
                    </g>
                </g>
            </g>
        </g>
    </g>
</svg>