<?xml version="1.0" encoding="UTF-8" standalone="no"?>
<svg width="863px" height="466px" viewBox="0 0 863 466" version="1.1" xmlns="http://www.w3.org/2000/svg" xmlns:xlink="http://www.w3.org/1999/xlink" xmlns:sketch="http://www.bohemiancoding.com/sketch/ns">
    <!-- Generator: Sketch 3.5.1 (25234) - http://www.bohemiancoding.com/sketch -->
    <title>work-item-images</title>
    <desc>Created with Sketch.</desc>
    <defs></defs>
    <g id="Welcome" stroke="none" stroke-width="1" fill="none" fill-rule="evenodd" sketch:type="MSPage">
        <g id="work-item-images" sketch:type="MSArtboardGroup" fill="#000000">
            <g id="logo" sketch:type="MSLayerGroup" transform="translate(-19.476630, 49.702150)">
                <g id="title-copy" transform="translate(21.000000, 28.000000)" sketch:type="MSShapeGroup">
                    <path d="M19.7727875,21.4676958 C19.4238274,21.6031131 19.1842465,21.8531106 19.0540375,22.2176958 C18.9238285,22.5822809 18.858725,23.1656084 18.858725,23.9676958 L18.858725,39.8426958 C18.858725,40.6447831 18.9238285,41.2255065 19.0540375,41.5848833 C19.1842465,41.9442601 19.4238274,42.1864451 19.7727875,42.3114458 C20.1217476,42.4364464 20.6816378,42.4989458 21.452475,42.4989458 L23.796225,42.4989458 C25.129565,42.4989458 26.1425757,42.3114476 26.8352875,41.9364458 C27.5279993,41.5614439 28.0279943,40.9624916 28.3352875,40.1395708 C28.6425807,39.31665 28.8795575,38.1083287 29.046225,36.5145708 L29.7806,36.5145708 C29.7180997,37.1812408 29.68685,38.056232 29.68685,39.1395708 C29.68685,40.3479101 29.7597659,41.7124798 29.9056,43.2333208 C28.4576761,43.1708205 26.0149922,43.1395708 22.577475,43.1395708 C18.4837045,43.1395708 15.3899855,43.1708205 13.296225,43.2333208 L13.296225,42.5926958 C14.0670622,42.5614456 14.6269524,42.4781131 14.9759125,42.3426958 C15.3248726,42.2072784 15.5644535,41.9572809 15.6946625,41.5926958 C15.8248715,41.2281106 15.889975,40.6447831 15.889975,39.8426958 L15.889975,23.9676958 C15.889975,23.1656084 15.8248715,22.5822809 15.6946625,22.2176958 C15.5644535,21.8531106 15.3248726,21.6031131 14.9759125,21.4676958 C14.6269524,21.3322784 14.0670622,21.2489459 13.296225,21.2176958 L13.296225,20.5770708 C14.1816461,20.6395711 15.5462158,20.6708208 17.389975,20.6708208 C19.1191503,20.6708208 20.4733034,20.6395711 21.452475,20.5770708 L21.452475,21.2176958 C20.6816378,21.2489459 20.1217476,21.3322784 19.7727875,21.4676958 L19.7727875,21.4676958 Z M44.5818785,27.2333208 C45.6704256,27.8479072 46.529792,28.8036268 47.1600035,30.1005083 C47.790215,31.3973898 48.105316,33.0353942 48.105316,35.0145708 C48.105316,36.9937473 47.790215,38.6291476 47.1600035,39.9208208 C46.529792,41.2124939 45.6704256,42.1630052 44.5818785,42.7723833 C43.4933314,43.3817613 42.245948,43.6864458 40.839691,43.6864458 C39.4334339,43.6864458 38.1860506,43.3817613 37.0975035,42.7723833 C36.0089564,42.1630052 35.14959,41.2124939 34.5193785,39.9208208 C33.889167,38.6291476 33.574066,36.9937473 33.574066,35.0145708 C33.574066,33.0353942 33.889167,31.3973898 34.5193785,30.1005083 C35.14959,28.8036268 36.0089564,27.8479072 37.0975035,27.2333208 C38.1860506,26.6187344 39.4334339,26.3114458 40.839691,26.3114458 C42.245948,26.3114458 43.4933314,26.6187344 44.5818785,27.2333208 L44.5818785,27.2333208 Z M37.8006285,28.9208208 C37.0558331,30.2333273 36.683441,32.264557 36.683441,35.0145708 C36.683441,37.7541678 37.0558331,39.7775851 37.8006285,41.0848833 C38.5454239,42.3921815 39.5584346,43.0458208 40.839691,43.0458208 C42.1209474,43.0458208 43.1339581,42.3921815 43.8787535,41.0848833 C44.6235489,39.7775851 44.995941,37.7541678 44.995941,35.0145708 C44.995941,32.264557 44.6235489,30.2333273 43.8787535,28.9208208 C43.1339581,27.6083142 42.1209474,26.9520708 40.839691,26.9520708 C39.5584346,26.9520708 38.5454239,27.6083142 37.8006285,28.9208208 L37.8006285,28.9208208 Z M65.8753444,40.4208208 C66.5680562,40.8895731 66.9144069,41.6447739 66.9144069,42.6864458 C66.9144069,43.7072842 66.5836811,44.7228991 65.9222194,45.7333208 C65.2607578,46.7437425 64.2555595,47.5822758 62.9065944,48.2489458 C61.5576294,48.9156158 59.9092084,49.2489458 57.9612819,49.2489458 C56.846693,49.2489458 55.7972244,49.1369677 54.8128444,48.9130083 C53.8284645,48.6890488 53.0342016,48.3557188 52.4300319,47.9130083 C51.8258623,47.4702977 51.5237819,46.9364489 51.5237819,46.3114458 C51.5237819,45.5822755 51.9065906,44.8765533 52.6722194,44.1942583 C53.4378483,43.5119632 54.3935679,42.915615 55.5394069,42.4051958 L55.4300319,42.4051958 C54.6175279,42.4051958 53.8805561,42.2333225 53.2190944,41.8895708 C52.5576328,41.5458191 52.2269069,40.9052005 52.2269069,39.9676958 C52.2269069,39.2385255 52.5289873,38.5458241 53.1331569,37.8895708 C53.7373266,37.2333175 54.7685663,36.5770741 56.2269069,35.9208208 C55.2894023,35.5562356 54.5602429,34.9937412 54.0394069,34.2333208 C53.518571,33.4729003 53.2581569,32.5145766 53.2581569,31.3583208 C53.2581569,29.6708123 53.7972141,28.4078041 54.8753444,27.5692583 C55.9534748,26.7307124 57.383148,26.3114458 59.1644069,26.3114458 C59.9977444,26.3114458 60.7529452,26.4051948 61.4300319,26.5926958 C61.6383663,25.4051898 62.0133626,24.4572826 62.5550319,23.7489458 C63.1279515,23.0406089 63.8571109,22.6864458 64.7425319,22.6864458 C65.2737846,22.6864458 65.687843,22.8426942 65.9847194,23.1551958 C66.2815959,23.4676973 66.4300319,23.868735 66.4300319,24.3583208 C66.4300319,24.795823 66.2842001,25.1604026 65.9925319,25.4520708 C65.7008638,25.7437389 65.3362841,25.8895708 64.8987819,25.8895708 C64.3571126,25.8895708 63.9664915,25.7255099 63.7269069,25.3973833 C63.4873224,25.0692566 63.3102409,24.5614492 63.1956569,23.8739458 C62.8831554,24.1551972 62.5966999,24.6760253 62.3362819,25.4364458 C62.1800312,25.9051981 62.0706573,26.347902 62.0081569,26.7645708 C62.9769118,27.1187392 63.7321126,27.6786294 64.2737819,28.4442583 C64.8154513,29.2098871 65.0862819,30.1812316 65.0862819,31.3583208 C65.0862819,32.4937431 64.8310762,33.4390462 64.3206569,34.1942583 C63.8102377,34.9494704 63.112328,35.5093606 62.2269069,35.8739458 C61.3414859,36.2385309 60.3206627,36.4208208 59.1644069,36.4208208 C58.2998193,36.4208208 57.5133688,36.3218634 56.8050319,36.1239458 C55.9404443,36.5822814 55.2763884,37.0067563 54.8128444,37.3973833 C54.3493005,37.7880102 54.1175319,38.2072769 54.1175319,38.6551958 C54.1175319,39.0093642 54.2373224,39.2749866 54.4769069,39.4520708 C54.7164915,39.629155 55.1071126,39.7176958 55.6487819,39.7176958 L63.1644069,39.7176958 C64.2789959,39.7176958 65.1826326,39.9520684 65.8753444,40.4208208 L65.8753444,40.4208208 Z M57.0003444,27.8973833 C56.5055503,28.5796783 56.2581569,29.7333126 56.2581569,31.3583208 C56.2581569,32.9833289 56.5055503,34.1369632 57.0003444,34.8192583 C57.4951386,35.5015533 58.2164855,35.8426958 59.1644069,35.8426958 C60.1227451,35.8426958 60.8493003,35.5041575 61.3440944,34.8270708 C61.8388886,34.1499841 62.0862819,32.9937456 62.0862819,31.3583208 C62.0862819,29.7228959 61.8388886,28.5666575 61.3440944,27.8895708 C60.8493003,27.2124841 60.1227451,26.8739458 59.1644069,26.8739458 C58.2164855,26.8739458 57.4951386,27.2150882 57.0003444,27.8973833 L57.0003444,27.8973833 Z M54.7190944,43.8270708 C54.3388842,44.4208237 54.1487819,45.0249844 54.1487819,45.6395708 C54.1487819,46.3270742 54.3779463,46.8999851 54.8362819,47.3583208 C55.2946176,47.8166564 55.8831534,48.1551947 56.6019069,48.3739458 C57.3206605,48.5926969 58.0602365,48.7020708 58.8206569,48.7020708 C59.7685784,48.7020708 60.6956524,48.5328016 61.6019069,48.1942583 C62.5081615,47.8557149 63.2529457,47.3453033 63.8362819,46.6630083 C64.4196182,45.9807132 64.7112819,45.1552006 64.7112819,44.1864458 C64.7112819,43.769777 64.6409701,43.4338429 64.5003444,43.1786333 C64.3597187,42.9234237 64.1123254,42.7307173 63.7581569,42.6005083 C63.4039885,42.4702993 62.9092018,42.4051958 62.2737819,42.4051958 L56.3206569,42.4051958 C55.6331535,42.7593642 55.0993047,43.2333178 54.7190944,43.8270708 L54.7190944,43.8270708 Z M81.3094354,27.2333208 C82.3979825,27.8479072 83.2573489,28.8036268 83.8875604,30.1005083 C84.5177719,31.3973898 84.8328729,33.0353942 84.8328729,35.0145708 C84.8328729,36.9937473 84.5177719,38.6291476 83.8875604,39.9208208 C83.2573489,41.2124939 82.3979825,42.1630052 81.3094354,42.7723833 C80.2208883,43.3817613 78.9735049,43.6864458 77.5672479,43.6864458 C76.1609909,43.6864458 74.9136075,43.3817613 73.8250604,42.7723833 C72.7365133,42.1630052 71.8771469,41.2124939 71.2469354,39.9208208 C70.6167239,38.6291476 70.3016229,36.9937473 70.3016229,35.0145708 C70.3016229,33.0353942 70.6167239,31.3973898 71.2469354,30.1005083 C71.8771469,28.8036268 72.7365133,27.8479072 73.8250604,27.2333208 C74.9136075,26.6187344 76.1609909,26.3114458 77.5672479,26.3114458 C78.9735049,26.3114458 80.2208883,26.6187344 81.3094354,27.2333208 L81.3094354,27.2333208 Z M74.5281854,28.9208208 C73.78339,30.2333273 73.4109979,32.264557 73.4109979,35.0145708 C73.4109979,37.7541678 73.78339,39.7775851 74.5281854,41.0848833 C75.2729808,42.3921815 76.2859915,43.0458208 77.5672479,43.0458208 C78.8485043,43.0458208 79.861515,42.3921815 80.6063104,41.0848833 C81.3511058,39.7775851 81.7234979,37.7541678 81.7234979,35.0145708 C81.7234979,32.264557 81.3511058,30.2333273 80.6063104,28.9208208 C79.861515,27.6083142 78.8485043,26.9520708 77.5672479,26.9520708 C76.2859915,26.9520708 75.2729808,27.6083142 74.5281854,28.9208208 L74.5281854,28.9208208 Z M101.388555,20.6864458 L102.169805,20.6708208 C105.10732,20.6083205 106.716678,20.5770708 106.99793,20.5770708 C110.768782,20.5770708 113.594275,21.5197697 115.474492,23.4051958 C117.35471,25.2906219 118.294805,28.0405944 118.294805,31.6551958 C118.294805,33.9781241 117.83908,36.0119579 116.927617,37.7567583 C116.016154,39.5015587 114.690647,40.8505035 112.951055,41.8036333 C111.211463,42.756763 109.133359,43.2333208 106.71668,43.2333208 C106.425012,43.2333208 105.729706,43.2176959 104.630742,43.1864458 C103.531779,43.1551956 102.732307,43.1395708 102.232305,43.1395708 C100.482296,43.1395708 99.1593927,43.1708205 98.2635549,43.2333208 L98.2635549,42.5926958 C99.034392,42.5614456 99.5942823,42.4781131 99.9432424,42.3426958 C100.292202,42.2072784 100.531783,41.9572809 100.661992,41.5926958 C100.792201,41.2281106 100.857305,40.6447831 100.857305,39.8426958 L100.857305,23.9676958 C100.857305,23.1656084 100.792201,22.5822809 100.661992,22.2176958 C100.531783,21.8531106 100.292202,21.6031131 99.9432424,21.4676958 C99.5942823,21.3322784 99.034392,21.2489459 98.2635549,21.2176958 L98.2635549,20.5770708 C99.4093939,20.6499878 100.45105,20.6864458 101.388555,20.6864458 L101.388555,20.6864458 Z M104.013555,41.6317583 C104.138555,42.0119685 104.370324,42.2775908 104.708867,42.4286333 C105.047411,42.5796757 105.555218,42.6551958 106.232305,42.6551958 C108.50315,42.6551958 110.284382,42.2437416 111.576055,41.4208208 C112.867728,40.5979 113.776573,39.3973912 114.302617,37.8192583 C114.828662,36.2411254 115.09168,34.2281247 115.09168,31.7801958 C115.09168,29.3218501 114.805224,27.319266 114.232305,25.7723833 C113.659385,24.2255005 112.724499,23.0692621 111.427617,22.3036333 C110.130736,21.5380044 108.388566,21.1551958 106.201055,21.1551958 C105.534385,21.1551958 105.03439,21.2307158 104.701055,21.3817583 C104.36772,21.5328007 104.138555,21.8010272 104.013555,22.1864458 C103.888554,22.5718644 103.826055,23.1447753 103.826055,23.9051958 L103.826055,39.9051958 C103.826055,40.676033 103.888554,41.251548 104.013555,41.6317583 L104.013555,41.6317583 Z M134.986708,41.4911333 C134.439831,42.1421782 133.757546,42.6708187 132.939833,43.0770708 C132.122121,43.4833228 131.208068,43.6864458 130.197646,43.6864458 C128.676805,43.6864458 127.361714,43.3400951 126.252333,42.6473833 C125.142953,41.9546715 124.296607,40.9807229 123.713271,39.7255083 C123.129935,38.4702937 122.838271,37.0249956 122.838271,35.3895708 C122.838271,33.5353948 123.135143,31.9260359 123.728896,30.5614458 C124.322649,29.1968556 125.163786,28.1473869 126.252333,27.4130083 C127.34088,26.6786296 128.614305,26.3114458 130.072646,26.3114458 C131.989322,26.3114458 133.46587,26.8921691 134.502333,28.0536333 C135.538797,29.2150974 136.057021,30.9781006 136.057021,33.3426958 L126.057021,33.3426958 C125.984104,33.8947819 125.947646,34.5770667 125.947646,35.3895708 C125.947646,36.7958278 126.179414,38.0249822 126.642958,39.0770708 C127.106502,40.1291594 127.713267,40.936443 128.463271,41.4989458 C129.213275,42.0614486 130.004933,42.3426958 130.838271,42.3426958 C132.984115,42.3426958 134.551808,41.2749981 135.541396,39.1395708 L136.182021,39.3895708 C135.93202,40.1395745 135.533586,40.8400883 134.986708,41.4911333 L134.986708,41.4911333 Z M132.713271,29.8114458 C132.49452,28.9260247 132.150773,28.2229067 131.682021,27.7020708 C131.213268,27.1812348 130.635149,26.9208208 129.947646,26.9208208 C129.291393,26.9208208 128.687232,27.1317562 128.135146,27.5536333 C127.58306,27.9755104 127.116919,28.6213373 126.736708,29.4911333 C126.356498,30.3609293 126.114313,31.4416476 126.010146,32.7333208 L132.978896,32.7333208 C133.020563,31.6708155 132.932022,30.6968669 132.713271,29.8114458 L132.713271,29.8114458 Z M142.162987,40.3270708 C142.454655,41.1812417 142.902567,41.8479017 143.506737,42.3270708 C144.110906,42.8062398 144.923398,43.0458208 145.944237,43.0458208 C146.412989,43.0458208 146.863505,42.9442593 147.295799,42.7411333 C147.728093,42.5380073 148.08486,42.2098855 148.366112,41.7567583 C148.647363,41.303631 148.787987,40.7176994 148.787987,39.9989458 C148.787987,39.4156095 148.639551,38.8921773 148.342674,38.4286333 C148.045798,37.9650893 147.657781,37.5484268 147.178612,37.1786333 C146.699443,36.8088398 146.027574,36.3531151 145.162987,35.8114458 C144.110898,35.1447758 143.306219,34.5979062 142.748924,34.1708208 C142.19163,33.7437353 141.72028,33.2229072 141.334862,32.6083208 C140.949443,31.9937344 140.756737,31.2697833 140.756737,30.4364458 C140.756737,29.5301912 140.970276,28.767178 141.397362,28.1473833 C141.824447,27.5275885 142.394754,27.0666556 143.108299,26.7645708 C143.821845,26.4624859 144.616107,26.3114458 145.491112,26.3114458 C146.241116,26.3114458 146.915588,26.4312362 147.514549,26.6708208 C148.113511,26.9104053 148.600485,27.1812359 148.975487,27.4833208 C149.204655,27.660405 149.392153,27.7489458 149.537987,27.7489458 C149.912989,27.7489458 150.15257,27.2802005 150.256737,26.3426958 L150.991112,26.3426958 C150.907778,27.3843676 150.866112,29.1968495 150.866112,31.7801958 L150.131737,31.7801958 C149.902569,30.3739387 149.449449,29.212492 148.772362,28.2958208 C148.095275,27.3791495 147.095285,26.9208208 145.772362,26.9208208 C145.001525,26.9208208 144.371323,27.1369644 143.881737,27.5692583 C143.392151,28.0015521 143.147362,28.6031086 143.147362,29.3739458 C143.147362,30.1135328 143.399963,30.7307141 143.905174,31.2255083 C144.410385,31.7203024 145.019754,32.1916519 145.733299,32.6395708 C146.446845,33.0874897 146.954652,33.4104031 147.256737,33.6083208 C148.235908,34.2437406 149.024963,34.8088391 149.623924,35.3036333 C150.222886,35.7984274 150.707256,36.3661301 151.077049,37.0067583 C151.446843,37.6473865 151.631737,38.37915 151.631737,39.2020708 C151.631737,40.1499922 151.384343,40.9598799 150.889549,41.6317583 C150.394755,42.3036366 149.730699,42.8140482 148.897362,43.1630083 C148.064024,43.5119683 147.152575,43.6864458 146.162987,43.6864458 C145.215065,43.6864458 144.371324,43.5354056 143.631737,43.2333208 C143.215068,43.0249864 142.777572,42.7385309 142.319237,42.3739458 C142.235903,42.290612 142.136946,42.2489458 142.022362,42.2489458 C141.70986,42.2489458 141.491112,42.6499834 141.366112,43.4520708 L140.631737,43.4520708 C140.715071,42.2333147 140.756737,40.1031276 140.756737,37.0614458 L141.491112,37.0614458 C141.647363,38.3843691 141.871319,39.4728998 142.162987,40.3270708 L142.162987,40.3270708 Z M160.034578,19.0301958 C160.347079,19.2176967 160.597077,19.4676942 160.784578,19.7801958 C160.972079,20.0926973 161.065828,20.4312356 161.065828,20.7958208 C161.065828,21.1604059 160.972079,21.5015483 160.784578,21.8192583 C160.597077,22.1369682 160.347079,22.3869657 160.034578,22.5692583 C159.722076,22.7515508 159.383538,22.8426958 159.018953,22.8426958 C158.654368,22.8426958 158.313225,22.7515508 157.995515,22.5692583 C157.677805,22.3869657 157.427808,22.1369682 157.245515,21.8192583 C157.063223,21.5015483 156.972078,21.1604059 156.972078,20.7958208 C156.972078,20.4312356 157.063223,20.0926973 157.245515,19.7801958 C157.427808,19.4676942 157.677805,19.2176967 157.995515,19.0301958 C158.313225,18.8426948 158.654368,18.7489458 159.018953,18.7489458 C159.383538,18.7489458 159.722076,18.8426948 160.034578,19.0301958 L160.034578,19.0301958 Z M160.91739,41.6551958 C161.078849,41.9885308 161.334055,42.2229034 161.683015,42.3583208 C162.031975,42.4937381 162.508533,42.5614458 163.112703,42.5614458 L163.112703,43.2333208 C161.15436,43.149987 159.862706,43.1083208 159.237703,43.1083208 C158.6127,43.1083208 157.321046,43.149987 155.362703,43.2333208 L155.362703,42.5614458 C155.966872,42.5614458 156.44343,42.4937381 156.79239,42.3583208 C157.14135,42.2229034 157.396556,41.9885308 157.558015,41.6551958 C157.719474,41.3218608 157.800203,40.8583237 157.800203,40.2645708 L157.800203,30.2489458 C157.800203,29.2593575 157.620517,28.5406147 157.26114,28.0926958 C156.901763,27.6447769 156.268957,27.4208208 155.362703,27.4208208 L155.362703,26.7489458 C156.029373,26.8114461 156.690824,26.8426958 157.347078,26.8426958 C158.701251,26.8426958 159.810615,26.6968639 160.675203,26.4051958 L160.675203,40.2645708 C160.675203,40.8583237 160.755931,41.3218608 160.91739,41.6551958 L160.91739,41.6551958 Z M180.085856,40.4208208 C180.778568,40.8895731 181.124919,41.6447739 181.124919,42.6864458 C181.124919,43.7072842 180.794193,44.7228991 180.132731,45.7333208 C179.47127,46.7437425 178.466071,47.5822758 177.117106,48.2489458 C175.768141,48.9156158 174.11972,49.2489458 172.171794,49.2489458 C171.057205,49.2489458 170.007736,49.1369677 169.023356,48.9130083 C168.038976,48.6890488 167.244713,48.3557188 166.640544,47.9130083 C166.036374,47.4702977 165.734294,46.9364489 165.734294,46.3114458 C165.734294,45.5822755 166.117102,44.8765533 166.882731,44.1942583 C167.64836,43.5119632 168.60408,42.915615 169.749919,42.4051958 L169.640544,42.4051958 C168.82804,42.4051958 168.091068,42.2333225 167.429606,41.8895708 C166.768145,41.5458191 166.437419,40.9052005 166.437419,39.9676958 C166.437419,39.2385255 166.739499,38.5458241 167.343669,37.8895708 C167.947838,37.2333175 168.979078,36.5770741 170.437419,35.9208208 C169.499914,35.5562356 168.770755,34.9937412 168.249919,34.2333208 C167.729083,33.4729003 167.468669,32.5145766 167.468669,31.3583208 C167.468669,29.6708123 168.007726,28.4078041 169.085856,27.5692583 C170.163987,26.7307124 171.59366,26.3114458 173.374919,26.3114458 C174.208256,26.3114458 174.963457,26.4051948 175.640544,26.5926958 C175.848878,25.4051898 176.223874,24.4572826 176.765544,23.7489458 C177.338463,23.0406089 178.067623,22.6864458 178.953044,22.6864458 C179.484296,22.6864458 179.898355,22.8426942 180.195231,23.1551958 C180.492108,23.4676973 180.640544,23.868735 180.640544,24.3583208 C180.640544,24.795823 180.494712,25.1604026 180.203044,25.4520708 C179.911376,25.7437389 179.546796,25.8895708 179.109294,25.8895708 C178.567624,25.8895708 178.177003,25.7255099 177.937419,25.3973833 C177.697834,25.0692566 177.520753,24.5614492 177.406169,23.8739458 C177.093667,24.1551972 176.807212,24.6760253 176.546794,25.4364458 C176.390543,25.9051981 176.281169,26.347902 176.218669,26.7645708 C177.187424,27.1187392 177.942624,27.6786294 178.484294,28.4442583 C179.025963,29.2098871 179.296794,30.1812316 179.296794,31.3583208 C179.296794,32.4937431 179.041588,33.4390462 178.531169,34.1942583 C178.02075,34.9494704 177.32284,35.5093606 176.437419,35.8739458 C175.551998,36.2385309 174.531175,36.4208208 173.374919,36.4208208 C172.510331,36.4208208 171.723881,36.3218634 171.015544,36.1239458 C170.150956,36.5822814 169.4869,37.0067563 169.023356,37.3973833 C168.559812,37.7880102 168.328044,38.2072769 168.328044,38.6551958 C168.328044,39.0093642 168.447834,39.2749866 168.687419,39.4520708 C168.927003,39.629155 169.317624,39.7176958 169.859294,39.7176958 L177.374919,39.7176958 C178.489508,39.7176958 179.393144,39.9520684 180.085856,40.4208208 L180.085856,40.4208208 Z M171.210856,27.8973833 C170.716062,28.5796783 170.468669,29.7333126 170.468669,31.3583208 C170.468669,32.9833289 170.716062,34.1369632 171.210856,34.8192583 C171.70565,35.5015533 172.426997,35.8426958 173.374919,35.8426958 C174.333257,35.8426958 175.059812,35.5041575 175.554606,34.8270708 C176.0494,34.1499841 176.296794,32.9937456 176.296794,31.3583208 C176.296794,29.7228959 176.0494,28.5666575 175.554606,27.8895708 C175.059812,27.2124841 174.333257,26.8739458 173.374919,26.8739458 C172.426997,26.8739458 171.70565,27.2150882 171.210856,27.8973833 L171.210856,27.8973833 Z M168.929606,43.8270708 C168.549396,44.4208237 168.359294,45.0249844 168.359294,45.6395708 C168.359294,46.3270742 168.588458,46.8999851 169.046794,47.3583208 C169.505129,47.8166564 170.093665,48.1551947 170.812419,48.3739458 C171.531172,48.5926969 172.270748,48.7020708 173.031169,48.7020708 C173.97909,48.7020708 174.906164,48.5328016 175.812419,48.1942583 C176.718673,47.8557149 177.463457,47.3453033 178.046794,46.6630083 C178.63013,45.9807132 178.921794,45.1552006 178.921794,44.1864458 C178.921794,43.769777 178.851482,43.4338429 178.710856,43.1786333 C178.570231,42.9234237 178.322837,42.7307173 177.968669,42.6005083 C177.6145,42.4702993 177.119714,42.4051958 176.484294,42.4051958 L170.531169,42.4051958 C169.843665,42.7593642 169.309816,43.2333178 168.929606,43.8270708 L168.929606,43.8270708 Z M191.473072,27.2255083 C192.426202,26.6161302 193.501712,26.3114458 194.699635,26.3114458 C196.189226,26.3114458 197.319423,26.7124834 198.09026,27.5145708 C198.486095,27.952073 198.769946,28.4911301 198.941822,29.1317583 C199.113698,29.7723865 199.199635,30.634357 199.199635,31.7176958 L199.199635,40.2645708 C199.199635,40.8583237 199.280363,41.3218608 199.441822,41.6551958 C199.603281,41.9885308 199.858487,42.2229034 200.207447,42.3583208 C200.556407,42.4937381 201.032965,42.5614458 201.637135,42.5614458 L201.637135,43.2333208 C199.678792,43.149987 198.397554,43.1083208 197.793385,43.1083208 C197.199632,43.1083208 196.006935,43.149987 194.21526,43.2333208 L194.21526,42.5614458 C194.746512,42.5614458 195.160571,42.4937381 195.457447,42.3583208 C195.754324,42.2229034 195.973072,41.9885308 196.113697,41.6551958 C196.254323,41.3218608 196.324635,40.8583237 196.324635,40.2645708 L196.324635,31.0145708 C196.324635,30.2437336 196.264739,29.5979067 196.144947,29.0770708 C196.025155,28.5562348 195.775157,28.1343641 195.394947,27.8114458 C195.014737,27.4885275 194.460055,27.3270708 193.730885,27.3270708 C192.85588,27.3270708 192.077242,27.5822766 191.394947,28.0926958 C190.712652,28.603115 190.184012,29.3036288 189.80901,30.1942583 C189.434008,31.0848877 189.24651,32.071857 189.24651,33.1551958 L189.24651,40.2645708 C189.24651,40.8583237 189.316822,41.3218608 189.457447,41.6551958 C189.598073,41.9885308 189.819425,42.2229034 190.12151,42.3583208 C190.423595,42.4937381 190.840257,42.5614458 191.37151,42.5614458 L191.37151,43.2333208 C189.579834,43.149987 188.381929,43.1083208 187.77776,43.1083208 C187.17359,43.1083208 185.892353,43.149987 183.93401,43.2333208 L183.93401,42.5614458 C184.538179,42.5614458 185.014737,42.4937381 185.363697,42.3583208 C185.712657,42.2229034 185.967863,41.9885308 186.129322,41.6551958 C186.290781,41.3218608 186.37151,40.8583237 186.37151,40.2645708 L186.37151,30.2489458 C186.37151,29.2593575 186.191824,28.5406147 185.832447,28.0926958 C185.47307,27.6447769 184.840264,27.4208208 183.93401,27.4208208 L183.93401,26.7489458 C184.60068,26.8114461 185.262131,26.8426958 185.918385,26.8426958 C187.272558,26.8426958 188.381922,26.6968639 189.24651,26.4051958 L189.24651,30.1708208 C189.777762,28.8166473 190.519942,27.8348863 191.473072,27.2255083 L191.473072,27.2255083 Z" id="Logo-Design"></path>
                    <path d="M22.5976563,64.1328125 C23.3606809,64.5911481 23.9518208,65.2565061 24.3710938,66.1289062 C24.7903667,67.0013064 25,68.0390565 25,69.2421875 C25,70.4192767 24.7838563,71.460933 24.3515625,72.3671875 C23.9192687,73.273442 23.3177122,73.97656 22.546875,74.4765625 C21.7760378,74.976565 20.8984424,75.2265625 19.9140625,75.2265625 C18.8984324,75.2265625 18.0091184,74.9973981 17.2460938,74.5390625 C16.4830691,74.0807269 15.8919292,73.4153689 15.4726563,72.5429688 C15.0533833,71.6705686 14.84375,70.6328185 14.84375,69.4296875 C14.84375,68.2525983 15.0598937,67.210942 15.4921875,66.3046875 C15.9244813,65.398433 16.5260378,64.695315 17.296875,64.1953125 C18.0677122,63.69531 18.9453076,63.4453125 19.9296875,63.4453125 C20.9453176,63.4453125 21.8346316,63.6744769 22.5976563,64.1328125 L22.5976563,64.1328125 Z M18.0625,64.4492188 C17.5416641,64.9257836 17.1406264,65.5898395 16.859375,66.4414062 C16.5781236,67.292973 16.4375,68.2682237 16.4375,69.3671875 C16.4375,70.476568 16.5937484,71.4531208 16.90625,72.296875 C17.2187516,73.1406292 17.6445286,73.7916644 18.1835938,74.25 C18.7226589,74.7083356 19.3203092,74.9375 19.9765625,74.9375 C20.6588576,74.9375 21.259112,74.6992211 21.7773438,74.2226562 C22.2955755,73.7460914 22.6953111,73.0820355 22.9765625,72.2304688 C23.2578139,71.378902 23.3984375,70.4036513 23.3984375,69.3046875 C23.3984375,68.195307 23.2421891,67.2187542 22.9296875,66.375 C22.6171859,65.5312458 22.192711,64.8802106 21.65625,64.421875 C21.119789,63.9635394 20.5234408,63.734375 19.8671875,63.734375 C19.1848924,63.734375 18.5833359,63.9726539 18.0625,64.4492188 L18.0625,64.4492188 Z M33.1701705,74.0742188 C32.9201692,74.4101579 32.5933496,74.6861968 32.1897017,74.9023438 C31.7860539,75.1184907 31.3160065,75.2265625 30.7795455,75.2265625 C30.1128755,75.2265625 29.511319,75.0546892 28.974858,74.7109375 C28.438397,74.3671858 28.0152241,73.8750032 27.7053267,73.234375 C27.3954294,72.5937468 27.240483,71.8437543 27.240483,70.984375 C27.240483,70.1197873 27.3980335,69.3502638 27.7131392,68.6757812 C28.028245,68.0012987 28.4696468,67.4765644 29.037358,67.1015625 C29.6050692,66.7265606 30.2482919,66.5390625 30.9670455,66.5390625 C31.6857991,66.5390625 32.3055845,66.7083316 32.8264205,67.046875 C33.326423,67.3854184 33.5764205,67.7968726 33.5764205,68.28125 C33.5764205,68.5625014 33.4969942,68.7825513 33.3381392,68.9414062 C33.1792843,69.1002612 32.9774634,69.1796875 32.7326705,69.1796875 C32.4826692,69.1796875 32.2730359,69.1080736 32.1037642,68.9648438 C31.9344926,68.8216139 31.849858,68.6250012 31.849858,68.375 C31.849858,68.1458322 31.9136594,67.9544279 32.0412642,67.8007812 C32.168869,67.6471346 32.3290237,67.5442711 32.521733,67.4921875 C32.4175658,67.2994782 32.2274635,67.1393236 31.9514205,67.0117188 C31.6753774,66.8841139 31.3863178,66.8203125 31.084233,66.8203125 C30.693606,66.8203125 30.3264222,66.9453113 29.9826705,67.1953125 C29.6389188,67.4453137 29.3550674,67.8619762 29.131108,68.4453125 C28.9071485,69.0286488 28.7951705,69.7942661 28.7951705,70.7421875 C28.7951705,72.0703191 29.00871,73.0351532 29.4357955,73.6367188 C29.862881,74.2382843 30.4175629,74.5390625 31.099858,74.5390625 C31.5529853,74.5390625 31.9865747,74.4062513 32.4006392,74.140625 C32.8147038,73.8749987 33.1545442,73.4583362 33.4201705,72.890625 L33.724858,73 C33.6050657,73.3802102 33.4201717,73.7382796 33.1701705,74.0742188 L33.1701705,74.0742188 Z M40.3481535,66.7734375 L40.3481535,67.09375 L37.980966,67.09375 L37.980966,73.2890625 C37.980966,73.7734399 38.0669026,74.1210927 38.2387785,74.3320312 C38.4106543,74.5429698 38.6658601,74.6484375 39.0044035,74.6484375 C39.3377385,74.6484375 39.6215898,74.5156263 39.855966,74.25 C40.0903421,73.9843737 40.2882568,73.546878 40.449716,72.9375 L40.762216,73.015625 C40.501798,74.4895907 39.8090966,75.2265625 38.684091,75.2265625 C38.3247142,75.2265625 38.0278421,75.1835942 37.793466,75.0976562 C37.5590898,75.0117183 37.3507586,74.8776051 37.168466,74.6953125 C36.9392982,74.4609363 36.7778414,74.1731788 36.684091,73.8320312 C36.5903405,73.4908837 36.543466,73.0312529 36.543466,72.453125 L36.543466,67.09375 L35.0044035,67.09375 L35.0044035,66.7734375 L36.543466,66.7734375 L36.543466,64.328125 C37.1424273,64.3124999 37.6215892,64.2369798 37.980966,64.1015625 L37.980966,66.7734375 L40.3481535,66.7734375 Z M47.5066052,67 C48.0508788,67.3072932 48.480562,67.785153 48.7956677,68.4335938 C49.1107735,69.0820345 49.268324,69.9010367 49.268324,70.890625 C49.268324,71.8802133 49.1107735,72.6979134 48.7956677,73.34375 C48.480562,73.9895866 48.0508788,74.4648422 47.5066052,74.7695312 C46.9623317,75.0742203 46.33864,75.2265625 45.6355115,75.2265625 C44.9323829,75.2265625 44.3086913,75.0742203 43.7644177,74.7695312 C43.2201442,74.4648422 42.790461,73.9895866 42.4753552,73.34375 C42.1602495,72.6979134 42.002699,71.8802133 42.002699,70.890625 C42.002699,69.9010367 42.1602495,69.0820345 42.4753552,68.4335938 C42.790461,67.785153 43.2201442,67.3072932 43.7644177,67 C44.3086913,66.6927068 44.9323829,66.5390625 45.6355115,66.5390625 C46.33864,66.5390625 46.9623317,66.6927068 47.5066052,67 L47.5066052,67 Z M44.1159802,67.84375 C43.7435825,68.5000033 43.5573865,69.5156181 43.5573865,70.890625 C43.5573865,72.2604235 43.7435825,73.2721321 44.1159802,73.9257812 C44.4883779,74.5794304 44.9948833,74.90625 45.6355115,74.90625 C46.2761397,74.90625 46.782645,74.5794304 47.1550427,73.9257812 C47.5274404,73.2721321 47.7136365,72.2604235 47.7136365,70.890625 C47.7136365,69.5156181 47.5274404,68.5000033 47.1550427,67.84375 C46.782645,67.1874967 46.2761397,66.859375 45.6355115,66.859375 C44.9948833,66.859375 44.4883779,67.1874967 44.1159802,67.84375 L44.1159802,67.84375 Z M54.4150569,66.9882812 C54.8525591,66.6888006 55.3473459,66.5390625 55.8994319,66.5390625 C56.4931849,66.5390625 57.0179192,66.7018213 57.4736507,67.0273438 C57.9293821,67.3528662 58.2874515,67.8424446 58.5478694,68.4960938 C58.8082874,69.1497429 58.9384944,69.947912 58.9384944,70.890625 C58.9384944,71.8125046 58.7783398,72.6002571 58.4580257,73.2539062 C58.1377116,73.9075554 57.7067263,74.3997379 57.1650569,74.7304688 C56.6233876,75.0611996 56.0244352,75.2265625 55.3681819,75.2265625 C54.977555,75.2265625 54.5973505,75.1471362 54.2275569,74.9882812 C53.8577634,74.8294263 53.53485,74.5963557 53.2588069,74.2890625 L52.1181819,75.2578125 L51.8525569,75.140625 C51.925474,74.880207 51.9619319,74.5729184 51.9619319,74.21875 L51.9619319,64.390625 C51.9619319,63.8958309 51.8720891,63.5377615 51.6924007,63.3164062 C51.5127123,63.095051 51.1963092,62.984375 50.7431819,62.984375 L50.7431819,62.6484375 C51.0817253,62.6796877 51.4124512,62.6953125 51.7353694,62.6953125 C52.4228729,62.6953125 52.9775548,62.6197924 53.3994319,62.46875 L53.3994319,68.25 C53.6390165,67.7083306 53.9775548,67.2877619 54.4150569,66.9882812 L54.4150569,66.9882812 Z M54.2549007,74.65625 C54.5752148,74.7916673 54.9046386,74.859375 55.2431819,74.859375 C55.9619355,74.859375 56.4983885,74.5351595 56.8525569,73.8867188 C57.2067254,73.238278 57.3838069,72.2395901 57.3838069,70.890625 C57.3838069,69.5885352 57.2236523,68.6171907 56.9033382,67.9765625 C56.5830241,67.3359343 56.0921436,67.015625 55.4306819,67.015625 C55.1442222,67.015625 54.8655791,67.0924471 54.5947444,67.2460938 C54.3239098,67.3997404 54.0830267,67.6263006 53.8720882,67.9257812 C53.6611496,68.2252619 53.5035991,68.5859354 53.3994319,69.0078125 L53.3994319,74.0625 C53.6494332,74.322918 53.9345866,74.5208327 54.2549007,74.65625 L54.2549007,74.65625 Z M67.1438212,74.1289062 C66.8703823,74.4544287 66.5292399,74.718749 66.1203837,74.921875 C65.7115275,75.125001 65.2545008,75.2265625 64.7492899,75.2265625 C63.9888695,75.2265625 63.331324,75.0533871 62.7766337,74.7070312 C62.2219434,74.3606754 61.7987706,73.8737011 61.5071024,73.2460938 C61.2154343,72.6184864 61.0696024,71.8958374 61.0696024,71.078125 C61.0696024,70.151037 61.2180384,69.3463576 61.5149149,68.6640625 C61.8117914,67.9817674 62.2323601,67.4570331 62.7766337,67.0898438 C63.3209072,66.7226544 63.9576196,66.5390625 64.6867899,66.5390625 C65.6451281,66.5390625 66.3834019,66.8294242 66.9016337,67.4101562 C67.4198654,67.9908883 67.6789774,68.8723899 67.6789774,70.0546875 L62.6789774,70.0546875 C62.6425189,70.3307305 62.6242899,70.671873 62.6242899,71.078125 C62.6242899,71.7812535 62.7401742,72.3958307 62.9719462,72.921875 C63.2037182,73.4479193 63.5071006,73.8515611 63.8821024,74.1328125 C64.2571043,74.4140639 64.6529337,74.5546875 65.0696024,74.5546875 C66.1425245,74.5546875 66.9263708,74.0208387 67.4211649,72.953125 L67.7414774,73.078125 C67.6164768,73.4531269 67.41726,73.8033838 67.1438212,74.1289062 L67.1438212,74.1289062 Z M66.0071024,68.2890625 C65.8977269,67.846352 65.7258536,67.494793 65.4914774,67.234375 C65.2571013,66.973957 64.9680416,66.84375 64.6242899,66.84375 C64.2961633,66.84375 63.994083,66.9492177 63.7180399,67.1601562 C63.4419969,67.3710948 63.2089263,67.6940082 63.0188212,68.1289062 C62.8287161,68.5638043 62.7076235,69.1041634 62.6555399,69.75 L66.1399149,69.75 C66.1607484,69.2187473 66.116478,68.731773 66.0071024,68.2890625 L66.0071024,68.2890625 Z M72.7202417,67.6171875 C72.9468053,67.3046859 73.2163339,67.046876 73.5288354,66.84375 C73.841337,66.640624 74.1720628,66.5390625 74.5210229,66.5390625 C74.8022743,66.5390625 75.0535739,66.5950515 75.2749292,66.7070312 C75.4962844,66.819011 75.6694598,66.9713532 75.7944604,67.1640625 C75.919461,67.3567718 75.9819604,67.5677072 75.9819604,67.796875 C75.9819604,68.0781264 75.8986279,68.3164053 75.7319604,68.5117188 C75.5652929,68.7070322 75.343941,68.8046875 75.0678979,68.8046875 C74.8335217,68.8046875 74.6330029,68.7304695 74.4663354,68.5820312 C74.2996679,68.433593 74.2163354,68.2317721 74.2163354,67.9765625 C74.2163354,67.6276024 74.3986253,67.3385428 74.7632104,67.109375 C74.6902934,67.0052078 74.5783153,66.953125 74.4272729,66.953125 C74.0053958,66.953125 73.6251913,67.1145817 73.2866479,67.4375 C72.9481046,67.7604183 72.6824822,68.1588518 72.4897729,68.6328125 C72.2970636,69.1067732 72.2007104,69.5494771 72.2007104,69.9609375 L72.2007104,73.3515625 C72.2007104,73.8463566 72.341334,74.1888011 72.6225854,74.3789062 C72.9038368,74.5690114 73.3283117,74.6640625 73.8960229,74.6640625 L73.8960229,75 C72.5835164,74.9583331 71.7632121,74.9375 71.4350854,74.9375 C71.153834,74.9375 70.523632,74.9583331 69.5444604,75 L69.5444604,74.6640625 C69.8465453,74.6640625 70.0848241,74.6302087 70.2593042,74.5625 C70.4337842,74.4947913 70.5613871,74.377605 70.6421167,74.2109375 C70.7228462,74.04427 70.7632104,73.8125015 70.7632104,73.515625 L70.7632104,68.5078125 C70.7632104,68.0130184 70.6733676,67.653647 70.4936792,67.4296875 C70.3139908,67.205728 69.9975877,67.09375 69.5444604,67.09375 L69.5444604,66.7578125 C69.8777954,66.7890627 70.2085213,66.8046875 70.5366479,66.8046875 C71.2137346,66.8046875 71.7684166,66.7317716 72.2007104,66.5859375 L72.2007104,68.5859375 C72.3205027,68.2526025 72.493678,67.9296891 72.7202417,67.6171875 L72.7202417,67.6171875 Z M83.1035514,67.1015625 C83.619179,66.7265606 84.2728183,66.5390625 85.0644889,66.5390625 C85.8092843,66.5390625 86.3952159,66.714842 86.8223014,67.0664062 C87.2493869,67.4179705 87.4629264,67.9140593 87.4629264,68.5546875 C87.4629264,69.184899 87.2545951,69.7656223 86.8379264,70.296875 C86.4212576,70.8281277 85.817097,71.4518193 85.0254264,72.1679688 C84.2337558,72.8841182 83.7077194,73.4166649 83.4473014,73.765625 L86.6973014,73.765625 C86.9889695,73.765625 87.2051132,73.7408857 87.3457389,73.6914062 C87.4863646,73.6419268 87.5853219,73.5625005 87.6426139,73.453125 C87.6999058,73.3437495 87.7415721,73.1770845 87.7676139,72.953125 L88.0410514,72.953125 C88.0410514,73.9322966 88.0618845,74.6406228 88.1035514,75.078125 C87.8639669,75.0260414 87.069704,75 85.7207389,75 L81.9707389,75 L81.9707389,74.7265625 C82.1478231,74.5338532 82.6243808,74.0742224 83.4004264,73.3476562 C84.1764719,72.6210901 84.788445,71.8984411 85.2363639,71.1796875 C85.6842828,70.4609339 85.9082389,69.703129 85.9082389,68.90625 C85.9082389,67.7552026 85.3743901,67.1796875 84.3066764,67.1796875 C83.4368804,67.1796875 82.7233458,67.6796825 82.1660514,68.6796875 L81.9082389,68.5390625 C82.1894903,67.9557262 82.5879238,67.4765644 83.1035514,67.1015625 L83.1035514,67.1015625 Z M96.3557531,67.0625 C96.9416936,67.4114601 97.4000223,67.9036427 97.7307531,68.5390625 C98.0614839,69.1744823 98.2268469,69.90885 98.2268469,70.7421875 C98.2268469,71.5911501 98.0562757,72.3567674 97.7151281,73.0390625 C97.3739806,73.7213576 96.8974229,74.2565085 96.2854406,74.6445312 C95.6734584,75.032554 94.9716425,75.2265625 94.1799719,75.2265625 C93.4403848,75.2265625 92.776329,75.0520851 92.1877844,74.703125 C91.5992398,74.3541649 91.1383069,73.8606803 90.8049719,73.2226562 C90.4716369,72.5846322 90.3049719,71.8437542 90.3049719,71 C90.3049719,70.1562458 90.4729389,69.3958367 90.8088781,68.71875 C91.1448173,68.0416633 91.620073,67.5091165 92.2346594,67.1210938 C92.8492458,66.733071 93.557572,66.5390625 94.3596594,66.5390625 C95.1044548,66.5390625 95.7698127,66.7135399 96.3557531,67.0625 L96.3557531,67.0625 Z M92.9885656,67.3125 C92.631793,67.6406266 92.354452,68.1158823 92.1565344,68.7382812 C91.9586167,69.3606802 91.8596594,70.0989541 91.8596594,70.953125 C91.8596594,71.8697963 91.9690333,72.6262991 92.1877844,73.2226562 C92.4065355,73.8190134 92.7021054,74.2539049 93.0745031,74.5273438 C93.4469008,74.8007826 93.8648654,74.9375 94.3284094,74.9375 C94.786745,74.9375 95.194293,74.7721371 95.5510656,74.4414062 C95.9078382,74.1106754 96.1851792,73.6328156 96.3830969,73.0078125 C96.5810145,72.3828094 96.6799719,71.6432334 96.6799719,70.7890625 C96.6799719,69.8775996 96.570598,69.125003 96.3518469,68.53125 C96.1330958,67.937497 95.8375258,67.5039076 95.4651281,67.2304688 C95.0927304,66.9570299 94.6747659,66.8203125 94.2112219,66.8203125 C93.7528862,66.8203125 93.3453382,66.9843734 92.9885656,67.3125 L92.9885656,67.3125 Z M103.932174,74.1484375 C104.033737,74.3359384 104.195193,74.4687496 104.416549,74.546875 C104.637904,74.6250004 104.938682,74.6640625 105.318892,74.6640625 L105.318892,75 C104.15222,74.9583331 103.415248,74.9375 103.107955,74.9375 C102.779828,74.9375 101.959524,74.9583331 100.647017,75 L100.647017,74.6640625 C101.214729,74.6640625 101.639203,74.5690114 101.920455,74.3789062 C102.201706,74.1888011 102.34233,73.8463566 102.34233,73.3515625 L102.34233,69.4765625 C102.34233,68.9609349 102.288945,68.5833345 102.182174,68.34375 C102.075402,68.1041655 101.895717,67.9453129 101.643111,67.8671875 C101.390506,67.7890621 101.003791,67.75 100.482955,67.75 L100.482955,67.3984375 C101.264209,67.3828124 101.908734,67.3138027 102.416549,67.1914062 C102.924364,67.0690098 103.378786,66.8671889 103.77983,66.5859375 L103.77983,73.3515625 C103.77983,73.6953142 103.830611,73.9609366 103.932174,74.1484375 L103.932174,74.1484375 Z M111.520313,68.296875 C111.291145,68.2447914 110.551569,68.21875 109.301563,68.21875 L107.598438,68.21875 L107.410938,71.3046875 C107.702606,71.1536451 107.989061,71.0351567 108.270313,70.9492188 C108.551564,70.8632808 108.890103,70.8203125 109.285938,70.8203125 C109.910941,70.8203125 110.434373,70.9257802 110.85625,71.1367188 C111.278127,71.3476573 111.593228,71.6393211 111.801563,72.0117188 C112.009897,72.3841164 112.114063,72.8098934 112.114063,73.2890625 C112.114063,74.0807331 111.854951,74.7864552 111.336719,75.40625 C110.818487,76.0260448 110.150525,76.5078108 109.332813,76.8515625 C108.5151,77.1953142 107.681775,77.3671875 106.832813,77.3671875 L106.832813,77.078125 C107.483858,77.0729166 108.095831,76.932293 108.66875,76.65625 C109.24167,76.380207 109.705207,75.9687527 110.059375,75.421875 C110.413544,74.8749973 110.590625,74.2161497 110.590625,73.4453125 C110.590625,72.7682258 110.416148,72.2421894 110.067188,71.8671875 C109.718228,71.4921856 109.220837,71.3046875 108.575,71.3046875 C108.314582,71.3046875 108.09323,71.3255206 107.910938,71.3671875 C107.728645,71.4088544 107.512502,71.4791662 107.2625,71.578125 L107.10625,71.4765625 L107.410938,66.7109375 C107.624481,66.7526044 107.910936,66.7734375 108.270313,66.7734375 L110.082813,66.7734375 C110.374481,66.7734375 110.590625,66.7486982 110.73125,66.6992188 C110.871876,66.6497393 110.969531,66.570313 111.024219,66.4609375 C111.078907,66.351562 111.121875,66.184897 111.153125,65.9609375 L111.457813,65.9609375 C111.457813,67.0442762 111.478646,67.8229143 111.520313,68.296875 L111.520313,68.296875 Z" id="October-2015"></path>
                </g>
            </g>
        </g>
    </g>
</svg>