<?xml version="1.0" encoding="UTF-8" standalone="no"?>
<svg width="1020px" height="550px" viewBox="0 0 1020 550" version="1.1" xmlns="http://www.w3.org/2000/svg" xmlns:xlink="http://www.w3.org/1999/xlink" xmlns:sketch="http://www.bohemiancoding.com/sketch/ns">
    <!-- Generator: Sketch 3.4.4 (17249) - http://www.bohemiancoding.com/sketch -->
    <title>Artboard 7</title>
    <desc>Created with Sketch.</desc>
    <defs>
        <linearGradient x1="0%" y1="0%" x2="100%" y2="100%" id="linearGradient-1">
            <stop stop-color="#BCCEF3" offset="0%"></stop>
            <stop stop-color="#FFFFFF" offset="100%"></stop>
        </linearGradient>
        <path id="path-2" d="M355.565333,325.136823 C355.565333,325.136823 352.662767,323.273647 348.331383,325.136823 C344,327 340.822469,325.136823 340.822469,325.136823"></path>
        <path id="path-3" d="M355.565333,318.136823 C355.565333,318.136823 352.662767,316.273647 348.331383,318.136823 C344,320 340.822469,318.136823 340.822469,318.136823"></path>
        <path id="path-4" d="M355.565333,332.136823 C355.565333,332.136823 352.662767,330.273647 348.331383,332.136823 C344,334 340.822469,332.136823 340.822469,332.136823"></path>
        <path id="path-5" d="M38.5653325,11.1368235 C38.5653325,11.1368235 35.6627667,9.27364693 31.3313834,11.1368235 C27.0000001,13 23.8224691,11.1368235 23.8224691,11.1368235"></path>
        <path id="path-6" d="M38.5653325,4.13682348 C38.5653325,4.13682348 35.6627667,2.27364693 31.3313834,4.13682347 C27.0000001,6.00000001 23.8224691,4.13682348 23.8224691,4.13682348"></path>
        <path id="path-7" d="M38.5653325,18.1368235 C38.5653325,18.1368235 35.6627667,16.2736469 31.3313834,18.1368235 C27.0000001,20 23.8224691,18.1368235 23.8224691,18.1368235"></path>
    </defs>
    <g id="Welcome" stroke="none" stroke-width="1" fill="none" fill-rule="evenodd" sketch:type="MSPage">
        <g id="Artboard-7" sketch:type="MSArtboardGroup">
            <g id="logo" sketch:type="MSLayerGroup" transform="translate(0.000000, 2.000000)">
                <g id="Rectangle-93-Copy-+-Colored-Logotype-+-colored-logotype-label-prong-+-Colored-Logotype-Copy-+-Group-Copy" transform="translate(47.000000, 0.000000)">
                    <g id="logotype" transform="translate(282.000000, 0.000000)">
                        <rect id="Rectangle-93-Copy" stroke="#000000" stroke-width="0.5" fill="url(#linearGradient-1)" sketch:type="MSShapeGroup" x="0" y="0" width="651" height="430"></rect>
                        <g id="Logotype-Copy" transform="translate(44.300000, 31.000000)">
                            <g id="logo/color">
                                <path d="M380.567784,321.924 C380.567784,325.060016 379.326463,327.085329 376.843784,328 L381.799784,335 L376.423784,335 L372.083784,328.756 L369.059784,328.756 L369.059784,335 L364.691784,335 L364.691784,315.428 L372.111784,315.428 C375.154466,315.428 377.324444,315.941328 378.621784,316.968 C379.919124,317.994672 380.567784,319.646655 380.567784,321.924 L380.567784,321.924 Z M375.303784,324.248 C375.84512,323.762664 376.115784,322.992672 376.115784,321.938 C376.115784,320.883328 375.835787,320.160002 375.275784,319.768 C374.715781,319.375998 373.735791,319.18 372.335784,319.18 L369.059784,319.18 L369.059784,324.976 L372.251784,324.976 C373.745125,324.976 374.762448,324.733336 375.303784,324.248 L375.303784,324.248 Z M392.273056,319.334 C391.853054,319.679335 391.643056,320.136664 391.643056,320.706 C391.643056,321.275336 391.89972,321.727998 392.413056,322.064 C392.926392,322.400002 394.111714,322.796664 395.969056,323.254 C397.826399,323.711336 399.268385,324.397329 400.295056,325.312 C401.321728,326.226671 401.835056,327.561325 401.835056,329.316 C401.835056,331.070675 401.177063,332.493995 399.861056,333.586 C398.54505,334.678005 396.813734,335.224 394.667056,335.224 C391.568374,335.224 388.777735,334.076011 386.295056,331.78 L388.899056,328.588 C391.0084,330.436009 392.959047,331.36 394.751056,331.36 C395.553727,331.36 396.183721,331.187335 396.641056,330.842 C397.098392,330.496665 397.327056,330.030003 397.327056,329.442 C397.327056,328.853997 397.084392,328.387335 396.599056,328.042 C396.113721,327.696665 395.152397,327.346668 393.715056,326.992 C391.437712,326.450664 389.771728,325.746004 388.717056,324.878 C387.662384,324.009996 387.135056,322.647343 387.135056,320.79 C387.135056,318.932657 387.802383,317.500005 389.137056,316.492 C390.47173,315.483995 392.137713,314.98 394.135056,314.98 C395.44173,314.98 396.748383,315.203998 398.055056,315.652 C399.36173,316.100002 400.500385,316.734663 401.471056,317.556 L399.259056,320.748 C397.560381,319.459994 395.805732,318.816 393.995056,318.816 C393.267053,318.816 392.693058,318.988665 392.273056,319.334 L392.273056,319.334 Z M421.688329,317.178 C423.060336,318.344673 423.746329,320.136655 423.746329,322.554 C423.746329,324.971345 423.041669,326.739994 421.632329,327.86 C420.222989,328.980006 418.071677,329.54 415.178329,329.54 L412.574329,329.54 L412.574329,335 L408.206329,335 L408.206329,315.428 L415.122329,315.428 C418.127677,315.428 420.316322,316.011327 421.688329,317.178 L421.688329,317.178 Z M418.482329,324.878 C419.004998,324.289997 419.266329,323.431339 419.266329,322.302 C419.266329,321.172661 418.925666,320.370002 418.244329,319.894 C417.562992,319.417998 416.503669,319.18 415.066329,319.18 L412.574329,319.18 L412.574329,325.76 L415.514329,325.76 C416.970336,325.76 417.95966,325.466003 418.482329,324.878 L418.482329,324.878 Z M443.921602,315.428 L443.921602,319.32 L434.177602,319.32 L434.177602,323.352 L442.941602,323.352 L442.941602,327.076 L434.177602,327.076 L434.177602,331.136 L444.229602,331.136 L444.229602,335 L429.809602,335 L429.809602,315.428 L443.921602,315.428 Z M450.768874,315.428 L455.136874,315.428 L455.136874,323.464 L462.528874,315.428 L467.932874,315.428 L460.148874,324.08 C460.820877,325.013338 462.062198,326.753987 463.872874,329.302 C465.68355,331.850013 467.03687,333.749327 467.932874,335 L462.836874,335 L457.096874,327.272 L455.136874,329.456 L455.136874,335 L450.768874,335 L450.768874,315.428 Z M481.584147,319.208 L481.584147,335 L477.216147,335 L477.216147,319.208 L471.672147,319.208 L471.672147,315.428 L487.128147,315.428 L487.128147,319.208 L481.584147,319.208 Z M492.967419,315.428 L497.335419,315.428 L497.335419,335 L492.967419,335 L492.967419,315.428 Z M512.022692,327.888 L517.006692,315.428 L521.738692,315.428 L513.870692,335 L510.174692,335 L502.306692,315.428 L507.038692,315.428 L512.022692,327.888 Z" id="RSPEKTIV" fill="#467890" sketch:type="MSShapeGroup"></path>
                                <path d="M330.89,317.178 C332.262007,318.344672 332.948,320.136655 332.948,322.554 C332.948,324.971345 332.24334,326.739994 330.834,327.86 C329.42466,328.980006 327.273348,329.54 324.38,329.54 L321.776,329.54 L321.776,335 L317.408,335 L317.408,315.428 L324.324,315.428 C327.329348,315.428 329.517993,316.011327 330.89,317.178 L330.89,317.178 Z M327.684,324.878 C328.206669,324.289997 328.468,323.431339 328.468,322.302 C328.468,321.172661 328.127337,320.370002 327.446,319.894 C326.764663,319.417998 325.705341,319.18 324.268,319.18 L321.776,319.18 L321.776,325.76 L324.716,325.76 C326.172007,325.76 327.161331,325.466003 327.684,324.878 L327.684,324.878 Z" id="P" fill="#467890" sketch:type="MSShapeGroup"></path>
                                <g id="Line-Copy-16">
                                    <use stroke="#263B64" stroke-width="3.3" stroke-linecap="square" sketch:type="MSShapeGroup" xlink:href="#path-2"></use>
                                    <use stroke="none" xlink:href="#path-2"></use>
                                </g>
                                <g id="Line-Copy-18">
                                    <use stroke="#263B64" stroke-width="3.3" stroke-linecap="square" sketch:type="MSShapeGroup" xlink:href="#path-3"></use>
                                    <use stroke="none" xlink:href="#path-3"></use>
                                </g>
                                <g id="Line-Copy-17">
                                    <use stroke="#263B64" stroke-width="3.3" stroke-linecap="square" sketch:type="MSShapeGroup" xlink:href="#path-4"></use>
                                    <use stroke="none" xlink:href="#path-4"></use>
                                </g>
                                <g id="colored-logotype-label-prong" transform="translate(239.000000, 305.000000)" stroke="#333333" stroke-linecap="square" sketch:type="MSShapeGroup">
                                    <path d="M0.473702431,19.5 L19.5,19.5" id="Line"></path>
                                    <path d="M20.5,36.5 L37.5,36.5" id="Line-Copy"></path>
                                    <path d="M19.5,1.5 L37.5,1.5" id="Line-Copy-2"></path>
                                    <path d="M19.5,1.5 L19.5,36.5" id="Line"></path>
                                </g>
                                <path d="M109.427,327.482 C108.77833,327.920669 108.006004,328.14 107.11,328.14 C106.260662,328.14 105.51867,327.946335 104.884,327.559 C104.24933,327.171665 103.759335,326.61867 103.414,325.9 C103.068665,325.18133 102.896,324.341338 102.896,323.38 C102.896,322.418662 103.068665,321.57867 103.414,320.86 C103.759335,320.14133 104.24933,319.588335 104.884,319.201 C105.51867,318.813665 106.255996,318.62 107.096,318.62 C108.934676,318.62 110.129331,319.371326 110.68,320.874 L109.896,321.238 C109.681332,320.612664 109.347669,320.143668 108.895,319.831 C108.442331,319.518332 107.861337,319.362 107.152,319.362 C106.470663,319.362 105.871003,319.522998 105.353,319.845 C104.834997,320.167002 104.433668,320.63133 104.149,321.238 C103.864332,321.84467 103.722,322.558663 103.722,323.38 C103.722,324.201337 103.861999,324.91533 104.142,325.522 C104.422001,326.12867 104.816331,326.592998 105.325,326.915 C105.833669,327.237002 106.428663,327.398 107.11,327.398 C107.82867,327.398 108.442331,327.223002 108.951,326.873 C109.459669,326.522998 109.816666,326.01667 110.022,325.354 L110.806,325.648 C110.535332,326.432004 110.07567,327.043331 109.427,327.482 L109.427,327.482 Z M117.981,321.826 C118.57367,322.470003 118.87,323.361328 118.87,324.5 C118.87,325.638672 118.57367,326.529997 117.981,327.174 C117.38833,327.818003 116.569339,328.14 115.524,328.14 C114.478661,328.14 113.65967,327.818003 113.067,327.174 C112.47433,326.529997 112.178,325.638672 112.178,324.5 C112.178,323.361328 112.47433,322.470003 113.067,321.826 C113.65967,321.181997 114.478661,320.86 115.524,320.86 C116.569339,320.86 117.38833,321.181997 117.981,321.826 L117.981,321.826 Z M113.655,322.337 C113.202331,322.864336 112.976,323.585329 112.976,324.5 C112.976,325.414671 113.202331,326.135664 113.655,326.663 C114.107669,327.190336 114.730663,327.454 115.524,327.454 C116.317337,327.454 116.940331,327.190336 117.393,326.663 C117.845669,326.135664 118.072,325.414671 118.072,324.5 C118.072,323.585329 117.845669,322.864336 117.393,322.337 C116.940331,321.809664 116.317337,321.546 115.524,321.546 C114.730663,321.546 114.107669,321.809664 113.655,322.337 L113.655,322.337 Z M121.684,326.264 C121.684,326.674669 121.749333,326.963999 121.88,327.132 C122.010667,327.300001 122.229998,327.384 122.538,327.384 C122.724668,327.384 122.883333,327.37 123.014,327.342 C123.144667,327.314 123.303332,327.262667 123.49,327.188 L123.364,327.958 C123.093332,328.079334 122.776002,328.14 122.412,328.14 C121.898664,328.14 121.516001,327.995335 121.264,327.706 C121.011999,327.416665 120.886,326.964003 120.886,326.348 L120.886,317.78 L121.684,317.78 L121.684,326.264 Z M130.189,321.826 C130.78167,322.470003 131.078,323.361328 131.078,324.5 C131.078,325.638672 130.78167,326.529997 130.189,327.174 C129.59633,327.818003 128.777339,328.14 127.732,328.14 C126.686661,328.14 125.86767,327.818003 125.275,327.174 C124.68233,326.529997 124.386,325.638672 124.386,324.5 C124.386,323.361328 124.68233,322.470003 125.275,321.826 C125.86767,321.181997 126.686661,320.86 127.732,320.86 C128.777339,320.86 129.59633,321.181997 130.189,321.826 L130.189,321.826 Z M125.863,322.337 C125.410331,322.864336 125.184,323.585329 125.184,324.5 C125.184,325.414671 125.410331,326.135664 125.863,326.663 C126.315669,327.190336 126.938663,327.454 127.732,327.454 C128.525337,327.454 129.148331,327.190336 129.601,326.663 C130.053669,326.135664 130.28,325.414671 130.28,324.5 C130.28,323.585329 130.053669,322.864336 129.601,322.337 C129.148331,321.809664 128.525337,321.546 127.732,321.546 C126.938663,321.546 126.315669,321.809664 125.863,322.337 L125.863,322.337 Z M137.028,321.07 L136.832,321.826 C136.598665,321.676666 136.304668,321.602 135.95,321.602 C135.613998,321.602 135.292002,321.706999 134.984,321.917 C134.675998,322.127001 134.426334,322.423331 134.235,322.806 C134.043666,323.188669 133.948,323.622664 133.948,324.108 L133.948,328 L133.15,328 L133.15,321 L133.822,321 L133.92,322.358 C134.106668,321.881998 134.391331,321.513335 134.774,321.252 C135.156669,320.990665 135.623331,320.86 136.174,320.86 C136.528668,320.86 136.813332,320.929999 137.028,321.07 L137.028,321.07 Z M144.07,324.822 L138.582,324.822 C138.628667,325.643337 138.873664,326.284998 139.317,326.747 C139.760336,327.209002 140.35533,327.44 141.102,327.44 C141.643336,327.44 142.107665,327.332668 142.495,327.118 C142.882335,326.903332 143.159999,326.600002 143.328,326.208 L143.986,326.558 C143.435331,327.612672 142.474007,328.14 141.102,328.14 C140.065995,328.14 139.254003,327.818003 138.666,327.174 C138.077997,326.529997 137.784,325.638672 137.784,324.5 C137.784,323.361328 138.068664,322.470003 138.638,321.826 C139.207336,321.181997 140.005328,320.86 141.032,320.86 C141.66667,320.86 142.214998,321.006999 142.677,321.301 C143.139002,321.595001 143.491332,322.000997 143.734,322.519 C143.976668,323.037003 144.098,323.62733 144.098,324.29 C144.098,324.458001 144.088667,324.635332 144.07,324.822 L144.07,324.822 Z M139.303,322.225 C138.878331,322.668336 138.638,323.295996 138.582,324.108 L143.342,324.108 C143.286,323.305329 143.057335,322.680002 142.656,322.232 C142.254665,321.783998 141.713337,321.56 141.032,321.56 C140.303996,321.56 139.727669,321.781664 139.303,322.225 L139.303,322.225 Z M152.204,317.78 L152.204,328 L151.49,328 L151.448,326.53 C151.242666,327.024669 150.913669,327.416665 150.461,327.706 C150.008331,327.995335 149.483336,328.14 148.886,328.14 C147.896662,328.14 147.117336,327.818003 146.548,327.174 C145.978664,326.529997 145.694,325.638672 145.694,324.5 C145.694,323.361328 145.978664,322.470003 146.548,321.826 C147.117336,321.181997 147.896662,320.86 148.886,320.86 C149.474003,320.86 149.987331,320.995332 150.426,321.266 C150.864669,321.536668 151.191332,321.909998 151.406,322.386 L151.406,317.78 L152.204,317.78 Z M150.699,326.726 C151.133002,326.249998 151.368666,325.596671 151.406,324.766 L151.406,324.234 C151.368666,323.403329 151.133002,322.750002 150.699,322.274 C150.264998,321.797998 149.693337,321.56 148.984,321.56 C148.199996,321.56 147.588669,321.821331 147.15,322.344 C146.711331,322.866669 146.492,323.585329 146.492,324.5 C146.492,325.414671 146.711331,326.133331 147.15,326.656 C147.588669,327.178669 148.199996,327.44 148.984,327.44 C149.693337,327.44 150.264998,327.202002 150.699,326.726 L150.699,326.726 Z M165.672,327.258 L165.672,328 L159.4,328 L159.4,318.76 L160.198,318.76 L160.198,327.258 L165.672,327.258 Z M172.231,321.826 C172.82367,322.470003 173.12,323.361328 173.12,324.5 C173.12,325.638672 172.82367,326.529997 172.231,327.174 C171.63833,327.818003 170.819339,328.14 169.774,328.14 C168.728661,328.14 167.90967,327.818003 167.317,327.174 C166.72433,326.529997 166.428,325.638672 166.428,324.5 C166.428,323.361328 166.72433,322.470003 167.317,321.826 C167.90967,321.181997 168.728661,320.86 169.774,320.86 C170.819339,320.86 171.63833,321.181997 172.231,321.826 L172.231,321.826 Z M167.905,322.337 C167.452331,322.864336 167.226,323.585329 167.226,324.5 C167.226,325.414671 167.452331,326.135664 167.905,326.663 C168.357669,327.190336 168.980663,327.454 169.774,327.454 C170.567337,327.454 171.190331,327.190336 171.643,326.663 C172.095669,326.135664 172.322,325.414671 172.322,324.5 C172.322,323.585329 172.095669,322.864336 171.643,322.337 C171.190331,321.809664 170.567337,321.546 169.774,321.546 C168.980663,321.546 168.357669,321.809664 167.905,322.337 L167.905,322.337 Z M180.456,327.685 C180.857335,327.979001 181.058,328.368664 181.058,328.854 C181.058,329.283335 180.913335,329.661332 180.624,329.988 C180.334665,330.314668 179.935669,330.566666 179.427,330.744 C178.918331,330.921334 178.337337,331.01 177.684,331.01 C176.619995,331.01 175.810336,330.839668 175.255,330.499 C174.699664,330.158332 174.422,329.708003 174.422,329.148 C174.422,328.793332 174.529332,328.487668 174.744,328.231 C174.958668,327.974332 175.257331,327.785334 175.64,327.664 C175.369332,327.533333 175.154667,327.363001 174.996,327.153 C174.837333,326.942999 174.758,326.707335 174.758,326.446 C174.758,326.109998 174.865332,325.823001 175.08,325.585 C175.294668,325.346999 175.583998,325.176667 175.948,325.074 C175.583998,324.877999 175.301668,324.616668 175.101,324.29 C174.900332,323.963332 174.8,323.590002 174.8,323.17 C174.8,322.469996 175.061331,321.910002 175.584,321.49 C176.106669,321.069998 176.797329,320.86 177.656,320.86 C178.23467,320.86 178.752664,320.962666 179.21,321.168 C179.275334,320.719998 179.473665,320.365335 179.805,320.104 C180.136335,319.842665 180.539998,319.712 181.016,319.712 L181.198,320.412 C180.759331,320.412 180.411668,320.502999 180.155,320.685 C179.898332,320.867001 179.751334,321.130665 179.714,321.476 C179.966001,321.681334 180.161999,321.928665 180.302,322.218 C180.442001,322.507335 180.512,322.824665 180.512,323.17 C180.512,323.86067 180.250669,324.415998 179.728,324.836 C179.205331,325.256002 178.514671,325.466 177.656,325.466 C177.366665,325.466 177.049335,325.433334 176.704,325.368 C176.321331,325.405334 176.027334,325.512666 175.822,325.69 C175.616666,325.867334 175.514,326.081999 175.514,326.334 C175.514,326.614001 175.637665,326.835666 175.885,326.999 C176.132335,327.162334 176.503331,327.244 176.998,327.244 L178.804,327.244 C179.504003,327.244 180.054665,327.390999 180.456,327.685 L180.456,327.685 Z M176.165,321.973 C175.796331,322.267001 175.612,322.665997 175.612,323.17 C175.612,323.674003 175.793998,324.070665 176.158,324.36 C176.522002,324.649335 177.02133,324.794 177.656,324.794 C178.29067,324.794 178.789998,324.649335 179.154,324.36 C179.518002,324.070665 179.7,323.674003 179.7,323.17 C179.7,322.665997 179.518002,322.267001 179.154,321.973 C178.789998,321.678999 178.29067,321.532 177.656,321.532 C177.030664,321.532 176.533669,321.678999 176.165,321.973 L176.165,321.973 Z M179.637,329.946 C180.099002,329.684665 180.33,329.353335 180.33,328.952 C180.33,328.634665 180.190001,328.385001 179.91,328.203 C179.629999,328.020999 179.205336,327.93 178.636,327.93 L176.83,327.93 C176.316664,327.93 175.908335,328.030332 175.605,328.231 C175.301665,328.431668 175.15,328.695332 175.15,329.022 C175.15,329.432669 175.376331,329.754665 175.829,329.988 C176.281669,330.221334 176.932662,330.338 177.782,330.338 C178.556671,330.338 179.174998,330.207335 179.637,329.946 L179.637,329.946 Z M187.813,321.826 C188.40567,322.470003 188.702,323.361328 188.702,324.5 C188.702,325.638672 188.40567,326.529997 187.813,327.174 C187.22033,327.818003 186.401339,328.14 185.356,328.14 C184.310661,328.14 183.49167,327.818003 182.899,327.174 C182.30633,326.529997 182.01,325.638672 182.01,324.5 C182.01,323.361328 182.30633,322.470003 182.899,321.826 C183.49167,321.181997 184.310661,320.86 185.356,320.86 C186.401339,320.86 187.22033,321.181997 187.813,321.826 L187.813,321.826 Z M183.487,322.337 C183.034331,322.864336 182.808,323.585329 182.808,324.5 C182.808,325.414671 183.034331,326.135664 183.487,326.663 C183.939669,327.190336 184.562663,327.454 185.356,327.454 C186.149337,327.454 186.772331,327.190336 187.225,326.663 C187.677669,326.135664 187.904,325.414671 187.904,324.5 C187.904,323.585329 187.677669,322.864336 187.225,322.337 C186.772331,321.809664 186.149337,321.546 185.356,321.546 C184.562663,321.546 183.939669,321.809664 183.487,322.337 L183.487,322.337 Z M194.596,327.552 C194.175998,327.944002 193.630003,328.14 192.958,328.14 C192.388664,328.14 191.938335,327.983668 191.607,327.671 C191.275665,327.358332 191.11,326.88467 191.11,326.25 L191.11,321.686 L189.71,321.686 L189.71,321 L191.11,321 L191.11,319.264 L191.908,319.054 L191.908,321 L194.54,321 L194.54,321.686 L191.908,321.686 L191.908,326.124 C191.908,326.544002 192.010666,326.861332 192.216,327.076 C192.421334,327.290668 192.715331,327.398 193.098,327.398 C193.574002,327.398 193.975332,327.225335 194.302,326.88 L194.596,327.552 Z M198.39,329.26 C198.128665,329.904003 197.837002,330.356665 197.515,330.618 C197.192998,330.879335 196.784669,331.01 196.29,331.01 C195.68333,331.01 195.221335,330.832668 194.904,330.478 L195.198,329.792 C195.440668,330.137335 195.799998,330.31 196.276,330.31 C196.593335,330.31 196.863999,330.219001 197.088,330.037 C197.312001,329.854999 197.517332,329.530669 197.704,329.064 L198.138,328 L195.184,321 L196.094,321 L198.152,326.138 L198.516,327.146 L198.922,326.04 L200.882,321 L201.75,321 L198.39,329.26 Z M208.932,321.826 C209.501336,322.470003 209.786,323.361328 209.786,324.5 C209.786,325.638672 209.501336,326.529997 208.932,327.174 C208.362664,327.818003 207.583338,328.14 206.594,328.14 C206.005997,328.14 205.492669,328.004668 205.054,327.734 C204.615331,327.463332 204.288668,327.090002 204.074,326.614 L204.074,330.94 L203.276,330.94 L203.276,321 L203.99,321 L204.032,322.484 C204.237334,321.979997 204.563998,321.583335 205.012,321.294 C205.460002,321.004665 205.98733,320.86 206.594,320.86 C207.583338,320.86 208.362664,321.181997 208.932,321.826 L208.932,321.826 Z M208.33,326.656 C208.768669,326.133331 208.988,325.414671 208.988,324.5 C208.988,323.585329 208.768669,322.866669 208.33,322.344 C207.891331,321.821331 207.280004,321.56 206.496,321.56 C205.786663,321.56 205.210336,321.804998 204.767,322.295 C204.323664,322.785002 204.092667,323.454662 204.074,324.304 L204.074,324.696 C204.092667,325.545338 204.321331,326.214998 204.76,326.705 C205.198669,327.195002 205.77733,327.44 206.496,327.44 C207.280004,327.44 207.891331,327.178669 208.33,326.656 L208.33,326.656 Z M217.71,324.822 L212.222,324.822 C212.268667,325.643337 212.513664,326.284998 212.957,326.747 C213.400336,327.209002 213.99533,327.44 214.742,327.44 C215.283336,327.44 215.747665,327.332668 216.135,327.118 C216.522335,326.903332 216.799999,326.600002 216.968,326.208 L217.626,326.558 C217.075331,327.612672 216.114007,328.14 214.742,328.14 C213.705995,328.14 212.894003,327.818003 212.306,327.174 C211.717997,326.529997 211.424,325.638672 211.424,324.5 C211.424,323.361328 211.708664,322.470003 212.278,321.826 C212.847336,321.181997 213.645328,320.86 214.672,320.86 C215.30667,320.86 215.854998,321.006999 216.317,321.301 C216.779002,321.595001 217.131332,322.000997 217.374,322.519 C217.616668,323.037003 217.738,323.62733 217.738,324.29 C217.738,324.458001 217.728667,324.635332 217.71,324.822 L217.71,324.822 Z M212.943,322.225 C212.518331,322.668336 212.278,323.295996 212.222,324.108 L216.982,324.108 C216.926,323.305329 216.697335,322.680002 216.296,322.232 C215.894665,321.783998 215.353337,321.56 214.672,321.56 C213.943996,321.56 213.367669,321.781664 212.943,322.225 L212.943,322.225 Z" id="Colored-Logotype" fill="#757575" sketch:type="MSShapeGroup"></path>
                                <path d="M239.473702,243.5 L258.5,243.5" id="Line" stroke="#333333" stroke-linecap="square" sketch:type="MSShapeGroup"></path>
                                <path d="M259.5,260.5 L276.5,260.5" id="Line-Copy" stroke="#333333" stroke-linecap="square" sketch:type="MSShapeGroup"></path>
                                <path d="M258.5,225.5 L276.5,225.5" id="Line-Copy-2" stroke="#333333" stroke-linecap="square" sketch:type="MSShapeGroup"></path>
                                <path d="M258.5,225.5 L258.5,260.5" id="Line" stroke="#333333" stroke-linecap="square" sketch:type="MSShapeGroup"></path>
                                <path d="M164.742,246.258 L164.742,247 L158.47,247 L158.47,237.76 L159.268,237.76 L159.268,246.258 L164.742,246.258 Z M171.301,240.826 C171.89367,241.470003 172.19,242.361328 172.19,243.5 C172.19,244.638672 171.89367,245.529997 171.301,246.174 C170.70833,246.818003 169.889339,247.14 168.844,247.14 C167.798661,247.14 166.97967,246.818003 166.387,246.174 C165.79433,245.529997 165.498,244.638672 165.498,243.5 C165.498,242.361328 165.79433,241.470003 166.387,240.826 C166.97967,240.181997 167.798661,239.86 168.844,239.86 C169.889339,239.86 170.70833,240.181997 171.301,240.826 L171.301,240.826 Z M166.975,241.337 C166.522331,241.864336 166.296,242.585329 166.296,243.5 C166.296,244.414671 166.522331,245.135664 166.975,245.663 C167.427669,246.190336 168.050663,246.454 168.844,246.454 C169.637337,246.454 170.260331,246.190336 170.713,245.663 C171.165669,245.135664 171.392,244.414671 171.392,243.5 C171.392,242.585329 171.165669,241.864336 170.713,241.337 C170.260331,240.809664 169.637337,240.546 168.844,240.546 C168.050663,240.546 167.427669,240.809664 166.975,241.337 L166.975,241.337 Z M179.526,246.685 C179.927335,246.979001 180.128,247.368664 180.128,247.854 C180.128,248.283335 179.983335,248.661332 179.694,248.988 C179.404665,249.314668 179.005669,249.566666 178.497,249.744 C177.988331,249.921334 177.407337,250.01 176.754,250.01 C175.689995,250.01 174.880336,249.839668 174.325,249.499 C173.769664,249.158332 173.492,248.708003 173.492,248.148 C173.492,247.793332 173.599332,247.487668 173.814,247.231 C174.028668,246.974332 174.327331,246.785334 174.71,246.664 C174.439332,246.533333 174.224667,246.363001 174.066,246.153 C173.907333,245.942999 173.828,245.707335 173.828,245.446 C173.828,245.109998 173.935332,244.823001 174.15,244.585 C174.364668,244.346999 174.653998,244.176667 175.018,244.074 C174.653998,243.877999 174.371668,243.616668 174.171,243.29 C173.970332,242.963332 173.87,242.590002 173.87,242.17 C173.87,241.469997 174.131331,240.910002 174.654,240.49 C175.176669,240.069998 175.867329,239.86 176.726,239.86 C177.30467,239.86 177.822664,239.962666 178.28,240.168 C178.345334,239.719998 178.543665,239.365335 178.875,239.104 C179.206335,238.842665 179.609998,238.712 180.086,238.712 L180.268,239.412 C179.829331,239.412 179.481668,239.502999 179.225,239.685 C178.968332,239.867001 178.821334,240.130665 178.784,240.476 C179.036001,240.681334 179.231999,240.928665 179.372,241.218 C179.512001,241.507335 179.582,241.824665 179.582,242.17 C179.582,242.86067 179.320669,243.415998 178.798,243.836 C178.275331,244.256002 177.584671,244.466 176.726,244.466 C176.436665,244.466 176.119335,244.433334 175.774,244.368 C175.391331,244.405334 175.097334,244.512666 174.892,244.69 C174.686666,244.867334 174.584,245.081999 174.584,245.334 C174.584,245.614001 174.707665,245.835666 174.955,245.999 C175.202335,246.162334 175.573331,246.244 176.068,246.244 L177.874,246.244 C178.574004,246.244 179.124665,246.390999 179.526,246.685 L179.526,246.685 Z M175.235,240.973 C174.866331,241.267001 174.682,241.665997 174.682,242.17 C174.682,242.674003 174.863998,243.070665 175.228,243.36 C175.592002,243.649335 176.09133,243.794 176.726,243.794 C177.36067,243.794 177.859998,243.649335 178.224,243.36 C178.588002,243.070665 178.77,242.674003 178.77,242.17 C178.77,241.665997 178.588002,241.267001 178.224,240.973 C177.859998,240.678999 177.36067,240.532 176.726,240.532 C176.100664,240.532 175.603669,240.678999 175.235,240.973 L175.235,240.973 Z M178.707,248.946 C179.169002,248.684665 179.4,248.353335 179.4,247.952 C179.4,247.634665 179.260001,247.385001 178.98,247.203 C178.699999,247.020999 178.275336,246.93 177.706,246.93 L175.9,246.93 C175.386664,246.93 174.978335,247.030332 174.675,247.231 C174.371665,247.431668 174.22,247.695332 174.22,248.022 C174.22,248.432669 174.446331,248.754666 174.899,248.988 C175.351669,249.221335 176.002662,249.338 176.852,249.338 C177.626671,249.338 178.244998,249.207335 178.707,248.946 L178.707,248.946 Z M186.883,240.826 C187.47567,241.470003 187.772,242.361328 187.772,243.5 C187.772,244.638672 187.47567,245.529997 186.883,246.174 C186.29033,246.818003 185.471339,247.14 184.426,247.14 C183.380661,247.14 182.56167,246.818003 181.969,246.174 C181.37633,245.529997 181.08,244.638672 181.08,243.5 C181.08,242.361328 181.37633,241.470003 181.969,240.826 C182.56167,240.181997 183.380661,239.86 184.426,239.86 C185.471339,239.86 186.29033,240.181997 186.883,240.826 L186.883,240.826 Z M182.557,241.337 C182.104331,241.864336 181.878,242.585329 181.878,243.5 C181.878,244.414671 182.104331,245.135664 182.557,245.663 C183.009669,246.190336 183.632663,246.454 184.426,246.454 C185.219337,246.454 185.842331,246.190336 186.295,245.663 C186.747669,245.135664 186.974,244.414671 186.974,243.5 C186.974,242.585329 186.747669,241.864336 186.295,241.337 C185.842331,240.809664 185.219337,240.546 184.426,240.546 C183.632663,240.546 183.009669,240.809664 182.557,241.337 L182.557,241.337 Z M193.666,246.552 C193.245998,246.944002 192.700003,247.14 192.028,247.14 C191.458664,247.14 191.008335,246.983668 190.677,246.671 C190.345665,246.358332 190.18,245.88467 190.18,245.25 L190.18,240.686 L188.78,240.686 L188.78,240 L190.18,240 L190.18,238.264 L190.978,238.054 L190.978,240 L193.61,240 L193.61,240.686 L190.978,240.686 L190.978,245.124 C190.978,245.544002 191.080666,245.861332 191.286,246.076 C191.491334,246.290668 191.785331,246.398 192.168,246.398 C192.644002,246.398 193.045332,246.225335 193.372,245.88 L193.666,246.552 Z M197.46,248.26 C197.198665,248.904003 196.907002,249.356665 196.585,249.618 C196.262998,249.879335 195.854669,250.01 195.36,250.01 C194.75333,250.01 194.291335,249.832668 193.974,249.478 L194.268,248.792 C194.510668,249.137335 194.869998,249.31 195.346,249.31 C195.663335,249.31 195.933999,249.219001 196.158,249.037 C196.382001,248.854999 196.587332,248.530669 196.774,248.064 L197.208,247 L194.254,240 L195.164,240 L197.222,245.138 L197.586,246.146 L197.992,245.04 L199.952,240 L200.82,240 L197.46,248.26 Z M208.002,240.826 C208.571336,241.470003 208.856,242.361328 208.856,243.5 C208.856,244.638672 208.571336,245.529997 208.002,246.174 C207.432664,246.818003 206.653338,247.14 205.664,247.14 C205.075997,247.14 204.562669,247.004668 204.124,246.734 C203.685331,246.463332 203.358668,246.090002 203.144,245.614 L203.144,249.94 L202.346,249.94 L202.346,240 L203.06,240 L203.102,241.484 C203.307334,240.979997 203.633998,240.583335 204.082,240.294 C204.530002,240.004665 205.05733,239.86 205.664,239.86 C206.653338,239.86 207.432664,240.181997 208.002,240.826 L208.002,240.826 Z M207.4,245.656 C207.838669,245.133331 208.058,244.414671 208.058,243.5 C208.058,242.585329 207.838669,241.866669 207.4,241.344 C206.961331,240.821331 206.350004,240.56 205.566,240.56 C204.856663,240.56 204.280336,240.804998 203.837,241.295 C203.393664,241.785002 203.162667,242.454662 203.144,243.304 L203.144,243.696 C203.162667,244.545338 203.391331,245.214998 203.83,245.705 C204.268669,246.195002 204.84733,246.44 205.566,246.44 C206.350004,246.44 206.961331,246.178669 207.4,245.656 L207.4,245.656 Z M216.78,243.822 L211.292,243.822 C211.338667,244.643337 211.583664,245.284998 212.027,245.747 C212.470336,246.209002 213.06533,246.44 213.812,246.44 C214.353336,246.44 214.817665,246.332668 215.205,246.118 C215.592335,245.903332 215.869999,245.600002 216.038,245.208 L216.696,245.558 C216.145331,246.612672 215.184007,247.14 213.812,247.14 C212.775995,247.14 211.964003,246.818003 211.376,246.174 C210.787997,245.529997 210.494,244.638672 210.494,243.5 C210.494,242.361328 210.778664,241.470003 211.348,240.826 C211.917336,240.181997 212.715328,239.86 213.742,239.86 C214.37667,239.86 214.924998,240.006999 215.387,240.301 C215.849002,240.595001 216.201332,241.000997 216.444,241.519 C216.686668,242.037003 216.808,242.62733 216.808,243.29 C216.808,243.458001 216.798667,243.635332 216.78,243.822 L216.78,243.822 Z M212.013,241.225 C211.588331,241.668336 211.348,242.295996 211.292,243.108 L216.052,243.108 C215.996,242.305329 215.767335,241.680002 215.366,241.232 C214.964665,240.783998 214.423337,240.56 213.742,240.56 C213.013996,240.56 212.437669,240.781664 212.013,241.225 L212.013,241.225 Z" id="Logotype" fill="#757575" sketch:type="MSShapeGroup"></path>
                                <g id="Logotype-Copy-2" transform="translate(318.000000, 232.000000)">
                                    <path d="M63.5677838,7.924 C63.5677838,11.0600157 62.3264629,13.0853288 59.8437838,14 L64.7997838,21 L59.4237838,21 L55.0837838,14.756 L52.0597838,14.756 L52.0597838,21 L47.6917838,21 L47.6917838,1.428 L55.1117838,1.428 C58.1544657,1.428 60.324444,1.9413282 61.6217838,2.968 C62.9191236,3.9946718 63.5677838,5.64665528 63.5677838,7.924 L63.5677838,7.924 Z M58.3037838,10.248 C58.8451198,9.76266424 59.1157838,8.99267194 59.1157838,7.938 C59.1157838,6.88332806 58.8357866,6.16000196 58.2757838,5.768 C57.715781,5.37599804 56.7357908,5.18 55.3357838,5.18 L52.0597838,5.18 L52.0597838,10.976 L55.2517838,10.976 C56.7451246,10.976 57.7624477,10.7333358 58.3037838,10.248 L58.3037838,10.248 Z M75.2730564,5.334 C74.8530543,5.67933506 74.6430564,6.13666382 74.6430564,6.706 C74.6430564,7.27533618 74.8997205,7.72799832 75.4130564,8.064 C75.9263923,8.40000168 77.1117138,8.79666438 78.9690564,9.254 C80.826399,9.71133562 82.2683846,10.3973288 83.2950564,11.312 C84.3217282,12.2266712 84.8350564,13.5613246 84.8350564,15.316 C84.8350564,17.0706754 84.177063,18.4939945 82.8610564,19.586 C81.5450498,20.6780055 79.8137338,21.224 77.6670564,21.224 C74.5683742,21.224 71.7777355,20.0760115 69.2950564,17.78 L71.8990564,14.588 C74.0084003,16.4360092 75.9590474,17.36 77.7510564,17.36 C78.5537271,17.36 79.1837208,17.1873351 79.6410564,16.842 C80.098392,16.4966649 80.3270564,16.0300029 80.3270564,15.442 C80.3270564,14.8539971 80.0843921,14.3873351 79.5990564,14.042 C79.1137206,13.6966649 78.1523969,13.3466684 76.7150564,12.992 C74.4377117,12.450664 72.7717283,11.7460043 71.7170564,10.878 C70.6623844,10.0099957 70.1350564,8.64734262 70.1350564,6.79 C70.1350564,4.93265738 70.802383,3.50000504 72.1370564,2.492 C73.4717297,1.48399496 75.1377131,0.98 77.1350564,0.98 C78.4417296,0.98 79.7483832,1.20399776 81.0550564,1.652 C82.3617296,2.10000224 83.5003849,2.73466256 84.4710564,3.556 L82.2590564,6.748 C80.5603812,5.45999356 78.8057321,4.816 76.9950564,4.816 C76.2670527,4.816 75.6930585,4.98866494 75.2730564,5.334 L75.2730564,5.334 Z M104.688329,3.178 C106.060336,4.3446725 106.746329,6.13665458 106.746329,8.554 C106.746329,10.9713454 106.041669,12.7399944 104.632329,13.86 C103.222989,14.9800056 101.071677,15.54 98.178329,15.54 L95.574329,15.54 L95.574329,21 L91.206329,21 L91.206329,1.428 L98.122329,1.428 C101.127677,1.428 103.316322,2.0113275 104.688329,3.178 L104.688329,3.178 Z M101.482329,10.878 C102.004998,10.2899971 102.266329,9.43133898 102.266329,8.302 C102.266329,7.17266102 101.925666,6.37000238 101.244329,5.894 C100.562992,5.41799762 99.5036695,5.18 98.066329,5.18 L95.574329,5.18 L95.574329,11.76 L98.514329,11.76 C99.9703362,11.76 100.95966,11.4660029 101.482329,10.878 L101.482329,10.878 Z M126.921602,1.428 L126.921602,5.32 L117.177602,5.32 L117.177602,9.352 L125.941602,9.352 L125.941602,13.076 L117.177602,13.076 L117.177602,17.136 L127.229602,17.136 L127.229602,21 L112.809602,21 L112.809602,1.428 L126.921602,1.428 Z M133.768874,1.428 L138.136874,1.428 L138.136874,9.464 L145.528874,1.428 L150.932874,1.428 L143.148874,10.08 C143.820877,11.013338 145.062198,12.7539873 146.872874,15.302 C148.68355,17.8500127 150.03687,19.7493271 150.932874,21 L145.836874,21 L140.096874,13.272 L138.136874,15.456 L138.136874,21 L133.768874,21 L133.768874,1.428 Z M164.584147,5.208 L164.584147,21 L160.216147,21 L160.216147,5.208 L154.672147,5.208 L154.672147,1.428 L170.128147,1.428 L170.128147,5.208 L164.584147,5.208 Z M175.967419,1.428 L180.335419,1.428 L180.335419,21 L175.967419,21 L175.967419,1.428 Z M195.022692,13.888 L200.006692,1.428 L204.738692,1.428 L196.870692,21 L193.174692,21 L185.306692,1.428 L190.038692,1.428 L195.022692,13.888 Z" id="RSPEKTIV" fill="#333333" sketch:type="MSShapeGroup"></path>
                                    <path d="M13.89,3.178 C15.2620069,4.3446725 15.948,6.13665458 15.948,8.554 C15.948,10.9713454 15.2433404,12.7399944 13.834,13.86 C12.4246596,14.9800056 10.2733478,15.54 7.38,15.54 L4.776,15.54 L4.776,21 L0.408,21 L0.408,1.428 L7.324,1.428 C10.3293484,1.428 12.5179931,2.0113275 13.89,3.178 L13.89,3.178 Z M10.684,10.878 C11.2066693,10.2899971 11.468,9.43133898 11.468,8.302 C11.468,7.17266102 11.1273367,6.37000238 10.446,5.894 C9.76466326,5.41799762 8.70534052,5.18 7.268,5.18 L4.776,5.18 L4.776,11.76 L7.716,11.76 C9.17200728,11.76 10.1613307,11.4660029 10.684,10.878 L10.684,10.878 Z" id="P" fill="#333333" sketch:type="MSShapeGroup"></path>
                                    <g id="Line-Copy-16">
                                        <use stroke="#333333" stroke-width="3.3" stroke-linecap="square" sketch:type="MSShapeGroup" xlink:href="#path-5"></use>
                                        <use stroke="none" xlink:href="#path-5"></use>
                                    </g>
                                    <g id="Line-Copy-18">
                                        <use stroke="#333333" stroke-width="3.3" stroke-linecap="square" sketch:type="MSShapeGroup" xlink:href="#path-6"></use>
                                        <use stroke="none" xlink:href="#path-6"></use>
                                    </g>
                                    <g id="Line-Copy-17">
                                        <use stroke="#333333" stroke-width="3.3" stroke-linecap="square" sketch:type="MSShapeGroup" xlink:href="#path-7"></use>
                                        <use stroke="none" xlink:href="#path-7"></use>
                                    </g>
                                </g>
                                <g id="Colored-Mark-+-Colored-Mark-+-label-prong-copy" transform="translate(223.200000, 160.500000) scale(-1, 1) translate(-223.200000, -160.500000) translate(120.700000, 142.000000)" sketch:type="MSShapeGroup">
                                    <g id="Colored-Mark" transform="translate(0.300000, 6.000000)" stroke="#263B64" stroke-width="4.16666667" stroke-linecap="square">
                                        <path d="M24.6357504,2.65689364 C24.6357504,2.65689364 18.6844423,-1.48380297 12.7331342,2.65689367 C6.78182611,6.79759031 0.830518018,2.65689365 0.830518018,2.65689365" id="Line-Copy-11"></path>
                                        <path d="M24.6357504,12.5632549 C24.6357504,12.5632549 18.6844423,8.42255834 12.7331342,12.563255 C6.78182611,16.7039516 0.830518018,12.563255 0.830518018,12.563255" id="Line-Copy-12"></path>
                                        <path d="M24.6357504,22.4696163 C24.6357504,22.4696163 18.6844423,18.3289196 12.7331342,22.4696163 C6.78182611,26.6103129 0.830518018,22.4696163 0.830518018,22.4696163" id="Line-Copy-13"></path>
                                    </g>
                                    <path d="M123.727,21.552 C123.07833,21.9906689 122.306004,22.21 121.41,22.21 C120.560662,22.21 119.81867,22.0163353 119.184,21.629 C118.54933,21.2416647 118.059335,20.6886703 117.714,19.97 C117.368665,19.2513297 117.196,18.4113381 117.196,17.45 C117.196,16.4886619 117.368665,15.6486703 117.714,14.93 C118.059335,14.2113297 118.54933,13.6583353 119.184,13.271 C119.81867,12.8836647 120.555996,12.69 121.396,12.69 C123.234676,12.69 124.429331,13.4413258 124.98,14.944 L124.196,15.308 C123.981332,14.6826635 123.647669,14.2136682 123.195,13.901 C122.742331,13.5883318 122.161337,13.432 121.452,13.432 C120.770663,13.432 120.171003,13.5929984 119.653,13.915 C119.134997,14.2370016 118.733668,14.7013303 118.449,15.308 C118.164332,15.9146697 118.022,16.6286626 118.022,17.45 C118.022,18.2713374 118.161999,18.9853303 118.442,19.592 C118.722001,20.1986697 119.116331,20.6629984 119.625,20.985 C120.133669,21.3070016 120.728663,21.468 121.41,21.468 C122.12867,21.468 122.742331,21.2930018 123.251,20.943 C123.759669,20.5929983 124.116666,20.08667 124.322,19.424 L125.106,19.718 C124.835332,20.5020039 124.37567,21.1133311 123.727,21.552 L123.727,21.552 Z M132.281,15.896 C132.87367,16.5400032 133.17,17.4313276 133.17,18.57 C133.17,19.7086724 132.87367,20.5999968 132.281,21.244 C131.68833,21.8880032 130.869339,22.21 129.824,22.21 C128.778661,22.21 127.95967,21.8880032 127.367,21.244 C126.77433,20.5999968 126.478,19.7086724 126.478,18.57 C126.478,17.4313276 126.77433,16.5400032 127.367,15.896 C127.95967,15.2519968 128.778661,14.93 129.824,14.93 C130.869339,14.93 131.68833,15.2519968 132.281,15.896 L132.281,15.896 Z M127.955,16.407 C127.502331,16.934336 127.276,17.6553288 127.276,18.57 C127.276,19.4846712 127.502331,20.205664 127.955,20.733 C128.407669,21.260336 129.030663,21.524 129.824,21.524 C130.617337,21.524 131.240331,21.260336 131.693,20.733 C132.145669,20.205664 132.372,19.4846712 132.372,18.57 C132.372,17.6553288 132.145669,16.934336 131.693,16.407 C131.240331,15.879664 130.617337,15.616 129.824,15.616 C129.030663,15.616 128.407669,15.879664 127.955,16.407 L127.955,16.407 Z M135.984,20.334 C135.984,20.7446687 136.049333,21.0339992 136.18,21.202 C136.310667,21.3700008 136.529998,21.454 136.838,21.454 C137.024668,21.454 137.183333,21.4400001 137.314,21.412 C137.444667,21.3839999 137.603332,21.332667 137.79,21.258 L137.664,22.028 C137.393332,22.1493339 137.076002,22.21 136.712,22.21 C136.198664,22.21 135.816001,22.0653348 135.564,21.776 C135.311999,21.4866652 135.186,21.0340031 135.186,20.418 L135.186,11.85 L135.984,11.85 L135.984,20.334 Z M144.489,15.896 C145.08167,16.5400032 145.378,17.4313276 145.378,18.57 C145.378,19.7086724 145.08167,20.5999968 144.489,21.244 C143.89633,21.8880032 143.077339,22.21 142.032,22.21 C140.986661,22.21 140.16767,21.8880032 139.575,21.244 C138.98233,20.5999968 138.686,19.7086724 138.686,18.57 C138.686,17.4313276 138.98233,16.5400032 139.575,15.896 C140.16767,15.2519968 140.986661,14.93 142.032,14.93 C143.077339,14.93 143.89633,15.2519968 144.489,15.896 L144.489,15.896 Z M140.163,16.407 C139.710331,16.934336 139.484,17.6553288 139.484,18.57 C139.484,19.4846712 139.710331,20.205664 140.163,20.733 C140.615669,21.260336 141.238663,21.524 142.032,21.524 C142.825337,21.524 143.448331,21.260336 143.901,20.733 C144.353669,20.205664 144.58,19.4846712 144.58,18.57 C144.58,17.6553288 144.353669,16.934336 143.901,16.407 C143.448331,15.879664 142.825337,15.616 142.032,15.616 C141.238663,15.616 140.615669,15.879664 140.163,16.407 L140.163,16.407 Z M151.328,15.14 L151.132,15.896 C150.898665,15.7466659 150.604668,15.672 150.25,15.672 C149.913998,15.672 149.592002,15.776999 149.284,15.987 C148.975998,16.1970011 148.726334,16.4933314 148.535,16.876 C148.343666,17.2586686 148.248,17.6926642 148.248,18.178 L148.248,22.07 L147.45,22.07 L147.45,15.07 L148.122,15.07 L148.22,16.428 C148.406668,15.9519976 148.691331,15.5833346 149.074,15.322 C149.456669,15.0606654 149.923331,14.93 150.474,14.93 C150.828668,14.93 151.113332,14.9999993 151.328,15.14 L151.328,15.14 Z M158.37,18.892 L152.882,18.892 C152.928667,19.7133374 153.173664,20.3549977 153.617,20.817 C154.060336,21.2790023 154.65533,21.51 155.402,21.51 C155.943336,21.51 156.407665,21.4026677 156.795,21.188 C157.182335,20.9733323 157.459999,20.670002 157.628,20.278 L158.286,20.628 C157.735331,21.6826719 156.774007,22.21 155.402,22.21 C154.365995,22.21 153.554003,21.8880032 152.966,21.244 C152.377997,20.5999968 152.084,19.7086724 152.084,18.57 C152.084,17.4313276 152.368664,16.5400032 152.938,15.896 C153.507336,15.2519968 154.305328,14.93 155.332,14.93 C155.96667,14.93 156.514998,15.0769985 156.977,15.371 C157.439002,15.6650015 157.791332,16.0709974 158.034,16.589 C158.276668,17.1070026 158.398,17.69733 158.398,18.36 C158.398,18.5280008 158.388667,18.7053324 158.37,18.892 L158.37,18.892 Z M153.603,16.295 C153.178331,16.7383356 152.938,17.3659959 152.882,18.178 L157.642,18.178 C157.586,17.3753293 157.357335,16.7500022 156.956,16.302 C156.554665,15.8539978 156.013337,15.63 155.332,15.63 C154.603996,15.63 154.027669,15.8516645 153.603,16.295 L153.603,16.295 Z M166.504,11.85 L166.504,22.07 L165.79,22.07 L165.748,20.6 C165.542666,21.0946691 165.213669,21.4866652 164.761,21.776 C164.308331,22.0653348 163.783336,22.21 163.186,22.21 C162.196662,22.21 161.417336,21.8880032 160.848,21.244 C160.278664,20.5999968 159.994,19.7086724 159.994,18.57 C159.994,17.4313276 160.278664,16.5400032 160.848,15.896 C161.417336,15.2519968 162.196662,14.93 163.186,14.93 C163.774003,14.93 164.287331,15.065332 164.726,15.336 C165.164669,15.606668 165.491332,15.9799976 165.706,16.456 L165.706,11.85 L166.504,11.85 Z M164.999,20.796 C165.433002,20.3199976 165.668666,19.6666708 165.706,18.836 L165.706,18.304 C165.668666,17.4733292 165.433002,16.8200024 164.999,16.344 C164.564998,15.8679976 163.993337,15.63 163.284,15.63 C162.499996,15.63 161.888669,15.8913307 161.45,16.414 C161.011331,16.9366693 160.792,17.6553288 160.792,18.57 C160.792,19.4846712 161.011331,20.2033307 161.45,20.726 C161.888669,21.2486693 162.499996,21.51 163.284,21.51 C163.993337,21.51 164.564998,21.2720024 164.999,20.796 L164.999,20.796 Z M182.38,22.07 L181.61,22.07 L181.61,15.434 L181.694,13.586 L178.39,22.07 L177.676,22.07 L174.386,13.586 L174.372,13.586 L174.456,15.434 L174.456,22.07 L173.7,22.07 L173.7,12.83 L174.904,12.83 L177.522,19.508 L178.026,21.132 L178.04,21.132 L178.558,19.522 L181.162,12.83 L182.38,12.83 L182.38,22.07 Z M191.228,21.44 L191.186,22.07 C190.999332,22.1633338 190.756668,22.21 190.458,22.21 C190.121998,22.21 189.851334,22.1236675 189.646,21.951 C189.440666,21.7783325 189.319334,21.4820021 189.282,21.062 C189.067332,21.4166684 188.731336,21.6966656 188.274,21.902 C187.816664,22.1073344 187.331336,22.21 186.818,22.21 C186.12733,22.21 185.569669,22.0536682 185.145,21.741 C184.720331,21.4283318 184.508,20.9873362 184.508,20.418 C184.508,19.876664 184.729664,19.4240018 185.173,19.06 C185.616336,18.6959982 186.285996,18.4393341 187.182,18.29 L189.268,17.926 L189.268,17.366 C189.268,16.824664 189.107002,16.4000015 188.785,16.092 C188.462998,15.7839985 188.008003,15.63 187.42,15.63 C186.346661,15.63 185.618669,16.1106619 185.236,17.072 L184.634,16.638 C184.830001,16.096664 185.172998,15.6766682 185.663,15.378 C186.153002,15.0793318 186.738663,14.93 187.42,14.93 C188.232004,14.93 188.875998,15.1283314 189.352,15.525 C189.828002,15.9216687 190.066,16.5026628 190.066,17.268 L190.066,20.838 C190.066,21.2953356 190.271331,21.524 190.682,21.524 C190.896668,21.524 191.078666,21.4960003 191.228,21.44 L191.228,21.44 Z M188.015,21.307 C188.383669,21.171666 188.684665,20.975668 188.918,20.719 C189.151334,20.4623321 189.268,20.1566684 189.268,19.802 L189.268,18.584 L187.434,18.92 C186.705996,19.0506673 186.174002,19.2373321 185.838,19.48 C185.501998,19.7226679 185.334,20.0353314 185.334,20.418 C185.334,20.7633351 185.469332,21.0316657 185.74,21.223 C186.010668,21.4143343 186.388664,21.51 186.874,21.51 C187.266002,21.51 187.646331,21.442334 188.015,21.307 L188.015,21.307 Z M196.576,15.14 L196.38,15.896 C196.146665,15.7466659 195.852668,15.672 195.498,15.672 C195.161998,15.672 194.840002,15.776999 194.532,15.987 C194.223998,16.1970011 193.974334,16.4933314 193.783,16.876 C193.591666,17.2586686 193.496,17.6926642 193.496,18.178 L193.496,22.07 L192.698,22.07 L192.698,15.07 L193.37,15.07 L193.468,16.428 C193.654668,15.9519976 193.939331,15.5833346 194.322,15.322 C194.704669,15.0606654 195.171331,14.93 195.722,14.93 C196.076668,14.93 196.361332,14.9999993 196.576,15.14 L196.576,15.14 Z M200.496,18.416 L198.886,19.998 L198.886,22.07 L198.088,22.07 L198.088,11.85 L198.886,11.85 L198.886,18.99 L202.918,15.07 L203.94,15.07 L201.084,17.856 L204.066,22.07 L203.1,22.07 L200.496,18.416 Z" id="Colored-Mark" fill="#757575" transform="translate(160.764000, 17.030000) scale(-1, 1) translate(-160.764000, -17.030000) "></path>
                                    <g id="label-prong-copy" transform="translate(75.300000, 18.500000) scale(-1, 1) translate(-75.300000, -18.500000) translate(56.300000, 0.000000)" stroke="#333333" stroke-linecap="square">
                                        <path d="M0.473702431,19.5 L19.5,19.5" id="Line"></path>
                                        <path d="M20.5,36.5 L37.5,36.5" id="Line-Copy"></path>
                                        <path d="M19.5,1.5 L37.5,1.5" id="Line-Copy-2"></path>
                                        <path d="M19.5,1.5 L19.5,36.5" id="Line"></path>
                                    </g>
                                </g>
                                <g id="Mark" transform="translate(251.700000, 79.500000) scale(-1, 1) translate(-251.700000, -79.500000) translate(177.700000, 61.000000)" sketch:type="MSShapeGroup">
                                    <g id="Colored-Mark-Copy" transform="translate(0.300000, 8.000000)" stroke="#444444" stroke-width="4.16666667" stroke-linecap="square">
                                        <path d="M24.6357504,2.65689364 C24.6357504,2.65689364 18.6844423,-1.48380297 12.7331342,2.65689367 C6.78182611,6.79759031 0.830518018,2.65689365 0.830518018,2.65689365" id="Line-Copy-11"></path>
                                        <path d="M24.6357504,12.5632549 C24.6357504,12.5632549 18.6844423,8.42255834 12.7331342,12.563255 C6.78182611,16.7039516 0.830518018,12.563255 0.830518018,12.563255" id="Line-Copy-12"></path>
                                        <path d="M24.6357504,22.4696163 C24.6357504,22.4696163 18.6844423,18.3289196 12.7331342,22.4696163 C6.78182611,26.6103129 0.830518018,22.4696163 0.830518018,22.4696163" id="Line-Copy-13"></path>
                                    </g>
                                    <path d="M125.45,22 L124.68,22 L124.68,15.364 L124.764,13.516 L121.46,22 L120.746,22 L117.456,13.516 L117.442,13.516 L117.526,15.364 L117.526,22 L116.77,22 L116.77,12.76 L117.974,12.76 L120.592,19.438 L121.096,21.062 L121.11,21.062 L121.628,19.452 L124.232,12.76 L125.45,12.76 L125.45,22 Z M134.298,21.37 L134.256,22 C134.069332,22.0933338 133.826668,22.14 133.528,22.14 C133.191998,22.14 132.921334,22.0536675 132.716,21.881 C132.510666,21.7083325 132.389334,21.4120021 132.352,20.992 C132.137332,21.3466684 131.801336,21.6266656 131.344,21.832 C130.886664,22.0373344 130.401336,22.14 129.888,22.14 C129.19733,22.14 128.639669,21.9836682 128.215,21.671 C127.790331,21.3583318 127.578,20.9173362 127.578,20.348 C127.578,19.806664 127.799664,19.3540018 128.243,18.99 C128.686336,18.6259982 129.355996,18.3693341 130.252,18.22 L132.338,17.856 L132.338,17.296 C132.338,16.754664 132.177002,16.3300015 131.855,16.022 C131.532998,15.7139985 131.078003,15.56 130.49,15.56 C129.416661,15.56 128.688669,16.0406619 128.306,17.002 L127.704,16.568 C127.900001,16.026664 128.242998,15.6066682 128.733,15.308 C129.223002,15.0093318 129.808663,14.86 130.49,14.86 C131.302004,14.86 131.945998,15.0583314 132.422,15.455 C132.898002,15.8516687 133.136,16.4326628 133.136,17.198 L133.136,20.768 C133.136,21.2253356 133.341331,21.454 133.752,21.454 C133.966668,21.454 134.148666,21.4260003 134.298,21.37 L134.298,21.37 Z M131.085,21.237 C131.453669,21.101666 131.754665,20.905668 131.988,20.649 C132.221334,20.3923321 132.338,20.0866684 132.338,19.732 L132.338,18.514 L130.504,18.85 C129.775996,18.9806673 129.244002,19.1673321 128.908,19.41 C128.571998,19.6526679 128.404,19.9653314 128.404,20.348 C128.404,20.6933351 128.539332,20.9616657 128.81,21.153 C129.080668,21.3443343 129.458664,21.44 129.944,21.44 C130.336002,21.44 130.716331,21.372334 131.085,21.237 L131.085,21.237 Z M139.646,15.07 L139.45,15.826 C139.216665,15.6766659 138.922668,15.602 138.568,15.602 C138.231998,15.602 137.910002,15.706999 137.602,15.917 C137.293998,16.1270011 137.044334,16.4233314 136.853,16.806 C136.661666,17.1886686 136.566,17.6226642 136.566,18.108 L136.566,22 L135.768,22 L135.768,15 L136.44,15 L136.538,16.358 C136.724668,15.8819976 137.009331,15.5133346 137.392,15.252 C137.774669,14.9906654 138.241331,14.86 138.792,14.86 C139.146668,14.86 139.431332,14.9299993 139.646,15.07 L139.646,15.07 Z M143.566,18.346 L141.956,19.928 L141.956,22 L141.158,22 L141.158,11.78 L141.956,11.78 L141.956,18.92 L145.988,15 L147.01,15 L144.154,17.786 L147.136,22 L146.17,22 L143.566,18.346 Z" fill="#757575" transform="translate(132.086000, 16.960000) scale(-1, 1) translate(-132.086000, -16.960000) "></path>
                                    <g id="label-prong" transform="translate(73.300000, 18.500000) scale(-1, 1) translate(-73.300000, -18.500000) translate(54.300000, 0.000000)" stroke="#333333" stroke-linecap="square">
                                        <path d="M0.473702431,19.5 L19.5,19.5" id="Line"></path>
                                        <path d="M20.5,36.5 L37.5,36.5" id="Line-Copy"></path>
                                        <path d="M19.5,1.5 L37.5,1.5" id="Line-Copy-2"></path>
                                        <path d="M19.5,1.5 L19.5,36.5" id="Line"></path>
                                    </g>
                                </g>
                                <path d="M4.2,29.5 L527.545032,29.5" id="Line" stroke="#000000" stroke-linecap="square" sketch:type="MSShapeGroup"></path>
                                <text id="LOGO-/-COLOR" sketch:type="MSTextLayer" font-family="Montserrat" font-size="16" font-weight="bold" letter-spacing="1" fill="#444444">
                                    <tspan x="0.7" y="15">LOGO / COLO</tspan>
                                    <tspan x="123.876" y="15">R</tspan>
                                </text>
                                <rect id="Rectangle-3" fill="#263B64" sketch:type="MSShapeGroup" x="373.7" y="132" width="104" height="58.6890011" rx="2"></rect>
                                <rect id="Rectangle-3-Copy" fill="#467890" sketch:type="MSShapeGroup" x="462.7" y="132" width="63.25" height="58.6890011" rx="2"></rect>
                                <rect id="Rectangle-3-Copy-2" fill="#467890" sketch:type="MSShapeGroup" x="459.7" y="132" width="37.25" height="58.6890011"></rect>
                                <rect id="Rectangle-3-Copy-6" fill="#DDDDDD" sketch:type="MSShapeGroup" transform="translate(426.700000, 82.500000) rotate(-270.000000) translate(-426.700000, -82.500000) " x="400.2" y="30.5" width="53" height="104" rx="2"></rect>
                                <rect id="Rectangle-3-Copy-9" fill="#757575" sketch:type="MSShapeGroup" x="401.2" y="70.5" width="53" height="24"></rect>
                                <rect id="Rectangle-3-Copy-10" fill="#757575" sketch:type="MSShapeGroup" x="424.2" y="70.5" width="53" height="24"></rect>
                                <rect id="Rectangle-3-Copy-7" fill="#444444" sketch:type="MSShapeGroup" transform="translate(494.450000, 82.500000) rotate(-270.000000) translate(-494.450000, -82.500000) " x="467.95" y="48.75" width="53" height="67.5" rx="2"></rect>
                                <rect id="Rectangle-3-Copy-8" fill="#444444" sketch:type="MSShapeGroup" transform="translate(475.575000, 82.500000) rotate(-270.000000) translate(-475.575000, -82.500000) " x="449.075" y="67.625" width="53" height="29.75"></rect>
                            </g>
                        </g>
                    </g>
                </g>
            </g>
        </g>
    </g>
</svg>