<?xml version="1.0" encoding="UTF-8" standalone="no"?>
<svg width="907px" height="489px" viewBox="0 0 907 489" version="1.1" xmlns="http://www.w3.org/2000/svg" xmlns:xlink="http://www.w3.org/1999/xlink" xmlns:sketch="http://www.bohemiancoding.com/sketch/ns">
    <!-- Generator: Sketch 3.5.2 (25235) - http://www.bohemiancoding.com/sketch -->
    <title>work-item-images</title>
    <desc>Created with Sketch.</desc>
    <defs>
        <path id="path-1" d="M37.6247146,10.1592681 C37.6247146,10.1592681 34.7929431,8.29994105 30.5672033,10.1592681 C26.3414635,12.0185951 23.2414332,10.1592681 23.2414332,10.1592681"></path>
        <path id="path-2" d="M37.6247146,3.17373087 C37.6247146,3.17373087 34.7929431,1.31440386 30.5672033,3.17373086 C26.3414635,5.03305786 23.2414332,3.17373086 23.2414332,3.17373086"></path>
        <path id="path-3" d="M37.6247146,17.1448053 C37.6247146,17.1448053 34.7929431,15.2854782 30.5672033,17.1448052 C26.3414635,19.0041322 23.2414332,17.1448052 23.2414332,17.1448052"></path>
    </defs>
    <g id="Welcome" stroke="none" stroke-width="1" fill="none" fill-rule="evenodd" sketch:type="MSPage">
        <g id="work-item-images" sketch:type="MSArtboardGroup">
            <g id="logo" sketch:type="MSLayerGroup" transform="translate(-20.462147, -99.069321)">
                <rect id="clip-background" stroke="#9B9B9B" stroke-width="0.5" fill="#FFFFFF" sketch:type="MSShapeGroup" x="160" y="339" width="271" height="83"></rect>
                <rect id="clip-background" stroke="#9B9B9B" stroke-width="0.5" fill="#FFFFFF" sketch:type="MSShapeGroup" x="116" y="243" width="271" height="83"></rect>
                <g id="Logotype-Copy-2" transform="translate(151.000000, 275.000000)">
                    <path d="M62.01735,6.95308264 C62.01735,10.082619 60.8063052,12.1037475 58.3841793,13.0165289 L63.2193013,20.0020661 L57.9744232,20.0020661 L53.7402769,13.7709669 L50.790033,13.7709669 L50.790033,20.0020661 L46.5285695,20.0020661 L46.5285695,0.470504132 L53.7675939,0.470504132 C56.7360641,0.470504132 58.8531161,0.982771737 60.1188134,2.00732231 C61.3845108,3.03187289 62.01735,4.68044318 62.01735,6.95308264 L62.01735,6.95308264 Z M56.8817403,9.27228099 C57.409873,8.78794799 57.6739354,8.01954658 57.6739354,6.96705372 C57.6739354,5.91456085 57.4007674,5.19272923 56.8544232,4.80153719 C56.308079,4.41034515 55.351991,4.21475207 53.9861305,4.21475207 L50.790033,4.21475207 L50.790033,9.99877686 L53.9041793,9.99877686 C55.3610972,9.99877686 56.3536076,9.75661399 56.8817403,9.27228099 L56.8817403,9.27228099 Z M73.4371282,4.36843388 C73.02737,4.71305544 72.822494,5.16943931 72.822494,5.73759917 C72.822494,6.30575904 73.072898,6.75748593 73.5737135,7.09279339 C74.074529,7.42810085 75.2309402,7.823944 77.0429818,8.28033471 C78.8550234,8.73672542 80.2618386,9.42130122 81.2634696,10.3340826 C82.2651007,11.2468641 82.7659087,12.5787598 82.7659087,14.3298099 C82.7659087,16.08086 82.1239639,17.5012384 80.840055,18.5909876 C79.5561461,19.6807369 77.8670573,20.2256033 75.7727379,20.2256033 C72.7496334,20.2256033 70.027059,19.0799867 67.604933,16.788719 L70.1454208,13.603314 C72.2033173,15.4475051 74.1063877,16.3695868 75.8546891,16.3695868 C76.6377825,16.3695868 77.2524105,16.1972786 77.6985916,15.852657 C78.1447727,15.5080355 78.3678599,15.0423376 78.3678599,14.4555496 C78.3678599,13.8687615 78.1311143,13.4030637 77.657616,13.0584421 C77.1841177,12.7138206 76.2462409,12.3645472 74.8439574,12.0106116 C72.6221577,11.470394 70.9968081,10.7671903 69.9678599,9.90097934 C68.9389116,9.0347684 68.4244452,7.67493076 68.4244452,5.82142562 C68.4244452,3.96792048 69.0754956,2.53822817 70.377616,1.53230579 C71.6797363,0.5263834 73.3050859,0.0234297521 75.2537135,0.0234297521 C76.5285167,0.0234297521 77.8033007,0.246964707 79.0781038,0.694041322 C80.3529069,1.14111794 81.4637901,1.77446698 82.4107867,2.59410744 L80.2527379,5.7795124 C78.5954939,4.49416713 76.8836411,3.85150413 75.1171282,3.85150413 C74.4068807,3.85150413 73.8468863,4.02381233 73.4371282,4.36843388 L73.4371282,4.36843388 Z M102.134955,2.21688843 C103.473498,3.38115045 104.14276,5.16943009 104.14276,7.58178099 C104.14276,9.9941319 103.455287,11.7591266 102.080321,12.8768182 C100.705355,13.9945097 98.6065139,14.5533471 95.7837356,14.5533471 L93.2432478,14.5533471 L93.2432478,20.0020661 L88.9817843,20.0020661 L88.9817843,0.470504132 L95.7291014,0.470504132 C98.6611486,0.470504132 100.796412,1.05262641 102.134955,2.21688843 L102.134955,2.21688843 Z M99.0071502,9.90097934 C99.5170715,9.31419128 99.7720283,8.45730729 99.7720283,7.33030165 C99.7720283,6.20329602 99.4396739,5.40229576 98.7749551,4.92727686 C98.1102363,4.45225796 97.0767507,4.21475207 95.6744673,4.21475207 L93.2432478,4.21475207 L93.2432478,10.781157 L96.1115404,10.781157 C97.5320354,10.781157 98.497229,10.4877674 99.0071502,9.90097934 L99.0071502,9.90097934 Z M123.825953,0.470504132 L123.825953,4.35446281 L114.319611,4.35446281 L114.319611,8.37813223 L122.869855,8.37813223 L122.869855,12.094438 L114.319611,12.094438 L114.319611,16.1460496 L124.126441,16.1460496 L124.126441,20.0020661 L110.058148,20.0020661 L110.058148,0.470504132 L123.825953,0.470504132 Z M130.506219,0.470504132 L134.767682,0.470504132 L134.767682,8.48990083 L141.979389,0.470504132 L147.251585,0.470504132 L139.657438,9.1046281 C140.313051,10.0360377 141.524096,11.7730906 143.290609,14.3158388 C145.057122,16.8585871 146.377434,18.7539772 147.251585,20.0020661 L142.279877,20.0020661 L136.679877,12.2900331 L134.767682,14.4695207 L134.767682,20.0020661 L130.506219,20.0020661 L130.506219,0.470504132 Z M160.569899,4.24269421 L160.569899,20.0020661 L156.308436,20.0020661 L156.308436,4.24269421 L150.899655,4.24269421 L150.899655,0.470504132 L165.97868,0.470504132 L165.97868,4.24269421 L160.569899,4.24269421 Z M171.675531,0.470504132 L175.936994,0.470504132 L175.936994,20.0020661 L171.675531,20.0020661 L171.675531,0.470504132 Z M190.266041,12.9047603 L195.12848,0.470504132 L199.745065,0.470504132 L192.068968,20.0020661 L188.463114,20.0020661 L180.787016,0.470504132 L185.403602,0.470504132 L190.266041,12.9047603 Z" id="RSPEKTIV" fill="#467890" sketch:type="MSShapeGroup"></path>
                    <path d="M13.5512195,2.21688843 C14.8897628,3.38115045 15.5590244,5.16943009 15.5590244,7.58178099 C15.5590244,9.9941319 14.8715516,11.7591266 13.4965854,12.8768182 C12.1216191,13.9945097 10.0227783,14.5533471 7.2,14.5533471 L4.6595122,14.5533471 L4.6595122,20.0020661 L0.39804878,20.0020661 L0.39804878,0.470504132 L7.14536585,0.470504132 C10.077413,0.470504132 12.2126762,1.05262641 13.5512195,2.21688843 L13.5512195,2.21688843 Z M10.4234146,9.90097934 C10.9333359,9.31419128 11.1882927,8.45730729 11.1882927,7.33030165 C11.1882927,6.20329602 10.8559383,5.40229576 10.1912195,4.92727686 C9.52650074,4.45225796 8.49301514,4.21475207 7.09073171,4.21475207 L4.6595122,4.21475207 L4.6595122,10.781157 L7.52780488,10.781157 C8.94829979,10.781157 9.91349339,10.4877674 10.4234146,9.90097934 L10.4234146,9.90097934 Z" id="P" fill="#467890" sketch:type="MSShapeGroup"></path>
                    <g id="Line-Copy-16">
                        <use stroke="#263B64" stroke-width="3.91586785" stroke-linecap="square" sketch:type="MSShapeGroup" xlink:href="#path-1"></use>
                        <use stroke="none" xlink:href="#path-1"></use>
                    </g>
                    <g id="Line-Copy-18">
                        <use stroke="#263B64" stroke-width="3.91586785" stroke-linecap="square" sketch:type="MSShapeGroup" xlink:href="#path-2"></use>
                        <use stroke="none" xlink:href="#path-2"></use>
                    </g>
                    <g id="Line-Copy-17">
                        <use stroke="#263B64" stroke-width="3.91586785" stroke-linecap="square" sketch:type="MSShapeGroup" xlink:href="#path-3"></use>
                        <use stroke="none" xlink:href="#path-3"></use>
                    </g>
                </g>
            </g>
        </g>
    </g>
</svg>