<?xml version="1.0" encoding="UTF-8" standalone="no"?>
<svg width="907px" height="489px" viewBox="0 0 907 489" version="1.1" xmlns="http://www.w3.org/2000/svg" xmlns:xlink="http://www.w3.org/1999/xlink" xmlns:sketch="http://www.bohemiancoding.com/sketch/ns">
    <!-- Generator: Sketch 3.5.2 (25235) - http://www.bohemiancoding.com/sketch -->
    <title>work-item-images</title>
    <desc>Created with Sketch.</desc>
    <defs>
        <path id="path-1" d="M36.7694225,9.83346806 C36.7694225,9.83346806 34.0380307,8.08153582 29.9620834,9.83346805 C25.8861362,11.5854003 22.8959948,9.83346806 22.8959948,9.83346806"></path>
        <path id="path-2" d="M36.7694225,3.25141564 C36.7694225,3.25141564 34.0380307,1.49948339 29.9620834,3.25141563 C25.8861362,5.00334786 22.8959948,3.25141563 22.8959948,3.25141563"></path>
        <path id="path-3" d="M36.7694225,16.4155205 C36.7694225,16.4155205 34.0380307,14.6635882 29.9620834,16.4155205 C25.8861362,18.1674527 22.8959948,16.4155205 22.8959948,16.4155205"></path>
        <path id="path-4" d="M36.2910065,10.4718794 C36.2910065,10.4718794 33.5596147,8.71994718 29.4836674,10.4718794 C25.4077202,12.2238117 22.4175788,10.4718794 22.4175788,10.4718794"></path>
        <path id="path-5" d="M36.2910065,3.88982701 C36.2910065,3.88982701 33.5596147,2.13789476 29.4836674,3.889827 C25.4077202,5.64175923 22.4175788,3.889827 22.4175788,3.889827"></path>
        <path id="path-6" d="M36.2910065,17.0539319 C36.2910065,17.0539319 33.5596147,15.3019996 29.4836674,17.0539318 C25.4077202,18.8058641 22.4175788,17.0539318 22.4175788,17.0539318"></path>
    </defs>
    <g id="Welcome" stroke="none" stroke-width="1" fill="none" fill-rule="evenodd" sketch:type="MSPage">
        <g id="work-item-images" sketch:type="MSArtboardGroup">
            <g id="logo" sketch:type="MSLayerGroup" transform="translate(-20.462147, -99.069321)">
                <g id="logo-element-table" transform="translate(287.548800, 172.337000)">
                    <rect id="Rectangle-93-Copy" stroke="#9B9B9B" stroke-width="0.602322769" fill="#FFFFFF" sketch:type="MSShapeGroup" x="0" y="0" width="537.805658" height="354.254737"></rect>
                    <g id="Logotype-Copy" transform="translate(115.000000, 41.000000)">
                        <g id="logo/color">
                            <g id="Group-2" transform="translate(183.674149, 245.757647)">
                                <path d="M60.297396,6.81247198 C60.297396,9.76124621 59.1292799,11.6656343 56.7930127,12.5256935 L61.4567409,19.1077459 L56.3977815,19.1077459 L52.3137257,13.2365551 L49.4680611,13.2365551 L49.4680611,19.1077459 L45.3576566,19.1077459 L45.3576566,0.704327327 L52.3400745,0.704327327 C55.2033193,0.704327327 57.2453267,1.18700634 58.4661581,2.15237886 C59.6869895,3.11775138 60.297396,4.67110021 60.297396,6.81247198 L60.297396,6.81247198 Z M55.3438316,8.99771338 C55.8532433,8.54135547 56.1079453,7.81733694 56.1079453,6.82563608 C56.1079453,5.83393522 55.8444604,5.15379661 55.3174829,4.78519983 C54.7905053,4.41660305 53.8683084,4.23230743 52.5508644,4.23230743 L49.4680611,4.23230743 L49.4680611,9.68224683 L52.4718182,9.68224683 C53.8770917,9.68224683 54.83442,9.4540713 55.3438316,8.99771338 L55.3438316,8.99771338 Z M71.3123697,4.37711258 C70.9171365,4.70182879 70.7195229,5.13185191 70.7195229,5.66719486 C70.7195229,6.2025378 70.9610507,6.62817293 71.4441134,6.94411303 C71.9271762,7.26005312 73.0425953,7.63303236 74.7904043,8.06306194 C76.5382132,8.49309151 77.8951601,9.1381262 78.8612857,9.99818535 C79.8274112,10.8582445 80.3104667,12.1132099 80.3104667,13.7631193 C80.3104667,15.4130287 79.6912774,16.751366 78.4528801,17.7781713 C77.2144828,18.8049766 75.5852683,19.3183716 73.5651876,19.3183716 C70.649245,19.3183716 68.0231795,18.2389258 65.6869123,16.0800018 L68.1373457,13.0785859 C70.1222946,14.8162564 71.9579056,15.6850786 73.6442338,15.6850786 C74.3995683,15.6850786 74.9924092,15.522723 75.4227742,15.1980068 C75.8531392,14.8732906 76.0683185,14.4344915 76.0683185,13.8815963 C76.0683185,13.3287011 75.839965,12.889902 75.3832511,12.5651858 C74.9265372,12.2404696 74.0219059,11.9113703 72.6693302,11.5778779 C70.5262881,11.0688633 68.9585533,10.4062767 67.9660789,9.5900981 C66.9736044,8.77391952 66.4773747,7.49262613 66.4773747,5.74617948 C66.4773747,3.99973284 67.1053469,2.65261958 68.3613101,1.7047993 C69.6172733,0.756979007 71.185008,0.283075971 73.0645614,0.283075971 C74.2941757,0.283075971 75.5237716,0.493699543 76.7533859,0.914953004 C77.9830003,1.33620647 79.0545053,1.93297325 79.967933,2.70527126 L77.886382,5.70668717 C76.2878834,4.49558347 74.6367118,3.8900407 72.9328176,3.8900407 C72.2477468,3.8900407 71.7076029,4.05239637 71.3123697,4.37711258 L71.3123697,4.37711258 Z M98.9929258,2.34984043 C100.284021,3.44685466 100.929559,5.13184323 100.929559,7.4048567 C100.929559,9.67787016 100.266455,11.3409188 98.9402283,12.3940524 C97.6140014,13.4471861 95.5895596,13.973745 92.8668421,13.973745 L90.4164087,13.973745 L90.4164087,19.1077459 L86.3060042,19.1077459 L86.3060042,0.704327327 L92.8141447,0.704327327 C95.6422576,0.704327327 97.7018307,1.25282621 98.9929258,2.34984043 L98.9929258,2.34984043 Z M95.9759943,9.5900981 C96.46784,9.03720293 96.7137592,8.22981258 96.7137592,7.16790281 C96.7137592,6.10599304 96.393186,5.35125858 95.7520299,4.90367677 C95.1108739,4.45609497 94.1140229,4.23230743 92.7614472,4.23230743 L90.4164087,4.23230743 L90.4164087,10.4194367 L93.1830271,10.4194367 C94.5531688,10.4194367 95.4841485,10.1429933 95.9759943,9.5900981 L95.9759943,9.5900981 Z M119.915028,0.704327327 L119.915028,4.36394848 L110.745664,4.36394848 L110.745664,8.15521067 L118.992822,8.15521067 L118.992822,11.6568626 L110.745664,11.6568626 L110.745664,15.474453 L120.204864,15.474453 L120.204864,19.1077459 L106.63526,19.1077459 L106.63526,0.704327327 L119.915028,0.704327327 Z M126.358494,0.704327327 L130.468899,0.704327327 L130.468899,8.26052351 L137.424968,0.704327327 L142.510276,0.704327327 L135.185325,8.83974412 C135.817698,9.7173555 136.985814,11.3540762 138.689708,13.7499552 C140.393602,16.1458343 141.667112,17.9317467 142.510276,19.1077459 L137.714804,19.1077459 L132.313311,11.84116 L130.468899,13.8947604 L130.468899,19.1077459 L126.358494,19.1077459 L126.358494,0.704327327 Z M155.356488,4.25863564 L155.356488,19.1077459 L151.246083,19.1077459 L151.246083,4.25863564 L146.029031,4.25863564 L146.029031,0.704327327 L160.57354,0.704327327 L160.57354,4.25863564 L155.356488,4.25863564 Z M166.068451,0.704327327 L170.178855,0.704327327 L170.178855,19.1077459 L166.068451,19.1077459 L166.068451,0.704327327 Z M183.999971,12.4203806 L188.690048,0.704327327 L193.142986,0.704327327 L185.738988,19.1077459 L182.260953,19.1077459 L174.856956,0.704327327 L179.309894,0.704327327 L183.999971,12.4203806 Z" id="RSPEKTIV" fill="#467890" sketch:type="MSShapeGroup"></path>
                                <path d="M13.5492765,2.34984043 C14.8403715,3.44685466 15.4859094,5.13184323 15.4859094,7.4048567 C15.4859094,9.67787016 14.8228059,11.3409188 13.496579,12.3940524 C12.1703521,13.4471861 10.1459103,13.973745 7.42319283,13.973745 L4.97275938,13.973745 L4.97275938,19.1077459 L0.862354877,19.1077459 L0.862354877,0.704327327 L7.37049534,0.704327327 C10.1986083,0.704327327 12.2581814,1.25282621 13.5492765,2.34984043 L13.5492765,2.34984043 Z M10.532345,9.5900981 C11.0241907,9.03720293 11.2701099,8.22981258 11.2701099,7.16790281 C11.2701099,6.10599304 10.9495367,5.35125858 10.3083806,4.90367677 C9.66722456,4.45609497 8.67037361,4.23230743 7.31779785,4.23230743 L4.97275938,4.23230743 L4.97275938,10.4194367 L7.7393778,10.4194367 C9.10951948,10.4194367 10.0404992,10.1429933 10.532345,9.5900981 L10.532345,9.5900981 Z" id="P" fill="#467890" sketch:type="MSShapeGroup"></path>
                                <g id="Line-Copy-16">
                                    <use stroke="#263B64" stroke-width="3.45387452" stroke-linecap="square" sketch:type="MSShapeGroup" xlink:href="#path-1"></use>
                                    <use stroke="none" xlink:href="#path-1"></use>
                                </g>
                                <g id="Line-Copy-18">
                                    <use stroke="#263B64" stroke-width="3.45387452" stroke-linecap="square" sketch:type="MSShapeGroup" xlink:href="#path-2"></use>
                                    <use stroke="none" xlink:href="#path-2"></use>
                                </g>
                                <g id="Line-Copy-17">
                                    <use stroke="#263B64" stroke-width="3.45387452" stroke-linecap="square" sketch:type="MSShapeGroup" xlink:href="#path-3"></use>
                                    <use stroke="none" xlink:href="#path-3"></use>
                                </g>
                            </g>
                            <g id="colored-logotype-label-prong" transform="translate(128.646833, 236.656597)" stroke="#333333" stroke-width="1.04662864" stroke-linecap="square" sketch:type="MSShapeGroup">
                                <path d="M0.445766622,18.3357175 L18.3500201,18.3357175" id="Line"></path>
                                <path d="M19.2910468,34.3207019 L35.2885002,34.3207019" id="Line-Copy"></path>
                                <path d="M18.3500201,1.41043981 L35.2885002,1.41043981" id="Line-Copy-2"></path>
                                <path d="M18.3500201,1.41043981 L18.3500201,34.3207019" id="Line"></path>
                            </g>
                            <path d="M6.71518397,257.796268 C6.10476829,258.208746 5.37798929,258.414981 4.53482517,258.414981 C3.73557586,258.414981 3.03734105,258.23288 2.4400998,257.868671 C1.84285856,257.504462 1.3817601,256.984485 1.0567906,256.308725 C0.731821093,255.632964 0.56933878,254.843125 0.56933878,253.939186 C0.56933878,253.035246 0.731821093,252.245408 1.0567906,251.569647 C1.3817601,250.893886 1.84285856,250.373909 2.4400998,250.0097 C3.03734105,249.645492 3.73118444,249.46339 4.5216508,249.46339 C6.25189383,249.46339 7.37609578,250.169857 7.89429039,251.582811 L7.15652548,251.925078 C6.95451741,251.337078 6.64053132,250.896085 6.21455778,250.602085 C5.78858425,250.308085 5.24185322,250.161088 4.5743483,250.161088 C3.93319225,250.161088 3.36889557,250.312473 2.88144131,250.615249 C2.39398706,250.918025 2.01632546,251.35463 1.7484452,251.925078 C1.48056493,252.495525 1.34662681,253.166888 1.34662681,253.939186 C1.34662681,254.711484 1.47836923,255.382846 1.74185801,255.953294 C2.0053468,256.523741 2.37642127,256.960346 2.85509257,257.263122 C3.33376386,257.565898 3.89366913,257.717284 4.53482517,257.717284 C5.21111306,257.717284 5.78858398,257.552734 6.26725528,257.22363 C6.74592657,256.894526 7.08186973,256.418429 7.27509484,255.795325 L8.01285975,256.071771 C7.75815393,256.808964 7.32559966,257.383791 6.71518397,257.796268 L6.71518397,257.796268 Z M14.7647261,252.47797 C15.3224441,253.083522 15.6012988,253.921628 15.6012988,254.992314 C15.6012988,256.063 15.3224441,256.901106 14.7647261,257.506658 C14.2070082,258.11221 13.4363151,258.414981 12.4526236,258.414981 C11.4689321,258.414981 10.698239,258.11221 10.1405211,257.506658 C9.58280313,256.901106 9.30394835,256.063 9.30394835,254.992314 C9.30394835,253.921628 9.58280313,253.083522 10.1405211,252.47797 C10.698239,251.872418 11.4689321,251.569647 12.4526236,251.569647 C13.4363151,251.569647 14.2070082,251.872418 14.7647261,252.47797 L14.7647261,252.47797 Z M10.6938447,252.95846 C10.2678712,253.45431 10.0548876,254.132255 10.0548876,254.992314 C10.0548876,255.852373 10.2678712,256.530318 10.6938447,257.026168 C11.1198183,257.522019 11.706072,257.76994 12.4526236,257.76994 C13.1991752,257.76994 13.7854289,257.522019 14.2114024,257.026168 C14.637376,256.530318 14.8503596,255.852373 14.8503596,254.992314 C14.8503596,254.132255 14.637376,253.45431 14.2114024,252.95846 C13.7854289,252.46261 13.1991752,252.214688 12.4526236,252.214688 C11.706072,252.214688 11.1198183,252.46261 10.6938447,252.95846 L10.6938447,252.95846 Z M18.2493479,256.650991 C18.2493479,257.03714 18.3108277,257.309196 18.4337891,257.467166 C18.5567506,257.625136 18.763147,257.70412 19.0529847,257.70412 C19.2286439,257.70412 19.3779519,257.690956 19.5009134,257.664627 C19.6238748,257.638299 19.7731829,257.590031 19.9488421,257.519822 L19.8302727,258.243848 C19.5755669,258.357938 19.2769507,258.414981 18.9344153,258.414981 C18.4513525,258.414981 18.0912566,258.278954 17.8541167,258.006894 C17.6169768,257.734835 17.4984086,257.3092 17.4984086,256.729976 L17.4984086,248.673544 L18.2493479,248.673544 L18.2493479,256.650991 Z M26.2527797,252.47797 C26.8104977,253.083522 27.0893524,253.921628 27.0893524,254.992314 C27.0893524,256.063 26.8104977,256.901106 26.2527797,257.506658 C25.6950618,258.11221 24.9243687,258.414981 23.9406772,258.414981 C22.9569857,258.414981 22.1862926,258.11221 21.6285747,257.506658 C21.0708567,256.901106 20.792002,256.063 20.792002,254.992314 C20.792002,253.921628 21.0708567,253.083522 21.6285747,252.47797 C22.1862926,251.872418 22.9569857,251.569647 23.9406772,251.569647 C24.9243687,251.569647 25.6950618,251.872418 26.2527797,252.47797 L26.2527797,252.47797 Z M22.1818984,252.95846 C21.7559248,253.45431 21.5429412,254.132255 21.5429412,254.992314 C21.5429412,255.852373 21.7559248,256.530318 22.1818984,257.026168 C22.6078719,257.522019 23.1941256,257.76994 23.9406772,257.76994 C24.6872288,257.76994 25.2734825,257.522019 25.6994561,257.026168 C26.1254296,256.530318 26.3384132,255.852373 26.3384132,254.992314 C26.3384132,254.132255 26.1254296,253.45431 25.6994561,252.95846 C25.2734825,252.46261 24.6872288,252.214688 23.9406772,252.214688 C23.1941256,252.214688 22.6078719,252.46261 22.1818984,252.95846 L22.1818984,252.95846 Z M32.6884611,251.767108 L32.5040199,252.47797 C32.2844459,252.337552 32.0077869,252.267344 31.6740344,252.267344 C31.3578478,252.267344 31.0548403,252.366074 30.7650026,252.563537 C30.475165,252.760999 30.2402243,253.039637 30.0601736,253.399457 C29.880123,253.759278 29.790099,254.167361 29.790099,254.623719 L29.790099,258.28334 L29.0391597,258.28334 L29.0391597,251.701288 L29.6715296,251.701288 L29.7637502,252.978206 C29.9394094,252.530624 30.2072857,252.183973 30.567387,251.938242 C30.9274884,251.692511 31.3666298,251.569647 31.8848244,251.569647 C32.2185768,251.569647 32.4864531,251.635467 32.6884611,251.767108 L32.6884611,251.767108 Z M39.315171,255.295089 L34.1508166,255.295089 C34.1947314,256.067387 34.4252806,256.670735 34.8424712,257.105153 C35.2596618,257.539571 35.819567,257.756776 36.5222038,257.756776 C37.0316155,257.756776 37.4685611,257.655852 37.833054,257.454002 C38.1975468,257.252151 38.4588359,256.966932 38.6169292,256.598335 L39.2361247,256.927438 C38.7179301,257.919138 37.8132989,258.414981 36.5222038,258.414981 C35.5472953,258.414981 34.7831893,258.11221 34.2298628,257.506658 C33.6765364,256.901106 33.3998773,256.063 33.3998773,254.992314 C33.3998773,253.921628 33.6677536,253.083522 34.2035141,252.47797 C34.7392746,251.872418 35.4902064,251.569647 36.4563319,251.569647 C37.0535732,251.569647 37.5695643,251.707869 38.0043208,251.984316 C38.4390773,252.260764 38.7706291,252.642519 38.998986,253.129593 C39.227343,253.616668 39.3415197,254.171749 39.3415197,254.794853 C39.3415197,254.952823 39.3327369,255.119566 39.315171,255.295089 L39.315171,255.295089 Z M34.8292968,252.853147 C34.4296722,253.270013 34.2035143,253.860197 34.1508166,254.623719 L38.6301036,254.623719 C38.5774058,253.868973 38.3622265,253.280983 37.9845593,252.859729 C37.606892,252.438476 37.097488,252.227852 36.4563319,252.227852 C35.7712611,252.227852 35.2289215,252.436282 34.8292968,252.853147 L34.8292968,252.853147 Z M46.9694819,248.673544 L46.9694819,258.28334 L46.2975889,258.28334 L46.2580658,256.901109 C46.0648406,257.366243 45.755246,257.734835 45.3292724,258.006894 C44.9032989,258.278954 44.4092648,258.414981 43.8471554,258.414981 C42.9161617,258.414981 42.1827956,258.11221 41.6470351,257.506658 C41.1112745,256.901106 40.8433983,256.063 40.8433983,254.992314 C40.8433983,253.921628 41.1112745,253.083522 41.6470351,252.47797 C42.1827956,251.872418 42.9161617,251.569647 43.8471554,251.569647 C44.4004819,251.569647 44.8835374,251.696899 45.2963365,251.951406 C45.7091356,252.205913 46.0165346,252.556953 46.2185426,253.004534 L46.2185426,248.673544 L46.9694819,248.673544 Z M45.5532368,257.085407 C45.9616444,256.637825 46.1834108,256.023506 46.2185426,255.242432 L46.2185426,254.742196 C46.1834108,253.961122 45.9616444,253.346803 45.5532368,252.899221 C45.1448292,252.45164 44.606881,252.227852 43.939376,252.227852 C43.2016074,252.227852 42.6263322,252.47358 42.2135331,252.965042 C41.800734,253.456504 41.5943376,254.132255 41.5943376,254.992314 C41.5943376,255.852373 41.800734,256.528124 42.2135331,257.019586 C42.6263322,257.511049 43.2016074,257.756776 43.939376,257.756776 C44.606881,257.756776 45.1448292,257.532989 45.5532368,257.085407 L45.5532368,257.085407 Z M59.6432291,257.585643 L59.6432291,258.28334 L53.7411098,258.28334 L53.7411098,249.595031 L54.4920491,249.595031 L54.4920491,257.585643 L59.6432291,257.585643 Z M65.8154231,252.47797 C66.373141,253.083522 66.6519958,253.921628 66.6519958,254.992314 C66.6519958,256.063 66.373141,256.901106 65.8154231,257.506658 C65.2577051,258.11221 64.487012,258.414981 63.5033205,258.414981 C62.5196291,258.414981 61.7489359,258.11221 61.191218,257.506658 C60.6335001,256.901106 60.3546453,256.063 60.3546453,254.992314 C60.3546453,253.921628 60.6335001,253.083522 61.191218,252.47797 C61.7489359,251.872418 62.5196291,251.569647 63.5033205,251.569647 C64.487012,251.569647 65.2577051,251.872418 65.8154231,252.47797 L65.8154231,252.47797 Z M61.7445417,252.95846 C61.3185682,253.45431 61.1055846,254.132255 61.1055846,254.992314 C61.1055846,255.852373 61.3185682,256.530318 61.7445417,257.026168 C62.1705152,257.522019 62.756769,257.76994 63.5033205,257.76994 C64.2498721,257.76994 64.8361259,257.522019 65.2620994,257.026168 C65.6880729,256.530318 65.9010565,255.852373 65.9010565,254.992314 C65.9010565,254.132255 65.6880729,253.45431 65.2620994,252.95846 C64.8361259,252.46261 64.2498721,252.214688 63.5033205,252.214688 C62.756769,252.214688 62.1705152,252.46261 61.7445417,252.95846 L61.7445417,252.95846 Z M73.5553674,257.987148 C73.9330347,258.263596 74.1218655,258.629993 74.1218655,259.086351 C74.1218655,259.490052 73.9857317,259.845479 73.7134599,260.152643 C73.4411882,260.459807 73.0657223,260.696759 72.587051,260.863505 C72.1083797,261.030251 71.5616487,261.113623 70.9468415,261.113623 C69.9455841,261.113623 69.1836738,260.953461 68.6610877,260.633133 C68.1385016,260.312805 67.8772125,259.889364 67.8772125,259.362797 C67.8772125,259.029305 67.978215,258.741891 68.1802231,258.500548 C68.3822312,258.259205 68.6632817,258.081491 69.023383,257.967402 C68.7686772,257.844536 68.5666721,257.684375 68.4173618,257.486912 C68.2680515,257.289449 68.1933975,257.067856 68.1933975,256.822125 C68.1933975,256.506185 68.2944,256.236323 68.4964081,256.012532 C68.6984161,255.788741 68.9706838,255.62858 69.3132192,255.532042 C68.9706838,255.347744 68.7050033,255.102017 68.5161696,254.794853 C68.327336,254.487689 68.2329206,254.136649 68.2329206,253.741724 C68.2329206,253.083516 68.4788398,252.556957 68.9706855,252.162032 C69.4625312,251.767106 70.1124605,251.569647 70.9204928,251.569647 C71.4650363,251.569647 71.9524832,251.666183 72.3828482,251.859257 C72.4443289,251.438004 72.630964,251.104516 72.9427591,250.858785 C73.2545541,250.613054 73.6344115,250.49019 74.0823424,250.49019 L74.2536092,251.148396 C73.8408101,251.148396 73.5136498,251.233961 73.2721184,251.405096 C73.030587,251.57623 72.8922575,251.824151 72.8571257,252.148868 C73.0942656,252.341942 73.2787049,252.574506 73.4104493,252.846565 C73.5421937,253.118625 73.6080649,253.417008 73.6080649,253.741724 C73.6080649,254.391157 73.3621458,254.913328 72.8703,255.308253 C72.3784543,255.703178 71.728525,255.900637 70.9204928,255.900637 C70.648221,255.900637 70.3496049,255.869921 70.0246354,255.808489 C69.664534,255.843593 69.387875,255.944517 69.1946499,256.111263 C69.0014247,256.278009 68.9048136,256.479857 68.9048136,256.716812 C68.9048136,256.980095 69.0211861,257.188525 69.2539345,257.342107 C69.486683,257.495689 69.8358004,257.572479 70.3012972,257.572479 L72.0007914,257.572479 C72.6595134,257.572479 73.1777002,257.7107 73.5553674,257.987148 L73.5553674,257.987148 Z M69.517422,252.616193 C69.1704951,252.892641 68.9970343,253.267814 68.9970343,253.741724 C68.9970343,254.215634 69.1682994,254.588614 69.5108348,254.860673 C69.8533702,255.132733 70.3232515,255.26876 70.9204928,255.26876 C71.517734,255.26876 71.9876153,255.132733 72.3301507,254.860673 C72.6726861,254.588614 72.8439513,254.215634 72.8439513,253.741724 C72.8439513,253.267814 72.6726861,252.892641 72.3301507,252.616193 C71.9876153,252.339746 71.517734,252.201524 70.9204928,252.201524 C70.3320345,252.201524 69.8643489,252.339746 69.517422,252.616193 L69.517422,252.616193 Z M72.7846666,260.113151 C73.2194231,259.86742 73.4367981,259.555872 73.4367981,259.178499 C73.4367981,258.880112 73.3050557,258.645354 73.0415669,258.47422 C72.7780781,258.303086 72.3784594,258.21752 71.8426989,258.21752 L70.1432047,258.21752 C69.660142,258.21752 69.2758932,258.311862 68.9904471,258.500548 C68.7050009,258.689235 68.5622799,258.937156 68.5622799,259.24432 C68.5622799,259.630469 68.7752635,259.93324 69.201237,260.152643 C69.6272106,260.372046 70.2398128,260.481746 71.0390621,260.481746 C71.7680478,260.481746 72.3499101,260.358882 72.7846666,260.113151 L72.7846666,260.113151 Z M80.4785007,252.47797 C81.0362186,253.083522 81.3150734,253.921628 81.3150734,254.992314 C81.3150734,256.063 81.0362186,256.901106 80.4785007,257.506658 C79.9207827,258.11221 79.1500896,258.414981 78.1663981,258.414981 C77.1827067,258.414981 76.4120135,258.11221 75.8542956,257.506658 C75.2965777,256.901106 75.0177229,256.063 75.0177229,254.992314 C75.0177229,253.921628 75.2965777,253.083522 75.8542956,252.47797 C76.4120135,251.872418 77.1827067,251.569647 78.1663981,251.569647 C79.1500896,251.569647 79.9207827,251.872418 80.4785007,252.47797 L80.4785007,252.47797 Z M76.4076193,252.95846 C75.9816458,253.45431 75.7686622,254.132255 75.7686622,254.992314 C75.7686622,255.852373 75.9816458,256.530318 76.4076193,257.026168 C76.8335928,257.522019 77.4198466,257.76994 78.1663981,257.76994 C78.9129497,257.76994 79.4992035,257.522019 79.925177,257.026168 C80.3511505,256.530318 80.5641341,255.852373 80.5641341,254.992314 C80.5641341,254.132255 80.3511505,253.45431 79.925177,252.95846 C79.4992035,252.46261 78.9129497,252.214688 78.1663981,252.214688 C77.4198466,252.214688 76.8335928,252.46261 76.4076193,252.95846 L76.4076193,252.95846 Z M86.8614846,257.862089 C86.4662514,258.230686 85.952456,258.414981 85.3200829,258.414981 C84.7843224,258.414981 84.3605509,258.267984 84.0487559,257.973984 C83.7369608,257.679984 83.5810656,257.234603 83.5810656,256.637827 L83.5810656,252.346329 L82.2636283,252.346329 L82.2636283,251.701288 L83.5810656,251.701288 L83.5810656,250.068939 L84.3320049,249.871477 L84.3320049,251.701288 L86.8087871,251.701288 L86.8087871,252.346329 L84.3320049,252.346329 L84.3320049,256.51935 C84.3320049,256.914275 84.428616,257.212659 84.6218411,257.414509 C84.8150662,257.61636 85.0917253,257.717284 85.4518266,257.717284 C85.8997576,257.717284 86.2774192,257.554928 86.5848227,257.230212 L86.8614846,257.862089 Z M90.4317398,259.46811 C90.1858169,260.073662 89.9113535,260.499297 89.6083414,260.745028 C89.3053293,260.990759 88.9210806,261.113623 88.4555838,261.113623 C87.8846914,261.113623 87.4499414,260.946879 87.1513208,260.613387 L87.4279826,259.968346 C87.6563396,260.293062 87.9944785,260.455418 88.4424094,260.455418 C88.74103,260.455418 88.995732,260.369852 89.2065231,260.198718 C89.4173141,260.027583 89.6105363,259.722618 89.7861955,259.283812 L90.1946011,258.28334 L87.4148083,251.701288 L88.2711425,251.701288 L90.2077754,256.532514 L90.5503091,257.48033 L90.932366,256.440366 L92.7767782,251.701288 L93.5935894,251.701288 L90.4317398,259.46811 Z M100.352043,252.47797 C100.887803,253.083522 101.15568,253.921628 101.15568,254.992314 C101.15568,256.063 100.887803,256.901106 100.352043,257.506658 C99.8162824,258.11221 99.0829163,258.414981 98.1519226,258.414981 C97.5985961,258.414981 97.1155406,258.28773 96.7027415,258.033222 C96.2899424,257.778715 95.9825435,257.427676 95.7805354,256.980094 L95.7805354,261.047802 L95.0295961,261.047802 L95.0295961,251.701288 L95.7014891,251.701288 L95.7410123,253.096683 C95.9342374,252.622773 96.2416363,252.249794 96.6632184,251.977734 C97.0848005,251.705675 97.5810302,251.569647 98.1519226,251.569647 C99.0829163,251.569647 99.8162824,251.872418 100.352043,252.47797 L100.352043,252.47797 Z M99.7855449,257.019586 C100.198344,256.528124 100.40474,255.852373 100.40474,254.992314 C100.40474,254.132255 100.198344,253.456504 99.7855449,252.965042 C99.3727458,252.47358 98.7974706,252.227852 98.059702,252.227852 C97.3921971,252.227852 96.8498574,252.458222 96.4326669,252.918968 C96.0154763,253.379714 95.7981013,254.00939 95.7805354,254.808017 L95.7805354,255.176612 C95.7981013,255.975238 96.0132806,256.604915 96.4260797,257.065661 C96.8388788,257.526407 97.3834141,257.756776 98.059702,257.756776 C98.7974706,257.756776 99.3727458,257.511049 99.7855449,257.019586 L99.7855449,257.019586 Z M108.612375,255.295089 L103.448021,255.295089 C103.491936,256.067387 103.722485,256.670735 104.139675,257.105153 C104.556866,257.539571 105.116771,257.756776 105.819408,257.756776 C106.32882,257.756776 106.765765,257.655852 107.130258,257.454002 C107.494751,257.252151 107.75604,256.966932 107.914133,256.598335 L108.533329,256.927438 C108.015134,257.919138 107.110503,258.414981 105.819408,258.414981 C104.844499,258.414981 104.080393,258.11221 103.527067,257.506658 C102.97374,256.901106 102.697081,256.063 102.697081,254.992314 C102.697081,253.921628 102.964958,253.083522 103.500718,252.47797 C104.036479,251.872418 104.787411,251.569647 105.753536,251.569647 C106.350777,251.569647 106.866768,251.707869 107.301525,251.984316 C107.736281,252.260764 108.067833,252.642519 108.29619,253.129593 C108.524547,253.616668 108.638724,254.171749 108.638724,254.794853 C108.638724,254.952823 108.629941,255.119566 108.612375,255.295089 L108.612375,255.295089 Z M104.126501,252.853147 C103.726876,253.270013 103.500718,253.860197 103.448021,254.623719 L107.927308,254.623719 C107.87461,253.868973 107.659431,253.280983 107.281763,252.859729 C106.904096,252.438476 106.394692,252.227852 105.753536,252.227852 C105.068465,252.227852 104.526126,252.436282 104.126501,252.853147 L104.126501,252.853147 Z" id="Colored-Logotype" fill="#757575" sketch:type="MSShapeGroup"></path>
                            <path d="M129.0926,178.828565 L146.996853,178.828565" id="Line" stroke="#333333" stroke-width="1.04662864" stroke-linecap="square" sketch:type="MSShapeGroup"></path>
                            <path d="M147.93788,194.813549 L163.935333,194.813549" id="Line-Copy" stroke="#333333" stroke-width="1.04662864" stroke-linecap="square" sketch:type="MSShapeGroup"></path>
                            <path d="M146.996853,161.903287 L163.935333,161.903287" id="Line-Copy-2" stroke="#333333" stroke-width="1.04662864" stroke-linecap="square" sketch:type="MSShapeGroup"></path>
                            <path d="M146.996853,161.903287 L146.996853,194.813549" id="Line" stroke="#333333" stroke-width="1.04662864" stroke-linecap="square" sketch:type="MSShapeGroup"></path>
                            <path d="M58.7680743,181.421893 L58.7680743,182.119591 L52.865955,182.119591 L52.865955,173.431282 L53.6168943,173.431282 L53.6168943,181.421893 L58.7680743,181.421893 Z M64.9402683,176.314221 C65.4979862,176.919772 65.776841,177.757879 65.776841,178.828565 C65.776841,179.899251 65.4979862,180.737357 64.9402683,181.342909 C64.3825503,181.948461 63.6118572,182.251232 62.6281657,182.251232 C61.6444743,182.251232 60.8737811,181.948461 60.3160632,181.342909 C59.7583453,180.737357 59.4794905,179.899251 59.4794905,178.828565 C59.4794905,177.757879 59.7583453,176.919772 60.3160632,176.314221 C60.8737811,175.708669 61.6444743,175.405897 62.6281657,175.405897 C63.6118572,175.405897 64.3825503,175.708669 64.9402683,176.314221 L64.9402683,176.314221 Z M60.8693869,176.79471 C60.4434133,177.290561 60.2304298,177.968506 60.2304298,178.828565 C60.2304298,179.688624 60.4434133,180.366568 60.8693869,180.862419 C61.2953604,181.358269 61.8816142,181.606191 62.6281657,181.606191 C63.3747173,181.606191 63.960971,181.358269 64.3869446,180.862419 C64.8129181,180.366568 65.0259017,179.688624 65.0259017,178.828565 C65.0259017,177.968506 64.8129181,177.290561 64.3869446,176.79471 C63.960971,176.29886 63.3747173,176.050939 62.6281657,176.050939 C61.8816142,176.050939 61.2953604,176.29886 60.8693869,176.79471 L60.8693869,176.79471 Z M72.6802126,181.823399 C73.0578799,182.099846 73.2467107,182.466243 73.2467107,182.922601 C73.2467107,183.326303 73.1105769,183.68173 72.8383051,183.988894 C72.5660334,184.296058 72.1905675,184.533009 71.7118962,184.699755 C71.2332249,184.866502 70.6864939,184.949873 70.0716867,184.949873 C69.0704293,184.949873 68.308519,184.789712 67.7859329,184.469384 C67.2633468,184.149055 67.0020577,183.725614 67.0020577,183.199047 C67.0020577,182.865555 67.1030602,182.578142 67.3050683,182.336799 C67.5070764,182.095455 67.7881269,181.917742 68.1482282,181.803652 C67.8935224,181.680787 67.6915173,181.520625 67.542207,181.323163 C67.3928967,181.1257 67.3182427,180.904106 67.3182427,180.658375 C67.3182427,180.342435 67.4192452,180.072574 67.6212533,179.848783 C67.8232613,179.624992 68.095529,179.46483 68.4380644,179.368293 C68.095529,179.183995 67.8298484,178.938267 67.6410148,178.631103 C67.4521812,178.323939 67.3577658,177.9729 67.3577658,177.577975 C67.3577658,176.919766 67.603685,176.393207 68.0955307,175.998282 C68.5873764,175.603357 69.2373057,175.405897 70.045338,175.405897 C70.5898815,175.405897 71.0773284,175.502433 71.5076934,175.695508 C71.5691741,175.274254 71.7558092,174.940767 72.0676043,174.695036 C72.3793993,174.449305 72.7592566,174.326441 73.2071876,174.326441 L73.3784544,174.984646 C72.9656553,174.984646 72.638495,175.070212 72.3969636,175.241346 C72.1554322,175.41248 72.0171027,175.660402 71.9819709,175.985118 C72.2191108,176.178193 72.4035501,176.410756 72.5352945,176.682816 C72.6670389,176.954875 72.7329101,177.253258 72.7329101,177.577975 C72.7329101,178.227407 72.486991,178.749578 71.9951452,179.144503 C71.5032995,179.539428 70.8533702,179.736888 70.045338,179.736888 C69.7730662,179.736888 69.4744501,179.706172 69.1494806,179.644739 C68.7893792,179.679844 68.5127202,179.780767 68.319495,179.947514 C68.1262699,180.11426 68.0296588,180.316107 68.0296588,180.553062 C68.0296588,180.816346 68.1460313,181.024775 68.3787797,181.178357 C68.6115282,181.331939 68.9606456,181.408729 69.4261424,181.408729 L71.1256366,181.408729 C71.7843585,181.408729 72.3025454,181.546951 72.6802126,181.823399 L72.6802126,181.823399 Z M68.6422672,176.452444 C68.2953403,176.728891 68.1218794,177.104065 68.1218794,177.577975 C68.1218794,178.051885 68.2931446,178.424864 68.63568,178.696924 C68.9782154,178.968983 69.4480967,179.105011 70.045338,179.105011 C70.6425792,179.105011 71.1124605,178.968983 71.4549959,178.696924 C71.7975313,178.424864 71.9687965,178.051885 71.9687965,177.577975 C71.9687965,177.104065 71.7975313,176.728891 71.4549959,176.452444 C71.1124605,176.175996 70.6425792,176.037774 70.045338,176.037774 C69.4568797,176.037774 68.9891941,176.175996 68.6422672,176.452444 L68.6422672,176.452444 Z M71.9095118,183.949401 C72.3442683,183.70367 72.5616433,183.392123 72.5616433,183.01475 C72.5616433,182.716362 72.4299009,182.481605 72.1664121,182.31047 C71.9029233,182.139336 71.5033046,182.05377 70.9675441,182.05377 L69.2680499,182.05377 C68.7849872,182.05377 68.4007384,182.148112 68.1152923,182.336799 C67.8298461,182.525485 67.6871251,182.773407 67.6871251,183.080571 C67.6871251,183.46672 67.9001087,183.769491 68.3260822,183.988894 C68.7520558,184.208297 69.364658,184.317996 70.1639073,184.317996 C70.892893,184.317996 71.4747553,184.195133 71.9095118,183.949401 L71.9095118,183.949401 Z M79.6033459,176.314221 C80.1610638,176.919772 80.4399186,177.757879 80.4399186,178.828565 C80.4399186,179.899251 80.1610638,180.737357 79.6033459,181.342909 C79.0456279,181.948461 78.2749348,182.251232 77.2912433,182.251232 C76.3075519,182.251232 75.5368587,181.948461 74.9791408,181.342909 C74.4214229,180.737357 74.1425681,179.899251 74.1425681,178.828565 C74.1425681,177.757879 74.4214229,176.919772 74.9791408,176.314221 C75.5368587,175.708669 76.3075519,175.405897 77.2912433,175.405897 C78.2749348,175.405897 79.0456279,175.708669 79.6033459,176.314221 L79.6033459,176.314221 Z M75.5324645,176.79471 C75.106491,177.290561 74.8935074,177.968506 74.8935074,178.828565 C74.8935074,179.688624 75.106491,180.366568 75.5324645,180.862419 C75.958438,181.358269 76.5446918,181.606191 77.2912433,181.606191 C78.0377949,181.606191 78.6240487,181.358269 79.0500222,180.862419 C79.4759957,180.366568 79.6889793,179.688624 79.6889793,178.828565 C79.6889793,177.968506 79.4759957,177.290561 79.0500222,176.79471 C78.6240487,176.29886 78.0377949,176.050939 77.2912433,176.050939 C76.5446918,176.050939 75.958438,176.29886 75.5324645,176.79471 L75.5324645,176.79471 Z M85.9863298,181.69834 C85.5910966,182.066936 85.0773012,182.251232 84.4449281,182.251232 C83.9091676,182.251232 83.4853961,182.104234 83.1736011,181.810234 C82.861806,181.516235 82.7059108,181.070854 82.7059108,180.474078 L82.7059108,176.18258 L81.3884735,176.18258 L81.3884735,175.537538 L82.7059108,175.537538 L82.7059108,173.905189 L83.4568501,173.707728 L83.4568501,175.537538 L85.9336323,175.537538 L85.9336323,176.18258 L83.4568501,176.18258 L83.4568501,180.355601 C83.4568501,180.750526 83.5534612,181.048909 83.7466863,181.25076 C83.9399114,181.452611 84.2165705,181.553534 84.5766718,181.553534 C85.0246028,181.553534 85.4022644,181.391179 85.7096679,181.066462 L85.9863298,181.69834 Z M89.556585,183.30436 C89.3106621,183.909912 89.0361987,184.335547 88.7331866,184.581278 C88.4301745,184.82701 88.0459258,184.949873 87.580429,184.949873 C87.0095366,184.949873 86.5747866,184.78313 86.276166,184.449637 L86.5528278,183.804596 C86.7811848,184.129313 87.1193237,184.291668 87.5672546,184.291668 C87.8658752,184.291668 88.1205772,184.206102 88.3313683,184.034968 C88.5421593,183.863834 88.7353815,183.558869 88.9110407,183.120063 L89.3194463,182.119591 L86.5396535,175.537538 L87.3959877,175.537538 L89.3326206,180.368765 L89.6751543,181.31658 L90.0572112,180.276616 L91.9016234,175.537538 L92.7184346,175.537538 L89.556585,183.30436 Z M99.4768882,176.314221 C100.012649,176.919772 100.280525,177.757879 100.280525,178.828565 C100.280525,179.899251 100.012649,180.737357 99.4768882,181.342909 C98.9411276,181.948461 98.2077615,182.251232 97.2767678,182.251232 C96.7234413,182.251232 96.2403858,182.12398 95.8275867,181.869473 C95.4147876,181.614966 95.1073887,181.263926 94.9053806,180.816344 L94.9053806,184.884053 L94.1544413,184.884053 L94.1544413,175.537538 L94.8263343,175.537538 L94.8658575,176.932934 C95.0590826,176.459023 95.3664815,176.086044 95.7880636,175.813985 C96.2096457,175.541925 96.7058754,175.405897 97.2767678,175.405897 C98.2077615,175.405897 98.9411276,175.708669 99.4768882,176.314221 L99.4768882,176.314221 Z M98.9103901,180.855837 C99.3231892,180.364374 99.5295856,179.688624 99.5295856,178.828565 C99.5295856,177.968506 99.3231892,177.292755 98.9103901,176.801293 C98.497591,176.30983 97.9223158,176.064103 97.1845472,176.064103 C96.5170423,176.064103 95.9747026,176.294472 95.5575121,176.755218 C95.1403215,177.215964 94.9229465,177.845641 94.9053806,178.644267 L94.9053806,179.012862 C94.9229465,179.811488 95.1381258,180.441165 95.5509249,180.901911 C95.963724,181.362657 96.5082593,181.593027 97.1845472,181.593027 C97.9223158,181.593027 98.497591,181.347299 98.9103901,180.855837 L98.9103901,180.855837 Z M107.73722,179.131339 L102.572866,179.131339 C102.616781,179.903637 102.84733,180.506986 103.264521,180.941403 C103.681711,181.375821 104.241616,181.593027 104.944253,181.593027 C105.453665,181.593027 105.89061,181.492103 106.255103,181.290252 C106.619596,181.088402 106.880885,180.803182 107.038978,180.434585 L107.658174,180.763688 C107.139979,181.755389 106.235348,182.251232 104.944253,182.251232 C103.969345,182.251232 103.205239,181.948461 102.651912,181.342909 C102.098586,180.737357 101.821927,179.899251 101.821927,178.828565 C101.821927,177.757879 102.089803,176.919772 102.625563,176.314221 C103.161324,175.708669 103.912256,175.405897 104.878381,175.405897 C105.475622,175.405897 105.991614,175.544119 106.42637,175.820567 C106.861127,176.097014 107.192678,176.47877 107.421035,176.965844 C107.649392,177.452918 107.763569,178.007999 107.763569,178.631103 C107.763569,178.789073 107.754786,178.955817 107.73722,179.131339 L107.73722,179.131339 Z M103.251346,176.689398 C102.851721,177.106263 102.625564,177.696448 102.572866,178.45997 L107.052153,178.45997 C106.999455,177.705224 106.784276,177.117233 106.406609,176.69598 C106.028941,176.274726 105.519537,176.064103 104.878381,176.064103 C104.19331,176.064103 103.650971,176.272532 103.251346,176.689398 L103.251346,176.689398 Z" id="Logotype" fill="#757575" sketch:type="MSShapeGroup"></path>
                            <g id="Logotype-Copy-2" transform="translate(183.717104, 168.015193)">
                                <path d="M59.81898,7.45088335 C59.81898,10.3996576 58.6508639,12.3040457 56.3145967,13.1641049 L60.9783249,19.7461573 L55.9193655,19.7461573 L51.8353097,13.8749665 L48.9896451,13.8749665 L48.9896451,19.7461573 L44.8792406,19.7461573 L44.8792406,1.34273869 L51.8616585,1.34273869 C54.7249033,1.34273869 56.7669107,1.82541771 57.9877421,2.79079023 C59.2085735,3.75616274 59.81898,5.30951158 59.81898,7.45088335 L59.81898,7.45088335 Z M54.8654156,9.63612475 C55.3748273,9.17976683 55.6295293,8.45574831 55.6295293,7.46404745 C55.6295293,6.47234659 55.3660444,5.79220798 54.8390669,5.4236112 C54.3120893,5.05501442 53.3898924,4.87071879 52.0724484,4.87071879 L48.9896451,4.87071879 L48.9896451,10.3206582 L51.9934022,10.3206582 C53.3986757,10.3206582 54.356004,10.0924827 54.8654156,9.63612475 L54.8654156,9.63612475 Z M70.8339537,5.01552395 C70.4387205,5.34024016 70.2411069,5.77026328 70.2411069,6.30560622 C70.2411069,6.84094916 70.4826347,7.2665843 70.9656975,7.58252439 C71.4487602,7.89846449 72.5641794,8.27144373 74.3119883,8.70147331 C76.0597972,9.13150288 77.4167441,9.77653757 78.3828697,10.6365967 C79.3489952,11.4966559 79.8320508,12.7516213 79.8320508,14.4015307 C79.8320508,16.0514401 79.2128614,17.3897774 77.9744641,18.4165827 C76.7360668,19.443388 75.1068523,19.956783 73.0867716,19.956783 C70.170829,19.956783 67.5447635,18.8773372 65.2084963,16.7184132 L67.6589297,13.7169973 C69.6438786,15.4546678 71.4794896,16.32349 73.1658178,16.32349 C73.9211523,16.32349 74.5139932,16.1611343 74.9443582,15.8364181 C75.3747232,15.5117019 75.5899025,15.0729028 75.5899025,14.5200077 C75.5899025,13.9671125 75.361549,13.5283134 74.9048351,13.2035972 C74.4481212,12.878881 73.5434899,12.5497816 72.1909142,12.2162893 C70.0478721,11.7072747 68.4801373,11.0446881 67.4876629,10.2285095 C66.4951884,9.41233089 65.9989587,8.13103749 65.9989587,6.38459085 C65.9989587,4.63814421 66.6269309,3.29103095 67.8828941,2.34321066 C69.1388573,1.39539038 70.706592,0.92148734 72.5861454,0.92148734 C73.8157597,0.92148734 75.0453556,1.13211091 76.2749699,1.55336437 C77.5045843,1.97461783 78.5760893,2.57138462 79.489517,3.34368263 L77.407966,6.34509854 C75.8094674,5.13399484 74.1582958,4.52845207 72.4544016,4.52845207 C71.7693308,4.52845207 71.2291869,4.69080774 70.8339537,5.01552395 L70.8339537,5.01552395 Z M98.5145098,2.9882518 C99.8056048,4.08526602 100.451143,5.77025459 100.451143,8.04326806 C100.451143,10.3162815 99.7880392,11.9793301 98.4618123,13.0324638 C97.1355854,14.0855975 95.1111436,14.6121564 92.3884261,14.6121564 L89.9379927,14.6121564 L89.9379927,19.7461573 L85.8275882,19.7461573 L85.8275882,1.34273869 L92.3357287,1.34273869 C95.1638416,1.34273869 97.2234147,1.89123758 98.5145098,2.9882518 L98.5145098,2.9882518 Z M95.4975783,10.2285095 C95.989424,9.6756143 96.2353432,8.86822394 96.2353432,7.80631418 C96.2353432,6.74440441 95.91477,5.98966994 95.2736139,5.54208814 C94.6324579,5.09450634 93.6356069,4.87071879 92.2830312,4.87071879 L89.9379927,4.87071879 L89.9379927,11.0578481 L92.7046111,11.0578481 C94.0747528,11.0578481 95.0057325,10.7814046 95.4975783,10.2285095 L95.4975783,10.2285095 Z M119.436612,1.34273869 L119.436612,5.00235984 L110.267248,5.00235984 L110.267248,8.79362204 L118.514406,8.79362204 L118.514406,12.2952739 L110.267248,12.2952739 L110.267248,16.1128643 L119.726449,16.1128643 L119.726449,19.7461573 L106.156844,19.7461573 L106.156844,1.34273869 L119.436612,1.34273869 Z M125.880078,1.34273869 L129.990483,1.34273869 L129.990483,8.89893488 L136.946552,1.34273869 L142.03186,1.34273869 L134.706909,9.47815549 C135.339282,10.3557669 136.507398,11.9924875 138.211292,14.3883666 C139.915186,16.7842457 141.188696,18.570158 142.03186,19.7461573 L137.236388,19.7461573 L131.834895,12.4795714 L129.990483,14.5331718 L129.990483,19.7461573 L125.880078,19.7461573 L125.880078,1.34273869 Z M154.878072,4.897047 L154.878072,19.7461573 L150.767667,19.7461573 L150.767667,4.897047 L145.550615,4.897047 L145.550615,1.34273869 L160.095124,1.34273869 L160.095124,4.897047 L154.878072,4.897047 Z M165.590035,1.34273869 L169.700439,1.34273869 L169.700439,19.7461573 L165.590035,19.7461573 L165.590035,1.34273869 Z M183.521555,13.058792 L188.211632,1.34273869 L192.66457,1.34273869 L185.260572,19.7461573 L181.782537,19.7461573 L174.37854,1.34273869 L178.831478,1.34273869 L183.521555,13.058792 Z" id="RSPEKTIV" fill="#333333" sketch:type="MSShapeGroup"></path>
                                <path d="M13.0708605,2.9882518 C14.3619555,4.08526602 15.0074934,5.77025459 15.0074934,8.04326806 C15.0074934,10.3162815 14.3443899,11.9793301 13.018163,13.0324638 C11.6919361,14.0855975 9.66749429,14.6121564 6.94477684,14.6121564 L4.49434338,14.6121564 L4.49434338,19.7461573 L0.383938882,19.7461573 L0.383938882,1.34273869 L6.89207934,1.34273869 C9.72019231,1.34273869 11.7797654,1.89123758 13.0708605,2.9882518 L13.0708605,2.9882518 Z M10.053929,10.2285095 C10.5457747,9.6756143 10.7916939,8.86822394 10.7916939,7.80631418 C10.7916939,6.74440441 10.4711207,5.98966994 9.82996461,5.54208814 C9.18880857,5.09450634 8.19195762,4.87071879 6.83938185,4.87071879 L4.49434338,4.87071879 L4.49434338,11.0578481 L7.2609618,11.0578481 C8.63110349,11.0578481 9.56208323,10.7814046 10.053929,10.2285095 L10.053929,10.2285095 Z" id="P" fill="#333333" sketch:type="MSShapeGroup"></path>
                                <g id="Line-Copy-16">
                                    <use stroke="#333333" stroke-width="3.45387452" stroke-linecap="square" sketch:type="MSShapeGroup" xlink:href="#path-4"></use>
                                    <use stroke="none" xlink:href="#path-4"></use>
                                </g>
                                <g id="Line-Copy-18">
                                    <use stroke="#333333" stroke-width="3.45387452" stroke-linecap="square" sketch:type="MSShapeGroup" xlink:href="#path-5"></use>
                                    <use stroke="none" xlink:href="#path-5"></use>
                                </g>
                                <g id="Line-Copy-17">
                                    <use stroke="#333333" stroke-width="3.45387452" stroke-linecap="square" sketch:type="MSShapeGroup" xlink:href="#path-6"></use>
                                    <use stroke="none" xlink:href="#path-6"></use>
                                </g>
                            </g>
                            <g id="Colored-Mark-+-Colored-Mark-+-label-prong-copy" transform="translate(113.778612, 100.784229) scale(-1, 1) translate(-113.778612, -100.784229) translate(17.323378, 83.388804)" sketch:type="MSShapeGroup">
                                <g id="Colored-Mark" transform="translate(0.282308, 5.641759)" stroke="#263B64" stroke-width="4.36095267" stroke-linecap="square">
                                    <path d="M23.1828982,2.49825903 C23.1828982,2.49825903 17.5825585,-1.39520985 11.9822189,2.49825906 C6.38187925,6.39172797 0.781539606,2.49825905 0.781539606,2.49825905" id="Line-Copy-11"></path>
                                    <path d="M23.1828982,11.8131432 C23.1828982,11.8131432 17.5825585,7.91967436 11.9822189,11.8131433 C6.38187925,15.7066122 0.781539606,11.8131433 0.781539606,11.8131433" id="Line-Copy-12"></path>
                                    <path d="M23.1828982,21.1280275 C23.1828982,21.1280275 17.5825585,17.2345586 11.9822189,21.1280275 C6.38187925,25.0214964 0.781539606,21.1280275 0.781539606,21.1280275" id="Line-Copy-13"></path>
                                </g>
                                <path d="M116.430407,20.2651991 C115.819991,20.6776765 115.093212,20.8839121 114.250048,20.8839121 C113.450799,20.8839121 112.752564,20.7018104 112.155323,20.3376017 C111.558082,19.973393 111.096983,19.453416 110.772014,18.7776553 C110.447044,18.1018945 110.284562,17.3120561 110.284562,16.4081164 C110.284562,15.5041767 110.447044,14.7143383 110.772014,14.0385775 C111.096983,13.3628168 111.558082,12.8428398 112.155323,12.4786311 C112.752564,12.1144224 113.446408,11.9323208 114.236874,11.9323208 C115.967117,11.9323208 117.091319,12.6387873 117.609513,14.0517416 L116.871749,14.3940084 C116.66974,13.8060087 116.355754,13.3650156 115.929781,13.0710158 C115.503807,12.777016 114.957076,12.6300183 114.289571,12.6300183 C113.648415,12.6300183 113.084119,12.781404 112.596664,13.0841799 C112.10921,13.3869559 111.731549,13.823561 111.463668,14.3940084 C111.195788,14.9644558 111.06185,15.6358184 111.06185,16.4081164 C111.06185,17.1804144 111.193592,17.851777 111.457081,18.4222244 C111.72057,18.9926718 112.091644,19.429277 112.570316,19.7320529 C113.048987,20.0348288 113.608892,20.1862145 114.250048,20.1862145 C114.926336,20.1862145 115.503807,20.0216648 115.982478,19.6925606 C116.46115,19.3634563 116.797093,18.8873593 116.990318,18.2642552 L117.728083,18.5407014 C117.473377,19.2778949 117.040823,19.8527218 116.430407,20.2651991 L116.430407,20.2651991 Z M124.479949,14.9469008 C125.037667,15.5524526 125.316522,16.3905589 125.316522,17.4612448 C125.316522,18.5319307 125.037667,19.370037 124.479949,19.9755888 C123.922231,20.5811407 123.151538,20.8839121 122.167847,20.8839121 C121.184155,20.8839121 120.413462,20.5811407 119.855744,19.9755888 C119.298026,19.370037 119.019171,18.5319307 119.019171,17.4612448 C119.019171,16.3905589 119.298026,15.5524526 119.855744,14.9469008 C120.413462,14.3413489 121.184155,14.0385775 122.167847,14.0385775 C123.151538,14.0385775 123.922231,14.3413489 124.479949,14.9469008 L124.479949,14.9469008 Z M120.409068,15.4273906 C119.983094,15.923241 119.770111,16.6011856 119.770111,17.4612448 C119.770111,18.3213039 119.983094,18.9992486 120.409068,19.495099 C120.835041,19.9909494 121.421295,20.2388709 122.167847,20.2388709 C122.914398,20.2388709 123.500652,19.9909494 123.926625,19.495099 C124.352599,18.9992486 124.565583,18.3213039 124.565583,17.4612448 C124.565583,16.6011856 124.352599,15.923241 123.926625,15.4273906 C123.500652,14.9315402 122.914398,14.6836187 122.167847,14.6836187 C121.421295,14.6836187 120.835041,14.9315402 120.409068,15.4273906 L120.409068,15.4273906 Z M127.964571,19.119922 C127.964571,19.506071 128.026051,19.7781265 128.149012,19.9360965 C128.271974,20.0940666 128.47837,20.1730504 128.768208,20.1730504 C128.943867,20.1730504 129.093175,20.1598864 129.216136,20.1335581 C129.339098,20.1072297 129.488406,20.0589618 129.664065,19.9887529 L129.545496,20.7127787 C129.29079,20.8268682 128.992174,20.8839121 128.649638,20.8839121 C128.166576,20.8839121 127.80648,20.7478843 127.56934,20.4758248 C127.3322,20.2037653 127.213632,19.7781301 127.213632,19.1989066 L127.213632,11.1424745 L127.964571,11.1424745 L127.964571,19.119922 Z M135.968003,14.9469008 C136.525721,15.5524526 136.804576,16.3905589 136.804576,17.4612448 C136.804576,18.5319307 136.525721,19.370037 135.968003,19.9755888 C135.410285,20.5811407 134.639592,20.8839121 133.6559,20.8839121 C132.672209,20.8839121 131.901516,20.5811407 131.343798,19.9755888 C130.78608,19.370037 130.507225,18.5319307 130.507225,17.4612448 C130.507225,16.3905589 130.78608,15.5524526 131.343798,14.9469008 C131.901516,14.3413489 132.672209,14.0385775 133.6559,14.0385775 C134.639592,14.0385775 135.410285,14.3413489 135.968003,14.9469008 L135.968003,14.9469008 Z M131.897121,15.4273906 C131.471148,15.923241 131.258164,16.6011856 131.258164,17.4612448 C131.258164,18.3213039 131.471148,18.9992486 131.897121,19.495099 C132.323095,19.9909494 132.909349,20.2388709 133.6559,20.2388709 C134.402452,20.2388709 134.988706,19.9909494 135.414679,19.495099 C135.840653,18.9992486 136.053636,18.3213039 136.053636,17.4612448 C136.053636,16.6011856 135.840653,15.923241 135.414679,15.4273906 C134.988706,14.9315402 134.402452,14.6836187 133.6559,14.6836187 C132.909349,14.6836187 132.323095,14.9315402 131.897121,15.4273906 L131.897121,15.4273906 Z M142.403684,14.2360391 L142.219243,14.9469008 C141.999669,14.8064829 141.72301,14.7362751 141.389257,14.7362751 C141.073071,14.7362751 140.770063,14.8350049 140.480226,15.0324674 C140.190388,15.22993 139.955447,15.5085674 139.775397,15.8683881 C139.595346,16.2282088 139.505322,16.6362919 139.505322,17.0926499 L139.505322,20.752271 L138.754383,20.752271 L138.754383,14.1702186 L139.386753,14.1702186 L139.478973,15.4471367 C139.654632,14.9995549 139.922509,14.6529037 140.28261,14.4071725 C140.642711,14.1614413 141.081853,14.0385775 141.600047,14.0385775 C141.9338,14.0385775 142.201676,14.1043974 142.403684,14.2360391 L142.403684,14.2360391 Z M149.030394,17.7640192 L143.86604,17.7640192 C143.909954,18.5363172 144.140504,19.139666 144.557694,19.5740836 C144.974885,20.0085013 145.53479,20.2257068 146.237427,20.2257068 C146.746839,20.2257068 147.183784,20.124783 147.548277,19.9229324 C147.91277,19.7210818 148.174059,19.4358624 148.332152,19.0672656 L148.951348,19.3963682 C148.433153,20.3880691 147.528522,20.8839121 146.237427,20.8839121 C145.262518,20.8839121 144.498412,20.5811407 143.945086,19.9755888 C143.391759,19.370037 143.1151,18.5319307 143.1151,17.4612448 C143.1151,16.3905589 143.382977,15.5524526 143.918737,14.9469008 C144.454498,14.3413489 145.205429,14.0385775 146.171555,14.0385775 C146.768796,14.0385775 147.284787,14.1767992 147.719544,14.4532468 C148.1543,14.7296944 148.485852,15.1114496 148.714209,15.598524 C148.942566,16.0855983 149.056743,16.6406791 149.056743,17.2637832 C149.056743,17.4217533 149.04796,17.5884969 149.030394,17.7640192 L149.030394,17.7640192 Z M144.54452,15.3220778 C144.144895,15.7389432 143.918737,16.329128 143.86604,17.0926499 L148.345327,17.0926499 C148.292629,16.3379041 148.07745,15.7499133 147.699782,15.3286598 C147.322115,14.9074063 146.812711,14.6967828 146.171555,14.6967828 C145.486484,14.6967828 144.944145,14.9052123 144.54452,15.3220778 L144.54452,15.3220778 Z M156.684705,11.1424745 L156.684705,20.752271 L156.012812,20.752271 L155.973289,19.37004 C155.780064,19.835174 155.470469,20.2037653 155.044495,20.4758248 C154.618522,20.7478843 154.124488,20.8839121 153.562378,20.8839121 C152.631385,20.8839121 151.898019,20.5811407 151.362258,19.9755888 C150.826498,19.370037 150.558621,18.5319307 150.558621,17.4612448 C150.558621,16.3905589 150.826498,15.5524526 151.362258,14.9469008 C151.898019,14.3413489 152.631385,14.0385775 153.562378,14.0385775 C154.115705,14.0385775 154.59876,14.1658293 155.01156,14.4203366 C155.424359,14.6748439 155.731758,15.0258832 155.933766,15.473465 L155.933766,11.1424745 L156.684705,11.1424745 Z M155.26846,19.5543375 C155.676867,19.1067557 155.898634,18.4924369 155.933766,17.7113628 L155.933766,17.2111268 C155.898634,16.4300527 155.676867,15.8157339 155.26846,15.3681521 C154.860052,14.9205703 154.322104,14.6967828 153.654599,14.6967828 C152.91683,14.6967828 152.341555,14.9425103 151.928756,15.4339726 C151.515957,15.925435 151.309561,16.6011856 151.309561,17.4612448 C151.309561,18.3213039 151.515957,18.9970546 151.928756,19.4885169 C152.341555,19.9799793 152.91683,20.2257068 153.654599,20.2257068 C154.322104,20.2257068 154.860052,20.0019193 155.26846,19.5543375 L155.26846,19.5543375 Z M171.624444,20.752271 L170.899854,20.752271 L170.899854,14.5124853 L170.9789,12.7748235 L167.869748,20.752271 L167.197855,20.752271 L164.101877,12.7748235 L164.088703,12.7748235 L164.167749,14.5124853 L164.167749,20.752271 L163.456333,20.752271 L163.456333,12.0639618 L164.589329,12.0639618 L167.052937,18.3432398 L167.527214,19.870276 L167.540389,19.870276 L168.02784,18.3564039 L170.478274,12.0639618 L171.624444,12.0639618 L171.624444,20.752271 Z M179.950648,20.1598863 L179.911125,20.752271 C179.735466,20.8400321 179.507113,20.8839121 179.226058,20.8839121 C178.909871,20.8839121 178.655169,20.8027342 178.461944,20.6403761 C178.268719,20.478018 178.154542,20.1993806 178.119411,19.8044555 C177.917402,20.1379478 177.601221,20.4012272 177.170856,20.5943017 C176.740491,20.7873762 176.283784,20.8839121 175.800721,20.8839121 C175.150782,20.8839121 174.626008,20.7369144 174.226383,20.4429145 C173.826759,20.1489147 173.626949,19.7342496 173.626949,19.1989066 C173.626949,18.689892 173.835541,18.2642569 174.252732,17.9219885 C174.669922,17.57972 175.30009,17.3383805 176.143254,17.1979627 L178.106236,16.855696 L178.106236,16.3291318 C178.106236,15.8201172 177.954732,15.42081 177.65172,15.1311982 C177.348708,14.8415865 176.920545,14.6967828 176.367219,14.6967828 C175.357178,14.6967828 174.672118,15.1487459 174.312017,16.0526856 L173.745519,15.6445983 C173.929961,15.1355837 174.25273,14.7406645 174.713835,14.4598289 C175.17494,14.1789932 175.726063,14.0385775 176.367219,14.0385775 C177.131336,14.0385775 177.737351,14.2250672 178.185282,14.598052 C178.633213,14.9710368 178.857175,15.5173417 178.857175,16.236983 L178.857175,19.5938298 C178.857175,20.0238594 179.050398,20.2388709 179.436848,20.2388709 C179.638856,20.2388709 179.810121,20.212543 179.950648,20.1598863 L179.950648,20.1598863 Z M176.92713,20.0348273 C177.274057,19.9075736 177.557303,19.723278 177.776877,19.4819349 C177.996451,19.2405918 178.106236,18.9531783 178.106236,18.619686 L178.106236,17.4744089 L176.380393,17.7903474 C175.695322,17.913213 175.194701,18.0887326 174.878515,18.3169116 C174.562328,18.5450906 174.404237,18.839086 174.404237,19.1989066 C174.404237,19.5236228 174.531588,19.7759323 174.786294,19.9558427 C175.041,20.135753 175.396704,20.2257068 175.853418,20.2257068 C176.222303,20.2257068 176.580203,20.1620809 176.92713,20.0348273 L176.92713,20.0348273 Z M184.983259,14.2360391 L184.798818,14.9469008 C184.579244,14.8064829 184.302585,14.7362751 183.968832,14.7362751 C183.652646,14.7362751 183.349638,14.8350049 183.059801,15.0324674 C182.769963,15.22993 182.535022,15.5085674 182.354972,15.8683881 C182.174921,16.2282088 182.084897,16.6362919 182.084897,17.0926499 L182.084897,20.752271 L181.333958,20.752271 L181.333958,14.1702186 L181.966328,14.1702186 L182.058548,15.4471367 C182.234207,14.9995549 182.502084,14.6529037 182.862185,14.4071725 C183.222286,14.1614413 183.661428,14.0385775 184.179622,14.0385775 C184.513375,14.0385775 184.781251,14.1043974 184.983259,14.2360391 L184.983259,14.2360391 Z M188.672084,17.3164396 L187.157031,18.8039835 L187.157031,20.752271 L186.406091,20.752271 L186.406091,11.1424745 L187.157031,11.1424745 L187.157031,17.8561679 L190.95125,14.1702186 L191.912979,14.1702186 L189.225407,16.7898754 L192.031549,20.752271 L191.122517,20.752271 L188.672084,17.3164396 Z" id="Colored-Mark" fill="#757575" transform="translate(151.283212, 16.013193) scale(-1, 1) translate(-151.283212, -16.013193) "></path>
                                <g id="label-prong-copy" transform="translate(70.859308, 17.395424) scale(-1, 1) translate(-70.859308, -17.395424) translate(52.979802, 0.000000)" stroke="#333333" stroke-width="1.04662864" stroke-linecap="square">
                                    <path d="M0.445766622,18.3357175 L18.3500201,18.3357175" id="Line"></path>
                                    <path d="M19.2910468,34.3207019 L35.2885002,34.3207019" id="Line-Copy"></path>
                                    <path d="M18.3500201,1.41043981 L35.2885002,1.41043981" id="Line-Copy-2"></path>
                                    <path d="M18.3500201,1.41043981 L18.3500201,34.3207019" id="Line"></path>
                                </g>
                            </g>
                            <g id="Mark" transform="translate(140.597872, 24.620479) scale(-1, 1) translate(-140.597872, -24.620479) translate(70.961898, 7.225055)" sketch:type="MSShapeGroup">
                                <g id="Colored-Mark-Copy" transform="translate(0.282308, 7.522346)" stroke="#444444" stroke-width="4.36095267" stroke-linecap="square">
                                    <path d="M23.1828982,2.49825903 C23.1828982,2.49825903 17.5825585,-1.39520985 11.9822189,2.49825906 C6.38187925,6.39172797 0.781539606,2.49825905 0.781539606,2.49825905" id="Line-Copy-11"></path>
                                    <path d="M23.1828982,11.8131432 C23.1828982,11.8131432 17.5825585,7.91967436 11.9822189,11.8131433 C6.38187925,15.7066122 0.781539606,11.8131433 0.781539606,11.8131433" id="Line-Copy-12"></path>
                                    <path d="M23.1828982,21.1280275 C23.1828982,21.1280275 17.5825585,17.2345586 11.9822189,21.1280275 C6.38187925,25.0214964 0.781539606,21.1280275 0.781539606,21.1280275" id="Line-Copy-13"></path>
                                </g>
                                <path d="M118.051796,20.6864505 L117.327205,20.6864505 L117.327205,14.4466648 L117.406252,12.7090029 L114.2971,20.6864505 L113.625207,20.6864505 L110.529229,12.7090029 L110.516054,12.7090029 L110.595101,14.4466648 L110.595101,20.6864505 L109.883684,20.6864505 L109.883684,11.9981413 L111.016681,11.9981413 L113.480288,18.2774193 L113.954566,19.8044555 L113.96774,19.8044555 L114.455192,18.2905834 L116.905625,11.9981413 L118.051796,11.9981413 L118.051796,20.6864505 Z M126.378,20.0940658 L126.338477,20.6864505 C126.162818,20.7742116 125.934464,20.8180915 125.653409,20.8180915 C125.337223,20.8180915 125.082521,20.7369137 124.889296,20.5745556 C124.696071,20.4121975 124.581894,20.1335601 124.546762,19.7386349 C124.344754,20.0721273 124.028572,20.3354067 123.598207,20.5284812 C123.167842,20.7215557 122.711135,20.8180915 122.228072,20.8180915 C121.578133,20.8180915 121.053359,20.6710938 120.653735,20.377094 C120.25411,20.0830942 120.054301,19.668429 120.054301,19.1330861 C120.054301,18.6240715 120.262893,18.1984364 120.680083,17.8561679 C121.097274,17.5138995 121.727442,17.27256 122.570606,17.1321422 L124.533588,16.7898754 L124.533588,16.2633112 C124.533588,15.7542967 124.382084,15.3549895 124.079072,15.0653777 C123.77606,14.775766 123.347897,14.6309622 122.79457,14.6309622 C121.78453,14.6309622 121.09947,15.0829253 120.739368,15.986865 L120.17287,15.5787778 C120.357312,15.0697632 120.680081,14.674844 121.141187,14.3940084 C121.602292,14.1131727 122.153414,13.972757 122.79457,13.972757 C123.558688,13.972757 124.164703,14.1592466 124.612634,14.5322315 C125.060565,14.9052163 125.284527,15.4515212 125.284527,16.1711625 L125.284527,19.5280093 C125.284527,19.9580388 125.477749,20.1730504 125.864199,20.1730504 C126.066207,20.1730504 126.237473,20.1467224 126.378,20.0940658 L126.378,20.0940658 Z M123.354481,19.9690068 C123.701408,19.8417531 123.984654,19.6574575 124.204228,19.4161144 C124.423802,19.1747712 124.533588,18.8873578 124.533588,18.5538655 L124.533588,17.4085884 L122.807745,17.7245269 C122.122674,17.8473925 121.622053,18.0229121 121.305866,18.2510911 C120.98968,18.47927 120.831589,18.7732654 120.831589,19.1330861 C120.831589,19.4578023 120.95894,19.7101118 121.213646,19.8900221 C121.468351,20.0699325 121.824056,20.1598863 122.28077,20.1598863 C122.649654,20.1598863 123.007554,20.0962604 123.354481,19.9690068 L123.354481,19.9690068 Z M131.410611,14.1702186 L131.226169,14.8810802 C131.006595,14.7406624 130.729936,14.6704546 130.396184,14.6704546 C130.079997,14.6704546 129.77699,14.7691844 129.487152,14.9666469 C129.197314,15.1641095 128.962374,15.4427469 128.782323,15.8025676 C128.602272,16.1623882 128.512248,16.5704714 128.512248,17.0268293 L128.512248,20.6864505 L127.761309,20.6864505 L127.761309,14.1043981 L128.393679,14.1043981 L128.4859,15.3813162 C128.661559,14.9337344 128.929435,14.5870831 129.289537,14.3413519 C129.649638,14.0956208 130.088779,13.972757 130.606974,13.972757 C130.940726,13.972757 131.208603,14.0385769 131.410611,14.1702186 L131.410611,14.1702186 Z M135.099435,17.2506191 L133.584382,18.738163 L133.584382,20.6864505 L132.833443,20.6864505 L132.833443,11.0766539 L133.584382,11.0766539 L133.584382,17.7903474 L137.378602,14.1043981 L138.340331,14.1043981 L135.652759,16.7240549 L138.4589,20.6864505 L137.549869,20.6864505 L135.099435,17.2506191 Z" fill="#757575" transform="translate(124.296449, 15.947373) scale(-1, 1) translate(-124.296449, -15.947373) "></path>
                                <g id="label-prong" transform="translate(68.977255, 17.395424) scale(-1, 1) translate(-68.977255, -17.395424) translate(51.097748, 0.000000)" stroke="#333333" stroke-width="1.04662864" stroke-linecap="square">
                                    <path d="M0.445766622,18.3357175 L18.3500201,18.3357175" id="Line"></path>
                                    <path d="M19.2910468,34.3207019 L35.2885002,34.3207019" id="Line-Copy"></path>
                                    <path d="M18.3500201,1.41043981 L35.2885002,1.41043981" id="Line-Copy-2"></path>
                                    <path d="M18.3500201,1.41043981 L18.3500201,34.3207019" id="Line"></path>
                                </g>
                            </g>
                            <rect id="Rectangle-3" fill="#333333" sketch:type="MSShapeGroup" x="255.670632" y="0.273932285" width="125.563071" height="50" rx="2.09325728"></rect>
                            <rect id="Rectangle-3" fill="#467890" sketch:type="MSShapeGroup" x="255.403126" y="77.9858725" width="80.9282938" height="50" rx="2.09325728"></rect>
                            <rect id="Rectangle-3-Copy-2" fill="#467890" sketch:type="MSShapeGroup" x="301.882338" y="77.9858725" width="35.0532435" height="50"></rect>
                            <rect id="Rectangle-3-Copy" fill="#263B64" sketch:type="MSShapeGroup" x="339.154499" y="77.9858725" width="42.0792031" height="50" rx="2.09325728"></rect>
                            <rect id="Rectangle-3-Copy-2" fill="#263B64" sketch:type="MSShapeGroup" x="336.331419" y="77.9858725" width="35.0532435" height="50"></rect>
                        </g>
                    </g>
                </g>
            </g>
        </g>
    </g>
</svg>