<?xml version="1.0" encoding="UTF-8" standalone="no"?>
<svg width="1020px" height="550px" viewBox="0 0 1020 550" version="1.1" xmlns="http://www.w3.org/2000/svg" xmlns:xlink="http://www.w3.org/1999/xlink" xmlns:sketch="http://www.bohemiancoding.com/sketch/ns">
    <!-- Generator: Sketch 3.4.4 (17249) - http://www.bohemiancoding.com/sketch -->
    <title>Artboard 7</title>
    <desc>Created with Sketch.</desc>
    <defs>
        <linearGradient x1="50%" y1="-125.779544%" x2="50%" y2="100%" id="linearGradient-1">
            <stop stop-color="#FFFFFF" offset="0%"></stop>
            <stop stop-color="#FFE7C0" offset="100%"></stop>
        </linearGradient>
    </defs>
    <g id="Welcome" stroke="none" stroke-width="1" fill="none" fill-rule="evenodd" sketch:type="MSPage">
        <g id="Artboard-7" sketch:type="MSArtboardGroup">
            <g id="touch-tone" sketch:type="MSLayerGroup" transform="translate(128.000000, 7.000000)">
                <g id="projector" sketch:type="MSShapeGroup">
                    <g id="projector-string" transform="translate(379.000000, 481.000000)">
                        <path d="M7.5,0.5 L7.5,36.5391998" id="Line" stroke="#666666" stroke-linecap="square"></path>
                        <circle id="Oval-9" stroke="#4A4A4A" cx="7" cy="45" r="7"></circle>
                    </g>
                    <rect id="projector-screen" stroke="#9B9B9B" fill="#FFF4E2" x="45.6348316" y="48" width="672.753162" height="438" rx="2"></rect>
                    <path d="M0,24 C0,24 -3.41060513e-13,39 21,48 C41,48 563,49 743.000693,48 C744,49 764,40 764,23" id="Path-80" fill="url(#linearGradient-1)"></path>
                    <g id="projector-top" stroke="#9B9B9B" stroke-linecap="square">
                        <path d="M0.5,23.5 L763.5,23.5" id="Line"></path>
                        <path d="M20.5,48.5 L743.5,48.5" id="Line"></path>
                        <path d="M20.5,1.5 L743.5,1.5" id="Line"></path>
                        <path d="M20.023061,1.5838693 C20.023061,1.5838693 -7.03335918e-07,7.99999937 -7.03302192e-07,23.9999994 C-7.03268466e-07,39.9999994 20.5,48.5 20.5,48.5" id="Line"></path>
                        <path d="M764.023061,1.5838693 C764.023061,1.5838693 743.999999,7.99999937 743.999999,23.9999994 C743.999999,39.9999994 764.5,48.5 764.5,48.5" id="Line" transform="translate(754.250000, 25.041935) scale(-1, 1) translate(-754.250000, -25.041935) "></path>
                    </g>
                </g>
            </g>
        </g>
    </g>
</svg>