<?xml version="1.0" encoding="UTF-8" standalone="no"?>
<svg width="907px" height="489px" viewBox="0 0 907 489" version="1.1" xmlns="http://www.w3.org/2000/svg" xmlns:xlink="http://www.w3.org/1999/xlink" xmlns:sketch="http://www.bohemiancoding.com/sketch/ns">
    <!-- Generator: Sketch 3.5.2 (25235) - http://www.bohemiancoding.com/sketch -->
    <title>work-item-images</title>
    <desc>Created with Sketch.</desc>
    <defs>
        <path id="path-1" d="M29.4797869,230.416999 C134.332405,139.72105 33.0042444,96.2753725 54.1509914,40.8011481 C99.9689423,-49.0142607 347.660203,38.4016926 484.200602,51.3676675 C590.984559,61.5079493 671.184546,-2.34547565 745.428171,65.4563564 C819.671796,144.705247 746.842987,210.584782 738.095468,279.428371 C730.797356,336.865017 754.594051,400.062794 683.10019,421.195832 C611.606329,442.328869 585.941857,352.513458 409.956996,371.004866 C233.972135,389.496273 146.710254,454.742842 85.9133546,420.401645 C15.3360744,379.016113 -34.4314681,302.498652 29.4797869,230.416999 Z"></path>
        <path id="path-2" d="M40.660974,229.952883 C142.254771,142.075766 44.0758912,99.9803811 64.565397,46.2302965 C108.959325,-40.793648 348.952337,43.9054161 481.249059,56.4684083 C584.714169,66.2935299 662.421539,4.42467047 734.357671,70.1192205 C806.293803,146.905055 735.728515,210.737052 727.252868,277.440982 C720.181582,333.092495 743.238675,394.326085 673.966844,414.802307 C604.695013,435.278529 579.828194,348.254583 409.312945,366.171277 C238.797696,384.087972 154.247917,447.306676 95.3405854,414.032804 C26.9568483,373.933535 -21.2639183,299.794238 40.660974,229.952883 Z"></path>
        <path id="path-3" d="M59.5279294,229.169743 C155.622844,146.049076 62.7580103,106.232153 82.1384978,55.3913543 C124.129553,-26.9223181 351.132664,53.1923107 476.268672,65.0753164 C574.133613,74.3686419 647.634982,15.8485063 715.677487,77.9872625 C783.719992,150.616974 716.974132,210.993991 708.957239,274.087493 C702.268695,326.726803 724.077796,384.646053 658.555384,404.013977 C593.032971,423.3819 569.512097,341.068225 408.226184,358.015158 C246.940271,374.96209 166.966847,434.759009 111.247943,403.286123 C46.5655554,365.357274 0.954793888,295.230853 59.5279294,229.169743 Z"></path>
    </defs>
    <g id="Welcome" stroke="none" stroke-width="1" fill="none" fill-rule="evenodd" sketch:type="MSPage">
        <g id="work-item-images" sketch:type="MSArtboardGroup">
            <g id="flow" sketch:type="MSLayerGroup" transform="translate(28.840000, -1.870000)">
                <g id="waves" transform="translate(35.000000, 31.000000)">
                    <g id="Rectangle-79-Copy">
                        <use stroke="none" sketch:type="MSShapeGroup" transform="translate(389.234655, 215.484082) rotate(-180.000000) translate(-389.234655, -215.484082) " xlink:href="#path-1"></use>
                        <use stroke="none" xlink:href="#path-1"></use>
                        <use stroke="#4A4A4A" stroke-width="0.520047" xlink:href="#path-1"></use>
                    </g>
                    <g id="Rectangle-79-Copy-3">
                        <use stroke="none" sketch:type="MSShapeGroup" transform="translate(389.234655, 215.484082) rotate(-180.000000) translate(-389.234655, -215.484082) " xlink:href="#path-2"></use>
                        <use stroke="none" xlink:href="#path-2"></use>
                        <use stroke="#4A4A4A" stroke-width="0.520047" xlink:href="#path-2"></use>
                    </g>
                    <g id="Rectangle-79-Copy-4">
                        <use stroke="none" sketch:type="MSShapeGroup" transform="translate(389.234655, 215.484082) rotate(-180.000000) translate(-389.234655, -215.484082) " xlink:href="#path-3"></use>
                        <use stroke="none" xlink:href="#path-3"></use>
                        <use stroke="#4A4A4A" stroke-width="0.520047" xlink:href="#path-3"></use>
                    </g>
                </g>
            </g>
        </g>
    </g>
</svg>