<?xml version="1.0" encoding="UTF-8" standalone="no"?>
<svg width="1020px" height="550px" viewBox="0 0 1020 550" version="1.1" xmlns="http://www.w3.org/2000/svg" xmlns:xlink="http://www.w3.org/1999/xlink" xmlns:sketch="http://www.bohemiancoding.com/sketch/ns">
    <!-- Generator: Sketch 3.4.4 (17249) - http://www.bohemiancoding.com/sketch -->
    <title>Artboard 7</title>
    <desc>Created with Sketch.</desc>
    <defs>
        <path id="path-1" d="M33.4573869,261.675964 C152.457385,158.675968 37.4573866,109.336338 61.4573869,46.3363372 C113.457387,-55.6636619 394.568724,43.6113654 549.532021,58.3363379 C670.723947,69.8522765 761.745026,-2.66366893 846.006072,74.3363348 C930.267118,164.336335 847.611784,239.153257 837.683993,317.336346 C829.401174,382.564995 856.40867,454.336346 775.268403,478.336346 C694.128137,502.336346 665.000851,400.336344 465.270996,421.336344 C265.54114,442.336344 166.505333,516.434431 97.5053297,477.434417 C17.4053149,430.434417 -39.0771804,343.536401 33.4573869,261.675964 Z"></path>
        <path id="path-2" d="M46.1472107,261.148885 C161.448687,161.350131 50.0228902,113.543978 73.2769702,52.5020179 C123.660809,-46.3278196 396.035202,49.8617382 546.182236,64.1290584 C663.607516,75.2870814 751.799658,5.02493269 833.441869,79.631775 C915.084081,166.834574 834.997676,239.326185 825.378441,315.079342 C817.353052,378.280683 843.521155,447.821379 764.902729,471.075459 C686.284303,494.329539 658.062294,395.499698 464.540046,415.847018 C271.017797,436.194338 175.060025,507.989455 108.204542,470.201563 C30.5940373,424.662324 -24.1329811,340.465099 46.1472107,261.148885 Z"></path>
        <path id="path-3" d="M67.5598155,260.259502 C176.620466,165.862471 71.2257194,120.643881 93.2211453,62.9058884 C140.8779,-30.5746693 398.509712,60.4085169 540.529865,73.9036018 C651.599365,84.4576839 735.018004,17.9985556 812.241236,88.5672159 C889.464468,171.050062 813.712833,239.61798 804.61425,311.270909 C797.023245,371.051405 821.774969,436.82813 747.411856,458.823556 C673.048744,480.818981 646.354284,387.338421 463.306652,406.584418 C280.25902,425.830416 189.495074,493.739539 126.258222,457.99696 C52.8484757,414.922585 1.08362074,335.282633 67.5598155,260.259502 Z"></path>
    </defs>
    <g id="Welcome" stroke="none" stroke-width="1" fill="none" fill-rule="evenodd" sketch:type="MSPage">
        <g id="Artboard-7" sketch:type="MSArtboardGroup">
            <g id="flow" sketch:type="MSLayerGroup" transform="translate(-10.000000, -26.000000)">
                <g id="waves" transform="translate(79.000000, 57.000000)">
                    <g id="Rectangle-79-Copy">
                        <use stroke="none" sketch:type="MSShapeGroup" transform="translate(441.752665, 244.717209) rotate(-180.000000) translate(-441.752665, -244.717209) " xlink:href="#path-1"></use>
                        <use stroke="none" xlink:href="#path-1"></use>
                        <use stroke="#4A4A4A" stroke-width="0.5" xlink:href="#path-1"></use>
                    </g>
                    <g id="Rectangle-79-Copy-3">
                        <use stroke="none" sketch:type="MSShapeGroup" transform="translate(441.752665, 244.717209) rotate(-180.000000) translate(-441.752665, -244.717209) " xlink:href="#path-2"></use>
                        <use stroke="none" xlink:href="#path-2"></use>
                        <use stroke="#4A4A4A" stroke-width="0.5" xlink:href="#path-2"></use>
                    </g>
                    <g id="Rectangle-79-Copy-4">
                        <use stroke="none" sketch:type="MSShapeGroup" transform="translate(441.752665, 244.717209) rotate(-180.000000) translate(-441.752665, -244.717209) " xlink:href="#path-3"></use>
                        <use stroke="none" xlink:href="#path-3"></use>
                        <use stroke="#4A4A4A" stroke-width="0.5" xlink:href="#path-3"></use>
                    </g>
                </g>
            </g>
        </g>
    </g>
</svg>