<?xml version="1.0" encoding="UTF-8" standalone="no"?>
<svg width="863px" height="466px" viewBox="0 0 863 466" version="1.1" xmlns="http://www.w3.org/2000/svg" xmlns:xlink="http://www.w3.org/1999/xlink" xmlns:sketch="http://www.bohemiancoding.com/sketch/ns">
    <!-- Generator: Sketch 3.5.1 (25234) - http://www.bohemiancoding.com/sketch -->
    <title>work-item-images</title>
    <desc>Created with Sketch.</desc>
    <defs>
        <linearGradient x1="50%" y1="-125.779544%" x2="50%" y2="100%" id="linearGradient-1">
            <stop stop-color="#FFFFFF" offset="0%"></stop>
            <stop stop-color="#FFE7C0" offset="100%"></stop>
        </linearGradient>
    </defs>
    <g id="Welcome" stroke="none" stroke-width="1" fill="none" fill-rule="evenodd" sketch:type="MSPage">
        <g id="work-item-images" sketch:type="MSArtboardGroup">
            <g id="touch-tone" sketch:type="MSLayerGroup" transform="translate(0.000000, 37.153190)">
                <g id="projector" transform="translate(163.634761, 3.465729)" sketch:type="MSShapeGroup">
                    <g id="projector-string" transform="translate(267.093060, 339.378928)" stroke-width="0.8044695">
                        <path d="M5.28548272,0.352784748 L5.28548272,25.7809448" id="Line" stroke="#666666" stroke-linecap="square"></path>
                        <ellipse id="Oval-9" stroke="#4A4A4A" cx="4.93311721" cy="31.7506273" rx="4.93311721" ry="4.93898647"></ellipse>
                    </g>
                    <rect id="projector-screen" stroke="#9B9B9B" stroke-width="0.8044695" fill="#FFF4E2" x="32.1602819" y="33.8673358" width="474.110029" height="309.039439" rx="1.608939"></rect>
                    <path d="M0,16.9336679 C0,16.9336679 -2.40355927e-13,27.5172103 14.7993516,33.8673358 C28.8939722,33.8673358 396.76357,34.5729053 523.615643,33.8673358 C524.319886,34.5729053 538.414506,28.2227798 538.414506,16.2280984" id="Path-80" fill="url(#linearGradient-1)"></path>
                    <path d="M0,1.77725314 C0,1.77725314 -2.40355927e-13,12.3607956 14.7993516,18.710921 C28.8939722,18.710921 396.76357,19.4164905 523.615643,18.710921 C524.319886,19.4164905 538.414506,13.0663651 538.414506,1.07168364" id="Path-80" fill="#FFFFFF" transform="translate(269.207253, 10.048096) scale(1, -1) translate(-269.207253, -10.048096) "></path>
                    <g id="projector-top" stroke="#9B9B9B" stroke-width="0.8044695" stroke-linecap="square">
                        <path d="M0.352365515,16.5808832 L538.062141,16.5808832" id="Line"></path>
                        <path d="M14.4469861,34.2201205 L523.96752,34.2201205" id="Line"></path>
                        <path d="M14.4469861,1.05835424 L523.96752,1.05835424" id="Line"></path>
                        <path d="M14.1108724,1.11752987 C14.1108724,1.11752987 -4.95663058e-07,5.64455552 -4.9563929e-07,16.9336675 C-4.95615523e-07,28.2227794 14.4469861,34.2201205 14.4469861,34.2201205" id="Line"></path>
                        <path d="M538.430758,1.11752987 C538.430758,1.11752987 524.319885,5.64455552 524.319885,16.9336675 C524.319885,28.2227794 538.766872,34.2201205 538.766872,34.2201205" id="Line" transform="translate(531.543379, 17.668825) scale(-1, 1) translate(-531.543379, -17.668825) "></path>
                    </g>
                    <rect id="Rectangle-222" fill="#000000" x="32.2670001" y="61.5003784" width="473.637961" height="244.252075"></rect>
                </g>
            </g>
        </g>
    </g>
</svg>