<?xml version="1.0" encoding="UTF-8" standalone="no"?>
<svg width="863px" height="466px" viewBox="0 0 863 466" version="1.1" xmlns="http://www.w3.org/2000/svg" xmlns:xlink="http://www.w3.org/1999/xlink" xmlns:sketch="http://www.bohemiancoding.com/sketch/ns">
    <!-- Generator: Sketch 3.5.2 (25235) - http://www.bohemiancoding.com/sketch -->
    <title>work-item-images</title>
    <desc>Created with Sketch.</desc>
    <defs>
        <linearGradient x1="50%" y1="-125.779544%" x2="50%" y2="100%" id="linearGradient-1">
            <stop stop-color="#FFFFFF" offset="0%"></stop>
            <stop stop-color="#FFE7C0" offset="100%"></stop>
        </linearGradient>
    </defs>
    <g id="Welcome" stroke="none" stroke-width="1" fill="none" fill-rule="evenodd" sketch:type="MSPage">
        <g id="work-item-images" sketch:type="MSArtboardGroup">
            <g id="touch-tone" sketch:type="MSLayerGroup" transform="translate(0.000000, 32.153190)">
                <g id="projector" transform="translate(151.835013, 0.232865)" sketch:type="MSShapeGroup">
                    <g id="projector-string" transform="translate(278.787423, 354.238244)" stroke-width="0.8044695">
                        <path d="M5.51690151,0.368231023 L5.51690151,26.9097339" id="Line" stroke="#666666" stroke-linecap="square"></path>
                        <ellipse id="Oval-9" stroke="#4A4A4A" cx="5.14910808" cy="33.1407921" rx="5.14910808" ry="5.15523432"></ellipse>
                    </g>
                    <rect id="projector-screen" stroke="#9B9B9B" stroke-width="0.8044695" fill="#FFF4E2" x="33.5683829" y="35.3501782" width="494.868392" height="322.570376" rx="1.608939"></rect>
                    <path d="M0,17.6750891 C0,17.6750891 -2.50879635e-13,28.7220198 15.4473242,35.3501782 C30.1590616,35.3501782 414.135407,36.0866403 546.541553,35.3501782 C547.27663,36.0866403 561.988368,29.4584818 561.988368,16.9386271" id="Path-80" fill="url(#linearGradient-1)"></path>
                    <path d="M0,1.85506813 C0,1.85506813 -2.50879635e-13,12.9019988 15.4473242,19.5301572 C30.1590616,19.5301572 414.135407,20.2666193 546.541553,19.5301572 C547.27663,20.2666193 561.988368,13.6384609 561.988368,1.11860608" id="Path-80" fill="#FFFFFF" transform="translate(280.994184, 10.488040) scale(1, -1) translate(-280.994184, -10.488040) "></path>
                    <g id="projector-top" stroke="#9B9B9B" stroke-width="0.8044695" stroke-linecap="square">
                        <path d="M0.367793434,17.3068581 L561.620574,17.3068581" id="Line"></path>
                        <path d="M15.0795308,35.7184092 L546.908837,35.7184092" id="Line"></path>
                        <path d="M15.0795308,1.10469307 L546.908837,1.10469307" id="Line"></path>
                        <path d="M14.7287008,1.16645963 C14.7287008,1.16645963 -5.17365096e-07,5.89169591 -5.17340288e-07,17.6750886 C-5.1731548e-07,29.4584814 15.0795308,35.7184092 15.0795308,35.7184092" id="Line"></path>
                        <path d="M562.005331,1.16645963 C562.005331,1.16645963 547.27663,5.89169591 547.27663,17.6750886 C547.27663,29.4584814 562.356161,35.7184092 562.356161,35.7184092" id="Line" transform="translate(554.816395, 18.442434) scale(-1, 1) translate(-554.816395, -18.442434) "></path>
                    </g>
                    <rect id="Rectangle-222" fill="#000000" x="33.6797737" y="64.1931018" width="494.375656" height="254.946372"></rect>
                </g>
            </g>
        </g>
    </g>
</svg>