<?xml version="1.0" encoding="UTF-8" standalone="no"?>
<svg width="863px" height="466px" viewBox="0 0 863 466" version="1.1" xmlns="http://www.w3.org/2000/svg" xmlns:xlink="http://www.w3.org/1999/xlink" xmlns:sketch="http://www.bohemiancoding.com/sketch/ns">
    <!-- Generator: Sketch 3.5.1 (25234) - http://www.bohemiancoding.com/sketch -->
    <title>work-item-images</title>
    <desc>Created with Sketch.</desc>
    <defs>
        <linearGradient x1="50%" y1="-125.779544%" x2="50%" y2="100%" id="linearGradient-1">
            <stop stop-color="#FFFFFF" offset="0%"></stop>
            <stop stop-color="#FFE7C0" offset="100%"></stop>
        </linearGradient>
    </defs>
    <g id="Welcome" stroke="none" stroke-width="1" fill="none" fill-rule="evenodd" sketch:type="MSPage">
        <g id="work-item-images" sketch:type="MSArtboardGroup">
            <g id="touch-tone" sketch:type="MSLayerGroup" transform="translate(0.000000, 26.153190)">
                <g id="projector" transform="translate(147.937063, -0.000000)" sketch:type="MSShapeGroup">
                    <g id="projector-string" transform="translate(281.959093, 358.268293)" stroke-width="0.8044695">
                        <path d="M5.57966543,0.372420263 L5.57966543,27.2158768" id="Line" stroke="#666666" stroke-linecap="square"></path>
                        <ellipse id="Oval-9" stroke="#4A4A4A" cx="5.20768774" cy="33.5178236" rx="5.20768774" ry="5.21388368"></ellipse>
                    </g>
                    <rect id="projector-screen" stroke="#9B9B9B" stroke-width="0.8044695" fill="#FFF4E2" x="33.950279" y="35.7523452" width="500.498342" height="326.24015" rx="1.608939"></rect>
                    <path d="M0,17.8761726 C0,17.8761726 -2.53733807e-13,29.0487805 15.6230632,35.7523452 C30.502171,35.7523452 418.846885,36.4971857 552.759371,35.7523452 C553.502811,36.4971857 568.381919,29.793621 568.381919,17.1313321" id="Path-80" fill="url(#linearGradient-1)"></path>
                    <path d="M0,1.87617261 C0,1.87617261 -2.53733807e-13,13.0487805 15.6230632,19.7523452 C30.502171,19.7523452 418.846885,20.4971857 552.759371,19.7523452 C553.502811,20.4971857 568.381919,13.793621 568.381919,1.13133208" id="Path-80" fill="#FFFFFF" transform="translate(284.190959, 10.607359) scale(1, -1) translate(-284.190959, -10.607359) "></path>
                    <g id="projector-top" stroke="#9B9B9B" stroke-width="0.8044695" stroke-linecap="square">
                        <path d="M0.371977696,17.5037523 L568.009941,17.5037523" id="Line"></path>
                        <path d="M15.2510855,36.1247655 L553.130833,36.1247655" id="Line"></path>
                        <path d="M15.2510855,1.11726079 L553.130833,1.11726079" id="Line"></path>
                        <path d="M14.8962642,1.17973004 C14.8962642,1.17973004 -5.23250984e-07,5.95872373 -5.23225893e-07,17.8761721 C-5.23200802e-07,29.7936205 15.2510855,36.1247655 15.2510855,36.1247655" id="Line"></path>
                        <path d="M568.399075,1.17973004 C568.399075,1.17973004 553.50281,5.95872373 553.50281,17.8761721 C553.50281,29.7936205 568.753896,36.1247655 568.753896,36.1247655" id="Line" transform="translate(561.128353, 18.652248) scale(-1, 1) translate(-561.128353, -18.652248) "></path>
                    </g>
                </g>
                <rect id="Rectangle-222" fill="#000000" sketch:type="MSShapeGroup" x="182" y="64.923405" width="500" height="257.84681"></rect>
            </g>
        </g>
    </g>
</svg>