<?xml version="1.0" encoding="UTF-8" standalone="no"?>
<svg width="863px" height="466px" viewBox="0 0 863 466" version="1.1" xmlns="http://www.w3.org/2000/svg" xmlns:xlink="http://www.w3.org/1999/xlink" xmlns:sketch="http://www.bohemiancoding.com/sketch/ns">
    <!-- Generator: Sketch 3.5.1 (25234) - http://www.bohemiancoding.com/sketch -->
    <title>work-item-images</title>
    <desc>Created with Sketch.</desc>
    <defs></defs>
    <g id="Welcome" stroke="none" stroke-width="1" fill="none" fill-rule="evenodd" sketch:type="MSPage">
        <g id="work-item-images" sketch:type="MSArtboardGroup">
            <g id="touch-tone" sketch:type="MSLayerGroup" transform="translate(0.000000, 40.153190)">
                <g id="title" transform="translate(0.523370, 14.548960)" sketch:type="MSShapeGroup">
                    <rect id="Rectangle-81" fill="#FFFFFF" x="0" y="0" width="260" height="59"></rect>
                    <rect id="Rectangle-81" fill="#FFFFFF" x="0" y="56" width="130" height="30"></rect>
                    <path d="M25.327475,39.5926958 L25.327475,40.2333208 C24.4524706,40.1708205 23.3066488,40.1395708 21.889975,40.1395708 C20.0670492,40.1395708 18.7024795,40.1708205 17.796225,40.2333208 L17.796225,39.5926958 C18.6087291,39.5614456 19.1894524,39.4624883 19.5384125,39.2958208 C19.8873726,39.1291533 20.06185,38.8322812 20.06185,38.4051958 C20.06185,38.0406106 19.9368513,37.5406156 19.68685,36.9051958 L17.7181,31.6551958 L9.99935,31.6551958 L8.68685,35.0458208 C8.25976453,36.1291595 8.046225,37.0041508 8.046225,37.6708208 C8.046225,38.3479075 8.27278523,38.8322776 8.7259125,39.1239458 C9.17903977,39.4156139 9.87955359,39.5718623 10.827475,39.5926958 L10.827475,40.2333208 C9.60871891,40.1708205 8.37956453,40.1395708 7.139975,40.1395708 C6.18163688,40.1395708 5.38476984,40.1708205 4.74935,40.2333208 L4.74935,39.5926958 C5.81185531,39.3531112 6.65038859,38.4260372 7.264975,36.8114458 L14.796225,17.4208208 L15.31185,17.4208208 L23.108725,37.5458208 C23.6295609,38.8687441 24.3691369,39.5510289 25.327475,39.5926958 L25.327475,39.5926958 Z M13.9056,21.4676958 L10.233725,31.0145708 L17.483725,31.0145708 L13.9056,21.4676958 Z M33.6912535,25.4676958 C34.1443807,24.8426926 34.6834378,24.3270728 35.308441,23.9208208 C35.9334441,23.5145687 36.5948958,23.3114458 37.292816,23.3114458 C37.8553188,23.3114458 38.3579179,23.4234238 38.8006285,23.6473833 C39.243339,23.8713427 39.5896897,24.1760272 39.839691,24.5614458 C40.0896922,24.9468644 40.214691,25.3687351 40.214691,25.8270708 C40.214691,26.3895736 40.048026,26.8661313 39.714691,27.2567583 C39.381356,27.6473852 38.9386521,27.8426958 38.386566,27.8426958 C37.9178136,27.8426958 37.516776,27.6942598 37.183441,27.3973833 C36.850106,27.1005068 36.683441,26.696865 36.683441,26.1864458 C36.683441,25.4885256 37.0480207,24.9104064 37.777191,24.4520708 C37.6313569,24.2437364 37.4074008,24.1395708 37.105316,24.1395708 C36.2615618,24.1395708 35.5011527,24.4624842 34.824066,25.1083208 C34.1469793,25.7541573 33.6157346,26.5510244 33.230316,27.4989458 C32.8448974,28.4468672 32.652191,29.332275 32.652191,30.1551958 L32.652191,36.9364458 C32.652191,37.9260341 32.9334382,38.610923 33.495941,38.9911333 C34.0584438,39.3713435 34.9073936,39.5614458 36.042816,39.5614458 L36.042816,40.2333208 C33.4178028,40.149987 31.7771943,40.1083208 31.120941,40.1083208 C30.5584382,40.1083208 29.2980341,40.149987 27.339691,40.2333208 L27.339691,39.5614458 C27.9438607,39.5614458 28.4204184,39.4937381 28.7693785,39.3583208 C29.1183386,39.2229034 29.3735443,38.9885308 29.5350035,38.6551958 C29.6964626,38.3218608 29.777191,37.8583237 29.777191,37.2645708 L29.777191,27.2489458 C29.777191,26.2593575 29.5975053,25.5406147 29.2381285,25.0926958 C28.8787517,24.6447769 28.2459455,24.4208208 27.339691,24.4208208 L27.339691,23.7489458 C28.006361,23.8114461 28.6678127,23.8426958 29.324066,23.8426958 C30.6782394,23.8426958 31.7876033,23.6968639 32.652191,23.4051958 L32.652191,27.4051958 C32.8917755,26.7385258 33.2381262,26.0926989 33.6912535,25.4676958 L33.6912535,25.4676958 Z M52.7894069,23.7801958 L52.7894069,24.4208208 L48.0550319,24.4208208 L48.0550319,36.8114458 C48.0550319,37.7802006 48.2269052,38.4755062 48.5706569,38.8973833 C48.9144087,39.3192604 49.4248202,39.5301958 50.1019069,39.5301958 C50.7685769,39.5301958 51.3362796,39.2645734 51.8050319,38.7333208 C52.2737843,38.2020681 52.6696137,37.3270769 52.9925319,36.1083208 L53.6175319,36.2645708 C53.096696,39.2125022 51.7112932,40.6864458 49.4612819,40.6864458 C48.7425284,40.6864458 48.1487843,40.6005091 47.6800319,40.4286333 C47.2112796,40.2567574 46.7946171,39.9885309 46.4300319,39.6239458 C45.9716963,39.1551934 45.6487829,38.5796783 45.4612819,37.8973833 C45.273781,37.2150882 45.1800319,36.2958266 45.1800319,35.1395708 L45.1800319,24.4208208 L42.1019069,24.4208208 L42.1019069,23.7801958 L45.1800319,23.7801958 L45.1800319,18.8895708 C46.3779546,18.8583206 47.3362784,18.7072805 48.0550319,18.4364458 L48.0550319,23.7801958 L52.7894069,23.7801958 Z M81.0638389,36.1395708 C81.0638389,37.3479101 81.1367548,38.7124798 81.2825889,40.2333208 C79.834665,40.1708205 77.3919811,40.1395708 73.9544639,40.1395708 C69.8606934,40.1395708 66.7669744,40.1708205 64.6732139,40.2333208 L64.6732139,39.5926958 C65.4440511,39.5614456 66.0039413,39.4781131 66.3529014,39.3426958 C66.7018615,39.2072784 66.9414424,38.9572809 67.0716514,38.5926958 C67.2018604,38.2281106 67.2669639,37.6447831 67.2669639,36.8426958 L67.2669639,20.9676958 C67.2669639,20.1656084 67.2018604,19.5822809 67.0716514,19.2176958 C66.9414424,18.8531106 66.7018615,18.6031131 66.3529014,18.4676958 C66.0039413,18.3322784 65.4440511,18.2489459 64.6732139,18.2176958 L64.6732139,17.5770708 C66.7669744,17.6395711 69.8606934,17.6708208 73.9544639,17.6708208 C77.0898962,17.6708208 79.3190406,17.6395711 80.6419639,17.5770708 C80.4961298,18.9729111 80.4232139,20.2333151 80.4232139,21.3583208 C80.4232139,22.1916583 80.4544636,22.85311 80.5169639,23.3426958 L79.7825889,23.3426958 C79.6263381,21.9572722 79.4310276,20.9260325 79.1966514,20.2489458 C78.9622752,19.5718591 78.5664458,19.0796765 78.0091514,18.7723833 C77.4518569,18.4650901 76.6107195,18.3114458 75.4857139,18.3114458 L72.8294639,18.3114458 C72.0586267,18.3114458 71.4987365,18.3739451 71.1497764,18.4989458 C70.8008163,18.6239464 70.5612354,18.8661315 70.4310264,19.2255083 C70.3008174,19.5848851 70.2357139,20.1656084 70.2357139,20.9676958 L70.2357139,28.5145708 L72.3607139,28.5145708 C73.4336359,28.5145708 74.1471705,28.1942615 74.5013389,27.5536333 C74.8555073,26.9130051 75.0742551,26.2593658 75.1575889,25.5926958 C75.2409226,24.9260258 75.2982137,24.4937384 75.3294639,24.2958208 L76.0638389,24.2958208 C75.9909219,25.3479094 75.9544639,26.3531076 75.9544639,27.3114458 L75.9700889,28.8426958 C75.9700889,29.9260345 76.0325883,31.4416444 76.1575889,33.3895708 L75.4232139,33.3895708 C75.4023805,33.2437367 75.3424852,32.7281169 75.2435264,31.8426958 C75.1445676,30.9572747 74.855508,30.2880105 74.3763389,29.8348833 C73.8971698,29.381756 73.2253015,29.1551958 72.3607139,29.1551958 L70.2357139,29.1551958 L70.2357139,36.8426958 C70.2357139,37.6447831 70.3008174,38.2255065 70.4310264,38.5848833 C70.5612354,38.9442601 70.8008163,39.1864451 71.1497764,39.3114458 C71.4987365,39.4364464 72.0586267,39.4989458 72.8294639,39.4989458 L75.1732139,39.4989458 C76.5065539,39.4989458 77.5195646,39.3218642 78.2122764,38.9676958 C78.9049882,38.6135273 79.4049832,38.0458247 79.7122764,37.2645708 C80.0195696,36.4833169 80.2565464,35.337495 80.4232139,33.8270708 L81.1575889,33.8270708 C81.0950886,34.3999903 81.0638389,35.1708159 81.0638389,36.1395708 L81.0638389,36.1395708 Z M99.2948049,39.1161333 C99.5656395,39.3400927 99.9041778,39.4885287 100.31043,39.5614458 L100.31043,40.2333208 C99.2270911,40.149987 98.4718903,40.1083208 98.0448049,40.1083208 C97.3156345,40.1083208 96.0552305,40.149987 94.2635549,40.2333208 L94.2635549,39.5614458 C94.6073066,39.5614458 94.9041786,39.4937381 95.1541799,39.3583208 C95.4041811,39.2229034 95.5291799,39.0510301 95.5291799,38.8426958 C95.5291799,38.7385286 95.4823053,38.6135298 95.3885549,38.4676958 L91.7479299,33.1551958 L89.4041799,36.2020708 C88.8104269,36.9624912 88.5135549,37.6031098 88.5135549,38.1239458 C88.5135549,38.9989501 89.3000053,39.4885286 90.8729299,39.5926958 L90.8729299,40.2333208 C89.7479242,40.1708205 88.5343947,40.1395708 87.2323049,40.1395708 C86.2843835,40.1395708 85.4718916,40.1708205 84.7948049,40.2333208 L84.7948049,39.5926958 C85.2114736,39.5406122 85.6385527,39.3479058 86.0760549,39.0145708 C86.513557,38.6812358 87.0239686,38.129158 87.6073049,37.3583208 L91.2948049,32.4989458 L86.8416799,26.0301958 C86.5500117,25.6031103 86.3052225,25.282801 86.1073049,25.0692583 C85.9093872,24.8557155 85.7192849,24.7020712 85.5369924,24.6083208 C85.3546998,24.5145703 85.1281395,24.4520709 84.8573049,24.4208208 L84.8573049,23.7489458 C85.9823105,23.8322795 86.7427195,23.8739458 87.1385549,23.8739458 C87.8573085,23.8739458 89.1125042,23.8322795 90.9041799,23.7489458 L90.9041799,24.4208208 C90.5604281,24.4208208 90.2661603,24.4859243 90.0213674,24.6161333 C89.7765745,24.7463423 89.6541799,24.9208197 89.6541799,25.1395708 C89.6541799,25.2645714 89.6958461,25.3895701 89.7791799,25.5145708 L93.2010549,30.4989458 L95.4198049,27.4051958 C96.0656414,26.4989412 96.3885549,25.827073 96.3885549,25.3895708 C96.3885549,25.0874859 96.242723,24.8557174 95.9510549,24.6942583 C95.6593867,24.5327991 95.1958497,24.4312376 94.5604299,24.3895708 L94.5604299,23.7489458 C95.664602,23.8114461 96.5604264,23.8426958 97.2479299,23.8426958 C98.1854345,23.8426958 98.9927181,23.8114461 99.6698049,23.7489458 L99.6698049,24.3895708 C98.8052172,24.493738 97.8677266,25.2437305 96.8573049,26.6395708 L93.6229299,31.1083208 L98.3260549,37.9676958 C98.7010567,38.5093651 99.0239702,38.8921738 99.2948049,39.1161333 L99.2948049,39.1161333 Z M110.119521,24.2176958 C111.015359,23.6135261 112.036182,23.3114458 113.182021,23.3114458 C114.317443,23.3114458 115.335662,23.6187344 116.236708,24.2333208 C117.137755,24.8479072 117.846081,25.7541481 118.361708,26.9520708 C118.877336,28.1499934 119.135146,29.5822708 119.135146,31.2489458 C119.135146,32.8843706 118.874732,34.4182094 118.353896,35.8505083 C117.83306,37.2828071 117.023172,38.446858 115.924208,39.3426958 C114.825245,40.2385336 113.452862,40.6864458 111.807021,40.6864458 C110.994517,40.6864458 110.257545,40.5275932 109.596083,40.2098833 C108.934622,39.8921733 108.421606,39.4729067 108.057021,38.9520708 L108.057021,43.0458208 C108.057021,43.9104084 108.312227,44.5119649 108.822646,44.8505083 C109.333065,45.1890516 110.103891,45.3583208 111.135146,45.3583208 L111.135146,46.0301958 C110.864311,46.0197791 110.257546,45.9937376 109.314833,45.9520708 C108.37212,45.9104039 107.442442,45.8895708 106.525771,45.8895708 C105.848684,45.8895708 105.150774,45.9104039 104.432021,45.9520708 C103.713267,45.9937376 103.260147,46.0197791 103.072646,46.0301958 L103.072646,45.3583208 C103.8539,45.3583208 104.400769,45.215093 104.713271,44.9286333 C105.025772,44.6421735 105.182021,44.1239495 105.182021,43.3739458 L105.182021,27.2489458 C105.182021,26.2593575 105.002335,25.5406147 104.642958,25.0926958 C104.283582,24.6447769 103.650775,24.4208208 102.744521,24.4208208 L102.744521,23.7489458 C103.411191,23.8114461 104.072643,23.8426958 104.728896,23.8426958 C106.083069,23.8426958 107.192433,23.6968639 108.057021,23.4051958 L108.057021,26.7801958 C108.53619,25.6760236 109.223683,24.8218655 110.119521,24.2176958 L110.119521,24.2176958 Z M109.385146,39.3973833 C109.958065,39.7671768 110.645558,39.9520708 111.447646,39.9520708 C114.499744,39.9520708 116.025771,37.19689 116.025771,31.6864458 C116.025771,26.7385044 114.7862,24.2645708 112.307021,24.2645708 C111.338266,24.2645708 110.471087,24.6109215 109.705458,25.3036333 C108.93983,25.9963451 108.390356,26.9989392 108.057021,28.3114458 L108.057021,37.8895708 C108.369522,38.5249906 108.812226,39.0275898 109.385146,39.3973833 L109.385146,39.3973833 Z M135.561424,38.4911333 C135.014547,39.1421782 134.332262,39.6708187 133.514549,40.0770708 C132.696837,40.4833228 131.782784,40.6864458 130.772362,40.6864458 C129.251521,40.6864458 127.93643,40.3400951 126.827049,39.6473833 C125.717669,38.9546715 124.871323,37.9807229 124.287987,36.7255083 C123.704651,35.4702937 123.412987,34.0249956 123.412987,32.3895708 C123.412987,30.5353948 123.709859,28.9260359 124.303612,27.5614458 C124.897365,26.1968556 125.738502,25.1473869 126.827049,24.4130083 C127.915596,23.6786296 129.189021,23.3114458 130.647362,23.3114458 C132.564038,23.3114458 134.040586,23.8921691 135.077049,25.0536333 C136.113513,26.2150974 136.631737,27.9781006 136.631737,30.3426958 L126.631737,30.3426958 C126.55882,30.8947819 126.522362,31.5770667 126.522362,32.3895708 C126.522362,33.7958278 126.75413,35.0249822 127.217674,36.0770708 C127.681218,37.1291594 128.287983,37.936443 129.037987,38.4989458 C129.787991,39.0614486 130.579649,39.3426958 131.412987,39.3426958 C133.558831,39.3426958 135.126524,38.2749981 136.116112,36.1395708 L136.756737,36.3895708 C136.506736,37.1395745 136.108302,37.8400883 135.561424,38.4911333 L135.561424,38.4911333 Z M133.287987,26.8114458 C133.069236,25.9260247 132.725489,25.2229067 132.256737,24.7020708 C131.787984,24.1812348 131.209865,23.9208208 130.522362,23.9208208 C129.866109,23.9208208 129.261948,24.1317562 128.709862,24.5536333 C128.157776,24.9755104 127.691635,25.6213373 127.311424,26.4911333 C126.931214,27.3609293 126.689029,28.4416476 126.584862,29.7333208 L133.553612,29.7333208 C133.595279,28.6708155 133.506738,27.6968669 133.287987,26.8114458 L133.287987,26.8114458 Z M146.714265,25.4676958 C147.167393,24.8426926 147.70645,24.3270728 148.331453,23.9208208 C148.956456,23.5145687 149.617908,23.3114458 150.315828,23.3114458 C150.878331,23.3114458 151.38093,23.4234238 151.82364,23.6473833 C152.266351,23.8713427 152.612702,24.1760272 152.862703,24.5614458 C153.112704,24.9468644 153.237703,25.3687351 153.237703,25.8270708 C153.237703,26.3895736 153.071038,26.8661313 152.737703,27.2567583 C152.404368,27.6473852 151.961664,27.8426958 151.409578,27.8426958 C150.940825,27.8426958 150.539788,27.6942598 150.206453,27.3973833 C149.873118,27.1005068 149.706453,26.696865 149.706453,26.1864458 C149.706453,25.4885256 150.071032,24.9104064 150.800203,24.4520708 C150.654369,24.2437364 150.430413,24.1395708 150.128328,24.1395708 C149.284574,24.1395708 148.524164,24.4624842 147.847078,25.1083208 C147.169991,25.7541573 146.638746,26.5510244 146.253328,27.4989458 C145.867909,28.4468672 145.675203,29.332275 145.675203,30.1551958 L145.675203,36.9364458 C145.675203,37.9260341 145.95645,38.610923 146.518953,38.9911333 C147.081456,39.3713435 147.930405,39.5614458 149.065828,39.5614458 L149.065828,40.2333208 C146.440815,40.149987 144.800206,40.1083208 144.143953,40.1083208 C143.58145,40.1083208 142.321046,40.149987 140.362703,40.2333208 L140.362703,39.5614458 C140.966872,39.5614458 141.44343,39.4937381 141.79239,39.3583208 C142.14135,39.2229034 142.396556,38.9885308 142.558015,38.6551958 C142.719474,38.3218608 142.800203,37.8583237 142.800203,37.2645708 L142.800203,27.2489458 C142.800203,26.2593575 142.620517,25.5406147 142.26114,25.0926958 C141.901763,24.6447769 141.268957,24.4208208 140.362703,24.4208208 L140.362703,23.7489458 C141.029373,23.8114461 141.690824,23.8426958 142.347078,23.8426958 C143.701251,23.8426958 144.810615,23.6968639 145.675203,23.4051958 L145.675203,27.4051958 C145.914787,26.7385258 146.261138,26.0926989 146.714265,25.4676958 L146.714265,25.4676958 Z M160.578044,16.0301958 C160.890545,16.2176967 161.140543,16.4676942 161.328044,16.7801958 C161.515545,17.0926973 161.609294,17.4312356 161.609294,17.7958208 C161.609294,18.1604059 161.515545,18.5015483 161.328044,18.8192583 C161.140543,19.1369682 160.890545,19.3869657 160.578044,19.5692583 C160.265542,19.7515508 159.927004,19.8426958 159.562419,19.8426958 C159.197834,19.8426958 158.856691,19.7515508 158.538981,19.5692583 C158.221271,19.3869657 157.971274,19.1369682 157.788981,18.8192583 C157.606689,18.5015483 157.515544,18.1604059 157.515544,17.7958208 C157.515544,17.4312356 157.606689,17.0926973 157.788981,16.7801958 C157.971274,16.4676942 158.221271,16.2176967 158.538981,16.0301958 C158.856691,15.8426948 159.197834,15.7489458 159.562419,15.7489458 C159.927004,15.7489458 160.265542,15.8426948 160.578044,16.0301958 L160.578044,16.0301958 Z M161.460856,38.6551958 C161.622315,38.9885308 161.877521,39.2229034 162.226481,39.3583208 C162.575441,39.4937381 163.051999,39.5614458 163.656169,39.5614458 L163.656169,40.2333208 C161.697826,40.149987 160.406172,40.1083208 159.781169,40.1083208 C159.156166,40.1083208 157.864512,40.149987 155.906169,40.2333208 L155.906169,39.5614458 C156.510338,39.5614458 156.986896,39.4937381 157.335856,39.3583208 C157.684816,39.2229034 157.940022,38.9885308 158.101481,38.6551958 C158.26294,38.3218608 158.343669,37.8583237 158.343669,37.2645708 L158.343669,27.2489458 C158.343669,26.2593575 158.163983,25.5406147 157.804606,25.0926958 C157.445229,24.6447769 156.812423,24.4208208 155.906169,24.4208208 L155.906169,23.7489458 C156.572839,23.8114461 157.23429,23.8426958 157.890544,23.8426958 C159.244717,23.8426958 160.354081,23.6968639 161.218669,23.4051958 L161.218669,37.2645708 C161.218669,37.8583237 161.299397,38.3218608 161.460856,38.6551958 L161.460856,38.6551958 Z M191.410572,38.6551958 C191.572031,38.9885308 191.827237,39.2229034 192.176197,39.3583208 C192.525157,39.4937381 193.001715,39.5614458 193.605885,39.5614458 L193.605885,40.2333208 C191.647542,40.149987 190.366304,40.1083208 189.762135,40.1083208 C189.168382,40.1083208 187.975685,40.149987 186.18401,40.2333208 L186.18401,39.5614458 C186.715262,39.5614458 187.129321,39.4937381 187.426197,39.3583208 C187.723074,39.2229034 187.941822,38.9885308 188.082447,38.6551958 C188.223073,38.3218608 188.293385,37.8583237 188.293385,37.2645708 L188.293385,28.0145708 C188.293385,27.2020667 188.24651,26.5432191 188.15276,26.0380083 C188.059009,25.5327974 187.835053,25.1213432 187.480885,24.8036333 C187.126716,24.4859233 186.585055,24.3270708 185.855885,24.3270708 C185.043381,24.3270708 184.309013,24.5822766 183.65276,25.0926958 C182.996506,25.603115 182.480887,26.3010247 182.105885,27.1864458 C181.730883,28.0718669 181.543385,29.0510237 181.543385,30.1239458 L181.543385,37.2645708 C181.543385,37.8583237 181.624113,38.3218608 181.785572,38.6551958 C181.947031,38.9885308 182.199633,39.2229034 182.543385,39.3583208 C182.887136,39.4937381 183.36109,39.5614458 183.96526,39.5614458 L183.96526,40.2333208 C182.006917,40.149987 180.730888,40.1083208 180.137135,40.1083208 C179.532965,40.1083208 178.33506,40.149987 176.543385,40.2333208 L176.543385,39.5614458 C177.074637,39.5614458 177.4913,39.4937381 177.793385,39.3583208 C178.09547,39.2229034 178.314217,38.9885308 178.449635,38.6551958 C178.585052,38.3218608 178.65276,37.8583237 178.65276,37.2645708 L178.65276,28.0145708 C178.65276,27.2020667 178.605885,26.5432191 178.512135,26.0380083 C178.418384,25.5327974 178.194428,25.1213432 177.84026,24.8036333 C177.486091,24.4859233 176.949638,24.3270708 176.230885,24.3270708 C175.407964,24.3270708 174.668388,24.5848807 174.012135,25.1005083 C173.355881,25.6161358 172.840262,26.3192538 172.46526,27.2098833 C172.090258,28.1005127 171.90276,29.0822737 171.90276,30.1551958 L171.90276,37.2645708 C171.90276,37.8583237 171.973072,38.3218608 172.113697,38.6551958 C172.254323,38.9885308 172.475675,39.2229034 172.77776,39.3583208 C173.079845,39.4937381 173.496507,39.5614458 174.02776,39.5614458 L174.02776,40.2333208 C172.236084,40.149987 171.038179,40.1083208 170.43401,40.1083208 C169.82984,40.1083208 168.548603,40.149987 166.59026,40.2333208 L166.59026,39.5614458 C167.194429,39.5614458 167.670987,39.4937381 168.019947,39.3583208 C168.368907,39.2229034 168.624113,38.9885308 168.785572,38.6551958 C168.947031,38.3218608 169.02776,37.8583237 169.02776,37.2645708 L169.02776,27.2489458 C169.02776,26.2593575 168.848074,25.5406147 168.488697,25.0926958 C168.12932,24.6447769 167.496514,24.4208208 166.59026,24.4208208 L166.59026,23.7489458 C167.25693,23.8114461 167.918381,23.8426958 168.574635,23.8426958 C169.928808,23.8426958 171.038172,23.6968639 171.90276,23.4051958 L171.90276,27.1708208 C172.423596,25.8583142 173.152755,24.8869698 174.09026,24.2567583 C175.027764,23.6265468 176.048588,23.3114458 177.15276,23.3114458 C178.600684,23.3114458 179.710048,23.7124834 180.480885,24.5145708 C181.012137,25.097907 181.340259,25.9572734 181.46526,27.0926958 C181.996512,25.7489391 182.73088,24.7828029 183.668385,24.1942583 C184.605889,23.6057137 185.647546,23.3114458 186.793385,23.3114458 C188.241309,23.3114458 189.350673,23.7124834 190.12151,24.5145708 C190.506928,24.9416562 190.777759,25.4859216 190.93401,26.1473833 C191.090261,26.8088449 191.168385,27.6656072 191.168385,28.7176958 L191.168385,37.2645708 C191.168385,37.8583237 191.249113,38.3218608 191.410572,38.6551958 L191.410572,38.6551958 Z M209.016538,38.4911333 C208.46966,39.1421782 207.787376,39.6708187 206.969663,40.0770708 C206.151951,40.4833228 205.237897,40.6864458 204.227476,40.6864458 C202.706635,40.6864458 201.391544,40.3400951 200.282163,39.6473833 C199.172783,38.9546715 198.326437,37.9807229 197.743101,36.7255083 C197.159764,35.4702937 196.868101,34.0249956 196.868101,32.3895708 C196.868101,30.5353948 197.164973,28.9260359 197.758726,27.5614458 C198.352479,26.1968556 199.193616,25.1473869 200.282163,24.4130083 C201.37071,23.6786296 202.644135,23.3114458 204.102476,23.3114458 C206.019152,23.3114458 207.4957,23.8921691 208.532163,25.0536333 C209.568627,26.2150974 210.086851,27.9781006 210.086851,30.3426958 L200.086851,30.3426958 C200.013934,30.8947819 199.977476,31.5770667 199.977476,32.3895708 C199.977476,33.7958278 200.209244,35.0249822 200.672788,36.0770708 C201.136332,37.1291594 201.743097,37.936443 202.493101,38.4989458 C203.243104,39.0614486 204.034763,39.3426958 204.868101,39.3426958 C207.013945,39.3426958 208.581637,38.2749981 209.571226,36.1395708 L210.211851,36.3895708 C209.961849,37.1395745 209.563416,37.8400883 209.016538,38.4911333 L209.016538,38.4911333 Z M206.743101,26.8114458 C206.52435,25.9260247 206.180603,25.2229067 205.711851,24.7020708 C205.243098,24.1812348 204.664979,23.9208208 203.977476,23.9208208 C203.321222,23.9208208 202.717062,24.1317562 202.164976,24.5536333 C201.61289,24.9755104 201.146748,25.6213373 200.766538,26.4911333 C200.386328,27.3609293 200.144143,28.4416476 200.039976,29.7333208 L207.008726,29.7333208 C207.050393,28.6708155 206.961852,27.6968669 206.743101,26.8114458 L206.743101,26.8114458 Z M221.356879,24.2255083 C222.310009,23.6161302 223.385519,23.3114458 224.583442,23.3114458 C226.073032,23.3114458 227.203229,23.7124834 227.974067,24.5145708 C228.369902,24.952073 228.653753,25.4911301 228.825629,26.1317583 C228.997505,26.7723865 229.083442,27.634357 229.083442,28.7176958 L229.083442,37.2645708 C229.083442,37.8583237 229.16417,38.3218608 229.325629,38.6551958 C229.487088,38.9885308 229.742294,39.2229034 230.091254,39.3583208 C230.440214,39.4937381 230.916772,39.5614458 231.520942,39.5614458 L231.520942,40.2333208 C229.562599,40.149987 228.281361,40.1083208 227.677192,40.1083208 C227.083439,40.1083208 225.890742,40.149987 224.099067,40.2333208 L224.099067,39.5614458 C224.630319,39.5614458 225.044378,39.4937381 225.341254,39.3583208 C225.638131,39.2229034 225.856878,38.9885308 225.997504,38.6551958 C226.13813,38.3218608 226.208442,37.8583237 226.208442,37.2645708 L226.208442,28.0145708 C226.208442,27.2437336 226.148546,26.5979067 226.028754,26.0770708 C225.908962,25.5562348 225.658964,25.1343641 225.278754,24.8114458 C224.898544,24.4885275 224.343862,24.3270708 223.614692,24.3270708 C222.739687,24.3270708 221.961049,24.5822766 221.278754,25.0926958 C220.596459,25.603115 220.067819,26.3036288 219.692817,27.1942583 C219.317815,28.0848877 219.130317,29.071857 219.130317,30.1551958 L219.130317,37.2645708 C219.130317,37.8583237 219.200628,38.3218608 219.341254,38.6551958 C219.48188,38.9885308 219.703232,39.2229034 220.005317,39.3583208 C220.307402,39.4937381 220.724064,39.5614458 221.255317,39.5614458 L221.255317,40.2333208 C219.463641,40.149987 218.265736,40.1083208 217.661567,40.1083208 C217.057397,40.1083208 215.77616,40.149987 213.817817,40.2333208 L213.817817,39.5614458 C214.421986,39.5614458 214.898544,39.4937381 215.247504,39.3583208 C215.596464,39.2229034 215.85167,38.9885308 216.013129,38.6551958 C216.174588,38.3218608 216.255317,37.8583237 216.255317,37.2645708 L216.255317,27.2489458 C216.255317,26.2593575 216.075631,25.5406147 215.716254,25.0926958 C215.356877,24.6447769 214.724071,24.4208208 213.817817,24.4208208 L213.817817,23.7489458 C214.484487,23.8114461 215.145938,23.8426958 215.802192,23.8426958 C217.156365,23.8426958 218.265729,23.6968639 219.130317,23.4051958 L219.130317,27.1708208 C219.661569,25.8166473 220.403749,24.8348863 221.356879,24.2255083 L221.356879,24.2255083 Z M244.142533,23.7801958 L244.142533,24.4208208 L239.408158,24.4208208 L239.408158,36.8114458 C239.408158,37.7802006 239.580031,38.4755062 239.923783,38.8973833 C240.267534,39.3192604 240.777946,39.5301958 241.455033,39.5301958 C242.121703,39.5301958 242.689405,39.2645734 243.158158,38.7333208 C243.62691,38.2020681 244.022739,37.3270769 244.345658,36.1083208 L244.970658,36.2645708 C244.449822,39.2125022 243.064419,40.6864458 240.814408,40.6864458 C240.095654,40.6864458 239.50191,40.6005091 239.033158,40.4286333 C238.564405,40.2567574 238.147743,39.9885309 237.783158,39.6239458 C237.324822,39.1551934 237.001909,38.5796783 236.814408,37.8973833 C236.626907,37.2150882 236.533158,36.2958266 236.533158,35.1395708 L236.533158,24.4208208 L233.455033,24.4208208 L233.455033,23.7801958 L236.533158,23.7801958 L236.533158,18.8895708 C237.73108,18.8583206 238.689404,18.7072805 239.408158,18.4364458 L239.408158,23.7801958 L244.142533,23.7801958 Z" id="Art-Experiment" fill="#000000"></path>
                    <path d="M15.8867188,65.1523438 C15.7070304,65.24349 15.5833337,65.3932281 15.515625,65.6015625 C15.4479163,65.8098969 15.4140625,66.1197896 15.4140625,66.53125 L15.4140625,76.078125 L15.046875,76.078125 L8.328125,65.6953125 L8.328125,74.140625 C8.328125,74.5520854 8.36458297,74.8619781 8.4375,75.0703125 C8.51041703,75.2786469 8.64713441,75.428385 8.84765625,75.5195312 C9.04817809,75.6106775 9.35937289,75.6640624 9.78125,75.6796875 L9.78125,76 C9.40103977,75.9687498 8.85677438,75.953125 8.1484375,75.953125 C7.51301766,75.953125 7.01823094,75.9687498 6.6640625,76 L6.6640625,75.6796875 C7.03385602,75.6640624 7.30859285,75.6106775 7.48828125,75.5195312 C7.66796965,75.428385 7.79166633,75.2786469 7.859375,75.0703125 C7.92708367,74.8619781 7.9609375,74.5520854 7.9609375,74.140625 L7.9609375,66.3671875 C7.9609375,65.9661438 7.92838574,65.6744801 7.86328125,65.4921875 C7.79817676,65.3098949 7.67838629,65.1848962 7.50390625,65.1171875 C7.32942621,65.0494788 7.04948109,65.0078126 6.6640625,64.9921875 L6.6640625,64.671875 C7.01302258,64.7031252 7.5078093,64.71875 8.1484375,64.71875 C8.62760656,64.71875 9.04426906,64.7031252 9.3984375,64.671875 L15.046875,73.375 L15.046875,66.53125 C15.046875,66.1197896 15.0117191,65.8098969 14.9414062,65.6015625 C14.8710934,65.3932281 14.734376,65.24349 14.53125,65.1523438 C14.328124,65.0611975 14.0156271,65.0078126 13.59375,64.9921875 L13.59375,64.671875 C13.9739602,64.7031252 14.5182256,64.71875 15.2265625,64.71875 C15.8619823,64.71875 16.3567691,64.7031252 16.7109375,64.671875 L16.7109375,64.9921875 C16.341144,65.0078126 16.0664071,65.0611975 15.8867188,65.1523438 L15.8867188,65.1523438 Z M23.9084517,68 C24.4527253,68.3072932 24.8824085,68.785153 25.1975142,69.4335938 C25.51262,70.0820345 25.6701705,70.9010367 25.6701705,71.890625 C25.6701705,72.8802133 25.51262,73.6979134 25.1975142,74.34375 C24.8824085,74.9895866 24.4527253,75.4648422 23.9084517,75.7695312 C23.3641782,76.0742203 22.7404865,76.2265625 22.037358,76.2265625 C21.3342295,76.2265625 20.7105378,76.0742203 20.1662642,75.7695312 C19.6219907,75.4648422 19.1923075,74.9895866 18.8772017,74.34375 C18.562096,73.6979134 18.4045455,72.8802133 18.4045455,71.890625 C18.4045455,70.9010367 18.562096,70.0820345 18.8772017,69.4335938 C19.1923075,68.785153 19.6219907,68.3072932 20.1662642,68 C20.7105378,67.6927068 21.3342295,67.5390625 22.037358,67.5390625 C22.7404865,67.5390625 23.3641782,67.6927068 23.9084517,68 L23.9084517,68 Z M20.5178267,68.84375 C20.145429,69.5000033 19.959233,70.5156181 19.959233,71.890625 C19.959233,73.2604235 20.145429,74.2721321 20.5178267,74.9257812 C20.8902244,75.5794304 21.3967298,75.90625 22.037358,75.90625 C22.6779862,75.90625 23.1844915,75.5794304 23.5568892,74.9257812 C23.9292869,74.2721321 24.115483,73.2604235 24.115483,71.890625 C24.115483,70.5156181 23.9292869,69.5000033 23.5568892,68.84375 C23.1844915,68.1874967 22.6779862,67.859375 22.037358,67.859375 C21.3967298,67.859375 20.8902244,68.1874967 20.5178267,68.84375 L20.5178267,68.84375 Z M33.5356535,67.8046875 C34.0044058,67.8046875 34.4080476,67.7890627 34.746591,67.7578125 L34.746591,68.078125 C34.5330482,68.1041668 34.342946,68.20052 34.1762785,68.3671875 C34.009611,68.533855 33.8533625,68.812498 33.7075285,69.203125 L31.0825285,76.078125 L30.8169035,76.078125 L27.871591,68.9921875 C27.7153402,68.622394 27.5603938,68.3802089 27.4067472,68.265625 C27.2531006,68.1510411 27.0981543,68.09375 26.9419035,68.09375 L26.9419035,67.7578125 C27.4939896,67.7994794 27.9627349,67.8203125 28.3481535,67.8203125 C29.1658659,67.8203125 29.8585673,67.7994794 30.4262785,67.7578125 L30.4262785,68.09375 C30.1606521,68.09375 29.953623,68.1028645 29.8051847,68.1210938 C29.6567465,68.139323 29.5343519,68.1874996 29.4379972,68.265625 C29.3416426,68.3437504 29.293466,68.4687491 29.293466,68.640625 C29.293466,68.8177092 29.3507571,69.0520819 29.465341,69.34375 L31.434091,74.2109375 L33.199716,69.5859375 C33.3142999,69.2942694 33.371591,69.046876 33.371591,68.84375 C33.371591,68.5989571 33.2778419,68.4166673 33.090341,68.296875 C32.90284,68.1770827 32.6033639,68.1041668 32.1919035,68.078125 L32.1919035,67.7578125 C32.7439896,67.7890627 33.1919018,67.8046875 33.5356535,67.8046875 L33.5356535,67.8046875 Z M42.1081677,75.1289062 C41.8347288,75.4544287 41.4935864,75.718749 41.0847302,75.921875 C40.675874,76.125001 40.2188473,76.2265625 39.7136365,76.2265625 C38.953216,76.2265625 38.2956705,76.0533871 37.7409802,75.7070312 C37.1862899,75.3606754 36.7631171,74.8737011 36.471449,74.2460938 C36.1797808,73.6184864 36.033949,72.8958374 36.033949,72.078125 C36.033949,71.151037 36.182385,70.3463576 36.4792615,69.6640625 C36.7761379,68.9817674 37.1967067,68.4570331 37.7409802,68.0898438 C38.2852538,67.7226544 38.9219661,67.5390625 39.6511365,67.5390625 C40.6094746,67.5390625 41.3477485,67.8294242 41.8659802,68.4101562 C42.384212,68.9908883 42.643324,69.8723899 42.643324,71.0546875 L37.643324,71.0546875 C37.6068654,71.3307305 37.5886365,71.671873 37.5886365,72.078125 C37.5886365,72.7812535 37.7045207,73.3958307 37.9362927,73.921875 C38.1680647,74.4479193 38.4714471,74.8515611 38.846449,75.1328125 C39.2214508,75.4140639 39.6172802,75.5546875 40.033949,75.5546875 C41.106871,75.5546875 41.8907173,75.0208387 42.3855115,73.953125 L42.705824,74.078125 C42.5808233,74.4531269 42.3816066,74.8033838 42.1081677,75.1289062 L42.1081677,75.1289062 Z M40.971449,69.2890625 C40.8620734,68.846352 40.6902001,68.494793 40.455824,68.234375 C40.2214478,67.973957 39.9323882,67.84375 39.5886365,67.84375 C39.2605098,67.84375 38.9584295,67.9492177 38.6823865,68.1601562 C38.4063434,68.3710948 38.1732728,68.6940082 37.9831677,69.1289062 C37.7930626,69.5638043 37.6719701,70.1041634 37.6198865,70.75 L41.1042615,70.75 C41.1250949,70.2187473 41.0808245,69.731773 40.971449,69.2890625 L40.971449,69.2890625 Z M56.9189632,75.2109375 C56.9996928,75.377605 57.1272957,75.4947913 57.3017757,75.5625 C57.4762557,75.6302087 57.7145346,75.6640625 58.0166194,75.6640625 L58.0166194,76 C57.0374479,75.9583331 56.3968293,75.9375 56.0947444,75.9375 C55.797868,75.9375 55.2015198,75.9583331 54.3056819,76 L54.3056819,75.6640625 C54.5713083,75.6640625 54.7783375,75.6302087 54.9267757,75.5625 C55.0752139,75.4947913 55.1845878,75.377605 55.2549007,75.2109375 C55.3252135,75.04427 55.3603694,74.8125015 55.3603694,74.515625 L55.3603694,69.890625 C55.3603694,69.484373 55.3369322,69.1549492 55.2900569,68.9023438 C55.2431817,68.6497383 55.1312037,68.4440112 54.9541194,68.2851562 C54.7770352,68.1263013 54.5062046,68.046875 54.1416194,68.046875 C53.7353674,68.046875 53.3681836,68.1744779 53.0400569,68.4296875 C52.7119303,68.6848971 52.4541204,69.033852 52.2666194,69.4765625 C52.0791185,69.919273 51.9853694,70.4088515 51.9853694,70.9453125 L51.9853694,74.515625 C51.9853694,74.8125015 52.0257336,75.04427 52.1064632,75.2109375 C52.1871928,75.377605 52.3134936,75.4947913 52.4853694,75.5625 C52.6572453,75.6302087 52.8942221,75.6640625 53.1963069,75.6640625 L53.1963069,76 C52.2171354,75.9583331 51.5791209,75.9375 51.2822444,75.9375 C50.9801596,75.9375 50.3812073,75.9583331 49.4853694,76 L49.4853694,75.6640625 C49.7509958,75.6640625 49.959327,75.6302087 50.1103694,75.5625 C50.2614119,75.4947913 50.3707858,75.377605 50.4384944,75.2109375 C50.5062031,75.04427 50.5400569,74.8125015 50.5400569,74.515625 L50.5400569,69.890625 C50.5400569,69.484373 50.5166197,69.1549492 50.4697444,68.9023438 C50.4228692,68.6497383 50.3108912,68.4440112 50.1338069,68.2851562 C49.9567227,68.1263013 49.6884962,68.046875 49.3291194,68.046875 C48.9176591,68.046875 48.5478711,68.17578 48.2197444,68.4335938 C47.8916178,68.6914075 47.6338079,69.0429665 47.4463069,69.4882812 C47.258806,69.933596 47.1650569,70.4244765 47.1650569,70.9609375 L47.1650569,74.515625 C47.1650569,74.8125015 47.2002128,75.04427 47.2705257,75.2109375 C47.3408385,75.377605 47.4515145,75.4947913 47.6025569,75.5625 C47.7535994,75.6302087 47.9619306,75.6640625 48.2275569,75.6640625 L48.2275569,76 C47.3317191,75.9583331 46.7327668,75.9375 46.4306819,75.9375 C46.1285971,75.9375 45.4879785,75.9583331 44.5088069,76 L44.5088069,75.6640625 C44.8108918,75.6640625 45.0491707,75.6302087 45.2236507,75.5625 C45.3981307,75.4947913 45.5257336,75.377605 45.6064632,75.2109375 C45.6871928,75.04427 45.7275569,74.8125015 45.7275569,74.515625 L45.7275569,69.5078125 C45.7275569,69.0130184 45.6377141,68.653647 45.4580257,68.4296875 C45.2783373,68.205728 44.9619342,68.09375 44.5088069,68.09375 L44.5088069,67.7578125 C44.8421419,67.7890627 45.1728678,67.8046875 45.5009944,67.8046875 C46.1780812,67.8046875 46.7327631,67.7317716 47.1650569,67.5859375 L47.1650569,69.46875 C47.4254749,68.8124967 47.7900546,68.3268245 48.2588069,68.0117188 C48.7275593,67.696613 49.2379709,67.5390625 49.7900569,67.5390625 C50.5140189,67.5390625 51.0687009,67.7395813 51.4541194,68.140625 C51.7197458,68.4322931 51.8838066,68.8619763 51.9463069,69.4296875 C52.2119333,68.7578091 52.5791171,68.2747411 53.0478694,67.9804688 C53.5166218,67.6861964 54.0374499,67.5390625 54.6103694,67.5390625 C55.3343314,67.5390625 55.8890134,67.7395813 56.2744319,68.140625 C56.4671412,68.3541677 56.6025566,68.6263004 56.6806819,68.9570312 C56.7588073,69.2877621 56.7978694,69.7161432 56.7978694,70.2421875 L56.7978694,74.515625 C56.7978694,74.8125015 56.8382336,75.04427 56.9189632,75.2109375 L56.9189632,75.2109375 Z M62.6555399,67.9882812 C63.0930421,67.6888006 63.5878288,67.5390625 64.1399149,67.5390625 C64.7336679,67.5390625 65.2584022,67.7018213 65.7141337,68.0273438 C66.1698651,68.3528662 66.5279345,68.8424446 66.7883524,69.4960938 C67.0487704,70.1497429 67.1789774,70.947912 67.1789774,71.890625 C67.1789774,72.8125046 67.0188228,73.6002571 66.6985087,74.2539062 C66.3781946,74.9075554 65.9472093,75.3997379 65.4055399,75.7304688 C64.8638706,76.0611996 64.2649182,76.2265625 63.6086649,76.2265625 C63.218038,76.2265625 62.8378334,76.1471362 62.4680399,75.9882812 C62.0982464,75.8294263 61.775333,75.5963557 61.4992899,75.2890625 L60.3586649,76.2578125 L60.0930399,76.140625 C60.165957,75.880207 60.2024149,75.5729184 60.2024149,75.21875 L60.2024149,65.390625 C60.2024149,64.8958309 60.1125721,64.5377615 59.9328837,64.3164062 C59.7531953,64.095051 59.4367922,63.984375 58.9836649,63.984375 L58.9836649,63.6484375 C59.3222083,63.6796877 59.6529341,63.6953125 59.9758524,63.6953125 C60.6633559,63.6953125 61.2180378,63.6197924 61.6399149,63.46875 L61.6399149,69.25 C61.8794995,68.7083306 62.2180377,68.2877619 62.6555399,67.9882812 L62.6555399,67.9882812 Z M62.4953837,75.65625 C62.8156978,75.7916673 63.1451216,75.859375 63.4836649,75.859375 C64.2024185,75.859375 64.7388715,75.5351595 65.0930399,74.8867188 C65.4472084,74.238278 65.6242899,73.2395901 65.6242899,71.890625 C65.6242899,70.5885352 65.4641353,69.6171907 65.1438212,68.9765625 C64.8235071,68.3359343 64.3326266,68.015625 63.6711649,68.015625 C63.3847052,68.015625 63.1060621,68.0924471 62.8352274,68.2460938 C62.5643927,68.3997404 62.3235097,68.6263006 62.1125712,68.9257812 C61.9016326,69.2252619 61.7440821,69.5859354 61.6399149,70.0078125 L61.6399149,75.0625 C61.8899162,75.322918 62.1750696,75.5208327 62.4953837,75.65625 L62.4953837,75.65625 Z M75.3843042,75.1289062 C75.1108653,75.4544287 74.7697229,75.718749 74.3608667,75.921875 C73.9520105,76.125001 73.4949838,76.2265625 72.9897729,76.2265625 C72.2293524,76.2265625 71.5718069,76.0533871 71.0171167,75.7070312 C70.4624264,75.3606754 70.0392535,74.8737011 69.7475854,74.2460938 C69.4559173,73.6184864 69.3100854,72.8958374 69.3100854,72.078125 C69.3100854,71.151037 69.4585214,70.3463576 69.7553979,69.6640625 C70.0522744,68.9817674 70.4728431,68.4570331 71.0171167,68.0898438 C71.5613902,67.7226544 72.1981026,67.5390625 72.9272729,67.5390625 C73.885611,67.5390625 74.6238849,67.8294242 75.1421167,68.4101562 C75.6603484,68.9908883 75.9194604,69.8723899 75.9194604,71.0546875 L70.9194604,71.0546875 C70.8830019,71.3307305 70.8647729,71.671873 70.8647729,72.078125 C70.8647729,72.7812535 70.9806572,73.3958307 71.2124292,73.921875 C71.4442012,74.4479193 71.7475835,74.8515611 72.1225854,75.1328125 C72.4975873,75.4140639 72.8934167,75.5546875 73.3100854,75.5546875 C74.3830074,75.5546875 75.1668538,75.0208387 75.6616479,73.953125 L75.9819604,74.078125 C75.8569598,74.4531269 75.657743,74.8033838 75.3843042,75.1289062 L75.3843042,75.1289062 Z M74.2475854,69.2890625 C74.1382099,68.846352 73.9663366,68.494793 73.7319604,68.234375 C73.4975842,67.973957 73.2085246,67.84375 72.8647729,67.84375 C72.5366463,67.84375 72.234566,67.9492177 71.9585229,68.1601562 C71.6824799,68.3710948 71.4494093,68.6940082 71.2593042,69.1289062 C71.069199,69.5638043 70.9481065,70.1041634 70.8960229,70.75 L74.3803979,70.75 C74.4012314,70.2187473 74.356961,69.731773 74.2475854,69.2890625 L74.2475854,69.2890625 Z M80.9607247,68.6171875 C81.1872883,68.3046859 81.4568168,68.046876 81.7693184,67.84375 C82.08182,67.640624 82.4125458,67.5390625 82.7615059,67.5390625 C83.0427573,67.5390625 83.2940569,67.5950515 83.5154122,67.7070312 C83.7367674,67.819011 83.9099428,67.9713532 84.0349434,68.1640625 C84.159944,68.3567718 84.2224434,68.5677072 84.2224434,68.796875 C84.2224434,69.0781264 84.1391109,69.3164053 83.9724434,69.5117188 C83.8057759,69.7070322 83.5844239,69.8046875 83.3083809,69.8046875 C83.0740047,69.8046875 82.8734859,69.7304695 82.7068184,69.5820312 C82.5401509,69.433593 82.4568184,69.2317721 82.4568184,68.9765625 C82.4568184,68.6276024 82.6391082,68.3385428 83.0036934,68.109375 C82.9307764,68.0052078 82.8187983,67.953125 82.6677559,67.953125 C82.2458788,67.953125 81.8656743,68.1145817 81.5271309,68.4375 C81.1885875,68.7604183 80.9229652,69.1588518 80.7302559,69.6328125 C80.5375466,70.1067732 80.4411934,70.5494771 80.4411934,70.9609375 L80.4411934,74.3515625 C80.4411934,74.8463566 80.581817,75.1888011 80.8630684,75.3789062 C81.1443198,75.5690114 81.5687947,75.6640625 82.1365059,75.6640625 L82.1365059,76 C80.8239993,75.9583331 80.003695,75.9375 79.6755684,75.9375 C79.394317,75.9375 78.764115,75.9583331 77.7849434,76 L77.7849434,75.6640625 C78.0870282,75.6640625 78.3253071,75.6302087 78.4997872,75.5625 C78.6742672,75.4947913 78.8018701,75.377605 78.8825997,75.2109375 C78.9633292,75.04427 79.0036934,74.8125015 79.0036934,74.515625 L79.0036934,69.5078125 C79.0036934,69.0130184 78.9138506,68.653647 78.7341622,68.4296875 C78.5544738,68.205728 78.2380707,68.09375 77.7849434,68.09375 L77.7849434,67.7578125 C78.1182784,67.7890627 78.4490043,67.8046875 78.7771309,67.8046875 C79.4542176,67.8046875 80.0088996,67.7317716 80.4411934,67.5859375 L80.4411934,69.5859375 C80.5609857,69.2526025 80.734161,68.9296891 80.9607247,68.6171875 L80.9607247,68.6171875 Z M91.3440344,68.1015625 C91.859662,67.7265606 92.5133012,67.5390625 93.3049719,67.5390625 C94.0497673,67.5390625 94.6356989,67.714842 95.0627844,68.0664062 C95.4898698,68.4179705 95.7034094,68.9140593 95.7034094,69.5546875 C95.7034094,70.184899 95.4950781,70.7656223 95.0784094,71.296875 C94.6617406,71.8281277 94.05758,72.4518193 93.2659094,73.1679688 C92.4742387,73.8841182 91.9482023,74.4166649 91.6877844,74.765625 L94.9377844,74.765625 C95.2294525,74.765625 95.4455962,74.7408857 95.5862219,74.6914062 C95.7268476,74.6419268 95.8258049,74.5625005 95.8830969,74.453125 C95.9403888,74.3437495 95.9820551,74.1770845 96.0080969,73.953125 L96.2815344,73.953125 C96.2815344,74.9322966 96.3023675,75.6406228 96.3440344,76.078125 C96.1044498,76.0260414 95.310187,76 93.9612219,76 L90.2112219,76 L90.2112219,75.7265625 C90.3883061,75.5338532 90.8648638,75.0742224 91.6409094,74.3476562 C92.4169549,73.6210901 93.028928,72.8984411 93.4768469,72.1796875 C93.9247658,71.4609339 94.1487219,70.703129 94.1487219,69.90625 C94.1487219,68.7552026 93.614873,68.1796875 92.5471594,68.1796875 C91.6773634,68.1796875 90.9638288,68.6796825 90.4065344,69.6796875 L90.1487219,69.5390625 C90.4299733,68.9557263 90.8284068,68.4765644 91.3440344,68.1015625 L91.3440344,68.1015625 Z M104.596236,68.0625 C105.182177,68.4114601 105.640505,68.9036427 105.971236,69.5390625 C106.301967,70.1744823 106.46733,70.90885 106.46733,71.7421875 C106.46733,72.5911501 106.296759,73.3567674 105.955611,74.0390625 C105.614464,74.7213576 105.137906,75.2565085 104.525924,75.6445312 C103.913941,76.032554 103.212125,76.2265625 102.420455,76.2265625 C101.680868,76.2265625 101.016812,76.0520851 100.428267,75.703125 C99.8397228,75.3541649 99.3787899,74.8606803 99.0454549,74.2226562 C98.7121199,73.5846322 98.5454549,72.8437542 98.5454549,72 C98.5454549,71.1562458 98.7134219,70.3958367 99.0493611,69.71875 C99.3853003,69.0416633 99.860556,68.5091165 100.475142,68.1210938 C101.089729,67.733071 101.798055,67.5390625 102.600142,67.5390625 C103.344938,67.5390625 104.010296,67.7135399 104.596236,68.0625 L104.596236,68.0625 Z M101.229049,68.3125 C100.872276,68.6406266 100.594935,69.1158823 100.397017,69.7382812 C100.1991,70.3606802 100.100142,71.0989541 100.100142,71.953125 C100.100142,72.8697963 100.209516,73.6262991 100.428267,74.2226562 C100.647018,74.8190134 100.942588,75.2539049 101.314986,75.5273438 C101.687384,75.8007826 102.105348,75.9375 102.568892,75.9375 C103.027228,75.9375 103.434776,75.7721371 103.791549,75.4414062 C104.148321,75.1106754 104.425662,74.6328156 104.62358,74.0078125 C104.821498,73.3828094 104.920455,72.6432334 104.920455,71.7890625 C104.920455,70.8775996 104.811081,70.125003 104.59233,69.53125 C104.373579,68.937497 104.078009,68.5039076 103.705611,68.2304688 C103.333213,67.9570299 102.915249,67.8203125 102.451705,67.8203125 C101.993369,67.8203125 101.585821,67.9843734 101.229049,68.3125 L101.229049,68.3125 Z M112.172657,75.1484375 C112.27422,75.3359384 112.435676,75.4687496 112.657032,75.546875 C112.878387,75.6250004 113.179165,75.6640625 113.559375,75.6640625 L113.559375,76 C112.392703,75.9583331 111.655731,75.9375 111.348438,75.9375 C111.020311,75.9375 110.200007,75.9583331 108.8875,76 L108.8875,75.6640625 C109.455212,75.6640625 109.879686,75.5690114 110.160938,75.3789062 C110.442189,75.1888011 110.582813,74.8463566 110.582813,74.3515625 L110.582813,70.4765625 C110.582813,69.9609349 110.529428,69.5833345 110.422657,69.34375 C110.315885,69.1041655 110.1362,68.9453129 109.883594,68.8671875 C109.630989,68.7890621 109.244274,68.75 108.723438,68.75 L108.723438,68.3984375 C109.504692,68.3828124 110.149217,68.3138027 110.657032,68.1914062 C111.164847,68.0690098 111.619269,67.8671889 112.020313,67.5859375 L112.020313,74.3515625 C112.020313,74.6953142 112.071094,74.9609366 112.172657,75.1484375 L112.172657,75.1484375 Z M119.760796,69.296875 C119.531628,69.2447914 118.792052,69.21875 117.542046,69.21875 L115.838921,69.21875 L115.651421,72.3046875 C115.943089,72.1536451 116.229544,72.0351567 116.510796,71.9492188 C116.792047,71.8632808 117.130586,71.8203125 117.526421,71.8203125 C118.151424,71.8203125 118.674856,71.9257802 119.096733,72.1367188 C119.51861,72.3476573 119.833711,72.6393211 120.042046,73.0117188 C120.25038,73.3841164 120.354546,73.8098934 120.354546,74.2890625 C120.354546,75.0807331 120.095434,75.7864552 119.577202,76.40625 C119.05897,77.0260448 118.391008,77.5078108 117.573296,77.8515625 C116.755583,78.1953142 115.922258,78.3671875 115.073296,78.3671875 L115.073296,78.078125 C115.724341,78.0729166 116.336314,77.932293 116.909233,77.65625 C117.482153,77.380207 117.94569,76.9687527 118.299858,76.421875 C118.654027,75.8749973 118.831108,75.2161497 118.831108,74.4453125 C118.831108,73.7682258 118.656631,73.2421894 118.307671,72.8671875 C117.958711,72.4921856 117.46132,72.3046875 116.815483,72.3046875 C116.555065,72.3046875 116.333713,72.3255206 116.151421,72.3671875 C115.969128,72.4088544 115.752985,72.4791662 115.502983,72.578125 L115.346733,72.4765625 L115.651421,67.7109375 C115.864964,67.7526044 116.151419,67.7734375 116.510796,67.7734375 L118.323296,67.7734375 C118.614964,67.7734375 118.831108,67.7486982 118.971733,67.6992188 C119.112359,67.6497393 119.210014,67.570313 119.264702,67.4609375 C119.31939,67.351562 119.362358,67.184897 119.393608,66.9609375 L119.698296,66.9609375 C119.698296,68.0442763 119.719129,68.8229143 119.760796,69.296875 L119.760796,69.296875 Z" id="November-2015" fill="#000000"></path>
                </g>
            </g>
        </g>
    </g>
</svg>