<?xml version="1.0" encoding="UTF-8" standalone="no"?>
<svg width="1020px" height="550px" viewBox="0 0 1020 550" version="1.1" xmlns="http://www.w3.org/2000/svg" xmlns:xlink="http://www.w3.org/1999/xlink" xmlns:sketch="http://www.bohemiancoding.com/sketch/ns">
    <!-- Generator: Sketch 3.4.4 (17249) - http://www.bohemiancoding.com/sketch -->
    <title>Artboard 7</title>
    <desc>Created with Sketch.</desc>
    <defs></defs>
    <g id="Welcome" stroke="none" stroke-width="1" fill="none" fill-rule="evenodd" sketch:type="MSPage">
        <g id="Artboard-7" sketch:type="MSArtboardGroup">
            <g id="touch-tone" sketch:type="MSLayerGroup" transform="translate(0.000000, -1.000000)">
                <g id="textverison-copy-3" transform="translate(0.000000, 112.000000)" sketch:type="MSShapeGroup">
                    <rect id="Rectangle-81" stroke="#000000" fill="#FFFFFF" x="0.530604539" y="0" width="300" height="110"></rect>
                    <path d="M31.072,78.776 C30.5173306,79.042668 29.9840026,79.176 29.472,79.176 C28.9599974,79.176 28.533335,79.0000018 28.192,78.648 C27.850665,78.2959982 27.717333,77.7520037 27.792,77.016 L28.224,72.312 L27.104,72.312 L27.216,71.352 L28.304,71.352 L28.512,69.224 L29.648,69.224 L29.44,71.352 L31.6,71.352 L31.504,72.312 L29.344,72.312 L28.912,77 C28.8586664,77.3946686 28.9093326,77.687999 29.064,77.88 C29.2186674,78.072001 29.4613317,78.168 29.792,78.168 C30.1226683,78.168 30.5226643,78.072001 30.992,77.88 L31.072,78.776 Z M37.172,71.16 C37.6306689,71.16 38.0493314,71.2453325 38.428,71.416 C38.8066685,71.5866675 39.1239987,71.842665 39.38,72.184 C39.9240027,72.909337 40.1320006,73.9066603 40.004,75.176 C39.8759993,76.4560064 39.4760033,77.4533298 38.804,78.168 C38.1639968,78.8400034 37.3640048,79.176 36.404,79.176 C35.4439952,79.176 34.7080025,78.8400034 34.196,78.168 C33.6519973,77.4533298 33.4439993,76.4560064 33.572,75.176 C33.7000006,73.8959936 34.0999966,72.8986702 34.772,72.184 C35.4013365,71.5013299 36.2013285,71.16 37.172,71.16 L37.172,71.16 Z M37.092,72.248 C36.4199966,72.248 35.8813353,72.5066641 35.476,73.024 C35.0706646,73.5413359 34.8253337,74.2559954 34.74,75.168 C34.6546662,76.0800046 34.7533319,76.7946641 35.036,77.312 C35.3186681,77.8293359 35.7959966,78.088 36.468,78.088 C37.1400033,78.088 37.6839979,77.8293359 38.1,77.312 C38.5160021,76.7946641 38.7666662,76.0800046 38.852,75.168 C38.9373337,74.2559954 38.8333348,73.5413359 38.54,73.024 C38.2466652,72.5066641 37.7640033,72.248 37.092,72.248 L37.092,72.248 Z M47.464,77.48 C46.8986638,78.5893389 46.082672,79.144 45.016,79.144 C44.2373294,79.144 43.6346688,78.9040024 43.208,78.424 C42.7813312,77.9439976 42.6106662,77.2026717 42.696,76.2 L43.16,71.336 L44.296,71.336 L43.848,76.104 C43.7199993,77.3946731 44.1999945,78.04 45.288,78.04 C45.9280032,78.04 46.4719977,77.7626694 46.92,77.208 C47.3466688,76.6639973 47.6026662,75.9493378 47.688,75.064 L48.04,71.336 L49.176,71.336 L48.456,79 L47.32,79 L47.464,77.48 Z M55.4199999,71.16 C55.8253353,71.16 56.1773318,71.226666 56.4759999,71.36 C56.7746681,71.493334 57.0306655,71.6719989 57.2439999,71.896 C57.660002,72.3440022 57.8999996,72.9093299 57.9639999,73.592 L56.8119999,73.704 C56.7266662,73.2559978 56.5586678,72.9066679 56.3079999,72.656 C56.057332,72.4053321 55.7666682,72.28 55.4359999,72.28 C55.1053316,72.28 54.8146678,72.3413327 54.5639999,72.464 C54.313332,72.5866673 54.0866676,72.7706654 53.8839999,73.016 C53.425331,73.549336 53.158667,74.2639955 53.0839999,75.16 C52.9986662,76.034671 53.118665,76.7359974 53.4439999,77.264 C53.7693349,77.7920026 54.2066638,78.056 54.7559999,78.056 C55.305336,78.056 55.7293318,77.9146681 56.0279999,77.632 C56.3266681,77.3493319 56.497333,76.9466693 56.5399999,76.424 L57.7079999,76.424 C57.6439996,77.224004 57.3293361,77.8799974 56.7639999,78.392 C56.2093305,78.9146693 55.5106708,79.176 54.6679999,79.176 C53.8146623,79.176 53.1213359,78.8186702 52.5879999,78.104 C52.0333305,77.3466629 51.8093327,76.3653394 51.9159999,75.16 C52.0440006,73.9333272 52.4546631,72.9466704 53.1479999,72.2 C53.7986698,71.5066632 54.5559956,71.16 55.4199999,71.16 L55.4199999,71.16 Z M62.1599999,72.76 C62.7360028,71.693328 63.5519946,71.16 64.6079999,71.16 C65.4293373,71.16 66.0399979,71.4586637 66.4399999,72.056 C66.8400019,72.6533363 66.9866671,73.4693282 66.8799999,74.504 L66.4639999,79 L65.3439999,79 L65.7599999,74.504 C65.8346669,73.7679963 65.7333346,73.2133352 65.4559999,72.84 C65.1786652,72.4666648 64.7466695,72.28 64.1599999,72.28 C63.5733303,72.28 63.0746686,72.5546639 62.6639999,73.104 C62.2533312,73.6533361 62.0053337,74.4133285 61.9199999,75.384 L61.5839999,79 L60.4479999,79 L61.4719999,68.104 L62.6079999,68.104 L62.1599999,72.76 Z M69.6359999,73.8 L73.5559999,73.8 L73.4439999,74.888 L69.5239999,74.888 L69.6359999,73.8 Z M79.5919999,78.776 C79.0373304,79.042668 78.5040024,79.176 77.9919999,79.176 C77.4799973,79.176 77.0533349,79.0000018 76.7119999,78.648 C76.3706648,78.2959982 76.2373328,77.7520037 76.3119999,77.016 L76.7439999,72.312 L75.6239999,72.312 L75.7359999,71.352 L76.8239999,71.352 L77.0319999,69.224 L78.1679999,69.224 L77.9599999,71.352 L80.1199999,71.352 L80.0239999,72.312 L77.8639999,72.312 L77.4319999,77 C77.3786663,77.3946686 77.4293324,77.687999 77.5839999,77.88 C77.7386673,78.072001 77.9813315,78.168 78.3119999,78.168 C78.6426682,78.168 79.0426642,78.072001 79.5119999,77.88 L79.5919999,78.776 Z M85.6919998,71.16 C86.1506688,71.16 86.5693313,71.2453325 86.9479998,71.416 C87.3266684,71.5866675 87.6439986,71.842665 87.8999998,72.184 C88.4440026,72.909337 88.6520005,73.9066603 88.5239998,75.176 C88.3959992,76.4560064 87.9960032,77.4533298 87.3239998,78.168 C86.6839966,78.8400034 85.8840046,79.176 84.9239998,79.176 C83.963995,79.176 83.2280024,78.8400034 82.7159998,78.168 C82.1719971,77.4533298 81.9639992,76.4560064 82.0919998,75.176 C82.2200005,73.8959936 82.6199965,72.8986702 83.2919998,72.184 C83.9213363,71.5013299 84.7213283,71.16 85.6919998,71.16 L85.6919998,71.16 Z M85.6119998,72.248 C84.9399965,72.248 84.4013352,72.5066641 83.9959998,73.024 C83.5906645,73.5413359 83.3453336,74.2559954 83.2599998,75.168 C83.1746661,76.0800046 83.2733318,76.7946641 83.5559998,77.312 C83.8386679,77.8293359 84.3159965,78.088 84.9879998,78.088 C85.6600032,78.088 86.2039978,77.8293359 86.6199998,77.312 C87.0360019,76.7946641 87.2866661,76.0800046 87.3719998,75.168 C87.4573336,74.2559954 87.3533346,73.5413359 87.0599998,73.024 C86.766665,72.5066641 86.2840032,72.248 85.6119998,72.248 L85.6119998,72.248 Z M92.7039998,72.84 C93.2800027,71.7199944 94.1066611,71.16 95.1839998,71.16 C96.0053372,71.16 96.6159978,71.4586637 97.0159998,72.056 C97.4160018,72.6533363 97.562667,73.4693282 97.4559998,74.504 L97.0399998,79 L95.9199998,79 L96.3359998,74.504 C96.4106668,73.7679963 96.3093345,73.2133352 96.0319998,72.84 C95.7546651,72.4666648 95.3226694,72.28 94.7359998,72.28 C94.1493302,72.28 93.6506685,72.5546639 93.2399998,73.104 C92.8293311,73.6533361 92.5813336,74.4133285 92.4959998,75.384 L92.1599998,79 L91.0239998,79 L91.7439998,71.352 L92.7199998,71.352 L92.7039998,72.84 Z M103.268,78.152 C104.206671,78.152 104.793332,77.6880046 105.028,76.76 L106.196,76.76 C106.014666,77.5280038 105.652003,78.1226646 105.108,78.544 C104.563997,78.9653354 103.91867,79.176 103.172,79.176 C102.254662,79.176 101.545336,78.8186702 101.044,78.104 C100.510664,77.3573296 100.307999,76.3866726 100.436,75.192 C100.564,73.9546605 100.95333,72.973337 101.604,72.248 C102.244003,71.522663 103.017329,71.16 103.924,71.16 C104.937338,71.16 105.651998,71.5919957 106.068,72.456 C106.452002,73.2346706 106.516001,74.2319939 106.26,75.448 L101.54,75.448 C101.433333,76.6960062 101.731996,77.5279979 102.436,77.944 C102.660001,78.0826674 102.937331,78.152 103.268,78.152 L103.268,78.152 Z M104.644,72.36 C104.430665,72.2319994 104.169335,72.168 103.86,72.168 C103.550665,72.168 103.273334,72.2293327 103.028,72.352 C102.782665,72.4746673 102.564001,72.6426656 102.372,72.856 C101.998665,73.2826688 101.758667,73.8266634 101.652,74.488 L105.332,74.488 C105.449334,73.421328 105.220003,72.7120018 104.644,72.36 L104.644,72.36 Z" id="touch-tone" fill="#000000"></path>
                    <path d="M46.1791992,34.3154297 C45.8956692,34.4254563 45.7010096,34.6285792 45.5952148,34.9248047 C45.48942,35.2210301 45.4365234,35.6949837 45.4365234,36.3466797 L45.4365234,49.2451172 C45.4365234,49.8968132 45.48942,50.3707667 45.5952148,50.6669922 C45.7010096,50.9632176 45.8956692,51.1663406 46.1791992,51.2763672 C46.4627293,51.3863938 46.9176401,51.4541014 47.5439453,51.4794922 L47.5439453,52 C46.7314413,51.9492185 45.6311918,51.9238281 44.2431641,51.9238281 C42.7535733,51.9238281 41.6448604,51.9492185 40.9169922,52 L40.9169922,51.4794922 C41.5432974,51.4541014 41.9960924,51.3863938 42.2753906,51.2763672 C42.5546889,51.1663406 42.7472325,50.9632176 42.8530273,50.6669922 C42.9588221,50.3707667 43.0117188,49.8968132 43.0117188,49.2451172 L43.0117188,35.3310547 L36.7529297,52.1269531 L36.3339844,52.1269531 L29.7832031,35.2548828 L29.7832031,48.9785156 C29.7832031,49.6471388 29.8424473,50.1507145 29.9609375,50.4892578 C30.0794277,50.8278012 30.3015934,51.0711256 30.6274414,51.2192383 C30.9532894,51.367351 31.4589809,51.4541014 32.1445312,51.4794922 L32.1445312,52 C31.5266896,51.9492185 30.6422584,51.9238281 29.4912109,51.9238281 C28.4586537,51.9238281 27.6546253,51.9492185 27.0791016,52 L27.0791016,51.4794922 C27.680016,51.4541014 28.1264634,51.367351 28.418457,51.2192383 C28.7104507,51.0711256 28.9114578,50.8278012 29.0214844,50.4892578 C29.131511,50.1507145 29.1865234,49.6471388 29.1865234,48.9785156 L29.1865234,36.3466797 C29.1865234,35.6949837 29.1336268,35.2210301 29.027832,34.9248047 C28.9220372,34.6285792 28.7273777,34.4254563 28.4438477,34.3154297 C28.1603176,34.2054031 27.7054068,34.1376954 27.0791016,34.1123047 L27.0791016,33.5917969 C27.6461617,33.6425784 28.4501901,33.6679688 29.4912109,33.6679688 C30.405278,33.6679688 31.1458305,33.6425784 31.7128906,33.5917969 L37.4257812,48.6738281 L43.0117188,33.6679688 L44.2431641,33.6679688 C45.6311918,33.6679688 46.7314413,33.6425784 47.5439453,33.5917969 L47.5439453,34.1123047 C46.9176401,34.1376954 46.4627293,34.2054031 46.1791992,34.3154297 L46.1791992,34.3154297 Z M60.2936168,50.5844727 C59.8492786,51.1134467 59.2949222,51.5429671 58.6305308,51.8730469 C57.9661395,52.2031267 57.2234711,52.3681641 56.4025035,52.3681641 C55.1668202,52.3681641 54.0983088,52.0867541 53.1969371,51.5239258 C52.2955654,50.9610974 51.6079095,50.1697642 51.1339488,49.1499023 C50.6599881,48.1300405 50.4230113,46.9557358 50.4230113,45.6269531 C50.4230113,44.1204352 50.6642198,42.8128311 51.1466441,41.7041016 C51.6290684,40.5953721 52.3124926,39.7426788 53.1969371,39.1459961 C54.0813816,38.5493134 55.1160392,38.2509766 56.300941,38.2509766 C57.8582404,38.2509766 59.0579355,38.7228143 59.9000621,39.6665039 C60.7421887,40.6101935 61.1632457,42.0426336 61.1632457,43.9638672 L53.0382457,43.9638672 C52.9790006,44.4124371 52.9493785,44.9667936 52.9493785,45.6269531 C52.9493785,46.769537 53.1376904,47.7682249 53.5143199,48.6230469 C53.8909494,49.4778689 54.3839458,50.1337868 54.9933238,50.5908203 C55.6027018,51.0478538 56.2459246,51.2763672 56.9230113,51.2763672 C58.6665096,51.2763672 59.9402599,50.4088628 60.7443004,48.6738281 L61.2648082,48.8769531 C61.0616822,49.4863312 60.7379549,50.0554987 60.2936168,50.5844727 L60.2936168,50.5844727 Z M58.4464488,41.0947266 C58.2687135,40.3753219 57.9894195,39.8040386 57.6085582,39.3808594 C57.2276969,38.9576802 56.757975,38.7460938 56.1993785,38.7460938 C55.6661727,38.7460938 55.1752922,38.9174788 54.7267222,39.2602539 C54.2781523,39.6030291 53.8994126,40.1277634 53.5904918,40.8344727 C53.281571,41.5411819 53.0847956,42.4192656 53.0001597,43.46875 L58.6622691,43.46875 C58.6961235,42.6054644 58.6241841,41.8141312 58.4464488,41.0947266 L58.4464488,41.0947266 Z M76.4773703,50.9145508 C76.7693639,51.2742531 77.2835189,51.4541016 78.0198507,51.4541016 L78.0198507,52 C77.4697178,51.9492185 76.9322883,51.9238281 76.407546,51.9238281 C75.290353,51.9238281 74.3889948,52.0465483 73.7034445,52.2919922 L73.7034445,49.9814453 C73.3818283,50.760095 72.9099906,51.352537 72.2879171,51.7587891 C71.6658437,52.1650411 70.9062484,52.3681641 70.0091085,52.3681641 C68.9088426,52.3681641 67.9609354,52.1057969 67.1653585,51.5810547 C66.3697816,51.0563125 65.7582969,50.269211 65.3308859,49.2197266 C64.9034749,48.1702421 64.6940043,46.8711015 64.7024679,45.3222656 C64.6940043,43.8072841 64.9563715,42.5166069 65.4895773,41.4501953 C66.0227831,40.3837837 66.7358293,39.583987 67.6287374,39.0507812 C68.5216456,38.5175755 69.5055224,38.2509766 70.5803976,38.2509766 C71.2405572,38.2509766 71.8478102,38.3758126 72.4021749,38.6254883 C72.9565397,38.875164 73.3902919,39.2623672 73.7034445,39.7871094 L73.7034445,34.734375 C73.7034445,33.9303345 73.5574498,33.3484719 73.2654562,32.9887695 C72.9734626,32.6290672 72.4593075,32.4492188 71.7229757,32.4492188 L71.7229757,31.9033203 C72.2731087,31.9541018 72.8105382,31.9794922 73.3352804,31.9794922 C74.4524735,31.9794922 75.3538317,31.8567721 76.039382,31.6113281 L76.039382,49.1689453 C76.039382,49.9729858 76.1853766,50.5548485 76.4773703,50.9145508 L76.4773703,50.9145508 Z M70.7962179,38.8476562 C70.0937404,38.8476562 69.4737922,39.0867489 68.9363546,39.5649414 C68.3989171,40.0431339 67.9778601,40.7667595 67.673171,41.7358398 C67.368482,42.7049202 67.2203715,43.9003835 67.2288351,45.3222656 C67.2203715,47.4043073 67.5144767,48.967931 68.1111593,50.0131836 C68.707842,51.0584362 69.5901574,51.5810547 70.758132,51.5810547 C71.2067019,51.5810547 71.6298748,51.466798 72.0276632,51.2382812 C72.4254517,51.0097645 72.7724534,50.6691103 73.0686789,50.2163086 C73.3649043,49.7635069 73.5764907,49.2197297 73.7034445,48.5849609 L73.7034445,40.8535156 C73.2210202,39.5162694 72.2519544,38.8476562 70.7962179,38.8476562 L70.7962179,38.8476562 Z M84.161612,32.3349609 C84.4155196,32.4873054 84.6186425,32.6904284 84.770987,32.9443359 C84.9233315,33.1982435 84.9995027,33.4733058 84.9995027,33.7695312 C84.9995027,34.0657567 84.9233315,34.3429349 84.770987,34.6010742 C84.6186425,34.8592135 84.4155196,35.0623365 84.161612,35.2104492 C83.9077045,35.3585619 83.6326422,35.4326172 83.3364167,35.4326172 C83.0401913,35.4326172 82.7630131,35.3585619 82.5048738,35.2104492 C82.2467344,35.0623365 82.0436115,34.8592135 81.8954988,34.6010742 C81.747386,34.3429349 81.6733308,34.0657567 81.6733308,33.7695312 C81.6733308,33.4733058 81.747386,33.1982435 81.8954988,32.9443359 C82.0436115,32.6904284 82.2467344,32.4873054 82.5048738,32.3349609 C82.7630131,32.1826164 83.0401913,32.1064453 83.3364167,32.1064453 C83.6326422,32.1064453 83.9077045,32.1826164 84.161612,32.3349609 L84.161612,32.3349609 Z M84.8788972,50.7177734 C85.0100827,50.9886081 85.2174374,51.1790359 85.5009675,51.2890625 C85.7844976,51.3990891 86.1717007,51.4541016 86.6625886,51.4541016 L86.6625886,52 C85.0714348,51.9322913 84.0219661,51.8984375 83.5141511,51.8984375 C83.0063361,51.8984375 81.9568674,51.9322913 80.3657136,52 L80.3657136,51.4541016 C80.8566015,51.4541016 81.2438046,51.3990891 81.5273347,51.2890625 C81.8108648,51.1790359 82.0182195,50.9886081 82.149405,50.7177734 C82.2805906,50.4469388 82.3461823,50.0703149 82.3461823,49.5878906 L82.3461823,41.4501953 C82.3461823,40.6461548 82.2001877,40.0621763 81.9081941,39.6982422 C81.6162004,39.3343081 81.1020454,39.1523438 80.3657136,39.1523438 L80.3657136,38.6064453 C80.907383,38.6572268 81.4448125,38.6826172 81.9780183,38.6826172 C83.0782842,38.6826172 83.9796424,38.5641288 84.6821198,38.3271484 L84.6821198,49.5878906 C84.6821198,50.0703149 84.7477116,50.4469388 84.8788972,50.7177734 L84.8788972,50.7177734 Z M95.9845257,39.3237305 C95.5655783,38.9555646 94.9710204,38.7714844 94.2008343,38.7714844 C92.9736146,38.7714844 92.1145737,39.0804006 91.6236858,39.6982422 C91.9706928,39.782878 92.2605662,39.9669582 92.4933147,40.2504883 C92.7260633,40.5340183 92.8424358,40.8789042 92.8424358,41.2851562 C92.8424358,41.7252626 92.7049047,42.0701485 92.4298382,42.3198242 C92.1547717,42.5694999 91.7844955,42.6943359 91.3189983,42.6943359 C90.878892,42.6943359 90.5340061,42.5462254 90.2843304,42.25 C90.0346546,41.9537746 89.9098186,41.5644555 89.9098186,41.0820312 C89.9098186,40.4049445 90.3160646,39.7871122 91.1285686,39.2285156 C91.5517478,38.9492174 92.0743663,38.7164723 92.6964397,38.5302734 C93.3185132,38.3440746 94.0104008,38.2509766 94.7721233,38.2509766 C95.4830644,38.2509766 96.1093602,38.337727 96.6510296,38.5112305 C97.192699,38.6847339 97.6158718,38.9238266 97.9205608,39.2285156 C98.3183493,39.6347677 98.5912958,40.1066054 98.7394085,40.644043 C98.8875212,41.1814806 98.9615765,41.9241489 98.9615765,42.8720703 L98.9615765,50.0957031 C98.9615765,50.5273459 99.0229365,50.8404938 99.1456585,51.0351562 C99.2683805,51.2298187 99.4736193,51.3271484 99.7613811,51.3271484 C99.9729707,51.3271484 100.16763,51.2805994 100.345366,51.1875 C100.523101,51.0944006 100.71776,50.9589853 100.92935,50.78125 L101.221342,51.2255859 C100.916653,51.4541027 100.662749,51.6318353 100.459623,51.7587891 C100.256497,51.8857428 100.023752,51.9873043 99.7613811,52.0634766 C99.49901,52.1396488 99.1943256,52.1777344 98.8473186,52.1777344 C98.0094238,52.1777344 97.4275612,51.9682638 97.1017132,51.5493164 C96.7758652,51.130369 96.6129436,50.569665 96.6129436,49.8671875 C96.1051286,50.7050823 95.4957597,51.2996402 94.7848186,51.6508789 C94.0738776,52.0021176 93.350252,52.1777344 92.6139202,52.1777344 C92.0130057,52.1777344 91.462881,52.074057 90.9635296,51.8666992 C90.4641781,51.6593414 90.0642798,51.33773 89.7638226,50.9018555 C89.4633653,50.4659809 89.313139,49.9222038 89.313139,49.2705078 C89.313139,48.6103483 89.4739446,48.0475284 89.7955608,47.5820312 C90.117177,47.1165341 90.569972,46.7081723 91.1539593,46.3569336 C91.7379466,46.0056949 92.5208163,45.6227234 93.5025921,45.2080078 C93.6718638,45.1402991 94.0865732,44.97103 94.7467327,44.7001953 C95.4068923,44.4293606 95.8829617,44.15853 96.1749554,43.8876953 C96.466949,43.6168606 96.6129436,43.3206396 96.6129436,42.9990234 L96.6129436,41.3867188 C96.6129436,40.3795523 96.4034731,39.6918964 95.9845257,39.3237305 L95.9845257,39.3237305 Z M95.978178,44.6113281 C95.6819526,44.7805998 95.0641202,45.0937477 94.1246624,45.5507812 C93.6253109,45.7877616 93.2021381,46.031086 92.8551311,46.2807617 C92.5081242,46.5304374 92.2119032,46.8668599 91.9664593,47.2900391 C91.7210153,47.7132183 91.5982952,48.2337209 91.5982952,48.8515625 C91.5982952,49.6048215 91.788723,50.173989 92.1695843,50.559082 C92.5504456,50.9441751 93.0540212,51.1367188 93.6803265,51.1367188 C94.8313739,51.1367188 95.8089032,50.4808008 96.6129436,49.1689453 L96.6129436,44.0654297 C96.4859899,44.2600921 96.2744035,44.4420564 95.978178,44.6113281 L95.978178,44.6113281 Z M115.885236,34.3154297 C115.601706,34.4254563 115.407046,34.6285792 115.301251,34.9248047 C115.195457,35.2210301 115.14256,35.6949837 115.14256,36.3466797 L115.14256,49.2451172 C115.14256,49.8968132 115.195457,50.3707667 115.301251,50.6669922 C115.407046,50.9632176 115.601706,51.1663406 115.885236,51.2763672 C116.168766,51.3863938 116.623677,51.4541014 117.249982,51.4794922 L117.249982,52 C116.454405,51.9492185 115.354156,51.9238281 113.949201,51.9238281 C112.45961,51.9238281 111.350897,51.9492185 110.623029,52 L110.623029,51.4794922 C111.249334,51.4541014 111.704245,51.3863938 111.987775,51.2763672 C112.271305,51.1663406 112.465964,50.9632176 112.571759,50.6669922 C112.677554,50.3707667 112.730451,49.8968132 112.730451,49.2451172 L112.730451,36.3466797 C112.730451,35.6949837 112.677554,35.2210301 112.571759,34.9248047 C112.465964,34.6285792 112.271305,34.4254563 111.987775,34.3154297 C111.704245,34.2054031 111.249334,34.1376954 110.623029,34.1123047 L110.623029,33.5917969 C111.342433,33.6425784 112.451146,33.6679688 113.949201,33.6679688 C115.354156,33.6679688 116.454405,33.6425784 117.249982,33.5917969 L117.249982,34.1123047 C116.623677,34.1376954 116.168766,34.2054031 115.885236,34.3154297 L115.885236,34.3154297 Z M126.279927,38.9936523 C127.054345,38.4985327 127.928197,38.2509766 128.901509,38.2509766 C130.111801,38.2509766 131.030086,38.5768197 131.656392,39.2285156 C131.978008,39.5839862 132.208637,40.0219701 132.348286,40.5424805 C132.487935,41.0629909 132.557759,41.763342 132.557759,42.6435547 L132.557759,49.5878906 C132.557759,50.0703149 132.623351,50.4469388 132.754536,50.7177734 C132.885722,50.9886081 133.093076,51.1790359 133.376606,51.2890625 C133.660137,51.3990891 134.04734,51.4541016 134.538228,51.4541016 L134.538228,52 C132.947074,51.9322913 131.906069,51.8984375 131.415181,51.8984375 C130.932756,51.8984375 129.963691,51.9322913 128.507954,52 L128.507954,51.4541016 C128.939597,51.4541016 129.276019,51.3990891 129.517231,51.2890625 C129.758444,51.1790359 129.936176,50.9886081 130.050435,50.7177734 C130.164693,50.4469388 130.221821,50.0703149 130.221821,49.5878906 L130.221821,42.0722656 C130.221821,41.4459604 130.173156,40.9212261 130.075825,40.4980469 C129.978494,40.0748677 129.775371,39.7320977 129.46645,39.4697266 C129.157529,39.2073555 128.70685,39.0761719 128.114399,39.0761719 C127.403458,39.0761719 126.770815,39.2835266 126.21645,39.6982422 C125.662085,40.1129578 125.232565,40.6821253 124.927876,41.4057617 C124.623187,42.1293981 124.470845,42.9313107 124.470845,43.8115234 L124.470845,49.5878906 C124.470845,50.0703149 124.527973,50.4469388 124.642231,50.7177734 C124.75649,50.9886081 124.936338,51.1790359 125.181782,51.2890625 C125.427226,51.3990891 125.765764,51.4541016 126.197407,51.4541016 L126.197407,52 C124.741671,51.9322913 123.768373,51.8984375 123.277485,51.8984375 C122.786597,51.8984375 121.745592,51.9322913 120.154438,52 L120.154438,51.4541016 C120.645326,51.4541016 121.03253,51.3990891 121.31606,51.2890625 C121.59959,51.1790359 121.806944,50.9886081 121.93813,50.7177734 C122.069315,50.4469388 122.134907,50.0703149 122.134907,49.5878906 L122.134907,41.4501953 C122.134907,40.6461548 121.988913,40.0621763 121.696919,39.6982422 C121.404925,39.3343081 120.89077,39.1523438 120.154438,39.1523438 L120.154438,38.6064453 C120.696108,38.6572268 121.233537,38.6826172 121.766743,38.6826172 C122.867009,38.6826172 123.768367,38.5641288 124.470845,38.3271484 L124.470845,41.3867188 C124.902488,40.2864528 125.505509,39.488772 126.279927,38.9936523 L126.279927,38.9936523 Z M138.674129,49.6386719 C138.91111,50.3326858 139.275038,50.874347 139.765926,51.2636719 C140.256814,51.6529967 140.916964,51.8476562 141.746395,51.8476562 C142.127256,51.8476562 142.493301,51.7651375 142.84454,51.6000977 C143.195778,51.4350578 143.485652,51.1684589 143.714169,50.800293 C143.942685,50.4321271 144.056942,49.9560576 144.056942,49.3720703 C144.056942,48.8981096 143.936338,48.4728209 143.695126,48.0961914 C143.453913,47.7195619 143.13865,47.3810236 142.749325,47.0805664 C142.36,46.7801092 141.814107,46.4098329 141.111629,45.9697266 C140.256808,45.4280572 139.603005,44.9837257 139.150204,44.6367188 C138.697402,44.2897118 138.314431,43.866539 138.001278,43.3671875 C137.688125,42.867836 137.531551,42.2796258 137.531551,41.6025391 C137.531551,40.8662073 137.705052,40.246259 138.052059,39.7426758 C138.399066,39.2390925 138.86244,38.8645846 139.442196,38.6191406 C140.021951,38.3736967 140.66729,38.2509766 141.378231,38.2509766 C141.987609,38.2509766 142.535618,38.3483063 143.022274,38.5429688 C143.50893,38.7376312 143.904597,38.9576811 144.209286,39.203125 C144.395485,39.3470059 144.547827,39.4189453 144.666317,39.4189453 C144.971006,39.4189453 145.165666,39.0380897 145.250301,38.2763672 L145.846981,38.2763672 C145.779272,39.1227256 145.745419,40.5953671 145.745419,42.6943359 L145.148739,42.6943359 C144.96254,41.5517521 144.59438,40.6080766 144.044247,39.8632812 C143.494114,39.1184859 142.681622,38.7460938 141.606747,38.7460938 C140.980441,38.7460938 140.468402,38.9217105 140.070614,39.2729492 C139.672825,39.624188 139.473934,40.1129526 139.473934,40.7392578 C139.473934,41.3401723 139.679173,41.8416321 140.089657,42.2436523 C140.500141,42.6456726 140.995253,43.028644 141.575008,43.3925781 C142.154764,43.7565122 142.567357,44.0188794 142.812801,44.1796875 C143.608378,44.6959661 144.249485,45.1551087 144.736141,45.5571289 C145.222797,45.9591491 145.616348,46.4204076 145.916805,46.940918 C146.217262,47.4614284 146.367489,48.0559862 146.367489,48.7246094 C146.367489,49.4947955 146.166482,50.1528293 145.764462,50.6987305 C145.362441,51.2446316 144.822896,51.659341 144.145809,51.9428711 C143.468722,52.2264012 142.72817,52.3681641 141.924129,52.3681641 C141.153943,52.3681641 140.468403,52.2454439 139.867489,52 C139.528946,51.8307283 139.17348,51.5979833 138.801083,51.3017578 C138.733374,51.2340491 138.652971,51.2001953 138.559872,51.2001953 C138.305964,51.2001953 138.128232,51.5260384 138.026669,52.1777344 L137.429989,52.1777344 C137.497698,51.187495 137.531551,49.4567181 137.531551,46.9853516 L138.128231,46.9853516 C138.255185,48.0602267 138.437149,48.944658 138.674129,49.6386719 L138.674129,49.6386719 Z M157.447727,38.6318359 L157.447727,39.1523438 L153.601047,39.1523438 L153.601047,49.2197266 C153.601047,50.0068399 153.740694,50.5717756 154.019992,50.9145508 C154.299291,51.2573259 154.714,51.4287109 155.264133,51.4287109 C155.805802,51.4287109 156.267061,51.2128928 156.647922,50.78125 C157.028783,50.3496072 157.350395,49.6386768 157.612766,48.6484375 L158.120578,48.7753906 C157.697399,51.1705849 156.571759,52.3681641 154.743625,52.3681641 C154.159638,52.3681641 153.677221,52.2983405 153.29636,52.1586914 C152.915498,52.0190423 152.57696,51.8011083 152.280735,51.5048828 C151.908337,51.1240215 151.64597,50.6564155 151.493625,50.1020508 C151.341281,49.547686 151.26511,48.8007859 151.26511,47.8613281 L151.26511,39.1523438 L148.764133,39.1523438 L148.764133,38.6318359 L151.26511,38.6318359 L151.26511,34.6582031 C152.238422,34.6328124 153.01706,34.5100922 153.601047,34.2900391 L153.601047,38.6318359 L157.447727,38.6318359 Z M166.604625,39.3237305 C166.185677,38.9555646 165.591119,38.7714844 164.820933,38.7714844 C163.593714,38.7714844 162.734673,39.0804006 162.243785,39.6982422 C162.590792,39.782878 162.880665,39.9669582 163.113414,40.2504883 C163.346162,40.5340183 163.462535,40.8789042 163.462535,41.2851562 C163.462535,41.7252626 163.325004,42.0701485 163.049937,42.3198242 C162.774871,42.5694999 162.404595,42.6943359 161.939097,42.6943359 C161.498991,42.6943359 161.154105,42.5462254 160.904429,42.25 C160.654754,41.9537746 160.529918,41.5644555 160.529918,41.0820312 C160.529918,40.4049445 160.936164,39.7871122 161.748668,39.2285156 C162.171847,38.9492174 162.694465,38.7164723 163.316539,38.5302734 C163.938612,38.3440746 164.6305,38.2509766 165.392222,38.2509766 C166.103163,38.2509766 166.729459,38.337727 167.271129,38.5112305 C167.812798,38.6847339 168.235971,38.9238266 168.54066,39.2285156 C168.938448,39.6347677 169.211395,40.1066054 169.359508,40.644043 C169.50762,41.1814806 169.581676,41.9241489 169.581676,42.8720703 L169.581676,50.0957031 C169.581676,50.5273459 169.643036,50.8404938 169.765758,51.0351562 C169.88848,51.2298187 170.093718,51.3271484 170.38148,51.3271484 C170.59307,51.3271484 170.787729,51.2805994 170.965465,51.1875 C171.1432,51.0944006 171.337859,50.9589853 171.549449,50.78125 L171.841441,51.2255859 C171.536752,51.4541027 171.282848,51.6318353 171.079722,51.7587891 C170.876596,51.8857428 170.643851,51.9873043 170.38148,52.0634766 C170.119109,52.1396488 169.814425,52.1777344 169.467418,52.1777344 C168.629523,52.1777344 168.04766,51.9682638 167.721812,51.5493164 C167.395964,51.130369 167.233043,50.569665 167.233043,49.8671875 C166.725228,50.7050823 166.115859,51.2996402 165.404918,51.6508789 C164.693977,52.0021176 163.970351,52.1777344 163.234019,52.1777344 C162.633105,52.1777344 162.08298,52.074057 161.583629,51.8666992 C161.084277,51.6593414 160.684379,51.33773 160.383922,50.9018555 C160.083464,50.4659809 159.933238,49.9222038 159.933238,49.2705078 C159.933238,48.6103483 160.094044,48.0475284 160.41566,47.5820312 C160.737276,47.1165341 161.190071,46.7081723 161.774058,46.3569336 C162.358046,46.0056949 163.140915,45.6227234 164.122691,45.2080078 C164.291963,45.1402991 164.706672,44.97103 165.366832,44.7001953 C166.026991,44.4293606 166.503061,44.15853 166.795054,43.8876953 C167.087048,43.6168606 167.233043,43.3206396 167.233043,42.9990234 L167.233043,41.3867188 C167.233043,40.3795523 167.023572,39.6918964 166.604625,39.3237305 L166.604625,39.3237305 Z M166.598277,44.6113281 C166.302052,44.7805998 165.684219,45.0937477 164.744761,45.5507812 C164.24541,45.7877616 163.822237,46.031086 163.47523,46.2807617 C163.128223,46.5304374 162.832002,46.8668599 162.586558,47.2900391 C162.341114,47.7132183 162.218394,48.2337209 162.218394,48.8515625 C162.218394,49.6048215 162.408822,50.173989 162.789683,50.559082 C163.170545,50.9441751 163.67412,51.1367188 164.300426,51.1367188 C165.451473,51.1367188 166.429002,50.4808008 167.233043,49.1689453 L167.233043,44.0654297 C167.106089,44.2600921 166.894503,44.4420564 166.598277,44.6113281 L166.598277,44.6113281 Z M178.014941,50.7177734 C178.146126,50.9886081 178.353481,51.1790359 178.637011,51.2890625 C178.920541,51.3990891 179.307744,51.4541016 179.798632,51.4541016 L179.798632,52 C178.207478,51.9322913 177.15801,51.8984375 176.650195,51.8984375 C176.14238,51.8984375 175.092911,51.9322913 173.501757,52 L173.501757,51.4541016 C173.992645,51.4541016 174.379848,51.3990891 174.663378,51.2890625 C174.946908,51.1790359 175.154263,50.9886081 175.285449,50.7177734 C175.416634,50.4469388 175.482226,50.0703149 175.482226,49.5878906 L175.482226,34.734375 C175.482226,33.9303345 175.336231,33.3484719 175.044238,32.9887695 C174.752244,32.6290672 174.238089,32.4492188 173.501757,32.4492188 L173.501757,31.9033203 C174.043427,31.9541018 174.580856,31.9794922 175.114062,31.9794922 C176.231255,31.9794922 177.132613,31.8567721 177.818163,31.6113281 L177.818163,49.5878906 C177.818163,50.0703149 177.883755,50.4469388 178.014941,50.7177734 L178.014941,50.7177734 Z M186.51803,50.7177734 C186.649216,50.9886081 186.85657,51.1790359 187.1401,51.2890625 C187.423631,51.3990891 187.810834,51.4541016 188.301722,51.4541016 L188.301722,52 C186.710568,51.9322913 185.661099,51.8984375 185.153284,51.8984375 C184.645469,51.8984375 183.596,51.9322913 182.004847,52 L182.004847,51.4541016 C182.495734,51.4541016 182.882938,51.3990891 183.166468,51.2890625 C183.449998,51.1790359 183.657352,50.9886081 183.788538,50.7177734 C183.919724,50.4469388 183.985315,50.0703149 183.985315,49.5878906 L183.985315,34.734375 C183.985315,33.9303345 183.839321,33.3484719 183.547327,32.9887695 C183.255333,32.6290672 182.741178,32.4492188 182.004847,32.4492188 L182.004847,31.9033203 C182.546516,31.9541018 183.083945,31.9794922 183.617151,31.9794922 C184.734344,31.9794922 185.635703,31.8567721 186.321253,31.6113281 L186.321253,49.5878906 C186.321253,50.0703149 186.386845,50.4469388 186.51803,50.7177734 L186.51803,50.7177734 Z M197.623659,39.3237305 C197.204711,38.9555646 196.610153,38.7714844 195.839967,38.7714844 C194.612748,38.7714844 193.753707,39.0804006 193.262819,39.6982422 C193.609826,39.782878 193.899699,39.9669582 194.132448,40.2504883 C194.365196,40.5340183 194.481569,40.8789042 194.481569,41.2851562 C194.481569,41.7252626 194.344038,42.0701485 194.068971,42.3198242 C193.793905,42.5694999 193.423628,42.6943359 192.958131,42.6943359 C192.518025,42.6943359 192.173139,42.5462254 191.923463,42.25 C191.673788,41.9537746 191.548952,41.5644555 191.548952,41.0820312 C191.548952,40.4049445 191.955198,39.7871122 192.767702,39.2285156 C193.190881,38.9492174 193.713499,38.7164723 194.335573,38.5302734 C194.957646,38.3440746 195.649534,38.2509766 196.411256,38.2509766 C197.122197,38.2509766 197.748493,38.337727 198.290163,38.5112305 C198.831832,38.6847339 199.255005,38.9238266 199.559694,39.2285156 C199.957482,39.6347677 200.230429,40.1066054 200.378541,40.644043 C200.526654,41.1814806 200.600709,41.9241489 200.600709,42.8720703 L200.600709,50.0957031 C200.600709,50.5273459 200.66207,50.8404938 200.784791,51.0351562 C200.907513,51.2298187 201.112752,51.3271484 201.400514,51.3271484 C201.612104,51.3271484 201.806763,51.2805994 201.984499,51.1875 C202.162234,51.0944006 202.356893,50.9589853 202.568483,50.78125 L202.860475,51.2255859 C202.555786,51.4541027 202.301882,51.6318353 202.098756,51.7587891 C201.89563,51.8857428 201.662885,51.9873043 201.400514,52.0634766 C201.138143,52.1396488 200.833459,52.1777344 200.486452,52.1777344 C199.648557,52.1777344 199.066694,51.9682638 198.740846,51.5493164 C198.414998,51.130369 198.252077,50.569665 198.252077,49.8671875 C197.744262,50.7050823 197.134893,51.2996402 196.423952,51.6508789 C195.713011,52.0021176 194.989385,52.1777344 194.253053,52.1777344 C193.652139,52.1777344 193.102014,52.074057 192.602663,51.8666992 C192.103311,51.6593414 191.703413,51.33773 191.402956,50.9018555 C191.102498,50.4659809 190.952272,49.9222038 190.952272,49.2705078 C190.952272,48.6103483 191.113078,48.0475284 191.434694,47.5820312 C191.75631,47.1165341 192.209105,46.7081723 192.793092,46.3569336 C193.37708,46.0056949 194.159949,45.6227234 195.141725,45.2080078 C195.310997,45.1402991 195.725706,44.97103 196.385866,44.7001953 C197.046025,44.4293606 197.522095,44.15853 197.814088,43.8876953 C198.106082,43.6168606 198.252077,43.3206396 198.252077,42.9990234 L198.252077,41.3867188 C198.252077,40.3795523 198.042606,39.6918964 197.623659,39.3237305 L197.623659,39.3237305 Z M197.617311,44.6113281 C197.321086,44.7805998 196.703253,45.0937477 195.763795,45.5507812 C195.264444,45.7877616 194.841271,46.031086 194.494264,46.2807617 C194.147257,46.5304374 193.851036,46.8668599 193.605592,47.2900391 C193.360148,47.7132183 193.237428,48.2337209 193.237428,48.8515625 C193.237428,49.6048215 193.427856,50.173989 193.808717,50.559082 C194.189579,50.9441751 194.693154,51.1367188 195.319459,51.1367188 C196.470507,51.1367188 197.448036,50.4808008 198.252077,49.1689453 L198.252077,44.0654297 C198.125123,44.2600921 197.913536,44.4420564 197.617311,44.6113281 L197.617311,44.6113281 Z M212.747354,38.6318359 L212.747354,39.1523438 L208.900674,39.1523438 L208.900674,49.2197266 C208.900674,50.0068399 209.040321,50.5717756 209.319619,50.9145508 C209.598917,51.2573259 210.013627,51.4287109 210.56376,51.4287109 C211.105429,51.4287109 211.566688,51.2128928 211.947549,50.78125 C212.32841,50.3496072 212.650022,49.6386768 212.912393,48.6484375 L213.420205,48.7753906 C212.997026,51.1705849 211.871386,52.3681641 210.043252,52.3681641 C209.459265,52.3681641 208.976848,52.2983405 208.595986,52.1586914 C208.215125,52.0190423 207.876587,51.8011083 207.580361,51.5048828 C207.207964,51.1240215 206.945597,50.6564155 206.793252,50.1020508 C206.640907,49.547686 206.564736,48.8007859 206.564736,47.8613281 L206.564736,39.1523438 L204.06376,39.1523438 L204.06376,38.6318359 L206.564736,38.6318359 L206.564736,34.6582031 C207.538049,34.6328124 208.316687,34.5100922 208.900674,34.2900391 L208.900674,38.6318359 L212.747354,38.6318359 Z M218.762162,32.3349609 C219.016069,32.4873054 219.219192,32.6904284 219.371537,32.9443359 C219.523881,33.1982435 219.600052,33.4733058 219.600052,33.7695312 C219.600052,34.0657567 219.523881,34.3429349 219.371537,34.6010742 C219.219192,34.8592135 219.016069,35.0623365 218.762162,35.2104492 C218.508254,35.3585619 218.233192,35.4326172 217.936966,35.4326172 C217.640741,35.4326172 217.363563,35.3585619 217.105423,35.2104492 C216.847284,35.0623365 216.644161,34.8592135 216.496048,34.6010742 C216.347936,34.3429349 216.27388,34.0657567 216.27388,33.7695312 C216.27388,33.4733058 216.347936,33.1982435 216.496048,32.9443359 C216.644161,32.6904284 216.847284,32.4873054 217.105423,32.3349609 C217.363563,32.1826164 217.640741,32.1064453 217.936966,32.1064453 C218.233192,32.1064453 218.508254,32.1826164 218.762162,32.3349609 L218.762162,32.3349609 Z M219.479447,50.7177734 C219.610632,50.9886081 219.817987,51.1790359 220.101517,51.2890625 C220.385047,51.3990891 220.77225,51.4541016 221.263138,51.4541016 L221.263138,52 C219.671985,51.9322913 218.622516,51.8984375 218.114701,51.8984375 C217.606886,51.8984375 216.557417,51.9322913 214.966263,52 L214.966263,51.4541016 C215.457151,51.4541016 215.844354,51.3990891 216.127884,51.2890625 C216.411414,51.1790359 216.618769,50.9886081 216.749955,50.7177734 C216.88114,50.4469388 216.946732,50.0703149 216.946732,49.5878906 L216.946732,41.4501953 C216.946732,40.6461548 216.800737,40.0621763 216.508744,39.6982422 C216.21675,39.3343081 215.702595,39.1523438 214.966263,39.1523438 L214.966263,38.6064453 C215.507933,38.6572268 216.045362,38.6826172 216.578568,38.6826172 C217.678834,38.6826172 218.580192,38.5641288 219.28267,38.3271484 L219.28267,49.5878906 C219.28267,50.0703149 219.348261,50.4469388 219.479447,50.7177734 L219.479447,50.7177734 Z M233.060661,39 C233.945106,39.4993515 234.643341,40.2758736 235.155388,41.3295898 C235.667435,42.383306 235.923454,43.7141847 235.923454,45.3222656 C235.923454,46.9303466 235.667435,48.2591093 235.155388,49.3085938 C234.643341,50.3580782 233.945106,51.1303686 233.060661,51.6254883 C232.176217,52.1206079 231.162718,52.3681641 230.020134,52.3681641 C228.87755,52.3681641 227.864051,52.1206079 226.979607,51.6254883 C226.095162,51.1303686 225.396927,50.3580782 224.88488,49.3085938 C224.372833,48.2591093 224.116814,46.9303466 224.116814,45.3222656 C224.116814,43.7141847 224.372833,42.383306 224.88488,41.3295898 C225.396927,40.2758736 226.095162,39.4993515 226.979607,39 C227.864051,38.5006485 228.87755,38.2509766 230.020134,38.2509766 C231.162718,38.2509766 232.176217,38.5006485 233.060661,39 L233.060661,39 Z M227.550896,40.3710938 C226.945749,41.4375053 226.643181,43.0878795 226.643181,45.3222656 C226.643181,47.5481882 226.945749,49.1922147 227.550896,50.2543945 C228.156042,51.3165743 228.979113,51.8476562 230.020134,51.8476562 C231.061155,51.8476562 231.884226,51.3165743 232.489372,50.2543945 C233.094519,49.1922147 233.397087,47.5481882 233.397087,45.3222656 C233.397087,43.0878795 233.094519,41.4375053 232.489372,40.3710938 C231.884226,39.3046822 231.061155,38.7714844 230.020134,38.7714844 C228.979113,38.7714844 228.156042,39.3046822 227.550896,40.3710938 L227.550896,40.3710938 Z M245.080352,38.9936523 C245.85477,38.4985327 246.728622,38.2509766 247.701934,38.2509766 C248.912227,38.2509766 249.830512,38.5768197 250.456817,39.2285156 C250.778433,39.5839862 251.009063,40.0219701 251.148712,40.5424805 C251.288361,41.0629909 251.358184,41.763342 251.358184,42.6435547 L251.358184,49.5878906 C251.358184,50.0703149 251.423776,50.4469388 251.554962,50.7177734 C251.686147,50.9886081 251.893502,51.1790359 252.177032,51.2890625 C252.460562,51.3990891 252.847765,51.4541016 253.338653,51.4541016 L253.338653,52 C251.747499,51.9322913 250.706494,51.8984375 250.215606,51.8984375 C249.733182,51.8984375 248.764116,51.9322913 247.30838,52 L247.30838,51.4541016 C247.740022,51.4541016 248.076445,51.3990891 248.317657,51.2890625 C248.558869,51.1790359 248.736602,50.9886081 248.85086,50.7177734 C248.965119,50.4469388 249.022247,50.0703149 249.022247,49.5878906 L249.022247,42.0722656 C249.022247,41.4459604 248.973582,40.9212261 248.876251,40.4980469 C248.77892,40.0748677 248.575797,39.7320977 248.266876,39.4697266 C247.957955,39.2073555 247.507276,39.0761719 246.914825,39.0761719 C246.203884,39.0761719 245.57124,39.2835266 245.016876,39.6982422 C244.462511,40.1129578 244.032991,40.6821253 243.728302,41.4057617 C243.423613,42.1293981 243.27127,42.9313107 243.27127,43.8115234 L243.27127,49.5878906 C243.27127,50.0703149 243.328399,50.4469388 243.442657,50.7177734 C243.556915,50.9886081 243.736764,51.1790359 243.982208,51.2890625 C244.227652,51.3990891 244.56619,51.4541016 244.997833,51.4541016 L244.997833,52 C243.542096,51.9322913 242.568799,51.8984375 242.077911,51.8984375 C241.587023,51.8984375 240.546018,51.9322913 238.954864,52 L238.954864,51.4541016 C239.445752,51.4541016 239.832955,51.3990891 240.116485,51.2890625 C240.400015,51.1790359 240.60737,50.9886081 240.738555,50.7177734 C240.869741,50.4469388 240.935333,50.0703149 240.935333,49.5878906 L240.935333,41.4501953 C240.935333,40.6461548 240.789338,40.0621763 240.497344,39.6982422 C240.205351,39.3343081 239.691196,39.1523438 238.954864,39.1523438 L238.954864,38.6064453 C239.496533,38.6572268 240.033963,38.6826172 240.567169,38.6826172 C241.667435,38.6826172 242.568793,38.5641288 243.27127,38.3271484 L243.27127,41.3867188 C243.702913,40.2864528 244.305934,39.488772 245.080352,38.9936523 L245.080352,38.9936523 Z" id="Media-Installation" fill="#000000"></path>
                </g>
            </g>
        </g>
    </g>
</svg>