<?xml version="1.0" encoding="UTF-8" standalone="no"?>
<svg width="863px" height="466px" viewBox="0 0 863 466" version="1.1" xmlns="http://www.w3.org/2000/svg" xmlns:xlink="http://www.w3.org/1999/xlink" xmlns:sketch="http://www.bohemiancoding.com/sketch/ns">
    <!-- Generator: Sketch 3.5.1 (25234) - http://www.bohemiancoding.com/sketch -->
    <title>work-item-images</title>
    <desc>Created with Sketch.</desc>
    <defs></defs>
    <g id="Welcome" stroke="none" stroke-width="1" fill="none" fill-rule="evenodd" sketch:type="MSPage">
        <g id="work-item-images" sketch:type="MSArtboardGroup" fill="#000000">
            <g id="touch-tone" sketch:type="MSLayerGroup" transform="translate(0.000000, 40.153190)">
                <g id="title" transform="translate(1.523370, 4.548960)">
                    <path d="M24.327475,49.5926958 L24.327475,50.2333208 C23.4524706,50.1708205 22.3066488,50.1395708 20.889975,50.1395708 C19.0670492,50.1395708 17.7024795,50.1708205 16.796225,50.2333208 L16.796225,49.5926958 C17.6087291,49.5614456 18.1894524,49.4624883 18.5384125,49.2958208 C18.8873726,49.1291533 19.06185,48.8322812 19.06185,48.4051958 C19.06185,48.0406106 18.9368513,47.5406156 18.68685,46.9051958 L16.7181,41.6551958 L8.99935,41.6551958 L7.68685,45.0458208 C7.25976453,46.1291595 7.046225,47.0041508 7.046225,47.6708208 C7.046225,48.3479075 7.27278523,48.8322776 7.7259125,49.1239458 C8.17903977,49.4156139 8.87955359,49.5718623 9.827475,49.5926958 L9.827475,50.2333208 C8.60871891,50.1708205 7.37956453,50.1395708 6.139975,50.1395708 C5.18163688,50.1395708 4.38476984,50.1708205 3.74935,50.2333208 L3.74935,49.5926958 C4.81185531,49.3531112 5.65038859,48.4260372 6.264975,46.8114458 L13.796225,27.4208208 L14.31185,27.4208208 L22.108725,47.5458208 C22.6295609,48.8687441 23.3691369,49.5510289 24.327475,49.5926958 L24.327475,49.5926958 Z M12.9056,31.4676958 L9.233725,41.0145708 L16.483725,41.0145708 L12.9056,31.4676958 Z M32.6912535,35.4676958 C33.1443807,34.8426926 33.6834378,34.3270728 34.308441,33.9208208 C34.9334441,33.5145687 35.5948958,33.3114458 36.292816,33.3114458 C36.8553188,33.3114458 37.3579179,33.4234238 37.8006285,33.6473833 C38.243339,33.8713427 38.5896897,34.1760272 38.839691,34.5614458 C39.0896922,34.9468644 39.214691,35.3687351 39.214691,35.8270708 C39.214691,36.3895736 39.048026,36.8661313 38.714691,37.2567583 C38.381356,37.6473852 37.9386521,37.8426958 37.386566,37.8426958 C36.9178136,37.8426958 36.516776,37.6942598 36.183441,37.3973833 C35.850106,37.1005068 35.683441,36.696865 35.683441,36.1864458 C35.683441,35.4885256 36.0480207,34.9104064 36.777191,34.4520708 C36.6313569,34.2437364 36.4074008,34.1395708 36.105316,34.1395708 C35.2615618,34.1395708 34.5011527,34.4624842 33.824066,35.1083208 C33.1469793,35.7541573 32.6157346,36.5510244 32.230316,37.4989458 C31.8448974,38.4468672 31.652191,39.332275 31.652191,40.1551958 L31.652191,46.9364458 C31.652191,47.9260341 31.9334382,48.610923 32.495941,48.9911333 C33.0584438,49.3713435 33.9073936,49.5614458 35.042816,49.5614458 L35.042816,50.2333208 C32.4178028,50.149987 30.7771943,50.1083208 30.120941,50.1083208 C29.5584382,50.1083208 28.2980341,50.149987 26.339691,50.2333208 L26.339691,49.5614458 C26.9438607,49.5614458 27.4204184,49.4937381 27.7693785,49.3583208 C28.1183386,49.2229034 28.3735443,48.9885308 28.5350035,48.6551958 C28.6964626,48.3218608 28.777191,47.8583237 28.777191,47.2645708 L28.777191,37.2489458 C28.777191,36.2593575 28.5975053,35.5406147 28.2381285,35.0926958 C27.8787517,34.6447769 27.2459455,34.4208208 26.339691,34.4208208 L26.339691,33.7489458 C27.006361,33.8114461 27.6678127,33.8426958 28.324066,33.8426958 C29.6782394,33.8426958 30.7876033,33.6968639 31.652191,33.4051958 L31.652191,37.4051958 C31.8917755,36.7385258 32.2381262,36.0926989 32.6912535,35.4676958 L32.6912535,35.4676958 Z M51.7894069,33.7801958 L51.7894069,34.4208208 L47.0550319,34.4208208 L47.0550319,46.8114458 C47.0550319,47.7802006 47.2269052,48.4755062 47.5706569,48.8973833 C47.9144087,49.3192604 48.4248202,49.5301958 49.1019069,49.5301958 C49.7685769,49.5301958 50.3362796,49.2645734 50.8050319,48.7333208 C51.2737843,48.2020681 51.6696137,47.3270769 51.9925319,46.1083208 L52.6175319,46.2645708 C52.096696,49.2125022 50.7112932,50.6864458 48.4612819,50.6864458 C47.7425284,50.6864458 47.1487843,50.6005091 46.6800319,50.4286333 C46.2112796,50.2567574 45.7946171,49.9885309 45.4300319,49.6239458 C44.9716963,49.1551934 44.6487829,48.5796783 44.4612819,47.8973833 C44.273781,47.2150882 44.1800319,46.2958266 44.1800319,45.1395708 L44.1800319,34.4208208 L41.1019069,34.4208208 L41.1019069,33.7801958 L44.1800319,33.7801958 L44.1800319,28.8895708 C45.3779546,28.8583206 46.3362784,28.7072805 47.0550319,28.4364458 L47.0550319,33.7801958 L51.7894069,33.7801958 Z M80.0638389,46.1395708 C80.0638389,47.3479101 80.1367548,48.7124798 80.2825889,50.2333208 C78.834665,50.1708205 76.3919811,50.1395708 72.9544639,50.1395708 C68.8606934,50.1395708 65.7669744,50.1708205 63.6732139,50.2333208 L63.6732139,49.5926958 C64.4440511,49.5614456 65.0039413,49.4781131 65.3529014,49.3426958 C65.7018615,49.2072784 65.9414424,48.9572809 66.0716514,48.5926958 C66.2018604,48.2281106 66.2669639,47.6447831 66.2669639,46.8426958 L66.2669639,30.9676958 C66.2669639,30.1656084 66.2018604,29.5822809 66.0716514,29.2176958 C65.9414424,28.8531106 65.7018615,28.6031131 65.3529014,28.4676958 C65.0039413,28.3322784 64.4440511,28.2489459 63.6732139,28.2176958 L63.6732139,27.5770708 C65.7669744,27.6395711 68.8606934,27.6708208 72.9544639,27.6708208 C76.0898962,27.6708208 78.3190406,27.6395711 79.6419639,27.5770708 C79.4961298,28.9729111 79.4232139,30.2333151 79.4232139,31.3583208 C79.4232139,32.1916583 79.4544636,32.85311 79.5169639,33.3426958 L78.7825889,33.3426958 C78.6263381,31.9572722 78.4310276,30.9260325 78.1966514,30.2489458 C77.9622752,29.5718591 77.5664458,29.0796765 77.0091514,28.7723833 C76.4518569,28.4650901 75.6107195,28.3114458 74.4857139,28.3114458 L71.8294639,28.3114458 C71.0586267,28.3114458 70.4987365,28.3739451 70.1497764,28.4989458 C69.8008163,28.6239464 69.5612354,28.8661315 69.4310264,29.2255083 C69.3008174,29.5848851 69.2357139,30.1656084 69.2357139,30.9676958 L69.2357139,38.5145708 L71.3607139,38.5145708 C72.4336359,38.5145708 73.1471705,38.1942615 73.5013389,37.5536333 C73.8555073,36.9130051 74.0742551,36.2593658 74.1575889,35.5926958 C74.2409226,34.9260258 74.2982137,34.4937384 74.3294639,34.2958208 L75.0638389,34.2958208 C74.9909219,35.3479094 74.9544639,36.3531076 74.9544639,37.3114458 L74.9700889,38.8426958 C74.9700889,39.9260345 75.0325883,41.4416444 75.1575889,43.3895708 L74.4232139,43.3895708 C74.4023805,43.2437367 74.3424852,42.7281169 74.2435264,41.8426958 C74.1445676,40.9572747 73.855508,40.2880105 73.3763389,39.8348833 C72.8971698,39.381756 72.2253015,39.1551958 71.3607139,39.1551958 L69.2357139,39.1551958 L69.2357139,46.8426958 C69.2357139,47.6447831 69.3008174,48.2255065 69.4310264,48.5848833 C69.5612354,48.9442601 69.8008163,49.1864451 70.1497764,49.3114458 C70.4987365,49.4364464 71.0586267,49.4989458 71.8294639,49.4989458 L74.1732139,49.4989458 C75.5065539,49.4989458 76.5195646,49.3218642 77.2122764,48.9676958 C77.9049882,48.6135273 78.4049832,48.0458247 78.7122764,47.2645708 C79.0195696,46.4833169 79.2565464,45.337495 79.4232139,43.8270708 L80.1575889,43.8270708 C80.0950886,44.3999903 80.0638389,45.1708159 80.0638389,46.1395708 L80.0638389,46.1395708 Z M98.2948049,49.1161333 C98.5656395,49.3400927 98.9041778,49.4885287 99.3104299,49.5614458 L99.3104299,50.2333208 C98.2270911,50.149987 97.4718903,50.1083208 97.0448049,50.1083208 C96.3156345,50.1083208 95.0552305,50.149987 93.2635549,50.2333208 L93.2635549,49.5614458 C93.6073066,49.5614458 93.9041786,49.4937381 94.1541799,49.3583208 C94.4041811,49.2229034 94.5291799,49.0510301 94.5291799,48.8426958 C94.5291799,48.7385286 94.4823053,48.6135298 94.3885549,48.4676958 L90.7479299,43.1551958 L88.4041799,46.2020708 C87.8104269,46.9624912 87.5135549,47.6031098 87.5135549,48.1239458 C87.5135549,48.9989501 88.3000053,49.4885286 89.8729299,49.5926958 L89.8729299,50.2333208 C88.7479242,50.1708205 87.5343947,50.1395708 86.2323049,50.1395708 C85.2843835,50.1395708 84.4718916,50.1708205 83.7948049,50.2333208 L83.7948049,49.5926958 C84.2114736,49.5406122 84.6385527,49.3479058 85.0760549,49.0145708 C85.513557,48.6812358 86.0239686,48.129158 86.6073049,47.3583208 L90.2948049,42.4989458 L85.8416799,36.0301958 C85.5500117,35.6031103 85.3052225,35.282801 85.1073049,35.0692583 C84.9093872,34.8557155 84.7192849,34.7020712 84.5369924,34.6083208 C84.3546998,34.5145703 84.1281395,34.4520709 83.8573049,34.4208208 L83.8573049,33.7489458 C84.9823105,33.8322795 85.7427195,33.8739458 86.1385549,33.8739458 C86.8573085,33.8739458 88.1125042,33.8322795 89.9041799,33.7489458 L89.9041799,34.4208208 C89.5604281,34.4208208 89.2661603,34.4859243 89.0213674,34.6161333 C88.7765745,34.7463423 88.6541799,34.9208197 88.6541799,35.1395708 C88.6541799,35.2645714 88.6958461,35.3895701 88.7791799,35.5145708 L92.2010549,40.4989458 L94.4198049,37.4051958 C95.0656414,36.4989412 95.3885549,35.827073 95.3885549,35.3895708 C95.3885549,35.0874859 95.242723,34.8557174 94.9510549,34.6942583 C94.6593867,34.5327991 94.1958497,34.4312376 93.5604299,34.3895708 L93.5604299,33.7489458 C94.664602,33.8114461 95.5604264,33.8426958 96.2479299,33.8426958 C97.1854345,33.8426958 97.9927181,33.8114461 98.6698049,33.7489458 L98.6698049,34.3895708 C97.8052172,34.493738 96.8677266,35.2437305 95.8573049,36.6395708 L92.6229299,41.1083208 L97.3260549,47.9676958 C97.7010567,48.5093651 98.0239702,48.8921738 98.2948049,49.1161333 L98.2948049,49.1161333 Z M109.119521,34.2176958 C110.015359,33.6135261 111.036182,33.3114458 112.182021,33.3114458 C113.317443,33.3114458 114.335662,33.6187344 115.236708,34.2333208 C116.137755,34.8479072 116.846081,35.7541481 117.361708,36.9520708 C117.877336,38.1499934 118.135146,39.5822708 118.135146,41.2489458 C118.135146,42.8843706 117.874732,44.4182094 117.353896,45.8505083 C116.83306,47.2828071 116.023172,48.446858 114.924208,49.3426958 C113.825245,50.2385336 112.452862,50.6864458 110.807021,50.6864458 C109.994517,50.6864458 109.257545,50.5275932 108.596083,50.2098833 C107.934622,49.8921733 107.421606,49.4729067 107.057021,48.9520708 L107.057021,53.0458208 C107.057021,53.9104084 107.312227,54.5119649 107.822646,54.8505083 C108.333065,55.1890516 109.103891,55.3583208 110.135146,55.3583208 L110.135146,56.0301958 C109.864311,56.0197791 109.257546,55.9937376 108.314833,55.9520708 C107.37212,55.9104039 106.442442,55.8895708 105.525771,55.8895708 C104.848684,55.8895708 104.150774,55.9104039 103.432021,55.9520708 C102.713267,55.9937376 102.260147,56.0197791 102.072646,56.0301958 L102.072646,55.3583208 C102.8539,55.3583208 103.400769,55.215093 103.713271,54.9286333 C104.025772,54.6421735 104.182021,54.1239495 104.182021,53.3739458 L104.182021,37.2489458 C104.182021,36.2593575 104.002335,35.5406147 103.642958,35.0926958 C103.283582,34.6447769 102.650775,34.4208208 101.744521,34.4208208 L101.744521,33.7489458 C102.411191,33.8114461 103.072643,33.8426958 103.728896,33.8426958 C105.083069,33.8426958 106.192433,33.6968639 107.057021,33.4051958 L107.057021,36.7801958 C107.53619,35.6760236 108.223683,34.8218655 109.119521,34.2176958 L109.119521,34.2176958 Z M108.385146,49.3973833 C108.958065,49.7671768 109.645558,49.9520708 110.447646,49.9520708 C113.499744,49.9520708 115.025771,47.19689 115.025771,41.6864458 C115.025771,36.7385044 113.7862,34.2645708 111.307021,34.2645708 C110.338266,34.2645708 109.471087,34.6109215 108.705458,35.3036333 C107.93983,35.9963451 107.390356,36.9989392 107.057021,38.3114458 L107.057021,47.8895708 C107.369522,48.5249906 107.812226,49.0275898 108.385146,49.3973833 L108.385146,49.3973833 Z M134.561424,48.4911333 C134.014547,49.1421782 133.332262,49.6708187 132.514549,50.0770708 C131.696837,50.4833228 130.782784,50.6864458 129.772362,50.6864458 C128.251521,50.6864458 126.93643,50.3400951 125.827049,49.6473833 C124.717669,48.9546715 123.871323,47.9807229 123.287987,46.7255083 C122.704651,45.4702937 122.412987,44.0249956 122.412987,42.3895708 C122.412987,40.5353948 122.709859,38.9260359 123.303612,37.5614458 C123.897365,36.1968556 124.738502,35.1473869 125.827049,34.4130083 C126.915596,33.6786296 128.189021,33.3114458 129.647362,33.3114458 C131.564038,33.3114458 133.040586,33.8921691 134.077049,35.0536333 C135.113513,36.2150974 135.631737,37.9781006 135.631737,40.3426958 L125.631737,40.3426958 C125.55882,40.8947819 125.522362,41.5770667 125.522362,42.3895708 C125.522362,43.7958278 125.75413,45.0249822 126.217674,46.0770708 C126.681218,47.1291594 127.287983,47.936443 128.037987,48.4989458 C128.787991,49.0614486 129.579649,49.3426958 130.412987,49.3426958 C132.558831,49.3426958 134.126524,48.2749981 135.116112,46.1395708 L135.756737,46.3895708 C135.506736,47.1395745 135.108302,47.8400883 134.561424,48.4911333 L134.561424,48.4911333 Z M132.287987,36.8114458 C132.069236,35.9260247 131.725489,35.2229067 131.256737,34.7020708 C130.787984,34.1812348 130.209865,33.9208208 129.522362,33.9208208 C128.866109,33.9208208 128.261948,34.1317562 127.709862,34.5536333 C127.157776,34.9755104 126.691635,35.6213373 126.311424,36.4911333 C125.931214,37.3609293 125.689029,38.4416476 125.584862,39.7333208 L132.553612,39.7333208 C132.595279,38.6708155 132.506738,37.6968669 132.287987,36.8114458 L132.287987,36.8114458 Z M145.714265,35.4676958 C146.167393,34.8426926 146.70645,34.3270728 147.331453,33.9208208 C147.956456,33.5145687 148.617908,33.3114458 149.315828,33.3114458 C149.878331,33.3114458 150.38093,33.4234238 150.82364,33.6473833 C151.266351,33.8713427 151.612702,34.1760272 151.862703,34.5614458 C152.112704,34.9468644 152.237703,35.3687351 152.237703,35.8270708 C152.237703,36.3895736 152.071038,36.8661313 151.737703,37.2567583 C151.404368,37.6473852 150.961664,37.8426958 150.409578,37.8426958 C149.940825,37.8426958 149.539788,37.6942598 149.206453,37.3973833 C148.873118,37.1005068 148.706453,36.696865 148.706453,36.1864458 C148.706453,35.4885256 149.071032,34.9104064 149.800203,34.4520708 C149.654369,34.2437364 149.430413,34.1395708 149.128328,34.1395708 C148.284574,34.1395708 147.524164,34.4624842 146.847078,35.1083208 C146.169991,35.7541573 145.638746,36.5510244 145.253328,37.4989458 C144.867909,38.4468672 144.675203,39.332275 144.675203,40.1551958 L144.675203,46.9364458 C144.675203,47.9260341 144.95645,48.610923 145.518953,48.9911333 C146.081456,49.3713435 146.930405,49.5614458 148.065828,49.5614458 L148.065828,50.2333208 C145.440815,50.149987 143.800206,50.1083208 143.143953,50.1083208 C142.58145,50.1083208 141.321046,50.149987 139.362703,50.2333208 L139.362703,49.5614458 C139.966872,49.5614458 140.44343,49.4937381 140.79239,49.3583208 C141.14135,49.2229034 141.396556,48.9885308 141.558015,48.6551958 C141.719474,48.3218608 141.800203,47.8583237 141.800203,47.2645708 L141.800203,37.2489458 C141.800203,36.2593575 141.620517,35.5406147 141.26114,35.0926958 C140.901763,34.6447769 140.268957,34.4208208 139.362703,34.4208208 L139.362703,33.7489458 C140.029373,33.8114461 140.690824,33.8426958 141.347078,33.8426958 C142.701251,33.8426958 143.810615,33.6968639 144.675203,33.4051958 L144.675203,37.4051958 C144.914787,36.7385258 145.261138,36.0926989 145.714265,35.4676958 L145.714265,35.4676958 Z M159.578044,26.0301958 C159.890545,26.2176967 160.140543,26.4676942 160.328044,26.7801958 C160.515545,27.0926973 160.609294,27.4312356 160.609294,27.7958208 C160.609294,28.1604059 160.515545,28.5015483 160.328044,28.8192583 C160.140543,29.1369682 159.890545,29.3869657 159.578044,29.5692583 C159.265542,29.7515508 158.927004,29.8426958 158.562419,29.8426958 C158.197834,29.8426958 157.856691,29.7515508 157.538981,29.5692583 C157.221271,29.3869657 156.971274,29.1369682 156.788981,28.8192583 C156.606689,28.5015483 156.515544,28.1604059 156.515544,27.7958208 C156.515544,27.4312356 156.606689,27.0926973 156.788981,26.7801958 C156.971274,26.4676942 157.221271,26.2176967 157.538981,26.0301958 C157.856691,25.8426948 158.197834,25.7489458 158.562419,25.7489458 C158.927004,25.7489458 159.265542,25.8426948 159.578044,26.0301958 L159.578044,26.0301958 Z M160.460856,48.6551958 C160.622315,48.9885308 160.877521,49.2229034 161.226481,49.3583208 C161.575441,49.4937381 162.051999,49.5614458 162.656169,49.5614458 L162.656169,50.2333208 C160.697826,50.149987 159.406172,50.1083208 158.781169,50.1083208 C158.156166,50.1083208 156.864512,50.149987 154.906169,50.2333208 L154.906169,49.5614458 C155.510338,49.5614458 155.986896,49.4937381 156.335856,49.3583208 C156.684816,49.2229034 156.940022,48.9885308 157.101481,48.6551958 C157.26294,48.3218608 157.343669,47.8583237 157.343669,47.2645708 L157.343669,37.2489458 C157.343669,36.2593575 157.163983,35.5406147 156.804606,35.0926958 C156.445229,34.6447769 155.812423,34.4208208 154.906169,34.4208208 L154.906169,33.7489458 C155.572839,33.8114461 156.23429,33.8426958 156.890544,33.8426958 C158.244717,33.8426958 159.354081,33.6968639 160.218669,33.4051958 L160.218669,47.2645708 C160.218669,47.8583237 160.299397,48.3218608 160.460856,48.6551958 L160.460856,48.6551958 Z M190.410572,48.6551958 C190.572031,48.9885308 190.827237,49.2229034 191.176197,49.3583208 C191.525157,49.4937381 192.001715,49.5614458 192.605885,49.5614458 L192.605885,50.2333208 C190.647542,50.149987 189.366304,50.1083208 188.762135,50.1083208 C188.168382,50.1083208 186.975685,50.149987 185.18401,50.2333208 L185.18401,49.5614458 C185.715262,49.5614458 186.129321,49.4937381 186.426197,49.3583208 C186.723074,49.2229034 186.941822,48.9885308 187.082447,48.6551958 C187.223073,48.3218608 187.293385,47.8583237 187.293385,47.2645708 L187.293385,38.0145708 C187.293385,37.2020667 187.24651,36.5432191 187.15276,36.0380083 C187.059009,35.5327974 186.835053,35.1213432 186.480885,34.8036333 C186.126716,34.4859233 185.585055,34.3270708 184.855885,34.3270708 C184.043381,34.3270708 183.309013,34.5822766 182.65276,35.0926958 C181.996506,35.603115 181.480887,36.3010247 181.105885,37.1864458 C180.730883,38.0718669 180.543385,39.0510237 180.543385,40.1239458 L180.543385,47.2645708 C180.543385,47.8583237 180.624113,48.3218608 180.785572,48.6551958 C180.947031,48.9885308 181.199633,49.2229034 181.543385,49.3583208 C181.887136,49.4937381 182.36109,49.5614458 182.96526,49.5614458 L182.96526,50.2333208 C181.006917,50.149987 179.730888,50.1083208 179.137135,50.1083208 C178.532965,50.1083208 177.33506,50.149987 175.543385,50.2333208 L175.543385,49.5614458 C176.074637,49.5614458 176.4913,49.4937381 176.793385,49.3583208 C177.09547,49.2229034 177.314217,48.9885308 177.449635,48.6551958 C177.585052,48.3218608 177.65276,47.8583237 177.65276,47.2645708 L177.65276,38.0145708 C177.65276,37.2020667 177.605885,36.5432191 177.512135,36.0380083 C177.418384,35.5327974 177.194428,35.1213432 176.84026,34.8036333 C176.486091,34.4859233 175.949638,34.3270708 175.230885,34.3270708 C174.407964,34.3270708 173.668388,34.5848807 173.012135,35.1005083 C172.355881,35.6161358 171.840262,36.3192538 171.46526,37.2098833 C171.090258,38.1005127 170.90276,39.0822737 170.90276,40.1551958 L170.90276,47.2645708 C170.90276,47.8583237 170.973072,48.3218608 171.113697,48.6551958 C171.254323,48.9885308 171.475675,49.2229034 171.77776,49.3583208 C172.079845,49.4937381 172.496507,49.5614458 173.02776,49.5614458 L173.02776,50.2333208 C171.236084,50.149987 170.038179,50.1083208 169.43401,50.1083208 C168.82984,50.1083208 167.548603,50.149987 165.59026,50.2333208 L165.59026,49.5614458 C166.194429,49.5614458 166.670987,49.4937381 167.019947,49.3583208 C167.368907,49.2229034 167.624113,48.9885308 167.785572,48.6551958 C167.947031,48.3218608 168.02776,47.8583237 168.02776,47.2645708 L168.02776,37.2489458 C168.02776,36.2593575 167.848074,35.5406147 167.488697,35.0926958 C167.12932,34.6447769 166.496514,34.4208208 165.59026,34.4208208 L165.59026,33.7489458 C166.25693,33.8114461 166.918381,33.8426958 167.574635,33.8426958 C168.928808,33.8426958 170.038172,33.6968639 170.90276,33.4051958 L170.90276,37.1708208 C171.423596,35.8583142 172.152755,34.8869698 173.09026,34.2567583 C174.027764,33.6265468 175.048588,33.3114458 176.15276,33.3114458 C177.600684,33.3114458 178.710048,33.7124834 179.480885,34.5145708 C180.012137,35.097907 180.340259,35.9572734 180.46526,37.0926958 C180.996512,35.7489391 181.73088,34.7828029 182.668385,34.1942583 C183.605889,33.6057137 184.647546,33.3114458 185.793385,33.3114458 C187.241309,33.3114458 188.350673,33.7124834 189.12151,34.5145708 C189.506928,34.9416562 189.777759,35.4859216 189.93401,36.1473833 C190.090261,36.8088449 190.168385,37.6656072 190.168385,38.7176958 L190.168385,47.2645708 C190.168385,47.8583237 190.249113,48.3218608 190.410572,48.6551958 L190.410572,48.6551958 Z M208.016538,48.4911333 C207.46966,49.1421782 206.787376,49.6708187 205.969663,50.0770708 C205.151951,50.4833228 204.237897,50.6864458 203.227476,50.6864458 C201.706635,50.6864458 200.391544,50.3400951 199.282163,49.6473833 C198.172783,48.9546715 197.326437,47.9807229 196.743101,46.7255083 C196.159764,45.4702937 195.868101,44.0249956 195.868101,42.3895708 C195.868101,40.5353948 196.164973,38.9260359 196.758726,37.5614458 C197.352479,36.1968556 198.193616,35.1473869 199.282163,34.4130083 C200.37071,33.6786296 201.644135,33.3114458 203.102476,33.3114458 C205.019152,33.3114458 206.4957,33.8921691 207.532163,35.0536333 C208.568627,36.2150974 209.086851,37.9781006 209.086851,40.3426958 L199.086851,40.3426958 C199.013934,40.8947819 198.977476,41.5770667 198.977476,42.3895708 C198.977476,43.7958278 199.209244,45.0249822 199.672788,46.0770708 C200.136332,47.1291594 200.743097,47.936443 201.493101,48.4989458 C202.243104,49.0614486 203.034763,49.3426958 203.868101,49.3426958 C206.013945,49.3426958 207.581637,48.2749981 208.571226,46.1395708 L209.211851,46.3895708 C208.961849,47.1395745 208.563416,47.8400883 208.016538,48.4911333 L208.016538,48.4911333 Z M205.743101,36.8114458 C205.52435,35.9260247 205.180603,35.2229067 204.711851,34.7020708 C204.243098,34.1812348 203.664979,33.9208208 202.977476,33.9208208 C202.321222,33.9208208 201.717062,34.1317562 201.164976,34.5536333 C200.61289,34.9755104 200.146748,35.6213373 199.766538,36.4911333 C199.386328,37.3609293 199.144143,38.4416476 199.039976,39.7333208 L206.008726,39.7333208 C206.050393,38.6708155 205.961852,37.6968669 205.743101,36.8114458 L205.743101,36.8114458 Z M220.356879,34.2255083 C221.310009,33.6161302 222.385519,33.3114458 223.583442,33.3114458 C225.073032,33.3114458 226.203229,33.7124834 226.974067,34.5145708 C227.369902,34.952073 227.653753,35.4911301 227.825629,36.1317583 C227.997505,36.7723865 228.083442,37.634357 228.083442,38.7176958 L228.083442,47.2645708 C228.083442,47.8583237 228.16417,48.3218608 228.325629,48.6551958 C228.487088,48.9885308 228.742294,49.2229034 229.091254,49.3583208 C229.440214,49.4937381 229.916772,49.5614458 230.520942,49.5614458 L230.520942,50.2333208 C228.562599,50.149987 227.281361,50.1083208 226.677192,50.1083208 C226.083439,50.1083208 224.890742,50.149987 223.099067,50.2333208 L223.099067,49.5614458 C223.630319,49.5614458 224.044378,49.4937381 224.341254,49.3583208 C224.638131,49.2229034 224.856878,48.9885308 224.997504,48.6551958 C225.13813,48.3218608 225.208442,47.8583237 225.208442,47.2645708 L225.208442,38.0145708 C225.208442,37.2437336 225.148546,36.5979067 225.028754,36.0770708 C224.908962,35.5562348 224.658964,35.1343641 224.278754,34.8114458 C223.898544,34.4885275 223.343862,34.3270708 222.614692,34.3270708 C221.739687,34.3270708 220.961049,34.5822766 220.278754,35.0926958 C219.596459,35.603115 219.067819,36.3036288 218.692817,37.1942583 C218.317815,38.0848877 218.130317,39.071857 218.130317,40.1551958 L218.130317,47.2645708 C218.130317,47.8583237 218.200628,48.3218608 218.341254,48.6551958 C218.48188,48.9885308 218.703232,49.2229034 219.005317,49.3583208 C219.307402,49.4937381 219.724064,49.5614458 220.255317,49.5614458 L220.255317,50.2333208 C218.463641,50.149987 217.265736,50.1083208 216.661567,50.1083208 C216.057397,50.1083208 214.77616,50.149987 212.817817,50.2333208 L212.817817,49.5614458 C213.421986,49.5614458 213.898544,49.4937381 214.247504,49.3583208 C214.596464,49.2229034 214.85167,48.9885308 215.013129,48.6551958 C215.174588,48.3218608 215.255317,47.8583237 215.255317,47.2645708 L215.255317,37.2489458 C215.255317,36.2593575 215.075631,35.5406147 214.716254,35.0926958 C214.356877,34.6447769 213.724071,34.4208208 212.817817,34.4208208 L212.817817,33.7489458 C213.484487,33.8114461 214.145938,33.8426958 214.802192,33.8426958 C216.156365,33.8426958 217.265729,33.6968639 218.130317,33.4051958 L218.130317,37.1708208 C218.661569,35.8166473 219.403749,34.8348863 220.356879,34.2255083 L220.356879,34.2255083 Z M243.142533,33.7801958 L243.142533,34.4208208 L238.408158,34.4208208 L238.408158,46.8114458 C238.408158,47.7802006 238.580031,48.4755062 238.923783,48.8973833 C239.267534,49.3192604 239.777946,49.5301958 240.455033,49.5301958 C241.121703,49.5301958 241.689405,49.2645734 242.158158,48.7333208 C242.62691,48.2020681 243.022739,47.3270769 243.345658,46.1083208 L243.970658,46.2645708 C243.449822,49.2125022 242.064419,50.6864458 239.814408,50.6864458 C239.095654,50.6864458 238.50191,50.6005091 238.033158,50.4286333 C237.564405,50.2567574 237.147743,49.9885309 236.783158,49.6239458 C236.324822,49.1551934 236.001909,48.5796783 235.814408,47.8973833 C235.626907,47.2150882 235.533158,46.2958266 235.533158,45.1395708 L235.533158,34.4208208 L232.455033,34.4208208 L232.455033,33.7801958 L235.533158,33.7801958 L235.533158,28.8895708 C236.73108,28.8583206 237.689404,28.7072805 238.408158,28.4364458 L238.408158,33.7801958 L243.142533,33.7801958 Z" id="Art-Experiment" sketch:type="MSShapeGroup"></path>
                    <text id="November-2015" sketch:type="MSTextLayer" font-family="Playfair Display" font-size="16" font-weight="normal" letter-spacing="0.654545486">
                        <tspan x="5" y="86">November 2015</tspan>
                    </text>
                </g>
            </g>
        </g>
    </g>
</svg>