<?xml version="1.0" encoding="UTF-8" standalone="no"?>
<svg width="1020px" height="550px" viewBox="0 0 1020 550" version="1.1" xmlns="http://www.w3.org/2000/svg" xmlns:xlink="http://www.w3.org/1999/xlink" xmlns:sketch="http://www.bohemiancoding.com/sketch/ns">
    <!-- Generator: Sketch 3.4.4 (17249) - http://www.bohemiancoding.com/sketch -->
    <title>Artboard 7</title>
    <desc>Created with Sketch.</desc>
    <defs></defs>
    <g id="Welcome" stroke="none" stroke-width="1" fill="none" fill-rule="evenodd" sketch:type="MSPage">
        <g id="Artboard-7" sketch:type="MSArtboardGroup">
            <g id="waitwhat" sketch:type="MSLayerGroup" transform="translate(0.000000, 62.000000)">
                <g id="Rectangle-81-+-kelseylegault.com/wa-+-media-installation-Copy" transform="translate(0.000000, 49.000000)" sketch:type="MSShapeGroup">
                    <rect id="Rectangle-81" stroke="#000000" fill="#FFFFFF" x="0.530604539" y="0" width="300" height="110"></rect>
                    <path d="M29.888,74.952 L28.896,75.784 L28.592,79 L27.456,79 L28.48,68.104 L29.616,68.104 L29.024,74.424 L32.64,71.352 L34.224,71.352 L30.784,74.216 L33.664,79 L32.256,79 L29.888,74.952 Z M39.124,78.152 C40.0626713,78.152 40.6493321,77.6880046 40.884,76.76 L42.052,76.76 C41.8706657,77.5280038 41.5080027,78.1226646 40.964,78.544 C40.4199973,78.9653354 39.7746704,79.176 39.028,79.176 C38.1106621,79.176 37.4013358,78.8186702 36.9,78.104 C36.366664,77.3573296 36.1639993,76.3866726 36.292,75.192 C36.4200006,73.9546605 36.8093301,72.973337 37.46,72.248 C38.1000032,71.522663 38.8733288,71.16 39.78,71.16 C40.7933384,71.16 41.5079979,71.5919957 41.924,72.456 C42.3080019,73.2346706 42.3720013,74.2319939 42.116,75.448 L37.396,75.448 C37.2893328,76.6960062 37.5879965,77.5279979 38.292,77.944 C38.5160011,78.0826674 38.7933317,78.152 39.124,78.152 L39.124,78.152 Z M40.5,72.36 C40.2866656,72.2319994 40.0253349,72.168 39.716,72.168 C39.4066651,72.168 39.1293345,72.2293327 38.884,72.352 C38.6386654,72.4746673 38.4200009,72.6426656 38.228,72.856 C37.8546648,73.2826688 37.6146672,73.8266634 37.508,74.488 L41.188,74.488 C41.3053339,73.421328 41.0760029,72.7120018 40.5,72.36 L40.5,72.36 Z M45.816,68.104 L46.952,68.104 L45.928,79 L44.792,79 L45.816,68.104 Z M50.8439999,71.72 C51.3666692,71.3466648 52.0386625,71.16 52.8599999,71.16 C53.6813374,71.16 54.3053311,71.3519981 54.7319999,71.736 C55.1586687,72.1200019 55.3560001,72.6053304 55.3239999,73.192 L54.2199999,73.192 C54.1879998,72.4986632 53.6866714,72.152 52.7159999,72.152 C52.2466642,72.152 51.8760013,72.2693322 51.6039999,72.504 C51.3319986,72.7386678 51.1826667,72.9919986 51.1559999,73.264 C51.1293331,73.5360014 51.203999,73.7653324 51.3799999,73.952 C51.5560008,74.1386676 51.8466646,74.3013326 52.2519999,74.44 L53.5799999,74.952 C54.1560028,75.1546677 54.5853318,75.4133318 54.8679999,75.728 C55.150668,76.0426682 55.2653335,76.4506642 55.2119999,76.952 C55.1479996,77.560003 54.8493359,78.0719979 54.3159999,78.488 C53.739997,78.946669 53.0013378,79.176 52.0999999,79.176 C51.1986621,79.176 50.5133356,78.9493356 50.0439999,78.496 C49.5746642,78.0426644 49.361333,77.4586702 49.4039999,76.744 L50.4919999,76.744 C50.4706665,77.2240024 50.614665,77.5839988 50.9239999,77.824 C51.2333348,78.0640012 51.6413307,78.184 52.1479999,78.184 C52.6546691,78.184 53.0759982,78.0666678 53.4119999,77.832 C53.7480016,77.5973322 53.9319998,77.317335 53.9639999,76.992 C53.9960001,76.666665 53.9240008,76.4186675 53.7479999,76.248 C53.571999,76.0773325 53.276002,75.9280006 52.8599999,75.8 L51.5639999,75.304 C50.4013274,74.9199981 49.8679994,74.2266717 49.9639999,73.224 C50.0280002,72.5946635 50.3213306,72.0933352 50.8439999,71.72 L50.8439999,71.72 Z M60.8319999,78.152 C61.7706713,78.152 62.3573321,77.6880046 62.5919999,76.76 L63.7599999,76.76 C63.5786657,77.5280038 63.2160026,78.1226646 62.6719999,78.544 C62.1279972,78.9653354 61.4826703,79.176 60.7359999,79.176 C59.818662,79.176 59.1093357,78.8186702 58.6079999,78.104 C58.0746639,77.3573296 57.8719993,76.3866726 57.9999999,75.192 C58.1280005,73.9546605 58.51733,72.973337 59.1679999,72.248 C59.8080031,71.522663 60.5813287,71.16 61.4879999,71.16 C62.5013383,71.16 63.2159978,71.5919957 63.6319999,72.456 C64.0160018,73.2346706 64.0800012,74.2319939 63.8239999,75.448 L59.1039999,75.448 C58.9973327,76.6960062 59.2959964,77.5279979 59.9999999,77.944 C60.224001,78.0826674 60.5013316,78.152 60.8319999,78.152 L60.8319999,78.152 Z M62.2079999,72.36 C61.9946655,72.2319994 61.7333348,72.168 61.4239999,72.168 C61.114665,72.168 60.8373345,72.2293327 60.5919999,72.352 C60.3466653,72.4746673 60.1280009,72.6426656 59.9359999,72.856 C59.5626647,73.2826688 59.3226671,73.8266634 59.2159999,74.488 L62.8959999,74.488 C63.0133338,73.421328 62.7840028,72.7120018 62.2079999,72.36 L62.2079999,72.36 Z M64.9159999,81.224 C65.3426687,81.6293354 65.8119973,81.832 66.3239999,81.832 C67.0173367,81.832 67.5933309,81.1493402 68.0519999,79.784 L68.3399999,79 L66.2439999,71.352 L67.5079999,71.352 L69.0119999,77.432 L71.2199999,71.352 L72.3719999,71.352 L68.9319999,80.52 C68.6333317,81.2986706 68.2840019,81.8959979 67.8839999,82.312 C67.4839979,82.7280021 67.0066693,82.936 66.4519999,82.936 C65.8973304,82.936 65.3480026,82.7493352 64.8039999,82.376 L64.9159999,81.224 Z M75.3999999,68.104 L76.5359999,68.104 L75.5119999,79 L74.3759999,79 L75.3999999,68.104 Z M81.9479998,78.152 C82.8866712,78.152 83.473332,77.6880046 83.7079998,76.76 L84.8759998,76.76 C84.6946656,77.5280038 84.3320026,78.1226646 83.7879998,78.544 C83.2439971,78.9653354 82.5986702,79.176 81.8519998,79.176 C80.9346619,79.176 80.2253357,78.8186702 79.7239998,78.104 C79.1906638,77.3573296 78.9879992,76.3866726 79.1159998,75.192 C79.2440005,73.9546605 79.6333299,72.973337 80.2839998,72.248 C80.924003,71.522663 81.6973286,71.16 82.6039998,71.16 C83.6173382,71.16 84.3319978,71.5919957 84.7479998,72.456 C85.1320018,73.2346706 85.1960011,74.2319939 84.9399998,75.448 L80.2199998,75.448 C80.1133326,76.6960062 80.4119963,77.5279979 81.1159998,77.944 C81.340001,78.0826674 81.6173315,78.152 81.9479998,78.152 L81.9479998,78.152 Z M83.3239998,72.36 C83.1106654,72.2319994 82.8493347,72.168 82.5399998,72.168 C82.230665,72.168 81.9533344,72.2293327 81.7079998,72.352 C81.4626653,72.4746673 81.2440008,72.6426656 81.0519998,72.856 C80.6786646,73.2826688 80.438667,73.8266634 80.3319998,74.488 L84.0119998,74.488 C84.1293338,73.421328 83.9000027,72.7120018 83.3239998,72.36 L83.3239998,72.36 Z M92.7679998,71.736 C92.8853337,71.1706638 93.1306646,70.717335 93.5039998,70.376 C93.877335,70.034665 94.3466636,69.864 94.9119998,69.864 L94.6719998,71.112 C93.8293289,71.112 93.354667,71.5013294 93.2479998,72.28 C93.546668,72.7600024 93.6693334,73.2613307 93.6159998,73.784 C93.5626662,74.3066693 93.4480007,74.7413316 93.2719998,75.088 C93.0959989,75.4346684 92.8693345,75.7359987 92.5919998,75.992 C92.0159969,76.5040026 91.3280038,76.76 90.5279998,76.76 C89.9839971,76.76 89.5146684,76.6373346 89.1199998,76.392 C88.9173321,76.4346669 88.733334,76.5333326 88.5679998,76.688 C88.4026656,76.8426674 88.304,77.0479987 88.2719998,77.304 C88.2186662,77.8800029 88.6186622,78.168 89.4719998,78.168 L92.1439998,78.168 C92.784003,78.168 93.279998,78.3199985 93.6319998,78.624 C93.9840016,78.9280015 94.1333334,79.3519973 94.0799998,79.896 C94.0159995,80.696004 93.5946704,81.3946637 92.8159998,81.992 C92.0053291,82.6213365 90.9920059,82.936 89.7759998,82.936 C88.741328,82.936 87.9200028,82.7013357 87.3119998,82.232 C86.7146635,81.7626643 86.4479995,81.1813368 86.5119998,80.488 C86.544,80.029331 86.6986651,79.6560014 86.9759998,79.368 C87.2533345,79.0799986 87.5999977,78.8773339 88.0159998,78.76 C87.7493318,78.6106659 87.5520004,78.4160012 87.4239998,78.176 C87.2959992,77.9359988 87.2479996,77.653335 87.2799998,77.328 C87.312,77.002665 87.4533319,76.7146679 87.7039998,76.464 C87.9546677,76.2133321 88.2506648,76.0453338 88.5919998,75.96 C88.1226641,75.426664 87.930666,74.7546707 88.0159998,73.944 C88.1013336,73.1119958 88.4319969,72.4400026 89.0079998,71.928 C89.5840027,71.4159974 90.2426628,71.16 90.9839998,71.16 C91.7253368,71.16 92.3199976,71.3519981 92.7679998,71.736 L92.7679998,71.736 Z M87.6319998,80.44 C87.5999996,80.8453354 87.7706646,81.1946652 88.1439998,81.488 C88.517335,81.7813348 89.087996,81.928 89.8559998,81.928 C90.6986707,81.928 91.4186635,81.7306686 92.0159998,81.336 C92.5706692,80.9626648 92.8799995,80.509336 92.9439998,79.976 C92.9653332,79.7306654 92.9040005,79.5200009 92.7599998,79.344 C92.6159991,79.1679991 92.3840014,79.08 92.0639998,79.08 L89.2639998,79.08 C88.7733307,79.1013334 88.3920012,79.2319988 88.1199998,79.472 C87.8479984,79.7120012 87.6853334,80.0346646 87.6319998,80.44 L87.6319998,80.44 Z M92.1759998,72.592 C91.9093318,72.2453316 91.5120024,72.072 90.9839998,72.072 C90.4559972,72.072 90.0293348,72.2453316 89.7039998,72.592 C89.3786648,72.9386684 89.1893334,73.3893306 89.1359998,73.944 C89.0826662,74.4986694 89.1893318,74.9546649 89.4559998,75.312 C89.7226678,75.6693351 90.1146639,75.848 90.6319998,75.848 C91.1493357,75.848 91.5759981,75.6666685 91.9119998,75.304 C92.2480015,74.9413315 92.4426662,74.4853361 92.4959998,73.936 C92.5493334,73.3866639 92.4426678,72.9386684 92.1759998,72.592 L92.1759998,72.592 Z M101.364,74.04 C101.428,73.3466632 101.345334,72.8506682 101.116,72.552 C100.886665,72.2533318 100.526669,72.104 100.036,72.104 C99.5453307,72.104 99.1373347,72.2106656 98.8119998,72.424 C98.4866648,72.6373344 98.3026667,72.9839976 98.2599998,73.464 L96.9959998,73.464 C97.0813335,72.6319958 97.4066636,72.0400018 97.9719998,71.688 C98.5373359,71.3359982 99.2306623,71.16 100.052,71.16 C101.342673,71.16 102.126665,71.693328 102.404,72.76 C102.5,73.1226685 102.526667,73.5599974 102.484,74.072 L102.02,79 L101.06,79 L101.06,77.72 C100.537331,78.6906715 99.7213387,79.176 98.6119998,79.176 C97.9293297,79.176 97.3800019,78.9680021 96.9639998,78.552 C96.5799979,78.1679981 96.3879998,77.7253358 96.3879998,77.224 C96.3879998,76.7226642 96.4653323,76.3173349 96.6199998,76.008 C96.7746672,75.6986651 96.9799985,75.4373344 97.2359998,75.224 C97.7693358,74.8079979 98.4146627,74.6 99.1719998,74.6 C99.9293369,74.6 100.627997,74.7386653 101.268,75.016 L101.364,74.04 Z M101.188,75.816 C100.526663,75.6026656 99.9320024,75.496 99.4039998,75.496 C98.8759971,75.496 98.4440015,75.6159988 98.1079998,75.856 C97.7719981,76.0960012 97.6039998,76.4879973 97.6039998,77.032 C97.6039998,77.373335 97.7026655,77.6533322 97.8999998,77.872 C98.0973341,78.0906678 98.4466639,78.2 98.9479998,78.2 C99.4920025,78.2 99.977331,78.0026686 100.404,77.608 C100.873335,77.1813312 101.129333,76.6320034 101.172,75.96 L101.188,75.816 Z M110.552,77.48 C109.986664,78.5893389 109.170672,79.144 108.104,79.144 C107.325329,79.144 106.722669,78.9040024 106.296,78.424 C105.869331,77.9439976 105.698666,77.2026717 105.784,76.2 L106.248,71.336 L107.384,71.336 L106.936,76.104 C106.807999,77.3946731 107.287994,78.04 108.376,78.04 C109.016003,78.04 109.559998,77.7626694 110.008,77.208 C110.434669,76.6639973 110.690666,75.9493378 110.776,75.064 L111.128,71.336 L112.264,71.336 L111.544,79 L110.408,79 L110.552,77.48 Z M116.252,68.104 L117.388,68.104 L116.364,79 L115.228,79 L116.252,68.104 Z M123.776,78.776 C123.22133,79.042668 122.688002,79.176 122.176,79.176 C121.663997,79.176 121.237335,79.0000018 120.896,78.648 C120.554665,78.2959982 120.421333,77.7520037 120.496,77.016 L120.928,72.312 L119.808,72.312 L119.92,71.352 L121.008,71.352 L121.216,69.224 L122.352,69.224 L122.144,71.352 L124.304,71.352 L124.208,72.312 L122.048,72.312 L121.616,77 C121.562666,77.3946686 121.613332,77.687999 121.768,77.88 C121.922667,78.072001 122.165331,78.168 122.496,78.168 C122.826668,78.168 123.226664,78.072001 123.696,77.88 L123.776,78.776 Z M125.724,78.88 C125.579999,78.7039991 125.518666,78.4906679 125.54,78.24 C125.561333,77.9893321 125.657332,77.7760009 125.828,77.6 C125.998667,77.4239991 126.209332,77.336 126.46,77.336 C126.710668,77.336 126.907999,77.4239991 127.052,77.6 C127.196,77.7760009 127.257333,77.9893321 127.236,78.24 C127.214666,78.4906679 127.116001,78.7039991 126.94,78.88 C126.763999,79.0560009 126.553334,79.144 126.308,79.144 C126.062665,79.144 125.868,79.0560009 125.724,78.88 L125.724,78.88 Z M133.224,71.16 C133.629335,71.16 133.981332,71.226666 134.28,71.36 C134.578668,71.493334 134.834665,71.6719989 135.048,71.896 C135.464002,72.3440022 135.703999,72.9093299 135.768,73.592 L134.616,73.704 C134.530666,73.2559978 134.362668,72.9066679 134.112,72.656 C133.861332,72.4053321 133.570668,72.28 133.24,72.28 C132.909331,72.28 132.618668,72.3413327 132.368,72.464 C132.117332,72.5866673 131.890667,72.7706654 131.688,73.016 C131.229331,73.549336 130.962667,74.2639955 130.888,75.16 C130.802666,76.034671 130.922665,76.7359974 131.248,77.264 C131.573335,77.7920026 132.010664,78.056 132.56,78.056 C133.109336,78.056 133.533332,77.9146681 133.832,77.632 C134.130668,77.3493319 134.301333,76.9466693 134.344,76.424 L135.512,76.424 C135.447999,77.224004 135.133336,77.8799974 134.568,78.392 C134.01333,78.9146693 133.314671,79.176 132.472,79.176 C131.618662,79.176 130.925336,78.8186702 130.392,78.104 C129.83733,77.3466629 129.613332,76.3653394 129.72,75.16 C129.848,73.9333272 130.258663,72.9466704 130.952,72.2 C131.60267,71.5066632 132.359995,71.16 133.224,71.16 L133.224,71.16 Z M141.66,71.16 C142.118669,71.16 142.537331,71.2453325 142.916,71.416 C143.294668,71.5866675 143.611998,71.842665 143.868,72.184 C144.412002,72.909337 144.62,73.9066603 144.492,75.176 C144.363999,76.4560064 143.964003,77.4533298 143.292,78.168 C142.651996,78.8400034 141.852004,79.176 140.892,79.176 C139.931995,79.176 139.196002,78.8400034 138.684,78.168 C138.139997,77.4533298 137.931999,76.4560064 138.06,75.176 C138.188,73.8959936 138.587996,72.8986702 139.26,72.184 C139.889336,71.5013299 140.689328,71.16 141.66,71.16 L141.66,71.16 Z M141.58,72.248 C140.907996,72.248 140.369335,72.5066641 139.964,73.024 C139.558664,73.5413359 139.313333,74.2559954 139.228,75.168 C139.142666,76.0800046 139.241332,76.7946641 139.524,77.312 C139.806668,77.8293359 140.283996,78.088 140.956,78.088 C141.628003,78.088 142.171998,77.8293359 142.588,77.312 C143.004002,76.7946641 143.254666,76.0800046 143.34,75.168 C143.425333,74.2559954 143.321334,73.5413359 143.028,73.024 C142.734665,72.5066641 142.252003,72.248 141.58,72.248 L141.58,72.248 Z M148.672,72.84 C149.248002,71.7199944 150.074661,71.16 151.152,71.16 C151.749336,71.16 152.234664,71.322665 152.608,71.648 C152.981335,71.973335 153.231999,72.4239971 153.36,73 C153.904002,71.7733272 154.76266,71.16 155.936,71.16 C156.757337,71.16 157.367998,71.4586637 157.768,72.056 C158.168002,72.6533363 158.314667,73.4693282 158.208,74.504 L157.792,79 L156.672,79 L157.088,74.504 C157.162667,73.7679963 157.061334,73.2133352 156.784,72.84 C156.506665,72.4666648 156.074669,72.28 155.488,72.28 C154.90133,72.28 154.421335,72.546664 154.048,73.08 C153.674664,73.613336 153.445333,74.3493286 153.36,75.288 L153.344,75.288 L153.008,79 L151.888,79 L152.304,74.504 C152.378667,73.7679963 152.277334,73.2133352 152,72.84 C151.722665,72.4666648 151.290669,72.28 150.704,72.28 C150.11733,72.28 149.618668,72.5546639 149.208,73.104 C148.797331,73.6533361 148.549333,74.4133285 148.464,75.384 L148.128,79 L146.992,79 L147.712,71.352 L148.688,71.352 L148.672,72.84 Z M165.444,67.304 L166.596,67.304 L161.748,80.168 L160.612,80.168 L165.444,67.304 Z M169.192,71.352 L170.296,77.432 L172.456,71.72 L173.416,71.72 L174.504,77.512 L176.76,71.352 L177.896,71.352 L174.92,79 L173.816,79 L172.728,73.64 L170.68,79 L169.576,79 L168.008,71.352 L169.192,71.352 Z M184.54,74.04 C184.604,73.3466632 184.521334,72.8506682 184.292,72.552 C184.062665,72.2533318 183.702669,72.104 183.212,72.104 C182.72133,72.104 182.313335,72.2106656 181.988,72.424 C181.662665,72.6373344 181.478666,72.9839976 181.436,73.464 L180.172,73.464 C180.257333,72.6319958 180.582663,72.0400018 181.148,71.688 C181.713336,71.3359982 182.406662,71.16 183.228,71.16 C184.518673,71.16 185.302665,71.693328 185.58,72.76 C185.676,73.1226685 185.702666,73.5599974 185.66,74.072 L185.196,79 L184.236,79 L184.236,77.72 C183.71333,78.6906715 182.897338,79.176 181.788,79.176 C181.105329,79.176 180.556002,78.9680021 180.14,78.552 C179.755998,78.1679981 179.564,77.7253358 179.564,77.224 C179.564,76.7226642 179.641332,76.3173349 179.796,76.008 C179.950667,75.6986651 180.155998,75.4373344 180.412,75.224 C180.945336,74.8079979 181.590662,74.6 182.348,74.6 C183.105337,74.6 183.803996,74.7386653 184.444,75.016 L184.54,74.04 Z M184.364,75.816 C183.702663,75.6026656 183.108002,75.496 182.58,75.496 C182.051997,75.496 181.620001,75.6159988 181.284,75.856 C180.947998,76.0960012 180.78,76.4879973 180.78,77.032 C180.78,77.373335 180.878665,77.6533322 181.076,77.872 C181.273334,78.0906678 181.622664,78.2 182.124,78.2 C182.668002,78.2 183.153331,78.0026686 183.58,77.608 C184.049335,77.1813312 184.305333,76.6320034 184.348,75.96 L184.364,75.816 Z M189.568,71.336 L190.704,71.336 L189.984,79 L188.848,79 L189.568,71.336 Z M189.784,69.328 C189.671999,69.1839993 189.626666,68.9920012 189.648,68.752 C189.669333,68.5119988 189.749332,68.3200007 189.888,68.176 C190.026667,68.0319993 190.213332,67.96 190.448,67.96 C190.682667,67.96 190.861332,68.0319993 190.984,68.176 C191.106667,68.3200007 191.157333,68.5119988 191.136,68.752 C191.114666,68.9920012 191.029334,69.1839993 190.88,69.328 C190.730665,69.4720007 190.538667,69.544 190.304,69.544 C190.069332,69.544 189.896,69.4720007 189.784,69.328 L189.784,69.328 Z M197.603999,78.776 C197.04933,79.042668 196.516002,79.176 196.003999,79.176 C195.491997,79.176 195.065335,79.0000018 194.723999,78.648 C194.382664,78.2959982 194.249332,77.7520037 194.323999,77.016 L194.755999,72.312 L193.635999,72.312 L193.747999,71.352 L194.835999,71.352 L195.043999,69.224 L196.179999,69.224 L195.971999,71.352 L198.131999,71.352 L198.035999,72.312 L195.875999,72.312 L195.443999,77 C195.390666,77.3946686 195.441332,77.687999 195.595999,77.88 C195.750667,78.072001 195.993331,78.168 196.323999,78.168 C196.654668,78.168 197.054664,78.072001 197.523999,77.88 L197.603999,78.776 Z M200.999999,71.352 L202.103999,77.432 L204.263999,71.72 L205.223999,71.72 L206.311999,77.512 L208.567999,71.352 L209.703999,71.352 L206.727999,79 L205.623999,79 L204.535999,73.64 L202.487999,79 L201.383999,79 L199.815999,71.352 L200.999999,71.352 Z M213.339999,72.76 C213.916002,71.693328 214.731994,71.16 215.787999,71.16 C216.609337,71.16 217.219997,71.4586637 217.619999,72.056 C218.020001,72.6533363 218.166667,73.4693282 218.059999,74.504 L217.643999,79 L216.523999,79 L216.939999,74.504 C217.014666,73.7679963 216.913334,73.2133352 216.635999,72.84 C216.358665,72.4666648 215.926669,72.28 215.339999,72.28 C214.75333,72.28 214.254668,72.5546639 213.843999,73.104 C213.433331,73.6533361 213.185333,74.4133285 213.099999,75.384 L212.763999,79 L211.627999,79 L212.651999,68.104 L213.787999,68.104 L213.339999,72.76 Z M225.951999,74.04 C226.016,73.3466632 225.933334,72.8506682 225.703999,72.552 C225.474665,72.2533318 225.114669,72.104 224.623999,72.104 C224.13333,72.104 223.725334,72.2106656 223.399999,72.424 C223.074664,72.6373344 222.890666,72.9839976 222.847999,73.464 L221.583999,73.464 C221.669333,72.6319958 221.994663,72.0400018 222.559999,71.688 C223.125336,71.3359982 223.818662,71.16 224.639999,71.16 C225.930673,71.16 226.714665,71.693328 226.991999,72.76 C227.088,73.1226685 227.114666,73.5599974 227.071999,74.072 L226.607999,79 L225.647999,79 L225.647999,77.72 C225.12533,78.6906715 224.309338,79.176 223.199999,79.176 C222.517329,79.176 221.968002,78.9680021 221.551999,78.552 C221.167998,78.1679981 220.975999,77.7253358 220.975999,77.224 C220.975999,76.7226642 221.053332,76.3173349 221.207999,76.008 C221.362667,75.6986651 221.567998,75.4373344 221.823999,75.224 C222.357335,74.8079979 223.002662,74.6 223.759999,74.6 C224.517337,74.6 225.215996,74.7386653 225.855999,75.016 L225.951999,74.04 Z M225.775999,75.816 C225.114663,75.6026656 224.520002,75.496 223.991999,75.496 C223.463997,75.496 223.032001,75.6159988 222.695999,75.856 C222.359998,76.0960012 222.191999,76.4879973 222.191999,77.032 C222.191999,77.373335 222.290665,77.6533322 222.487999,77.872 C222.685334,78.0906678 223.034664,78.2 223.535999,78.2 C224.080002,78.2 224.565331,78.0026686 224.991999,77.608 C225.461335,77.1813312 225.717333,76.6320034 225.759999,75.96 L225.775999,75.816 Z M233.811999,78.776 C233.25733,79.042668 232.724002,79.176 232.211999,79.176 C231.699997,79.176 231.273334,79.0000018 230.931999,78.648 C230.590664,78.2959982 230.457332,77.7520037 230.531999,77.016 L230.963999,72.312 L229.843999,72.312 L229.955999,71.352 L231.043999,71.352 L231.251999,69.224 L232.387999,69.224 L232.179999,71.352 L234.339999,71.352 L234.243999,72.312 L232.083999,72.312 L231.651999,77 C231.598666,77.3946686 231.649332,77.687999 231.803999,77.88 C231.958667,78.072001 232.201331,78.168 232.531999,78.168 C232.862668,78.168 233.262664,78.072001 233.731999,77.88 L233.811999,78.776 Z" id="kelseylegault.com/wa" fill="#000000"></path>
                    <path d="M46.1791992,34.3154297 C45.8956692,34.4254563 45.7010096,34.6285792 45.5952148,34.9248047 C45.48942,35.2210301 45.4365234,35.6949837 45.4365234,36.3466797 L45.4365234,49.2451172 C45.4365234,49.8968132 45.48942,50.3707667 45.5952148,50.6669922 C45.7010096,50.9632176 45.8956692,51.1663406 46.1791992,51.2763672 C46.4627293,51.3863938 46.9176401,51.4541014 47.5439453,51.4794922 L47.5439453,52 C46.7314413,51.9492185 45.6311918,51.9238281 44.2431641,51.9238281 C42.7535733,51.9238281 41.6448604,51.9492185 40.9169922,52 L40.9169922,51.4794922 C41.5432974,51.4541014 41.9960924,51.3863938 42.2753906,51.2763672 C42.5546889,51.1663406 42.7472325,50.9632176 42.8530273,50.6669922 C42.9588221,50.3707667 43.0117188,49.8968132 43.0117188,49.2451172 L43.0117188,35.3310547 L36.7529297,52.1269531 L36.3339844,52.1269531 L29.7832031,35.2548828 L29.7832031,48.9785156 C29.7832031,49.6471388 29.8424473,50.1507145 29.9609375,50.4892578 C30.0794277,50.8278012 30.3015934,51.0711256 30.6274414,51.2192383 C30.9532894,51.367351 31.4589809,51.4541014 32.1445312,51.4794922 L32.1445312,52 C31.5266896,51.9492185 30.6422584,51.9238281 29.4912109,51.9238281 C28.4586537,51.9238281 27.6546253,51.9492185 27.0791016,52 L27.0791016,51.4794922 C27.680016,51.4541014 28.1264634,51.367351 28.418457,51.2192383 C28.7104507,51.0711256 28.9114578,50.8278012 29.0214844,50.4892578 C29.131511,50.1507145 29.1865234,49.6471388 29.1865234,48.9785156 L29.1865234,36.3466797 C29.1865234,35.6949837 29.1336268,35.2210301 29.027832,34.9248047 C28.9220372,34.6285792 28.7273777,34.4254563 28.4438477,34.3154297 C28.1603176,34.2054031 27.7054068,34.1376954 27.0791016,34.1123047 L27.0791016,33.5917969 C27.6461617,33.6425784 28.4501901,33.6679688 29.4912109,33.6679688 C30.405278,33.6679688 31.1458305,33.6425784 31.7128906,33.5917969 L37.4257812,48.6738281 L43.0117188,33.6679688 L44.2431641,33.6679688 C45.6311918,33.6679688 46.7314413,33.6425784 47.5439453,33.5917969 L47.5439453,34.1123047 C46.9176401,34.1376954 46.4627293,34.2054031 46.1791992,34.3154297 L46.1791992,34.3154297 Z M60.2936168,50.5844727 C59.8492786,51.1134467 59.2949222,51.5429671 58.6305308,51.8730469 C57.9661395,52.2031267 57.2234711,52.3681641 56.4025035,52.3681641 C55.1668202,52.3681641 54.0983088,52.0867541 53.1969371,51.5239258 C52.2955654,50.9610974 51.6079095,50.1697642 51.1339488,49.1499023 C50.6599881,48.1300405 50.4230113,46.9557358 50.4230113,45.6269531 C50.4230113,44.1204352 50.6642198,42.8128311 51.1466441,41.7041016 C51.6290684,40.5953721 52.3124926,39.7426788 53.1969371,39.1459961 C54.0813816,38.5493134 55.1160392,38.2509766 56.300941,38.2509766 C57.8582404,38.2509766 59.0579355,38.7228143 59.9000621,39.6665039 C60.7421887,40.6101935 61.1632457,42.0426336 61.1632457,43.9638672 L53.0382457,43.9638672 C52.9790006,44.4124371 52.9493785,44.9667936 52.9493785,45.6269531 C52.9493785,46.769537 53.1376904,47.7682249 53.5143199,48.6230469 C53.8909494,49.4778689 54.3839458,50.1337868 54.9933238,50.5908203 C55.6027018,51.0478538 56.2459246,51.2763672 56.9230113,51.2763672 C58.6665096,51.2763672 59.9402599,50.4088628 60.7443004,48.6738281 L61.2648082,48.8769531 C61.0616822,49.4863312 60.7379549,50.0554987 60.2936168,50.5844727 L60.2936168,50.5844727 Z M58.4464488,41.0947266 C58.2687135,40.3753219 57.9894195,39.8040386 57.6085582,39.3808594 C57.2276969,38.9576802 56.757975,38.7460938 56.1993785,38.7460938 C55.6661727,38.7460938 55.1752922,38.9174788 54.7267222,39.2602539 C54.2781523,39.6030291 53.8994126,40.1277634 53.5904918,40.8344727 C53.281571,41.5411819 53.0847956,42.4192656 53.0001597,43.46875 L58.6622691,43.46875 C58.6961235,42.6054644 58.6241841,41.8141312 58.4464488,41.0947266 L58.4464488,41.0947266 Z M76.4773703,50.9145508 C76.7693639,51.2742531 77.2835189,51.4541016 78.0198507,51.4541016 L78.0198507,52 C77.4697178,51.9492185 76.9322883,51.9238281 76.407546,51.9238281 C75.290353,51.9238281 74.3889948,52.0465483 73.7034445,52.2919922 L73.7034445,49.9814453 C73.3818283,50.760095 72.9099906,51.352537 72.2879171,51.7587891 C71.6658437,52.1650411 70.9062484,52.3681641 70.0091085,52.3681641 C68.9088426,52.3681641 67.9609354,52.1057969 67.1653585,51.5810547 C66.3697816,51.0563125 65.7582969,50.269211 65.3308859,49.2197266 C64.9034749,48.1702421 64.6940043,46.8711015 64.7024679,45.3222656 C64.6940043,43.8072841 64.9563715,42.5166069 65.4895773,41.4501953 C66.0227831,40.3837837 66.7358293,39.583987 67.6287374,39.0507812 C68.5216456,38.5175755 69.5055224,38.2509766 70.5803976,38.2509766 C71.2405572,38.2509766 71.8478102,38.3758126 72.4021749,38.6254883 C72.9565397,38.875164 73.3902919,39.2623672 73.7034445,39.7871094 L73.7034445,34.734375 C73.7034445,33.9303345 73.5574498,33.3484719 73.2654562,32.9887695 C72.9734626,32.6290672 72.4593075,32.4492188 71.7229757,32.4492188 L71.7229757,31.9033203 C72.2731087,31.9541018 72.8105382,31.9794922 73.3352804,31.9794922 C74.4524735,31.9794922 75.3538317,31.8567721 76.039382,31.6113281 L76.039382,49.1689453 C76.039382,49.9729858 76.1853766,50.5548485 76.4773703,50.9145508 L76.4773703,50.9145508 Z M70.7962179,38.8476562 C70.0937404,38.8476562 69.4737922,39.0867489 68.9363546,39.5649414 C68.3989171,40.0431339 67.9778601,40.7667595 67.673171,41.7358398 C67.368482,42.7049202 67.2203715,43.9003835 67.2288351,45.3222656 C67.2203715,47.4043073 67.5144767,48.967931 68.1111593,50.0131836 C68.707842,51.0584362 69.5901574,51.5810547 70.758132,51.5810547 C71.2067019,51.5810547 71.6298748,51.466798 72.0276632,51.2382812 C72.4254517,51.0097645 72.7724534,50.6691103 73.0686789,50.2163086 C73.3649043,49.7635069 73.5764907,49.2197297 73.7034445,48.5849609 L73.7034445,40.8535156 C73.2210202,39.5162694 72.2519544,38.8476562 70.7962179,38.8476562 L70.7962179,38.8476562 Z M84.161612,32.3349609 C84.4155196,32.4873054 84.6186425,32.6904284 84.770987,32.9443359 C84.9233315,33.1982435 84.9995027,33.4733058 84.9995027,33.7695312 C84.9995027,34.0657567 84.9233315,34.3429349 84.770987,34.6010742 C84.6186425,34.8592135 84.4155196,35.0623365 84.161612,35.2104492 C83.9077045,35.3585619 83.6326422,35.4326172 83.3364167,35.4326172 C83.0401913,35.4326172 82.7630131,35.3585619 82.5048738,35.2104492 C82.2467344,35.0623365 82.0436115,34.8592135 81.8954988,34.6010742 C81.747386,34.3429349 81.6733308,34.0657567 81.6733308,33.7695312 C81.6733308,33.4733058 81.747386,33.1982435 81.8954988,32.9443359 C82.0436115,32.6904284 82.2467344,32.4873054 82.5048738,32.3349609 C82.7630131,32.1826164 83.0401913,32.1064453 83.3364167,32.1064453 C83.6326422,32.1064453 83.9077045,32.1826164 84.161612,32.3349609 L84.161612,32.3349609 Z M84.8788972,50.7177734 C85.0100827,50.9886081 85.2174374,51.1790359 85.5009675,51.2890625 C85.7844976,51.3990891 86.1717007,51.4541016 86.6625886,51.4541016 L86.6625886,52 C85.0714348,51.9322913 84.0219661,51.8984375 83.5141511,51.8984375 C83.0063361,51.8984375 81.9568674,51.9322913 80.3657136,52 L80.3657136,51.4541016 C80.8566015,51.4541016 81.2438046,51.3990891 81.5273347,51.2890625 C81.8108648,51.1790359 82.0182195,50.9886081 82.149405,50.7177734 C82.2805906,50.4469388 82.3461823,50.0703149 82.3461823,49.5878906 L82.3461823,41.4501953 C82.3461823,40.6461548 82.2001877,40.0621763 81.9081941,39.6982422 C81.6162004,39.3343081 81.1020454,39.1523438 80.3657136,39.1523438 L80.3657136,38.6064453 C80.907383,38.6572268 81.4448125,38.6826172 81.9780183,38.6826172 C83.0782842,38.6826172 83.9796424,38.5641288 84.6821198,38.3271484 L84.6821198,49.5878906 C84.6821198,50.0703149 84.7477116,50.4469388 84.8788972,50.7177734 L84.8788972,50.7177734 Z M95.9845257,39.3237305 C95.5655783,38.9555646 94.9710204,38.7714844 94.2008343,38.7714844 C92.9736146,38.7714844 92.1145737,39.0804006 91.6236858,39.6982422 C91.9706928,39.782878 92.2605662,39.9669582 92.4933147,40.2504883 C92.7260633,40.5340183 92.8424358,40.8789042 92.8424358,41.2851562 C92.8424358,41.7252626 92.7049047,42.0701485 92.4298382,42.3198242 C92.1547717,42.5694999 91.7844955,42.6943359 91.3189983,42.6943359 C90.878892,42.6943359 90.5340061,42.5462254 90.2843304,42.25 C90.0346546,41.9537746 89.9098186,41.5644555 89.9098186,41.0820312 C89.9098186,40.4049445 90.3160646,39.7871122 91.1285686,39.2285156 C91.5517478,38.9492174 92.0743663,38.7164723 92.6964397,38.5302734 C93.3185132,38.3440746 94.0104008,38.2509766 94.7721233,38.2509766 C95.4830644,38.2509766 96.1093602,38.337727 96.6510296,38.5112305 C97.192699,38.6847339 97.6158718,38.9238266 97.9205608,39.2285156 C98.3183493,39.6347677 98.5912958,40.1066054 98.7394085,40.644043 C98.8875212,41.1814806 98.9615765,41.9241489 98.9615765,42.8720703 L98.9615765,50.0957031 C98.9615765,50.5273459 99.0229365,50.8404938 99.1456585,51.0351562 C99.2683805,51.2298187 99.4736193,51.3271484 99.7613811,51.3271484 C99.9729707,51.3271484 100.16763,51.2805994 100.345366,51.1875 C100.523101,51.0944006 100.71776,50.9589853 100.92935,50.78125 L101.221342,51.2255859 C100.916653,51.4541027 100.662749,51.6318353 100.459623,51.7587891 C100.256497,51.8857428 100.023752,51.9873043 99.7613811,52.0634766 C99.49901,52.1396488 99.1943256,52.1777344 98.8473186,52.1777344 C98.0094238,52.1777344 97.4275612,51.9682638 97.1017132,51.5493164 C96.7758652,51.130369 96.6129436,50.569665 96.6129436,49.8671875 C96.1051286,50.7050823 95.4957597,51.2996402 94.7848186,51.6508789 C94.0738776,52.0021176 93.350252,52.1777344 92.6139202,52.1777344 C92.0130057,52.1777344 91.462881,52.074057 90.9635296,51.8666992 C90.4641781,51.6593414 90.0642798,51.33773 89.7638226,50.9018555 C89.4633653,50.4659809 89.313139,49.9222038 89.313139,49.2705078 C89.313139,48.6103483 89.4739446,48.0475284 89.7955608,47.5820312 C90.117177,47.1165341 90.569972,46.7081723 91.1539593,46.3569336 C91.7379466,46.0056949 92.5208163,45.6227234 93.5025921,45.2080078 C93.6718638,45.1402991 94.0865732,44.97103 94.7467327,44.7001953 C95.4068923,44.4293606 95.8829617,44.15853 96.1749554,43.8876953 C96.466949,43.6168606 96.6129436,43.3206396 96.6129436,42.9990234 L96.6129436,41.3867188 C96.6129436,40.3795523 96.4034731,39.6918964 95.9845257,39.3237305 L95.9845257,39.3237305 Z M95.978178,44.6113281 C95.6819526,44.7805998 95.0641202,45.0937477 94.1246624,45.5507812 C93.6253109,45.7877616 93.2021381,46.031086 92.8551311,46.2807617 C92.5081242,46.5304374 92.2119032,46.8668599 91.9664593,47.2900391 C91.7210153,47.7132183 91.5982952,48.2337209 91.5982952,48.8515625 C91.5982952,49.6048215 91.788723,50.173989 92.1695843,50.559082 C92.5504456,50.9441751 93.0540212,51.1367188 93.6803265,51.1367188 C94.8313739,51.1367188 95.8089032,50.4808008 96.6129436,49.1689453 L96.6129436,44.0654297 C96.4859899,44.2600921 96.2744035,44.4420564 95.978178,44.6113281 L95.978178,44.6113281 Z M115.885236,34.3154297 C115.601706,34.4254563 115.407046,34.6285792 115.301251,34.9248047 C115.195457,35.2210301 115.14256,35.6949837 115.14256,36.3466797 L115.14256,49.2451172 C115.14256,49.8968132 115.195457,50.3707667 115.301251,50.6669922 C115.407046,50.9632176 115.601706,51.1663406 115.885236,51.2763672 C116.168766,51.3863938 116.623677,51.4541014 117.249982,51.4794922 L117.249982,52 C116.454405,51.9492185 115.354156,51.9238281 113.949201,51.9238281 C112.45961,51.9238281 111.350897,51.9492185 110.623029,52 L110.623029,51.4794922 C111.249334,51.4541014 111.704245,51.3863938 111.987775,51.2763672 C112.271305,51.1663406 112.465964,50.9632176 112.571759,50.6669922 C112.677554,50.3707667 112.730451,49.8968132 112.730451,49.2451172 L112.730451,36.3466797 C112.730451,35.6949837 112.677554,35.2210301 112.571759,34.9248047 C112.465964,34.6285792 112.271305,34.4254563 111.987775,34.3154297 C111.704245,34.2054031 111.249334,34.1376954 110.623029,34.1123047 L110.623029,33.5917969 C111.342433,33.6425784 112.451146,33.6679688 113.949201,33.6679688 C115.354156,33.6679688 116.454405,33.6425784 117.249982,33.5917969 L117.249982,34.1123047 C116.623677,34.1376954 116.168766,34.2054031 115.885236,34.3154297 L115.885236,34.3154297 Z M126.279927,38.9936523 C127.054345,38.4985327 127.928197,38.2509766 128.901509,38.2509766 C130.111801,38.2509766 131.030086,38.5768197 131.656392,39.2285156 C131.978008,39.5839862 132.208637,40.0219701 132.348286,40.5424805 C132.487935,41.0629909 132.557759,41.763342 132.557759,42.6435547 L132.557759,49.5878906 C132.557759,50.0703149 132.623351,50.4469388 132.754536,50.7177734 C132.885722,50.9886081 133.093076,51.1790359 133.376606,51.2890625 C133.660137,51.3990891 134.04734,51.4541016 134.538228,51.4541016 L134.538228,52 C132.947074,51.9322913 131.906069,51.8984375 131.415181,51.8984375 C130.932756,51.8984375 129.963691,51.9322913 128.507954,52 L128.507954,51.4541016 C128.939597,51.4541016 129.276019,51.3990891 129.517231,51.2890625 C129.758444,51.1790359 129.936176,50.9886081 130.050435,50.7177734 C130.164693,50.4469388 130.221821,50.0703149 130.221821,49.5878906 L130.221821,42.0722656 C130.221821,41.4459604 130.173156,40.9212261 130.075825,40.4980469 C129.978494,40.0748677 129.775371,39.7320977 129.46645,39.4697266 C129.157529,39.2073555 128.70685,39.0761719 128.114399,39.0761719 C127.403458,39.0761719 126.770815,39.2835266 126.21645,39.6982422 C125.662085,40.1129578 125.232565,40.6821253 124.927876,41.4057617 C124.623187,42.1293981 124.470845,42.9313107 124.470845,43.8115234 L124.470845,49.5878906 C124.470845,50.0703149 124.527973,50.4469388 124.642231,50.7177734 C124.75649,50.9886081 124.936338,51.1790359 125.181782,51.2890625 C125.427226,51.3990891 125.765764,51.4541016 126.197407,51.4541016 L126.197407,52 C124.741671,51.9322913 123.768373,51.8984375 123.277485,51.8984375 C122.786597,51.8984375 121.745592,51.9322913 120.154438,52 L120.154438,51.4541016 C120.645326,51.4541016 121.03253,51.3990891 121.31606,51.2890625 C121.59959,51.1790359 121.806944,50.9886081 121.93813,50.7177734 C122.069315,50.4469388 122.134907,50.0703149 122.134907,49.5878906 L122.134907,41.4501953 C122.134907,40.6461548 121.988913,40.0621763 121.696919,39.6982422 C121.404925,39.3343081 120.89077,39.1523438 120.154438,39.1523438 L120.154438,38.6064453 C120.696108,38.6572268 121.233537,38.6826172 121.766743,38.6826172 C122.867009,38.6826172 123.768367,38.5641288 124.470845,38.3271484 L124.470845,41.3867188 C124.902488,40.2864528 125.505509,39.488772 126.279927,38.9936523 L126.279927,38.9936523 Z M138.674129,49.6386719 C138.91111,50.3326858 139.275038,50.874347 139.765926,51.2636719 C140.256814,51.6529967 140.916964,51.8476562 141.746395,51.8476562 C142.127256,51.8476562 142.493301,51.7651375 142.84454,51.6000977 C143.195778,51.4350578 143.485652,51.1684589 143.714169,50.800293 C143.942685,50.4321271 144.056942,49.9560576 144.056942,49.3720703 C144.056942,48.8981096 143.936338,48.4728209 143.695126,48.0961914 C143.453913,47.7195619 143.13865,47.3810236 142.749325,47.0805664 C142.36,46.7801092 141.814107,46.4098329 141.111629,45.9697266 C140.256808,45.4280572 139.603005,44.9837257 139.150204,44.6367188 C138.697402,44.2897118 138.314431,43.866539 138.001278,43.3671875 C137.688125,42.867836 137.531551,42.2796258 137.531551,41.6025391 C137.531551,40.8662073 137.705052,40.246259 138.052059,39.7426758 C138.399066,39.2390925 138.86244,38.8645846 139.442196,38.6191406 C140.021951,38.3736967 140.66729,38.2509766 141.378231,38.2509766 C141.987609,38.2509766 142.535618,38.3483063 143.022274,38.5429688 C143.50893,38.7376312 143.904597,38.9576811 144.209286,39.203125 C144.395485,39.3470059 144.547827,39.4189453 144.666317,39.4189453 C144.971006,39.4189453 145.165666,39.0380897 145.250301,38.2763672 L145.846981,38.2763672 C145.779272,39.1227256 145.745419,40.5953671 145.745419,42.6943359 L145.148739,42.6943359 C144.96254,41.5517521 144.59438,40.6080766 144.044247,39.8632812 C143.494114,39.1184859 142.681622,38.7460938 141.606747,38.7460938 C140.980441,38.7460938 140.468402,38.9217105 140.070614,39.2729492 C139.672825,39.624188 139.473934,40.1129526 139.473934,40.7392578 C139.473934,41.3401723 139.679173,41.8416321 140.089657,42.2436523 C140.500141,42.6456726 140.995253,43.028644 141.575008,43.3925781 C142.154764,43.7565122 142.567357,44.0188794 142.812801,44.1796875 C143.608378,44.6959661 144.249485,45.1551087 144.736141,45.5571289 C145.222797,45.9591491 145.616348,46.4204076 145.916805,46.940918 C146.217262,47.4614284 146.367489,48.0559862 146.367489,48.7246094 C146.367489,49.4947955 146.166482,50.1528293 145.764462,50.6987305 C145.362441,51.2446316 144.822896,51.659341 144.145809,51.9428711 C143.468722,52.2264012 142.72817,52.3681641 141.924129,52.3681641 C141.153943,52.3681641 140.468403,52.2454439 139.867489,52 C139.528946,51.8307283 139.17348,51.5979833 138.801083,51.3017578 C138.733374,51.2340491 138.652971,51.2001953 138.559872,51.2001953 C138.305964,51.2001953 138.128232,51.5260384 138.026669,52.1777344 L137.429989,52.1777344 C137.497698,51.187495 137.531551,49.4567181 137.531551,46.9853516 L138.128231,46.9853516 C138.255185,48.0602267 138.437149,48.944658 138.674129,49.6386719 L138.674129,49.6386719 Z M157.447727,38.6318359 L157.447727,39.1523438 L153.601047,39.1523438 L153.601047,49.2197266 C153.601047,50.0068399 153.740694,50.5717756 154.019992,50.9145508 C154.299291,51.2573259 154.714,51.4287109 155.264133,51.4287109 C155.805802,51.4287109 156.267061,51.2128928 156.647922,50.78125 C157.028783,50.3496072 157.350395,49.6386768 157.612766,48.6484375 L158.120578,48.7753906 C157.697399,51.1705849 156.571759,52.3681641 154.743625,52.3681641 C154.159638,52.3681641 153.677221,52.2983405 153.29636,52.1586914 C152.915498,52.0190423 152.57696,51.8011083 152.280735,51.5048828 C151.908337,51.1240215 151.64597,50.6564155 151.493625,50.1020508 C151.341281,49.547686 151.26511,48.8007859 151.26511,47.8613281 L151.26511,39.1523438 L148.764133,39.1523438 L148.764133,38.6318359 L151.26511,38.6318359 L151.26511,34.6582031 C152.238422,34.6328124 153.01706,34.5100922 153.601047,34.2900391 L153.601047,38.6318359 L157.447727,38.6318359 Z M166.604625,39.3237305 C166.185677,38.9555646 165.591119,38.7714844 164.820933,38.7714844 C163.593714,38.7714844 162.734673,39.0804006 162.243785,39.6982422 C162.590792,39.782878 162.880665,39.9669582 163.113414,40.2504883 C163.346162,40.5340183 163.462535,40.8789042 163.462535,41.2851562 C163.462535,41.7252626 163.325004,42.0701485 163.049937,42.3198242 C162.774871,42.5694999 162.404595,42.6943359 161.939097,42.6943359 C161.498991,42.6943359 161.154105,42.5462254 160.904429,42.25 C160.654754,41.9537746 160.529918,41.5644555 160.529918,41.0820312 C160.529918,40.4049445 160.936164,39.7871122 161.748668,39.2285156 C162.171847,38.9492174 162.694465,38.7164723 163.316539,38.5302734 C163.938612,38.3440746 164.6305,38.2509766 165.392222,38.2509766 C166.103163,38.2509766 166.729459,38.337727 167.271129,38.5112305 C167.812798,38.6847339 168.235971,38.9238266 168.54066,39.2285156 C168.938448,39.6347677 169.211395,40.1066054 169.359508,40.644043 C169.50762,41.1814806 169.581676,41.9241489 169.581676,42.8720703 L169.581676,50.0957031 C169.581676,50.5273459 169.643036,50.8404938 169.765758,51.0351562 C169.88848,51.2298187 170.093718,51.3271484 170.38148,51.3271484 C170.59307,51.3271484 170.787729,51.2805994 170.965465,51.1875 C171.1432,51.0944006 171.337859,50.9589853 171.549449,50.78125 L171.841441,51.2255859 C171.536752,51.4541027 171.282848,51.6318353 171.079722,51.7587891 C170.876596,51.8857428 170.643851,51.9873043 170.38148,52.0634766 C170.119109,52.1396488 169.814425,52.1777344 169.467418,52.1777344 C168.629523,52.1777344 168.04766,51.9682638 167.721812,51.5493164 C167.395964,51.130369 167.233043,50.569665 167.233043,49.8671875 C166.725228,50.7050823 166.115859,51.2996402 165.404918,51.6508789 C164.693977,52.0021176 163.970351,52.1777344 163.234019,52.1777344 C162.633105,52.1777344 162.08298,52.074057 161.583629,51.8666992 C161.084277,51.6593414 160.684379,51.33773 160.383922,50.9018555 C160.083464,50.4659809 159.933238,49.9222038 159.933238,49.2705078 C159.933238,48.6103483 160.094044,48.0475284 160.41566,47.5820312 C160.737276,47.1165341 161.190071,46.7081723 161.774058,46.3569336 C162.358046,46.0056949 163.140915,45.6227234 164.122691,45.2080078 C164.291963,45.1402991 164.706672,44.97103 165.366832,44.7001953 C166.026991,44.4293606 166.503061,44.15853 166.795054,43.8876953 C167.087048,43.6168606 167.233043,43.3206396 167.233043,42.9990234 L167.233043,41.3867188 C167.233043,40.3795523 167.023572,39.6918964 166.604625,39.3237305 L166.604625,39.3237305 Z M166.598277,44.6113281 C166.302052,44.7805998 165.684219,45.0937477 164.744761,45.5507812 C164.24541,45.7877616 163.822237,46.031086 163.47523,46.2807617 C163.128223,46.5304374 162.832002,46.8668599 162.586558,47.2900391 C162.341114,47.7132183 162.218394,48.2337209 162.218394,48.8515625 C162.218394,49.6048215 162.408822,50.173989 162.789683,50.559082 C163.170545,50.9441751 163.67412,51.1367188 164.300426,51.1367188 C165.451473,51.1367188 166.429002,50.4808008 167.233043,49.1689453 L167.233043,44.0654297 C167.106089,44.2600921 166.894503,44.4420564 166.598277,44.6113281 L166.598277,44.6113281 Z M178.014941,50.7177734 C178.146126,50.9886081 178.353481,51.1790359 178.637011,51.2890625 C178.920541,51.3990891 179.307744,51.4541016 179.798632,51.4541016 L179.798632,52 C178.207478,51.9322913 177.15801,51.8984375 176.650195,51.8984375 C176.14238,51.8984375 175.092911,51.9322913 173.501757,52 L173.501757,51.4541016 C173.992645,51.4541016 174.379848,51.3990891 174.663378,51.2890625 C174.946908,51.1790359 175.154263,50.9886081 175.285449,50.7177734 C175.416634,50.4469388 175.482226,50.0703149 175.482226,49.5878906 L175.482226,34.734375 C175.482226,33.9303345 175.336231,33.3484719 175.044238,32.9887695 C174.752244,32.6290672 174.238089,32.4492188 173.501757,32.4492188 L173.501757,31.9033203 C174.043427,31.9541018 174.580856,31.9794922 175.114062,31.9794922 C176.231255,31.9794922 177.132613,31.8567721 177.818163,31.6113281 L177.818163,49.5878906 C177.818163,50.0703149 177.883755,50.4469388 178.014941,50.7177734 L178.014941,50.7177734 Z M186.51803,50.7177734 C186.649216,50.9886081 186.85657,51.1790359 187.1401,51.2890625 C187.423631,51.3990891 187.810834,51.4541016 188.301722,51.4541016 L188.301722,52 C186.710568,51.9322913 185.661099,51.8984375 185.153284,51.8984375 C184.645469,51.8984375 183.596,51.9322913 182.004847,52 L182.004847,51.4541016 C182.495734,51.4541016 182.882938,51.3990891 183.166468,51.2890625 C183.449998,51.1790359 183.657352,50.9886081 183.788538,50.7177734 C183.919724,50.4469388 183.985315,50.0703149 183.985315,49.5878906 L183.985315,34.734375 C183.985315,33.9303345 183.839321,33.3484719 183.547327,32.9887695 C183.255333,32.6290672 182.741178,32.4492188 182.004847,32.4492188 L182.004847,31.9033203 C182.546516,31.9541018 183.083945,31.9794922 183.617151,31.9794922 C184.734344,31.9794922 185.635703,31.8567721 186.321253,31.6113281 L186.321253,49.5878906 C186.321253,50.0703149 186.386845,50.4469388 186.51803,50.7177734 L186.51803,50.7177734 Z M197.623659,39.3237305 C197.204711,38.9555646 196.610153,38.7714844 195.839967,38.7714844 C194.612748,38.7714844 193.753707,39.0804006 193.262819,39.6982422 C193.609826,39.782878 193.899699,39.9669582 194.132448,40.2504883 C194.365196,40.5340183 194.481569,40.8789042 194.481569,41.2851562 C194.481569,41.7252626 194.344038,42.0701485 194.068971,42.3198242 C193.793905,42.5694999 193.423628,42.6943359 192.958131,42.6943359 C192.518025,42.6943359 192.173139,42.5462254 191.923463,42.25 C191.673788,41.9537746 191.548952,41.5644555 191.548952,41.0820312 C191.548952,40.4049445 191.955198,39.7871122 192.767702,39.2285156 C193.190881,38.9492174 193.713499,38.7164723 194.335573,38.5302734 C194.957646,38.3440746 195.649534,38.2509766 196.411256,38.2509766 C197.122197,38.2509766 197.748493,38.337727 198.290163,38.5112305 C198.831832,38.6847339 199.255005,38.9238266 199.559694,39.2285156 C199.957482,39.6347677 200.230429,40.1066054 200.378541,40.644043 C200.526654,41.1814806 200.600709,41.9241489 200.600709,42.8720703 L200.600709,50.0957031 C200.600709,50.5273459 200.66207,50.8404938 200.784791,51.0351562 C200.907513,51.2298187 201.112752,51.3271484 201.400514,51.3271484 C201.612104,51.3271484 201.806763,51.2805994 201.984499,51.1875 C202.162234,51.0944006 202.356893,50.9589853 202.568483,50.78125 L202.860475,51.2255859 C202.555786,51.4541027 202.301882,51.6318353 202.098756,51.7587891 C201.89563,51.8857428 201.662885,51.9873043 201.400514,52.0634766 C201.138143,52.1396488 200.833459,52.1777344 200.486452,52.1777344 C199.648557,52.1777344 199.066694,51.9682638 198.740846,51.5493164 C198.414998,51.130369 198.252077,50.569665 198.252077,49.8671875 C197.744262,50.7050823 197.134893,51.2996402 196.423952,51.6508789 C195.713011,52.0021176 194.989385,52.1777344 194.253053,52.1777344 C193.652139,52.1777344 193.102014,52.074057 192.602663,51.8666992 C192.103311,51.6593414 191.703413,51.33773 191.402956,50.9018555 C191.102498,50.4659809 190.952272,49.9222038 190.952272,49.2705078 C190.952272,48.6103483 191.113078,48.0475284 191.434694,47.5820312 C191.75631,47.1165341 192.209105,46.7081723 192.793092,46.3569336 C193.37708,46.0056949 194.159949,45.6227234 195.141725,45.2080078 C195.310997,45.1402991 195.725706,44.97103 196.385866,44.7001953 C197.046025,44.4293606 197.522095,44.15853 197.814088,43.8876953 C198.106082,43.6168606 198.252077,43.3206396 198.252077,42.9990234 L198.252077,41.3867188 C198.252077,40.3795523 198.042606,39.6918964 197.623659,39.3237305 L197.623659,39.3237305 Z M197.617311,44.6113281 C197.321086,44.7805998 196.703253,45.0937477 195.763795,45.5507812 C195.264444,45.7877616 194.841271,46.031086 194.494264,46.2807617 C194.147257,46.5304374 193.851036,46.8668599 193.605592,47.2900391 C193.360148,47.7132183 193.237428,48.2337209 193.237428,48.8515625 C193.237428,49.6048215 193.427856,50.173989 193.808717,50.559082 C194.189579,50.9441751 194.693154,51.1367188 195.319459,51.1367188 C196.470507,51.1367188 197.448036,50.4808008 198.252077,49.1689453 L198.252077,44.0654297 C198.125123,44.2600921 197.913536,44.4420564 197.617311,44.6113281 L197.617311,44.6113281 Z M212.747354,38.6318359 L212.747354,39.1523438 L208.900674,39.1523438 L208.900674,49.2197266 C208.900674,50.0068399 209.040321,50.5717756 209.319619,50.9145508 C209.598917,51.2573259 210.013627,51.4287109 210.56376,51.4287109 C211.105429,51.4287109 211.566688,51.2128928 211.947549,50.78125 C212.32841,50.3496072 212.650022,49.6386768 212.912393,48.6484375 L213.420205,48.7753906 C212.997026,51.1705849 211.871386,52.3681641 210.043252,52.3681641 C209.459265,52.3681641 208.976848,52.2983405 208.595986,52.1586914 C208.215125,52.0190423 207.876587,51.8011083 207.580361,51.5048828 C207.207964,51.1240215 206.945597,50.6564155 206.793252,50.1020508 C206.640907,49.547686 206.564736,48.8007859 206.564736,47.8613281 L206.564736,39.1523438 L204.06376,39.1523438 L204.06376,38.6318359 L206.564736,38.6318359 L206.564736,34.6582031 C207.538049,34.6328124 208.316687,34.5100922 208.900674,34.2900391 L208.900674,38.6318359 L212.747354,38.6318359 Z M218.762162,32.3349609 C219.016069,32.4873054 219.219192,32.6904284 219.371537,32.9443359 C219.523881,33.1982435 219.600052,33.4733058 219.600052,33.7695312 C219.600052,34.0657567 219.523881,34.3429349 219.371537,34.6010742 C219.219192,34.8592135 219.016069,35.0623365 218.762162,35.2104492 C218.508254,35.3585619 218.233192,35.4326172 217.936966,35.4326172 C217.640741,35.4326172 217.363563,35.3585619 217.105423,35.2104492 C216.847284,35.0623365 216.644161,34.8592135 216.496048,34.6010742 C216.347936,34.3429349 216.27388,34.0657567 216.27388,33.7695312 C216.27388,33.4733058 216.347936,33.1982435 216.496048,32.9443359 C216.644161,32.6904284 216.847284,32.4873054 217.105423,32.3349609 C217.363563,32.1826164 217.640741,32.1064453 217.936966,32.1064453 C218.233192,32.1064453 218.508254,32.1826164 218.762162,32.3349609 L218.762162,32.3349609 Z M219.479447,50.7177734 C219.610632,50.9886081 219.817987,51.1790359 220.101517,51.2890625 C220.385047,51.3990891 220.77225,51.4541016 221.263138,51.4541016 L221.263138,52 C219.671985,51.9322913 218.622516,51.8984375 218.114701,51.8984375 C217.606886,51.8984375 216.557417,51.9322913 214.966263,52 L214.966263,51.4541016 C215.457151,51.4541016 215.844354,51.3990891 216.127884,51.2890625 C216.411414,51.1790359 216.618769,50.9886081 216.749955,50.7177734 C216.88114,50.4469388 216.946732,50.0703149 216.946732,49.5878906 L216.946732,41.4501953 C216.946732,40.6461548 216.800737,40.0621763 216.508744,39.6982422 C216.21675,39.3343081 215.702595,39.1523438 214.966263,39.1523438 L214.966263,38.6064453 C215.507933,38.6572268 216.045362,38.6826172 216.578568,38.6826172 C217.678834,38.6826172 218.580192,38.5641288 219.28267,38.3271484 L219.28267,49.5878906 C219.28267,50.0703149 219.348261,50.4469388 219.479447,50.7177734 L219.479447,50.7177734 Z M233.060661,39 C233.945106,39.4993515 234.643341,40.2758736 235.155388,41.3295898 C235.667435,42.383306 235.923454,43.7141847 235.923454,45.3222656 C235.923454,46.9303466 235.667435,48.2591093 235.155388,49.3085938 C234.643341,50.3580782 233.945106,51.1303686 233.060661,51.6254883 C232.176217,52.1206079 231.162718,52.3681641 230.020134,52.3681641 C228.87755,52.3681641 227.864051,52.1206079 226.979607,51.6254883 C226.095162,51.1303686 225.396927,50.3580782 224.88488,49.3085938 C224.372833,48.2591093 224.116814,46.9303466 224.116814,45.3222656 C224.116814,43.7141847 224.372833,42.383306 224.88488,41.3295898 C225.396927,40.2758736 226.095162,39.4993515 226.979607,39 C227.864051,38.5006485 228.87755,38.2509766 230.020134,38.2509766 C231.162718,38.2509766 232.176217,38.5006485 233.060661,39 L233.060661,39 Z M227.550896,40.3710938 C226.945749,41.4375053 226.643181,43.0878795 226.643181,45.3222656 C226.643181,47.5481882 226.945749,49.1922147 227.550896,50.2543945 C228.156042,51.3165743 228.979113,51.8476562 230.020134,51.8476562 C231.061155,51.8476562 231.884226,51.3165743 232.489372,50.2543945 C233.094519,49.1922147 233.397087,47.5481882 233.397087,45.3222656 C233.397087,43.0878795 233.094519,41.4375053 232.489372,40.3710938 C231.884226,39.3046822 231.061155,38.7714844 230.020134,38.7714844 C228.979113,38.7714844 228.156042,39.3046822 227.550896,40.3710938 L227.550896,40.3710938 Z M245.080352,38.9936523 C245.85477,38.4985327 246.728622,38.2509766 247.701934,38.2509766 C248.912227,38.2509766 249.830512,38.5768197 250.456817,39.2285156 C250.778433,39.5839862 251.009063,40.0219701 251.148712,40.5424805 C251.288361,41.0629909 251.358184,41.763342 251.358184,42.6435547 L251.358184,49.5878906 C251.358184,50.0703149 251.423776,50.4469388 251.554962,50.7177734 C251.686147,50.9886081 251.893502,51.1790359 252.177032,51.2890625 C252.460562,51.3990891 252.847765,51.4541016 253.338653,51.4541016 L253.338653,52 C251.747499,51.9322913 250.706494,51.8984375 250.215606,51.8984375 C249.733182,51.8984375 248.764116,51.9322913 247.30838,52 L247.30838,51.4541016 C247.740022,51.4541016 248.076445,51.3990891 248.317657,51.2890625 C248.558869,51.1790359 248.736602,50.9886081 248.85086,50.7177734 C248.965119,50.4469388 249.022247,50.0703149 249.022247,49.5878906 L249.022247,42.0722656 C249.022247,41.4459604 248.973582,40.9212261 248.876251,40.4980469 C248.77892,40.0748677 248.575797,39.7320977 248.266876,39.4697266 C247.957955,39.2073555 247.507276,39.0761719 246.914825,39.0761719 C246.203884,39.0761719 245.57124,39.2835266 245.016876,39.6982422 C244.462511,40.1129578 244.032991,40.6821253 243.728302,41.4057617 C243.423613,42.1293981 243.27127,42.9313107 243.27127,43.8115234 L243.27127,49.5878906 C243.27127,50.0703149 243.328399,50.4469388 243.442657,50.7177734 C243.556915,50.9886081 243.736764,51.1790359 243.982208,51.2890625 C244.227652,51.3990891 244.56619,51.4541016 244.997833,51.4541016 L244.997833,52 C243.542096,51.9322913 242.568799,51.8984375 242.077911,51.8984375 C241.587023,51.8984375 240.546018,51.9322913 238.954864,52 L238.954864,51.4541016 C239.445752,51.4541016 239.832955,51.3990891 240.116485,51.2890625 C240.400015,51.1790359 240.60737,50.9886081 240.738555,50.7177734 C240.869741,50.4469388 240.935333,50.0703149 240.935333,49.5878906 L240.935333,41.4501953 C240.935333,40.6461548 240.789338,40.0621763 240.497344,39.6982422 C240.205351,39.3343081 239.691196,39.1523438 238.954864,39.1523438 L238.954864,38.6064453 C239.496533,38.6572268 240.033963,38.6826172 240.567169,38.6826172 C241.667435,38.6826172 242.568793,38.5641288 243.27127,38.3271484 L243.27127,41.3867188 C243.702913,40.2864528 244.305934,39.488772 245.080352,38.9936523 L245.080352,38.9936523 Z" id="Media-Installation" fill="#000000"></path>
                </g>
            </g>
        </g>
    </g>
</svg>